<svg width="26" height="24" viewBox="0 0 26 24" fill="none" xmlns="http://www.w3.org/2000/svg">
<path d="M25.2718 6.62844C25.4813 6.87782 25.5561 7.1621 25.4963 7.48131L24.5087 14.0349C24.4688 14.2943 24.3541 14.5038 24.1646 14.6634C23.9751 14.823 23.7506 14.9028 23.4913 14.9028H9.72569C9.58603 14.8828 9.46633 14.9327 9.36658 15.0524C9.26683 15.1721 9.22693 15.3117 9.24688 15.4713L9.54614 17.0873C9.56608 17.187 9.62095 17.2768 9.71073 17.3566C9.80051 17.4364 9.90524 17.4763 10.0249 17.4763H22.5636C22.8628 17.4763 23.1222 17.581 23.3416 17.7905C23.5611 18 23.6708 18.2544 23.6708 18.5536V18.793C23.6708 19.0923 23.5661 19.3466 23.3566 19.5561C23.1471 19.7656 22.8928 19.8703 22.5935 19.8703H22.0848C22.5237 20.3691 22.7332 20.9526 22.7132 21.621C22.6933 22.2893 22.4439 22.8529 21.9651 23.3117C21.4863 23.7706 20.9127 24 20.2444 24C19.5761 24 19.0025 23.7706 18.5237 23.3117C18.0449 22.8529 17.7905 22.2893 17.7606 21.621C17.7307 20.9526 17.9451 20.3691 18.404 19.8703H12.8379C13.2968 20.3691 13.5162 20.9526 13.4963 21.621C13.4763 22.2893 13.2219 22.8529 12.7332 23.3117C12.2444 23.7706 11.6658 24 10.9975 24C10.3292 24 9.75561 23.7706 9.2768 23.3117C8.798 22.8529 8.54862 22.2893 8.52867 21.621C8.50872 20.9526 8.7182 20.3691 9.1571 19.8703H8.64837C8.44887 19.8703 8.26932 19.8204 8.10972 19.7207C7.77057 19.5411 7.57107 19.2618 7.51122 18.8828L4.45885 2.60349C4.4389 2.52369 4.399 2.45885 4.33915 2.40898C4.2793 2.3591 4.20948 2.33417 4.12967 2.33417H1.07731C0.778051 2.33417 0.523689 2.22444 0.314212 2.00499C0.104736 1.78554 0 1.52619 0 1.22693V1.07731C0 0.778051 0.104736 0.523689 0.314212 0.314212C0.523689 0.104735 0.778051 0 1.07731 0H5.44638C5.72568 0 5.96509 0.0847875 6.16458 0.254363C6.36409 0.423938 6.48379 0.648378 6.52369 0.927679L7.48129 5.83541C7.50124 5.95511 7.55611 6.05486 7.64589 6.13466C7.73566 6.21446 7.8404 6.25436 7.9601 6.25436H24.4489C24.788 6.25436 25.0623 6.37906 25.2718 6.62844Z" fill="#FCFCFC"/>
</svg>
