<svg width="22" height="22" viewBox="0 0 22 22" fill="none" xmlns="http://www.w3.org/2000/svg">
<g opacity="0.79">
<path fill-rule="evenodd" clip-rule="evenodd" d="M3.48619 15.9874C2.29513 14.7933 1.48727 13.2821 1.16284 11.6413C0.835731 9.99594 1.00371 8.29267 1.64624 6.73948C2.2833 5.19501 3.37091 3.8698 4.7725 2.93024C7.61624 1.02325 11.3599 1.02325 14.2036 2.93024C15.6053 3.8698 16.6929 5.19501 17.3298 6.73948C17.9724 8.29267 18.1404 9.99594 17.8132 11.6413C17.4889 13.2821 16.681 14.7933 15.4899 15.9874C13.9126 17.5767 11.7483 18.4731 9.48801 18.4731C7.22787 18.4731 5.06358 17.5767 3.48619 15.9874Z" stroke="#828F9B" stroke-width="1.5" stroke-linecap="round" stroke-linejoin="round"/>
<path d="M9.49739 4.53338C8.93012 4.59239 8.51902 5.09178 8.57907 5.64879C8.63925 6.2058 9.14785 6.60948 9.71512 6.55047L9.49739 4.53338ZM12.0471 7.89943C12.2696 8.41527 12.8757 8.65638 13.4011 8.43799C13.9263 8.21963 14.1719 7.62448 13.9495 7.10867L12.0471 7.89943ZM16.3447 15.1945C15.9411 14.7989 15.287 14.7994 14.8841 15.1959C14.4809 15.5922 14.4816 16.2344 14.8853 16.6301L16.3447 15.1945ZM19.5513 21.2034C19.9551 21.5992 20.609 21.5987 21.0121 21.2022C21.415 20.8057 21.4145 20.1637 21.0107 19.7679L19.5513 21.2034ZM9.71512 6.55047C10.7102 6.44694 11.6571 6.99467 12.0471 7.89943L13.9495 7.10867C13.2048 5.38142 11.3971 4.33573 9.49739 4.53338L9.71512 6.55047ZM14.8853 16.6301L19.5513 21.2034L21.0107 19.7679L16.3447 15.1945L14.8853 16.6301Z" fill="#828F9B"/>
</g>
</svg>
