<svg width="27" height="24" viewBox="0 0 27 24" fill="none" xmlns="http://www.w3.org/2000/svg">
<path d="M13.2745 9.5999C15.3883 9.5999 17.1019 7.98813 17.1019 5.9999C17.1019 4.01168 15.3883 2.3999 13.2745 2.3999C11.1606 2.3999 9.44704 4.01168 9.44704 5.9999C9.44704 7.98813 11.1606 9.5999 13.2745 9.5999Z" fill="#FCFCFC"/>
<path d="M4.93727 17.3921C4.68864 18.0018 4.91071 18.6851 5.45912 19.0854C7.61824 20.6616 10.3299 21.5999 13.2746 21.5999C16.2223 21.5999 18.9365 20.6596 21.0967 19.0806C21.6449 18.6799 21.8665 17.9965 21.6174 17.387C20.3298 14.2361 17.0817 11.9999 13.2784 11.9999C9.47296 11.9999 6.22345 14.2386 4.93727 17.3921Z" fill="#FCFCFC"/>
</svg>
