<svg width="43" height="40" viewBox="0 0 43 40" fill="none" xmlns="http://www.w3.org/2000/svg">
<path d="M0.472656 20C0.472656 8.95431 9.42696 0 20.4727 0H22.9997C34.0454 0 42.9997 8.95431 42.9997 20C42.9997 31.0457 34.0454 40 22.9997 40H20.4727C9.42696 40 0.472656 31.0457 0.472656 20Z" fill="#FCFCFC"/>
<path d="M21.7361 16C25.2592 16 28.1152 13.3137 28.1152 10C28.1152 6.68629 25.2592 4 21.7361 4C18.2131 4 15.3571 6.68629 15.3571 10C15.3571 13.3137 18.2131 16 21.7361 16Z" fill="#151C71"/>
<path d="M7.84077 28.9871C7.42638 30.0031 7.79649 31.142 8.71051 31.8092C12.309 34.4361 16.8285 36 21.7364 36C26.6492 36 31.1729 34.4329 34.7732 31.8011C35.6868 31.1334 36.0561 29.9943 35.641 28.9785C33.495 23.7271 28.0815 20 21.7426 20C15.4003 20 9.98439 23.7311 7.84077 28.9871Z" fill="#151C71"/>
</svg>
