<svg width="25" height="25" viewBox="0 0 25 25" fill="none" xmlns="http://www.w3.org/2000/svg">
<path fill-rule="evenodd" clip-rule="evenodd" d="M12.5004 22.435C17.8023 22.435 22.1004 18.1369 22.1004 12.835C22.1004 7.53305 17.8023 3.23499 12.5004 3.23499C7.19846 3.23499 2.90039 7.53305 2.90039 12.835C2.90039 18.1369 7.19846 22.435 12.5004 22.435ZM13.4004 8.93499C13.4004 8.43793 12.9974 8.03499 12.5004 8.03499C12.0033 8.03499 11.6004 8.43793 11.6004 8.93499V14.4431L9.2599 11.9226C8.92168 11.5583 8.35222 11.5372 7.98798 11.8755C7.62374 12.2137 7.60265 12.7832 7.94088 13.1474L11.8409 17.3474C12.0112 17.5308 12.2501 17.635 12.5004 17.635C12.7507 17.635 12.9896 17.5308 13.1599 17.3474L17.0599 13.1474C17.3981 12.7832 17.377 12.2137 17.0128 11.8755C16.6486 11.5372 16.0791 11.5583 15.7409 11.9226L13.4004 14.4431V8.93499Z" fill="#0F172A"/>
</svg>
