<svg width="303" height="106" viewBox="0 0 303 106" fill="none" xmlns="http://www.w3.org/2000/svg">
<path d="M53.5 106C82.7711 106 106.5 82.2711 106.5 53C106.5 23.7289 82.7711 0 53.5 0C24.2289 0 0.5 23.7289 0.5 53C0.5 82.2711 24.2289 106 53.5 106Z" fill="#00053C"/>
<path d="M53.5001 100.321C79.635 100.321 100.822 79.1349 100.822 53C100.822 26.8651 79.635 5.67859 53.5001 5.67859C27.3652 5.67859 6.17871 26.8651 6.17871 53C6.17871 79.1349 27.3652 100.321 53.5001 100.321Z" fill="url(#paint0_angular_100_3215)"/>
<path fill-rule="evenodd" clip-rule="evenodd" d="M21.3213 53L44.9973 29.9191C49.6738 25.3603 57.3259 25.3603 62.0028 29.9191L85.6784 53H21.3213Z" fill="#00053C" stroke="#00053C" stroke-linejoin="round"/>
<path fill-rule="evenodd" clip-rule="evenodd" d="M21.3213 53L44.3009 29.9191C48.8399 25.3603 56.267 25.3603 60.8063 29.9191L83.7856 53H21.3213Z" fill="#FFFF7D"/>
<path fill-rule="evenodd" clip-rule="evenodd" d="M55.2083 79.5C38.8176 79.5 23.4445 66.6115 19.4287 53C45.2679 53 60.7566 53 87.5716 53C81.477 70.3258 67.1728 79.5 55.2083 79.5Z" fill="#00053C"/>
<path fill-rule="evenodd" clip-rule="evenodd" d="M20.7185 29.3896L18.828 27.922L19.4864 27.0948C19.6187 26.9282 19.7364 26.8151 19.8385 26.7551C19.9416 26.6945 20.0567 26.6717 20.1832 26.687C20.3103 26.7021 20.4261 26.7502 20.5297 26.8303C20.664 26.9343 20.7427 27.0651 20.7671 27.2223C20.7907 27.3797 20.7433 27.5563 20.6263 27.7554C20.7101 27.7143 20.7811 27.6896 20.8386 27.6789C20.9632 27.6587 21.1014 27.6556 21.2529 27.67L22.0251 27.7464L21.779 28.056L21.1895 27.9972C21.0182 27.9802 20.8845 27.9725 20.7867 27.9725C20.6895 27.9725 20.614 27.9819 20.561 27.9997C20.508 28.018 20.4612 28.0428 20.4209 28.0736C20.3933 28.097 20.3539 28.1405 20.3032 28.2043L20.0756 28.4904L20.9151 29.142L20.7185 29.3896ZM19.8593 28.3225L20.2813 27.792C20.3713 27.6789 20.4289 27.5817 20.4558 27.4997C20.4828 27.4182 20.4841 27.3405 20.4571 27.2673C20.4315 27.1941 20.3881 27.134 20.3274 27.0868C20.2379 27.0174 20.1388 26.9914 20.0302 27.011C19.9222 27.0299 19.8127 27.1082 19.7034 27.2458L19.2336 27.8363L19.8593 28.3225ZM22.2171 27.5065L20.3996 25.9513L21.0977 25.1563C21.2384 24.996 21.3611 24.8884 21.4667 24.8329C21.572 24.778 21.6884 24.7603 21.8145 24.7812C21.9404 24.8027 22.0536 24.8557 22.1533 24.9408C22.2824 25.0513 22.3546 25.1859 22.3708 25.3444C22.3868 25.5024 22.3318 25.6765 22.2046 25.8698C22.2902 25.8325 22.3626 25.811 22.4208 25.8036C22.546 25.7898 22.6848 25.7929 22.835 25.8142L23.6023 25.9272L23.3422 26.224L22.756 26.1382C22.5859 26.1129 22.4529 26.0991 22.3551 26.0939C22.2579 26.0895 22.1824 26.0952 22.1281 26.111C22.0745 26.1261 22.0264 26.1489 21.985 26.1778C21.9564 26.2 21.9147 26.2417 21.8611 26.3028L21.6194 26.5774L22.427 27.2681L22.218 27.5061L22.2171 27.5065ZM21.4108 26.3996L21.8578 25.89C21.9531 25.7808 22.0158 25.6874 22.0465 25.6065C22.0777 25.5262 22.0816 25.4485 22.0592 25.3746C22.0367 25.3001 21.9964 25.2376 21.9376 25.1871C21.852 25.1139 21.7542 25.0837 21.6447 25.0975C21.5354 25.1113 21.4229 25.1846 21.3065 25.3172L20.8091 25.8849L21.4108 26.3996ZM23.8552 25.6784L22.1148 24.0398L22.3352 23.8118L24.075 25.4498L23.8552 25.6784ZM25.2828 22.955L25.0878 22.7536L25.8249 22.0603L26.4394 22.6967C26.4118 22.892 26.3601 23.0693 26.2833 23.2272C26.2059 23.3858 26.1042 23.5239 25.9777 23.6434C25.807 23.8043 25.6171 23.9144 25.4068 23.9735C25.1984 24.0323 24.9912 24.0272 24.789 23.9578C24.5852 23.8884 24.4022 23.769 24.2393 23.6004C24.078 23.4331 23.9632 23.2436 23.8933 23.032C23.8243 22.8198 23.8224 22.6171 23.8875 22.4213C23.9528 22.2261 24.0715 22.0469 24.2448 21.8834C24.3707 21.7652 24.5037 21.6782 24.6444 21.6226C24.7852 21.5671 24.9188 21.5487 25.046 21.5658C25.1731 21.5835 25.3081 21.6358 25.4488 21.7237L25.2954 21.9751C25.1854 21.9126 25.0863 21.8747 24.9994 21.8602C24.9119 21.847 24.8186 21.8583 24.7169 21.8961C24.6164 21.934 24.5218 21.9941 24.4343 22.0767C24.3295 22.1759 24.2539 22.2768 24.2074 22.3811C24.1612 22.4845 24.1403 22.5844 24.1427 22.681C24.1459 22.777 24.1638 22.8685 24.197 22.9543C24.2565 23.1021 24.3453 23.2385 24.4655 23.3628C24.6138 23.5163 24.764 23.6198 24.9175 23.6734C25.0703 23.7264 25.2225 23.7296 25.3727 23.6841C25.5229 23.6379 25.6553 23.5616 25.7697 23.4535C25.8695 23.3594 25.9488 23.2489 26.007 23.1221C26.0639 22.9939 26.0965 22.886 26.1042 22.7962L25.7928 22.4741L25.2828 22.955ZM26.8454 22.8243L25.9682 20.4329L26.2329 20.2068L28.5472 21.3687L28.2729 21.6031L27.5855 21.2386L26.8202 21.8934L27.1002 22.6063L26.8454 22.8243ZM26.7219 21.6403L27.3414 21.1105L26.7148 20.7746C26.5256 20.6722 26.3728 20.5845 26.2564 20.5112C26.3338 20.6502 26.4015 20.7928 26.459 20.9425L26.7219 21.6403ZM28.769 21.2299L27.3752 19.2951L28.244 18.685C28.4186 18.562 28.5636 18.4862 28.6794 18.457C28.7951 18.4281 28.9121 18.4387 29.0298 18.4879C29.1469 18.5377 29.2447 18.616 29.3208 18.7223C29.4193 18.86 29.4577 19.0071 29.4359 19.1649C29.4141 19.3221 29.3176 19.4786 29.1482 19.6365C29.2408 19.6208 29.3156 19.6163 29.3745 19.6227C29.4997 19.6385 29.6327 19.6738 29.7741 19.73L30.4926 20.0193L30.1684 20.2466L29.6193 20.0257C29.46 19.9618 29.3342 19.9171 29.2408 19.8899C29.1475 19.8626 29.0721 19.8507 29.0158 19.8533C28.9602 19.8558 28.9078 19.8665 28.8604 19.8848C28.8272 19.8992 28.7766 19.9303 28.7102 19.9769L28.4097 20.1879L29.0285 21.0472L28.769 21.2299ZM28.2505 19.9663L28.8067 19.5755C28.9257 19.492 29.0087 19.4151 29.0581 19.3436C29.1072 19.273 29.1303 19.1991 29.1258 19.1214C29.1219 19.0437 29.0975 18.9743 29.0529 18.9117C28.9863 18.8202 28.8994 18.7678 28.7895 18.7557C28.6802 18.7438 28.5535 18.7885 28.4085 18.8903L27.789 19.3253L28.2505 19.9663ZM30.7433 19.8388L29.4454 17.8395L30.3424 17.2718C30.5232 17.1575 30.6717 17.0881 30.7887 17.0647C30.9058 17.0412 31.0222 17.057 31.1373 17.1126C31.2517 17.1675 31.345 17.2503 31.4166 17.3601C31.5086 17.5021 31.5394 17.6513 31.5099 17.8072C31.4806 17.9638 31.3763 18.1154 31.1998 18.265C31.2924 18.2537 31.3679 18.2531 31.4261 18.2625C31.55 18.284 31.6819 18.3257 31.8199 18.3881L32.5238 18.7108L32.1889 18.923L31.6511 18.6767C31.495 18.6054 31.3711 18.5543 31.2797 18.5226C31.1877 18.4911 31.1135 18.4754 31.0567 18.4754C31.0011 18.4754 30.9487 18.4836 30.9 18.4994C30.8661 18.5126 30.8144 18.5405 30.7452 18.5845L30.4351 18.781L31.0118 19.6689L30.7433 19.8388ZM30.2862 18.5518L30.8616 18.188C30.9844 18.1103 31.0707 18.0371 31.1237 17.9689C31.1761 17.9002 31.2024 17.8276 31.2017 17.7499C31.2024 17.6722 31.1812 17.6009 31.1397 17.5364C31.0782 17.4423 30.9933 17.3855 30.8838 17.3684C30.7752 17.3514 30.6465 17.3906 30.4969 17.4847L29.857 17.89L30.2862 18.5518ZM32.8352 18.5386L31.6371 16.4808L31.9138 16.3234L33.1119 18.3819L32.8352 18.5386ZM34.9841 16.3228L34.8556 16.0746L35.7615 15.6167L36.1675 16.3997C36.085 16.5796 35.9847 16.735 35.8651 16.865C35.7455 16.9944 35.6082 17.0994 35.4528 17.1775C35.2425 17.2842 35.0282 17.3361 34.811 17.3341C34.5935 17.3322 34.3967 17.269 34.2228 17.1454C34.0476 17.0217 33.9064 16.8554 33.7988 16.6483C33.6922 16.4424 33.6359 16.2289 33.6308 16.0061C33.6255 15.7838 33.6818 15.588 33.8008 15.4194C33.9191 15.2502 34.0847 15.1118 34.2982 15.0039C34.453 14.9256 34.6058 14.8796 34.756 14.8662C34.9069 14.8523 35.0405 14.8719 35.1575 14.9243C35.2746 14.9766 35.3884 15.0652 35.4989 15.1882L35.2791 15.3864C35.1916 15.2955 35.1077 15.231 35.0278 15.1931C34.9478 15.1559 34.8552 15.1408 34.7472 15.1488C34.6398 15.1565 34.5317 15.1874 34.4237 15.2423C34.2946 15.3075 34.1935 15.3832 34.1187 15.4703C34.0445 15.5567 33.9952 15.6459 33.9711 15.7393C33.946 15.8322 33.9372 15.925 33.9441 16.0165C33.9581 16.1757 34.0042 16.3309 34.0835 16.4837C34.1814 16.6732 34.2958 16.8145 34.4276 16.9087C34.5592 17.0021 34.7036 17.0483 34.861 17.0463C35.0183 17.0445 35.1672 17.0084 35.3084 16.9372C35.4306 16.8752 35.5386 16.7907 35.6306 16.6858C35.7226 16.5791 35.7847 16.485 35.8173 16.4003L35.6121 16.0044L34.9842 16.322L34.9841 16.3228ZM36.5177 16.6317L36.3675 14.0926L36.6865 13.95L38.5687 15.7155L38.2388 15.8626L37.6851 15.3202L36.7624 15.7319L36.8251 16.494L36.5177 16.6317ZM36.7415 15.4616L37.4876 15.1282L36.9844 14.6301C36.8322 14.4785 36.7113 14.3516 36.6212 14.2486C36.6557 14.4027 36.6787 14.5592 36.6908 14.7191L36.7415 15.4616ZM38.8162 15.6301L38.0457 13.381L39.0546 13.0438C39.2578 12.9763 39.419 12.9446 39.5386 12.9497C39.6576 12.9548 39.7669 12.9976 39.8647 13.0785C39.9626 13.16 40.0329 13.2622 40.0757 13.3861C40.1301 13.5457 40.1236 13.6979 40.0565 13.8421C39.9899 13.9866 39.852 14.1098 39.6442 14.2127C39.7369 14.2233 39.8104 14.2409 39.8641 14.2638C39.9798 14.3136 40.0968 14.3861 40.2158 14.4798L40.8199 14.9609L40.4434 15.0865L39.9818 14.7191C39.8481 14.613 39.7401 14.5341 39.6583 14.4811C39.577 14.4287 39.5086 14.3959 39.4537 14.3825C39.3994 14.3687 39.347 14.3642 39.2964 14.3687C39.2599 14.3732 39.203 14.3883 39.125 14.4142L38.7759 14.5305L39.1185 15.5301L38.8162 15.6301ZM38.6877 14.2725L39.3347 14.0564C39.4729 14.0102 39.5744 13.9604 39.6429 13.9061C39.7099 13.8525 39.7542 13.788 39.772 13.7122C39.7913 13.6371 39.7886 13.5632 39.7636 13.4906C39.7272 13.3846 39.6583 13.3094 39.5572 13.2665C39.4555 13.2241 39.3205 13.2311 39.1531 13.2873L38.4325 13.5285L38.6877 14.2725ZM41.109 14.8483L40.4518 12.5638L41.4773 12.2758C41.6832 12.2183 41.8463 12.1949 41.9651 12.2057C42.0834 12.217 42.1901 12.2651 42.284 12.3509C42.3774 12.436 42.4427 12.5423 42.4791 12.6679C42.5259 12.8301 42.511 12.9816 42.4375 13.1226C42.3634 13.2635 42.2194 13.3795 42.0066 13.4723C42.0987 13.4874 42.1709 13.5083 42.2241 13.5342C42.3367 13.5898 42.4504 13.6675 42.5649 13.7673L43.1436 14.2776L42.7612 14.3849L42.3188 13.9953C42.1903 13.8823 42.0866 13.7978 42.008 13.7416C41.9293 13.6847 41.8622 13.6488 41.8079 13.6324C41.7549 13.6166 41.7026 13.6096 41.6513 13.6109C41.6155 13.614 41.5573 13.626 41.4786 13.6481L41.1238 13.748L41.4155 14.7621L41.109 14.8483ZM41.0489 13.4857L41.7053 13.3014C41.8455 13.2622 41.9502 13.2173 42.0205 13.1662C42.0907 13.1164 42.1375 13.0538 42.1592 12.9793C42.1823 12.9048 42.1836 12.8316 42.1619 12.7577C42.1312 12.6498 42.0659 12.5708 41.9668 12.5233C41.8676 12.4761 41.7327 12.4765 41.562 12.5246L40.8305 12.7298L41.0489 13.4857ZM43.4893 14.1886L42.9483 11.8749L43.2597 11.8042L43.8001 14.1179L43.4893 14.1886ZM46.1963 12.6725L46.1465 12.3979L47.1485 12.221L47.305 13.0874C47.1733 13.2358 47.0307 13.3552 46.8785 13.4448C46.7257 13.5345 46.5634 13.5945 46.3914 13.6253C46.1586 13.6664 45.9388 13.6543 45.731 13.5894C45.5239 13.5249 45.3538 13.4076 45.2247 13.239C45.0937 13.0704 45.0073 12.8709 44.9665 12.6417C44.9249 12.4143 44.9346 12.1934 44.9952 11.9792C45.0559 11.7644 45.1678 11.5939 45.3314 11.4671C45.4943 11.3396 45.6946 11.2548 45.9306 11.2134C46.1013 11.1837 46.2612 11.1831 46.4095 11.214C46.5572 11.2442 46.68 11.301 46.7759 11.3851C46.8718 11.4692 46.955 11.5865 47.024 11.7361L46.7548 11.8623C46.6979 11.75 46.6371 11.6648 46.572 11.6048C46.5074 11.5461 46.4224 11.5049 46.3168 11.4818C46.2121 11.4577 46.0994 11.4564 45.9799 11.4779C45.8373 11.5026 45.7179 11.5461 45.6207 11.608C45.5241 11.6687 45.4513 11.7406 45.3995 11.8228C45.3485 11.9043 45.3127 11.9901 45.2928 12.0797C45.2584 12.2357 45.2564 12.3979 45.2877 12.5672C45.3254 12.7762 45.3924 12.9448 45.4909 13.073C45.5888 13.2005 45.7133 13.2865 45.8642 13.3293C46.0151 13.3729 46.1686 13.3816 46.3246 13.354C46.4602 13.3299 46.5879 13.2807 46.7069 13.2062C46.8265 13.1311 46.9141 13.0591 46.9703 12.9878L46.891 12.5501L46.1963 12.6725ZM47.5691 13.3918L48.1808 10.9208L48.5279 10.8772L49.8024 13.1113L49.443 13.1568L49.075 12.4767L48.0709 12.6029L47.9041 13.3492L47.5691 13.3918ZM48.1312 12.3385L48.9437 12.2362L48.6111 11.6142C48.5099 11.4247 48.4326 11.268 48.3762 11.1437C48.3636 11.3017 48.3393 11.4575 48.3033 11.6135L48.1312 12.3385ZM50.063 13.1166L49.8802 10.7486L50.9426 10.669C51.157 10.6526 51.3204 10.662 51.4352 10.6963C51.5494 10.7303 51.6442 10.7987 51.7186 10.9008C51.793 11.0039 51.8353 11.1199 51.8455 11.2499C51.8582 11.4186 51.8139 11.5644 51.7133 11.6876C51.6121 11.8113 51.4478 11.8966 51.2202 11.9452C51.3068 11.9786 51.3744 12.0133 51.4206 12.0486C51.5198 12.1257 51.616 12.2242 51.7075 12.3441L52.1713 12.9578L51.775 12.9874L51.4206 12.5189C51.3175 12.3831 51.2329 12.2802 51.1672 12.2087C51.1011 12.138 51.0432 12.0899 50.9937 12.0629C50.9445 12.0369 50.8945 12.0192 50.8444 12.0112C50.8084 12.0067 50.7491 12.0073 50.6669 12.0131L50.2993 12.0409L50.3805 13.0923L50.063 13.1166ZM50.2794 11.7704L50.9591 11.7187C51.105 11.708 51.2164 11.6846 51.2956 11.6486C51.3749 11.6133 51.4332 11.5616 51.4702 11.4926C51.5071 11.4245 51.5232 11.3523 51.5168 11.2761C51.5086 11.1637 51.4614 11.0741 51.3734 11.0083C51.2859 10.9421 51.1541 10.9162 50.9766 10.9293L50.2186 10.9862L50.2794 11.7704ZM52.484 12.991L52.4227 10.6173L53.4885 10.5907C53.703 10.585 53.8659 10.602 53.9782 10.6424C54.091 10.6822 54.1819 10.7548 54.2514 10.8608C54.3205 10.9675 54.357 11.0856 54.3599 11.2163C54.3643 11.3843 54.3127 11.5281 54.2053 11.6463C54.0978 11.7645 53.9296 11.8415 53.7001 11.8794C53.7851 11.9167 53.8503 11.9552 53.895 11.9924C53.9899 12.0746 54.0808 12.1774 54.1664 12.3019L54.5986 12.9384L54.2009 12.9478L53.8702 12.4623C53.7744 12.3209 53.6952 12.2147 53.633 12.1395C53.5707 12.0657 53.5158 12.0146 53.4676 11.9854C53.4195 11.9571 53.3709 11.9369 53.3213 11.926C53.2853 11.9196 53.2265 11.9177 53.1438 11.9196L52.7757 11.9286L52.8025 12.9831L52.484 12.991ZM52.7689 11.6574L53.4516 11.6397C53.597 11.6365 53.7098 11.6189 53.791 11.5867C53.8717 11.5552 53.9325 11.5064 53.9723 11.4396C54.0132 11.3734 54.0326 11.3019 54.0307 11.2255C54.0283 11.1131 53.9845 11.0209 53.9009 10.9509C53.8163 10.8808 53.686 10.8478 53.5085 10.8523L52.749 10.8712L52.7689 11.6574ZM54.956 13.0042L55.0158 10.6305L55.3358 10.6388L55.274 13.0125L54.956 13.0042ZM58.0033 12.2856L58.0388 12.0091L59.0482 12.1359L58.9364 13.0093C58.7652 13.1117 58.594 13.1837 58.4205 13.2247C58.2478 13.2652 58.0747 13.2745 57.9012 13.2526C57.6673 13.2237 57.4606 13.1479 57.2817 13.0246C57.1042 12.9022 56.9778 12.7392 56.9049 12.5403C56.8305 12.3409 56.8086 12.1255 56.8382 11.8943C56.8674 11.665 56.9438 11.4566 57.0663 11.2704C57.1893 11.0835 57.3468 10.9541 57.5418 10.8808C57.7363 10.8076 57.9522 10.7855 58.1905 10.815C58.3626 10.8366 58.5153 10.8838 58.647 10.9564C58.7793 11.029 58.879 11.1192 58.9446 11.228C59.0117 11.3366 59.0555 11.473 59.0759 11.6365L58.7808 11.6776C58.7603 11.5533 58.7278 11.4535 58.6835 11.3777C58.6398 11.3025 58.5712 11.238 58.4778 11.185C58.3845 11.1314 58.278 11.0967 58.1574 11.0816C58.014 11.0639 57.8866 11.0703 57.7752 11.1005C57.6648 11.1301 57.5734 11.1763 57.499 11.2401C57.4256 11.3027 57.3653 11.374 57.3186 11.4537C57.2399 11.5927 57.1888 11.7472 57.1665 11.9177C57.1397 12.128 57.1538 12.3085 57.2088 12.4601C57.2632 12.6104 57.3566 12.7298 57.4869 12.8156C57.6177 12.9014 57.7621 12.9546 57.9191 12.9742C58.0558 12.9912 58.1929 12.9819 58.3286 12.9459C58.4657 12.9099 58.5712 12.8669 58.6456 12.8158L58.7025 12.3739L58.0028 12.2862L58.0033 12.2856ZM59.1022 13.3375L60.433 11.1597L60.7773 11.221L61.318 13.7286L60.962 13.666L60.8162 12.9082L59.8194 12.7326L59.4348 13.3963L59.1022 13.3375ZM59.957 12.4978L60.7632 12.6404L60.6338 11.9483C60.5949 11.7381 60.5682 11.5656 60.5521 11.4307C60.4918 11.5771 60.4218 11.7193 60.3406 11.8575L59.957 12.4978ZM61.5737 13.772L62.1139 11.4577L63.1525 11.6944C63.3611 11.7423 63.5148 11.7985 63.614 11.8656C63.7132 11.9313 63.7827 12.0248 63.8231 12.1446C63.8634 12.2641 63.8683 12.3883 63.8391 12.5152C63.8007 12.6794 63.7136 12.8051 63.5799 12.8935C63.4467 12.9819 63.2644 13.0149 63.0324 12.9946C63.1049 13.0521 63.1589 13.1051 63.1929 13.1525C63.2639 13.255 63.3256 13.3773 63.3767 13.5189L63.6349 14.242L63.2473 14.1537L63.0499 13.6011C62.9926 13.4414 62.9435 13.3182 62.9016 13.2311C62.8598 13.144 62.8199 13.0808 62.7801 13.0404C62.7412 13.0012 62.6984 12.9697 62.6532 12.947C62.6206 12.9324 62.5637 12.9154 62.4835 12.8971L62.1241 12.8156L61.8844 13.8429L61.5737 13.772ZM62.1864 12.5501L62.852 12.7017C62.994 12.7339 63.1068 12.7441 63.1939 12.7332C63.2799 12.7232 63.3514 12.6902 63.4068 12.636C63.4637 12.5816 63.5002 12.5171 63.5172 12.4427C63.543 12.3335 63.5245 12.2336 63.4613 12.1446C63.3971 12.0556 63.2789 11.9924 63.1063 11.9526L62.3653 11.784L62.1864 12.5501ZM63.9315 14.3283L64.5889 12.0443L65.6139 12.3317C65.82 12.3898 65.9703 12.4541 66.0656 12.525C66.1614 12.5963 66.226 12.6923 66.2606 12.8149C66.2946 12.9363 66.2931 13.06 66.2576 13.1855C66.2105 13.3471 66.1181 13.4691 65.98 13.5506C65.8419 13.6322 65.6586 13.656 65.4276 13.6245C65.4981 13.6858 65.5477 13.7414 65.5798 13.7899C65.646 13.8959 65.7014 14.021 65.7452 14.165L65.9664 14.8994L65.5832 14.7921L65.4145 14.2307C65.3654 14.0685 65.3221 13.9433 65.2852 13.8537C65.2477 13.7647 65.2108 13.6996 65.1738 13.6579C65.1369 13.6162 65.0955 13.5834 65.0518 13.5581C65.0197 13.5417 64.9633 13.5221 64.8845 13.4993L64.53 13.4002L64.2383 14.4149L63.9315 14.3283ZM64.6054 13.1385L65.2628 13.3229C65.4028 13.362 65.5152 13.3778 65.6022 13.3714C65.6892 13.365 65.7617 13.336 65.8205 13.2843C65.8798 13.2332 65.9197 13.1706 65.9406 13.0968C65.9713 12.9889 65.9586 12.8884 65.8988 12.7962C65.84 12.7047 65.7252 12.6353 65.5546 12.5872L64.8228 12.382L64.6054 13.1385ZM66.298 15.0354L67.0687 12.7862L67.3707 12.888L66.6004 15.1372L66.298 15.0354ZM69.3953 15.1806L69.4994 14.9217L70.4461 15.2904L70.1189 16.1087C69.9283 16.1668 69.7435 16.1944 69.5655 16.1921C69.3876 16.1889 69.2179 16.1561 69.0555 16.0929C68.8357 16.0078 68.6543 15.8839 68.5123 15.7204C68.3699 15.5582 68.2882 15.3707 68.2673 15.1597C68.2454 14.9481 68.278 14.7342 68.3645 14.5175C68.4501 14.3027 68.5755 14.1196 68.7409 13.9681C68.9067 13.8178 69.0929 13.7301 69.2991 13.7066C69.5062 13.6826 69.7211 13.7143 69.9438 13.8008C70.1053 13.864 70.2414 13.9466 70.3518 14.0496C70.4617 14.152 70.5351 14.2644 70.5725 14.3849C70.61 14.5062 70.6182 14.6494 70.5973 14.813L70.3012 14.7802C70.3124 14.6552 70.3066 14.5509 70.2827 14.467C70.2584 14.383 70.2079 14.3042 70.1305 14.229C70.0537 14.1552 69.9594 14.0958 69.8461 14.0515C69.7109 13.9991 69.5864 13.9738 69.4707 13.9764C69.3569 13.9783 69.2558 14.0011 69.1683 14.0445C69.0817 14.0868 69.0054 14.1418 68.9407 14.208C68.8289 14.3229 68.7414 14.46 68.6772 14.6203C68.5989 14.8174 68.5668 14.9953 68.5828 15.1559C68.5979 15.3151 68.6587 15.4533 68.7637 15.5682C68.8692 15.6831 68.9952 15.7696 69.1425 15.827C69.2704 15.8775 69.4056 15.9009 69.5471 15.8996C69.6881 15.8977 69.8014 15.882 69.8869 15.8505L70.0518 15.4362L69.3953 15.1806ZM70.1865 16.4991L72.1032 14.801L72.4144 14.9583L72.1903 17.5126L71.8679 17.3497L71.9525 16.5838L71.0515 16.1278L70.487 16.6513L70.1865 16.4991ZM71.2523 15.9429L71.9812 16.3115L72.0624 15.6125C72.0872 15.4002 72.1129 15.2278 72.1377 15.0935C72.0366 15.2165 71.9272 15.3321 71.8085 15.4409L71.2523 15.9429ZM72.429 17.6143L73.6281 15.5558L74.5519 16.0806C74.7372 16.1859 74.8675 16.2845 74.9428 16.3767C75.0177 16.4682 75.0571 16.5774 75.0605 16.7038C75.0639 16.8295 75.0323 16.9501 74.9667 17.0632C74.8811 17.209 74.7615 17.3044 74.6073 17.3506C74.4537 17.3968 74.2689 17.3765 74.0535 17.2899C74.1065 17.3656 74.1415 17.4319 74.1605 17.487C74.1979 17.6058 74.2213 17.7403 74.2286 17.8906L74.2626 18.6565L73.9179 18.46L73.8916 17.8753C73.8838 17.7054 73.8721 17.5734 73.859 17.4781C73.8449 17.3833 73.8245 17.3108 73.7982 17.2616C73.7725 17.2124 73.7413 17.17 73.7044 17.1353C73.6772 17.1119 73.6281 17.0798 73.5571 17.0387L73.2376 16.8576L72.7052 17.7718L72.429 17.6143ZM73.3752 16.621L73.9674 16.9576C74.0934 17.0295 74.1989 17.0719 74.285 17.0864C74.3705 17.1008 74.4479 17.0902 74.5179 17.0543C74.5874 17.0189 74.6419 16.9678 74.6808 16.9014C74.7372 16.8035 74.7484 16.7032 74.7138 16.5995C74.6793 16.4965 74.585 16.4014 74.4308 16.3141L73.7715 15.9396L73.3752 16.621ZM74.5286 18.8127L75.8263 16.8135L76.7234 17.3812C76.9038 17.4962 77.0293 17.6002 77.1003 17.6956C77.1703 17.791 77.2043 17.9021 77.2019 18.0283C77.1985 18.1539 77.1616 18.2727 77.0901 18.3825C76.9982 18.5246 76.8737 18.6144 76.7171 18.6529C76.562 18.6914 76.3787 18.6619 76.1677 18.5658C76.2168 18.6442 76.2489 18.7117 76.2649 18.7678C76.2965 18.8879 76.3131 19.0235 76.3131 19.1738L76.3101 19.9403L75.9751 19.7281L75.9776 19.1427C75.9781 18.9729 75.9732 18.8402 75.9644 18.7442C75.9547 18.6488 75.9382 18.5756 75.9143 18.5252C75.8915 18.4747 75.8623 18.4311 75.8268 18.3945C75.8006 18.3691 75.7534 18.3351 75.6839 18.291L75.3741 18.0952L74.7975 18.983L74.5286 18.8127ZM75.5224 17.8661L76.0972 18.2299C76.2197 18.3076 76.3233 18.3555 76.4084 18.3738C76.4935 18.3921 76.5713 18.3857 76.6427 18.353C76.7142 18.3202 76.7701 18.272 76.8124 18.2071C76.8742 18.113 76.8907 18.0132 76.8606 17.9078C76.8309 17.8038 76.7414 17.7039 76.5917 17.6098L75.9518 17.2045L75.5224 17.8661ZM76.5931 20.1551L77.9862 18.2197L78.2464 18.4021L76.8533 20.3375L76.5931 20.1551ZM79.5232 21.1654L79.5235 21.165L80.0785 21.5947L79.7994 21.9445C79.709 21.9502 79.5961 21.9345 79.4595 21.896C79.3239 21.8574 79.2018 21.7963 79.0929 21.7123C78.9689 21.6156 78.8731 21.497 78.8055 21.3567C78.7384 21.2167 78.7204 21.0677 78.7516 20.9104C78.7836 20.7526 78.8653 20.5909 78.9976 20.4242C79.106 20.289 79.229 20.1824 79.37 20.1034C79.4512 20.0585 79.5397 20.0276 79.636 20.0112C79.7323 19.9948 79.8349 20.0012 79.9453 20.0314C80.0566 20.0625 80.1689 20.1212 80.2822 20.2096C80.378 20.2841 80.4514 20.3682 80.5035 20.461C80.5565 20.5545 80.5813 20.6443 80.5798 20.7313C80.5779 20.8193 80.5545 20.9208 80.5074 21.0377L80.7816 21.152C80.8497 21.001 80.8827 20.8621 80.8818 20.7352C80.8813 20.6087 80.8429 20.4806 80.7675 20.3512C80.6921 20.2218 80.5861 20.1036 80.449 19.9976C80.2608 19.8518 80.0644 19.7609 79.8592 19.7249C79.654 19.6889 79.4503 19.7204 79.2485 19.8177C79.0457 19.9163 78.8731 20.0559 78.7282 20.2377C78.5823 20.421 78.489 20.6166 78.4486 20.8257C78.4073 21.0334 78.4321 21.2367 78.5211 21.4319C78.6105 21.629 78.7472 21.7989 78.9334 21.9428C79.0705 22.0494 79.2242 22.1291 79.3934 22.182C79.5631 22.235 79.7478 22.2604 79.9477 22.2591L80.4981 21.5671L79.6978 20.9463L79.5235 21.165L79.5232 21.1647V21.1654ZM79.9088 22.6406L82.2355 21.5507L82.4888 21.7887L81.5382 24.1749L81.2761 23.928L81.5776 23.2177L80.8453 22.5275L80.1534 22.8711L79.9088 22.6406ZM81.0904 22.4062L81.6836 22.9643L81.9627 22.317C82.0478 22.1205 82.1217 21.9622 82.1834 21.8408C82.0517 21.9304 81.9136 22.0101 81.7687 22.0807L81.0904 22.4062ZM81.7424 24.3348L83.4822 22.6972L84.2174 23.4586C84.3657 23.6121 84.4624 23.7428 84.5076 23.852C84.5538 23.9612 84.5602 24.0768 84.5271 24.1988C84.494 24.3208 84.4294 24.4267 84.3341 24.517C84.2101 24.6332 84.0681 24.6914 83.9066 24.6926C83.7462 24.6933 83.5755 24.622 83.3927 24.4791C83.4219 24.5668 83.437 24.6394 83.4389 24.6975C83.4413 24.8218 83.4248 24.9576 83.3888 25.1034L83.2016 25.8472L82.9274 25.563L83.0698 24.9947C83.1116 24.8299 83.1384 24.7005 83.1525 24.6052C83.1666 24.5098 83.1681 24.4346 83.1574 24.3797C83.1471 24.3254 83.1287 24.2767 83.1034 24.2326C83.0844 24.2024 83.0465 24.1575 82.9896 24.0987L82.7353 23.8354L81.9622 24.5634L81.7424 24.3348ZM82.9342 23.6483L83.4053 24.1364C83.506 24.2405 83.5945 24.3107 83.6733 24.3486C83.7506 24.3872 83.8289 24.3985 83.9062 24.3833C83.983 24.3682 84.0501 24.3348 84.1055 24.2822C84.1882 24.2045 84.2285 24.111 84.2247 24.0025C84.2208 23.8939 84.1575 23.7758 84.0355 23.6496L83.5104 23.1059L82.9342 23.6483ZM83.4146 26.0699L85.2321 24.5147L85.9294 25.3104C86.0704 25.4707 86.1604 25.6058 86.2007 25.7169C86.2411 25.8281 86.2421 25.9437 86.2032 26.0643C86.1643 26.1844 86.0947 26.2872 85.995 26.3726C85.8657 26.4831 85.7203 26.5348 85.5599 26.528C85.3989 26.5216 85.2321 26.4422 85.0566 26.2906C85.0819 26.3796 85.0926 26.4535 85.0921 26.5116C85.0887 26.6359 85.0649 26.7704 85.0226 26.9152L84.7999 27.6489L84.5397 27.3522L84.7089 26.7915C84.7585 26.6287 84.7916 26.5003 84.8111 26.4058C84.8295 26.3117 84.8339 26.2372 84.8261 26.1816C84.8179 26.1267 84.8023 26.0769 84.7794 26.032C84.7615 26.0005 84.726 25.9537 84.672 25.893L84.4313 25.6177L83.6237 26.3079L83.4146 26.0705V26.0699ZM84.6389 25.4391L85.0863 25.9488C85.1811 26.0573 85.2667 26.1318 85.3435 26.1736C85.4193 26.2153 85.4962 26.231 85.574 26.2191C85.6513 26.2078 85.7198 26.1774 85.7787 26.1269C85.8643 26.0537 85.909 25.9628 85.9104 25.8536C85.9114 25.745 85.854 25.6244 85.7378 25.4924L85.2404 24.9247L84.6389 25.4391ZM85.0143 27.9314L86.9048 26.4639L87.1017 26.7121L85.2117 28.179L85.0143 27.9314ZM87.5393 29.7153L87.7688 29.5537L88.3591 30.3733L87.6327 30.8828C87.4411 30.8286 87.2709 30.7528 87.1231 30.6549C86.9763 30.5563 86.8513 30.4371 86.7507 30.2968C86.614 30.1067 86.5309 29.9054 86.5012 29.6919C86.4716 29.4796 86.5066 29.2776 86.6058 29.0894C86.704 28.9006 86.8499 28.7384 87.0424 28.6039C87.233 28.47 87.4387 28.3842 87.6609 28.347C87.8826 28.3097 88.0868 28.3363 88.2736 28.4278C88.4598 28.5194 88.6227 28.6622 88.7613 28.8547C88.8619 28.9943 88.93 29.1369 88.966 29.2821C89.001 29.4272 89.001 29.5611 88.965 29.6825C88.9295 29.8045 88.857 29.9288 88.7496 30.0544L88.5196 29.8681C88.5974 29.7689 88.6499 29.678 88.6767 29.5948C88.7029 29.5113 88.7044 29.4179 88.6805 29.3138C88.6577 29.2103 88.611 29.1092 88.5405 29.0119C88.4564 28.8951 88.3659 28.8067 88.2682 28.7467C88.1705 28.6867 88.0737 28.6513 87.9765 28.6407C87.8802 28.6301 87.7859 28.6343 87.6954 28.6545C87.5379 28.6911 87.3891 28.7587 87.2466 28.8585C87.0721 28.9815 86.9466 29.1135 86.8712 29.2563C86.7964 29.3977 86.7716 29.5462 86.7959 29.6989C86.8202 29.853 86.8785 29.9931 86.97 30.1208C87.0497 30.2319 87.1494 30.3247 87.2685 30.3992C87.3886 30.4737 87.4922 30.5212 87.5812 30.5412L87.9483 30.283L87.5393 29.7153ZM87.4474 31.2617L89.9691 30.747L90.1582 31.0376L88.6621 33.1333L88.4666 32.8321L88.93 32.212L88.3839 31.3703L87.6298 31.5421L87.4474 31.2617ZM88.6519 31.3103L89.0938 31.9917L89.5203 31.4278C89.6501 31.2567 89.76 31.1202 89.8499 31.0174C89.7002 31.073 89.5465 31.1185 89.3885 31.1532L88.6519 31.3103ZM88.7715 33.3687L90.9119 32.2865L91.3976 33.2229C91.4954 33.4118 91.5503 33.5646 91.5625 33.6821C91.5746 33.7996 91.5479 33.912 91.4803 34.0199C91.4137 34.1272 91.3213 34.2113 91.2041 34.27C91.0524 34.3471 90.8988 34.3628 90.7441 34.3185C90.59 34.2743 90.4466 34.1583 90.3133 33.9701C90.3158 34.0623 90.3094 34.1361 90.2939 34.1923C90.2608 34.3124 90.2059 34.438 90.129 34.568L89.7362 35.2286L89.5543 34.8788L89.8548 34.3743C89.9418 34.2279 90.0051 34.111 90.0469 34.024C90.0872 33.9362 90.1101 33.8647 90.1159 33.8092C90.1208 33.7543 90.1179 33.7025 90.1062 33.6531C90.097 33.6185 90.0731 33.5648 90.0352 33.4922L89.8679 33.1689L88.9173 33.6493L88.7715 33.3687ZM90.1125 33.0441L90.4237 33.6446C90.4903 33.7728 90.5555 33.8649 90.6197 33.9237C90.6838 33.9818 90.7543 34.0146 90.8326 34.0216C90.9114 34.0292 90.9848 34.0159 91.0539 33.9805C91.155 33.9295 91.2197 33.8518 91.2474 33.7457C91.2756 33.641 91.2488 33.5103 91.1676 33.3549L90.821 32.6863L90.1125 33.0441ZM89.8825 35.4979L92.074 34.5191L92.5126 35.4783C92.6006 35.6716 92.6482 35.8267 92.6555 35.9442C92.6619 36.0624 92.6288 36.1735 92.5568 36.2776C92.4844 36.3817 92.3881 36.4613 92.268 36.5149C92.1124 36.5843 91.9583 36.5926 91.8061 36.5409C91.6539 36.4898 91.5173 36.3666 91.3923 36.1722C91.3904 36.2644 91.3806 36.3383 91.3631 36.3932C91.3237 36.512 91.263 36.6344 91.1798 36.7606L90.7543 37.4016L90.5905 37.0435L90.9158 36.5535C91.0096 36.4115 91.0787 36.2978 91.1244 36.2124C91.1691 36.1273 91.1949 36.057 91.2036 36.0015C91.2119 35.9472 91.2114 35.8949 91.2022 35.8448C91.1939 35.8102 91.1735 35.7552 91.139 35.6814L90.9873 35.3499L90.0143 35.785L89.8825 35.4979ZM91.2386 35.2384L91.5192 35.8527C91.579 35.984 91.6398 36.0794 91.7006 36.1407C91.7618 36.202 91.8309 36.2386 91.9092 36.2493C91.987 36.2599 92.0604 36.2506 92.1314 36.2184C92.2349 36.1729 92.304 36.0977 92.3371 35.9936C92.3696 35.8902 92.3492 35.7582 92.2763 35.5989L91.9631 34.9144L91.2386 35.2384ZM90.8842 37.7294L93.1214 36.8585L93.2385 37.1521L91.0014 38.0229L90.8842 37.7294ZM92.7941 40.1522L93.0615 40.0626L93.3873 41.0148L92.5432 41.297C92.376 41.1904 92.2354 41.0691 92.1221 40.9333C92.0098 40.7974 91.9252 40.6478 91.8688 40.4843C91.7934 40.2634 91.772 40.0473 91.8061 39.8346C91.8401 39.6224 91.932 39.4393 92.0818 39.2872C92.2315 39.1343 92.4178 39.0206 92.6419 38.9461C92.8632 38.8723 93.0859 38.8482 93.3095 38.8754C93.5327 38.9033 93.7204 38.9872 93.8721 39.1275C94.0233 39.2684 94.1386 39.4508 94.2154 39.675C94.2708 39.8372 94.2946 39.9932 94.2864 40.1422C94.2776 40.2919 94.2382 40.4194 94.1692 40.5256C94.0997 40.6329 93.9942 40.7315 93.8546 40.8205L93.6888 40.5767C93.7924 40.5047 93.8692 40.4322 93.9188 40.3596C93.9679 40.2876 93.9966 40.1986 94.0044 40.0924C94.0121 39.9864 93.9966 39.8764 93.9582 39.7623C93.9115 39.6271 93.8502 39.5172 93.7744 39.4315C93.6985 39.3463 93.6163 39.2857 93.5259 39.2471C93.4374 39.2092 93.345 39.1871 93.2522 39.1809C93.0912 39.1716 92.9288 39.1935 92.764 39.2484C92.5602 39.3165 92.4022 39.408 92.2884 39.523C92.1751 39.6373 92.1076 39.7719 92.0862 39.926C92.0652 40.0801 92.0798 40.2303 92.1304 40.3787C92.1747 40.5075 92.2437 40.625 92.3356 40.7304C92.4285 40.8358 92.514 40.9103 92.5933 40.9552L93.0202 40.8126L92.7941 40.1522ZM92.2656 41.604L94.8305 41.832L94.9258 42.1641L92.8802 43.7427L92.781 43.3985L93.4063 42.9376L93.1296 41.9759L92.3575 41.9248L92.2656 41.604ZM93.4039 41.9948L93.628 42.7735L94.1998 42.3554C94.3744 42.2285 94.5203 42.1293 94.636 42.0561C94.476 42.0668 94.3165 42.0668 94.1546 42.0548L93.4039 41.9948ZM92.9439 43.9935L95.3104 43.576L95.4971 44.6122C95.535 44.8207 95.5428 44.9822 95.5195 45.0984C95.4966 45.214 95.4378 45.3139 95.342 45.3978C95.2457 45.4812 95.1329 45.5348 95.0031 45.5574C94.8349 45.587 94.6836 45.558 94.549 45.471C94.4143 45.3839 94.3117 45.2317 94.2397 45.0125C94.2149 45.1021 94.1867 45.171 94.1556 45.2202C94.088 45.3256 93.9985 45.4293 93.8867 45.5314L93.3149 46.0498L93.2454 45.6634L93.682 45.2669C93.8084 45.1519 93.9032 45.0584 93.9684 44.9871C94.0331 44.9152 94.0758 44.8532 94.0982 44.8015C94.1196 44.751 94.1322 44.6997 94.1352 44.6499C94.1366 44.614 94.1293 44.5559 94.1147 44.4762L94.0501 44.1176L92.9988 44.3032L92.9434 43.993L92.9439 43.9935ZM94.3224 44.0699L94.442 44.7342C94.4673 44.8756 94.5028 44.9831 94.546 45.0576C94.5903 45.1314 94.6486 45.1838 94.7216 45.213C94.794 45.2426 94.8684 45.2509 94.9443 45.2377C95.0561 45.2174 95.1422 45.1619 95.1995 45.0691C95.2579 44.9763 95.2705 44.8436 95.2394 44.6712L95.1057 43.9324L94.3224 44.0699ZM93.3961 46.3478L95.7816 46.0483L95.9158 47.0921C95.9425 47.3025 95.942 47.4643 95.9128 47.5786C95.8837 47.6929 95.8195 47.7904 95.7198 47.8692C95.6197 47.9479 95.5039 47.9955 95.3726 48.0118C95.2039 48.0329 95.0542 47.9969 94.9238 47.9028C94.794 47.8101 94.6997 47.6521 94.6389 47.4297C94.6097 47.5176 94.5776 47.5858 94.5441 47.6329C94.4712 47.7347 94.3768 47.8346 94.2596 47.9311L93.6625 48.42L93.6125 48.0305L94.0686 47.6564C94.2008 47.5479 94.3005 47.4595 94.369 47.3908C94.4371 47.3227 94.4833 47.2631 94.5076 47.2127C94.5319 47.1627 94.547 47.1128 94.5533 47.0624C94.5558 47.0268 94.5519 46.9682 94.5417 46.888L94.4959 46.5264L93.4364 46.6599L93.3961 46.3478ZM94.7687 46.4928L94.8543 47.1618C94.8728 47.3039 94.902 47.4134 94.9423 47.4898C94.9822 47.5656 95.0376 47.6214 95.1091 47.6535C95.1801 47.6867 95.2535 47.6987 95.3308 47.6891C95.4436 47.6756 95.5316 47.6233 95.5944 47.5335C95.6561 47.4437 95.676 47.3121 95.6537 47.1387L95.5579 46.3934L94.7687 46.4928ZM93.7126 48.7691L96.1093 48.5886L96.1336 48.9031L93.736 49.0837L93.7126 48.7691ZM60.768 93.2125L60.8176 93.4867L59.8159 93.6634L59.6589 92.7971C59.7906 92.6492 59.9326 92.5301 60.0858 92.4398C60.2385 92.351 60.4009 92.29 60.5725 92.2597C60.8054 92.2189 61.0252 92.2309 61.2333 92.2957C61.4395 92.3596 61.6101 92.4777 61.7395 92.6463C61.8703 92.8149 61.9568 93.0142 61.9977 93.2437C62.039 93.4709 62.0293 93.6913 61.969 93.906C61.9082 94.1201 61.7964 94.2906 61.6325 94.4179C61.4696 94.5456 61.2693 94.6302 61.0335 94.6715C60.8628 94.7017 60.7028 94.7017 60.5545 94.6715C60.4062 94.6412 60.2842 94.5836 60.1884 94.5005C60.0921 94.416 60.009 94.2988 59.9399 94.1485L60.2093 94.0231C60.2662 94.1355 60.327 94.2205 60.3921 94.2801C60.4568 94.3387 60.5419 94.3804 60.6474 94.4035C60.7519 94.427 60.8647 94.4289 60.9843 94.4073C61.1268 94.3824 61.2464 94.3391 61.3432 94.2772C61.4395 94.2162 61.5129 94.1446 61.5644 94.0625C61.6155 93.9809 61.6515 93.8944 61.6714 93.8051C61.705 93.649 61.7069 93.4877 61.6763 93.3182C61.6388 93.1093 61.5712 92.9407 61.473 92.8125C61.3753 92.6847 61.2508 92.5988 61.1001 92.5555C60.9489 92.5118 60.7957 92.5037 60.6396 92.5311C60.5039 92.5551 60.3761 92.6045 60.2569 92.6785C60.1373 92.7539 60.0498 92.8254 59.9939 92.897L60.0731 93.3354L60.768 93.2125ZM59.3958 92.4974L58.7836 94.9678L58.4365 95.011L57.1625 92.7779L57.5218 92.7323L57.8899 93.4118L58.8935 93.286L59.0603 92.5392L59.3958 92.4974ZM58.8337 93.5506L58.0212 93.6524L58.3538 94.2743C58.4549 94.4635 58.5322 94.6206 58.5887 94.7445C58.6013 94.5874 58.6256 94.4309 58.6616 94.2748L58.8337 93.5506ZM56.9019 92.7755L57.0837 95.1435L56.0218 95.2233C55.8078 95.2396 55.644 95.2305 55.5297 95.1959C55.4155 95.1618 55.3206 95.0936 55.2458 94.9913C55.1719 94.8885 55.1296 94.7723 55.1193 94.6422C55.1062 94.4736 55.1505 94.3281 55.2516 94.2047C55.3527 94.0808 55.5171 93.9958 55.7442 93.9473C55.6571 93.9137 55.5905 93.8791 55.5438 93.8435C55.4446 93.7667 55.3488 93.6678 55.2574 93.5482L54.7931 92.9344L55.1889 92.9047L55.5443 93.3739C55.6474 93.5093 55.7315 93.6121 55.7976 93.6836C55.8638 93.7542 55.9211 93.8027 55.9707 93.8291C56.0199 93.8555 56.0699 93.8728 56.1205 93.881C56.1565 93.8863 56.2158 93.8853 56.2975 93.8791L56.6656 93.8512L56.5839 92.8L56.9019 92.7755ZM56.6855 94.1216L56.0048 94.1735C55.8599 94.184 55.748 94.2076 55.6693 94.2436C55.59 94.2791 55.5317 94.3305 55.4947 94.3997C55.4578 94.4678 55.4417 94.5399 55.4471 94.6162C55.4563 94.7286 55.5035 94.8179 55.5915 94.8837C55.679 94.95 55.8108 94.9759 55.9878 94.963L56.7463 94.9058L56.6855 94.1216ZM54.4814 92.9052L54.5422 95.279L53.4768 95.3054C53.2619 95.3111 53.099 95.2938 52.9867 95.2535C52.8739 95.2136 52.7835 95.1411 52.7134 95.035C52.6444 94.9284 52.6079 94.8103 52.605 94.6796C52.6001 94.5115 52.6522 94.368 52.7601 94.2498C52.8671 94.1317 53.0353 94.0544 53.2653 94.0164C53.1797 93.9794 53.1141 93.941 53.0694 93.9036C52.975 93.8214 52.8841 93.7187 52.799 93.5943L52.3663 92.9575L52.764 92.9484L53.0946 93.4339C53.1904 93.5751 53.2697 93.6812 53.3319 93.7566C53.3937 93.8306 53.4496 93.8815 53.4972 93.9108C53.5449 93.9391 53.594 93.9593 53.6436 93.9698C53.6796 93.9766 53.7389 93.9785 53.8206 93.9766L54.1892 93.9674L54.1624 92.9128L54.4814 92.9052ZM54.196 94.2388L53.5133 94.2565C53.3684 94.2594 53.2556 94.2772 53.1744 94.3094C53.0937 94.3411 53.0324 94.3896 52.9925 94.4563C52.9512 94.5226 52.9322 94.5941 52.9342 94.6705C52.9371 94.7829 52.9804 94.8751 53.0645 94.9452C53.1481 95.0153 53.2794 95.0484 53.4564 95.0436L54.2164 95.0249L54.196 94.2388ZM52.0094 92.8951L51.9486 95.2693L51.6296 95.2612L51.6904 92.8874L52.0094 92.8951ZM48.9616 93.6207L48.9261 93.8968L47.9162 93.7701L48.028 92.8975C48.1987 92.7942 48.3708 92.7222 48.5434 92.6818C48.717 92.6415 48.8901 92.6314 49.0628 92.6535C49.2976 92.6828 49.5038 92.7592 49.6827 92.8821C49.8607 93.0046 49.9871 93.1669 50.06 93.3657C50.1334 93.5655 50.1558 93.7816 50.1266 94.0126C50.0965 94.2417 50.0211 94.4496 49.8986 94.6364C49.7756 94.8227 49.6171 94.9529 49.4226 95.0259C49.2281 95.0994 49.0122 95.1214 48.7744 95.0912C48.6023 95.0696 48.4496 95.023 48.3178 94.9505C48.1856 94.877 48.0859 94.7867 48.0193 94.6787C47.9527 94.5696 47.9094 94.4337 47.889 94.27L48.1836 94.2287C48.2045 94.3526 48.2361 94.4525 48.2804 94.5283C48.3251 94.6037 48.3937 94.6681 48.487 94.7219C48.5794 94.7752 48.6869 94.8093 48.807 94.8247C48.9509 94.8429 49.0783 94.8367 49.1897 94.8064C49.3 94.7766 49.3914 94.7301 49.4654 94.6667C49.5393 94.6042 49.5991 94.5322 49.6458 94.4525C49.7245 94.3137 49.7756 94.1595 49.7975 93.9886C49.8252 93.7782 49.8111 93.5976 49.7561 93.4469C49.7012 93.2961 49.6083 93.177 49.478 93.0915C49.3467 93.005 49.2028 92.9517 49.0457 92.932C48.9091 92.9152 48.772 92.9244 48.6358 92.9604C48.4992 92.9964 48.3937 93.0391 48.3188 93.091L48.2619 93.5328L48.9616 93.6207ZM47.8622 92.5724L46.5316 94.7502L46.1869 94.6897L45.646 92.1819L46.002 92.2443L46.1484 93.0017L47.1445 93.1775L47.5296 92.5142L47.8622 92.5724ZM47.0079 93.4123L46.2009 93.2701L46.3307 93.9617C46.3691 94.172 46.396 94.3449 46.412 94.4798C46.4721 94.3329 46.5423 94.1907 46.6243 94.0529L47.0079 93.4123ZM45.3897 92.1416L44.8493 94.4554L43.8112 94.2191C43.6021 94.1715 43.448 94.1144 43.3495 94.0481C43.2504 93.9818 43.1807 93.8892 43.1404 93.7691C43.1001 93.649 43.095 93.5251 43.1245 93.3984C43.1628 93.2341 43.2497 93.1088 43.3833 93.0204C43.517 92.932 43.6991 92.8989 43.9312 92.9191C43.8583 92.8615 43.8047 92.8086 43.7706 92.7611C43.6997 92.6583 43.6376 92.5363 43.5866 92.3947L43.3283 91.6719L43.7159 91.7598L43.9135 92.3121C43.9711 92.4725 44.0202 92.5954 44.0618 92.6828C44.1034 92.7697 44.1437 92.8331 44.1834 92.8725C44.2224 92.9124 44.2646 92.9441 44.3099 92.9666C44.3431 92.981 44.4 92.9983 44.4799 93.0166L44.8392 93.0982L45.0789 92.071L45.3897 92.1416ZM44.7771 93.3638L44.1116 93.212C43.9695 93.1798 43.8564 93.1688 43.7696 93.1798C43.6833 93.1904 43.6122 93.2231 43.5566 93.2778C43.4997 93.3321 43.4633 93.3964 43.4454 93.4709C43.4204 93.5804 43.4389 93.6803 43.5023 93.7691C43.5663 93.8575 43.6844 93.9213 43.8571 93.9612L44.5981 94.1298L44.7771 93.3638ZM43.0305 91.5883L42.374 93.8723L41.3492 93.5852C41.1427 93.5271 40.9918 93.4627 40.8966 93.3916C40.8013 93.3206 40.736 93.2245 40.7021 93.1025C40.6683 92.9806 40.669 92.8567 40.7047 92.7318C40.7515 92.5695 40.8442 92.4475 40.9828 92.3659C41.1203 92.2847 41.3043 92.2607 41.5345 92.2924C41.4643 92.2309 41.4143 92.1762 41.3824 92.1267C41.3164 92.0206 41.2608 91.8957 41.2175 91.7516L40.9957 91.0174L41.3787 91.1244L41.5474 91.6858C41.5966 91.8482 41.6401 91.9735 41.6772 92.0628C41.7143 92.1521 41.7513 92.217 41.7891 92.2592C41.8255 92.3005 41.8664 92.3337 41.9113 92.3587C41.9431 92.3755 41.9988 92.3951 42.0781 92.4172L42.4322 92.5166L42.7238 91.5019L43.0305 91.5883ZM42.3572 92.7789L41.7 92.5944C41.5599 92.5551 41.4468 92.5387 41.36 92.5459C41.2737 92.5522 41.2007 92.5805 41.1418 92.6324C41.083 92.6842 41.0427 92.7462 41.0216 92.8206C40.9909 92.9277 41.0043 93.0291 41.0638 93.1203C41.1226 93.212 41.2377 93.2812 41.4084 93.3297L42.1393 93.5347L42.3572 92.7789ZM40.6636 90.8843L39.893 93.1337L39.5906 93.0324L40.3612 90.7835L40.6636 90.8843ZM37.5647 90.7427L37.461 91.002L36.5142 90.6332L36.8409 89.8144C37.0321 89.7567 37.2168 89.7294 37.3946 89.7318C37.5724 89.7342 37.7425 89.7668 37.9048 89.8307C38.1246 89.9157 38.3056 90.0396 38.4481 90.2033C38.5901 90.3647 38.6718 90.553 38.693 90.7638C38.7147 90.9756 38.6822 91.1898 38.5958 91.4063C38.5102 91.621 38.3848 91.804 38.2192 91.9548C38.053 92.106 37.8675 92.193 37.6604 92.217C37.4539 92.241 37.239 92.2093 37.0159 92.1224C36.8547 92.0599 36.7187 91.9773 36.6086 91.8741C36.4986 91.7708 36.4252 91.6594 36.3874 91.5389C36.3504 91.4169 36.342 91.2743 36.3631 91.111L36.659 91.1427C36.6476 91.268 36.6538 91.3727 36.6775 91.4568C36.7019 91.5408 36.7523 91.6196 36.8297 91.694C36.9064 91.7684 37.0011 91.828 37.1142 91.8722C37.2491 91.9245 37.3737 91.9495 37.4888 91.9471C37.6032 91.9447 37.7037 91.9226 37.7912 91.8794C37.878 91.8366 37.9548 91.7819 38.0194 91.7156C38.1313 91.6004 38.219 91.463 38.2828 91.3036C38.3615 91.1062 38.3934 90.9275 38.3774 90.7676C38.3621 90.6082 38.3014 90.4704 38.1966 90.3556C38.0912 90.2398 37.9651 90.1534 37.8175 90.0958C37.6897 90.0463 37.5547 90.0223 37.4134 90.0233C37.2713 90.0261 37.1588 90.0415 37.0733 90.0732L36.9084 90.4867L37.5647 90.7427ZM36.7706 89.4311L34.8539 91.1292L34.5425 90.9717L34.7669 88.4174L35.0891 88.5802L35.0046 89.3461L35.9055 89.8024L36.47 89.2789L36.7706 89.4311ZM35.7049 89.9872L34.9759 89.6184L34.8947 90.3176C34.8697 90.5299 34.8443 90.7023 34.8193 90.8368C34.9204 90.7134 35.0296 90.5981 35.1486 90.4891L35.7049 89.9872ZM34.5259 88.3189L33.3278 90.3772L32.404 89.8528C32.218 89.7471 32.0876 89.6487 32.0128 89.5565C31.9374 89.4652 31.8984 89.3557 31.8952 89.2294C31.8919 89.1036 31.9234 88.9836 31.9891 88.8702C32.0743 88.7242 32.1937 88.6291 32.3484 88.5826C32.5019 88.5364 32.6859 88.5576 32.9021 88.6435C32.8491 88.5677 32.814 88.5014 32.7954 88.4462C32.7571 88.3275 32.734 88.1931 32.7271 88.0428L32.6933 87.2773L33.0379 87.4732L33.0636 88.0581C33.072 88.2277 33.0834 88.3597 33.0967 88.4553C33.1108 88.5499 33.1306 88.6224 33.1569 88.6719C33.1825 88.7209 33.2144 88.7631 33.2509 88.7977C33.2778 88.8212 33.3276 88.8544 33.3985 88.8947L33.7181 89.0758L34.25 88.1614L34.5259 88.3189ZM33.5804 89.312L32.9883 88.9759C32.8618 88.9038 32.7562 88.8616 32.6706 88.8467C32.5851 88.8323 32.5071 88.8428 32.4379 88.8789C32.3676 88.9144 32.3133 88.9653 32.2749 89.0321C32.2187 89.13 32.2066 89.2299 32.2417 89.3336C32.2762 89.4369 32.3708 89.532 32.525 89.6194L33.1834 89.9935L33.5804 89.312ZM32.4252 87.1236L31.1272 89.1228L30.2302 88.5552C30.0498 88.4399 29.9245 88.3362 29.8537 88.2406C29.7834 88.1451 29.7494 88.0341 29.7519 87.9078C29.7552 87.7825 29.7922 87.6634 29.8638 87.5539C29.9558 87.4117 30.0799 87.3219 30.2364 87.2835C30.3918 87.2446 30.5753 87.2744 30.7863 87.3704C30.7371 87.2922 30.705 87.2245 30.6891 87.1683C30.6572 87.0482 30.6406 86.9128 30.6406 86.7625L30.6438 85.996L30.9787 86.2083L30.9761 86.7937C30.9755 86.9632 30.9807 87.0962 30.9895 87.1923C30.999 87.2874 31.0158 87.3608 31.0393 87.4113C31.0623 87.4617 31.0917 87.5054 31.1268 87.5419C31.1531 87.5673 31.2003 87.601 31.2699 87.6451L31.5794 87.8411L32.1562 86.9531L32.4252 87.1236ZM31.4315 88.0701L30.8567 87.7061C30.7339 87.6288 30.6304 87.5808 30.5453 87.5625C30.4602 87.5443 30.3823 87.5505 30.3113 87.5832C30.2397 87.6158 30.1834 87.6643 30.1412 87.7292C30.0798 87.8233 30.0632 87.9232 30.0933 88.0284C30.1226 88.1331 30.2123 88.2325 30.3619 88.3266L31.0018 88.7319L31.4315 88.0701ZM30.3587 85.7837L28.9648 87.7191L28.7047 87.5366L30.0985 85.6013L30.3587 85.7837ZM27.4259 84.7767L27.252 84.9957L26.4515 84.3747L27.002 83.6827C27.2016 83.6817 27.3869 83.7067 27.5563 83.76C27.7257 83.8129 27.8792 83.8926 28.0167 83.9987C28.202 84.1433 28.3396 84.3128 28.429 84.5102C28.5178 84.7051 28.5422 84.9087 28.5012 85.1162C28.4602 85.3256 28.3669 85.5211 28.2213 85.7045C28.0768 85.886 27.9042 86.0258 27.7007 86.1242C27.4988 86.2217 27.2953 86.2529 27.0901 86.2164C26.8856 86.1814 26.6886 86.0901 26.5 85.9441C26.3638 85.838 26.2571 85.7199 26.1817 85.5907C26.1063 85.461 26.0679 85.3333 26.0672 85.2065C26.0666 85.0797 26.1004 84.94 26.1683 84.7897L26.4421 84.9039C26.3953 85.0211 26.3711 85.1225 26.3692 85.2103C26.3685 85.2977 26.3935 85.3875 26.4459 85.4807C26.4976 85.5734 26.5718 85.6579 26.667 85.7324C26.7809 85.8207 26.8933 85.8793 27.0046 85.9105C27.1152 85.9408 27.2175 85.947 27.3141 85.9307C27.41 85.9144 27.4988 85.8831 27.5801 85.8385C27.7201 85.7592 27.8441 85.6526 27.9514 85.5177C28.0844 85.351 28.1663 85.1892 28.1982 85.0312C28.2294 84.8742 28.2109 84.7253 28.1438 84.5851C28.0768 84.4448 27.9809 84.3262 27.8561 84.2297C27.7481 84.1457 27.6253 84.0842 27.4897 84.0458C27.3535 84.0074 27.241 83.9915 27.1496 83.9973L26.8716 84.3469L27.4259 84.7767ZM27.0365 83.3057L24.7098 84.3963L24.4566 84.1577L25.4066 81.7723L25.6687 82.0187L25.3676 82.7294L26.1002 83.4191L26.7914 83.0762L27.0365 83.3057ZM25.8543 83.5401L25.2616 82.982L24.9829 83.6294C24.8978 83.8268 24.8236 83.9843 24.7611 84.1063C24.8934 84.0165 25.0316 83.9363 25.1767 83.8657L25.8543 83.5401ZM25.2002 81.6139L25.1998 81.6142L24.9801 81.3862L24.2072 82.1143L23.9533 81.8511C23.8964 81.7915 23.8587 81.7474 23.8395 81.7171C23.8139 81.6729 23.796 81.6235 23.7852 81.5702C23.7751 81.5149 23.7764 81.44 23.7904 81.3444C23.8046 81.2494 23.8313 81.1197 23.8723 80.955L24.0154 80.3869L23.741 80.1026L23.5537 80.8455C23.518 80.992 23.5013 81.1279 23.504 81.2522C23.5052 81.3103 23.5207 81.3829 23.5494 81.4707C23.3673 81.3276 23.1966 81.2566 23.036 81.257C22.8748 81.2585 22.7324 81.3166 22.6088 81.4328C22.5129 81.5231 22.4489 81.6287 22.4157 81.7507C22.3826 81.8727 22.3888 81.9884 22.4342 82.0975C22.4804 82.2069 22.5769 82.3376 22.7252 82.4913L23.4604 83.2524L25.1998 81.6142L25.2 81.6143L25.2002 81.6139ZM24.0085 82.3016L23.5374 81.8132C23.4363 81.7089 23.3474 81.6388 23.2694 81.6009C23.1914 81.5625 23.114 81.5514 23.0367 81.5663C22.9593 81.5807 22.8929 81.6143 22.8366 81.6676C22.7548 81.745 22.7145 81.8386 22.7183 81.9471C22.7222 82.0557 22.7853 82.1733 22.9076 82.3001L23.4324 82.8437L24.0085 82.3016ZM23.5251 79.8821L21.7075 81.4371L21.01 80.6414C20.8693 80.4815 20.7792 80.3456 20.7389 80.2351C20.6986 80.1237 20.6979 80.008 20.737 79.8879C20.776 79.7678 20.845 79.6646 20.9454 79.5791C21.0738 79.4686 21.2191 79.4173 21.3801 79.4235C21.5407 79.4307 21.7075 79.5095 21.8827 79.6607C21.8577 79.5719 21.847 79.4979 21.8476 79.4398C21.8515 79.3154 21.8745 79.181 21.9172 79.0369L22.1396 78.3026L22.3998 78.5994L22.2304 79.1608C22.1812 79.3231 22.1478 79.4514 22.1286 79.546C22.1107 79.6406 22.1056 79.715 22.1133 79.7707C22.1217 79.825 22.137 79.8749 22.1608 79.9196C22.178 79.9513 22.2138 79.9983 22.2675 80.0593L22.5091 80.334L23.316 79.6439L23.5251 79.8821ZM22.3006 80.5122L21.8536 80.0027C21.7584 79.8941 21.6728 79.8197 21.5961 79.7779C21.52 79.7361 21.4432 79.7212 21.3652 79.7332C21.2879 79.7438 21.2195 79.7741 21.1614 79.8245C21.0751 79.898 21.0303 79.9892 21.029 80.0977C21.0277 80.2068 21.0853 80.3273 21.2016 80.4598L21.6991 81.027L22.3006 80.5122ZM21.9228 78.0227L20.0322 79.4903L19.8352 79.242L21.7258 77.7753L21.9228 78.0227ZM19.3949 76.241L19.1647 76.4023L18.5752 75.5835L19.3015 75.073C19.4934 75.1273 19.6634 75.2037 19.8104 75.3016C19.958 75.3996 20.0828 75.5192 20.1837 75.6594C20.3206 75.8501 20.4036 76.0513 20.4331 76.265C20.4624 76.4773 20.4279 76.6785 20.3288 76.8667C20.2296 77.0555 20.0845 77.2178 19.8921 77.3522C19.7016 77.4862 19.4951 77.5717 19.2733 77.6092C19.0515 77.6471 18.8468 77.6197 18.6608 77.528C18.4741 77.4368 18.3116 77.2946 18.173 77.1016C18.0719 76.9618 18.0036 76.8192 17.9685 76.6741C17.9334 76.5286 17.9334 76.3956 17.9691 76.2736C18.0043 76.1517 18.0765 76.0278 18.1847 75.9015L18.4148 76.0878C18.3362 76.1872 18.2838 76.278 18.2569 76.361C18.2312 76.4446 18.2299 76.5382 18.253 76.6425C18.2767 76.7457 18.3232 76.847 18.3937 76.9445C18.4776 77.0607 18.5683 77.1491 18.6661 77.2101C18.7634 77.2692 18.8599 77.3047 18.9578 77.3153C19.0543 77.3268 19.1483 77.3215 19.239 77.3013C19.3964 77.2648 19.5453 77.1976 19.6871 77.0977C19.8623 76.9748 19.9869 76.8427 20.0624 76.7006C20.1378 76.5584 20.1628 76.41 20.1385 76.2573C20.1141 76.1036 20.0559 75.9629 19.9645 75.8352C19.8845 75.7247 19.7848 75.632 19.6654 75.5566C19.5457 75.4822 19.4423 75.4347 19.3533 75.4155L18.9856 75.6729L19.3949 76.241ZM19.4843 74.6961L16.9622 75.2109L16.7736 74.9203L18.2696 72.8246L18.4646 73.1257L18.001 73.7462L18.5476 74.5871L19.302 74.4161L19.4843 74.6961ZM18.2797 74.6476L17.8379 73.9661L17.4113 74.5304C17.2816 74.7013 17.1717 74.8373 17.0814 74.9405C17.2316 74.8843 17.385 74.8387 17.543 74.8041L18.2797 74.6476ZM18.1538 72.5926L16.0138 73.6751L15.528 72.7386C15.4308 72.5499 15.3759 72.3972 15.3632 72.2795C15.3511 72.1619 15.3778 72.0495 15.445 71.9419C15.5121 71.8343 15.6043 71.7503 15.7218 71.6907C15.8733 71.6139 16.0268 71.5981 16.1815 71.6422C16.3363 71.6864 16.4787 71.8031 16.6124 71.9914C16.6098 71.8992 16.6169 71.8247 16.6316 71.7685C16.6654 71.6485 16.7197 71.5236 16.7964 71.3935L17.1902 70.7332L17.371 71.0828L17.0706 71.587C16.9837 71.7335 16.9203 71.8507 16.8794 71.9376C16.8385 72.0245 16.8154 72.097 16.8105 72.1523C16.8046 72.2075 16.8079 72.2589 16.8195 72.3083C16.829 72.3429 16.8533 72.3967 16.8904 72.4687L17.0585 72.7929L18.0085 72.3122L18.1538 72.5926ZM16.813 72.9168L16.5016 72.317C16.435 72.1888 16.3706 72.0965 16.3059 72.038C16.2425 71.9798 16.1709 71.9462 16.093 71.9395C16.0149 71.9323 15.9414 71.9458 15.8718 71.9803C15.7714 72.0317 15.7056 72.11 15.6781 72.2152C15.6498 72.3208 15.6774 72.4505 15.758 72.6066L16.1046 73.2755L16.813 72.9168ZM17.0393 70.4647L14.8482 71.4429L14.4096 70.4844C14.3215 70.2909 14.2735 70.1357 14.267 70.0186C14.2605 69.9004 14.2932 69.789 14.3654 69.6843C14.4377 69.5811 14.5336 69.5014 14.6545 69.4476C14.8099 69.3784 14.9633 69.3702 15.1162 69.4216C15.2677 69.473 15.4052 69.596 15.5291 69.7905C15.5311 69.6983 15.5419 69.6243 15.5591 69.5691C15.5987 69.4509 15.6595 69.3285 15.7425 69.2022L16.1677 68.5611L16.3319 68.9193L16.0065 69.4091C15.9126 69.5503 15.8436 69.6646 15.7981 69.7501C15.7533 69.8351 15.7272 69.9057 15.7188 69.9609C15.7104 70.0152 15.711 70.068 15.7201 70.117C15.7285 70.1521 15.7487 70.2068 15.7828 70.2808L15.935 70.6126L16.9081 70.1775L17.0393 70.4647ZM15.6839 70.7245L15.4026 70.1098C15.3431 69.9787 15.2823 69.8831 15.2211 69.8221C15.1604 69.7607 15.0914 69.7242 15.0134 69.7131C14.9353 69.7021 14.8618 69.7122 14.7903 69.7434C14.6872 69.79 14.6177 69.8649 14.5851 69.9691C14.5526 70.0724 14.573 70.2039 14.6459 70.3639L14.9592 71.0482L15.6839 70.7245ZM16.0349 68.2345L13.798 69.1056L13.6809 68.8127L15.9173 67.9411L16.0349 68.2345ZM14.1215 65.8131L13.8542 65.9025L13.5281 64.9506L14.3722 64.6683C14.5403 64.7754 14.681 64.8964 14.7935 65.0318C14.906 65.1677 14.9911 65.3175 15.0468 65.4808C15.1228 65.7017 15.1433 65.9188 15.1095 66.1311C15.0763 66.3428 14.9836 66.5258 14.8338 66.678C14.6849 66.8308 14.4976 66.9446 14.2743 67.019C14.0532 67.093 13.8305 67.117 13.6068 67.0896C13.3831 67.0618 13.1958 66.9787 13.0443 66.838C12.8921 66.6968 12.7776 66.5143 12.7009 66.29C12.6453 66.1282 12.621 65.9721 12.6294 65.8228C12.6384 65.6734 12.6772 65.5457 12.7464 65.4395C12.816 65.3324 12.9216 65.2345 13.0609 65.1447L13.2277 65.3886C13.1234 65.4607 13.0469 65.5332 12.9968 65.6057C12.9484 65.6777 12.9195 65.7666 12.9117 65.8737C12.9033 65.9788 12.9188 66.0893 12.9578 66.2031C13.0046 66.338 13.0651 66.448 13.1419 66.534C13.2173 66.619 13.2992 66.68 13.3893 66.7179C13.4788 66.7558 13.5702 66.7779 13.6637 66.7842C13.8243 66.7938 13.9872 66.7717 14.1521 66.717C14.3553 66.6488 14.5139 66.5575 14.6271 66.4423C14.7409 66.328 14.8079 66.1935 14.8291 66.0398C14.8502 65.8852 14.8355 65.7349 14.7849 65.5865C14.7407 65.4578 14.6724 65.3401 14.5797 65.2349C14.487 65.1293 14.4012 65.0549 14.3221 65.0102L13.8956 65.1533L14.1215 65.8131ZM14.6469 64.3619L12.0819 64.1347L11.9867 63.8024L14.032 62.2234L14.1312 62.5672L13.5059 63.0283L13.7827 63.9907L14.5549 64.0416L14.6469 64.3619ZM13.5083 63.971L13.2846 63.193L12.7123 63.6113C12.5378 63.7371 12.3921 63.837 12.2763 63.9105C12.4362 63.8989 12.596 63.8999 12.7578 63.9114L13.5083 63.971ZM14.0103 61.9645L11.6677 62.4986L11.428 61.4733C11.3801 61.2668 11.3646 61.1059 11.3813 60.9882C11.3985 60.872 11.4528 60.7692 11.5442 60.6809C11.6356 60.593 11.7455 60.5334 11.8742 60.5046C12.0403 60.4667 12.1931 60.4878 12.3319 60.5685C12.4707 60.6487 12.5813 60.7956 12.6645 61.0103C12.6843 60.9205 12.7093 60.8499 12.7374 60.7995C12.8001 60.6905 12.8844 60.5829 12.9906 60.4748L13.5352 59.9293L13.624 60.3116L13.2085 60.7284C13.0876 60.8499 12.9975 60.9479 12.9361 61.0228C12.8753 61.0977 12.8356 61.1611 12.8158 61.2139C12.7973 61.2658 12.7876 61.3177 12.7865 61.3676C12.7878 61.4036 12.7973 61.4612 12.8152 61.54L12.8984 61.8949L13.9385 61.6581L14.0103 61.9645ZM12.63 61.9559L12.4766 61.2985C12.444 61.1582 12.4037 61.0535 12.3556 60.981C12.3082 60.909 12.2477 60.8595 12.1735 60.8345C12.0994 60.8086 12.0252 60.8038 11.9491 60.8216C11.8386 60.8466 11.756 60.9061 11.703 61.0021C11.65 61.0972 11.6435 61.2307 11.6838 61.4012L11.8546 62.1331L12.63 61.9559ZM13.5066 59.621L11.1211 59.9202L10.9868 58.8766C10.9599 58.6663 10.9605 58.504 10.9894 58.3897C11.0181 58.2754 11.0827 58.1779 11.1825 58.0991C11.2823 58.0208 11.398 57.9728 11.5291 57.9565C11.6985 57.9354 11.8481 57.9714 11.9785 58.0655C12.1082 58.1592 12.2022 58.3162 12.2636 58.5385C12.2923 58.4511 12.325 58.3825 12.3583 58.3354C12.4311 58.2336 12.5257 58.1337 12.6421 58.0381L13.24 57.5488L13.2897 57.9382L12.8333 58.3119C12.7016 58.4204 12.6018 58.5092 12.5334 58.5779C12.4645 58.6461 12.4184 58.7052 12.394 58.7561C12.3703 58.8055 12.355 58.856 12.3492 58.9064C12.346 58.9415 12.3498 59.0005 12.3606 59.0807L12.4067 59.4419L13.4661 59.3093L13.5066 59.621ZM12.1339 59.4755L12.0476 58.807C12.0291 58.6644 11.9998 58.5549 11.9595 58.4785C11.9199 58.4026 11.8642 58.3474 11.7933 58.3152C11.7224 58.2816 11.6483 58.2696 11.5716 58.2792C11.4591 58.2936 11.3709 58.345 11.3082 58.4353C11.2461 58.5246 11.2263 58.6562 11.2487 58.83L11.3446 59.5749L12.1339 59.4755ZM13.1945 57.1987L10.809 57.4979L10.7693 57.1852L13.1542 56.886L13.1945 57.1987ZM12.0559 54.3293L11.7739 54.3355L11.7483 53.3309L12.6389 53.3088C12.7666 53.4596 12.8652 53.6166 12.9318 53.7794C12.9988 53.9422 13.0348 54.1093 13.0391 54.2817C13.0449 54.5156 13.0001 54.7283 12.9035 54.9214C12.8076 55.1135 12.6652 55.2619 12.4764 55.3632C12.2878 55.4655 12.0748 55.5198 11.8394 55.5251C11.6054 55.5308 11.3862 55.4886 11.1803 55.3973C10.9752 55.3056 10.8211 55.1702 10.7187 54.992C10.6157 54.8133 10.5614 54.6054 10.5551 54.3686C10.5512 54.1972 10.5749 54.0407 10.628 53.9014C10.681 53.7612 10.7564 53.6507 10.8543 53.5691C10.9528 53.4874 11.0831 53.4245 11.2437 53.3798L11.3293 53.6613C11.2077 53.6997 11.1131 53.7463 11.0435 53.8015C10.9752 53.8558 10.9213 53.9331 10.8818 54.032C10.8428 54.1309 10.8237 54.2404 10.8269 54.3605C10.8308 54.5031 10.8562 54.6265 10.903 54.7307C10.9498 54.834 11.0103 54.9161 11.0845 54.9795C11.1586 55.0419 11.2392 55.0895 11.3261 55.1226C11.4769 55.1793 11.6388 55.2057 11.8132 55.2009C12.0281 55.1961 12.2063 55.1548 12.3496 55.0784C12.4923 55.0021 12.597 54.8935 12.6637 54.7533C12.7296 54.6121 12.7609 54.4633 12.7576 54.3077C12.7537 54.1713 12.7231 54.0392 12.6675 53.911C12.61 53.7837 12.5505 53.6867 12.4884 53.6209L12.0377 53.6324L12.0559 54.3293ZM12.9604 53.0975L10.5801 52.1264L10.5892 51.7816L13.0173 50.8745L13.0083 51.2322L12.2724 51.4892L12.2468 52.4885L12.9686 52.7637L12.9604 53.0975ZM11.9912 52.3896L12.0117 51.5809L11.339 51.8119C11.1344 51.8815 10.9657 51.9339 10.8327 51.9694C10.9888 52.0059 11.1416 52.0534 11.2918 52.112L11.9912 52.3896ZM13.0378 50.6195L10.6402 50.4398L10.7215 49.3896C10.7374 49.1787 10.7713 49.0203 10.8226 48.9137C10.8743 48.807 10.9569 48.7249 11.0713 48.6673C11.1851 48.6106 11.308 48.5861 11.4397 48.5967C11.6097 48.6092 11.7491 48.675 11.8571 48.7922C11.9658 48.9098 12.0259 49.0832 12.0405 49.3118C12.0873 49.2316 12.1326 49.1725 12.1748 49.1322C12.2668 49.0476 12.3794 48.9689 12.5136 48.8973L13.1984 48.5367L13.1684 48.9281L12.6453 49.2032C12.4938 49.2839 12.378 49.3507 12.2968 49.404C12.2155 49.4578 12.1587 49.5072 12.1242 49.5514C12.091 49.5956 12.066 49.6417 12.05 49.6897C12.0399 49.7243 12.0315 49.7819 12.025 49.8626L11.9968 50.2257L13.0619 50.3054L13.0378 50.6195ZM11.7226 50.205L11.7744 49.5322C11.7851 49.3891 11.7789 49.2767 11.7552 49.1936C11.7315 49.111 11.6882 49.0462 11.6254 49.0001C11.5621 48.953 11.4925 48.9266 11.4151 48.9209C11.3019 48.9127 11.2047 48.9458 11.1254 49.0207C11.0461 49.0966 11.0002 49.2215 10.9866 49.3963L10.9291 50.1455L11.7226 50.205ZM13.254 48.2346L10.8685 47.9354L11.0028 46.8909C11.0303 46.6806 11.0717 46.5245 11.1287 46.4208C11.1855 46.3165 11.2724 46.2388 11.3888 46.1869C11.5058 46.1358 11.6297 46.1181 11.7608 46.1345C11.9302 46.1554 12.0658 46.2279 12.1675 46.3511C12.2705 46.4731 12.3216 46.6489 12.3249 46.8789C12.3753 46.8011 12.4233 46.744 12.4675 46.7051C12.5641 46.6249 12.6804 46.5523 12.8186 46.488L13.5206 46.1616L13.4708 46.5509L12.9337 46.8006C12.7783 46.8731 12.6593 46.9346 12.5757 46.9836C12.4925 47.0331 12.4326 47.0792 12.3959 47.1219C12.3602 47.1642 12.3326 47.2093 12.3147 47.2564C12.3026 47.29 12.2916 47.3476 12.2815 47.4283L12.2348 47.7889L13.2941 47.922L13.254 48.2346ZM11.9619 47.7548L12.0475 47.0854C12.066 46.9428 12.0653 46.8304 12.0455 46.7464C12.0257 46.6623 11.986 46.596 11.9259 46.5466C11.8651 46.4966 11.7968 46.4669 11.7201 46.4572C11.6069 46.4438 11.5084 46.4712 11.4252 46.5432C11.342 46.6148 11.2903 46.7372 11.2679 46.9106L11.172 47.6554L11.9619 47.7548ZM13.6191 45.8201L11.2522 45.4027L11.3084 45.0921L13.6753 45.5102L13.6191 45.8201ZM13.3128 42.7746L13.3122 42.7744L13.4708 42.0958L13.91 42.1956C13.9542 42.2745 13.9868 42.3825 14.0099 42.5209C14.0323 42.6583 14.0284 42.7935 13.9978 42.9262C13.962 43.079 13.8943 43.2146 13.7939 43.3347C13.6941 43.4545 13.5656 43.5341 13.4077 43.5726C13.2503 43.6112 13.0669 43.6067 12.8578 43.5595C12.6878 43.5203 12.5382 43.4552 12.4059 43.3636C12.3298 43.31 12.2638 43.2438 12.2082 43.1654C12.152 43.0858 12.1143 42.9911 12.0951 42.8793C12.0759 42.7669 12.0824 42.642 12.1149 42.5023C12.1425 42.3855 12.1877 42.2837 12.2505 42.1979C12.3145 42.1109 12.386 42.0502 12.466 42.0142C12.5466 41.9787 12.6509 41.9568 12.7774 41.9491L12.766 41.6555C12.599 41.6592 12.4572 41.6883 12.3414 41.7433C12.2257 41.7975 12.1246 41.8861 12.0377 42.0085C11.9515 42.1311 11.8888 42.2763 11.8498 42.443C11.7961 42.6741 11.7961 42.8889 11.8511 43.0871C11.9047 43.2852 12.0205 43.4539 12.1957 43.5928C12.3716 43.7325 12.5736 43.8279 12.8012 43.8803C13.0307 43.9326 13.2506 43.9326 13.459 43.8803C13.6667 43.8285 13.8424 43.7197 13.9838 43.5575C14.1265 43.394 14.2237 43.1989 14.2767 42.9715C14.3157 42.8035 14.3234 42.6324 14.3004 42.458C14.2762 42.2843 14.2211 42.1083 14.1349 41.9301L13.2667 41.7326L13.0378 42.712L13.3122 42.7744L13.3122 42.7746L13.3128 42.7746ZM14.5276 41.809L12.5456 40.1848L12.658 39.8577L15.2493 39.7029L15.133 40.042L14.3536 40.0716L14.0288 41.0182L14.6355 41.4931L14.5276 41.809ZM13.8142 40.8498L14.0769 40.0833L13.3645 40.1067C13.1483 40.1131 12.9721 40.1137 12.8339 40.1086C12.9721 40.1895 13.1038 40.2791 13.2303 40.3796L13.8142 40.8498ZM15.3192 39.4562L13.0828 38.5853L13.4734 37.6059C13.5521 37.4088 13.632 37.2675 13.7124 37.1804C13.7937 37.094 13.8971 37.0394 14.0232 37.0182C14.1491 36.9967 14.2739 37.0099 14.3965 37.0574C14.5558 37.1193 14.669 37.2228 14.7373 37.3669C14.8056 37.5101 14.8121 37.6934 14.7571 37.9169C14.8254 37.8537 14.8862 37.8096 14.9386 37.7837C15.0524 37.7294 15.1834 37.687 15.333 37.6581L16.0951 37.5129L15.9494 37.8786L15.3671 37.9891C15.1983 38.0212 15.0679 38.0516 14.9746 38.0793C14.8813 38.1072 14.8116 38.1368 14.7655 38.1696C14.72 38.2017 14.683 38.239 14.653 38.2801C14.6332 38.3097 14.6082 38.3629 14.5782 38.438L14.4426 38.7765L15.4362 39.1635L15.3192 39.4562ZM14.1864 38.6769L14.4377 38.0491C14.4907 37.9152 14.5183 37.806 14.5202 37.7196C14.5222 37.6338 14.5004 37.5599 14.4536 37.4967C14.4075 37.4342 14.3489 37.3888 14.2765 37.3602C14.1711 37.3192 14.068 37.3224 13.9696 37.3715C13.8717 37.4201 13.7904 37.5269 13.7254 37.6898L13.4467 38.3882L14.1864 38.6769ZM16.2169 37.2308L14.0258 36.2527L14.465 35.2935C14.5532 35.1009 14.6403 34.9627 14.7252 34.8805C14.8107 34.7978 14.917 34.7486 15.0435 34.7328C15.1707 34.7177 15.2942 34.7367 15.4145 34.7903C15.5699 34.8597 15.6785 34.9685 15.7393 35.1156C15.8007 35.262 15.7981 35.4451 15.7321 35.6656C15.8031 35.6062 15.8664 35.5651 15.9201 35.5419C16.0365 35.4934 16.1694 35.4574 16.3203 35.4353L17.0882 35.3274L16.9247 35.6854L16.3378 35.7682C16.1677 35.7923 16.036 35.8161 15.9414 35.8389C15.8468 35.8623 15.7759 35.8887 15.7278 35.9198C15.6811 35.9494 15.6423 35.9843 15.6102 36.0238C15.589 36.0528 15.561 36.1041 15.527 36.178L15.3754 36.51L16.3479 36.9439L16.2169 37.2308ZM15.1241 36.3972L15.4054 35.7829C15.4655 35.6516 15.4981 35.5436 15.5046 35.4576C15.511 35.3725 15.4931 35.2967 15.4496 35.2322C15.4067 35.1671 15.3498 35.1186 15.2795 35.087C15.1759 35.0409 15.0737 35.0391 14.9726 35.0832C14.8722 35.1275 14.7859 35.2296 14.7125 35.3895L14.3991 36.0735L15.1241 36.3972ZM17.2652 35.02L15.1248 33.9377L15.2705 33.6574L17.4105 34.7396L17.2652 35.02ZM17.856 32.0111L17.6118 31.8721L18.1187 31.0012L18.891 31.4395C18.9209 31.6347 18.9222 31.819 18.8935 31.9921C18.8653 32.1658 18.8073 32.3267 18.7203 32.4764C18.6026 32.679 18.4517 32.8376 18.2677 32.9532C18.0849 33.0682 17.8846 33.1212 17.6704 33.1105C17.4555 33.1012 17.2451 33.0379 17.0406 32.9217C16.838 32.8068 16.6729 32.6578 16.5458 32.4734C16.4193 32.2903 16.3585 32.0958 16.3653 31.8899C16.3712 31.6847 16.4337 31.4795 16.554 31.2743C16.6402 31.126 16.7425 31.0046 16.8615 30.9125C16.9811 30.8196 17.1038 30.7641 17.2305 30.7451C17.357 30.7262 17.5016 30.7394 17.662 30.7837L17.5872 31.0679C17.4633 31.0389 17.3577 31.03 17.2695 31.0406C17.1827 31.0525 17.0956 31.0898 17.01 31.1543C16.9245 31.2188 16.8508 31.3026 16.7902 31.407C16.7186 31.5306 16.6751 31.6488 16.6604 31.7618C16.6458 31.8742 16.654 31.9759 16.6848 32.0675C16.7148 32.159 16.7583 32.2412 16.8152 32.3144C16.9143 32.44 17.0389 32.5462 17.1898 32.6314C17.3758 32.7374 17.5497 32.7942 17.7129 32.8025C17.8745 32.8108 18.0217 32.7716 18.1521 32.6856C18.2832 32.5992 18.3881 32.4885 18.4666 32.3529C18.5355 32.2354 18.5791 32.1067 18.5983 31.9689C18.6168 31.8299 18.6175 31.7175 18.5983 31.6292L18.2077 31.4076L17.856 32.0111ZM19.2811 31.4238L17.856 29.3053L18.0586 29.0237L20.5852 29.6116L20.3755 29.9032L19.6205 29.7099L19.0336 30.5246L19.4767 31.1517L19.2811 31.4238ZM18.8776 30.3017L19.352 29.6425L18.6634 29.4626C18.4543 29.4071 18.2849 29.3573 18.1545 29.3136C18.2631 29.4304 18.3629 29.5542 18.4549 29.6855L18.8776 30.3017ZM95.1202 51.6337L94.8382 51.6409L94.8561 52.3373L94.4064 52.3483C94.3437 52.2825 94.2838 52.186 94.227 52.0583C94.171 51.9305 94.1404 51.7985 94.137 51.6621C94.1331 51.506 94.1642 51.3576 94.2308 51.2169C94.297 51.0757 94.4025 50.9672 94.5445 50.8908C94.6874 50.8145 94.8659 50.7736 95.0808 50.7684C95.2553 50.764 95.4168 50.7904 95.568 50.8466C95.6545 50.8802 95.7357 50.9273 95.8097 50.9902C95.8836 51.0531 95.9443 51.1353 95.991 51.239C96.0377 51.3432 96.063 51.4661 96.0669 51.6088C96.0703 51.7288 96.0513 51.8388 96.0119 51.9372C95.9725 52.0367 95.9186 52.1135 95.8505 52.1678C95.781 52.223 95.6861 52.2696 95.5651 52.308L95.6507 52.5899C95.8106 52.5447 95.9409 52.4818 96.0396 52.4002C96.1374 52.3195 96.2137 52.2086 96.2667 52.0683C96.3192 51.9286 96.3436 51.773 96.3387 51.6011C96.3324 51.3643 96.2784 51.1564 96.1753 50.9777C96.0727 50.7991 95.9186 50.6646 95.7134 50.5729C95.5077 50.4807 95.2884 50.4384 95.055 50.4442C94.8192 50.4504 94.6062 50.5042 94.418 50.6065C94.2299 50.7078 94.0864 50.8558 93.9906 51.0478C93.8939 51.2414 93.8491 51.4541 93.855 51.6875C93.8594 51.8599 93.8953 52.028 93.9624 52.1903C94.029 52.3531 94.1273 52.5097 94.2551 52.6605L95.1459 52.6384L95.1202 51.6337ZM96.31 53.8433L93.9299 52.8723L93.9216 53.2055L94.6432 53.4807L94.6174 54.4806L93.8822 54.7375L93.873 55.0948L96.3017 54.1881L96.31 53.8433ZM94.8785 54.3888L94.8989 53.5797L95.5986 53.8577C95.7489 53.9163 95.9016 53.9638 96.0576 54.0003C95.9244 54.0354 95.7557 54.0882 95.5515 54.1574L94.8785 54.3888ZM96.2468 55.5299L93.8491 55.3498L93.8253 55.6634L94.8897 55.7436L94.862 56.1066C94.8557 56.1878 94.8474 56.245 94.8372 56.28C94.8211 56.328 94.7959 56.3741 94.7623 56.4183C94.7283 56.4625 94.6709 56.5115 94.5902 56.5653C94.509 56.6186 94.3932 56.6853 94.2415 56.7655L93.7188 57.0412L93.6887 57.4326L94.3728 57.0724C94.507 57.0008 94.6203 56.9221 94.7122 56.8376C94.7545 56.7972 94.7992 56.7372 94.8459 56.657C94.8605 56.8866 94.9213 57.0594 95.0292 57.1771C95.1377 57.2948 95.2767 57.3596 95.4469 57.3726C95.5787 57.3826 95.7017 57.3591 95.816 57.3015C95.9298 57.2443 96.0119 57.1622 96.064 57.0561C96.116 56.949 96.1495 56.791 96.1656 56.5792L96.2468 55.5299ZM95.1129 56.4371L95.1644 55.7647L95.958 55.8243L95.9006 56.573C95.887 56.7478 95.8408 56.8731 95.7615 56.948C95.6823 57.0239 95.585 57.057 95.4722 57.0484C95.3944 57.0426 95.3244 57.0162 95.2617 56.9696C95.1984 56.9235 95.1557 56.8587 95.1318 56.7756C95.108 56.693 95.1012 56.5806 95.1129 56.4371ZM96.0144 58.0343L93.6294 57.7346L93.5895 58.0468L94.6485 58.1798L94.6018 58.541C94.5916 58.6216 94.5809 58.6788 94.5688 58.7129C94.5503 58.76 94.5231 58.8046 94.4876 58.8469C94.4506 58.8901 94.3908 58.9362 94.3077 58.9852C94.224 59.0346 94.1049 59.0966 93.9488 59.1682L93.4125 59.4179L93.3629 59.8074L94.0645 59.4813C94.2022 59.4164 94.3193 59.3439 94.4161 59.2637C94.4599 59.2253 94.508 59.1677 94.5586 59.0899C94.562 59.3199 94.613 59.4962 94.7151 59.6181C94.8177 59.7411 94.9534 59.8136 95.1226 59.8342C95.2534 59.8506 95.3774 59.8333 95.4941 59.7819C95.6108 59.73 95.6978 59.6522 95.7547 59.5485C95.8116 59.4448 95.8529 59.2882 95.8802 59.0779L96.0144 58.0343ZM94.8357 58.8834L94.9213 58.2139L95.7114 58.3133L95.6156 59.0582C95.5933 59.2315 95.5408 59.355 95.4576 59.4256C95.3745 59.4976 95.2758 59.5259 95.1634 59.5115C95.0866 59.5019 95.0176 59.4721 94.9573 59.4227C94.8965 59.3727 94.8571 59.3065 94.8377 59.2224C94.8182 59.1384 94.8172 59.026 94.8357 58.8834ZM95.6273 60.5656L93.2603 60.1483L93.2044 60.4585L95.5719 60.8764L95.6273 60.5656ZM93.5642 63.1932L93.5632 63.193H93.5642L93.5642 63.1932ZM93.8384 63.2554L93.5642 63.1932L93.4057 63.8721L92.9661 63.7722C92.9219 63.6929 92.8893 63.5854 92.866 63.4466C92.8441 63.3092 92.848 63.1743 92.8786 63.0413C92.9141 62.889 92.9822 62.7531 93.0823 62.633C93.182 62.514 93.3109 62.4333 93.4679 62.3949C93.626 62.3564 93.8093 62.3608 94.0184 62.4083C94.1885 62.4472 94.3383 62.5125 94.4706 62.6042C94.5459 62.6575 94.6125 62.7243 94.668 62.8031C94.7244 62.8818 94.7618 62.9764 94.7813 63.0883C94.8002 63.2007 94.7939 63.326 94.7613 63.4653C94.7336 63.582 94.6884 63.6838 94.6257 63.7698C94.562 63.8567 94.49 63.9172 94.4103 63.9532C94.3291 63.9888 94.2255 64.0109 94.0991 64.0185L94.1103 64.312C94.2775 64.3086 94.419 64.2793 94.5347 64.2246C94.6505 64.1708 94.7516 64.0814 94.8386 63.959C94.9247 63.8365 94.9874 63.6915 95.0263 63.5249C95.0803 63.2934 95.0803 63.0787 95.0254 62.8804C94.9714 62.6825 94.8557 62.514 94.6806 62.3747C94.5046 62.2349 94.3028 62.1399 94.0752 62.088C93.8457 62.0356 93.626 62.0356 93.4174 62.088C93.2097 62.1389 93.0332 62.2479 92.8927 62.4102C92.7498 62.5735 92.6525 62.769 92.5995 62.9961C92.5601 63.1642 92.5528 63.3352 92.5757 63.5095C92.5995 63.6833 92.6554 63.8591 92.7415 64.0373L93.6094 64.2351L93.8384 63.2554ZM94.3237 65.78L92.3418 64.1559L92.2339 64.4724L92.8402 64.9468L92.5154 65.8943L91.7364 65.9236L91.6197 66.2627L94.2109 66.1076L94.3237 65.78ZM92.7921 65.8823L93.0551 65.1159L93.6391 65.5855C93.7655 65.6859 93.8973 65.7762 94.0354 65.8564C93.8973 65.8521 93.7208 65.8521 93.5044 65.8588L92.7921 65.8823ZM93.783 67.3792L91.5463 66.5081L91.4296 66.801L92.4225 67.1881L92.2878 67.5262C92.2572 67.6016 92.2319 67.6549 92.2125 67.6842C92.1828 67.7255 92.1454 67.7624 92.0997 67.7946C92.0535 67.8278 91.9849 67.8575 91.8915 67.8859C91.7982 67.9128 91.6669 67.943 91.4987 67.9752L90.9166 68.0856L90.7708 68.4516L91.5322 68.307C91.682 68.2773 91.8138 68.235 91.9266 68.1807C91.9791 68.1548 92.0398 68.1106 92.1089 68.0482C92.0539 68.271 92.0598 68.4545 92.1279 68.5981C92.1969 68.7417 92.3102 68.8449 92.4687 68.9069C92.5922 68.9544 92.7167 68.9678 92.8421 68.9467C92.9681 68.9251 93.0721 68.8704 93.1528 68.7839C93.2341 68.697 93.3138 68.5558 93.3926 68.3584L93.783 67.3792ZM92.4284 67.9152L92.6788 67.288L93.4193 67.5761L93.1407 68.2744C93.0755 68.4377 92.9943 68.5443 92.8956 68.5928C92.7974 68.6418 92.6948 68.6451 92.5893 68.6038C92.5169 68.5755 92.458 68.5299 92.4123 68.4674C92.3656 68.404 92.3433 68.3306 92.3457 68.2446C92.3476 68.1582 92.3754 68.0492 92.4284 67.9152ZM90.646 68.7321L90.6458 68.732L90.6463 68.7316L90.646 68.7321ZM90.646 68.7321L90.5145 69.0183L91.4875 69.4529L91.3353 69.7842C91.3017 69.8582 91.274 69.9101 91.2526 69.9389C91.2205 69.9778 91.1812 70.0138 91.1345 70.0431C91.0868 70.0733 91.0163 70.1007 90.9215 70.1242C90.8267 70.1463 90.6954 70.1708 90.5252 70.1948L89.9383 70.277L89.774 70.6347L90.5427 70.5276C90.6935 70.5056 90.8267 70.4695 90.9429 70.421C90.9964 70.398 91.0591 70.3567 91.1306 70.2967C91.0649 70.518 91.0615 70.7001 91.1228 70.8475C91.1846 70.9944 91.2925 71.1025 91.4476 71.1721C91.5677 71.2254 91.6922 71.2451 91.8191 71.2302C91.9455 71.2144 92.0515 71.1654 92.1371 71.0823C92.2217 70.9997 92.3087 70.8619 92.3972 70.6688L92.8363 69.7103L90.646 68.7321ZM91.4568 70.18L91.7379 69.5653L92.4638 69.8894L92.1502 70.5733C92.0768 70.7332 91.9907 70.835 91.8901 70.8792C91.7889 70.9238 91.6868 70.9219 91.5833 70.8753C91.5123 70.8436 91.4554 70.7956 91.4131 70.7308C91.3698 70.6655 91.3509 70.5906 91.3577 70.5046C91.364 70.4186 91.3966 70.3115 91.4568 70.18ZM91.7345 72.0231L89.5941 70.9416L89.4487 71.2221L91.5891 72.304L91.7345 72.0231ZM89.2445 74.0872L89.0004 73.9479L88.6479 74.552L88.2574 74.3297C88.2389 74.2423 88.2389 74.1299 88.2574 73.9906C88.2773 73.8533 88.3206 73.7241 88.3892 73.606C88.4679 73.4705 88.573 73.3601 88.7043 73.2741C88.8346 73.1882 88.9819 73.1488 89.1433 73.1574C89.3057 73.1656 89.4803 73.2223 89.666 73.3284C89.8173 73.4134 89.9412 73.5195 90.0409 73.6453C90.0973 73.7183 90.1416 73.8009 90.1712 73.8922C90.2024 73.9839 90.2096 74.0857 90.196 74.1971C90.181 74.3109 90.1377 74.4291 90.0652 74.553C90.0054 74.6572 89.932 74.7408 89.8464 74.8046C89.7599 74.8699 89.6733 74.9074 89.5863 74.9189C89.4978 74.93 89.3928 74.9204 89.2693 74.8911L89.1934 75.1759C89.3544 75.2205 89.4988 75.233 89.6257 75.2147C89.7526 75.1955 89.8751 75.1394 89.9947 75.0471C90.1129 74.9549 90.216 74.8339 90.302 74.6855C90.4221 74.48 90.4844 74.2749 90.4907 74.0689C90.497 73.8638 90.4372 73.6693 90.3103 73.4859C90.1824 73.302 90.0176 73.1531 89.8148 73.0378C89.6111 72.9211 89.4006 72.8587 89.1856 72.8486C88.9717 72.8385 88.7714 72.8914 88.588 73.0066C88.4047 73.1219 88.2535 73.2808 88.1358 73.4835C88.0488 73.6329 87.9909 73.7937 87.9622 73.9676C87.9341 74.1405 87.9355 74.3249 87.9647 74.5203L88.7373 74.9583L89.2445 74.0872ZM88.9936 76.6507L87.5689 74.5323L87.3734 74.8032L87.8164 75.4309L87.23 76.2458L86.4744 76.0523L86.2643 76.3438L88.7913 76.9321L88.9936 76.6507ZM87.4979 76.3135L87.973 75.6537L88.3955 76.2703C88.4869 76.4019 88.5866 76.5253 88.6955 76.6415C88.5647 76.5978 88.3955 76.5484 88.1864 76.4931L87.4979 76.3135ZM88.0201 78.0308L86.1291 76.5642L85.9322 76.8115L86.7719 77.4632L86.5449 77.7494C86.4938 77.8133 86.4549 77.8565 86.4267 77.8801C86.3864 77.9103 86.3397 77.9358 86.2872 77.9535C86.2337 77.9718 86.1578 77.9814 86.0611 77.9814C85.9628 77.9814 85.8296 77.9737 85.658 77.9564L85.0686 77.8978L84.8231 78.2066L85.5948 78.2839C85.746 78.2974 85.8846 78.2945 86.009 78.2748C86.0664 78.2642 86.1374 78.2393 86.221 78.1984C86.1043 78.3973 86.0567 78.574 86.081 78.7315C86.1048 78.8881 86.1836 79.0192 86.3178 79.1234C86.4218 79.2036 86.5371 79.2516 86.6645 79.267C86.7909 79.2819 86.9061 79.2593 87.0087 79.1988C87.1118 79.1388 87.229 79.0254 87.3617 78.8588L88.0201 78.0308ZM86.5663 78.162L86.9883 77.6313L87.6141 78.1168L87.1439 78.708C87.035 78.8448 86.9261 78.9236 86.8172 78.9428C86.7092 78.9625 86.6095 78.9366 86.5201 78.8669C86.4593 78.8199 86.4165 78.7589 86.3902 78.6859C86.364 78.6134 86.365 78.5356 86.3917 78.4539C86.4184 78.3723 86.4763 78.2748 86.5663 78.162ZM86.4452 79.9998L84.6276 78.4453L84.6271 78.4458L84.4185 78.683L85.2257 79.3741L84.9845 79.6492C84.9301 79.7102 84.8887 79.752 84.8605 79.7736C84.8187 79.8024 84.7706 79.825 84.7166 79.8404C84.6626 79.8557 84.5873 79.8625 84.49 79.8572C84.3928 79.8529 84.2591 79.8385 84.0889 79.8135L83.503 79.727L83.2428 80.0238L84.0101 80.1372C84.1608 80.1588 84.2989 80.1621 84.4239 80.1477C84.4822 80.14 84.5547 80.1184 84.6403 80.0815C84.5138 80.2745 84.4584 80.4493 84.474 80.6073C84.4905 80.7653 84.563 80.8998 84.6923 81.0102C84.7915 81.0957 84.9053 81.1485 85.0312 81.1702C85.1571 81.1908 85.2729 81.174 85.3784 81.1183C85.4839 81.0626 85.6064 80.955 85.7474 80.7956L86.4452 79.9998ZM84.987 80.0618L85.4343 79.5518L86.0367 80.0661L85.5384 80.6342C85.4221 80.7668 85.3093 80.8398 85.2009 80.8537C85.0905 80.8681 84.9938 80.8373 84.9072 80.7639C84.8484 80.7134 84.808 80.6515 84.7866 80.5771C84.7633 80.5026 84.7677 80.4248 84.7983 80.3446C84.8299 80.2644 84.8917 80.1703 84.987 80.0618ZM84.7278 81.9097L82.9875 80.2707L82.7668 80.4993L84.5075 82.1373L84.7278 81.9097ZM81.752 83.1929L81.557 82.9917L81.047 83.4724L80.7358 83.1506C80.7436 83.0608 80.7761 82.9528 80.8335 82.8246C80.8919 82.6978 80.9706 82.5873 81.0703 82.4932C81.1846 82.3851 81.3178 82.3088 81.4671 82.2627C81.6173 82.2166 81.7695 82.2204 81.9227 82.2732C82.0758 82.327 82.2266 82.4298 82.3744 82.584C82.4955 82.7083 82.584 82.8447 82.6428 82.9922C82.6764 83.0781 82.6948 83.1698 82.6973 83.2659C82.7002 83.3624 82.6788 83.4623 82.6326 83.5656C82.5859 83.6698 82.5106 83.7706 82.4065 83.87C82.318 83.9526 82.2237 84.0127 82.123 84.0501C82.0219 84.0876 81.928 84.0996 81.841 84.0866C81.7535 84.0722 81.6553 84.0343 81.5449 83.9714L81.3912 84.223C81.5327 84.3109 81.6674 84.3632 81.7948 84.381C81.9212 84.3978 82.0549 84.3796 82.196 84.3243C82.3365 84.2686 82.4692 84.1817 82.5952 84.0636C82.7683 83.8998 82.8879 83.7207 82.9525 83.5252C83.0177 83.3298 83.0157 83.1271 82.9467 82.9148C82.8777 82.7031 82.7619 82.5138 82.6005 82.3462C82.4376 82.1777 82.2548 82.0581 82.0515 81.989C81.8488 81.9193 81.6416 81.9136 81.433 81.9731C81.2235 82.0322 81.0329 82.1426 80.8622 82.3035C80.7358 82.4221 80.6341 82.5609 80.5573 82.7194C80.48 82.8774 80.428 83.0546 80.4008 83.25L81.0159 83.8864L81.752 83.1929ZM80.7849 85.5883L80.0249 83.1578L79.7589 83.3648L80.0045 84.0895L79.2085 84.7076L78.5389 84.3109L78.2545 84.5323L80.5097 85.802L80.7849 85.5883ZM79.4463 84.8468L80.0905 84.3469L80.3196 85.0557C80.3701 85.208 80.4304 85.3549 80.5014 85.4961C80.3881 85.4178 80.2403 85.3232 80.0555 85.2113L79.4463 84.8468ZM79.4584 86.6434L78.0644 84.7085L77.8052 84.8915L78.4237 85.7506L78.1232 85.9615C78.0561 86.0085 78.0065 86.0393 77.9725 86.0537C77.9248 86.0724 77.8733 86.083 77.8179 86.0854C77.761 86.0878 77.6861 86.0762 77.5927 86.0489C77.4994 86.0215 77.3734 85.9768 77.2144 85.913L76.665 85.692L76.3407 85.9192L77.0593 86.2088C77.2008 86.265 77.3341 86.3 77.459 86.3159C77.5179 86.3221 77.5927 86.3178 77.6856 86.3019C77.5159 86.4599 77.4196 86.6165 77.3978 86.774C77.3759 86.9315 77.4138 87.0785 77.5125 87.2163C77.5888 87.3224 77.6866 87.4007 77.8038 87.4507C77.9214 87.5001 78.0386 87.5107 78.1543 87.4814C78.2701 87.4526 78.415 87.3767 78.5895 87.2538L79.4584 86.6434ZM78.0269 86.3634L78.5832 85.9725L79.0446 86.6131L78.4252 87.0482C78.2798 87.15 78.1534 87.1947 78.044 87.1832C77.9341 87.1707 77.8465 87.1183 77.7804 87.0271C77.7362 86.9642 77.7119 86.895 77.708 86.8172C77.7031 86.7394 77.7264 86.6655 77.7756 86.5949C77.8247 86.5233 77.9078 86.4465 78.0269 86.3634ZM77.3856 88.0966L76.0883 86.0974L75.8199 86.2674L76.3956 87.1548L76.0859 87.3517C76.0163 87.3954 75.9648 87.4233 75.9308 87.4367C75.8821 87.4526 75.8306 87.4608 75.7742 87.4608C75.7178 87.4608 75.6434 87.4449 75.551 87.4137C75.4596 87.382 75.3361 87.3306 75.18 87.2595L74.6422 87.0132L74.3072 87.2254L75.0113 87.5482C75.1499 87.6106 75.2807 87.6519 75.4056 87.6735C75.4635 87.6831 75.5394 87.6821 75.6317 87.6711C75.4547 87.8209 75.3512 87.9722 75.3215 88.1288C75.2923 88.2848 75.323 88.4342 75.4149 88.5759C75.4859 88.6858 75.5792 88.7684 75.6935 88.8237C75.8092 88.8789 75.9249 88.8947 76.0421 88.8712C76.1593 88.8482 76.3081 88.7785 76.4885 88.6642L77.3856 88.0966ZM75.9702 87.7489L76.5449 87.3844L76.9747 88.0462L76.3339 88.4515C76.1851 88.5456 76.0557 88.5845 75.9473 88.5677C75.8384 88.5504 75.7533 88.4937 75.692 88.3996C75.6497 88.3353 75.6293 88.2637 75.6293 88.1864C75.6288 88.1086 75.6551 88.0361 75.7081 87.9669C75.7601 87.8992 75.8471 87.8257 75.9702 87.7489ZM75.1927 89.4528L73.9946 87.3945L73.7179 87.551L74.916 89.6093L75.1927 89.4528ZM71.9723 89.8552L71.8434 89.6069V89.6079L71.2157 89.9253L71.0105 89.5296C71.0431 89.4446 71.1049 89.3505 71.1972 89.2439C71.2891 89.1392 71.3971 89.0547 71.5191 88.9927C71.6606 88.9212 71.8094 88.8851 71.9665 88.8832C72.124 88.8813 72.2684 88.9274 72.4002 89.021C72.531 89.1152 72.6462 89.2564 72.744 89.4461C72.8232 89.5988 72.8694 89.7539 72.8835 89.9133C72.8903 90.0046 72.8816 90.0977 72.8568 90.1904C72.8325 90.2836 72.7833 90.3729 72.709 90.4594C72.6341 90.5468 72.5325 90.6221 72.4041 90.6879C72.2961 90.7422 72.1877 90.7734 72.0807 90.7806C71.9723 90.7888 71.8799 90.7744 71.7997 90.7364C71.7199 90.6985 71.6363 90.6342 71.5488 90.5434L71.3285 90.7413C71.4394 90.8647 71.5532 90.953 71.6703 91.0054C71.787 91.0577 71.9208 91.0774 72.0715 91.0635C72.2217 91.05 72.3749 91.0039 72.5295 90.9257C72.743 90.8181 72.9088 90.6793 73.027 90.5103C73.1461 90.3417 73.202 90.1458 73.1971 89.9234C73.1918 89.7006 73.1354 89.4874 73.0289 89.2813C72.9214 89.0743 72.7799 88.9082 72.6049 88.7843C72.4308 88.6609 72.2344 88.5975 72.0165 88.5956C71.7987 88.5936 71.5853 88.6455 71.3747 88.7521C71.2196 88.8304 71.082 88.9351 70.9624 89.0652C70.8428 89.1954 70.7426 89.35 70.6599 89.5301L71.0664 90.3129L71.9723 89.8552ZM70.4582 91.8347L70.3089 89.2953L70.0006 89.4326L70.0633 90.1947L69.1414 90.6063L68.5871 90.0641L68.2574 90.2111L70.1397 91.9769L70.4582 91.8347ZM69.3383 90.7984L70.0847 90.4651L70.1358 91.2076C70.1474 91.3675 70.1708 91.524 70.2053 91.6782C70.1144 91.5759 69.9933 91.4482 69.8416 91.2964L69.3383 90.7984ZM68.7782 92.5388L68.0075 90.2893L67.7051 90.3902L68.0479 91.3891L67.6988 91.5063C67.621 91.5322 67.5641 91.5471 67.5276 91.5519C67.477 91.5557 67.4245 91.5509 67.3701 91.538C67.3151 91.5236 67.247 91.4919 67.1653 91.4386C67.0837 91.3862 66.9757 91.3074 66.842 91.2013L66.3806 90.8335L66.0037 90.9593L66.6081 91.4405C66.7268 91.5341 66.8439 91.6061 66.9597 91.6566C67.0136 91.6791 67.0871 91.6969 67.1794 91.7075C66.9718 91.8107 66.8337 91.9332 66.7671 92.0777C66.7 92.2223 66.6937 92.3745 66.7482 92.5344C66.7909 92.6574 66.8615 92.7602 66.9592 92.8413C67.0569 92.922 67.1663 92.9657 67.285 92.9705C67.4046 92.9758 67.566 92.9441 67.7693 92.8764L68.7782 92.5388ZM67.4892 91.8636L68.1359 91.6475L68.3912 92.3918L67.6706 92.6319C67.5033 92.6891 67.3686 92.6958 67.2665 92.6531C67.1653 92.6108 67.0968 92.5354 67.0603 92.4298C67.035 92.3563 67.0326 92.2823 67.0516 92.2074C67.0696 92.132 67.1138 92.0672 67.1809 92.0134C67.2495 91.9596 67.3516 91.9101 67.4892 91.8636ZM66.3708 93.3532L65.7134 91.0688L65.4071 91.1552L65.6988 92.169L65.3439 92.2684C65.2651 92.291 65.2073 92.303 65.1713 92.3063C65.1197 92.3078 65.0677 92.3006 65.0147 92.2842C64.9603 92.2679 64.8932 92.2319 64.8144 92.1757C64.7361 92.119 64.632 92.035 64.5037 91.9217L64.0612 91.5322L63.679 91.6398L64.2576 92.1498C64.3719 92.2497 64.4857 92.3265 64.5985 92.3827C64.6515 92.4082 64.7239 92.4298 64.8158 92.4446C64.6034 92.5378 64.4589 92.6531 64.385 92.7938C64.3116 92.9354 64.2965 93.0872 64.3432 93.2495C64.3797 93.3749 64.4453 93.4805 64.5387 93.5665C64.6325 93.652 64.739 93.7 64.8577 93.7115C64.9768 93.7221 65.1392 93.699 65.3454 93.6409L66.3708 93.3532ZM65.1173 92.6151L65.7737 92.4317L65.9921 93.1876L65.2607 93.3926C65.0896 93.4407 64.9549 93.4411 64.8557 93.3931C64.7565 93.3456 64.6914 93.2673 64.6607 93.1592C64.6389 93.0858 64.6403 93.0118 64.6632 92.9378C64.685 92.8634 64.7317 92.801 64.8022 92.7506C64.8722 92.6996 64.9773 92.6545 65.1173 92.6151ZM63.873 94.0385L63.3328 91.7248L63.0211 91.7954L63.5613 94.1091L63.873 94.0385Z" fill="#00053C"/>
<path fill-rule="evenodd" clip-rule="evenodd" d="M47.8321 51.1071H38.3574C38.5839 48.9444 39.3019 46.9574 40.5107 45.1492C41.9989 42.9225 44.0615 41.1792 46.6986 39.9183C46.896 39.8236 47.0955 39.7328 47.296 39.6458L47.2955 39.5448L47.2693 34.0714L53.4606 34.094V38.1171C54.025 38.0677 54.5983 38.0381 55.1836 38.0301L55.2344 34.094L61.3231 34.0947L61.3492 38.809C61.7764 38.925 62.2047 39.0528 62.6324 39.1937C64.9894 39.9719 66.9924 41.0316 68.6431 42.3728L63.4282 48.086C62.3675 47.1476 61.122 46.3962 59.6928 45.8327C58.2646 45.2694 56.872 44.988 55.5165 44.988C54.0428 44.988 52.7099 45.3226 51.5162 45.9943C50.3231 46.6649 49.387 47.5832 48.7095 48.7499C48.2823 49.4848 47.9897 50.2707 47.8321 51.1071Z" fill="#00053C"/>
<path fill-rule="evenodd" clip-rule="evenodd" d="M60.2489 68.3275L60.2002 73.7975H54.3983V69.2644C54.3213 69.2644 54.2448 69.2654 54.1687 69.2654C53.6923 69.2654 53.2249 69.2481 52.7633 69.2135V73.8214L46.9132 73.7975V67.8321C46.9132 67.7761 46.9137 67.7206 46.9152 67.6661C46.6311 67.5276 46.3504 67.3794 46.0738 67.2236C43.6694 65.8616 41.7822 63.9919 40.4124 61.6141C39.042 59.2353 38.3574 56.556 38.3574 53.5759C38.3574 53.3824 38.3601 53.1909 38.3667 53H47.3067C47.2962 53.1894 47.2908 53.3819 47.2908 53.5759C47.2908 55.1227 47.6187 56.5275 48.2759 57.7882C48.9331 59.0499 49.8353 60.0377 50.9809 60.7541C52.1275 61.4705 53.3997 61.829 54.7977 61.829C56.0565 61.829 57.5374 61.4135 59.2434 60.582V53.0606H66.7503V65.3112C65.1571 66.4568 63.1854 67.4023 60.8371 68.1478C60.6398 68.2099 60.4436 68.27 60.2489 68.3275Z" fill="#FFFF7D"/>
<path d="M154.938 35.2188V53.25C154.229 54.1042 153.135 55.0312 151.656 56.0312C150.177 57.0104 148.271 57.8542 145.938 58.5625C143.604 59.2708 140.781 59.625 137.469 59.625C134.531 59.625 131.854 59.1458 129.438 58.1875C127.021 57.2083 124.938 55.7812 123.188 53.9062C121.458 52.0312 120.125 49.7396 119.188 47.0312C118.25 44.3021 117.781 41.1875 117.781 37.6875V34.8438C117.781 31.3438 118.229 28.2292 119.125 25.5C120.042 22.7708 121.344 20.4688 123.031 18.5938C124.719 16.7188 126.729 15.2917 129.062 14.3125C131.396 13.3333 133.99 12.8438 136.844 12.8438C140.802 12.8438 144.052 13.4896 146.594 14.7812C149.135 16.0521 151.073 17.8229 152.406 20.0938C153.76 22.3438 154.594 24.9271 154.906 27.8438H145.812C145.583 26.3021 145.146 24.9583 144.5 23.8125C143.854 22.6667 142.927 21.7708 141.719 21.125C140.531 20.4792 138.99 20.1562 137.094 20.1562C135.531 20.1562 134.135 20.4792 132.906 21.125C131.698 21.75 130.677 22.6771 129.844 23.9062C129.01 25.1354 128.375 26.6562 127.938 28.4688C127.5 30.2812 127.281 32.3854 127.281 34.7812V37.6875C127.281 40.0625 127.51 42.1667 127.969 44C128.427 45.8125 129.104 47.3438 130 48.5938C130.917 49.8229 132.042 50.75 133.375 51.375C134.708 52 136.26 52.3125 138.031 52.3125C139.51 52.3125 140.74 52.1875 141.719 51.9375C142.719 51.6875 143.521 51.3854 144.125 51.0312C144.75 50.6562 145.229 50.3021 145.562 49.9688V41.9062H137V35.2188H154.938ZM181 21.2812L168.625 59H158.656L175.562 13.5H181.906L181 21.2812ZM191.281 59L178.875 21.2812L177.875 13.5H184.281L201.281 59H191.281ZM190.719 42.0625V49.4062H166.688V42.0625H190.719ZM205.5 13.5H222.469C225.948 13.5 228.938 14.0208 231.438 15.0625C233.958 16.1042 235.896 17.6458 237.25 19.6875C238.604 21.7292 239.281 24.2396 239.281 27.2188C239.281 29.6562 238.865 31.75 238.031 33.5C237.219 35.2292 236.062 36.6771 234.562 37.8438C233.083 38.9896 231.344 39.9062 229.344 40.5938L226.375 42.1562H211.625L211.562 34.8438H222.531C224.177 34.8438 225.542 34.5521 226.625 33.9688C227.708 33.3854 228.521 32.5729 229.062 31.5312C229.625 30.4896 229.906 29.2812 229.906 27.9062C229.906 26.4479 229.635 25.1875 229.094 24.125C228.552 23.0625 227.729 22.25 226.625 21.6875C225.521 21.125 224.135 20.8438 222.469 20.8438H214.875V59H205.5V13.5ZM230.938 59L220.562 38.7188L230.469 38.6562L240.969 58.5625V59H230.938ZM246.5 13.5H263.469C266.948 13.5 269.938 14.0208 272.438 15.0625C274.958 16.1042 276.896 17.6458 278.25 19.6875C279.604 21.7292 280.281 24.2396 280.281 27.2188C280.281 29.6562 279.865 31.75 279.031 33.5C278.219 35.2292 277.062 36.6771 275.562 37.8438C274.083 38.9896 272.344 39.9062 270.344 40.5938L267.375 42.1562H252.625L252.562 34.8438H263.531C265.177 34.8438 266.542 34.5521 267.625 33.9688C268.708 33.3854 269.521 32.5729 270.062 31.5312C270.625 30.4896 270.906 29.2812 270.906 27.9062C270.906 26.4479 270.635 25.1875 270.094 24.125C269.552 23.0625 268.729 22.25 267.625 21.6875C266.521 21.125 265.135 20.8438 263.469 20.8438H255.875V59H246.5V13.5ZM271.938 59L261.562 38.7188L271.469 38.6562L281.969 58.5625V59H271.938ZM297.469 13.5V59H288.125V13.5H297.469ZM120.578 74.25H122.516L130.922 94.2812L139.344 74.25H141.266L131.656 97H130.188L120.578 74.25ZM119.984 74.25H121.688L121.891 87.0625V97H119.984V74.25ZM140.188 74.25H141.891V97H139.969V87.0625L140.188 74.25ZM157.516 93.9688V85.25C157.516 84.4479 157.349 83.7552 157.016 83.1719C156.682 82.5885 156.193 82.1406 155.547 81.8281C154.901 81.5156 154.104 81.3594 153.156 81.3594C152.281 81.3594 151.5 81.5156 150.812 81.8281C150.135 82.1302 149.599 82.5417 149.203 83.0625C148.818 83.5729 148.625 84.1406 148.625 84.7656L146.75 84.75C146.75 84.1146 146.906 83.5 147.219 82.9062C147.531 82.3125 147.974 81.7812 148.547 81.3125C149.12 80.8438 149.802 80.474 150.594 80.2031C151.396 79.9219 152.276 79.7812 153.234 79.7812C154.443 79.7812 155.505 79.9844 156.422 80.3906C157.349 80.7969 158.073 81.4062 158.594 82.2188C159.115 83.0312 159.375 84.0521 159.375 85.2812V93.4531C159.375 94.0365 159.417 94.6406 159.5 95.2656C159.594 95.8906 159.724 96.4062 159.891 96.8125V97H157.906C157.781 96.625 157.682 96.1562 157.609 95.5938C157.547 95.0208 157.516 94.4792 157.516 93.9688ZM157.953 87.1562L157.984 88.5938H154.312C153.354 88.5938 152.495 88.6823 151.734 88.8594C150.984 89.026 150.349 89.276 149.828 89.6094C149.307 89.9323 148.906 90.3229 148.625 90.7812C148.354 91.2396 148.219 91.7604 148.219 92.3438C148.219 92.9479 148.37 93.5 148.672 94C148.984 94.5 149.422 94.901 149.984 95.2031C150.557 95.4948 151.234 95.6406 152.016 95.6406C153.057 95.6406 153.974 95.4479 154.766 95.0625C155.568 94.6771 156.229 94.1719 156.75 93.5469C157.271 92.9219 157.62 92.2396 157.797 91.5L158.609 92.5781C158.474 93.099 158.224 93.6354 157.859 94.1875C157.505 94.7292 157.042 95.2396 156.469 95.7188C155.896 96.1875 155.219 96.5729 154.438 96.875C153.667 97.1667 152.792 97.3125 151.812 97.3125C150.708 97.3125 149.745 97.1042 148.922 96.6875C148.109 96.2708 147.474 95.7031 147.016 94.9844C146.568 94.2552 146.344 93.4323 146.344 92.5156C146.344 91.6823 146.521 90.9375 146.875 90.2812C147.229 89.6146 147.74 89.0521 148.406 88.5938C149.083 88.125 149.896 87.7708 150.844 87.5312C151.802 87.2812 152.875 87.1562 154.062 87.1562H157.953ZM166.25 82.8906V97H164.391V80.0938H166.203L166.25 82.8906ZM172.234 79.9688L172.188 81.6875C171.979 81.6562 171.776 81.6302 171.578 81.6094C171.38 81.5885 171.167 81.5781 170.938 81.5781C170.125 81.5781 169.411 81.7292 168.797 82.0312C168.193 82.3229 167.682 82.7344 167.266 83.2656C166.849 83.7865 166.531 84.401 166.312 85.1094C166.094 85.8073 165.969 86.5573 165.938 87.3594L165.25 87.625C165.25 86.5208 165.365 85.4948 165.594 84.5469C165.823 83.599 166.172 82.7708 166.641 82.0625C167.12 81.3438 167.719 80.7865 168.438 80.3906C169.167 79.9844 170.021 79.7812 171 79.7812C171.24 79.7812 171.474 79.8021 171.703 79.8438C171.943 79.875 172.12 79.9167 172.234 79.9688ZM177.031 73V97H175.172V73H177.031ZM187.641 80.0938L179.734 87.9375L176.375 91.1875L176.094 89.3594L178.797 86.4375L185.281 80.0938H187.641ZM186.016 97L178.953 88.2188L179.984 86.6094L188.266 97H186.016ZM197.078 97.3125C195.974 97.3125 194.958 97.1094 194.031 96.7031C193.115 96.2969 192.312 95.724 191.625 94.9844C190.948 94.2448 190.422 93.3698 190.047 92.3594C189.682 91.3385 189.5 90.224 189.5 89.0156V88.3438C189.5 87.0417 189.693 85.8646 190.078 84.8125C190.464 83.7604 190.995 82.8594 191.672 82.1094C192.349 81.3594 193.12 80.7865 193.984 80.3906C194.859 79.9844 195.776 79.7812 196.734 79.7812C197.807 79.7812 198.76 79.974 199.594 80.3594C200.427 80.7344 201.125 81.2708 201.688 81.9688C202.26 82.6562 202.693 83.474 202.984 84.4219C203.276 85.3594 203.422 86.3958 203.422 87.5312V88.6719H190.625V87.0781H201.562V86.8594C201.542 85.9115 201.349 85.026 200.984 84.2031C200.63 83.3698 200.099 82.6927 199.391 82.1719C198.682 81.651 197.797 81.3906 196.734 81.3906C195.943 81.3906 195.214 81.5573 194.547 81.8906C193.891 82.224 193.323 82.7031 192.844 83.3281C192.375 83.9427 192.01 84.6771 191.75 85.5312C191.5 86.375 191.375 87.3125 191.375 88.3438V89.0156C191.375 89.9531 191.51 90.8281 191.781 91.6406C192.062 92.4427 192.458 93.151 192.969 93.7656C193.49 94.3802 194.104 94.8594 194.812 95.2031C195.521 95.5469 196.302 95.7188 197.156 95.7188C198.156 95.7188 199.042 95.5365 199.812 95.1719C200.583 94.7969 201.276 94.2083 201.891 93.4062L203.062 94.3125C202.698 94.8542 202.24 95.3542 201.688 95.8125C201.146 96.2708 200.495 96.6354 199.734 96.9062C198.974 97.1771 198.089 97.3125 197.078 97.3125ZM213.5 80.0938V81.625H205.031V80.0938H213.5ZM208.141 75.75H210V92.8906C210 93.6719 210.104 94.2604 210.312 94.6562C210.521 95.0521 210.792 95.3177 211.125 95.4531C211.458 95.5885 211.818 95.6562 212.203 95.6562C212.484 95.6562 212.755 95.6406 213.016 95.6094C213.276 95.5677 213.51 95.526 213.719 95.4844L213.797 97.0625C213.568 97.1354 213.271 97.1927 212.906 97.2344C212.542 97.2865 212.177 97.3125 211.812 97.3125C211.094 97.3125 210.458 97.1823 209.906 96.9219C209.354 96.651 208.922 96.1927 208.609 95.5469C208.297 94.8906 208.141 94 208.141 92.875V75.75ZM233.406 87.7344H226.922V86.0938H233.406C234.76 86.0938 235.859 85.875 236.703 85.4375C237.557 84.9896 238.177 84.3854 238.562 83.625C238.958 82.8646 239.156 82.0104 239.156 81.0625C239.156 80.1354 238.958 79.2812 238.562 78.5C238.177 77.7188 237.557 77.0938 236.703 76.625C235.859 76.1458 234.76 75.9062 233.406 75.9062H227.594V97H225.672V74.25H233.406C235.073 74.25 236.474 74.5365 237.609 75.1094C238.755 75.6823 239.62 76.4792 240.203 77.5C240.786 78.5208 241.078 79.6979 241.078 81.0312C241.078 82.4271 240.786 83.6302 240.203 84.6406C239.62 85.6406 238.76 86.4062 237.625 86.9375C236.49 87.4688 235.083 87.7344 233.406 87.7344ZM247.031 73V97H245.172V73H247.031ZM262.422 93.9688V85.25C262.422 84.4479 262.255 83.7552 261.922 83.1719C261.589 82.5885 261.099 82.1406 260.453 81.8281C259.807 81.5156 259.01 81.3594 258.062 81.3594C257.188 81.3594 256.406 81.5156 255.719 81.8281C255.042 82.1302 254.505 82.5417 254.109 83.0625C253.724 83.5729 253.531 84.1406 253.531 84.7656L251.656 84.75C251.656 84.1146 251.812 83.5 252.125 82.9062C252.438 82.3125 252.88 81.7812 253.453 81.3125C254.026 80.8438 254.708 80.474 255.5 80.2031C256.302 79.9219 257.182 79.7812 258.141 79.7812C259.349 79.7812 260.411 79.9844 261.328 80.3906C262.255 80.7969 262.979 81.4062 263.5 82.2188C264.021 83.0312 264.281 84.0521 264.281 85.2812V93.4531C264.281 94.0365 264.323 94.6406 264.406 95.2656C264.5 95.8906 264.63 96.4062 264.797 96.8125V97H262.812C262.688 96.625 262.589 96.1562 262.516 95.5938C262.453 95.0208 262.422 94.4792 262.422 93.9688ZM262.859 87.1562L262.891 88.5938H259.219C258.26 88.5938 257.401 88.6823 256.641 88.8594C255.891 89.026 255.255 89.276 254.734 89.6094C254.214 89.9323 253.812 90.3229 253.531 90.7812C253.26 91.2396 253.125 91.7604 253.125 92.3438C253.125 92.9479 253.276 93.5 253.578 94C253.891 94.5 254.328 94.901 254.891 95.2031C255.464 95.4948 256.141 95.6406 256.922 95.6406C257.964 95.6406 258.88 95.4479 259.672 95.0625C260.474 94.6771 261.135 94.1719 261.656 93.5469C262.177 92.9219 262.526 92.2396 262.703 91.5L263.516 92.5781C263.38 93.099 263.13 93.6354 262.766 94.1875C262.411 94.7292 261.948 95.2396 261.375 95.7188C260.802 96.1875 260.125 96.5729 259.344 96.875C258.573 97.1667 257.698 97.3125 256.719 97.3125C255.615 97.3125 254.651 97.1042 253.828 96.6875C253.016 96.2708 252.38 95.7031 251.922 94.9844C251.474 94.2552 251.25 93.4323 251.25 92.5156C251.25 91.6823 251.427 90.9375 251.781 90.2812C252.135 89.6146 252.646 89.0521 253.312 88.5938C253.99 88.125 254.802 87.7708 255.75 87.5312C256.708 87.2812 257.781 87.1562 258.969 87.1562H262.859ZM275.531 95.7031C276.323 95.7031 277.062 95.5573 277.75 95.2656C278.448 94.9635 279.021 94.5208 279.469 93.9375C279.927 93.3438 280.188 92.6198 280.25 91.7656H282.031C281.979 92.8385 281.651 93.7969 281.047 94.6406C280.453 95.474 279.672 96.1302 278.703 96.6094C277.745 97.0781 276.688 97.3125 275.531 97.3125C274.354 97.3125 273.312 97.099 272.406 96.6719C271.51 96.2448 270.76 95.651 270.156 94.8906C269.552 94.1198 269.094 93.224 268.781 92.2031C268.479 91.1719 268.328 90.0625 268.328 88.875V88.2188C268.328 87.0312 268.479 85.9271 268.781 84.9062C269.094 83.875 269.552 82.9792 270.156 82.2188C270.76 81.4479 271.51 80.849 272.406 80.4219C273.302 79.9948 274.339 79.7812 275.516 79.7812C276.724 79.7812 277.807 80.026 278.766 80.5156C279.734 81.0052 280.505 81.6979 281.078 82.5938C281.661 83.4896 281.979 84.5521 282.031 85.7812H280.25C280.198 84.875 279.958 84.0938 279.531 83.4375C279.104 82.7812 278.542 82.276 277.844 81.9219C277.146 81.5677 276.37 81.3906 275.516 81.3906C274.557 81.3906 273.74 81.5781 273.062 81.9531C272.385 82.3177 271.833 82.8229 271.406 83.4688C270.99 84.1042 270.682 84.8333 270.484 85.6562C270.286 86.4688 270.188 87.3229 270.188 88.2188V88.875C270.188 89.7812 270.281 90.6458 270.469 91.4688C270.667 92.2812 270.974 93.0052 271.391 93.6406C271.818 94.276 272.37 94.7812 273.047 95.1562C273.734 95.5208 274.562 95.7031 275.531 95.7031ZM292.328 97.3125C291.224 97.3125 290.208 97.1094 289.281 96.7031C288.365 96.2969 287.562 95.724 286.875 94.9844C286.198 94.2448 285.672 93.3698 285.297 92.3594C284.932 91.3385 284.75 90.224 284.75 89.0156V88.3438C284.75 87.0417 284.943 85.8646 285.328 84.8125C285.714 83.7604 286.245 82.8594 286.922 82.1094C287.599 81.3594 288.37 80.7865 289.234 80.3906C290.109 79.9844 291.026 79.7812 291.984 79.7812C293.057 79.7812 294.01 79.974 294.844 80.3594C295.677 80.7344 296.375 81.2708 296.938 81.9688C297.51 82.6562 297.943 83.474 298.234 84.4219C298.526 85.3594 298.672 86.3958 298.672 87.5312V88.6719H285.875V87.0781H296.812V86.8594C296.792 85.9115 296.599 85.026 296.234 84.2031C295.88 83.3698 295.349 82.6927 294.641 82.1719C293.932 81.651 293.047 81.3906 291.984 81.3906C291.193 81.3906 290.464 81.5573 289.797 81.8906C289.141 82.224 288.573 82.7031 288.094 83.3281C287.625 83.9427 287.26 84.6771 287 85.5312C286.75 86.375 286.625 87.3125 286.625 88.3438V89.0156C286.625 89.9531 286.76 90.8281 287.031 91.6406C287.312 92.4427 287.708 93.151 288.219 93.7656C288.74 94.3802 289.354 94.8594 290.062 95.2031C290.771 95.5469 291.552 95.7188 292.406 95.7188C293.406 95.7188 294.292 95.5365 295.062 95.1719C295.833 94.7969 296.526 94.2083 297.141 93.4062L298.312 94.3125C297.948 94.8542 297.49 95.3542 296.938 95.8125C296.396 96.2708 295.745 96.6354 294.984 96.9062C294.224 97.1771 293.339 97.3125 292.328 97.3125Z" fill="#080E52"/>
<defs>
<radialGradient id="paint0_angular_100_3215" cx="0" cy="0" r="1" gradientUnits="userSpaceOnUse" gradientTransform="translate(50.5165 45.2783) rotate(163.546) scale(37.7674 23.7508)">
<stop stop-color="#FFFF7D"/>
<stop offset="0.21177" stop-color="#CECE04"/>
<stop offset="0.36863" stop-color="#FFFF7D"/>
<stop offset="0.54118" stop-color="#D2D20E"/>
<stop offset="0.72941" stop-color="#FFFF7D"/>
<stop offset="1" stop-color="#CCCC00"/>
</radialGradient>
</defs>
</svg>
