<svg width="302" height="106" viewBox="0 0 302 106" fill="none" xmlns="http://www.w3.org/2000/svg">
<path d="M53 106C82.2711 106 106 82.2711 106 53C106 23.7289 82.2711 0 53 0C23.7289 0 0 23.7289 0 53C0 82.2711 23.7289 106 53 106Z" fill="#00053C"/>
<path d="M53.0001 100.321C79.135 100.321 100.322 79.1349 100.322 53C100.322 26.8651 79.135 5.67859 53.0001 5.67859C26.8652 5.67859 5.67871 26.8651 5.67871 53C5.67871 79.1349 26.8652 100.321 53.0001 100.321Z" fill="url(#paint0_angular_101_3221)"/>
<path fill-rule="evenodd" clip-rule="evenodd" d="M20.8213 53L44.4973 29.9191C49.1738 25.3603 56.8259 25.3603 61.5028 29.9191L85.1784 53H20.8213Z" fill="#00053C" stroke="#00053C" stroke-linejoin="round"/>
<path fill-rule="evenodd" clip-rule="evenodd" d="M20.8213 53L43.8009 29.9191C48.3399 25.3603 55.767 25.3603 60.3063 29.9191L83.2856 53H20.8213Z" fill="#FFFF7D"/>
<path fill-rule="evenodd" clip-rule="evenodd" d="M54.7083 79.5C38.3176 79.5 22.9445 66.6115 18.9287 53C44.7679 53 60.2566 53 87.0716 53C80.977 70.3258 66.6728 79.5 54.7083 79.5Z" fill="#00053C"/>
<path fill-rule="evenodd" clip-rule="evenodd" d="M20.2185 29.3896L18.328 27.922L18.9864 27.0948C19.1187 26.9282 19.2364 26.8151 19.3385 26.7551C19.4416 26.6945 19.5567 26.6717 19.6832 26.687C19.8103 26.7021 19.9261 26.7502 20.0297 26.8303C20.164 26.9343 20.2427 27.0651 20.2671 27.2223C20.2907 27.3797 20.2433 27.5563 20.1263 27.7554C20.2101 27.7143 20.2811 27.6896 20.3386 27.6789C20.4632 27.6587 20.6014 27.6556 20.7529 27.67L21.5251 27.7464L21.279 28.056L20.6895 27.9972C20.5182 27.9802 20.3845 27.9725 20.2867 27.9725C20.1895 27.9725 20.114 27.9819 20.061 27.9997C20.008 28.018 19.9612 28.0428 19.9209 28.0736C19.8933 28.097 19.8539 28.1405 19.8032 28.2043L19.5756 28.4904L20.4151 29.142L20.2185 29.3896ZM19.3593 28.3225L19.7813 27.792C19.8713 27.6789 19.9289 27.5817 19.9558 27.4997C19.9828 27.4182 19.9841 27.3405 19.9571 27.2673C19.9315 27.1941 19.8881 27.134 19.8274 27.0868C19.7379 27.0174 19.6388 26.9914 19.5302 27.011C19.4222 27.0299 19.3127 27.1082 19.2034 27.2458L18.7336 27.8363L19.3593 28.3225ZM21.7171 27.5065L19.8996 25.9513L20.5977 25.1563C20.7384 24.996 20.8611 24.8884 20.9667 24.8329C21.072 24.778 21.1884 24.7603 21.3145 24.7812C21.4404 24.8027 21.5536 24.8557 21.6533 24.9408C21.7824 25.0513 21.8546 25.1859 21.8708 25.3444C21.8868 25.5024 21.8318 25.6765 21.7046 25.8698C21.7902 25.8325 21.8626 25.811 21.9208 25.8036C22.046 25.7898 22.1848 25.7929 22.335 25.8142L23.1023 25.9272L22.8422 26.224L22.256 26.1382C22.0859 26.1129 21.9529 26.0991 21.8551 26.0939C21.7579 26.0895 21.6824 26.0952 21.6281 26.111C21.5745 26.1261 21.5264 26.1489 21.485 26.1778C21.4564 26.2 21.4147 26.2417 21.3611 26.3028L21.1194 26.5774L21.927 27.2681L21.718 27.5061L21.7171 27.5065ZM20.9108 26.3996L21.3578 25.89C21.4531 25.7808 21.5158 25.6874 21.5465 25.6065C21.5777 25.5262 21.5816 25.4485 21.5592 25.3746C21.5367 25.3001 21.4964 25.2376 21.4376 25.1871C21.352 25.1139 21.2542 25.0837 21.1447 25.0975C21.0354 25.1113 20.9229 25.1846 20.8065 25.3172L20.3091 25.8849L20.9108 26.3996ZM23.3552 25.6784L21.6148 24.0398L21.8352 23.8118L23.575 25.4498L23.3552 25.6784ZM24.7828 22.955L24.5878 22.7536L25.3249 22.0603L25.9394 22.6967C25.9118 22.892 25.8601 23.0693 25.7833 23.2272C25.7059 23.3858 25.6042 23.5239 25.4777 23.6434C25.307 23.8043 25.1171 23.9144 24.9068 23.9735C24.6984 24.0323 24.4912 24.0272 24.289 23.9578C24.0852 23.8884 23.9022 23.769 23.7393 23.6004C23.578 23.4331 23.4632 23.2436 23.3933 23.032C23.3243 22.8198 23.3224 22.6171 23.3875 22.4213C23.4528 22.2261 23.5715 22.0469 23.7448 21.8834C23.8707 21.7652 24.0037 21.6782 24.1444 21.6226C24.2852 21.5671 24.4188 21.5487 24.546 21.5658C24.6731 21.5835 24.8081 21.6358 24.9488 21.7237L24.7954 21.9751C24.6854 21.9126 24.5863 21.8747 24.4994 21.8602C24.4119 21.847 24.3186 21.8583 24.2169 21.8961C24.1164 21.934 24.0218 21.9941 23.9343 22.0767C23.8295 22.1759 23.7539 22.2768 23.7074 22.3811C23.6612 22.4845 23.6403 22.5844 23.6427 22.681C23.6459 22.777 23.6638 22.8685 23.697 22.9543C23.7565 23.1021 23.8453 23.2385 23.9655 23.3628C24.1138 23.5163 24.264 23.6198 24.4175 23.6734C24.5703 23.7264 24.7225 23.7296 24.8727 23.6841C25.0229 23.6379 25.1553 23.5616 25.2697 23.4535C25.3695 23.3594 25.4488 23.2489 25.507 23.1221C25.5639 22.9939 25.5965 22.886 25.6042 22.7962L25.2928 22.4741L24.7828 22.955ZM26.3454 22.8243L25.4682 20.4329L25.7329 20.2068L28.0472 21.3687L27.7729 21.6031L27.0855 21.2386L26.3202 21.8934L26.6002 22.6063L26.3454 22.8243ZM26.2219 21.6403L26.8414 21.1105L26.2148 20.7746C26.0256 20.6722 25.8728 20.5845 25.7564 20.5112C25.8338 20.6502 25.9015 20.7928 25.959 20.9425L26.2219 21.6403ZM28.269 21.2299L26.8752 19.2951L27.744 18.685C27.9186 18.562 28.0636 18.4862 28.1794 18.457C28.2951 18.4281 28.4121 18.4387 28.5298 18.4879C28.6469 18.5377 28.7447 18.616 28.8208 18.7223C28.9193 18.86 28.9577 19.0071 28.9359 19.1649C28.9141 19.3221 28.8176 19.4786 28.6482 19.6365C28.7408 19.6208 28.8156 19.6163 28.8745 19.6227C28.9997 19.6385 29.1327 19.6738 29.2741 19.73L29.9926 20.0193L29.6684 20.2466L29.1193 20.0257C28.96 19.9618 28.8342 19.9171 28.7408 19.8899C28.6475 19.8626 28.5721 19.8507 28.5158 19.8533C28.4602 19.8558 28.4078 19.8665 28.3604 19.8848C28.3272 19.8992 28.2766 19.9303 28.2102 19.9769L27.9097 20.1879L28.5285 21.0472L28.269 21.2299ZM27.7505 19.9663L28.3067 19.5755C28.4257 19.492 28.5087 19.4151 28.5581 19.3436C28.6072 19.273 28.6303 19.1991 28.6258 19.1214C28.6219 19.0437 28.5975 18.9743 28.5529 18.9117C28.4863 18.8202 28.3994 18.7678 28.2895 18.7557C28.1802 18.7438 28.0535 18.7885 27.9085 18.8903L27.289 19.3253L27.7505 19.9663ZM30.2433 19.8388L28.9454 17.8395L29.8424 17.2718C30.0232 17.1575 30.1717 17.0881 30.2887 17.0647C30.4058 17.0412 30.5222 17.057 30.6373 17.1126C30.7517 17.1675 30.845 17.2503 30.9166 17.3601C31.0086 17.5021 31.0394 17.6513 31.0099 17.8072C30.9806 17.9638 30.8763 18.1154 30.6998 18.265C30.7924 18.2537 30.8679 18.2531 30.9261 18.2625C31.05 18.284 31.1819 18.3257 31.3199 18.3881L32.0238 18.7108L31.6889 18.923L31.1511 18.6767C30.995 18.6054 30.8711 18.5543 30.7797 18.5226C30.6877 18.4911 30.6135 18.4754 30.5567 18.4754C30.5011 18.4754 30.4487 18.4836 30.4 18.4994C30.3661 18.5126 30.3144 18.5405 30.2452 18.5845L29.9351 18.781L30.5118 19.6689L30.2433 19.8388ZM29.7862 18.5518L30.3616 18.188C30.4844 18.1103 30.5707 18.0371 30.6237 17.9689C30.6761 17.9002 30.7024 17.8276 30.7017 17.7499C30.7024 17.6722 30.6812 17.6009 30.6397 17.5364C30.5782 17.4423 30.4933 17.3855 30.3838 17.3684C30.2752 17.3514 30.1465 17.3906 29.9969 17.4847L29.357 17.89L29.7862 18.5518ZM32.3352 18.5386L31.1371 16.4808L31.4138 16.3234L32.6119 18.3819L32.3352 18.5386ZM34.4841 16.3228L34.3556 16.0746L35.2615 15.6167L35.6675 16.3997C35.585 16.5796 35.4847 16.735 35.3651 16.865C35.2455 16.9944 35.1082 17.0994 34.9528 17.1775C34.7425 17.2842 34.5282 17.3361 34.311 17.3341C34.0935 17.3322 33.8967 17.269 33.7228 17.1454C33.5476 17.0217 33.4064 16.8554 33.2988 16.6483C33.1922 16.4424 33.1359 16.2289 33.1308 16.0061C33.1255 15.7838 33.1818 15.588 33.3008 15.4194C33.4191 15.2502 33.5847 15.1118 33.7982 15.0039C33.953 14.9256 34.1058 14.8796 34.256 14.8662C34.4069 14.8523 34.5405 14.8719 34.6575 14.9243C34.7746 14.9766 34.8884 15.0652 34.9989 15.1882L34.7791 15.3864C34.6916 15.2955 34.6077 15.231 34.5278 15.1931C34.4478 15.1559 34.3552 15.1408 34.2472 15.1488C34.1398 15.1565 34.0317 15.1874 33.9237 15.2423C33.7946 15.3075 33.6935 15.3832 33.6187 15.4703C33.5445 15.5567 33.4952 15.6459 33.4711 15.7393C33.446 15.8322 33.4372 15.925 33.4441 16.0165C33.4581 16.1757 33.5042 16.3309 33.5835 16.4837C33.6814 16.6732 33.7958 16.8145 33.9276 16.9087C34.0592 17.0021 34.2036 17.0483 34.361 17.0463C34.5183 17.0445 34.6672 17.0084 34.8084 16.9372C34.9306 16.8752 35.0386 16.7907 35.1306 16.6858C35.2226 16.5791 35.2847 16.485 35.3173 16.4003L35.1121 16.0044L34.4842 16.322L34.4841 16.3228ZM36.0177 16.6317L35.8675 14.0926L36.1865 13.95L38.0687 15.7155L37.7388 15.8626L37.1851 15.3202L36.2624 15.7319L36.3251 16.494L36.0177 16.6317ZM36.2415 15.4616L36.9876 15.1282L36.4844 14.6301C36.3322 14.4785 36.2113 14.3516 36.1212 14.2486C36.1557 14.4027 36.1787 14.5592 36.1908 14.7191L36.2415 15.4616ZM38.3162 15.6301L37.5457 13.381L38.5546 13.0438C38.7578 12.9763 38.919 12.9446 39.0386 12.9497C39.1576 12.9548 39.2669 12.9976 39.3647 13.0785C39.4626 13.16 39.5329 13.2622 39.5757 13.3861C39.6301 13.5457 39.6236 13.6979 39.5565 13.8421C39.4899 13.9866 39.352 14.1098 39.1442 14.2127C39.2369 14.2233 39.3104 14.2409 39.3641 14.2638C39.4798 14.3136 39.5968 14.3861 39.7158 14.4798L40.3199 14.9609L39.9434 15.0865L39.4818 14.7191C39.3481 14.613 39.2401 14.5341 39.1583 14.4811C39.077 14.4287 39.0086 14.3959 38.9537 14.3825C38.8994 14.3687 38.847 14.3642 38.7964 14.3687C38.7599 14.3732 38.703 14.3883 38.625 14.4142L38.2759 14.5305L38.6185 15.5301L38.3162 15.6301ZM38.1877 14.2725L38.8347 14.0564C38.9729 14.0102 39.0744 13.9604 39.1429 13.9061C39.2099 13.8525 39.2542 13.788 39.272 13.7122C39.2913 13.6371 39.2886 13.5632 39.2636 13.4906C39.2272 13.3846 39.1583 13.3094 39.0572 13.2665C38.9555 13.2241 38.8205 13.2311 38.6531 13.2873L37.9325 13.5285L38.1877 14.2725ZM40.609 14.8483L39.9518 12.5638L40.9773 12.2758C41.1832 12.2183 41.3463 12.1949 41.4651 12.2057C41.5834 12.217 41.6901 12.2651 41.784 12.3509C41.8774 12.436 41.9427 12.5423 41.9791 12.6679C42.0259 12.8301 42.011 12.9816 41.9375 13.1226C41.8634 13.2635 41.7194 13.3795 41.5066 13.4723C41.5987 13.4874 41.6709 13.5083 41.7241 13.5342C41.8367 13.5898 41.9504 13.6675 42.0649 13.7673L42.6436 14.2776L42.2612 14.3849L41.8188 13.9953C41.6903 13.8823 41.5866 13.7978 41.508 13.7416C41.4293 13.6847 41.3622 13.6488 41.3079 13.6324C41.2549 13.6166 41.2026 13.6096 41.1513 13.6109C41.1155 13.614 41.0573 13.626 40.9786 13.6481L40.6238 13.748L40.9155 14.7621L40.609 14.8483ZM40.5489 13.4857L41.2053 13.3014C41.3455 13.2622 41.4502 13.2173 41.5205 13.1662C41.5907 13.1164 41.6375 13.0538 41.6592 12.9793C41.6823 12.9048 41.6836 12.8316 41.6619 12.7577C41.6312 12.6498 41.5659 12.5708 41.4668 12.5233C41.3676 12.4761 41.2327 12.4765 41.062 12.5246L40.3305 12.7298L40.5489 13.4857ZM42.9893 14.1886L42.4483 11.8749L42.7597 11.8042L43.3001 14.1179L42.9893 14.1886ZM45.6963 12.6725L45.6465 12.3979L46.6485 12.221L46.805 13.0874C46.6733 13.2358 46.5307 13.3552 46.3785 13.4448C46.2257 13.5345 46.0634 13.5945 45.8914 13.6253C45.6586 13.6664 45.4388 13.6543 45.231 13.5894C45.0239 13.5249 44.8538 13.4076 44.7247 13.239C44.5937 13.0704 44.5073 12.8709 44.4665 12.6417C44.4249 12.4143 44.4346 12.1934 44.4952 11.9792C44.5559 11.7644 44.6678 11.5939 44.8314 11.4671C44.9943 11.3396 45.1946 11.2548 45.4306 11.2134C45.6013 11.1837 45.7612 11.1831 45.9095 11.214C46.0572 11.2442 46.18 11.301 46.2759 11.3851C46.3718 11.4692 46.455 11.5865 46.524 11.7361L46.2548 11.8623C46.1979 11.75 46.1371 11.6648 46.072 11.6048C46.0074 11.5461 45.9224 11.5049 45.8168 11.4818C45.7121 11.4577 45.5994 11.4564 45.4799 11.4779C45.3373 11.5026 45.2179 11.5461 45.1207 11.608C45.0241 11.6687 44.9513 11.7406 44.8995 11.8228C44.8485 11.9043 44.8127 11.9901 44.7928 12.0797C44.7584 12.2357 44.7564 12.3979 44.7877 12.5672C44.8254 12.7762 44.8924 12.9448 44.9909 13.073C45.0888 13.2005 45.2133 13.2865 45.3642 13.3293C45.5151 13.3729 45.6686 13.3816 45.8246 13.354C45.9602 13.3299 46.0879 13.2807 46.2069 13.2062C46.3265 13.1311 46.4141 13.0591 46.4703 12.9878L46.391 12.5501L45.6963 12.6725ZM47.0691 13.3918L47.6808 10.9208L48.0279 10.8772L49.3024 13.1113L48.943 13.1568L48.575 12.4767L47.5709 12.6029L47.4041 13.3492L47.0691 13.3918ZM47.6312 12.3385L48.4437 12.2362L48.1111 11.6142C48.0099 11.4247 47.9326 11.268 47.8762 11.1437C47.8636 11.3017 47.8393 11.4575 47.8033 11.6135L47.6312 12.3385ZM49.563 13.1166L49.3802 10.7486L50.4426 10.669C50.657 10.6526 50.8204 10.662 50.9352 10.6963C51.0494 10.7303 51.1442 10.7987 51.2186 10.9008C51.293 11.0039 51.3353 11.1199 51.3455 11.2499C51.3582 11.4186 51.3139 11.5644 51.2133 11.6876C51.1121 11.8113 50.9478 11.8966 50.7202 11.9452C50.8068 11.9786 50.8744 12.0133 50.9206 12.0486C51.0198 12.1257 51.116 12.2242 51.2075 12.3441L51.6713 12.9578L51.275 12.9874L50.9206 12.5189C50.8175 12.3831 50.7329 12.2802 50.6672 12.2087C50.6011 12.138 50.5432 12.0899 50.4937 12.0629C50.4445 12.0369 50.3945 12.0192 50.3444 12.0112C50.3084 12.0067 50.2491 12.0073 50.1669 12.0131L49.7993 12.0409L49.8805 13.0923L49.563 13.1166ZM49.7794 11.7704L50.4591 11.7187C50.605 11.708 50.7164 11.6846 50.7956 11.6486C50.8749 11.6133 50.9332 11.5616 50.9702 11.4926C51.0071 11.4245 51.0232 11.3523 51.0168 11.2761C51.0086 11.1637 50.9614 11.0741 50.8734 11.0083C50.7859 10.9421 50.6541 10.9162 50.4766 10.9293L49.7186 10.9862L49.7794 11.7704ZM51.984 12.991L51.9227 10.6173L52.9885 10.5907C53.203 10.585 53.3659 10.602 53.4782 10.6424C53.591 10.6822 53.6819 10.7548 53.7514 10.8608C53.8205 10.9675 53.857 11.0856 53.8599 11.2163C53.8643 11.3843 53.8127 11.5281 53.7053 11.6463C53.5978 11.7645 53.4296 11.8415 53.2001 11.8794C53.2851 11.9167 53.3503 11.9552 53.395 11.9924C53.4899 12.0746 53.5808 12.1774 53.6664 12.3019L54.0986 12.9384L53.7009 12.9478L53.3702 12.4623C53.2744 12.3209 53.1952 12.2147 53.133 12.1395C53.0707 12.0657 53.0158 12.0146 52.9676 11.9854C52.9195 11.9571 52.8709 11.9369 52.8213 11.926C52.7853 11.9196 52.7265 11.9177 52.6438 11.9196L52.2757 11.9286L52.3025 12.9831L51.984 12.991ZM52.2689 11.6574L52.9516 11.6397C53.097 11.6365 53.2098 11.6189 53.291 11.5867C53.3717 11.5552 53.4325 11.5064 53.4723 11.4396C53.5132 11.3734 53.5326 11.3019 53.5307 11.2255C53.5283 11.1131 53.4845 11.0209 53.4009 10.9509C53.3163 10.8808 53.186 10.8478 53.0085 10.8523L52.249 10.8712L52.2689 11.6574ZM54.456 13.0042L54.5158 10.6305L54.8358 10.6388L54.774 13.0125L54.456 13.0042ZM57.5033 12.2856L57.5388 12.0091L58.5482 12.1359L58.4364 13.0093C58.2652 13.1117 58.094 13.1837 57.9205 13.2247C57.7478 13.2652 57.5747 13.2745 57.4012 13.2526C57.1673 13.2237 56.9606 13.1479 56.7817 13.0246C56.6042 12.9022 56.4778 12.7392 56.4049 12.5403C56.3305 12.3409 56.3086 12.1255 56.3382 11.8943C56.3674 11.665 56.4438 11.4566 56.5663 11.2704C56.6893 11.0835 56.8468 10.9541 57.0418 10.8808C57.2363 10.8076 57.4522 10.7855 57.6905 10.815C57.8626 10.8366 58.0153 10.8838 58.147 10.9564C58.2793 11.029 58.379 11.1192 58.4446 11.228C58.5117 11.3366 58.5555 11.473 58.5759 11.6365L58.2808 11.6776C58.2603 11.5533 58.2278 11.4535 58.1835 11.3777C58.1398 11.3025 58.0712 11.238 57.9778 11.185C57.8845 11.1314 57.778 11.0967 57.6574 11.0816C57.514 11.0639 57.3866 11.0703 57.2752 11.1005C57.1648 11.1301 57.0734 11.1763 56.999 11.2401C56.9256 11.3027 56.8653 11.374 56.8186 11.4537C56.7399 11.5927 56.6888 11.7472 56.6665 11.9177C56.6397 12.128 56.6538 12.3085 56.7088 12.4601C56.7632 12.6104 56.8566 12.7298 56.9869 12.8156C57.1177 12.9014 57.2621 12.9546 57.4191 12.9742C57.5558 12.9912 57.6929 12.9819 57.8286 12.9459C57.9657 12.9099 58.0712 12.8669 58.1456 12.8158L58.2025 12.3739L57.5028 12.2862L57.5033 12.2856ZM58.6022 13.3375L59.933 11.1597L60.2773 11.221L60.818 13.7286L60.462 13.666L60.3162 12.9082L59.3194 12.7326L58.9348 13.3963L58.6022 13.3375ZM59.457 12.4978L60.2632 12.6404L60.1338 11.9483C60.0949 11.7381 60.0682 11.5656 60.0521 11.4307C59.9918 11.5771 59.9218 11.7193 59.8406 11.8575L59.457 12.4978ZM61.0737 13.772L61.6139 11.4577L62.6525 11.6944C62.8611 11.7423 63.0148 11.7985 63.114 11.8656C63.2132 11.9313 63.2827 12.0248 63.3231 12.1446C63.3634 12.2641 63.3683 12.3883 63.3391 12.5152C63.3007 12.6794 63.2136 12.8051 63.0799 12.8935C62.9467 12.9819 62.7644 13.0149 62.5324 12.9946C62.6049 13.0521 62.6589 13.1051 62.6929 13.1525C62.7639 13.255 62.8256 13.3773 62.8767 13.5189L63.1349 14.242L62.7473 14.1537L62.5499 13.6011C62.4926 13.4414 62.4435 13.3182 62.4016 13.2311C62.3598 13.144 62.3199 13.0808 62.2801 13.0404C62.2412 13.0012 62.1984 12.9697 62.1532 12.947C62.1206 12.9324 62.0637 12.9154 61.9835 12.8971L61.6241 12.8156L61.3844 13.8429L61.0737 13.772ZM61.6864 12.5501L62.352 12.7017C62.494 12.7339 62.6068 12.7441 62.6939 12.7332C62.7799 12.7232 62.8514 12.6902 62.9068 12.636C62.9637 12.5816 63.0002 12.5171 63.0172 12.4427C63.043 12.3335 63.0245 12.2336 62.9613 12.1446C62.8971 12.0556 62.7789 11.9924 62.6063 11.9526L61.8653 11.784L61.6864 12.5501ZM63.4315 14.3283L64.0889 12.0443L65.1139 12.3317C65.32 12.3898 65.4703 12.4541 65.5656 12.525C65.6614 12.5963 65.726 12.6923 65.7606 12.8149C65.7946 12.9363 65.7931 13.06 65.7576 13.1855C65.7105 13.3471 65.6181 13.4691 65.48 13.5506C65.3419 13.6322 65.1586 13.656 64.9276 13.6245C64.9981 13.6858 65.0477 13.7414 65.0798 13.7899C65.146 13.8959 65.2014 14.021 65.2452 14.165L65.4664 14.8994L65.0832 14.7921L64.9145 14.2307C64.8654 14.0685 64.8221 13.9433 64.7852 13.8537C64.7477 13.7647 64.7108 13.6996 64.6738 13.6579C64.6369 13.6162 64.5955 13.5834 64.5518 13.5581C64.5197 13.5417 64.4633 13.5221 64.3845 13.4993L64.03 13.4002L63.7383 14.4149L63.4315 14.3283ZM64.1054 13.1385L64.7628 13.3229C64.9028 13.362 65.0152 13.3778 65.1022 13.3714C65.1892 13.365 65.2617 13.336 65.3205 13.2843C65.3798 13.2332 65.4197 13.1706 65.4406 13.0968C65.4713 12.9889 65.4586 12.8884 65.3988 12.7962C65.34 12.7047 65.2252 12.6353 65.0546 12.5872L64.3228 12.382L64.1054 13.1385ZM65.798 15.0354L66.5687 12.7862L66.8707 12.888L66.1004 15.1372L65.798 15.0354ZM68.8953 15.1806L68.9994 14.9217L69.9461 15.2904L69.6189 16.1087C69.4283 16.1668 69.2435 16.1944 69.0655 16.1921C68.8876 16.1889 68.7179 16.1561 68.5555 16.0929C68.3357 16.0078 68.1543 15.8839 68.0123 15.7204C67.8699 15.5582 67.7882 15.3707 67.7673 15.1597C67.7454 14.9481 67.778 14.7342 67.8645 14.5175C67.9501 14.3027 68.0755 14.1196 68.2409 13.9681C68.4067 13.8178 68.5929 13.7301 68.7991 13.7066C69.0062 13.6826 69.2211 13.7143 69.4438 13.8008C69.6053 13.864 69.7414 13.9466 69.8518 14.0496C69.9617 14.152 70.0351 14.2644 70.0725 14.3849C70.11 14.5062 70.1182 14.6494 70.0973 14.813L69.8012 14.7802C69.8124 14.6552 69.8066 14.5509 69.7827 14.467C69.7584 14.383 69.7079 14.3042 69.6305 14.229C69.5537 14.1552 69.4594 14.0958 69.3461 14.0515C69.2109 13.9991 69.0864 13.9738 68.9707 13.9764C68.8569 13.9783 68.7558 14.0011 68.6683 14.0445C68.5817 14.0868 68.5054 14.1418 68.4407 14.208C68.3289 14.3229 68.2414 14.46 68.1772 14.6203C68.0989 14.8174 68.0668 14.9953 68.0828 15.1559C68.0979 15.3151 68.1587 15.4533 68.2637 15.5682C68.3692 15.6831 68.4952 15.7696 68.6425 15.827C68.7704 15.8775 68.9056 15.9009 69.0471 15.8996C69.1881 15.8977 69.3014 15.882 69.3869 15.8505L69.5518 15.4362L68.8953 15.1806ZM69.6865 16.4991L71.6032 14.801L71.9144 14.9583L71.6903 17.5126L71.3679 17.3497L71.4525 16.5838L70.5515 16.1278L69.987 16.6513L69.6865 16.4991ZM70.7523 15.9429L71.4812 16.3115L71.5624 15.6125C71.5872 15.4002 71.6129 15.2278 71.6377 15.0935C71.5366 15.2165 71.4272 15.3321 71.3085 15.4409L70.7523 15.9429ZM71.929 17.6143L73.1281 15.5558L74.0519 16.0806C74.2372 16.1859 74.3675 16.2845 74.4428 16.3767C74.5177 16.4682 74.5571 16.5774 74.5605 16.7038C74.5639 16.8295 74.5323 16.9501 74.4667 17.0632C74.3811 17.209 74.2615 17.3044 74.1073 17.3506C73.9537 17.3968 73.7689 17.3765 73.5535 17.2899C73.6065 17.3656 73.6415 17.4319 73.6605 17.487C73.6979 17.6058 73.7213 17.7403 73.7286 17.8906L73.7626 18.6565L73.4179 18.46L73.3916 17.8753C73.3838 17.7054 73.3721 17.5734 73.359 17.4781C73.3449 17.3833 73.3245 17.3108 73.2982 17.2616C73.2725 17.2124 73.2413 17.17 73.2044 17.1353C73.1772 17.1119 73.1281 17.0798 73.0571 17.0387L72.7376 16.8576L72.2052 17.7718L71.929 17.6143ZM72.8752 16.621L73.4674 16.9576C73.5934 17.0295 73.6989 17.0719 73.785 17.0864C73.8705 17.1008 73.9479 17.0902 74.0179 17.0543C74.0874 17.0189 74.1419 16.9678 74.1808 16.9014C74.2372 16.8035 74.2484 16.7032 74.2138 16.5995C74.1793 16.4965 74.085 16.4014 73.9308 16.3141L73.2715 15.9396L72.8752 16.621ZM74.0286 18.8127L75.3263 16.8135L76.2234 17.3812C76.4038 17.4962 76.5293 17.6002 76.6003 17.6956C76.6703 17.791 76.7043 17.9021 76.7019 18.0283C76.6985 18.1539 76.6616 18.2727 76.5901 18.3825C76.4982 18.5246 76.3737 18.6144 76.2171 18.6529C76.062 18.6914 75.8787 18.6619 75.6677 18.5658C75.7168 18.6442 75.7489 18.7117 75.7649 18.7678C75.7965 18.8879 75.8131 19.0235 75.8131 19.1738L75.8101 19.9403L75.4751 19.7281L75.4776 19.1427C75.4781 18.9729 75.4732 18.8402 75.4644 18.7442C75.4547 18.6488 75.4382 18.5756 75.4143 18.5252C75.3915 18.4747 75.3623 18.4311 75.3268 18.3945C75.3006 18.3691 75.2534 18.3351 75.1839 18.291L74.8741 18.0952L74.2975 18.983L74.0286 18.8127ZM75.0224 17.8661L75.5972 18.2299C75.7197 18.3076 75.8233 18.3555 75.9084 18.3738C75.9935 18.3921 76.0713 18.3857 76.1427 18.353C76.2142 18.3202 76.2701 18.272 76.3124 18.2071C76.3742 18.113 76.3907 18.0132 76.3606 17.9078C76.3309 17.8038 76.2414 17.7039 76.0917 17.6098L75.4518 17.2045L75.0224 17.8661ZM76.0931 20.1551L77.4862 18.2197L77.7464 18.4021L76.3533 20.3375L76.0931 20.1551ZM79.0232 21.1654L79.0235 21.165L79.5785 21.5947L79.2994 21.9445C79.209 21.9502 79.0961 21.9345 78.9595 21.896C78.8239 21.8574 78.7018 21.7963 78.5929 21.7123C78.4689 21.6156 78.3731 21.497 78.3055 21.3567C78.2384 21.2167 78.2204 21.0677 78.2516 20.9104C78.2836 20.7526 78.3653 20.5909 78.4976 20.4242C78.606 20.289 78.729 20.1824 78.87 20.1034C78.9512 20.0585 79.0397 20.0276 79.136 20.0112C79.2323 19.9948 79.3349 20.0012 79.4453 20.0314C79.5566 20.0625 79.6689 20.1212 79.7822 20.2096C79.878 20.2841 79.9514 20.3682 80.0035 20.461C80.0565 20.5545 80.0813 20.6443 80.0798 20.7313C80.0779 20.8193 80.0545 20.9208 80.0074 21.0377L80.2816 21.152C80.3497 21.001 80.3827 20.8621 80.3818 20.7352C80.3813 20.6087 80.3429 20.4806 80.2675 20.3512C80.1921 20.2218 80.0861 20.1036 79.949 19.9976C79.7608 19.8518 79.5644 19.7609 79.3592 19.7249C79.154 19.6889 78.9503 19.7204 78.7485 19.8177C78.5457 19.9163 78.3731 20.0559 78.2282 20.2377C78.0823 20.421 77.989 20.6166 77.9486 20.8257C77.9073 21.0334 77.9321 21.2367 78.0211 21.4319C78.1105 21.629 78.2472 21.7989 78.4334 21.9428C78.5705 22.0494 78.7242 22.1291 78.8934 22.182C79.0631 22.235 79.2478 22.2604 79.4477 22.2591L79.9981 21.5671L79.1978 20.9463L79.0235 21.165L79.0232 21.1647V21.1654ZM79.4088 22.6406L81.7355 21.5507L81.9888 21.7887L81.0382 24.1749L80.7761 23.928L81.0776 23.2177L80.3453 22.5275L79.6534 22.8711L79.4088 22.6406ZM80.5904 22.4062L81.1836 22.9643L81.4627 22.317C81.5478 22.1205 81.6217 21.9622 81.6834 21.8408C81.5517 21.9304 81.4136 22.0101 81.2687 22.0807L80.5904 22.4062ZM81.2424 24.3348L82.9822 22.6972L83.7174 23.4586C83.8657 23.6121 83.9624 23.7428 84.0076 23.852C84.0538 23.9612 84.0602 24.0768 84.0271 24.1988C83.994 24.3208 83.9294 24.4267 83.8341 24.517C83.7101 24.6332 83.5681 24.6914 83.4066 24.6926C83.2462 24.6933 83.0755 24.622 82.8927 24.4791C82.9219 24.5668 82.937 24.6394 82.9389 24.6975C82.9413 24.8218 82.9248 24.9576 82.8888 25.1034L82.7016 25.8472L82.4274 25.563L82.5698 24.9947C82.6116 24.8299 82.6384 24.7005 82.6525 24.6052C82.6666 24.5098 82.6681 24.4346 82.6574 24.3797C82.6471 24.3254 82.6287 24.2767 82.6034 24.2326C82.5844 24.2024 82.5465 24.1575 82.4896 24.0987L82.2353 23.8354L81.4622 24.5634L81.2424 24.3348ZM82.4342 23.6483L82.9053 24.1364C83.006 24.2405 83.0945 24.3107 83.1733 24.3486C83.2506 24.3872 83.3289 24.3985 83.4062 24.3833C83.483 24.3682 83.5501 24.3348 83.6055 24.2822C83.6882 24.2045 83.7285 24.111 83.7247 24.0025C83.7208 23.8939 83.6575 23.7758 83.5355 23.6496L83.0104 23.1059L82.4342 23.6483ZM82.9146 26.0699L84.7321 24.5147L85.4294 25.3104C85.5704 25.4707 85.6604 25.6058 85.7007 25.7169C85.7411 25.8281 85.7421 25.9437 85.7032 26.0643C85.6643 26.1844 85.5947 26.2872 85.495 26.3726C85.3657 26.4831 85.2203 26.5348 85.0599 26.528C84.8989 26.5216 84.7321 26.4422 84.5566 26.2906C84.5819 26.3796 84.5926 26.4535 84.5921 26.5116C84.5887 26.6359 84.5649 26.7704 84.5226 26.9152L84.2999 27.6489L84.0397 27.3522L84.2089 26.7915C84.2585 26.6287 84.2916 26.5003 84.3111 26.4058C84.3295 26.3117 84.3339 26.2372 84.3261 26.1816C84.3179 26.1267 84.3023 26.0769 84.2794 26.032C84.2615 26.0005 84.226 25.9537 84.172 25.893L83.9313 25.6177L83.1237 26.3079L82.9146 26.0705V26.0699ZM84.1389 25.4391L84.5863 25.9488C84.6811 26.0573 84.7667 26.1318 84.8435 26.1736C84.9193 26.2153 84.9962 26.231 85.074 26.2191C85.1513 26.2078 85.2198 26.1774 85.2787 26.1269C85.3643 26.0537 85.409 25.9628 85.4104 25.8536C85.4114 25.745 85.354 25.6244 85.2378 25.4924L84.7404 24.9247L84.1389 25.4391ZM84.5143 27.9314L86.4048 26.4639L86.6017 26.7121L84.7117 28.179L84.5143 27.9314ZM87.0393 29.7153L87.2688 29.5537L87.8591 30.3733L87.1327 30.8828C86.9411 30.8286 86.7709 30.7528 86.6231 30.6549C86.4763 30.5563 86.3513 30.4371 86.2507 30.2968C86.114 30.1067 86.0309 29.9054 86.0012 29.6919C85.9716 29.4796 86.0066 29.2776 86.1058 29.0894C86.204 28.9006 86.3499 28.7384 86.5424 28.6039C86.733 28.47 86.9387 28.3842 87.1609 28.347C87.3826 28.3097 87.5868 28.3363 87.7736 28.4278C87.9598 28.5194 88.1227 28.6622 88.2613 28.8547C88.3619 28.9943 88.43 29.1369 88.466 29.2821C88.501 29.4272 88.501 29.5611 88.465 29.6825C88.4295 29.8045 88.357 29.9288 88.2496 30.0544L88.0196 29.8681C88.0974 29.7689 88.1499 29.678 88.1767 29.5948C88.2029 29.5113 88.2044 29.4179 88.1805 29.3138C88.1577 29.2103 88.111 29.1092 88.0405 29.0119C87.9564 28.8951 87.8659 28.8067 87.7682 28.7467C87.6705 28.6867 87.5737 28.6513 87.4765 28.6407C87.3802 28.6301 87.2859 28.6343 87.1954 28.6545C87.0379 28.6911 86.8891 28.7587 86.7466 28.8585C86.5721 28.9815 86.4466 29.1135 86.3712 29.2563C86.2964 29.3977 86.2716 29.5462 86.2959 29.6989C86.3202 29.853 86.3785 29.9931 86.47 30.1208C86.5497 30.2319 86.6494 30.3247 86.7685 30.3992C86.8886 30.4737 86.9922 30.5212 87.0812 30.5412L87.4483 30.283L87.0393 29.7153ZM86.9474 31.2617L89.4691 30.747L89.6582 31.0376L88.1621 33.1333L87.9666 32.8321L88.43 32.212L87.8839 31.3703L87.1298 31.5421L86.9474 31.2617ZM88.1519 31.3103L88.5938 31.9917L89.0203 31.4278C89.1501 31.2567 89.26 31.1202 89.3499 31.0174C89.2002 31.073 89.0465 31.1185 88.8885 31.1532L88.1519 31.3103ZM88.2715 33.3687L90.4119 32.2865L90.8976 33.2229C90.9954 33.4118 91.0503 33.5646 91.0625 33.6821C91.0746 33.7996 91.0479 33.912 90.9803 34.0199C90.9137 34.1272 90.8213 34.2113 90.7041 34.27C90.5524 34.3471 90.3988 34.3628 90.2441 34.3185C90.09 34.2743 89.9466 34.1583 89.8133 33.9701C89.8158 34.0623 89.8094 34.1361 89.7939 34.1923C89.7608 34.3124 89.7059 34.438 89.629 34.568L89.2362 35.2286L89.0543 34.8788L89.3548 34.3743C89.4418 34.2279 89.5051 34.111 89.5469 34.024C89.5872 33.9362 89.6101 33.8647 89.6159 33.8092C89.6208 33.7543 89.6179 33.7025 89.6062 33.6531C89.597 33.6185 89.5731 33.5648 89.5352 33.4922L89.3679 33.1689L88.4173 33.6493L88.2715 33.3687ZM89.6125 33.0441L89.9237 33.6446C89.9903 33.7728 90.0555 33.8649 90.1197 33.9237C90.1838 33.9818 90.2543 34.0146 90.3326 34.0216C90.4114 34.0292 90.4848 34.0159 90.5539 33.9805C90.655 33.9295 90.7197 33.8518 90.7474 33.7457C90.7756 33.641 90.7488 33.5103 90.6676 33.3549L90.321 32.6863L89.6125 33.0441ZM89.3825 35.4979L91.574 34.5191L92.0126 35.4783C92.1006 35.6716 92.1482 35.8267 92.1555 35.9442C92.1619 36.0624 92.1288 36.1735 92.0568 36.2776C91.9844 36.3817 91.8881 36.4613 91.768 36.5149C91.6124 36.5843 91.4583 36.5926 91.3061 36.5409C91.1539 36.4898 91.0173 36.3666 90.8923 36.1722C90.8904 36.2644 90.8806 36.3383 90.8631 36.3932C90.8237 36.512 90.763 36.6344 90.6798 36.7606L90.2543 37.4016L90.0905 37.0435L90.4158 36.5535C90.5096 36.4115 90.5787 36.2978 90.6244 36.2124C90.6691 36.1273 90.6949 36.057 90.7036 36.0015C90.7119 35.9472 90.7114 35.8949 90.7022 35.8448C90.6939 35.8102 90.6735 35.7552 90.639 35.6814L90.4873 35.3499L89.5143 35.785L89.3825 35.4979ZM90.7386 35.2384L91.0192 35.8527C91.079 35.984 91.1398 36.0794 91.2006 36.1407C91.2618 36.202 91.3309 36.2386 91.4092 36.2493C91.487 36.2599 91.5604 36.2506 91.6314 36.2184C91.7349 36.1729 91.804 36.0977 91.8371 35.9936C91.8696 35.8902 91.8492 35.7582 91.7763 35.5989L91.4631 34.9144L90.7386 35.2384ZM90.3842 37.7294L92.6214 36.8585L92.7385 37.1521L90.5014 38.0229L90.3842 37.7294ZM92.2941 40.1522L92.5615 40.0626L92.8873 41.0148L92.0432 41.297C91.876 41.1904 91.7354 41.0691 91.6221 40.9333C91.5098 40.7974 91.4252 40.6478 91.3688 40.4843C91.2934 40.2634 91.272 40.0473 91.3061 39.8346C91.3401 39.6224 91.432 39.4393 91.5818 39.2872C91.7315 39.1343 91.9178 39.0206 92.1419 38.9461C92.3632 38.8723 92.5859 38.8482 92.8095 38.8754C93.0327 38.9033 93.2204 38.9872 93.3721 39.1275C93.5233 39.2684 93.6386 39.4508 93.7154 39.675C93.7708 39.8372 93.7946 39.9932 93.7864 40.1422C93.7776 40.2919 93.7382 40.4194 93.6692 40.5256C93.5997 40.6329 93.4942 40.7315 93.3546 40.8205L93.1888 40.5767C93.2924 40.5047 93.3692 40.4322 93.4188 40.3596C93.4679 40.2876 93.4966 40.1986 93.5044 40.0924C93.5121 39.9864 93.4966 39.8764 93.4582 39.7623C93.4115 39.6271 93.3502 39.5172 93.2744 39.4315C93.1985 39.3463 93.1163 39.2857 93.0259 39.2471C92.9374 39.2092 92.845 39.1871 92.7522 39.1809C92.5912 39.1716 92.4288 39.1935 92.264 39.2484C92.0602 39.3165 91.9022 39.408 91.7884 39.523C91.6751 39.6373 91.6076 39.7719 91.5862 39.926C91.5652 40.0801 91.5798 40.2303 91.6304 40.3787C91.6747 40.5075 91.7437 40.625 91.8356 40.7304C91.9285 40.8358 92.014 40.9103 92.0933 40.9552L92.5202 40.8126L92.2941 40.1522ZM91.7656 41.604L94.3305 41.832L94.4258 42.1641L92.3802 43.7427L92.281 43.3985L92.9063 42.9376L92.6296 41.9759L91.8575 41.9248L91.7656 41.604ZM92.9039 41.9948L93.128 42.7735L93.6998 42.3554C93.8744 42.2285 94.0203 42.1293 94.136 42.0561C93.976 42.0668 93.8165 42.0668 93.6546 42.0548L92.9039 41.9948ZM92.4439 43.9935L94.8104 43.576L94.9971 44.6122C95.035 44.8207 95.0428 44.9822 95.0195 45.0984C94.9966 45.214 94.9378 45.3139 94.842 45.3978C94.7457 45.4812 94.6329 45.5348 94.5031 45.5574C94.3349 45.587 94.1836 45.558 94.049 45.471C93.9143 45.3839 93.8117 45.2317 93.7397 45.0125C93.7149 45.1021 93.6867 45.171 93.6556 45.2202C93.588 45.3256 93.4985 45.4293 93.3867 45.5314L92.8149 46.0498L92.7454 45.6634L93.182 45.2669C93.3084 45.1519 93.4032 45.0584 93.4684 44.9871C93.5331 44.9152 93.5758 44.8532 93.5982 44.8015C93.6196 44.751 93.6322 44.6997 93.6352 44.6499C93.6366 44.614 93.6293 44.5559 93.6147 44.4762L93.5501 44.1176L92.4988 44.3032L92.4434 43.993L92.4439 43.9935ZM93.8224 44.0699L93.942 44.7342C93.9673 44.8756 94.0028 44.9831 94.046 45.0576C94.0903 45.1314 94.1486 45.1838 94.2216 45.213C94.294 45.2426 94.3684 45.2509 94.4443 45.2377C94.5561 45.2174 94.6422 45.1619 94.6995 45.0691C94.7579 44.9763 94.7705 44.8436 94.7394 44.6712L94.6057 43.9324L93.8224 44.0699ZM92.8961 46.3478L95.2816 46.0483L95.4158 47.0921C95.4425 47.3025 95.442 47.4643 95.4128 47.5786C95.3837 47.6929 95.3195 47.7904 95.2198 47.8692C95.1197 47.9479 95.0039 47.9955 94.8726 48.0118C94.7039 48.0329 94.5542 47.9969 94.4238 47.9028C94.294 47.8101 94.1997 47.6521 94.1389 47.4297C94.1097 47.5176 94.0776 47.5858 94.0441 47.6329C93.9712 47.7347 93.8768 47.8346 93.7596 47.9311L93.1625 48.42L93.1125 48.0305L93.5686 47.6564C93.7008 47.5479 93.8005 47.4595 93.869 47.3908C93.9371 47.3227 93.9833 47.2631 94.0076 47.2127C94.0319 47.1627 94.047 47.1128 94.0533 47.0624C94.0558 47.0268 94.0519 46.9682 94.0417 46.888L93.9959 46.5264L92.9364 46.6599L92.8961 46.3478ZM94.2687 46.4928L94.3543 47.1618C94.3728 47.3039 94.402 47.4134 94.4423 47.4898C94.4822 47.5656 94.5376 47.6214 94.6091 47.6535C94.6801 47.6867 94.7535 47.6987 94.8308 47.6891C94.9436 47.6756 95.0316 47.6233 95.0944 47.5335C95.1561 47.4437 95.176 47.3121 95.1537 47.1387L95.0579 46.3934L94.2687 46.4928ZM93.2126 48.7691L95.6093 48.5886L95.6336 48.9031L93.236 49.0837L93.2126 48.7691ZM60.268 93.2125L60.3176 93.4867L59.3159 93.6634L59.1589 92.7971C59.2906 92.6492 59.4326 92.5301 59.5858 92.4398C59.7385 92.351 59.9009 92.29 60.0725 92.2597C60.3054 92.2189 60.5252 92.2309 60.7333 92.2957C60.9395 92.3596 61.1101 92.4777 61.2395 92.6463C61.3703 92.8149 61.4568 93.0142 61.4977 93.2437C61.539 93.4709 61.5293 93.6913 61.469 93.906C61.4082 94.1201 61.2964 94.2906 61.1325 94.4179C60.9696 94.5456 60.7693 94.6302 60.5335 94.6715C60.3628 94.7017 60.2028 94.7017 60.0545 94.6715C59.9062 94.6412 59.7842 94.5836 59.6884 94.5005C59.5921 94.416 59.509 94.2988 59.4399 94.1485L59.7093 94.0231C59.7662 94.1355 59.827 94.2205 59.8921 94.2801C59.9568 94.3387 60.0419 94.3804 60.1474 94.4035C60.2519 94.427 60.3647 94.4289 60.4843 94.4073C60.6268 94.3824 60.7464 94.3391 60.8432 94.2772C60.9395 94.2162 61.0129 94.1446 61.0644 94.0625C61.1155 93.9809 61.1515 93.8944 61.1714 93.8051C61.205 93.649 61.2069 93.4877 61.1763 93.3182C61.1388 93.1093 61.0712 92.9407 60.973 92.8125C60.8753 92.6847 60.7508 92.5988 60.6001 92.5555C60.4489 92.5118 60.2957 92.5037 60.1396 92.5311C60.0039 92.5551 59.8761 92.6045 59.7569 92.6785C59.6373 92.7539 59.5498 92.8254 59.4939 92.897L59.5731 93.3354L60.268 93.2125ZM58.8958 92.4974L58.2836 94.9678L57.9365 95.011L56.6625 92.7779L57.0218 92.7323L57.3899 93.4118L58.3935 93.286L58.5603 92.5392L58.8958 92.4974ZM58.3337 93.5506L57.5212 93.6524L57.8538 94.2743C57.9549 94.4635 58.0322 94.6206 58.0887 94.7445C58.1013 94.5874 58.1256 94.4309 58.1616 94.2748L58.3337 93.5506ZM56.4019 92.7755L56.5837 95.1435L55.5218 95.2233C55.3078 95.2396 55.144 95.2305 55.0297 95.1959C54.9155 95.1618 54.8206 95.0936 54.7458 94.9913C54.6719 94.8885 54.6296 94.7723 54.6193 94.6422C54.6062 94.4736 54.6505 94.3281 54.7516 94.2047C54.8527 94.0808 55.0171 93.9958 55.2442 93.9473C55.1571 93.9137 55.0905 93.8791 55.0438 93.8435C54.9446 93.7667 54.8488 93.6678 54.7574 93.5482L54.2931 92.9344L54.6889 92.9047L55.0443 93.3739C55.1474 93.5093 55.2315 93.6121 55.2976 93.6836C55.3638 93.7542 55.4211 93.8027 55.4707 93.8291C55.5199 93.8555 55.5699 93.8728 55.6205 93.881C55.6565 93.8863 55.7158 93.8853 55.7975 93.8791L56.1656 93.8512L56.0839 92.8L56.4019 92.7755ZM56.1855 94.1216L55.5048 94.1735C55.3599 94.184 55.248 94.2076 55.1693 94.2436C55.09 94.2791 55.0317 94.3305 54.9947 94.3997C54.9578 94.4678 54.9417 94.5399 54.9471 94.6162C54.9563 94.7286 55.0035 94.8179 55.0915 94.8837C55.179 94.95 55.3108 94.9759 55.4878 94.963L56.2463 94.9058L56.1855 94.1216ZM53.9814 92.9052L54.0422 95.279L52.9768 95.3054C52.7619 95.3111 52.599 95.2938 52.4867 95.2535C52.3739 95.2136 52.2835 95.1411 52.2134 95.035C52.1444 94.9284 52.1079 94.8103 52.105 94.6796C52.1001 94.5115 52.1522 94.368 52.2601 94.2498C52.3671 94.1317 52.5353 94.0544 52.7653 94.0164C52.6797 93.9794 52.6141 93.941 52.5694 93.9036C52.475 93.8214 52.3841 93.7187 52.299 93.5943L51.8663 92.9575L52.264 92.9484L52.5946 93.4339C52.6904 93.5751 52.7697 93.6812 52.8319 93.7566C52.8937 93.8306 52.9496 93.8815 52.9972 93.9108C53.0449 93.9391 53.094 93.9593 53.1436 93.9698C53.1796 93.9766 53.2389 93.9785 53.3206 93.9766L53.6892 93.9674L53.6624 92.9128L53.9814 92.9052ZM53.696 94.2388L53.0133 94.2565C52.8684 94.2594 52.7556 94.2772 52.6744 94.3094C52.5937 94.3411 52.5324 94.3896 52.4925 94.4563C52.4512 94.5226 52.4322 94.5941 52.4342 94.6705C52.4371 94.7829 52.4804 94.8751 52.5645 94.9452C52.6481 95.0153 52.7794 95.0484 52.9564 95.0436L53.7164 95.0249L53.696 94.2388ZM51.5094 92.8951L51.4486 95.2693L51.1296 95.2612L51.1904 92.8874L51.5094 92.8951ZM48.4616 93.6207L48.4261 93.8968L47.4162 93.7701L47.528 92.8975C47.6987 92.7942 47.8708 92.7222 48.0434 92.6818C48.217 92.6415 48.3901 92.6314 48.5628 92.6535C48.7976 92.6828 49.0038 92.7592 49.1827 92.8821C49.3607 93.0046 49.4871 93.1669 49.56 93.3657C49.6334 93.5655 49.6558 93.7816 49.6266 94.0126C49.5965 94.2417 49.5211 94.4496 49.3986 94.6364C49.2756 94.8227 49.1171 94.9529 48.9226 95.0259C48.7281 95.0994 48.5122 95.1214 48.2744 95.0912C48.1023 95.0696 47.9496 95.023 47.8178 94.9505C47.6856 94.877 47.5859 94.7867 47.5193 94.6787C47.4527 94.5696 47.4094 94.4337 47.389 94.27L47.6836 94.2287C47.7045 94.3526 47.7361 94.4525 47.7804 94.5283C47.8251 94.6037 47.8937 94.6681 47.987 94.7219C48.0794 94.7752 48.1869 94.8093 48.307 94.8247C48.4509 94.8429 48.5783 94.8367 48.6897 94.8064C48.8 94.7766 48.8914 94.7301 48.9654 94.6667C49.0393 94.6042 49.0991 94.5322 49.1458 94.4525C49.2245 94.3137 49.2756 94.1595 49.2975 93.9886C49.3252 93.7782 49.3111 93.5976 49.2561 93.4469C49.2012 93.2961 49.1083 93.177 48.978 93.0915C48.8467 93.005 48.7028 92.9517 48.5457 92.932C48.4091 92.9152 48.272 92.9244 48.1358 92.9604C47.9992 92.9964 47.8937 93.0391 47.8188 93.091L47.7619 93.5328L48.4616 93.6207ZM47.3622 92.5724L46.0316 94.7502L45.6869 94.6897L45.146 92.1819L45.502 92.2443L45.6484 93.0017L46.6445 93.1775L47.0296 92.5142L47.3622 92.5724ZM46.5079 93.4123L45.7009 93.2701L45.8307 93.9617C45.8691 94.172 45.896 94.3449 45.912 94.4798C45.9721 94.3329 46.0423 94.1907 46.1243 94.0529L46.5079 93.4123ZM44.8897 92.1416L44.3493 94.4554L43.3112 94.2191C43.1021 94.1715 42.948 94.1144 42.8495 94.0481C42.7504 93.9818 42.6807 93.8892 42.6404 93.7691C42.6001 93.649 42.595 93.5251 42.6245 93.3984C42.6628 93.2341 42.7497 93.1088 42.8833 93.0204C43.017 92.932 43.1991 92.8989 43.4312 92.9191C43.3583 92.8615 43.3047 92.8086 43.2706 92.7611C43.1997 92.6583 43.1376 92.5363 43.0866 92.3947L42.8283 91.6719L43.2159 91.7598L43.4135 92.3121C43.4711 92.4725 43.5202 92.5954 43.5618 92.6828C43.6034 92.7697 43.6437 92.8331 43.6834 92.8725C43.7224 92.9124 43.7646 92.9441 43.8099 92.9666C43.8431 92.981 43.9 92.9983 43.9799 93.0166L44.3392 93.0982L44.5789 92.071L44.8897 92.1416ZM44.2771 93.3638L43.6116 93.212C43.4695 93.1798 43.3564 93.1688 43.2696 93.1798C43.1833 93.1904 43.1122 93.2231 43.0566 93.2778C42.9997 93.3321 42.9633 93.3964 42.9454 93.4709C42.9204 93.5804 42.9389 93.6803 43.0023 93.7691C43.0663 93.8575 43.1844 93.9213 43.3571 93.9612L44.0981 94.1298L44.2771 93.3638ZM42.5305 91.5883L41.874 93.8723L40.8492 93.5852C40.6427 93.5271 40.4918 93.4627 40.3966 93.3916C40.3013 93.3206 40.236 93.2245 40.2021 93.1025C40.1683 92.9806 40.169 92.8567 40.2047 92.7318C40.2515 92.5695 40.3442 92.4475 40.4828 92.3659C40.6203 92.2847 40.8043 92.2607 41.0345 92.2924C40.9643 92.2309 40.9143 92.1762 40.8824 92.1267C40.8164 92.0206 40.7608 91.8957 40.7175 91.7516L40.4957 91.0174L40.8787 91.1244L41.0474 91.6858C41.0966 91.8482 41.1401 91.9735 41.1772 92.0628C41.2143 92.1521 41.2513 92.217 41.2891 92.2592C41.3255 92.3005 41.3664 92.3337 41.4113 92.3587C41.4431 92.3755 41.4988 92.3951 41.5781 92.4172L41.9322 92.5166L42.2238 91.5019L42.5305 91.5883ZM41.8572 92.7789L41.2 92.5944C41.0599 92.5551 40.9468 92.5387 40.86 92.5459C40.7737 92.5522 40.7007 92.5805 40.6418 92.6324C40.583 92.6842 40.5427 92.7462 40.5216 92.8206C40.4909 92.9277 40.5043 93.0291 40.5638 93.1203C40.6226 93.212 40.7377 93.2812 40.9084 93.3297L41.6393 93.5347L41.8572 92.7789ZM40.1636 90.8843L39.393 93.1337L39.0906 93.0324L39.8612 90.7835L40.1636 90.8843ZM37.0647 90.7427L36.961 91.002L36.0142 90.6332L36.3409 89.8144C36.5321 89.7567 36.7168 89.7294 36.8946 89.7318C37.0724 89.7342 37.2425 89.7668 37.4048 89.8307C37.6246 89.9157 37.8056 90.0396 37.9481 90.2033C38.0901 90.3647 38.1718 90.553 38.193 90.7638C38.2147 90.9756 38.1822 91.1898 38.0958 91.4063C38.0102 91.621 37.8848 91.804 37.7192 91.9548C37.553 92.106 37.3675 92.193 37.1604 92.217C36.9539 92.241 36.739 92.2093 36.5159 92.1224C36.3547 92.0599 36.2187 91.9773 36.1086 91.8741C35.9986 91.7708 35.9252 91.6594 35.8874 91.5389C35.8504 91.4169 35.842 91.2743 35.8631 91.111L36.159 91.1427C36.1476 91.268 36.1538 91.3727 36.1775 91.4568C36.2019 91.5408 36.2523 91.6196 36.3297 91.694C36.4064 91.7684 36.5011 91.828 36.6142 91.8722C36.7491 91.9245 36.8737 91.9495 36.9888 91.9471C37.1032 91.9447 37.2037 91.9226 37.2912 91.8794C37.378 91.8366 37.4548 91.7819 37.5194 91.7156C37.6313 91.6004 37.719 91.463 37.7828 91.3036C37.8615 91.1062 37.8934 90.9275 37.8774 90.7676C37.8621 90.6082 37.8014 90.4704 37.6966 90.3556C37.5912 90.2398 37.4651 90.1534 37.3175 90.0958C37.1897 90.0463 37.0547 90.0223 36.9134 90.0233C36.7713 90.0261 36.6588 90.0415 36.5733 90.0732L36.4084 90.4867L37.0647 90.7427ZM36.2706 89.4311L34.3539 91.1292L34.0425 90.9717L34.2669 88.4174L34.5891 88.5802L34.5046 89.3461L35.4055 89.8024L35.97 89.2789L36.2706 89.4311ZM35.2049 89.9872L34.4759 89.6184L34.3947 90.3176C34.3697 90.5299 34.3443 90.7023 34.3193 90.8368C34.4204 90.7134 34.5296 90.5981 34.6486 90.4891L35.2049 89.9872ZM34.0259 88.3189L32.8278 90.3772L31.904 89.8528C31.718 89.7471 31.5876 89.6487 31.5128 89.5565C31.4374 89.4652 31.3984 89.3557 31.3952 89.2294C31.3919 89.1036 31.4234 88.9836 31.4891 88.8702C31.5743 88.7242 31.6937 88.6291 31.8484 88.5826C32.0019 88.5364 32.1859 88.5576 32.4021 88.6435C32.3491 88.5677 32.314 88.5014 32.2954 88.4462C32.2571 88.3275 32.234 88.1931 32.2271 88.0428L32.1933 87.2773L32.5379 87.4732L32.5636 88.0581C32.572 88.2277 32.5834 88.3597 32.5967 88.4553C32.6108 88.5499 32.6306 88.6224 32.6569 88.6719C32.6825 88.7209 32.7144 88.7631 32.7509 88.7977C32.7778 88.8212 32.8276 88.8544 32.8985 88.8947L33.2181 89.0758L33.75 88.1614L34.0259 88.3189ZM33.0804 89.312L32.4883 88.9759C32.3618 88.9038 32.2562 88.8616 32.1706 88.8467C32.0851 88.8323 32.0071 88.8428 31.9379 88.8789C31.8676 88.9144 31.8133 88.9653 31.7749 89.0321C31.7187 89.13 31.7066 89.2299 31.7417 89.3336C31.7762 89.4369 31.8708 89.532 32.025 89.6194L32.6834 89.9935L33.0804 89.312ZM31.9252 87.1236L30.6272 89.1228L29.7302 88.5552C29.5498 88.4399 29.4245 88.3362 29.3537 88.2406C29.2834 88.1451 29.2494 88.0341 29.2519 87.9078C29.2552 87.7825 29.2922 87.6634 29.3638 87.5539C29.4558 87.4117 29.5799 87.3219 29.7364 87.2835C29.8918 87.2446 30.0753 87.2744 30.2863 87.3704C30.2371 87.2922 30.205 87.2245 30.1891 87.1683C30.1572 87.0482 30.1406 86.9128 30.1406 86.7625L30.1438 85.996L30.4787 86.2083L30.4761 86.7937C30.4755 86.9632 30.4807 87.0962 30.4895 87.1923C30.499 87.2874 30.5158 87.3608 30.5393 87.4113C30.5623 87.4617 30.5917 87.5054 30.6268 87.5419C30.6531 87.5673 30.7003 87.601 30.7699 87.6451L31.0794 87.8411L31.6562 86.9531L31.9252 87.1236ZM30.9315 88.0701L30.3567 87.7061C30.2339 87.6288 30.1304 87.5808 30.0453 87.5625C29.9602 87.5443 29.8823 87.5505 29.8113 87.5832C29.7397 87.6158 29.6834 87.6643 29.6412 87.7292C29.5798 87.8233 29.5632 87.9232 29.5933 88.0284C29.6226 88.1331 29.7123 88.2325 29.8619 88.3266L30.5018 88.7319L30.9315 88.0701ZM29.8587 85.7837L28.4648 87.7191L28.2047 87.5366L29.5985 85.6013L29.8587 85.7837ZM26.9259 84.7767L26.752 84.9957L25.9515 84.3747L26.502 83.6827C26.7016 83.6817 26.8869 83.7067 27.0563 83.76C27.2257 83.8129 27.3792 83.8926 27.5167 83.9987C27.702 84.1433 27.8396 84.3128 27.929 84.5102C28.0178 84.7051 28.0422 84.9087 28.0012 85.1162C27.9602 85.3256 27.8669 85.5211 27.7213 85.7045C27.5768 85.886 27.4042 86.0258 27.2007 86.1242C26.9988 86.2217 26.7953 86.2529 26.5901 86.2164C26.3856 86.1814 26.1886 86.0901 26 85.9441C25.8638 85.838 25.7571 85.7199 25.6817 85.5907C25.6063 85.461 25.5679 85.3333 25.5672 85.2065C25.5666 85.0797 25.6004 84.94 25.6683 84.7897L25.9421 84.9039C25.8953 85.0211 25.8711 85.1225 25.8692 85.2103C25.8685 85.2977 25.8935 85.3875 25.9459 85.4807C25.9976 85.5734 26.0718 85.6579 26.167 85.7324C26.2809 85.8207 26.3933 85.8793 26.5046 85.9105C26.6152 85.9408 26.7175 85.947 26.8141 85.9307C26.91 85.9144 26.9988 85.8831 27.0801 85.8385C27.2201 85.7592 27.3441 85.6526 27.4514 85.5177C27.5844 85.351 27.6663 85.1892 27.6982 85.0312C27.7294 84.8742 27.7109 84.7253 27.6438 84.5851C27.5768 84.4448 27.4809 84.3262 27.3561 84.2297C27.2481 84.1457 27.1253 84.0842 26.9897 84.0458C26.8535 84.0074 26.741 83.9915 26.6496 83.9973L26.3716 84.3469L26.9259 84.7767ZM26.5365 83.3057L24.2098 84.3963L23.9566 84.1577L24.9066 81.7723L25.1687 82.0187L24.8676 82.7294L25.6002 83.4191L26.2914 83.0762L26.5365 83.3057ZM25.3543 83.5401L24.7616 82.982L24.4829 83.6294C24.3978 83.8268 24.3236 83.9843 24.2611 84.1063C24.3934 84.0165 24.5316 83.9363 24.6767 83.8657L25.3543 83.5401ZM24.7002 81.6139L24.6998 81.6142L24.4801 81.3862L23.7072 82.1143L23.4533 81.8511C23.3964 81.7915 23.3587 81.7474 23.3395 81.7171C23.3139 81.6729 23.296 81.6235 23.2852 81.5702C23.2751 81.5149 23.2764 81.44 23.2904 81.3444C23.3046 81.2494 23.3313 81.1197 23.3723 80.955L23.5154 80.3869L23.241 80.1026L23.0537 80.8455C23.018 80.992 23.0013 81.1279 23.004 81.2522C23.0052 81.3103 23.0207 81.3829 23.0494 81.4707C22.8673 81.3276 22.6966 81.2566 22.536 81.257C22.3748 81.2585 22.2324 81.3166 22.1088 81.4328C22.0129 81.5231 21.9489 81.6287 21.9157 81.7507C21.8826 81.8727 21.8888 81.9884 21.9342 82.0975C21.9804 82.2069 22.0769 82.3376 22.2252 82.4913L22.9604 83.2524L24.6998 81.6142L24.7 81.6143L24.7002 81.6139ZM23.5085 82.3016L23.0374 81.8132C22.9363 81.7089 22.8474 81.6388 22.7694 81.6009C22.6914 81.5625 22.614 81.5514 22.5367 81.5663C22.4593 81.5807 22.3929 81.6143 22.3366 81.6676C22.2548 81.745 22.2145 81.8386 22.2183 81.9471C22.2222 82.0557 22.2853 82.1733 22.4076 82.3001L22.9324 82.8437L23.5085 82.3016ZM23.0251 79.8821L21.2075 81.4371L20.51 80.6414C20.3693 80.4815 20.2792 80.3456 20.2389 80.2351C20.1986 80.1237 20.1979 80.008 20.237 79.8879C20.276 79.7678 20.345 79.6646 20.4454 79.5791C20.5738 79.4686 20.7191 79.4173 20.8801 79.4235C21.0407 79.4307 21.2075 79.5095 21.3827 79.6607C21.3577 79.5719 21.347 79.4979 21.3476 79.4398C21.3515 79.3154 21.3745 79.181 21.4172 79.0369L21.6396 78.3026L21.8998 78.5994L21.7304 79.1608C21.6812 79.3231 21.6478 79.4514 21.6286 79.546C21.6107 79.6406 21.6056 79.715 21.6133 79.7707C21.6217 79.825 21.637 79.8749 21.6608 79.9196C21.678 79.9513 21.7138 79.9983 21.7675 80.0593L22.0091 80.334L22.816 79.6439L23.0251 79.8821ZM21.8006 80.5122L21.3536 80.0027C21.2584 79.8941 21.1728 79.8197 21.0961 79.7779C21.02 79.7361 20.9432 79.7212 20.8652 79.7332C20.7879 79.7438 20.7195 79.7741 20.6614 79.8245C20.5751 79.898 20.5303 79.9892 20.529 80.0977C20.5277 80.2068 20.5853 80.3273 20.7016 80.4598L21.1991 81.027L21.8006 80.5122ZM21.4228 78.0227L19.5322 79.4903L19.3352 79.242L21.2258 77.7753L21.4228 78.0227ZM18.8949 76.241L18.6647 76.4023L18.0752 75.5835L18.8015 75.073C18.9934 75.1273 19.1634 75.2037 19.3104 75.3016C19.458 75.3996 19.5828 75.5192 19.6837 75.6594C19.8206 75.8501 19.9036 76.0513 19.9331 76.265C19.9624 76.4773 19.9279 76.6785 19.8288 76.8667C19.7296 77.0555 19.5845 77.2178 19.3921 77.3522C19.2016 77.4862 18.9951 77.5717 18.7733 77.6092C18.5515 77.6471 18.3468 77.6197 18.1608 77.528C17.9741 77.4368 17.8116 77.2946 17.673 77.1016C17.5719 76.9618 17.5036 76.8192 17.4685 76.6741C17.4334 76.5286 17.4334 76.3956 17.4691 76.2736C17.5043 76.1517 17.5765 76.0278 17.6847 75.9015L17.9148 76.0878C17.8362 76.1872 17.7838 76.278 17.7569 76.361C17.7312 76.4446 17.7299 76.5382 17.753 76.6425C17.7767 76.7457 17.8232 76.847 17.8937 76.9445C17.9776 77.0607 18.0683 77.1491 18.1661 77.2101C18.2634 77.2692 18.3599 77.3047 18.4578 77.3153C18.5543 77.3268 18.6483 77.3215 18.739 77.3013C18.8964 77.2648 19.0453 77.1976 19.1871 77.0977C19.3623 76.9748 19.4869 76.8427 19.5624 76.7006C19.6378 76.5584 19.6628 76.41 19.6385 76.2573C19.6141 76.1036 19.5559 75.9629 19.4645 75.8352C19.3845 75.7247 19.2848 75.632 19.1654 75.5566C19.0457 75.4822 18.9423 75.4347 18.8533 75.4155L18.4856 75.6729L18.8949 76.241ZM18.9843 74.6961L16.4622 75.2109L16.2736 74.9203L17.7696 72.8246L17.9646 73.1257L17.501 73.7462L18.0476 74.5871L18.802 74.4161L18.9843 74.6961ZM17.7797 74.6476L17.3379 73.9661L16.9113 74.5304C16.7816 74.7013 16.6717 74.8373 16.5814 74.9405C16.7316 74.8843 16.885 74.8387 17.043 74.8041L17.7797 74.6476ZM17.6538 72.5926L15.5138 73.6751L15.028 72.7386C14.9308 72.5499 14.8759 72.3972 14.8632 72.2795C14.8511 72.1619 14.8778 72.0495 14.945 71.9419C15.0121 71.8343 15.1043 71.7503 15.2218 71.6907C15.3733 71.6139 15.5268 71.5981 15.6815 71.6422C15.8363 71.6864 15.9787 71.8031 16.1124 71.9914C16.1098 71.8992 16.1169 71.8247 16.1316 71.7685C16.1654 71.6485 16.2197 71.5236 16.2964 71.3935L16.6902 70.7332L16.871 71.0828L16.5706 71.587C16.4837 71.7335 16.4203 71.8507 16.3794 71.9376C16.3385 72.0245 16.3154 72.097 16.3105 72.1523C16.3046 72.2075 16.3079 72.2589 16.3195 72.3083C16.329 72.3429 16.3533 72.3967 16.3904 72.4687L16.5585 72.7929L17.5085 72.3122L17.6538 72.5926ZM16.313 72.9168L16.0016 72.317C15.935 72.1888 15.8706 72.0965 15.8059 72.038C15.7425 71.9798 15.6709 71.9462 15.593 71.9395C15.5149 71.9323 15.4414 71.9458 15.3718 71.9803C15.2714 72.0317 15.2056 72.11 15.1781 72.2152C15.1498 72.3208 15.1774 72.4505 15.258 72.6066L15.6046 73.2755L16.313 72.9168ZM16.5393 70.4647L14.3482 71.4429L13.9096 70.4844C13.8215 70.2909 13.7735 70.1357 13.767 70.0186C13.7605 69.9004 13.7932 69.789 13.8654 69.6843C13.9377 69.5811 14.0336 69.5014 14.1545 69.4476C14.3099 69.3784 14.4633 69.3702 14.6162 69.4216C14.7677 69.473 14.9052 69.596 15.0291 69.7905C15.0311 69.6983 15.0419 69.6243 15.0591 69.5691C15.0987 69.4509 15.1595 69.3285 15.2425 69.2022L15.6677 68.5611L15.8319 68.9193L15.5065 69.4091C15.4126 69.5503 15.3436 69.6646 15.2981 69.7501C15.2533 69.8351 15.2272 69.9057 15.2188 69.9609C15.2104 70.0152 15.211 70.068 15.2201 70.117C15.2285 70.1521 15.2487 70.2068 15.2828 70.2808L15.435 70.6126L16.4081 70.1775L16.5393 70.4647ZM15.1839 70.7245L14.9026 70.1098C14.8431 69.9787 14.7823 69.8831 14.7211 69.8221C14.6604 69.7607 14.5914 69.7242 14.5134 69.7131C14.4353 69.7021 14.3618 69.7122 14.2903 69.7434C14.1872 69.79 14.1177 69.8649 14.0851 69.9691C14.0526 70.0724 14.073 70.2039 14.1459 70.3639L14.4592 71.0482L15.1839 70.7245ZM15.5349 68.2345L13.298 69.1056L13.1809 68.8127L15.4173 67.9411L15.5349 68.2345ZM13.6215 65.8131L13.3542 65.9025L13.0281 64.9506L13.8722 64.6683C14.0403 64.7754 14.181 64.8964 14.2935 65.0318C14.406 65.1677 14.4911 65.3175 14.5468 65.4808C14.6228 65.7017 14.6433 65.9188 14.6095 66.1311C14.5763 66.3428 14.4836 66.5258 14.3338 66.678C14.1849 66.8308 13.9976 66.9446 13.7743 67.019C13.5532 67.093 13.3305 67.117 13.1068 67.0896C12.8831 67.0618 12.6958 66.9787 12.5443 66.838C12.3921 66.6968 12.2776 66.5143 12.2009 66.29C12.1453 66.1282 12.121 65.9721 12.1294 65.8228C12.1384 65.6734 12.1772 65.5457 12.2464 65.4395C12.316 65.3324 12.4216 65.2345 12.5609 65.1447L12.7277 65.3886C12.6234 65.4607 12.5469 65.5332 12.4968 65.6057C12.4484 65.6777 12.4195 65.7666 12.4117 65.8737C12.4033 65.9788 12.4188 66.0893 12.4578 66.2031C12.5046 66.338 12.5651 66.448 12.6419 66.534C12.7173 66.619 12.7992 66.68 12.8893 66.7179C12.9788 66.7558 13.0702 66.7779 13.1637 66.7842C13.3243 66.7938 13.4872 66.7717 13.6521 66.717C13.8553 66.6488 14.0139 66.5575 14.1271 66.4423C14.2409 66.328 14.3079 66.1935 14.3291 66.0398C14.3502 65.8852 14.3355 65.7349 14.2849 65.5865C14.2407 65.4578 14.1724 65.3401 14.0797 65.2349C13.987 65.1293 13.9012 65.0549 13.8221 65.0102L13.3956 65.1533L13.6215 65.8131ZM14.1469 64.3619L11.5819 64.1347L11.4867 63.8024L13.532 62.2234L13.6312 62.5672L13.0059 63.0283L13.2827 63.9907L14.0549 64.0416L14.1469 64.3619ZM13.0083 63.971L12.7846 63.193L12.2123 63.6113C12.0378 63.7371 11.8921 63.837 11.7763 63.9105C11.9362 63.8989 12.096 63.8999 12.2578 63.9114L13.0083 63.971ZM13.5103 61.9645L11.1677 62.4986L10.928 61.4733C10.8801 61.2668 10.8646 61.1059 10.8813 60.9882C10.8985 60.872 10.9528 60.7692 11.0442 60.6809C11.1356 60.593 11.2455 60.5334 11.3742 60.5046C11.5403 60.4667 11.6931 60.4878 11.8319 60.5685C11.9707 60.6487 12.0813 60.7956 12.1645 61.0103C12.1843 60.9205 12.2093 60.8499 12.2374 60.7995C12.3001 60.6905 12.3844 60.5829 12.4906 60.4748L13.0352 59.9293L13.124 60.3116L12.7085 60.7284C12.5876 60.8499 12.4975 60.9479 12.4361 61.0228C12.3753 61.0977 12.3356 61.1611 12.3158 61.2139C12.2973 61.2658 12.2876 61.3177 12.2865 61.3676C12.2878 61.4036 12.2973 61.4612 12.3152 61.54L12.3984 61.8949L13.4385 61.6581L13.5103 61.9645ZM12.13 61.9559L11.9766 61.2985C11.944 61.1582 11.9037 61.0535 11.8556 60.981C11.8082 60.909 11.7477 60.8595 11.6735 60.8345C11.5994 60.8086 11.5252 60.8038 11.4491 60.8216C11.3386 60.8466 11.256 60.9061 11.203 61.0021C11.15 61.0972 11.1435 61.2307 11.1838 61.4012L11.3546 62.1331L12.13 61.9559ZM13.0066 59.621L10.6211 59.9202L10.4868 58.8766C10.4599 58.6663 10.4605 58.504 10.4894 58.3897C10.5181 58.2754 10.5827 58.1779 10.6825 58.0991C10.7823 58.0208 10.898 57.9728 11.0291 57.9565C11.1985 57.9354 11.3481 57.9714 11.4785 58.0655C11.6082 58.1592 11.7022 58.3162 11.7636 58.5385C11.7923 58.4511 11.825 58.3825 11.8583 58.3354C11.9311 58.2336 12.0257 58.1337 12.1421 58.0381L12.74 57.5488L12.7897 57.9382L12.3333 58.3119C12.2016 58.4204 12.1018 58.5092 12.0334 58.5779C11.9645 58.6461 11.9184 58.7052 11.894 58.7561C11.8703 58.8055 11.855 58.856 11.8492 58.9064C11.846 58.9415 11.8498 59.0005 11.8606 59.0807L11.9067 59.4419L12.9661 59.3093L13.0066 59.621ZM11.6339 59.4755L11.5476 58.807C11.5291 58.6644 11.4998 58.5549 11.4595 58.4785C11.4199 58.4026 11.3642 58.3474 11.2933 58.3152C11.2224 58.2816 11.1483 58.2696 11.0716 58.2792C10.9591 58.2936 10.8709 58.345 10.8082 58.4353C10.7461 58.5246 10.7263 58.6562 10.7487 58.83L10.8446 59.5749L11.6339 59.4755ZM12.6945 57.1987L10.309 57.4979L10.2693 57.1852L12.6542 56.886L12.6945 57.1987ZM11.5559 54.3293L11.2739 54.3355L11.2483 53.3309L12.1389 53.3088C12.2666 53.4596 12.3652 53.6166 12.4318 53.7794C12.4988 53.9422 12.5348 54.1093 12.5391 54.2817C12.5449 54.5156 12.5001 54.7283 12.4035 54.9214C12.3076 55.1135 12.1652 55.2619 11.9764 55.3632C11.7878 55.4655 11.5748 55.5198 11.3394 55.5251C11.1054 55.5308 10.8862 55.4886 10.6803 55.3973C10.4752 55.3056 10.3211 55.1702 10.2187 54.992C10.1157 54.8133 10.0614 54.6054 10.0551 54.3686C10.0512 54.1972 10.0749 54.0407 10.128 53.9014C10.181 53.7612 10.2564 53.6507 10.3543 53.5691C10.4528 53.4874 10.5831 53.4245 10.7437 53.3798L10.8293 53.6613C10.7077 53.6997 10.6131 53.7463 10.5435 53.8015C10.4752 53.8558 10.4213 53.9331 10.3818 54.032C10.3428 54.1309 10.3237 54.2404 10.3269 54.3605C10.3308 54.5031 10.3562 54.6265 10.403 54.7307C10.4498 54.834 10.5103 54.9161 10.5845 54.9795C10.6586 55.0419 10.7392 55.0895 10.8261 55.1226C10.9769 55.1793 11.1388 55.2057 11.3132 55.2009C11.5281 55.1961 11.7063 55.1548 11.8496 55.0784C11.9923 55.0021 12.097 54.8935 12.1637 54.7533C12.2296 54.6121 12.2609 54.4633 12.2576 54.3077C12.2537 54.1713 12.2231 54.0392 12.1675 53.911C12.11 53.7837 12.0505 53.6867 11.9884 53.6209L11.5377 53.6324L11.5559 54.3293ZM12.4604 53.0975L10.0801 52.1264L10.0892 51.7816L12.5173 50.8745L12.5083 51.2322L11.7724 51.4892L11.7468 52.4885L12.4686 52.7637L12.4604 53.0975ZM11.4912 52.3896L11.5117 51.5809L10.839 51.8119C10.6344 51.8815 10.4657 51.9339 10.3327 51.9694C10.4888 52.0059 10.6416 52.0534 10.7918 52.112L11.4912 52.3896ZM12.5378 50.6195L10.1402 50.4398L10.2215 49.3896C10.2374 49.1787 10.2713 49.0203 10.3226 48.9137C10.3743 48.807 10.4569 48.7249 10.5713 48.6673C10.6851 48.6106 10.808 48.5861 10.9397 48.5967C11.1097 48.6092 11.2491 48.675 11.3571 48.7922C11.4658 48.9098 11.5259 49.0832 11.5405 49.3118C11.5873 49.2316 11.6326 49.1725 11.6748 49.1322C11.7668 49.0476 11.8794 48.9689 12.0136 48.8973L12.6984 48.5367L12.6684 48.9281L12.1453 49.2032C11.9938 49.2839 11.878 49.3507 11.7968 49.404C11.7155 49.4578 11.6587 49.5072 11.6242 49.5514C11.591 49.5956 11.566 49.6417 11.55 49.6897C11.5399 49.7243 11.5315 49.7819 11.525 49.8626L11.4968 50.2257L12.5619 50.3054L12.5378 50.6195ZM11.2226 50.205L11.2744 49.5322C11.2851 49.3891 11.2789 49.2767 11.2552 49.1936C11.2315 49.111 11.1882 49.0462 11.1254 49.0001C11.0621 48.953 10.9925 48.9266 10.9151 48.9209C10.8019 48.9127 10.7047 48.9458 10.6254 49.0207C10.5461 49.0966 10.5002 49.2215 10.4866 49.3963L10.4291 50.1455L11.2226 50.205ZM12.754 48.2346L10.3685 47.9354L10.5028 46.8909C10.5303 46.6806 10.5717 46.5245 10.6287 46.4208C10.6855 46.3165 10.7724 46.2388 10.8888 46.1869C11.0058 46.1358 11.1297 46.1181 11.2608 46.1345C11.4302 46.1554 11.5658 46.2279 11.6675 46.3511C11.7705 46.4731 11.8216 46.6489 11.8249 46.8789C11.8753 46.8011 11.9233 46.744 11.9675 46.7051C12.0641 46.6249 12.1804 46.5523 12.3186 46.488L13.0206 46.1616L12.9708 46.5509L12.4337 46.8006C12.2783 46.8731 12.1593 46.9346 12.0757 46.9836C11.9925 47.0331 11.9326 47.0792 11.8959 47.1219C11.8602 47.1642 11.8326 47.2093 11.8147 47.2564C11.8026 47.29 11.7916 47.3476 11.7815 47.4283L11.7348 47.7889L12.7941 47.922L12.754 48.2346ZM11.4619 47.7548L11.5475 47.0854C11.566 46.9428 11.5653 46.8304 11.5455 46.7464C11.5257 46.6623 11.486 46.596 11.4259 46.5466C11.3651 46.4966 11.2968 46.4669 11.2201 46.4572C11.1069 46.4438 11.0084 46.4712 10.9252 46.5432C10.842 46.6148 10.7903 46.7372 10.7679 46.9106L10.672 47.6554L11.4619 47.7548ZM13.1191 45.8201L10.7522 45.4027L10.8084 45.0921L13.1753 45.5102L13.1191 45.8201ZM12.8128 42.7746L12.8122 42.7744L12.9708 42.0958L13.41 42.1956C13.4542 42.2745 13.4868 42.3825 13.5099 42.5209C13.5323 42.6583 13.5284 42.7935 13.4978 42.9262C13.462 43.079 13.3943 43.2146 13.2939 43.3347C13.1941 43.4545 13.0656 43.5341 12.9077 43.5726C12.7503 43.6112 12.5669 43.6067 12.3578 43.5595C12.1878 43.5203 12.0382 43.4552 11.9059 43.3636C11.8298 43.31 11.7638 43.2438 11.7082 43.1654C11.652 43.0858 11.6143 42.9911 11.5951 42.8793C11.5759 42.7669 11.5824 42.642 11.6149 42.5023C11.6425 42.3855 11.6877 42.2837 11.7505 42.1979C11.8145 42.1109 11.886 42.0502 11.966 42.0142C12.0466 41.9787 12.1509 41.9568 12.2774 41.9491L12.266 41.6555C12.099 41.6592 11.9572 41.6883 11.8414 41.7433C11.7257 41.7975 11.6246 41.8861 11.5377 42.0085C11.4515 42.1311 11.3888 42.2763 11.3498 42.443C11.2961 42.6741 11.2961 42.8889 11.3511 43.0871C11.4047 43.2852 11.5205 43.4539 11.6957 43.5928C11.8716 43.7325 12.0736 43.8279 12.3012 43.8803C12.5307 43.9326 12.7506 43.9326 12.959 43.8803C13.1667 43.8285 13.3424 43.7197 13.4838 43.5575C13.6265 43.394 13.7237 43.1989 13.7767 42.9715C13.8157 42.8035 13.8234 42.6324 13.8004 42.458C13.7762 42.2843 13.7211 42.1083 13.6349 41.9301L12.7667 41.7326L12.5378 42.712L12.8122 42.7744L12.8122 42.7746L12.8128 42.7746ZM14.0276 41.809L12.0456 40.1848L12.158 39.8577L14.7493 39.7029L14.633 40.042L13.8536 40.0716L13.5288 41.0182L14.1355 41.4931L14.0276 41.809ZM13.3142 40.8498L13.5769 40.0833L12.8645 40.1067C12.6483 40.1131 12.4721 40.1137 12.3339 40.1086C12.4721 40.1895 12.6038 40.2791 12.7303 40.3796L13.3142 40.8498ZM14.8192 39.4562L12.5828 38.5853L12.9734 37.6059C13.0521 37.4088 13.132 37.2675 13.2124 37.1804C13.2937 37.094 13.3971 37.0394 13.5232 37.0182C13.6491 36.9967 13.7739 37.0099 13.8965 37.0574C14.0558 37.1193 14.169 37.2228 14.2373 37.3669C14.3056 37.5101 14.3121 37.6934 14.2571 37.9169C14.3254 37.8537 14.3862 37.8096 14.4386 37.7837C14.5524 37.7294 14.6834 37.687 14.833 37.6581L15.5951 37.5129L15.4494 37.8786L14.8671 37.9891C14.6983 38.0212 14.5679 38.0516 14.4746 38.0793C14.3813 38.1072 14.3116 38.1368 14.2655 38.1696C14.22 38.2017 14.183 38.239 14.153 38.2801C14.1332 38.3097 14.1082 38.3629 14.0782 38.438L13.9426 38.7765L14.9362 39.1635L14.8192 39.4562ZM13.6864 38.6769L13.9377 38.0491C13.9907 37.9152 14.0183 37.806 14.0202 37.7196C14.0222 37.6338 14.0004 37.5599 13.9536 37.4967C13.9075 37.4342 13.8489 37.3888 13.7765 37.3602C13.6711 37.3192 13.568 37.3224 13.4696 37.3715C13.3717 37.4201 13.2904 37.5269 13.2254 37.6898L12.9467 38.3882L13.6864 38.6769ZM15.7169 37.2308L13.5258 36.2527L13.965 35.2935C14.0532 35.1009 14.1403 34.9627 14.2252 34.8805C14.3107 34.7978 14.417 34.7486 14.5435 34.7328C14.6707 34.7177 14.7942 34.7367 14.9145 34.7903C15.0699 34.8597 15.1785 34.9685 15.2393 35.1156C15.3007 35.262 15.2981 35.4451 15.2321 35.6656C15.3031 35.6062 15.3664 35.5651 15.4201 35.5419C15.5365 35.4934 15.6694 35.4574 15.8203 35.4353L16.5882 35.3274L16.4247 35.6854L15.8378 35.7682C15.6677 35.7923 15.536 35.8161 15.4414 35.8389C15.3468 35.8623 15.2759 35.8887 15.2278 35.9198C15.1811 35.9494 15.1423 35.9843 15.1102 36.0238C15.089 36.0528 15.061 36.1041 15.027 36.178L14.8754 36.51L15.8479 36.9439L15.7169 37.2308ZM14.6241 36.3972L14.9054 35.7829C14.9655 35.6516 14.9981 35.5436 15.0046 35.4576C15.011 35.3725 14.9931 35.2967 14.9496 35.2322C14.9067 35.1671 14.8498 35.1186 14.7795 35.087C14.6759 35.0409 14.5737 35.0391 14.4726 35.0832C14.3722 35.1275 14.2859 35.2296 14.2125 35.3895L13.8991 36.0735L14.6241 36.3972ZM16.7652 35.02L14.6248 33.9377L14.7705 33.6574L16.9105 34.7396L16.7652 35.02ZM17.356 32.0111L17.1118 31.8721L17.6187 31.0012L18.391 31.4395C18.4209 31.6347 18.4222 31.819 18.3935 31.9921C18.3653 32.1658 18.3073 32.3267 18.2203 32.4764C18.1026 32.679 17.9517 32.8376 17.7677 32.9532C17.5849 33.0682 17.3846 33.1212 17.1704 33.1105C16.9555 33.1012 16.7451 33.0379 16.5406 32.9217C16.338 32.8068 16.1729 32.6578 16.0458 32.4734C15.9193 32.2903 15.8585 32.0958 15.8653 31.8899C15.8712 31.6847 15.9337 31.4795 16.054 31.2743C16.1402 31.126 16.2425 31.0046 16.3615 30.9125C16.4811 30.8196 16.6038 30.7641 16.7305 30.7451C16.857 30.7262 17.0016 30.7394 17.162 30.7837L17.0872 31.0679C16.9633 31.0389 16.8577 31.03 16.7695 31.0406C16.6827 31.0525 16.5956 31.0898 16.51 31.1543C16.4245 31.2188 16.3508 31.3026 16.2902 31.407C16.2186 31.5306 16.1751 31.6488 16.1604 31.7618C16.1458 31.8742 16.154 31.9759 16.1848 32.0675C16.2148 32.159 16.2583 32.2412 16.3152 32.3144C16.4143 32.44 16.5389 32.5462 16.6898 32.6314C16.8758 32.7374 17.0497 32.7942 17.2129 32.8025C17.3745 32.8108 17.5217 32.7716 17.6521 32.6856C17.7832 32.5992 17.8881 32.4885 17.9666 32.3529C18.0355 32.2354 18.0791 32.1067 18.0983 31.9689C18.1168 31.8299 18.1175 31.7175 18.0983 31.6292L17.7077 31.4076L17.356 32.0111ZM18.7811 31.4238L17.356 29.3053L17.5586 29.0237L20.0852 29.6116L19.8755 29.9032L19.1205 29.7099L18.5336 30.5246L18.9767 31.1517L18.7811 31.4238ZM18.3776 30.3017L18.852 29.6425L18.1634 29.4626C17.9543 29.4071 17.7849 29.3573 17.6545 29.3136C17.7631 29.4304 17.8629 29.5542 17.9549 29.6855L18.3776 30.3017ZM94.6202 51.6337L94.3382 51.6409L94.3561 52.3373L93.9064 52.3483C93.8437 52.2825 93.7838 52.186 93.727 52.0583C93.671 51.9305 93.6404 51.7985 93.637 51.6621C93.6331 51.506 93.6642 51.3576 93.7308 51.2169C93.797 51.0757 93.9025 50.9672 94.0445 50.8908C94.1874 50.8145 94.3659 50.7736 94.5808 50.7684C94.7553 50.764 94.9168 50.7904 95.068 50.8466C95.1545 50.8802 95.2357 50.9273 95.3097 50.9902C95.3836 51.0531 95.4443 51.1353 95.491 51.239C95.5377 51.3432 95.563 51.4661 95.5669 51.6088C95.5703 51.7288 95.5513 51.8388 95.5119 51.9372C95.4725 52.0367 95.4186 52.1135 95.3505 52.1678C95.281 52.223 95.1861 52.2696 95.0651 52.308L95.1507 52.5899C95.3106 52.5447 95.4409 52.4818 95.5396 52.4002C95.6374 52.3195 95.7137 52.2086 95.7667 52.0683C95.8192 51.9286 95.8436 51.773 95.8387 51.6011C95.8324 51.3643 95.7784 51.1564 95.6753 50.9777C95.5727 50.7991 95.4186 50.6646 95.2134 50.5729C95.0077 50.4807 94.7884 50.4384 94.555 50.4442C94.3192 50.4504 94.1062 50.5042 93.918 50.6065C93.7299 50.7078 93.5864 50.8558 93.4906 51.0478C93.3939 51.2414 93.3491 51.4541 93.355 51.6875C93.3594 51.8599 93.3953 52.028 93.4624 52.1903C93.529 52.3531 93.6273 52.5097 93.7551 52.6605L94.6459 52.6384L94.6202 51.6337ZM95.81 53.8433L93.4299 52.8723L93.4216 53.2055L94.1432 53.4807L94.1174 54.4806L93.3822 54.7375L93.373 55.0948L95.8017 54.1881L95.81 53.8433ZM94.3785 54.3888L94.3989 53.5797L95.0986 53.8577C95.2489 53.9163 95.4016 53.9638 95.5576 54.0003C95.4244 54.0354 95.2557 54.0882 95.0515 54.1574L94.3785 54.3888ZM95.7468 55.5299L93.3491 55.3498L93.3253 55.6634L94.3897 55.7436L94.362 56.1066C94.3557 56.1878 94.3474 56.245 94.3372 56.28C94.3211 56.328 94.2959 56.3741 94.2623 56.4183C94.2283 56.4625 94.1709 56.5115 94.0902 56.5653C94.009 56.6186 93.8932 56.6853 93.7415 56.7655L93.2188 57.0412L93.1887 57.4326L93.8728 57.0724C94.007 57.0008 94.1203 56.9221 94.2122 56.8376C94.2545 56.7972 94.2992 56.7372 94.3459 56.657C94.3605 56.8866 94.4213 57.0594 94.5292 57.1771C94.6377 57.2948 94.7767 57.3596 94.9469 57.3726C95.0787 57.3826 95.2017 57.3591 95.316 57.3015C95.4298 57.2443 95.5119 57.1622 95.564 57.0561C95.616 56.949 95.6495 56.791 95.6656 56.5792L95.7468 55.5299ZM94.6129 56.4371L94.6644 55.7647L95.458 55.8243L95.4006 56.573C95.387 56.7478 95.3408 56.8731 95.2615 56.948C95.1823 57.0239 95.085 57.057 94.9722 57.0484C94.8944 57.0426 94.8244 57.0162 94.7617 56.9696C94.6984 56.9235 94.6557 56.8587 94.6318 56.7756C94.608 56.693 94.6012 56.5806 94.6129 56.4371ZM95.5144 58.0343L93.1294 57.7346L93.0895 58.0468L94.1485 58.1798L94.1018 58.541C94.0916 58.6216 94.0809 58.6788 94.0688 58.7129C94.0503 58.76 94.0231 58.8046 93.9876 58.8469C93.9506 58.8901 93.8908 58.9362 93.8077 58.9852C93.724 59.0346 93.6049 59.0966 93.4488 59.1682L92.9125 59.4179L92.8629 59.8074L93.5645 59.4813C93.7022 59.4164 93.8193 59.3439 93.9161 59.2637C93.9599 59.2253 94.008 59.1677 94.0586 59.0899C94.062 59.3199 94.113 59.4962 94.2151 59.6181C94.3177 59.7411 94.4534 59.8136 94.6226 59.8342C94.7534 59.8506 94.8774 59.8333 94.9941 59.7819C95.1108 59.73 95.1978 59.6522 95.2547 59.5485C95.3116 59.4448 95.3529 59.2882 95.3802 59.0779L95.5144 58.0343ZM94.3357 58.8834L94.4213 58.2139L95.2114 58.3133L95.1156 59.0582C95.0933 59.2315 95.0408 59.355 94.9576 59.4256C94.8745 59.4976 94.7758 59.5259 94.6634 59.5115C94.5866 59.5019 94.5176 59.4721 94.4573 59.4227C94.3965 59.3727 94.3571 59.3065 94.3377 59.2224C94.3182 59.1384 94.3172 59.026 94.3357 58.8834ZM95.1273 60.5656L92.7603 60.1483L92.7044 60.4585L95.0719 60.8764L95.1273 60.5656ZM93.0642 63.1932L93.0632 63.193H93.0642L93.0642 63.1932ZM93.3384 63.2554L93.0642 63.1932L92.9057 63.8721L92.4661 63.7722C92.4219 63.6929 92.3893 63.5854 92.366 63.4466C92.3441 63.3092 92.348 63.1743 92.3786 63.0413C92.4141 62.889 92.4822 62.7531 92.5823 62.633C92.682 62.514 92.8109 62.4333 92.9679 62.3949C93.126 62.3564 93.3093 62.3608 93.5184 62.4083C93.6885 62.4472 93.8383 62.5125 93.9706 62.6042C94.0459 62.6575 94.1125 62.7243 94.168 62.8031C94.2244 62.8818 94.2618 62.9764 94.2813 63.0883C94.3002 63.2007 94.2939 63.326 94.2613 63.4653C94.2336 63.582 94.1884 63.6838 94.1257 63.7698C94.062 63.8567 93.99 63.9172 93.9103 63.9532C93.8291 63.9888 93.7255 64.0109 93.5991 64.0185L93.6103 64.312C93.7775 64.3086 93.919 64.2793 94.0347 64.2246C94.1505 64.1708 94.2516 64.0814 94.3386 63.959C94.4247 63.8365 94.4874 63.6915 94.5263 63.5249C94.5803 63.2934 94.5803 63.0787 94.5254 62.8804C94.4714 62.6825 94.3557 62.514 94.1806 62.3747C94.0046 62.2349 93.8028 62.1399 93.5752 62.088C93.3457 62.0356 93.126 62.0356 92.9174 62.088C92.7097 62.1389 92.5332 62.2479 92.3927 62.4102C92.2498 62.5735 92.1525 62.769 92.0995 62.9961C92.0601 63.1642 92.0528 63.3352 92.0757 63.5095C92.0995 63.6833 92.1554 63.8591 92.2415 64.0373L93.1094 64.2351L93.3384 63.2554ZM93.8237 65.78L91.8418 64.1559L91.7339 64.4724L92.3402 64.9468L92.0154 65.8943L91.2364 65.9236L91.1197 66.2627L93.7109 66.1076L93.8237 65.78ZM92.2921 65.8823L92.5551 65.1159L93.1391 65.5855C93.2655 65.6859 93.3973 65.7762 93.5354 65.8564C93.3973 65.8521 93.2208 65.8521 93.0044 65.8588L92.2921 65.8823ZM93.283 67.3792L91.0463 66.5081L90.9296 66.801L91.9225 67.1881L91.7878 67.5262C91.7572 67.6016 91.7319 67.6549 91.7125 67.6842C91.6828 67.7255 91.6454 67.7624 91.5997 67.7946C91.5535 67.8278 91.4849 67.8575 91.3915 67.8859C91.2982 67.9128 91.1669 67.943 90.9987 67.9752L90.4166 68.0856L90.2708 68.4516L91.0322 68.307C91.182 68.2773 91.3138 68.235 91.4266 68.1807C91.4791 68.1548 91.5398 68.1106 91.6089 68.0482C91.5539 68.271 91.5598 68.4545 91.6279 68.5981C91.6969 68.7417 91.8102 68.8449 91.9687 68.9069C92.0922 68.9544 92.2167 68.9678 92.3421 68.9467C92.4681 68.9251 92.5721 68.8704 92.6528 68.7839C92.7341 68.697 92.8138 68.5558 92.8926 68.3584L93.283 67.3792ZM91.9284 67.9152L92.1788 67.288L92.9193 67.5761L92.6407 68.2744C92.5755 68.4377 92.4943 68.5443 92.3956 68.5928C92.2974 68.6418 92.1948 68.6451 92.0893 68.6038C92.0169 68.5755 91.958 68.5299 91.9123 68.4674C91.8656 68.404 91.8433 68.3306 91.8457 68.2446C91.8476 68.1582 91.8754 68.0492 91.9284 67.9152ZM90.146 68.7321L90.1458 68.732L90.1463 68.7316L90.146 68.7321ZM90.146 68.7321L90.0145 69.0183L90.9875 69.4529L90.8353 69.7842C90.8017 69.8582 90.774 69.9101 90.7526 69.9389C90.7205 69.9778 90.6812 70.0138 90.6345 70.0431C90.5868 70.0733 90.5163 70.1007 90.4215 70.1242C90.3267 70.1463 90.1954 70.1708 90.0252 70.1948L89.4383 70.277L89.274 70.6347L90.0427 70.5276C90.1935 70.5056 90.3267 70.4695 90.4429 70.421C90.4964 70.398 90.5591 70.3567 90.6306 70.2967C90.5649 70.518 90.5615 70.7001 90.6228 70.8475C90.6846 70.9944 90.7925 71.1025 90.9476 71.1721C91.0677 71.2254 91.1922 71.2451 91.3191 71.2302C91.4455 71.2144 91.5515 71.1654 91.6371 71.0823C91.7217 70.9997 91.8087 70.8619 91.8972 70.6688L92.3363 69.7103L90.146 68.7321ZM90.9568 70.18L91.2379 69.5653L91.9638 69.8894L91.6502 70.5733C91.5768 70.7332 91.4907 70.835 91.3901 70.8792C91.2889 70.9238 91.1868 70.9219 91.0833 70.8753C91.0123 70.8436 90.9554 70.7956 90.9131 70.7308C90.8698 70.6655 90.8509 70.5906 90.8577 70.5046C90.864 70.4186 90.8966 70.3115 90.9568 70.18ZM91.2345 72.0231L89.0941 70.9416L88.9487 71.2221L91.0891 72.304L91.2345 72.0231ZM88.7445 74.0872L88.5004 73.9479L88.1479 74.552L87.7574 74.3297C87.7389 74.2423 87.7389 74.1299 87.7574 73.9906C87.7773 73.8533 87.8206 73.7241 87.8892 73.606C87.9679 73.4705 88.073 73.3601 88.2043 73.2741C88.3346 73.1882 88.4819 73.1488 88.6433 73.1574C88.8057 73.1656 88.9803 73.2223 89.166 73.3284C89.3173 73.4134 89.4412 73.5195 89.5409 73.6453C89.5973 73.7183 89.6416 73.8009 89.6712 73.8922C89.7024 73.9839 89.7096 74.0857 89.696 74.1971C89.681 74.3109 89.6377 74.4291 89.5652 74.553C89.5054 74.6572 89.432 74.7408 89.3464 74.8046C89.2599 74.8699 89.1733 74.9074 89.0863 74.9189C88.9978 74.93 88.8928 74.9204 88.7693 74.8911L88.6934 75.1759C88.8544 75.2205 88.9988 75.233 89.1257 75.2147C89.2526 75.1955 89.3751 75.1394 89.4947 75.0471C89.6129 74.9549 89.716 74.8339 89.802 74.6855C89.9221 74.48 89.9844 74.2749 89.9907 74.0689C89.997 73.8638 89.9372 73.6693 89.8103 73.4859C89.6824 73.302 89.5176 73.1531 89.3148 73.0378C89.1111 72.9211 88.9006 72.8587 88.6856 72.8486C88.4717 72.8385 88.2714 72.8914 88.088 73.0066C87.9047 73.1219 87.7535 73.2808 87.6358 73.4835C87.5488 73.6329 87.4909 73.7937 87.4622 73.9676C87.4341 74.1405 87.4355 74.3249 87.4647 74.5203L88.2373 74.9583L88.7445 74.0872ZM88.4936 76.6507L87.0689 74.5323L86.8734 74.8032L87.3164 75.4309L86.73 76.2458L85.9744 76.0523L85.7643 76.3438L88.2913 76.9321L88.4936 76.6507ZM86.9979 76.3135L87.473 75.6537L87.8955 76.2703C87.9869 76.4019 88.0866 76.5253 88.1955 76.6415C88.0647 76.5978 87.8955 76.5484 87.6864 76.4931L86.9979 76.3135ZM87.5201 78.0308L85.6291 76.5642L85.4322 76.8115L86.2719 77.4632L86.0449 77.7494C85.9938 77.8133 85.9549 77.8565 85.9267 77.8801C85.8864 77.9103 85.8397 77.9358 85.7872 77.9535C85.7337 77.9718 85.6578 77.9814 85.5611 77.9814C85.4628 77.9814 85.3296 77.9737 85.158 77.9564L84.5686 77.8978L84.3231 78.2066L85.0948 78.2839C85.246 78.2974 85.3846 78.2945 85.509 78.2748C85.5664 78.2642 85.6374 78.2393 85.721 78.1984C85.6043 78.3973 85.5567 78.574 85.581 78.7315C85.6048 78.8881 85.6836 79.0192 85.8178 79.1234C85.9218 79.2036 86.0371 79.2516 86.1645 79.267C86.2909 79.2819 86.4061 79.2593 86.5087 79.1988C86.6118 79.1388 86.729 79.0254 86.8617 78.8588L87.5201 78.0308ZM86.0663 78.162L86.4883 77.6313L87.1141 78.1168L86.6439 78.708C86.535 78.8448 86.4261 78.9236 86.3172 78.9428C86.2092 78.9625 86.1095 78.9366 86.0201 78.8669C85.9593 78.8199 85.9165 78.7589 85.8902 78.6859C85.864 78.6134 85.865 78.5356 85.8917 78.4539C85.9184 78.3723 85.9763 78.2748 86.0663 78.162ZM85.9452 79.9998L84.1276 78.4453L84.1271 78.4458L83.9185 78.683L84.7257 79.3741L84.4845 79.6492C84.4301 79.7102 84.3887 79.752 84.3605 79.7736C84.3187 79.8024 84.2706 79.825 84.2166 79.8404C84.1626 79.8557 84.0873 79.8625 83.99 79.8572C83.8928 79.8529 83.7591 79.8385 83.5889 79.8135L83.003 79.727L82.7428 80.0238L83.5101 80.1372C83.6608 80.1588 83.7989 80.1621 83.9239 80.1477C83.9822 80.14 84.0547 80.1184 84.1403 80.0815C84.0138 80.2745 83.9584 80.4493 83.974 80.6073C83.9905 80.7653 84.063 80.8998 84.1923 81.0102C84.2915 81.0957 84.4053 81.1485 84.5312 81.1702C84.6571 81.1908 84.7729 81.174 84.8784 81.1183C84.9839 81.0626 85.1064 80.955 85.2474 80.7956L85.9452 79.9998ZM84.487 80.0618L84.9343 79.5518L85.5367 80.0661L85.0384 80.6342C84.9221 80.7668 84.8093 80.8398 84.7009 80.8537C84.5905 80.8681 84.4938 80.8373 84.4072 80.7639C84.3484 80.7134 84.308 80.6515 84.2866 80.5771C84.2633 80.5026 84.2677 80.4248 84.2983 80.3446C84.3299 80.2644 84.3917 80.1703 84.487 80.0618ZM84.2278 81.9097L82.4875 80.2707L82.2668 80.4993L84.0075 82.1373L84.2278 81.9097ZM81.252 83.1929L81.057 82.9917L80.547 83.4724L80.2358 83.1506C80.2436 83.0608 80.2761 82.9528 80.3335 82.8246C80.3919 82.6978 80.4706 82.5873 80.5703 82.4932C80.6846 82.3851 80.8178 82.3088 80.9671 82.2627C81.1173 82.2166 81.2695 82.2204 81.4227 82.2732C81.5758 82.327 81.7266 82.4298 81.8744 82.584C81.9955 82.7083 82.084 82.8447 82.1428 82.9922C82.1764 83.0781 82.1948 83.1698 82.1973 83.2659C82.2002 83.3624 82.1788 83.4623 82.1326 83.5656C82.0859 83.6698 82.0106 83.7706 81.9065 83.87C81.818 83.9526 81.7237 84.0127 81.623 84.0501C81.5219 84.0876 81.428 84.0996 81.341 84.0866C81.2535 84.0722 81.1553 84.0343 81.0449 83.9714L80.8912 84.223C81.0327 84.3109 81.1674 84.3632 81.2948 84.381C81.4212 84.3978 81.5549 84.3796 81.696 84.3243C81.8365 84.2686 81.9692 84.1817 82.0952 84.0636C82.2683 83.8998 82.3879 83.7207 82.4525 83.5252C82.5177 83.3298 82.5157 83.1271 82.4467 82.9148C82.3777 82.7031 82.2619 82.5138 82.1005 82.3462C81.9376 82.1777 81.7548 82.0581 81.5515 81.989C81.3488 81.9193 81.1416 81.9136 80.933 81.9731C80.7235 82.0322 80.5329 82.1426 80.3622 82.3035C80.2358 82.4221 80.1341 82.5609 80.0573 82.7194C79.98 82.8774 79.928 83.0546 79.9008 83.25L80.5159 83.8864L81.252 83.1929ZM80.2849 85.5883L79.5249 83.1578L79.2589 83.3648L79.5045 84.0895L78.7085 84.7076L78.0389 84.3109L77.7545 84.5323L80.0097 85.802L80.2849 85.5883ZM78.9463 84.8468L79.5905 84.3469L79.8196 85.0557C79.8701 85.208 79.9304 85.3549 80.0014 85.4961C79.8881 85.4178 79.7403 85.3232 79.5555 85.2113L78.9463 84.8468ZM78.9584 86.6434L77.5644 84.7085L77.3052 84.8915L77.9237 85.7506L77.6232 85.9615C77.5561 86.0085 77.5065 86.0393 77.4725 86.0537C77.4248 86.0724 77.3733 86.083 77.3179 86.0854C77.261 86.0878 77.1861 86.0762 77.0927 86.0489C76.9994 86.0215 76.8734 85.9768 76.7144 85.913L76.165 85.692L75.8407 85.9192L76.5593 86.2088C76.7008 86.265 76.8341 86.3 76.959 86.3159C77.0179 86.3221 77.0927 86.3178 77.1856 86.3019C77.0159 86.4599 76.9196 86.6165 76.8978 86.774C76.8759 86.9315 76.9138 87.0785 77.0125 87.2163C77.0888 87.3224 77.1866 87.4007 77.3038 87.4507C77.4214 87.5001 77.5386 87.5107 77.6543 87.4814C77.7701 87.4526 77.915 87.3767 78.0895 87.2538L78.9584 86.6434ZM77.5269 86.3634L78.0832 85.9725L78.5446 86.6131L77.9252 87.0482C77.7798 87.15 77.6534 87.1947 77.544 87.1832C77.4341 87.1707 77.3465 87.1183 77.2804 87.0271C77.2362 86.9642 77.2119 86.895 77.208 86.8172C77.2031 86.7394 77.2264 86.6655 77.2756 86.5949C77.3247 86.5233 77.4078 86.4465 77.5269 86.3634ZM76.8856 88.0966L75.5883 86.0974L75.3199 86.2674L75.8956 87.1548L75.5859 87.3517C75.5163 87.3954 75.4648 87.4233 75.4308 87.4367C75.3821 87.4526 75.3306 87.4608 75.2742 87.4608C75.2178 87.4608 75.1434 87.4449 75.051 87.4137C74.9596 87.382 74.8361 87.3306 74.68 87.2595L74.1422 87.0132L73.8072 87.2254L74.5113 87.5482C74.6499 87.6106 74.7807 87.6519 74.9056 87.6735C74.9635 87.6831 75.0394 87.6821 75.1317 87.6711C74.9547 87.8209 74.8512 87.9722 74.8215 88.1288C74.7923 88.2848 74.823 88.4342 74.9149 88.5759C74.9859 88.6858 75.0792 88.7684 75.1935 88.8237C75.3092 88.8789 75.4249 88.8947 75.5421 88.8712C75.6593 88.8482 75.8081 88.7785 75.9885 88.6642L76.8856 88.0966ZM75.4702 87.7489L76.0449 87.3844L76.4747 88.0462L75.8339 88.4515C75.6851 88.5456 75.5557 88.5845 75.4473 88.5677C75.3384 88.5504 75.2533 88.4937 75.192 88.3996C75.1497 88.3353 75.1293 88.2637 75.1293 88.1864C75.1288 88.1086 75.1551 88.0361 75.2081 87.9669C75.2601 87.8992 75.3471 87.8257 75.4702 87.7489ZM74.6927 89.4528L73.4946 87.3945L73.2179 87.551L74.416 89.6093L74.6927 89.4528ZM71.4723 89.8552L71.3434 89.6069V89.6079L70.7157 89.9253L70.5105 89.5296C70.5431 89.4446 70.6049 89.3505 70.6972 89.2439C70.7891 89.1392 70.8971 89.0547 71.0191 88.9927C71.1606 88.9212 71.3094 88.8851 71.4665 88.8832C71.624 88.8813 71.7684 88.9274 71.9002 89.021C72.031 89.1152 72.1462 89.2564 72.244 89.4461C72.3232 89.5988 72.3694 89.7539 72.3835 89.9133C72.3903 90.0046 72.3816 90.0977 72.3568 90.1904C72.3325 90.2836 72.2833 90.3729 72.209 90.4594C72.1341 90.5468 72.0325 90.6221 71.9041 90.6879C71.7961 90.7422 71.6877 90.7734 71.5807 90.7806C71.4723 90.7888 71.3799 90.7744 71.2997 90.7364C71.2199 90.6985 71.1363 90.6342 71.0488 90.5434L70.8285 90.7413C70.9394 90.8647 71.0532 90.953 71.1703 91.0054C71.287 91.0577 71.4208 91.0774 71.5715 91.0635C71.7217 91.05 71.8749 91.0039 72.0295 90.9257C72.243 90.8181 72.4088 90.6793 72.527 90.5103C72.6461 90.3417 72.702 90.1458 72.6971 89.9234C72.6918 89.7006 72.6354 89.4874 72.5289 89.2813C72.4214 89.0743 72.2799 88.9082 72.1049 88.7843C71.9308 88.6609 71.7344 88.5975 71.5165 88.5956C71.2987 88.5936 71.0853 88.6455 70.8747 88.7521C70.7196 88.8304 70.582 88.9351 70.4624 89.0652C70.3428 89.1954 70.2426 89.35 70.1599 89.5301L70.5664 90.3129L71.4723 89.8552ZM69.9582 91.8347L69.8089 89.2953L69.5006 89.4326L69.5633 90.1947L68.6414 90.6063L68.0871 90.0641L67.7574 90.2111L69.6397 91.9769L69.9582 91.8347ZM68.8383 90.7984L69.5847 90.4651L69.6358 91.2076C69.6474 91.3675 69.6708 91.524 69.7053 91.6782C69.6144 91.5759 69.4933 91.4482 69.3416 91.2964L68.8383 90.7984ZM68.2782 92.5388L67.5075 90.2893L67.2051 90.3902L67.5479 91.3891L67.1988 91.5063C67.121 91.5322 67.0641 91.5471 67.0276 91.5519C66.977 91.5557 66.9245 91.5509 66.8701 91.538C66.8151 91.5236 66.747 91.4919 66.6653 91.4386C66.5837 91.3862 66.4757 91.3074 66.342 91.2013L65.8806 90.8335L65.5037 90.9593L66.1081 91.4405C66.2268 91.5341 66.3439 91.6061 66.4597 91.6566C66.5136 91.6791 66.5871 91.6969 66.6794 91.7075C66.4718 91.8107 66.3337 91.9332 66.2671 92.0777C66.2 92.2223 66.1937 92.3745 66.2482 92.5344C66.2909 92.6574 66.3615 92.7602 66.4592 92.8413C66.5569 92.922 66.6663 92.9657 66.785 92.9705C66.9046 92.9758 67.066 92.9441 67.2693 92.8764L68.2782 92.5388ZM66.9892 91.8636L67.6359 91.6475L67.8912 92.3918L67.1706 92.6319C67.0033 92.6891 66.8686 92.6958 66.7665 92.6531C66.6653 92.6108 66.5968 92.5354 66.5603 92.4298C66.535 92.3563 66.5326 92.2823 66.5516 92.2074C66.5696 92.132 66.6138 92.0672 66.6809 92.0134C66.7495 91.9596 66.8516 91.9101 66.9892 91.8636ZM65.8708 93.3532L65.2134 91.0688L64.9071 91.1552L65.1988 92.169L64.8439 92.2684C64.7651 92.291 64.7073 92.303 64.6713 92.3063C64.6197 92.3078 64.5677 92.3006 64.5147 92.2842C64.4603 92.2679 64.3932 92.2319 64.3144 92.1757C64.2361 92.119 64.132 92.035 64.0037 91.9217L63.5612 91.5322L63.179 91.6398L63.7576 92.1498C63.8719 92.2497 63.9857 92.3265 64.0985 92.3827C64.1515 92.4082 64.2239 92.4298 64.3158 92.4446C64.1034 92.5378 63.9589 92.6531 63.885 92.7938C63.8116 92.9354 63.7965 93.0872 63.8432 93.2495C63.8797 93.3749 63.9453 93.4805 64.0387 93.5665C64.1325 93.652 64.239 93.7 64.3577 93.7115C64.4768 93.7221 64.6392 93.699 64.8454 93.6409L65.8708 93.3532ZM64.6173 92.6151L65.2737 92.4317L65.4921 93.1876L64.7607 93.3926C64.5896 93.4407 64.4549 93.4411 64.3557 93.3931C64.2565 93.3456 64.1914 93.2673 64.1607 93.1592C64.1389 93.0858 64.1403 93.0118 64.1632 92.9378C64.185 92.8634 64.2317 92.801 64.3022 92.7506C64.3722 92.6996 64.4773 92.6545 64.6173 92.6151ZM63.373 94.0385L62.8328 91.7248L62.5211 91.7954L63.0613 94.1091L63.373 94.0385Z" fill="#00053C"/>
<path fill-rule="evenodd" clip-rule="evenodd" d="M47.3321 51.1071H37.8574C38.0839 48.9444 38.8019 46.9574 40.0107 45.1492C41.4989 42.9225 43.5615 41.1792 46.1986 39.9183C46.396 39.8236 46.5955 39.7328 46.796 39.6458L46.7955 39.5448L46.7693 34.0714L52.9606 34.094V38.1171C53.525 38.0677 54.0983 38.0381 54.6836 38.0301L54.7344 34.094L60.8231 34.0947L60.8492 38.809C61.2764 38.925 61.7047 39.0528 62.1324 39.1937C64.4894 39.9719 66.4924 41.0316 68.1431 42.3728L62.9282 48.086C61.8675 47.1476 60.622 46.3962 59.1928 45.8327C57.7646 45.2694 56.372 44.988 55.0165 44.988C53.5428 44.988 52.2099 45.3226 51.0162 45.9943C49.8231 46.6649 48.887 47.5832 48.2095 48.7499C47.7823 49.4848 47.4897 50.2707 47.3321 51.1071Z" fill="#00053C"/>
<path fill-rule="evenodd" clip-rule="evenodd" d="M59.7489 68.3275L59.7002 73.7975H53.8983V69.2644C53.8213 69.2644 53.7448 69.2654 53.6687 69.2654C53.1923 69.2654 52.7249 69.2481 52.2633 69.2135V73.8214L46.4132 73.7975V67.8321C46.4132 67.7761 46.4137 67.7206 46.4152 67.6661C46.1311 67.5276 45.8504 67.3794 45.5738 67.2236C43.1694 65.8616 41.2822 63.9919 39.9124 61.6141C38.542 59.2353 37.8574 56.556 37.8574 53.5759C37.8574 53.3824 37.8601 53.1909 37.8667 53H46.8067C46.7962 53.1894 46.7908 53.3819 46.7908 53.5759C46.7908 55.1227 47.1187 56.5275 47.7759 57.7882C48.4331 59.0499 49.3353 60.0377 50.4809 60.7541C51.6275 61.4705 52.8997 61.829 54.2977 61.829C55.5565 61.829 57.0374 61.4135 58.7434 60.582V53.0606H66.2503V65.3112C64.6571 66.4568 62.6854 67.4023 60.3371 68.1478C60.1398 68.2099 59.9436 68.27 59.7489 68.3275Z" fill="#FFFF7D"/>
<path d="M154.438 35.2188V53.25C153.729 54.1042 152.635 55.0312 151.156 56.0312C149.677 57.0104 147.771 57.8542 145.438 58.5625C143.104 59.2708 140.281 59.625 136.969 59.625C134.031 59.625 131.354 59.1458 128.938 58.1875C126.521 57.2083 124.438 55.7812 122.688 53.9062C120.958 52.0312 119.625 49.7396 118.688 47.0312C117.75 44.3021 117.281 41.1875 117.281 37.6875V34.8438C117.281 31.3438 117.729 28.2292 118.625 25.5C119.542 22.7708 120.844 20.4688 122.531 18.5938C124.219 16.7188 126.229 15.2917 128.562 14.3125C130.896 13.3333 133.49 12.8438 136.344 12.8438C140.302 12.8438 143.552 13.4896 146.094 14.7812C148.635 16.0521 150.573 17.8229 151.906 20.0938C153.26 22.3438 154.094 24.9271 154.406 27.8438H145.312C145.083 26.3021 144.646 24.9583 144 23.8125C143.354 22.6667 142.427 21.7708 141.219 21.125C140.031 20.4792 138.49 20.1562 136.594 20.1562C135.031 20.1562 133.635 20.4792 132.406 21.125C131.198 21.75 130.177 22.6771 129.344 23.9062C128.51 25.1354 127.875 26.6562 127.438 28.4688C127 30.2812 126.781 32.3854 126.781 34.7812V37.6875C126.781 40.0625 127.01 42.1667 127.469 44C127.927 45.8125 128.604 47.3438 129.5 48.5938C130.417 49.8229 131.542 50.75 132.875 51.375C134.208 52 135.76 52.3125 137.531 52.3125C139.01 52.3125 140.24 52.1875 141.219 51.9375C142.219 51.6875 143.021 51.3854 143.625 51.0312C144.25 50.6562 144.729 50.3021 145.062 49.9688V41.9062H136.5V35.2188H154.438ZM180.5 21.2812L168.125 59H158.156L175.062 13.5H181.406L180.5 21.2812ZM190.781 59L178.375 21.2812L177.375 13.5H183.781L200.781 59H190.781ZM190.219 42.0625V49.4062H166.188V42.0625H190.219ZM205 13.5H221.969C225.448 13.5 228.438 14.0208 230.938 15.0625C233.458 16.1042 235.396 17.6458 236.75 19.6875C238.104 21.7292 238.781 24.2396 238.781 27.2188C238.781 29.6562 238.365 31.75 237.531 33.5C236.719 35.2292 235.562 36.6771 234.062 37.8438C232.583 38.9896 230.844 39.9062 228.844 40.5938L225.875 42.1562H211.125L211.062 34.8438H222.031C223.677 34.8438 225.042 34.5521 226.125 33.9688C227.208 33.3854 228.021 32.5729 228.562 31.5312C229.125 30.4896 229.406 29.2812 229.406 27.9062C229.406 26.4479 229.135 25.1875 228.594 24.125C228.052 23.0625 227.229 22.25 226.125 21.6875C225.021 21.125 223.635 20.8438 221.969 20.8438H214.375V59H205V13.5ZM230.438 59L220.062 38.7188L229.969 38.6562L240.469 58.5625V59H230.438ZM246 13.5H262.969C266.448 13.5 269.438 14.0208 271.938 15.0625C274.458 16.1042 276.396 17.6458 277.75 19.6875C279.104 21.7292 279.781 24.2396 279.781 27.2188C279.781 29.6562 279.365 31.75 278.531 33.5C277.719 35.2292 276.562 36.6771 275.062 37.8438C273.583 38.9896 271.844 39.9062 269.844 40.5938L266.875 42.1562H252.125L252.062 34.8438H263.031C264.677 34.8438 266.042 34.5521 267.125 33.9688C268.208 33.3854 269.021 32.5729 269.562 31.5312C270.125 30.4896 270.406 29.2812 270.406 27.9062C270.406 26.4479 270.135 25.1875 269.594 24.125C269.052 23.0625 268.229 22.25 267.125 21.6875C266.021 21.125 264.635 20.8438 262.969 20.8438H255.375V59H246V13.5ZM271.438 59L261.062 38.7188L270.969 38.6562L281.469 58.5625V59H271.438ZM296.969 13.5V59H287.625V13.5H296.969ZM120.078 74.25H122.016L130.422 94.2812L138.844 74.25H140.766L131.156 97H129.688L120.078 74.25ZM119.484 74.25H121.188L121.391 87.0625V97H119.484V74.25ZM139.688 74.25H141.391V97H139.469V87.0625L139.688 74.25ZM157.016 93.9688V85.25C157.016 84.4479 156.849 83.7552 156.516 83.1719C156.182 82.5885 155.693 82.1406 155.047 81.8281C154.401 81.5156 153.604 81.3594 152.656 81.3594C151.781 81.3594 151 81.5156 150.312 81.8281C149.635 82.1302 149.099 82.5417 148.703 83.0625C148.318 83.5729 148.125 84.1406 148.125 84.7656L146.25 84.75C146.25 84.1146 146.406 83.5 146.719 82.9062C147.031 82.3125 147.474 81.7812 148.047 81.3125C148.62 80.8438 149.302 80.474 150.094 80.2031C150.896 79.9219 151.776 79.7812 152.734 79.7812C153.943 79.7812 155.005 79.9844 155.922 80.3906C156.849 80.7969 157.573 81.4062 158.094 82.2188C158.615 83.0312 158.875 84.0521 158.875 85.2812V93.4531C158.875 94.0365 158.917 94.6406 159 95.2656C159.094 95.8906 159.224 96.4062 159.391 96.8125V97H157.406C157.281 96.625 157.182 96.1562 157.109 95.5938C157.047 95.0208 157.016 94.4792 157.016 93.9688ZM157.453 87.1562L157.484 88.5938H153.812C152.854 88.5938 151.995 88.6823 151.234 88.8594C150.484 89.026 149.849 89.276 149.328 89.6094C148.807 89.9323 148.406 90.3229 148.125 90.7812C147.854 91.2396 147.719 91.7604 147.719 92.3438C147.719 92.9479 147.87 93.5 148.172 94C148.484 94.5 148.922 94.901 149.484 95.2031C150.057 95.4948 150.734 95.6406 151.516 95.6406C152.557 95.6406 153.474 95.4479 154.266 95.0625C155.068 94.6771 155.729 94.1719 156.25 93.5469C156.771 92.9219 157.12 92.2396 157.297 91.5L158.109 92.5781C157.974 93.099 157.724 93.6354 157.359 94.1875C157.005 94.7292 156.542 95.2396 155.969 95.7188C155.396 96.1875 154.719 96.5729 153.938 96.875C153.167 97.1667 152.292 97.3125 151.312 97.3125C150.208 97.3125 149.245 97.1042 148.422 96.6875C147.609 96.2708 146.974 95.7031 146.516 94.9844C146.068 94.2552 145.844 93.4323 145.844 92.5156C145.844 91.6823 146.021 90.9375 146.375 90.2812C146.729 89.6146 147.24 89.0521 147.906 88.5938C148.583 88.125 149.396 87.7708 150.344 87.5312C151.302 87.2812 152.375 87.1562 153.562 87.1562H157.453ZM165.75 82.8906V97H163.891V80.0938H165.703L165.75 82.8906ZM171.734 79.9688L171.688 81.6875C171.479 81.6562 171.276 81.6302 171.078 81.6094C170.88 81.5885 170.667 81.5781 170.438 81.5781C169.625 81.5781 168.911 81.7292 168.297 82.0312C167.693 82.3229 167.182 82.7344 166.766 83.2656C166.349 83.7865 166.031 84.401 165.812 85.1094C165.594 85.8073 165.469 86.5573 165.438 87.3594L164.75 87.625C164.75 86.5208 164.865 85.4948 165.094 84.5469C165.323 83.599 165.672 82.7708 166.141 82.0625C166.62 81.3438 167.219 80.7865 167.938 80.3906C168.667 79.9844 169.521 79.7812 170.5 79.7812C170.74 79.7812 170.974 79.8021 171.203 79.8438C171.443 79.875 171.62 79.9167 171.734 79.9688ZM176.531 73V97H174.672V73H176.531ZM187.141 80.0938L179.234 87.9375L175.875 91.1875L175.594 89.3594L178.297 86.4375L184.781 80.0938H187.141ZM185.516 97L178.453 88.2188L179.484 86.6094L187.766 97H185.516ZM196.578 97.3125C195.474 97.3125 194.458 97.1094 193.531 96.7031C192.615 96.2969 191.812 95.724 191.125 94.9844C190.448 94.2448 189.922 93.3698 189.547 92.3594C189.182 91.3385 189 90.224 189 89.0156V88.3438C189 87.0417 189.193 85.8646 189.578 84.8125C189.964 83.7604 190.495 82.8594 191.172 82.1094C191.849 81.3594 192.62 80.7865 193.484 80.3906C194.359 79.9844 195.276 79.7812 196.234 79.7812C197.307 79.7812 198.26 79.974 199.094 80.3594C199.927 80.7344 200.625 81.2708 201.188 81.9688C201.76 82.6562 202.193 83.474 202.484 84.4219C202.776 85.3594 202.922 86.3958 202.922 87.5312V88.6719H190.125V87.0781H201.062V86.8594C201.042 85.9115 200.849 85.026 200.484 84.2031C200.13 83.3698 199.599 82.6927 198.891 82.1719C198.182 81.651 197.297 81.3906 196.234 81.3906C195.443 81.3906 194.714 81.5573 194.047 81.8906C193.391 82.224 192.823 82.7031 192.344 83.3281C191.875 83.9427 191.51 84.6771 191.25 85.5312C191 86.375 190.875 87.3125 190.875 88.3438V89.0156C190.875 89.9531 191.01 90.8281 191.281 91.6406C191.562 92.4427 191.958 93.151 192.469 93.7656C192.99 94.3802 193.604 94.8594 194.312 95.2031C195.021 95.5469 195.802 95.7188 196.656 95.7188C197.656 95.7188 198.542 95.5365 199.312 95.1719C200.083 94.7969 200.776 94.2083 201.391 93.4062L202.562 94.3125C202.198 94.8542 201.74 95.3542 201.188 95.8125C200.646 96.2708 199.995 96.6354 199.234 96.9062C198.474 97.1771 197.589 97.3125 196.578 97.3125ZM213 80.0938V81.625H204.531V80.0938H213ZM207.641 75.75H209.5V92.8906C209.5 93.6719 209.604 94.2604 209.812 94.6562C210.021 95.0521 210.292 95.3177 210.625 95.4531C210.958 95.5885 211.318 95.6562 211.703 95.6562C211.984 95.6562 212.255 95.6406 212.516 95.6094C212.776 95.5677 213.01 95.526 213.219 95.4844L213.297 97.0625C213.068 97.1354 212.771 97.1927 212.406 97.2344C212.042 97.2865 211.677 97.3125 211.312 97.3125C210.594 97.3125 209.958 97.1823 209.406 96.9219C208.854 96.651 208.422 96.1927 208.109 95.5469C207.797 94.8906 207.641 94 207.641 92.875V75.75ZM232.906 87.7344H226.422V86.0938H232.906C234.26 86.0938 235.359 85.875 236.203 85.4375C237.057 84.9896 237.677 84.3854 238.062 83.625C238.458 82.8646 238.656 82.0104 238.656 81.0625C238.656 80.1354 238.458 79.2812 238.062 78.5C237.677 77.7188 237.057 77.0938 236.203 76.625C235.359 76.1458 234.26 75.9062 232.906 75.9062H227.094V97H225.172V74.25H232.906C234.573 74.25 235.974 74.5365 237.109 75.1094C238.255 75.6823 239.12 76.4792 239.703 77.5C240.286 78.5208 240.578 79.6979 240.578 81.0312C240.578 82.4271 240.286 83.6302 239.703 84.6406C239.12 85.6406 238.26 86.4062 237.125 86.9375C235.99 87.4688 234.583 87.7344 232.906 87.7344ZM246.531 73V97H244.672V73H246.531ZM261.922 93.9688V85.25C261.922 84.4479 261.755 83.7552 261.422 83.1719C261.089 82.5885 260.599 82.1406 259.953 81.8281C259.307 81.5156 258.51 81.3594 257.562 81.3594C256.688 81.3594 255.906 81.5156 255.219 81.8281C254.542 82.1302 254.005 82.5417 253.609 83.0625C253.224 83.5729 253.031 84.1406 253.031 84.7656L251.156 84.75C251.156 84.1146 251.312 83.5 251.625 82.9062C251.938 82.3125 252.38 81.7812 252.953 81.3125C253.526 80.8438 254.208 80.474 255 80.2031C255.802 79.9219 256.682 79.7812 257.641 79.7812C258.849 79.7812 259.911 79.9844 260.828 80.3906C261.755 80.7969 262.479 81.4062 263 82.2188C263.521 83.0312 263.781 84.0521 263.781 85.2812V93.4531C263.781 94.0365 263.823 94.6406 263.906 95.2656C264 95.8906 264.13 96.4062 264.297 96.8125V97H262.312C262.188 96.625 262.089 96.1562 262.016 95.5938C261.953 95.0208 261.922 94.4792 261.922 93.9688ZM262.359 87.1562L262.391 88.5938H258.719C257.76 88.5938 256.901 88.6823 256.141 88.8594C255.391 89.026 254.755 89.276 254.234 89.6094C253.714 89.9323 253.312 90.3229 253.031 90.7812C252.76 91.2396 252.625 91.7604 252.625 92.3438C252.625 92.9479 252.776 93.5 253.078 94C253.391 94.5 253.828 94.901 254.391 95.2031C254.964 95.4948 255.641 95.6406 256.422 95.6406C257.464 95.6406 258.38 95.4479 259.172 95.0625C259.974 94.6771 260.635 94.1719 261.156 93.5469C261.677 92.9219 262.026 92.2396 262.203 91.5L263.016 92.5781C262.88 93.099 262.63 93.6354 262.266 94.1875C261.911 94.7292 261.448 95.2396 260.875 95.7188C260.302 96.1875 259.625 96.5729 258.844 96.875C258.073 97.1667 257.198 97.3125 256.219 97.3125C255.115 97.3125 254.151 97.1042 253.328 96.6875C252.516 96.2708 251.88 95.7031 251.422 94.9844C250.974 94.2552 250.75 93.4323 250.75 92.5156C250.75 91.6823 250.927 90.9375 251.281 90.2812C251.635 89.6146 252.146 89.0521 252.812 88.5938C253.49 88.125 254.302 87.7708 255.25 87.5312C256.208 87.2812 257.281 87.1562 258.469 87.1562H262.359ZM275.031 95.7031C275.823 95.7031 276.562 95.5573 277.25 95.2656C277.948 94.9635 278.521 94.5208 278.969 93.9375C279.427 93.3438 279.688 92.6198 279.75 91.7656H281.531C281.479 92.8385 281.151 93.7969 280.547 94.6406C279.953 95.474 279.172 96.1302 278.203 96.6094C277.245 97.0781 276.188 97.3125 275.031 97.3125C273.854 97.3125 272.812 97.099 271.906 96.6719C271.01 96.2448 270.26 95.651 269.656 94.8906C269.052 94.1198 268.594 93.224 268.281 92.2031C267.979 91.1719 267.828 90.0625 267.828 88.875V88.2188C267.828 87.0312 267.979 85.9271 268.281 84.9062C268.594 83.875 269.052 82.9792 269.656 82.2188C270.26 81.4479 271.01 80.849 271.906 80.4219C272.802 79.9948 273.839 79.7812 275.016 79.7812C276.224 79.7812 277.307 80.026 278.266 80.5156C279.234 81.0052 280.005 81.6979 280.578 82.5938C281.161 83.4896 281.479 84.5521 281.531 85.7812H279.75C279.698 84.875 279.458 84.0938 279.031 83.4375C278.604 82.7812 278.042 82.276 277.344 81.9219C276.646 81.5677 275.87 81.3906 275.016 81.3906C274.057 81.3906 273.24 81.5781 272.562 81.9531C271.885 82.3177 271.333 82.8229 270.906 83.4688C270.49 84.1042 270.182 84.8333 269.984 85.6562C269.786 86.4688 269.688 87.3229 269.688 88.2188V88.875C269.688 89.7812 269.781 90.6458 269.969 91.4688C270.167 92.2812 270.474 93.0052 270.891 93.6406C271.318 94.276 271.87 94.7812 272.547 95.1562C273.234 95.5208 274.062 95.7031 275.031 95.7031ZM291.828 97.3125C290.724 97.3125 289.708 97.1094 288.781 96.7031C287.865 96.2969 287.062 95.724 286.375 94.9844C285.698 94.2448 285.172 93.3698 284.797 92.3594C284.432 91.3385 284.25 90.224 284.25 89.0156V88.3438C284.25 87.0417 284.443 85.8646 284.828 84.8125C285.214 83.7604 285.745 82.8594 286.422 82.1094C287.099 81.3594 287.87 80.7865 288.734 80.3906C289.609 79.9844 290.526 79.7812 291.484 79.7812C292.557 79.7812 293.51 79.974 294.344 80.3594C295.177 80.7344 295.875 81.2708 296.438 81.9688C297.01 82.6562 297.443 83.474 297.734 84.4219C298.026 85.3594 298.172 86.3958 298.172 87.5312V88.6719H285.375V87.0781H296.312V86.8594C296.292 85.9115 296.099 85.026 295.734 84.2031C295.38 83.3698 294.849 82.6927 294.141 82.1719C293.432 81.651 292.547 81.3906 291.484 81.3906C290.693 81.3906 289.964 81.5573 289.297 81.8906C288.641 82.224 288.073 82.7031 287.594 83.3281C287.125 83.9427 286.76 84.6771 286.5 85.5312C286.25 86.375 286.125 87.3125 286.125 88.3438V89.0156C286.125 89.9531 286.26 90.8281 286.531 91.6406C286.812 92.4427 287.208 93.151 287.719 93.7656C288.24 94.3802 288.854 94.8594 289.562 95.2031C290.271 95.5469 291.052 95.7188 291.906 95.7188C292.906 95.7188 293.792 95.5365 294.562 95.1719C295.333 94.7969 296.026 94.2083 296.641 93.4062L297.812 94.3125C297.448 94.8542 296.99 95.3542 296.438 95.8125C295.896 96.2708 295.245 96.6354 294.484 96.9062C293.724 97.1771 292.839 97.3125 291.828 97.3125Z" fill="#FCFCFC"/>
<defs>
<radialGradient id="paint0_angular_101_3221" cx="0" cy="0" r="1" gradientUnits="userSpaceOnUse" gradientTransform="translate(50.0165 45.2783) rotate(163.546) scale(37.7674 23.7508)">
<stop stop-color="#FFFF7D"/>
<stop offset="0.21177" stop-color="#CECE04"/>
<stop offset="0.36863" stop-color="#FFFF7D"/>
<stop offset="0.54118" stop-color="#D2D20E"/>
<stop offset="0.72941" stop-color="#FFFF7D"/>
<stop offset="1" stop-color="#CCCC00"/>
</radialGradient>
</defs>
</svg>
