<svg width="9" height="13" viewBox="0 0 9 13" fill="none" xmlns="http://www.w3.org/2000/svg">
<path d="M4.2 6.2C3.80218 6.2 3.42064 6.04197 3.13934 5.76066C2.85804 5.47936 2.7 5.09783 2.7 4.7C2.7 4.30218 2.85804 3.92064 3.13934 3.63934C3.42064 3.35804 3.80218 3.2 4.2 3.2C4.59782 3.2 4.97936 3.35804 5.26066 3.63934C5.54196 3.92064 5.7 4.30218 5.7 4.7C5.7 4.89698 5.6612 5.09204 5.58582 5.27403C5.51044 5.45601 5.39995 5.62137 5.26066 5.76066C5.12137 5.89995 4.95601 6.01044 4.77402 6.08582C4.59204 6.1612 4.39698 6.2 4.2 6.2ZM4.2 0.5C3.08609 0.5 2.0178 0.942499 1.23015 1.73015C0.442499 2.5178 0 3.58609 0 4.7C0 7.85 4.2 12.5 4.2 12.5C4.2 12.5 8.4 7.85 8.4 4.7C8.4 3.58609 7.9575 2.5178 7.16985 1.73015C6.38219 0.942499 5.31391 0.5 4.2 0.5Z" fill="#034FF8"/>
</svg>
