<svg width="38" height="37" viewBox="0 0 38 37" fill="none" xmlns="http://www.w3.org/2000/svg">
<rect x="0.5" width="37" height="37" rx="18.5" fill="#034FF8"/>
<path d="M25.5924 11.1045L25.6696 11.1001L25.7642 11.1059L25.8298 11.1176L25.9194 11.1431L25.9973 11.1766L26.0702 11.2181L26.1357 11.2669L26.1954 11.3215L26.2333 11.3645L26.293 11.449L26.3309 11.5189C26.3649 11.5917 26.3867 11.6685 26.3965 11.7491L26.4001 11.8263C26.4001 11.8811 26.3943 11.9345 26.3826 11.9865L26.3571 12.0761L21.5996 25.2424C21.5094 25.4387 21.3647 25.6051 21.1828 25.7217C21.0009 25.8382 20.7894 25.9002 20.5733 25.9001C20.3788 25.9005 20.1874 25.8506 20.0178 25.7553C19.8482 25.66 19.7061 25.5224 19.6054 25.356L19.558 25.2635L17.1166 20.3821L12.2585 17.9524C12.0788 17.8702 11.9237 17.7422 11.809 17.5813C11.6942 17.4204 11.6237 17.2321 11.6045 17.0354L11.6001 16.9269C11.6001 16.519 11.8193 16.1461 12.2126 15.929L12.3146 15.878L25.4372 11.1394L25.5144 11.1176L25.5924 11.1045Z" fill="white"/>
</svg>
