<svg width="40" height="40" viewBox="0 0 40 40" fill="none" xmlns="http://www.w3.org/2000/svg">
<path d="M20 40C31.0457 40 40 31.0457 40 20C40 8.95431 31.0457 0 20 0C8.9543 0 0 8.95431 0 20C0 31.0457 8.9543 40 20 40Z" fill="#00053C"/>
<path d="M19.9997 37.8571C29.8619 37.8571 37.8569 29.8622 37.8569 20C37.8569 10.1377 29.8619 2.14282 19.9997 2.14282C10.1375 2.14282 2.14258 10.1377 2.14258 20C2.14258 29.8622 10.1375 37.8571 19.9997 37.8571Z" fill="url(#paint0_angular_70_1837)"/>
<path fill-rule="evenodd" clip-rule="evenodd" d="M7.85742 20L16.7918 11.2902C18.5565 9.56992 21.4441 9.56992 23.2089 11.2902L32.1431 20H7.85742Z" fill="#00053C" stroke="#00053C" stroke-linejoin="round"/>
<path fill-rule="evenodd" clip-rule="evenodd" d="M7.85742 20L16.529 11.2902C18.2418 9.56992 21.0445 9.56992 22.7574 11.2902L31.4288 20H7.85742Z" fill="#FFFF7D"/>
<path fill-rule="evenodd" clip-rule="evenodd" d="M20.6443 30C14.4591 30 8.65799 25.1364 7.14258 20C16.8932 20 22.738 20 32.8569 20C30.557 26.538 25.1592 30 20.6443 30Z" fill="#00053C"/>
<path fill-rule="evenodd" clip-rule="evenodd" d="M7.62936 11.0904L6.91593 10.5366L7.16439 10.2245C7.21433 10.1616 7.25874 10.1189 7.29729 10.0963C7.33617 10.0734 7.3796 10.0648 7.42734 10.0706C7.47533 10.0763 7.519 10.0944 7.55811 10.1247C7.60879 10.1639 7.63848 10.2132 7.64767 10.2726C7.65661 10.332 7.63872 10.3986 7.59455 10.4738C7.62619 10.4582 7.65296 10.4489 7.67466 10.4449C7.72167 10.4373 7.77382 10.4361 7.831 10.4415L8.12241 10.4704L8.02953 10.5872L7.80709 10.565C7.74243 10.5586 7.69199 10.5557 7.65507 10.5557C7.61839 10.5557 7.58993 10.5592 7.56991 10.566C7.54991 10.5729 7.53226 10.5822 7.51705 10.5938C7.50665 10.6027 7.49175 10.6191 7.47265 10.6432L7.38676 10.7511L7.70355 10.997L7.62936 11.0904ZM7.30511 10.6877L7.46435 10.4876C7.49833 10.4449 7.52006 10.4082 7.53023 10.3773C7.54039 10.3465 7.54089 10.3172 7.53072 10.2896C7.52103 10.2619 7.50468 10.2393 7.48175 10.2214C7.448 10.1953 7.41059 10.1854 7.3696 10.1928C7.32885 10.2 7.28753 10.2295 7.2463 10.2814L7.069 10.5043L7.30511 10.6877ZM8.19487 10.3798L7.509 9.79296L7.77243 9.49295C7.82555 9.43246 7.87182 9.39188 7.91167 9.37092C7.95144 9.3502 7.99536 9.34353 8.04294 9.3514C8.09045 9.35952 8.13314 9.37952 8.17079 9.41165C8.21951 9.45334 8.24676 9.50411 8.25287 9.56395C8.25889 9.62356 8.23813 9.68927 8.19015 9.76221C8.22245 9.74815 8.24977 9.74003 8.27173 9.73722C8.31898 9.732 8.37136 9.73319 8.42804 9.74124L8.71758 9.78388L8.61942 9.89588L8.39821 9.86349C8.33402 9.85394 8.28384 9.84872 8.24692 9.84678C8.21024 9.8451 8.18177 9.84727 8.16127 9.85322C8.14103 9.85891 8.12289 9.86752 8.10727 9.87844C8.09646 9.8868 8.08076 9.90253 8.0605 9.9256L7.96933 10.0292L8.27408 10.2899L8.1952 10.3797L8.19487 10.3798ZM7.89061 9.96213L8.05929 9.76984C8.09523 9.72863 8.1189 9.69336 8.13046 9.66285C8.14224 9.63254 8.14371 9.60324 8.13525 9.57535C8.12679 9.54724 8.11158 9.52363 8.08938 9.50458C8.05709 9.47695 8.02017 9.46555 7.97885 9.47077C7.93762 9.47599 7.89516 9.50362 7.85123 9.55368L7.66353 9.7679L7.89061 9.96213ZM8.81299 9.68999L8.15624 9.07163L8.23944 8.98559L8.89595 9.60371L8.81299 9.68999ZM9.35173 8.66227L9.27813 8.58628L9.55628 8.32466L9.78817 8.56483C9.77775 8.63849 9.75824 8.7054 9.72929 8.765C9.70008 8.82486 9.66169 8.87698 9.61395 8.92205C9.54955 8.98278 9.47788 9.02431 9.3985 9.04664C9.31986 9.0688 9.24169 9.06688 9.1654 9.0407C9.08846 9.01451 9.01942 8.96944 8.95793 8.90583C8.89709 8.84269 8.85375 8.7712 8.8274 8.69136C8.80136 8.61126 8.80063 8.53478 8.8252 8.4609C8.84984 8.38723 8.89465 8.3196 8.96004 8.25789C9.00755 8.21331 9.05773 8.18046 9.11083 8.15949C9.16395 8.13854 9.21437 8.13162 9.26235 8.13805C9.31033 8.14472 9.36125 8.16447 9.41437 8.19766L9.35646 8.29252C9.31498 8.26891 9.27756 8.25461 9.24479 8.24914C9.21177 8.24416 9.17656 8.24842 9.13817 8.26271C9.10026 8.27701 9.06456 8.29966 9.03153 8.33083C8.992 8.36827 8.96345 8.40635 8.94589 8.44571C8.92848 8.48475 8.92059 8.52242 8.92149 8.55888C8.92272 8.59511 8.92947 8.62965 8.94199 8.66203C8.96445 8.71778 8.99795 8.76926 9.04333 8.81618C9.09929 8.8741 9.15597 8.91313 9.21388 8.93338C9.27155 8.95338 9.32896 8.95458 9.38566 8.9374C9.44234 8.91997 9.49228 8.89121 9.53547 8.8504C9.57312 8.81489 9.60305 8.77319 9.62501 8.72533C9.64648 8.67697 9.65877 8.63625 9.66169 8.60234L9.54417 8.48081L9.35173 8.66227ZM9.9414 8.61296L9.61037 7.71055L9.71024 7.62523L10.5836 8.06366L10.4801 8.15211L10.2207 8.01459L9.93188 8.26168L10.0375 8.5307L9.9414 8.61296ZM9.89479 8.16616L10.1285 7.96624L9.89211 7.83947C9.8207 7.80084 9.76303 7.76774 9.71911 7.74011C9.74832 7.79255 9.77386 7.84638 9.79556 7.90284L9.89479 8.16616ZM10.6673 8.01129L10.1413 7.28118L10.4692 7.05098C10.535 7.00455 10.5898 6.97595 10.6335 6.96494C10.6771 6.95403 10.7213 6.95803 10.7657 6.97659C10.8099 6.99538 10.8468 7.02494 10.8755 7.06502C10.9127 7.117 10.9271 7.17251 10.9189 7.23204C10.9107 7.29139 10.8743 7.35043 10.8104 7.41003C10.8453 7.40409 10.8735 7.4024 10.8957 7.40481C10.943 7.41076 10.9932 7.4241 11.0465 7.4453L11.3177 7.55447L11.1954 7.64026L10.9881 7.55688C10.928 7.53277 10.8805 7.5159 10.8453 7.50563C10.8101 7.49535 10.7816 7.49084 10.7604 7.49182C10.7394 7.49278 10.7197 7.4968 10.7018 7.50371C10.6892 7.50916 10.6701 7.52089 10.6451 7.53848L10.5317 7.61809L10.7652 7.94237L10.6673 8.01129ZM10.4716 7.53446L10.6815 7.38698C10.7264 7.3555 10.7577 7.32649 10.7764 7.29951C10.7949 7.27283 10.8036 7.24496 10.8019 7.21564C10.8004 7.18633 10.7912 7.16015 10.7744 7.13652C10.7493 7.10198 10.7165 7.08222 10.675 7.07764C10.6338 7.07314 10.5859 7.09001 10.5312 7.12842L10.2975 7.2926L10.4716 7.53446ZM11.4123 7.48634L10.9225 6.7319L11.261 6.51768C11.3292 6.47453 11.3853 6.44835 11.4294 6.43952C11.4736 6.43068 11.5175 6.43662 11.561 6.45759C11.6042 6.47832 11.6394 6.50956 11.6664 6.55101C11.7011 6.6046 11.7127 6.6609 11.7016 6.71971C11.6905 6.77882 11.6512 6.83602 11.5845 6.89248C11.6195 6.88822 11.648 6.88799 11.67 6.89152C11.7167 6.89964 11.7665 6.91537 11.8185 6.93891L12.0842 7.06069L11.9578 7.14077L11.7548 7.04784C11.696 7.02093 11.6492 7.00165 11.6147 6.98969C11.58 6.9778 11.552 6.97186 11.5305 6.97186C11.5096 6.97186 11.4898 6.97498 11.4714 6.98092C11.4586 6.9859 11.4391 6.99643 11.413 7.01305L11.296 7.08721L11.5136 7.42225L11.4123 7.48634ZM11.2398 7.00069L11.4569 6.86342C11.5033 6.83409 11.5358 6.80646 11.5558 6.78074C11.5756 6.75481 11.5855 6.72741 11.5853 6.69809C11.5855 6.66877 11.5775 6.64186 11.5619 6.61752C11.5387 6.58202 11.5066 6.56058 11.4653 6.55414C11.4243 6.54771 11.3758 6.5625 11.3193 6.598L11.0778 6.75095L11.2398 7.00069ZM12.2017 6.99571L11.7496 6.21918L11.854 6.15981L12.3061 6.93659L12.2017 6.99571ZM13.0126 6.15957L12.9641 6.06592L13.3059 5.89312L13.4592 6.18857C13.428 6.25645 13.3902 6.31509 13.345 6.36417C13.2999 6.41301 13.2481 6.45261 13.1895 6.48209C13.1101 6.52234 13.0293 6.54193 12.9473 6.5412C12.8652 6.54048 12.7909 6.51663 12.7253 6.46997C12.6592 6.42328 12.6059 6.36055 12.5653 6.28239C12.5251 6.20471 12.5038 6.12414 12.5019 6.04004C12.4999 5.95619 12.5212 5.88229 12.5661 5.81866C12.6107 5.7548 12.6732 5.70259 12.7538 5.66187C12.8122 5.63231 12.8698 5.61495 12.9265 5.60989C12.9835 5.60467 13.0339 5.61205 13.078 5.63182C13.1222 5.65157 13.1651 5.68499 13.2069 5.73142L13.1239 5.80621C13.0909 5.7719 13.0593 5.74757 13.0291 5.73327C12.9989 5.71922 12.9639 5.71351 12.9232 5.71656C12.8827 5.71946 12.8419 5.73111 12.8011 5.75182C12.7524 5.77642 12.7142 5.80501 12.686 5.83787C12.658 5.87047 12.6394 5.90412 12.6303 5.93939C12.6209 5.97442 12.6175 6.00945 12.6201 6.04399C12.6254 6.10406 12.6428 6.16263 12.6728 6.2203C12.7097 6.29179 12.7529 6.34512 12.8026 6.38064C12.8523 6.41591 12.9068 6.43332 12.9661 6.4326C13.0255 6.43189 13.0817 6.4183 13.135 6.39141C13.1811 6.36803 13.2218 6.33613 13.2566 6.29654C13.2913 6.25629 13.3147 6.22079 13.327 6.18882L13.2496 6.0394L13.0126 6.15925L13.0126 6.15957ZM13.5913 6.27613L13.5346 5.31798L13.655 5.26416L14.3653 5.9304L14.2408 5.98591L14.0318 5.78124L13.6836 5.93658L13.7073 6.22416L13.5913 6.27613ZM13.6757 5.83457L13.9573 5.70877L13.7674 5.5208C13.71 5.46361 13.6644 5.41573 13.6304 5.37686C13.6434 5.43501 13.6521 5.49406 13.6566 5.55438L13.6757 5.83457ZM14.4587 5.89818L14.1679 5.04945L14.5486 4.92219C14.6253 4.89673 14.6861 4.88477 14.7313 4.88669C14.7762 4.88863 14.8174 4.90478 14.8543 4.9353C14.8913 4.96607 14.9178 5.00461 14.934 5.05137C14.9545 5.11161 14.952 5.16905 14.9267 5.22344C14.9016 5.27797 14.8495 5.32449 14.7711 5.36329C14.8061 5.36729 14.8338 5.37396 14.8541 5.38257C14.8978 5.40136 14.9419 5.42874 14.9868 5.4641L15.2148 5.64563L15.0727 5.69304L14.8985 5.55438C14.8481 5.51437 14.8073 5.48458 14.7764 5.46457C14.7457 5.44482 14.72 5.43244 14.6992 5.42738C14.6787 5.42217 14.659 5.42048 14.6399 5.42217C14.6261 5.42385 14.6046 5.42956 14.5752 5.43935L14.4435 5.48322L14.5728 5.86043L14.4587 5.89818ZM14.4102 5.38585L14.6543 5.30432C14.7065 5.28688 14.7448 5.26809 14.7706 5.24761C14.7959 5.22737 14.8126 5.20303 14.8194 5.17444C14.8266 5.14608 14.8256 5.1182 14.8162 5.0908C14.8024 5.05081 14.7764 5.02245 14.7383 5.00623C14.6999 4.99024 14.649 4.99289 14.5858 5.01409L14.3139 5.1051L14.4102 5.38585ZM15.3239 5.60315L15.0759 4.74106L15.4629 4.63239C15.5405 4.61069 15.6021 4.60185 15.6469 4.60595C15.6916 4.6102 15.7318 4.62836 15.7673 4.66073C15.8025 4.69286 15.8271 4.73295 15.8409 4.78035C15.8585 4.84155 15.8529 4.89874 15.8252 4.95193C15.7972 5.0051 15.7429 5.04889 15.6626 5.0839C15.6973 5.08961 15.7246 5.09747 15.7447 5.10728C15.7871 5.12824 15.8301 5.15756 15.8733 5.19524L16.0916 5.38779L15.9474 5.42827L15.7804 5.28127C15.7319 5.23862 15.6928 5.20673 15.6631 5.18553C15.6334 5.16407 15.6081 5.1505 15.5876 5.14432C15.5676 5.13837 15.5479 5.13571 15.5285 5.1362C15.515 5.13739 15.493 5.14191 15.4633 5.15026L15.3295 5.18794L15.4395 5.5706L15.3239 5.60315ZM15.3012 5.08895L15.5489 5.0194C15.6018 5.00461 15.6413 4.98767 15.6678 4.96839C15.6943 4.9496 15.712 4.92598 15.7202 4.89786C15.7289 4.86975 15.7294 4.84211 15.7212 4.81424C15.7096 4.77352 15.685 4.74371 15.6476 4.72581C15.6102 4.70797 15.5592 4.70814 15.4948 4.72628L15.2188 4.80371L15.3012 5.08895ZM16.2221 5.35421L16.0179 4.48112L16.1355 4.45445L16.3394 5.32753L16.2221 5.35421ZM17.2436 4.78211L17.2248 4.67849L17.6029 4.61173L17.662 4.93867C17.6123 4.99467 17.5585 5.03972 17.501 5.07353C17.4434 5.10737 17.3821 5.13002 17.3172 5.14165C17.2294 5.15717 17.1464 5.15258 17.068 5.12808C16.9899 5.10374 16.9257 5.05949 16.877 4.99586C16.8275 4.93223 16.7949 4.85697 16.7795 4.77046C16.7638 4.68467 16.7675 4.60129 16.7904 4.52048C16.8133 4.43942 16.8555 4.37509 16.9172 4.32721C16.9787 4.2791 17.0543 4.24713 17.1433 4.23147C17.2078 4.22029 17.2681 4.22005 17.3241 4.23171C17.3798 4.24311 17.4261 4.26456 17.4623 4.29629C17.4985 4.32801 17.5299 4.37228 17.5559 4.42875L17.4544 4.47637C17.4329 4.43397 17.41 4.40184 17.3854 4.37918C17.361 4.35702 17.3289 4.34151 17.2891 4.33276C17.2496 4.32368 17.207 4.32321 17.162 4.33131C17.1081 4.34062 17.0631 4.35702 17.0264 4.3804C16.9899 4.40329 16.9625 4.43043 16.9429 4.46144C16.9237 4.49221 16.9102 4.52458 16.9027 4.55839C16.8897 4.61727 16.8889 4.67849 16.9007 4.74235C16.915 4.82124 16.9403 4.88485 16.9774 4.93321C17.0144 4.98133 17.0614 5.01378 17.1183 5.02993C17.1752 5.04639 17.2331 5.04968 17.292 5.03925C17.3432 5.03017 17.3914 5.01161 17.4363 4.98348C17.4814 4.95514 17.5145 4.92799 17.5357 4.90108L17.5058 4.73592L17.2436 4.78211ZM17.7616 5.05354L17.9925 4.12109L18.1235 4.10462L18.6044 4.94767L18.4688 4.96485L18.3299 4.70821L17.951 4.75583L17.8881 5.03747L17.7616 5.05354ZM17.9737 4.65607L18.2804 4.61744L18.1548 4.38272C18.1167 4.31123 18.0875 4.25211 18.0662 4.20519C18.0615 4.2648 18.0523 4.3236 18.0387 4.38248L17.9737 4.65607ZM18.7027 4.94967L18.6337 4.0561L19.0347 4.02606C19.1156 4.01988 19.1772 4.02341 19.2205 4.03635C19.2637 4.0492 19.2994 4.07499 19.3275 4.11353C19.3556 4.15242 19.3715 4.19621 19.3754 4.24528C19.3802 4.30891 19.3635 4.36393 19.3255 4.41043C19.2873 4.45711 19.2253 4.48931 19.1394 4.50763C19.1721 4.52025 19.1976 4.53333 19.215 4.54667C19.2525 4.57575 19.2888 4.61294 19.3233 4.65816L19.4983 4.88976L19.3488 4.90092L19.215 4.72412C19.1761 4.67287 19.1442 4.63407 19.1194 4.60707C19.0945 4.58041 19.0726 4.56225 19.0539 4.55205C19.0354 4.54225 19.0165 4.53558 18.9976 4.53253C18.984 4.53085 18.9616 4.53108 18.9306 4.53326L18.7919 4.54377L18.8226 4.94052L18.7027 4.94967ZM18.7844 4.44169L19.0409 4.42215C19.096 4.41815 19.138 4.4093 19.1679 4.39573C19.1978 4.38239 19.2198 4.36287 19.2337 4.33685C19.2477 4.31115 19.2537 4.28392 19.2514 4.25516C19.2482 4.21275 19.2304 4.17894 19.1972 4.15411C19.1642 4.12912 19.1145 4.11933 19.0475 4.1243L18.7615 4.14575L18.7844 4.44169ZM19.6163 4.90228L19.5932 4.00654L19.9954 3.9965C20.0763 3.99434 20.1378 4.00076 20.1802 4.01602C20.2227 4.03104 20.257 4.05844 20.2833 4.09844C20.3093 4.13869 20.3231 4.18327 20.3242 4.23259C20.3259 4.29597 20.3064 4.35026 20.2659 4.39484C20.2253 4.43944 20.1618 4.46851 20.0752 4.48281C20.1073 4.49687 20.1319 4.5114 20.1488 4.52547C20.1846 4.55647 20.2189 4.59527 20.2512 4.64226L20.4143 4.88244L20.2642 4.88597L20.1394 4.70275C20.1033 4.6494 20.0734 4.60933 20.0499 4.58097C20.0264 4.5531 20.0057 4.53382 19.9875 4.52282C19.9693 4.51213 19.951 4.5045 19.9323 4.5004C19.9187 4.49799 19.8965 4.49727 19.8653 4.49799L19.7264 4.50136L19.7365 4.89931L19.6163 4.90228ZM19.7238 4.39903L19.9815 4.39236C20.0363 4.39116 20.0789 4.38449 20.1095 4.37235C20.14 4.36046 20.1629 4.34207 20.178 4.31684C20.1934 4.29187 20.2007 4.26487 20.2 4.23604C20.1991 4.19363 20.1826 4.15884 20.151 4.13242C20.1191 4.10599 20.0699 4.09354 20.0029 4.09523L19.7163 4.10237L19.7238 4.39903ZM20.5492 4.90726L20.5717 4.01152L20.6925 4.01466L20.6692 4.9104L20.5492 4.90726ZM21.6991 4.63608L21.7125 4.53174L22.0934 4.5796L22.0512 4.90918C21.9866 4.94782 21.922 4.97498 21.8565 4.99048C21.7914 5.00574 21.726 5.00927 21.6605 5.00101C21.5723 4.99008 21.4943 4.96148 21.4268 4.91496C21.3598 4.86879 21.3121 4.80725 21.2846 4.73222C21.2565 4.65696 21.2482 4.57566 21.2594 4.48842C21.2704 4.40191 21.2993 4.32328 21.3455 4.25298C21.3919 4.18247 21.4514 4.13363 21.5249 4.10599C21.5983 4.07836 21.6798 4.07 21.7697 4.08117C21.8347 4.08929 21.8923 4.10712 21.942 4.1345C21.9919 4.1619 22.0295 4.19595 22.0543 4.237C22.0796 4.27797 22.0961 4.32946 22.1038 4.39116L21.9925 4.40666C21.9848 4.35974 21.9725 4.32208 21.9558 4.29348C21.9393 4.26512 21.9134 4.24079 21.8782 4.22078C21.8429 4.20054 21.8027 4.18745 21.7572 4.18174C21.7031 4.17508 21.655 4.17749 21.613 4.18888C21.5714 4.20005 21.5369 4.21748 21.5088 4.24158C21.4811 4.2652 21.4583 4.29211 21.4407 4.32215C21.411 4.37462 21.3917 4.43293 21.3833 4.49727C21.3732 4.57662 21.3785 4.64475 21.3993 4.70194C21.4198 4.75866 21.455 4.80371 21.5042 4.8361C21.5536 4.86846 21.6081 4.88854 21.6673 4.89594C21.7189 4.90237 21.7706 4.89884 21.8218 4.88526C21.8736 4.87167 21.9134 4.85545 21.9415 4.83617L21.9629 4.66941L21.6989 4.63632L21.6991 4.63608ZM22.1137 5.03305L22.6159 4.21123L22.7459 4.23435L22.9499 5.18062L22.8156 5.157L22.7605 4.87104L22.3844 4.80476L22.2393 5.05523L22.1137 5.03305ZM22.4363 4.71616L22.7405 4.76999L22.6917 4.50883C22.677 4.42947 22.667 4.3644 22.6609 4.31347C22.6382 4.36875 22.6117 4.42241 22.5811 4.47454L22.4363 4.71616ZM23.0464 5.197L23.2503 4.32368L23.6422 4.413C23.7209 4.43109 23.7789 4.45229 23.8163 4.47759C23.8537 4.50241 23.88 4.53768 23.8952 4.58289C23.9104 4.62796 23.9123 4.67486 23.9013 4.72274C23.8868 4.78468 23.8539 4.83215 23.8035 4.86549C23.7532 4.89884 23.6844 4.91129 23.5969 4.90364C23.6242 4.92533 23.6446 4.94534 23.6574 4.96324C23.6842 5.0019 23.7075 5.04807 23.7268 5.10149L23.8242 5.37436L23.678 5.34103L23.6035 5.1325C23.5818 5.07225 23.5633 5.02574 23.5475 4.99289C23.5317 4.96003 23.5167 4.93619 23.5016 4.92091C23.487 4.90614 23.4708 4.89425 23.4537 4.88566C23.4415 4.88019 23.42 4.87377 23.3897 4.86685L23.2541 4.8361L23.1637 5.22375L23.0464 5.197ZM23.2776 4.73592L23.5288 4.79311C23.5824 4.80525 23.6249 4.80909 23.6578 4.805C23.6903 4.80123 23.7172 4.78878 23.7381 4.7683C23.7596 4.74781 23.7734 4.72347 23.7798 4.69536C23.7895 4.65415 23.7826 4.61648 23.7587 4.58289C23.7345 4.54931 23.6899 4.52547 23.6248 4.51044L23.3451 4.44682L23.2776 4.73592ZM23.9361 5.40691L24.1842 4.54506L24.571 4.6535C24.6488 4.67543 24.7055 4.69969 24.7415 4.72644C24.7776 4.75335 24.802 4.78958 24.815 4.83584C24.8279 4.88164 24.8273 4.9283 24.8139 4.97569C24.7961 5.03667 24.7613 5.0827 24.7092 5.11346C24.6571 5.14423 24.5879 5.15323 24.5007 5.14133C24.5273 5.16447 24.546 5.18544 24.5582 5.20376C24.5831 5.24375 24.604 5.29098 24.6205 5.34529L24.704 5.62241L24.5594 5.58193L24.4958 5.3701C24.4772 5.3089 24.4609 5.26166 24.447 5.22784C24.4328 5.19426 24.4189 5.16969 24.4049 5.15394C24.391 5.13821 24.3754 5.12583 24.3589 5.11626C24.3468 5.11008 24.3255 5.10269 24.2958 5.0941L24.162 5.05668L24.0519 5.4396L23.9361 5.40691ZM24.1904 4.95795L24.4385 5.02752C24.4914 5.04229 24.5337 5.04823 24.5666 5.04582C24.5994 5.04341 24.6268 5.03249 24.649 5.01297C24.6714 4.99369 24.6864 4.97007 24.6943 4.9422C24.7059 4.90148 24.7011 4.86357 24.6785 4.82878C24.6563 4.79423 24.613 4.76805 24.5486 4.74989L24.2725 4.67245L24.1904 4.95795ZM24.8292 5.67375L25.12 4.82501L25.2339 4.86341L24.9433 5.71216L24.8292 5.67375ZM25.998 5.72854L26.0372 5.63086L26.3945 5.76998L26.271 6.07877C26.1991 6.10069 26.1293 6.11113 26.0622 6.11024C25.995 6.10905 25.931 6.09667 25.8697 6.07282C25.7868 6.04069 25.7183 5.99394 25.6648 5.93225C25.611 5.87103 25.5802 5.80026 25.5723 5.72065C25.564 5.64081 25.5763 5.56009 25.609 5.47831C25.6413 5.39727 25.6886 5.32818 25.751 5.27099C25.8136 5.21427 25.8838 5.18118 25.9616 5.17233C26.0398 5.16327 26.1209 5.17523 26.2049 5.20785C26.2659 5.2317 26.3172 5.26287 26.3589 5.30174C26.4004 5.34038 26.4281 5.3828 26.4422 5.42827C26.4563 5.47405 26.4594 5.52811 26.4515 5.58981L26.3398 5.57744C26.344 5.53028 26.3418 5.49092 26.3328 5.45928C26.3237 5.42755 26.3046 5.39783 26.2754 5.36947C26.2464 5.34159 26.2108 5.31918 26.1681 5.30247C26.1171 5.28272 26.0701 5.27315 26.0264 5.27413C25.9835 5.27483 25.9453 5.28344 25.9123 5.29982C25.8796 5.31581 25.8508 5.33654 25.8264 5.36151C25.7842 5.40489 25.7512 5.45662 25.727 5.51711C25.6974 5.5915 25.6853 5.65864 25.6914 5.71922C25.6971 5.7793 25.72 5.83143 25.7596 5.8748C25.7994 5.91819 25.847 5.9508 25.9026 5.97248C25.9508 5.99153 26.0018 6.00037 26.0552 5.99988C26.1084 5.99916 26.1512 5.99321 26.1835 5.98132L26.2457 5.825L25.998 5.72854ZM26.2965 6.22608L27.0198 5.5853L27.1372 5.64467L27.0526 6.60853L26.931 6.54708L26.9629 6.25805L26.6229 6.086L26.4099 6.28353L26.2965 6.22608ZM26.6987 6.01619L26.9737 6.15531L27.0044 5.89151C27.0137 5.81143 27.0235 5.74637 27.0328 5.69568C26.9947 5.74211 26.9534 5.78573 26.9086 5.82678L26.6987 6.01619ZM27.1427 6.64693L27.5952 5.87014L27.9438 6.06816C28.0137 6.10792 28.0629 6.14511 28.0914 6.17989C28.1196 6.21445 28.1345 6.25564 28.1358 6.30335C28.1371 6.35076 28.1251 6.3963 28.1004 6.43896C28.0681 6.49398 28.0229 6.52997 27.9648 6.5474C27.9068 6.56484 27.8371 6.55719 27.7558 6.5245C27.7758 6.55309 27.789 6.57808 27.7961 6.59889C27.8103 6.6437 27.8191 6.69448 27.8218 6.75119L27.8347 7.04022L27.7046 6.96606L27.6947 6.7454C27.6917 6.68131 27.6873 6.63151 27.6824 6.59552C27.677 6.55976 27.6693 6.53238 27.6594 6.51382C27.6497 6.49527 27.638 6.47928 27.624 6.46618C27.6137 6.45735 27.5952 6.44521 27.5684 6.42972L27.4479 6.36136L27.247 6.70637L27.1427 6.64693ZM27.4998 6.27211L27.7233 6.39911C27.7708 6.42626 27.8106 6.44224 27.8431 6.44771C27.8754 6.45317 27.9046 6.44916 27.931 6.43559C27.9572 6.42225 27.9778 6.40297 27.9925 6.37791C28.0137 6.34096 28.018 6.30312 28.0049 6.26399C27.9919 6.22512 27.9563 6.18922 27.8982 6.15627L27.6493 6.01498L27.4998 6.27211ZM27.935 7.09917L28.4248 6.34472L28.7633 6.55896C28.8314 6.60235 28.8787 6.64162 28.9055 6.67761C28.9319 6.7136 28.9448 6.75553 28.9438 6.80316C28.9426 6.85055 28.9286 6.89538 28.9016 6.93683C28.867 6.99042 28.82 7.0243 28.7609 7.03884C28.7024 7.05339 28.6332 7.04223 28.5536 7.00598C28.5721 7.03556 28.5842 7.06102 28.5903 7.08222C28.6022 7.12753 28.6084 7.1787 28.6084 7.23541L28.6073 7.52467L28.4809 7.44457L28.4818 7.22368C28.482 7.15958 28.4802 7.10953 28.4769 7.07331C28.4732 7.03732 28.467 7.00968 28.458 6.99065C28.4493 6.9716 28.4383 6.95515 28.4249 6.94132C28.415 6.93177 28.3972 6.91892 28.371 6.90229L28.2541 6.82839L28.0365 7.16343L27.935 7.09917ZM28.3101 6.74194L28.527 6.87924C28.5732 6.90856 28.6123 6.92663 28.6444 6.93353C28.6765 6.94043 28.7059 6.93802 28.7328 6.92566C28.7598 6.91329 28.7809 6.89513 28.7969 6.87063C28.8202 6.83513 28.8264 6.79745 28.815 6.75769C28.8038 6.71842 28.7701 6.68075 28.7136 6.64524L28.4721 6.49229L28.3101 6.74194ZM28.7141 7.60572L29.2398 6.87538L29.338 6.94422L28.8123 7.67456L28.7141 7.60572ZM29.8198 7.98695L29.8199 7.9868L30.0293 8.14898L29.924 8.28096C29.8899 8.28312 29.8473 8.27717 29.7958 8.26264C29.7446 8.24811 29.6985 8.22504 29.6574 8.19332C29.6106 8.15684 29.5745 8.1121 29.549 8.05917C29.5237 8.00632 29.5169 7.95009 29.5286 7.89072C29.5407 7.83119 29.5715 7.77015 29.6215 7.70725C29.6624 7.65624 29.7088 7.61601 29.762 7.5862C29.7926 7.56925 29.826 7.5576 29.8624 7.55142C29.8987 7.54522 29.9374 7.54763 29.9791 7.55905C30.0211 7.57078 30.0635 7.59294 30.1062 7.62628C30.1424 7.65439 30.1701 7.68612 30.1897 7.72115C30.2097 7.75642 30.2191 7.79031 30.2185 7.82316C30.2178 7.85634 30.209 7.89465 30.1912 7.93876L30.2947 7.98189C30.3204 7.92494 30.3328 7.87249 30.3325 7.82461C30.3323 7.7769 30.3178 7.72855 30.2893 7.67971C30.2609 7.63087 30.2209 7.58627 30.1692 7.54627C30.0982 7.49126 30.024 7.45695 29.9466 7.44338C29.8692 7.4298 29.7923 7.44169 29.7161 7.47839C29.6396 7.51559 29.5745 7.56829 29.5198 7.63689C29.4648 7.70604 29.4295 7.77987 29.4143 7.85875C29.3987 7.93715 29.4081 8.01386 29.4416 8.08753C29.4754 8.1619 29.527 8.22602 29.5972 8.28031C29.649 8.32056 29.707 8.35061 29.7708 8.37059C29.8348 8.3906 29.9046 8.40017 29.98 8.39968L30.1877 8.13854L29.8857 7.90429L29.8199 7.9868L29.8198 7.98671V7.98695ZM29.9653 8.54362L30.8433 8.13234L30.9389 8.22216L30.5802 9.12262L30.4813 9.02944L30.595 8.7614L30.3187 8.50097L30.0576 8.63063L29.9653 8.54362ZM30.4112 8.45519L30.635 8.6658L30.7404 8.42154C30.7725 8.34738 30.8004 8.28763 30.8237 8.24184C30.7739 8.27565 30.7218 8.3057 30.6671 8.33236L30.4112 8.45519ZM30.6572 9.18295L31.3137 8.56499L31.5912 8.85233C31.6471 8.91025 31.6837 8.95956 31.7007 9.00077C31.7182 9.04198 31.7205 9.0856 31.7081 9.13163C31.6956 9.17766 31.6712 9.21766 31.6352 9.25173C31.5884 9.29558 31.5348 9.31751 31.4739 9.31798C31.4134 9.31824 31.349 9.29132 31.28 9.23741C31.291 9.27052 31.2967 9.2979 31.2974 9.31983C31.2983 9.36675 31.2921 9.418 31.2785 9.47302L31.2079 9.75369L31.1044 9.64644L31.1582 9.43197C31.1739 9.36979 31.184 9.32095 31.1893 9.28498C31.1947 9.24899 31.1952 9.22063 31.1912 9.19992C31.1873 9.17942 31.1804 9.16103 31.1708 9.14441C31.1637 9.13299 31.1493 9.11605 31.1279 9.09387L31.0319 8.9945L30.7402 9.26923L30.6572 9.18295ZM31.107 8.9239L31.2848 9.10809C31.3227 9.14738 31.3561 9.17387 31.3859 9.18817C31.415 9.20272 31.4446 9.20698 31.4737 9.20127C31.5027 9.19557 31.5281 9.18295 31.549 9.16311C31.5802 9.13379 31.5954 9.09852 31.5939 9.05757C31.5925 9.01659 31.5686 8.97201 31.5226 8.92439L31.3244 8.71923L31.107 8.9239ZM31.2882 9.8377L31.9741 9.25084L32.2372 9.5511C32.2904 9.6116 32.3244 9.66259 32.3396 9.70453C32.3548 9.74646 32.3552 9.79008 32.3405 9.83562C32.3259 9.88093 32.2996 9.91973 32.262 9.95193C32.2132 9.99363 32.1583 10.0131 32.0978 10.0106C32.0371 10.0082 31.9741 9.97821 31.9079 9.92101C31.9174 9.95459 31.9215 9.98246 31.9213 10.0044C31.92 10.0513 31.911 10.1021 31.895 10.1567L31.811 10.4336L31.7128 10.3216L31.7767 10.11C31.7954 10.0486 31.8079 10.0001 31.8152 9.96447C31.8222 9.92897 31.8238 9.90084 31.8209 9.87987C31.8178 9.85916 31.8119 9.84037 31.8033 9.82341C31.7965 9.81152 31.7831 9.79385 31.7627 9.77096L31.6719 9.66709L31.3671 9.92752L31.2882 9.83796V9.8377ZM31.7503 9.59969L31.9191 9.792C31.9548 9.83298 31.9871 9.86108 32.0161 9.87683C32.0448 9.89258 32.0737 9.89852 32.1031 9.89403C32.1323 9.88977 32.1582 9.87828 32.1804 9.85923C32.2126 9.8316 32.2295 9.79731 32.2301 9.7561C32.2304 9.71513 32.2088 9.66959 32.1649 9.61979L31.9772 9.40555L31.7503 9.59969ZM31.8919 10.5402L32.6053 9.9864L32.6796 10.0801L31.9664 10.6336L31.8919 10.5402ZM32.8448 11.2133L32.9314 11.1524L33.1541 11.4616L32.88 11.6539C32.8077 11.6334 32.7435 11.6048 32.6877 11.5679C32.6323 11.5307 32.5851 11.4857 32.5471 11.4328C32.4956 11.361 32.4642 11.2851 32.453 11.2045C32.4418 11.1244 32.455 11.0482 32.4925 10.9772C32.5295 10.9059 32.5846 10.8447 32.6572 10.7939C32.7292 10.7434 32.8068 10.711 32.8906 10.697C32.9743 10.6829 33.0514 10.693 33.1218 10.7275C33.1921 10.762 33.2536 10.8159 33.3059 10.8886C33.3438 10.9412 33.3695 10.9951 33.3831 11.0499C33.3963 11.1046 33.3963 11.1552 33.3827 11.201C33.3693 11.247 33.342 11.2939 33.3015 11.3413L33.2147 11.271C33.244 11.2336 33.2638 11.1993 33.2739 11.1679C33.2838 11.1364 33.2844 11.1011 33.2754 11.0618C33.2668 11.0228 33.2492 10.9846 33.2226 10.9479C33.1908 10.9038 33.1567 10.8705 33.1198 10.8478C33.0829 10.8252 33.0464 10.8118 33.0097 10.8078C32.9734 10.8038 32.9378 10.8054 32.9037 10.8131C32.8442 10.8269 32.7881 10.8523 32.7343 10.89C32.6684 10.9364 32.6211 10.9862 32.5926 11.0401C32.5644 11.0935 32.555 11.1495 32.5642 11.2071C32.5734 11.2653 32.5954 11.3182 32.6299 11.3664C32.66 11.4083 32.6976 11.4433 32.7426 11.4714C32.7879 11.4995 32.827 11.5174 32.8605 11.525L32.9991 11.4276L32.8448 11.2133ZM32.8101 11.7969L33.7616 11.6027L33.833 11.7123L33.2684 12.5032L33.1947 12.3895L33.3695 12.1555L33.1635 11.8379L32.8789 11.9027L32.8101 11.7969ZM33.2646 11.8152L33.4314 12.0724L33.5923 11.8596C33.6413 11.795 33.6827 11.7435 33.7167 11.7047C33.6602 11.7257 33.6022 11.7428 33.5426 11.7559L33.2646 11.8152ZM33.3097 12.592L34.1174 12.1836L34.3007 12.537C34.3376 12.6082 34.3583 12.6659 34.3629 12.7102C34.3675 12.7546 34.3574 12.797 34.3319 12.8377C34.3068 12.8782 34.2719 12.9099 34.2277 12.9321C34.1704 12.9612 34.1125 12.9671 34.0541 12.9504C33.9959 12.9337 33.9418 12.8899 33.8915 12.8189C33.8925 12.8537 33.8901 12.8816 33.8842 12.9028C33.8717 12.9481 33.851 12.9955 33.822 13.0446L33.6737 13.2938L33.6051 13.1618L33.7185 12.9715C33.7514 12.9162 33.7752 12.8721 33.791 12.8393C33.8062 12.8061 33.8148 12.7792 33.8171 12.7582C33.8189 12.7375 33.8178 12.7179 33.8134 12.6993C33.8099 12.6862 33.8009 12.666 33.7866 12.6386L33.7235 12.5166L33.3648 12.6979L33.3097 12.592ZM33.8158 12.4695L33.9332 12.6961C33.9583 12.7445 33.9829 12.7792 34.0071 12.8014C34.0314 12.8233 34.058 12.8357 34.0875 12.8384C34.1172 12.8412 34.1449 12.8362 34.171 12.8228C34.2092 12.8036 34.2336 12.7743 34.244 12.7342C34.2547 12.6947 34.2446 12.6454 34.2139 12.5868L34.0831 12.3345L33.8158 12.4695ZM33.729 13.3954L34.5559 13.0261L34.7215 13.388C34.7547 13.461 34.7726 13.5195 34.7754 13.5639C34.7778 13.6085 34.7653 13.6504 34.7382 13.6897C34.7108 13.729 34.6745 13.759 34.6292 13.7792C34.5704 13.8054 34.5123 13.8086 34.4548 13.789C34.3974 13.7698 34.3459 13.7232 34.2987 13.6499C34.298 13.6847 34.2943 13.7126 34.2877 13.7333C34.2728 13.7781 34.2499 13.8243 34.2185 13.8719L34.058 14.1138L33.9961 13.9787L34.1189 13.7938C34.1543 13.7402 34.1804 13.6973 34.1976 13.6651C34.2145 13.633 34.2242 13.6064 34.2275 13.5855C34.2306 13.565 34.2304 13.5452 34.227 13.5264C34.2238 13.5133 34.2161 13.4926 34.2031 13.4647L34.1459 13.3396L33.7787 13.5038L33.729 13.3954ZM34.2407 13.2975L34.3466 13.5293C34.3692 13.5789 34.3921 13.6149 34.415 13.638C34.4382 13.6612 34.4642 13.675 34.4937 13.679C34.5231 13.683 34.5508 13.6795 34.5776 13.6673C34.6167 13.6502 34.6427 13.6218 34.6552 13.5825C34.6675 13.5435 34.6598 13.4937 34.6323 13.4336L34.5141 13.1753L34.2407 13.2975ZM34.107 14.2375L34.9512 13.9089L34.9954 14.0197L34.1512 14.3483L34.107 14.2375ZM34.8277 15.1518L34.9286 15.118L35.0515 15.4773L34.733 15.5838C34.6699 15.5436 34.6169 15.4978 34.5741 15.4465C34.5317 15.3953 34.4998 15.3388 34.4785 15.2771C34.4501 15.1937 34.442 15.1122 34.4548 15.0319C34.4677 14.9519 34.5024 14.8828 34.5589 14.8254C34.6154 14.7677 34.6857 14.7248 34.7703 14.6967C34.8537 14.6688 34.9378 14.6597 35.0222 14.67C35.1064 14.6805 35.1772 14.7122 35.2345 14.7651C35.2915 14.8183 35.335 14.8871 35.364 14.9717C35.3849 15.0329 35.3939 15.0918 35.3908 15.148C35.3875 15.2045 35.3726 15.2526 35.3466 15.2927C35.3204 15.3332 35.2805 15.3704 35.2279 15.404L35.1653 15.312C35.2044 15.2848 35.2334 15.2574 35.2521 15.23C35.2706 15.2029 35.2815 15.1693 35.2844 15.1292C35.2873 15.0892 35.2815 15.0477 35.267 15.0046C35.2493 14.9536 35.2262 14.9122 35.1976 14.8798C35.169 14.8477 35.138 14.8248 35.1038 14.8102C35.0704 14.7959 35.0356 14.7876 35.0005 14.7853C34.9398 14.7817 34.8785 14.79 34.8163 14.8107C34.7394 14.8364 34.6798 14.871 34.6369 14.9144C34.5941 14.9575 34.5686 15.0083 34.5605 15.0664C34.5526 15.1246 34.5582 15.1813 34.5772 15.2373C34.5939 15.2859 34.62 15.3302 34.6547 15.37C34.6897 15.4097 34.722 15.4378 34.7519 15.4548L34.913 15.401L34.8277 15.1518ZM34.6282 15.6996L35.5961 15.7857L35.6321 15.911L34.8602 16.5067L34.8227 16.3768L35.0587 16.2029L34.9543 15.84L34.6629 15.8207L34.6282 15.6996ZM35.0578 15.8471L35.1424 16.141L35.3582 15.9832C35.424 15.9353 35.4791 15.8979 35.5227 15.8703C35.4624 15.8743 35.4022 15.8743 35.3411 15.8698L35.0578 15.8471ZM34.8842 16.6013L35.7772 16.4438L35.8477 16.8348C35.862 16.9135 35.8649 16.9744 35.8561 17.0183C35.8475 17.0619 35.8253 17.0996 35.7892 17.1313C35.7528 17.1627 35.7103 17.183 35.6613 17.1915C35.5978 17.2027 35.5407 17.1917 35.4899 17.1589C35.4391 17.126 35.4004 17.0686 35.3732 16.9859C35.3638 17.0197 35.3532 17.0457 35.3415 17.0643C35.3159 17.104 35.2822 17.1431 35.24 17.1817L35.0242 17.3773L34.998 17.2315L35.1627 17.0818C35.2104 17.0385 35.2462 17.0032 35.2708 16.9763C35.2952 16.9491 35.3114 16.9258 35.3198 16.9062C35.3279 16.8872 35.3326 16.8678 35.3337 16.8491C35.3343 16.8355 35.3315 16.8136 35.326 16.7835L35.3016 16.6482L34.9049 16.7182L34.884 16.6012L34.8842 16.6013ZM35.4044 16.6302L35.4495 16.8809C35.4591 16.9342 35.4725 16.9748 35.4888 17.0029C35.5055 17.0307 35.5275 17.0505 35.555 17.0615C35.5824 17.0727 35.6104 17.0758 35.6391 17.0708C35.6813 17.0632 35.7137 17.0422 35.7354 17.0072C35.7574 16.9722 35.7622 16.9221 35.7504 16.8571L35.7 16.5783L35.4044 16.6302ZM35.0548 17.4897L35.955 17.3767L36.0057 17.7706C36.0158 17.85 36.0156 17.9111 36.0046 17.9542C35.9936 17.9973 35.9693 18.0341 35.9317 18.0638C35.8939 18.0936 35.8503 18.1115 35.8007 18.1177C35.7371 18.1256 35.6805 18.1121 35.6314 18.0765C35.5824 18.0416 35.5468 17.9819 35.5238 17.898C35.5128 17.9312 35.5007 17.9569 35.4881 17.9747C35.4605 18.0131 35.4249 18.0508 35.3807 18.0872L35.1554 18.2717L35.1365 18.1247L35.3086 17.9836C35.3585 17.9426 35.3961 17.9093 35.422 17.8834C35.4477 17.8576 35.4651 17.8351 35.4743 17.8161C35.4835 17.7973 35.4892 17.7784 35.4915 17.7594C35.4925 17.746 35.491 17.7239 35.4871 17.6936L35.4699 17.5572L35.0701 17.6075L35.0548 17.4897ZM35.5728 17.5445L35.6051 17.7969C35.6121 17.8506 35.6231 17.8919 35.6383 17.9207C35.6534 17.9493 35.6743 17.9703 35.7013 17.9825C35.7281 17.995 35.7558 17.9995 35.7849 17.9959C35.8275 17.9908 35.8607 17.9711 35.8844 17.9372C35.9077 17.9033 35.9152 17.8536 35.9068 17.7882L35.8706 17.507L35.5728 17.5445ZM35.1743 18.4035L36.0787 18.3353L36.0879 18.454L35.1831 18.5222L35.1743 18.4035ZM22.7424 35.1745L22.7611 35.278L22.3831 35.3447L22.3238 35.0178C22.3735 34.962 22.4271 34.917 22.4849 34.883C22.5425 34.8494 22.6038 34.8264 22.6686 34.815C22.7565 34.7996 22.8394 34.8041 22.918 34.8286C22.9957 34.8527 23.0602 34.8973 23.109 34.9609C23.1583 35.0245 23.191 35.0997 23.2064 35.1863C23.222 35.272 23.2183 35.3552 23.1956 35.4362C23.1726 35.5171 23.1304 35.5814 23.0686 35.6294C23.0071 35.6776 22.9315 35.7095 22.8425 35.7251C22.7781 35.7365 22.7178 35.7365 22.6618 35.7251C22.6058 35.7137 22.5598 35.6919 22.5236 35.6606C22.4873 35.6287 22.4559 35.5845 22.4299 35.5277L22.5315 35.4805C22.553 35.5229 22.5759 35.5549 22.6005 35.5774C22.6249 35.5995 22.657 35.6153 22.6968 35.624C22.7363 35.6329 22.7789 35.6336 22.824 35.6254C22.8778 35.616 22.9229 35.5997 22.9594 35.5763C22.9957 35.5533 23.0235 35.5263 23.0429 35.4953C23.0622 35.4645 23.0757 35.4319 23.0833 35.3982C23.0959 35.3393 23.0967 35.2784 23.0851 35.2144C23.071 35.1356 23.0455 35.072 23.0084 35.0236C22.9715 34.9754 22.9246 34.9429 22.8677 34.9266C22.8106 34.9101 22.7528 34.9071 22.6939 34.9174C22.6427 34.9265 22.5945 34.9451 22.5495 34.973C22.5044 35.0015 22.4713 35.0285 22.4502 35.0555L22.4802 35.2209L22.7424 35.1745ZM22.2246 34.9047L21.9935 35.8369L21.8625 35.8532L21.3818 35.0105L21.5174 34.9933L21.6563 35.2498L22.035 35.2023L22.0979 34.9205L22.2246 34.9047ZM22.0124 35.3021L21.7058 35.3405L21.8313 35.5752C21.8695 35.6466 21.8987 35.7059 21.92 35.7526C21.9247 35.6934 21.9339 35.6343 21.9475 35.5754L22.0124 35.3021ZM21.2835 35.0096L21.3521 35.9032L20.9513 35.9333C20.8706 35.9395 20.8088 35.936 20.7657 35.923C20.7225 35.9101 20.6868 35.8844 20.6585 35.8458C20.6306 35.807 20.6146 35.7632 20.6108 35.714C20.6058 35.6504 20.6225 35.5955 20.6607 35.549C20.6989 35.5022 20.7609 35.4701 20.8466 35.4518C20.8137 35.4391 20.7886 35.4261 20.771 35.4127C20.7335 35.3837 20.6974 35.3463 20.6629 35.3012L20.4877 35.0696L20.637 35.0584L20.7712 35.2354C20.8101 35.2865 20.8418 35.3253 20.8668 35.3523C20.8917 35.379 20.9134 35.3973 20.9321 35.4072C20.9506 35.4172 20.9695 35.4237 20.9886 35.4268C21.0022 35.4288 21.0246 35.4284 21.0554 35.4261L21.1943 35.4156L21.1635 35.0189L21.2835 35.0096ZM21.2018 35.5176L20.9449 35.5372C20.8902 35.5412 20.848 35.55 20.8183 35.5636C20.7884 35.577 20.7664 35.5964 20.7524 35.6225C20.7385 35.6483 20.7324 35.6754 20.7345 35.7043C20.7379 35.7467 20.7557 35.7804 20.789 35.8052C20.822 35.8302 20.8717 35.84 20.9385 35.8351L21.2247 35.8135L21.2018 35.5176ZM20.3701 35.0586L20.393 35.9543L19.991 35.9643C19.9099 35.9665 19.8484 35.96 19.806 35.9447C19.7635 35.9297 19.7293 35.9023 19.7029 35.8623C19.6768 35.8221 19.6631 35.7775 19.662 35.7282C19.6602 35.6648 19.6798 35.6106 19.7205 35.566C19.7609 35.5214 19.8244 35.4922 19.9112 35.4779C19.8789 35.464 19.8541 35.4495 19.8372 35.4353C19.8016 35.4043 19.7673 35.3656 19.7352 35.3186L19.5719 35.0783L19.722 35.0749L19.8468 35.2581C19.8829 35.3114 19.9128 35.3514 19.9363 35.3799C19.9596 35.4078 19.9807 35.427 19.9987 35.438C20.0167 35.4487 20.0352 35.4563 20.0539 35.4603C20.0675 35.4629 20.0899 35.4636 20.1207 35.4629L20.2598 35.4594L20.2497 35.0615L20.3701 35.0586ZM20.2624 35.5618L20.0047 35.5685C19.9501 35.5696 19.9075 35.5763 19.8768 35.5885C19.8464 35.6004 19.8233 35.6187 19.8082 35.6439C19.7926 35.6689 19.7855 35.6959 19.7862 35.7247C19.7873 35.7671 19.8036 35.8019 19.8354 35.8284C19.8669 35.8549 19.9165 35.8674 19.9833 35.8655L20.2701 35.8585L20.2624 35.5618ZM19.4372 35.0548L19.4143 35.9507L19.2939 35.9476L19.3168 35.0519L19.4372 35.0548ZM18.2871 35.3286L18.2737 35.4328L17.8926 35.3849L17.9348 35.0557C17.9992 35.0167 18.0642 34.9895 18.1293 34.9743C18.1948 34.9591 18.2602 34.9553 18.3253 34.9636C18.4139 34.9747 18.4917 35.0035 18.5592 35.0499C18.6264 35.0961 18.6741 35.1573 18.7016 35.2324C18.7293 35.3077 18.7378 35.3893 18.7268 35.4765C18.7154 35.5629 18.6869 35.6414 18.6407 35.7119C18.5943 35.7822 18.5345 35.8313 18.4611 35.8588C18.3877 35.8866 18.3062 35.8949 18.2165 35.8835C18.1515 35.8753 18.0939 35.8578 18.0442 35.8304C17.9943 35.8027 17.9567 35.7686 17.9315 35.7278C17.9064 35.6867 17.8901 35.6354 17.8824 35.5736L17.9935 35.558C18.0014 35.6048 18.0134 35.6425 18.0301 35.6711C18.0469 35.6995 18.0728 35.7238 18.108 35.7441C18.1429 35.7642 18.1835 35.7771 18.2288 35.7829C18.2831 35.7898 18.3312 35.7874 18.3732 35.776C18.4148 35.7648 18.4493 35.7472 18.4772 35.7233C18.5051 35.6997 18.5277 35.6725 18.5453 35.6425C18.575 35.5901 18.5943 35.5319 18.6025 35.4674C18.613 35.388 18.6077 35.3199 18.5869 35.263C18.5662 35.2061 18.5312 35.1611 18.482 35.1289C18.4324 35.0963 18.3781 35.0761 18.3189 35.0687C18.2673 35.0624 18.2156 35.0658 18.1642 35.0794C18.1126 35.093 18.0728 35.1091 18.0446 35.1287L18.0231 35.2954L18.2871 35.3286ZM17.8723 34.933L17.3701 35.7548L17.2401 35.732L17.0359 34.7857L17.1703 34.8092L17.2255 35.095L17.6014 35.1613L17.7468 34.9111L17.8723 34.933ZM17.5499 35.2499L17.2454 35.1963L17.2943 35.4573C17.3088 35.5366 17.319 35.6019 17.325 35.6528C17.3477 35.5973 17.3742 35.5437 17.4051 35.4917L17.5499 35.2499ZM16.9392 34.7704L16.7353 35.6435L16.3436 35.5544C16.2647 35.5364 16.2065 35.5149 16.1693 35.4899C16.1319 35.4649 16.1057 35.4299 16.0904 35.3846C16.0752 35.3393 16.0733 35.2925 16.0844 35.2447C16.0989 35.1827 16.1317 35.1354 16.1821 35.1021C16.2325 35.0687 16.3013 35.0562 16.3889 35.0638C16.3614 35.0421 16.3411 35.0221 16.3283 35.0042C16.3015 34.9654 16.2781 34.9194 16.2588 34.8659L16.1614 34.5932L16.3076 34.6264L16.3822 34.8348C16.4039 34.8953 16.4224 34.9417 16.4382 34.9747C16.4538 35.0075 16.4691 35.0314 16.484 35.0462C16.4987 35.0613 16.5147 35.0732 16.5318 35.0818C16.5443 35.0872 16.5657 35.0937 16.5959 35.1006L16.7315 35.1314L16.8219 34.7438L16.9392 34.7704ZM16.7081 35.2316L16.4569 35.1744C16.4033 35.1622 16.3606 35.1581 16.3279 35.1622C16.2953 35.1662 16.2685 35.1785 16.2475 35.1992C16.226 35.2197 16.2123 35.244 16.2055 35.272C16.1961 35.3134 16.2031 35.3511 16.227 35.3846C16.2512 35.4179 16.2957 35.442 16.3609 35.4571L16.6405 35.5207L16.7081 35.2316ZM16.049 34.5617L15.8012 35.4235L15.4145 35.3152C15.3366 35.2932 15.2797 35.269 15.2437 35.2421C15.2077 35.2153 15.1831 35.1791 15.1703 35.133C15.1576 35.087 15.1578 35.0403 15.1713 34.9931C15.189 34.9319 15.2239 34.8859 15.2762 34.8551C15.3281 34.8244 15.3976 34.8154 15.4844 34.8273C15.4579 34.8041 15.4391 34.7835 15.427 34.7648C15.4021 34.7248 15.3812 34.6776 15.3648 34.6233L15.2811 34.3462L15.4256 34.3866L15.4893 34.5984C15.5079 34.6597 15.5243 34.707 15.5383 34.7407C15.5523 34.7744 15.5663 34.7989 15.5805 34.8148C15.5942 34.8304 15.6097 34.8429 15.6266 34.8523C15.6386 34.8587 15.6596 34.8661 15.6896 34.8744L15.8232 34.912L15.9332 34.529L16.049 34.5617ZM15.7949 35.0109L15.5469 34.9413C15.494 34.9265 15.4513 34.9203 15.4186 34.923C15.386 34.9254 15.3585 34.9361 15.3363 34.9556C15.3141 34.9752 15.2988 34.9986 15.2909 35.0267C15.2793 35.0671 15.2844 35.1053 15.3068 35.1398C15.329 35.1744 15.3724 35.2005 15.4369 35.2188L15.7127 35.2961L15.7949 35.0109ZM15.1558 34.296L14.865 35.1448L14.7509 35.1066L15.0417 34.2579L15.1558 34.296ZM13.9864 34.2425L13.9473 34.3404L13.59 34.2012L13.7133 33.8922C13.7854 33.8705 13.8551 33.8602 13.9222 33.8611C13.9893 33.862 14.0535 33.8743 14.1147 33.8984C14.1977 33.9305 14.266 33.9772 14.3198 34.039C14.3734 34.0999 14.4042 34.1709 14.4122 34.2505C14.4204 34.3304 14.4081 34.4112 14.3755 34.493C14.3432 34.574 14.2959 34.643 14.2334 34.6999C14.1707 34.757 14.1007 34.7898 14.0225 34.7989C13.9446 34.8079 13.8635 34.796 13.7793 34.7632C13.7185 34.7396 13.6672 34.7084 13.6256 34.6695C13.5841 34.6305 13.5564 34.5885 13.5422 34.543C13.5282 34.497 13.525 34.4431 13.533 34.3815L13.6446 34.3935C13.6403 34.4408 13.6427 34.4803 13.6516 34.512C13.6608 34.5437 13.6798 34.5734 13.7091 34.6015C13.738 34.6296 13.7737 34.6521 13.8164 34.6688C13.8673 34.6885 13.9143 34.6979 13.9578 34.697C14.0009 34.6961 14.0388 34.6878 14.0719 34.6715C14.1046 34.6554 14.1336 34.6347 14.158 34.6097C14.2002 34.5662 14.2333 34.5144 14.2574 34.4542C14.2871 34.3797 14.2991 34.3123 14.2931 34.252C14.2873 34.1918 14.2644 34.1398 14.2248 34.0965C14.1851 34.0528 14.1375 34.0202 14.0818 33.9984C14.0336 33.9798 13.9826 33.9707 13.9293 33.9711C13.8757 33.9721 13.8332 33.9779 13.801 33.9899L13.7387 34.1459L13.9864 34.2425ZM13.6868 33.7476L12.9635 34.3884L12.8459 34.329L12.9306 33.3651L13.0522 33.4265L13.0203 33.7155L13.3603 33.8877L13.5733 33.6902L13.6868 33.7476ZM13.2846 33.9575L13.0095 33.8183L12.9788 34.0821C12.9694 34.1622 12.9598 34.2273 12.9504 34.278C12.9885 34.2315 13.0298 34.188 13.0747 34.1468L13.2846 33.9575ZM12.8397 33.3279L12.3876 34.1046L12.039 33.9067C11.9688 33.8669 11.9196 33.8297 11.8914 33.7949C11.8629 33.7605 11.8482 33.7192 11.847 33.6715C11.8457 33.624 11.8576 33.5787 11.8824 33.5359C11.9145 33.4809 11.9596 33.445 12.018 33.4274C12.0759 33.41 12.1454 33.418 12.2269 33.4504C12.2069 33.4218 12.1937 33.3968 12.1867 33.3759C12.1722 33.3312 12.1635 33.2804 12.1609 33.2237L12.1481 32.9348L12.2782 33.0088L12.2879 33.2295C12.291 33.2935 12.2953 33.3433 12.3004 33.3794C12.3057 33.4151 12.3131 33.4424 12.3231 33.4611C12.3328 33.4796 12.3448 33.4955 12.3585 33.5086C12.3687 33.5175 12.3875 33.53 12.4142 33.5452L12.5349 33.6135L12.7356 33.2685L12.8397 33.3279ZM12.4829 33.7027L12.2595 33.5758C12.2117 33.5486 12.1719 33.5327 12.1396 33.5271C12.1073 33.5216 12.0779 33.5256 12.0517 33.5392C12.0252 33.5526 12.0047 33.5718 11.9903 33.597C11.969 33.634 11.9645 33.6717 11.9777 33.7108C11.9907 33.7498 12.0264 33.7857 12.0846 33.8187L12.3331 33.9598L12.4829 33.7027ZM12.047 32.8768L11.5572 33.6313L11.2187 33.4171C11.1506 33.3736 11.1033 33.3344 11.0766 33.2984C11.0501 33.2623 11.0372 33.2204 11.0382 33.1728C11.0394 33.1255 11.0534 33.0805 11.0804 33.0392C11.1151 32.9856 11.162 32.9517 11.221 32.9372C11.2797 32.9225 11.3489 32.9338 11.4285 32.97C11.4099 32.9405 11.3978 32.9149 11.3918 32.8937C11.3798 32.8484 11.3735 32.7973 11.3735 32.7406L11.3747 32.4513L11.5011 32.5314L11.5002 32.7523C11.4999 32.8163 11.5019 32.8665 11.5052 32.9028C11.5088 32.9386 11.5151 32.9664 11.524 32.9854C11.5327 33.0044 11.5437 33.0209 11.557 33.0347C11.5669 33.0443 11.5847 33.057 11.611 33.0737L11.7278 33.1476L11.9455 32.8125L12.047 32.8768ZM11.672 33.234L11.4551 33.0967C11.4087 33.0675 11.3697 33.0494 11.3376 33.0425C11.3055 33.0356 11.2761 33.038 11.2493 33.0503C11.2222 33.0626 11.201 33.0809 11.1851 33.1054C11.1619 33.1409 11.1556 33.1786 11.167 33.2183C11.1781 33.2578 11.2119 33.2953 11.2684 33.3308L11.5098 33.4838L11.672 33.234ZM11.2671 32.3712L10.7412 33.1016L10.643 33.0327L11.169 32.3024L11.2671 32.3712ZM10.1604 31.9912L10.0948 32.0739L9.79276 31.8395L10.0005 31.5784C10.0758 31.578 10.1457 31.5875 10.2097 31.6076C10.2736 31.6275 10.3315 31.6576 10.3834 31.6976C10.4533 31.7522 10.5052 31.8162 10.539 31.8906C10.5725 31.9642 10.5817 32.0411 10.5662 32.1193C10.5508 32.1984 10.5155 32.2721 10.4606 32.3413C10.4061 32.4098 10.3409 32.4626 10.2642 32.4997C10.1879 32.5365 10.1112 32.5483 10.0337 32.5345C9.95656 32.5213 9.88221 32.4869 9.81105 32.4318C9.75966 32.3917 9.71938 32.3471 9.69092 32.2984C9.66246 32.2495 9.64799 32.2013 9.64773 32.1534C9.64749 32.1056 9.66026 32.0528 9.68588 31.9961L9.78918 32.0392C9.77153 32.0835 9.76241 32.1217 9.76167 32.1549C9.76144 32.1878 9.77087 32.2217 9.79063 32.2569C9.81015 32.2919 9.83813 32.3238 9.87408 32.3519C9.91703 32.3852 9.95947 32.4073 10.0015 32.4191C10.0432 32.4305 10.0818 32.4329 10.1182 32.4267C10.1544 32.4205 10.1879 32.4088 10.2186 32.3919C10.2715 32.362 10.3182 32.3218 10.3587 32.2708C10.4089 32.208 10.4398 32.1469 10.4519 32.0873C10.4637 32.028 10.4567 31.9718 10.4314 31.9189C10.4061 31.866 10.3699 31.8212 10.3228 31.7848C10.282 31.7531 10.2357 31.7299 10.1845 31.7154C10.1331 31.7009 10.0907 31.6949 10.0562 31.6971L9.95127 31.829L10.1604 31.9912ZM10.0135 31.4361L9.13551 31.8477L9.03995 31.7576L9.39845 30.8575L9.49736 30.9505L9.38373 31.2187L9.66019 31.4789L9.92101 31.3495L10.0135 31.4361ZM9.56738 31.5246L9.34371 31.314L9.23856 31.5583C9.20643 31.6328 9.17844 31.6922 9.15487 31.7382C9.20479 31.7043 9.25694 31.6741 9.31168 31.6474L9.56738 31.5246ZM9.32054 30.7977L9.32041 30.7978L9.23749 30.7118L8.94584 30.9865L8.85002 30.8872C8.82856 30.8648 8.81434 30.8481 8.80709 30.8367C8.79742 30.82 8.79067 30.8013 8.78659 30.7812C8.78278 30.7604 8.78325 30.7321 8.78854 30.696C8.79391 30.6602 8.804 30.6112 8.81945 30.5491L8.87345 30.3347L8.76991 30.2274L8.69923 30.5077C8.68575 30.563 8.67947 30.6143 8.68046 30.6612C8.68094 30.6832 8.68679 30.7105 8.69762 30.7437C8.62889 30.6897 8.56448 30.6629 8.50388 30.6631C8.44305 30.6636 8.38929 30.6855 8.34268 30.7294C8.30648 30.7634 8.28234 30.8033 8.2698 30.8493C8.25729 30.8954 8.25964 30.9391 8.27679 30.9802C8.29421 31.0215 8.33065 31.0708 8.38659 31.1288L8.66402 31.416L9.32041 30.7978L9.32046 30.7979L9.32054 30.7977ZM8.87085 31.0572L8.69307 30.8729C8.65492 30.8336 8.6214 30.8071 8.59197 30.7928C8.56252 30.7783 8.53333 30.7741 8.50413 30.7798C8.47492 30.7852 8.44988 30.7979 8.42865 30.818C8.39775 30.8472 8.38254 30.8825 8.38401 30.9235C8.38545 30.9644 8.40929 31.0088 8.45542 31.0567L8.65345 31.2618L8.87085 31.0572ZM8.68843 30.1442L8.00256 30.731L7.73936 30.4307C7.68624 30.3704 7.65226 30.3191 7.63705 30.2774C7.62184 30.2354 7.62158 30.1917 7.63632 30.1464C7.65103 30.1011 7.67707 30.0621 7.71496 30.0299C7.76344 29.9882 7.81824 29.9688 7.87901 29.9712C7.9396 29.9739 8.00256 30.0036 8.06867 30.0607C8.05923 30.0271 8.05518 29.9992 8.05542 29.9773C8.05689 29.9304 8.06558 29.8796 8.08169 29.8253L8.16562 29.5482L8.26378 29.6602L8.19986 29.872C8.18133 29.9333 8.16872 29.9817 8.16147 30.0174C8.15472 30.0531 8.15278 30.0812 8.15569 30.1022C8.15887 30.1227 8.16465 30.1415 8.1736 30.1584C8.1801 30.1703 8.1936 30.1881 8.21386 30.2111L8.30503 30.3147L8.60953 30.0543L8.68843 30.1442ZM8.22637 30.382L8.05769 30.1897C8.02175 30.1487 7.98945 30.1207 7.9605 30.1049C7.93178 30.0891 7.90283 30.0835 7.8734 30.088C7.84421 30.092 7.81841 30.1034 7.79646 30.1225C7.76391 30.1502 7.74701 30.1846 7.74652 30.2256C7.74602 30.2667 7.76775 30.3122 7.81166 30.3622L7.99938 30.5762L8.22637 30.382ZM8.0838 29.4425L7.37035 29.9963L7.29602 29.9026L8.00945 29.3492L8.0838 29.4425ZM7.12986 28.7702L7.043 28.8311L6.82056 28.5221L7.09465 28.3295C7.16703 28.3499 7.2312 28.3788 7.28667 28.4157C7.34237 28.4527 7.38947 28.4978 7.42753 28.5507C7.47918 28.6227 7.5105 28.6986 7.52164 28.7793C7.5327 28.8594 7.51969 28.9353 7.48228 29.0063C7.44487 29.0776 7.39012 29.1388 7.31749 29.1895C7.2456 29.2401 7.16768 29.2724 7.08399 29.2865C7.0003 29.3008 6.92303 29.2905 6.85285 29.2559C6.78241 29.2214 6.72109 29.1678 6.66879 29.0949C6.63065 29.0422 6.60487 28.9884 6.5916 28.9337C6.57835 28.8788 6.57835 28.8286 6.59184 28.7825C6.60511 28.7365 6.63235 28.6897 6.67318 28.6421L6.76004 28.7124C6.73035 28.7499 6.71059 28.7842 6.70043 28.8155C6.69074 28.847 6.69026 28.8824 6.69896 28.9217C6.70791 28.9607 6.72547 28.9989 6.75208 29.0357C6.78371 29.0795 6.81795 29.1129 6.85487 29.1359C6.89156 29.1582 6.92799 29.1716 6.96492 29.1756C7.00136 29.1799 7.03681 29.1779 7.07105 29.1703C7.13043 29.1566 7.18663 29.1312 7.24015 29.0935C7.30626 29.0471 7.35327 28.9973 7.38175 28.9436C7.41021 28.89 7.41964 28.834 7.41046 28.7764C7.40127 28.7184 7.37931 28.6653 7.34483 28.6171C7.31465 28.5754 7.277 28.5404 7.23193 28.512C7.18679 28.4839 7.14775 28.4659 7.11417 28.4587L6.97542 28.5558L7.12986 28.7702ZM7.16362 28.1872L6.21186 28.3815L6.1407 28.2718L6.70522 27.481L6.77883 27.5946L6.60388 27.8288L6.81013 28.1461L7.09481 28.0816L7.16362 28.1872ZM6.70905 28.1689L6.54232 27.9118L6.38136 28.1247C6.33239 28.1892 6.29092 28.2405 6.25685 28.2795C6.31353 28.2583 6.37144 28.241 6.43105 28.228L6.70905 28.1689ZM6.66155 27.3935L5.854 27.8019L5.67068 27.4486C5.634 27.3773 5.61325 27.3197 5.60846 27.2753C5.60391 27.2309 5.61399 27.1885 5.63936 27.1479C5.66467 27.1073 5.69947 27.0756 5.7438 27.0531C5.80098 27.0241 5.85889 27.0182 5.91727 27.0348C5.97567 27.0515 6.02944 27.0955 6.07986 27.1666C6.07889 27.1318 6.08156 27.1037 6.08711 27.0825C6.09988 27.0372 6.12037 26.9901 6.14933 26.941L6.29791 26.6918L6.36615 26.8237L6.25278 27.014C6.22001 27.0693 6.19608 27.1135 6.18063 27.1463C6.16518 27.1791 6.15648 27.2064 6.15461 27.2273C6.15241 27.2481 6.15364 27.2675 6.15802 27.2862C6.1616 27.2992 6.17079 27.3195 6.18478 27.3467L6.24823 27.469L6.60672 27.2876L6.66155 27.3935ZM6.15558 27.5158L6.03806 27.2894C6.01292 27.2411 5.98861 27.2063 5.96421 27.1842C5.9403 27.1622 5.91329 27.1495 5.88386 27.147C5.85441 27.1443 5.82667 27.1494 5.80041 27.1624C5.7625 27.1818 5.73769 27.2113 5.72729 27.251C5.71663 27.2909 5.72705 27.3398 5.75745 27.3987L5.88824 27.6512L6.15558 27.5158ZM6.24098 26.5905L5.41415 26.9596L5.24865 26.5979C5.21538 26.5249 5.19725 26.4663 5.19481 26.4221C5.19237 26.3775 5.20472 26.3355 5.23197 26.296C5.25922 26.257 5.29542 26.2269 5.34103 26.2066C5.39968 26.1806 5.45758 26.1775 5.51525 26.1969C5.57243 26.2163 5.62432 26.2626 5.67109 26.336C5.67182 26.3012 5.67589 26.2733 5.68239 26.2525C5.69736 26.2079 5.7203 26.1617 5.7516 26.114L5.91208 25.8721L5.97404 26.0073L5.85123 26.1921C5.81578 26.2454 5.78975 26.2886 5.77259 26.3208C5.75567 26.3529 5.74584 26.3795 5.74267 26.4004C5.73949 26.4209 5.73973 26.4408 5.74314 26.4593C5.74632 26.4725 5.75397 26.4932 5.76681 26.5211L5.82424 26.6463L6.19145 26.4821L6.24098 26.5905ZM5.72949 26.6885L5.62334 26.4566C5.6009 26.4071 5.57797 26.371 5.55487 26.348C5.53193 26.3248 5.50589 26.311 5.47646 26.3069C5.44701 26.3027 5.41929 26.3065 5.39228 26.3183C5.3534 26.3359 5.32714 26.3641 5.31485 26.4035C5.30257 26.4424 5.3103 26.4921 5.33779 26.5524L5.45604 26.8107L5.72949 26.6885ZM5.86197 25.7489L5.01782 26.0776L4.97366 25.9671L5.81756 25.6382L5.86197 25.7489ZM5.13991 24.8352L5.03905 24.8689L4.916 24.5097L5.2345 24.4031C5.29793 24.4435 5.35105 24.4892 5.39349 24.5403C5.43595 24.5916 5.46808 24.6481 5.48907 24.7098C5.51777 24.7931 5.52551 24.875 5.51274 24.9551C5.50021 25.0351 5.46523 25.1041 5.4087 25.1615C5.3525 25.2192 5.28184 25.2621 5.19756 25.2902C5.11413 25.3181 5.03012 25.3272 4.94569 25.3169C4.86127 25.3063 4.79059 25.275 4.73342 25.2219C4.67599 25.1686 4.63279 25.0998 4.60384 25.0151C4.58287 24.954 4.57367 24.8952 4.57685 24.8388C4.58026 24.7824 4.5949 24.7342 4.62101 24.6942C4.64727 24.6538 4.68712 24.6168 4.73967 24.5829L4.80263 24.675C4.76325 24.7022 4.73439 24.7295 4.71551 24.7569C4.69722 24.7841 4.68632 24.8176 4.68338 24.858C4.68023 24.8977 4.68608 24.9394 4.70079 24.9823C4.71845 25.0332 4.74129 25.0747 4.77024 25.1072C4.79872 25.1393 4.82962 25.1623 4.86362 25.1766C4.89738 25.1909 4.93186 25.1992 4.96716 25.2016C5.02775 25.2052 5.08923 25.1969 5.15145 25.1762C5.22815 25.1505 5.288 25.1161 5.33072 25.0726C5.37366 25.0294 5.39894 24.9787 5.40692 24.9207C5.41489 24.8624 5.40936 24.8056 5.39024 24.7496C5.37358 24.7011 5.34778 24.6567 5.31281 24.617C5.27784 24.5771 5.24547 24.549 5.21562 24.5322L5.05467 24.5862L5.13991 24.8352ZM5.33819 24.2875L4.37026 24.2018L4.33432 24.0764L5.10615 23.4805L5.14356 23.6103L4.90762 23.7843L5.01206 24.1474L5.30347 24.1666L5.33819 24.2875ZM4.90852 24.14L4.8241 23.8464L4.60815 24.0043C4.54228 24.0517 4.48731 24.0894 4.44362 24.1172C4.50397 24.1128 4.56424 24.1132 4.62533 24.1175L4.90852 24.14ZM5.09793 23.3829L4.21395 23.5844L4.12349 23.1975C4.10544 23.1195 4.09958 23.0588 4.10586 23.0144C4.11235 22.9706 4.13285 22.9318 4.16734 22.8985C4.20182 22.8653 4.24331 22.8428 4.29186 22.832C4.35456 22.8176 4.41223 22.8256 4.46461 22.8561C4.51698 22.8863 4.5587 22.9418 4.5901 23.0228C4.59758 22.9889 4.60701 22.9622 4.6176 22.9432C4.64125 22.9021 4.67307 22.8615 4.71316 22.8207L4.91868 22.6148L4.95219 22.7591L4.79538 22.9164C4.74975 22.9622 4.71577 22.9992 4.69257 23.0275C4.66964 23.0558 4.65468 23.0797 4.6472 23.0996C4.64021 23.1192 4.63654 23.1388 4.63613 23.1576C4.63663 23.1712 4.64021 23.1929 4.64696 23.2227L4.67835 23.3566L5.07085 23.2672L5.09793 23.3829ZM4.57709 23.3796L4.51918 23.1315C4.5069 23.0786 4.49169 23.0391 4.47355 23.0117C4.45566 22.9845 4.43281 22.9659 4.40483 22.9564C4.37685 22.9467 4.34887 22.9449 4.32015 22.9516C4.27845 22.961 4.24729 22.9835 4.22727 23.0197C4.20727 23.0556 4.20483 23.106 4.22004 23.1703L4.28446 23.4465L4.57709 23.3796ZM4.90786 22.4985L4.00767 22.6114L3.95701 22.2176C3.94685 22.1382 3.94709 22.077 3.95799 22.0339C3.96881 21.9907 3.9932 21.9539 4.03087 21.9242C4.06852 21.8947 4.11219 21.8766 4.16164 21.8704C4.22556 21.8624 4.28202 21.876 4.33122 21.9115C4.38019 21.9469 4.41564 22.0061 4.43883 22.09C4.44964 22.0571 4.462 22.0311 4.47454 22.0134C4.50202 21.975 4.53773 21.9373 4.58164 21.9012L4.80725 21.7165L4.82604 21.8635L4.65378 22.0045C4.6041 22.0455 4.56643 22.079 4.54065 22.1049C4.51463 22.1306 4.49722 22.1529 4.48802 22.1721C4.47909 22.1908 4.47331 22.2098 4.47111 22.2288C4.46989 22.2421 4.47136 22.2644 4.47542 22.2946L4.49283 22.4309L4.89257 22.3809L4.90786 22.4985ZM4.38986 22.4436L4.35733 22.1913C4.35034 22.1375 4.33927 22.0962 4.32406 22.0674C4.30911 22.0387 4.28812 22.0179 4.26136 22.0058C4.23459 21.9931 4.20663 21.9885 4.17767 21.9922C4.13522 21.9976 4.10195 22.017 4.07828 22.0511C4.05485 22.0848 4.04738 22.1344 4.05584 22.2L4.09202 22.4811L4.38986 22.4436ZM4.7901 21.5844L3.88991 21.6973L3.87494 21.5794L4.77489 21.4664L4.7901 21.5844ZM4.36043 20.5016L4.25404 20.504L4.24435 20.1249L4.58043 20.1165C4.62865 20.1734 4.66582 20.2327 4.69096 20.2941C4.71624 20.3556 4.72984 20.4186 4.73145 20.4837C4.73366 20.5719 4.71674 20.6522 4.6803 20.7251C4.64412 20.7976 4.59035 20.8536 4.51911 20.8918C4.44793 20.9304 4.36758 20.9509 4.27876 20.9529C4.19045 20.955 4.10773 20.9391 4.03004 20.9047C3.95263 20.8701 3.89446 20.8189 3.85584 20.7517C3.81696 20.6843 3.79646 20.6058 3.7941 20.5165C3.79265 20.4518 3.80158 20.3927 3.8216 20.3402C3.8416 20.2872 3.87008 20.2456 3.907 20.2148C3.94417 20.184 3.99336 20.1602 4.05397 20.1434L4.08624 20.2496C4.04037 20.264 4.00468 20.2816 3.97841 20.3025C3.95263 20.3229 3.9323 20.3521 3.9174 20.3895C3.90268 20.4268 3.89545 20.4681 3.89667 20.5134C3.89813 20.5672 3.90773 20.6138 3.92538 20.6531C3.94303 20.6921 3.96588 20.7231 3.99386 20.747C4.02184 20.7706 4.05226 20.7885 4.08503 20.801C4.14197 20.8224 4.20305 20.8324 4.26885 20.8305C4.34993 20.8287 4.4172 20.8131 4.47127 20.7843C4.52512 20.7555 4.56465 20.7146 4.58978 20.6616C4.61467 20.6084 4.62646 20.5522 4.62523 20.4935C4.62377 20.442 4.61223 20.3922 4.59123 20.3438C4.56953 20.2958 4.54707 20.2592 4.52366 20.2343L4.35358 20.2387L4.36043 20.5016ZM4.70177 20.0368L3.80355 19.6704L3.80696 19.5403L4.72323 19.1979L4.71982 19.3329L4.44215 19.4299L4.43248 19.807L4.70487 19.9108L4.70177 20.0368ZM4.33602 19.7697L4.34375 19.4645L4.08991 19.5517C4.01272 19.5779 3.94905 19.5977 3.89887 19.6111C3.95775 19.6249 4.01542 19.6428 4.0721 19.6649L4.33602 19.7697ZM4.73098 19.1017L3.82623 19.0339L3.85689 18.6376C3.8629 18.558 3.87567 18.4982 3.89503 18.458C3.91456 18.4178 3.94571 18.3868 3.9889 18.365C4.03184 18.3437 4.07821 18.3344 4.12789 18.3384C4.19206 18.3431 4.24468 18.3679 4.28544 18.4122C4.32643 18.4566 4.34912 18.522 4.35465 18.6082C4.3723 18.578 4.38938 18.5557 4.40531 18.5405C4.44004 18.5086 4.4825 18.4788 4.53316 18.4518L4.79156 18.3157L4.78026 18.4634L4.58287 18.5673C4.52569 18.5977 4.482 18.6229 4.45134 18.643C4.42068 18.6633 4.39922 18.682 4.38621 18.6987C4.37367 18.7153 4.36424 18.7327 4.35823 18.7509C4.35441 18.7639 4.35123 18.7856 4.34879 18.8161L4.33813 18.9531L4.74008 18.9832L4.73098 19.1017ZM4.23468 18.9453L4.25421 18.6914C4.25826 18.6374 4.25591 18.595 4.24696 18.5637C4.23802 18.5325 4.22167 18.508 4.198 18.4906C4.1741 18.4729 4.14782 18.4629 4.11863 18.4607C4.07591 18.4576 4.03923 18.4701 4.00931 18.4984C3.97938 18.527 3.96206 18.5742 3.95694 18.6401L3.93522 18.9228L4.23468 18.9453ZM4.81254 18.2018L3.91235 18.0889L3.96303 17.6947C3.97344 17.6153 3.98905 17.5564 4.01054 17.5173C4.03201 17.478 4.06478 17.4486 4.1087 17.429C4.15287 17.4097 4.19962 17.4031 4.24907 17.4093C4.31301 17.4171 4.36417 17.4445 4.40256 17.491C4.44144 17.537 4.4607 17.6034 4.46193 17.6902C4.48096 17.6608 4.49909 17.6392 4.51577 17.6246C4.55221 17.5943 4.59611 17.5669 4.64826 17.5427L4.91316 17.4195L4.89437 17.5664L4.69169 17.6606C4.63305 17.688 4.58815 17.7112 4.55659 17.7297C4.5252 17.7483 4.50259 17.7657 4.48876 17.7819C4.47525 17.7978 4.46485 17.8148 4.4581 17.8326C4.45355 17.8453 4.4494 17.867 4.44558 17.8975L4.42793 18.0336L4.82767 18.0838L4.81254 18.2018ZM4.32496 18.0207L4.35725 17.7681C4.36424 17.7143 4.364 17.6719 4.35652 17.6402C4.34903 17.6084 4.33406 17.5834 4.31138 17.5648C4.28845 17.5459 4.26267 17.5347 4.23371 17.5311C4.19101 17.526 4.15384 17.5363 4.12245 17.5635C4.09105 17.5905 4.07153 17.6367 4.06307 17.7021L4.02689 17.9832L4.32496 18.0207ZM4.95032 17.2906L4.05714 17.1331L4.07835 17.0159L4.97155 17.1737L4.95032 17.2906ZM4.83476 16.1414L4.83452 16.1413L4.89437 15.8852L5.06012 15.9229C5.07679 15.9527 5.08907 15.9934 5.09778 16.0456C5.10624 16.0975 5.10478 16.1485 5.09322 16.1986C5.07971 16.2562 5.05419 16.3074 5.01628 16.3527C4.97863 16.3979 4.93015 16.428 4.87054 16.4425C4.81116 16.4571 4.74195 16.4554 4.66305 16.4376C4.59889 16.4228 4.54245 16.3982 4.4925 16.3636C4.46378 16.3434 4.4389 16.3184 4.41791 16.2889C4.3967 16.2588 4.38246 16.2231 4.37522 16.1809C4.36799 16.1385 4.37043 16.0913 4.3827 16.0386C4.39312 15.9945 4.41019 15.9561 4.43386 15.9238C4.45802 15.8909 4.48501 15.868 4.5152 15.8544C4.54562 15.841 4.58498 15.8328 4.63272 15.8299L4.62841 15.7191C4.56538 15.7205 4.51186 15.7315 4.46819 15.7522C4.42452 15.7727 4.38637 15.8061 4.35358 15.8523C4.32105 15.8985 4.29738 15.9533 4.28267 16.0162C4.26241 16.1035 4.26241 16.1845 4.28316 16.2593C4.3034 16.3341 4.34709 16.3977 4.4132 16.4501C4.47956 16.5028 4.55578 16.5388 4.64167 16.5586C4.72828 16.5784 4.81125 16.5784 4.88989 16.5586C4.9683 16.5391 5.03457 16.498 5.08793 16.4368C5.14178 16.3751 5.17846 16.3015 5.19846 16.2157C5.21318 16.1523 5.21611 16.0877 5.20742 16.0219C5.1983 15.9564 5.17749 15.8899 5.14496 15.8227L4.81734 15.7482L4.73098 16.1177L4.83452 16.1413L4.8345 16.1414L4.83476 16.1414ZM5.29314 15.777L4.54522 15.1641L4.58766 15.0406L5.56551 14.9822L5.5216 15.1102L5.22751 15.1214L5.10494 15.4786L5.33388 15.6578L5.29314 15.777ZM5.02393 15.415L5.12307 15.1258L4.85426 15.1346C4.77268 15.137 4.70617 15.1373 4.65402 15.1354C4.70617 15.1659 4.75586 15.1997 4.8036 15.2376L5.02393 15.415ZM5.59188 14.8891L4.74797 14.5605L4.89534 14.1909C4.92503 14.1165 4.9552 14.0632 4.98555 14.0304C5.01621 13.9977 5.05523 13.9772 5.10281 13.9691C5.15032 13.961 5.19742 13.966 5.24369 13.9839C5.30378 14.0073 5.3465 14.0463 5.37228 14.1007C5.39806 14.1548 5.4005 14.2239 5.37975 14.3083C5.40555 14.2844 5.42848 14.2678 5.44824 14.258C5.49118 14.2375 5.54063 14.2215 5.59707 14.2106L5.88467 14.1558L5.82969 14.2938L5.60993 14.3355C5.54624 14.3477 5.49703 14.3591 5.46182 14.3696C5.42661 14.3801 5.40034 14.3913 5.38292 14.4036C5.36577 14.4158 5.35178 14.4298 5.34046 14.4453C5.333 14.4565 5.32356 14.4766 5.31224 14.5049L5.26109 14.6327L5.63602 14.7787L5.59188 14.8891ZM5.16439 14.5951L5.25922 14.3582C5.27923 14.3076 5.28964 14.2664 5.29037 14.2338C5.29111 14.2014 5.28289 14.1736 5.26523 14.1497C5.24784 14.1261 5.22571 14.109 5.19839 14.0982C5.15861 14.0827 5.11973 14.0839 5.08257 14.1025C5.04564 14.1208 5.01498 14.1611 4.99043 14.2226L4.88525 14.4861L5.16439 14.5951ZM5.93061 14.0494L5.1038 13.6803L5.26955 13.3183C5.30281 13.2456 5.33567 13.1935 5.36771 13.1625C5.4 13.1312 5.4401 13.1127 5.48784 13.1067C5.53584 13.101 5.58243 13.1082 5.62782 13.1284C5.68646 13.1546 5.72745 13.1957 5.75039 13.2512C5.77356 13.3064 5.77259 13.3755 5.74769 13.4587C5.77446 13.4363 5.79837 13.4208 5.81863 13.4121C5.86254 13.3937 5.91272 13.3802 5.96966 13.3718L6.25944 13.3311L6.19771 13.4662L5.97624 13.4975C5.91208 13.5065 5.86237 13.5155 5.82667 13.5241C5.79098 13.533 5.76421 13.5429 5.74608 13.5547C5.72843 13.5658 5.71379 13.579 5.70168 13.5939C5.69369 13.6048 5.68312 13.6242 5.67028 13.6521L5.61309 13.7774L5.98006 13.9411L5.93061 14.0494ZM5.51826 13.7348L5.62441 13.503C5.64709 13.4534 5.65938 13.4127 5.66182 13.3803C5.66426 13.3481 5.65751 13.3195 5.64107 13.2952C5.62489 13.2706 5.60342 13.2523 5.5769 13.2404C5.53779 13.223 5.49923 13.2223 5.46109 13.239C5.42318 13.2557 5.39065 13.2942 5.36292 13.3545L5.24467 13.6126L5.51826 13.7348ZM6.32623 13.2151L5.5185 12.8067L5.57349 12.7009L6.38103 13.1093L6.32623 13.2151ZM6.54914 12.0797L6.457 12.0272L6.6483 11.6986L6.93971 11.864C6.95101 11.9377 6.95149 12.0072 6.94068 12.0725C6.93002 12.1381 6.90815 12.1988 6.87529 12.2553C6.83089 12.3317 6.77395 12.3916 6.7045 12.4352C6.63553 12.4786 6.55997 12.4986 6.47912 12.4946C6.39804 12.491 6.31865 12.4672 6.24147 12.4233C6.16501 12.3799 6.10272 12.3237 6.05474 12.2541C6.007 12.1851 5.98406 12.1116 5.98665 12.034C5.98885 11.9565 6.01245 11.8791 6.05782 11.8016C6.09035 11.7457 6.12898 11.6999 6.17388 11.6651C6.21901 11.6301 6.26531 11.6091 6.31312 11.602C6.36087 11.5948 6.41544 11.5998 6.47595 11.6165L6.44773 11.7237C6.40096 11.7128 6.36111 11.7094 6.32784 11.7134C6.29507 11.718 6.26221 11.732 6.22991 11.7563C6.19764 11.7807 6.16982 11.8123 6.14696 11.8517C6.11995 11.8984 6.10353 11.9429 6.09801 11.9856C6.09246 12.028 6.09556 12.0664 6.1072 12.101C6.1185 12.1355 6.13492 12.1665 6.15639 12.1941C6.1938 12.2415 6.24081 12.2816 6.29775 12.3137C6.36793 12.3537 6.43358 12.3752 6.49514 12.3783C6.55613 12.3815 6.61169 12.3667 6.6609 12.3342C6.71035 12.3016 6.74995 12.2598 6.77956 12.2087C6.80558 12.1643 6.82202 12.1157 6.82925 12.0638C6.83624 12.0113 6.8365 11.9689 6.82925 11.9356L6.68188 11.8519L6.54914 12.0797ZM7.08692 11.858L6.54914 11.0586L6.6256 10.9524L7.57905 11.1742L7.49991 11.2843L7.21501 11.2113L6.99355 11.5187L7.16076 11.7554L7.08692 11.858ZM6.93467 11.4346L7.11367 11.1859L6.85382 11.118C6.77492 11.097 6.711 11.0782 6.66178 11.0618C6.70278 11.1058 6.74045 11.1525 6.77516 11.2021L6.93467 11.4346ZM35.7054 19.4844L35.599 19.4872L35.6058 19.7499L35.4361 19.7541C35.4124 19.7293 35.3899 19.6929 35.3684 19.6446C35.3473 19.5964 35.3357 19.5466 35.3344 19.4951C35.333 19.4362 35.3447 19.3802 35.3699 19.3271C35.3948 19.2739 35.4346 19.2329 35.4882 19.2041C35.5421 19.1753 35.6095 19.1599 35.6906 19.1579C35.7565 19.1563 35.8174 19.1662 35.8744 19.1874C35.9071 19.2001 35.9377 19.2179 35.9656 19.2416C35.9935 19.2654 36.0165 19.2963 36.0341 19.3355C36.0517 19.3748 36.0612 19.4212 36.0627 19.475C36.064 19.5203 36.0568 19.5618 36.042 19.599C36.0271 19.6365 36.0067 19.6655 35.981 19.686C35.9548 19.7068 35.919 19.7244 35.8733 19.7389L35.9056 19.8453C35.966 19.8282 36.0152 19.8045 36.0524 19.7737C36.0893 19.7432 36.1181 19.7014 36.1381 19.6485C36.1579 19.5957 36.1671 19.537 36.1653 19.4721C36.1629 19.3828 36.1425 19.3043 36.1036 19.2369C36.0649 19.1695 36.0067 19.1187 35.9293 19.0841C35.8517 19.0493 35.7689 19.0334 35.6809 19.0356C35.5919 19.0379 35.5115 19.0582 35.4405 19.0968C35.3695 19.1351 35.3154 19.1909 35.2792 19.2634C35.2427 19.3364 35.2258 19.4167 35.228 19.5047C35.2297 19.5698 35.2432 19.6332 35.2686 19.6945C35.2937 19.7559 35.3308 19.815 35.379 19.8719L35.7152 19.8636L35.7054 19.4844ZM36.1544 20.3182L35.2563 19.9518L35.2532 20.0776L35.5254 20.1814L35.5157 20.5587L35.2383 20.6557L35.2348 20.7905L36.1513 20.4484L36.1544 20.3182ZM35.6143 20.5241L35.622 20.2188L35.886 20.3237C35.9427 20.3458 36.0003 20.3637 36.0592 20.3775C36.0089 20.3907 35.9453 20.4107 35.8682 20.4368L35.6143 20.5241ZM36.1306 20.9547L35.2258 20.8867L35.2168 21.0051L35.6185 21.0353L35.608 21.1723C35.6056 21.203 35.6025 21.2245 35.5987 21.2378C35.5926 21.2559 35.5831 21.2733 35.5704 21.29C35.5576 21.3066 35.5359 21.3251 35.5054 21.3454C35.4748 21.3655 35.4311 21.3907 35.3739 21.421L35.1766 21.525L35.1653 21.6727L35.4234 21.5368C35.4741 21.5098 35.5168 21.4801 35.5515 21.4482C35.5675 21.4329 35.5843 21.4103 35.602 21.38C35.6075 21.4666 35.6304 21.5319 35.6711 21.5763C35.7121 21.6207 35.7645 21.6451 35.8288 21.65C35.8785 21.6538 35.9249 21.645 35.968 21.6232C36.011 21.6017 36.042 21.5707 36.0616 21.5306C36.0812 21.4902 36.0939 21.4306 36.0999 21.3507L36.1306 20.9547ZM35.7027 21.297L35.7221 21.0433L36.0216 21.0658L35.9999 21.3483C35.9948 21.4143 35.9774 21.4616 35.9475 21.4898C35.9176 21.5185 35.8809 21.531 35.8383 21.5277C35.8089 21.5255 35.7825 21.5156 35.7588 21.498C35.735 21.4806 35.7188 21.4561 35.7099 21.4248C35.7009 21.3936 35.6983 21.3512 35.7027 21.297ZM36.0429 21.8998L35.1429 21.7867L35.1278 21.9045L35.5275 21.9547L35.5099 22.0909C35.506 22.1214 35.502 22.143 35.4974 22.1558C35.4904 22.1736 35.4801 22.1904 35.4667 22.2064C35.4528 22.2227 35.4302 22.2401 35.3988 22.2586C35.3673 22.2772 35.3223 22.3006 35.2634 22.3276L35.061 22.4219L35.0423 22.5688L35.3071 22.4458C35.359 22.4213 35.4032 22.3939 35.4398 22.3637C35.4563 22.3492 35.4744 22.3274 35.4935 22.2981C35.4948 22.3849 35.5141 22.4514 35.5526 22.4974C35.5913 22.5438 35.6425 22.5712 35.7064 22.579C35.7557 22.5851 35.8025 22.5786 35.8465 22.5592C35.8906 22.5396 35.9234 22.5103 35.9449 22.4711C35.9664 22.432 35.982 22.3729 35.9922 22.2936L36.0429 21.8998ZM35.5981 22.2202L35.6304 21.9675L35.9286 22.005L35.8924 22.2861C35.884 22.3515 35.8642 22.3981 35.8328 22.4248C35.8014 22.4519 35.7642 22.4626 35.7218 22.4572C35.6928 22.4536 35.6667 22.4423 35.644 22.4237C35.621 22.4048 35.6062 22.3798 35.5988 22.3481C35.5915 22.3164 35.5911 22.274 35.5981 22.2202ZM35.8968 22.855L35.0036 22.6975L34.9825 22.8146L35.8759 22.9722L35.8968 22.855ZM35.1183 23.8465L35.1179 23.8464H35.1183L35.1183 23.8465ZM35.2218 23.87L35.1183 23.8465L35.0585 24.1027L34.8926 24.065C34.8759 24.0351 34.8636 23.9945 34.8548 23.9421C34.8465 23.8903 34.848 23.8394 34.8596 23.7892C34.873 23.7317 34.8987 23.6804 34.9365 23.6351C34.9741 23.5902 35.0227 23.5597 35.082 23.5452C35.1416 23.5308 35.2108 23.5324 35.2897 23.5503C35.3539 23.565 35.4104 23.5896 35.4603 23.6243C35.4888 23.6444 35.5139 23.6696 35.5348 23.6993C35.5561 23.729 35.5702 23.7647 35.5776 23.8069C35.5847 23.8493 35.5823 23.8966 35.57 23.9492C35.5596 23.9932 35.5425 24.0316 35.5188 24.0641C35.4948 24.0969 35.4676 24.1197 35.4376 24.1333C35.4069 24.1467 35.3678 24.1551 35.3201 24.158L35.3243 24.2687C35.3875 24.2674 35.4409 24.2564 35.4845 24.2357C35.5282 24.2154 35.5664 24.1817 35.5992 24.1355C35.6317 24.0893 35.6554 24.0345 35.67 23.9717C35.6904 23.8843 35.6904 23.8033 35.6697 23.7285C35.6493 23.6538 35.6056 23.5902 35.5396 23.5376C35.4732 23.4849 35.397 23.449 35.3111 23.4294C35.2245 23.4097 35.1416 23.4097 35.0629 23.4294C34.9845 23.4487 34.9179 23.4898 34.8649 23.551C34.811 23.6127 34.7743 23.6864 34.7543 23.7721C34.7394 23.8356 34.7366 23.9001 34.7453 23.9659C34.7543 24.0315 34.7754 24.0978 34.8078 24.165L35.1354 24.2397L35.2218 23.87ZM35.4049 24.8227L34.657 24.2098L34.6163 24.3292L34.8451 24.5083L34.7225 24.8658L34.4286 24.8769L34.3845 25.0048L35.3623 24.9463L35.4049 24.8227ZM34.8269 24.8613L34.9262 24.572L35.1465 24.7493C35.1943 24.7872 35.244 24.8212 35.2961 24.8515C35.244 24.8499 35.1774 24.8499 35.0957 24.8524L34.8269 24.8613ZM35.2009 25.4261L34.3568 25.0974L34.3128 25.2079L34.6875 25.354L34.6366 25.4816C34.6251 25.51 34.6155 25.5302 34.6082 25.5412C34.597 25.5568 34.5829 25.5708 34.5656 25.5829C34.5482 25.5954 34.5223 25.6066 34.4871 25.6173C34.4519 25.6275 34.4023 25.6389 34.3388 25.651L34.1192 25.6927L34.0642 25.8308L34.3515 25.7763C34.408 25.765 34.4577 25.7491 34.5003 25.7286C34.5201 25.7188 34.5431 25.7021 34.5691 25.6786C34.5484 25.7627 34.5506 25.8319 34.5763 25.8861C34.6023 25.9403 34.6451 25.9792 34.7049 26.0026C34.7515 26.0205 34.7985 26.0256 34.8458 26.0176C34.8933 26.0095 34.9326 25.9888 34.9631 25.9562C34.9937 25.9234 35.0238 25.8701 35.0535 25.7957L35.2009 25.4261ZM34.6897 25.6284L34.7842 25.3917L35.0636 25.5004L34.9585 25.7639C34.9339 25.8256 34.9032 25.8658 34.866 25.8841C34.8289 25.9026 34.7902 25.9038 34.7504 25.8883C34.7231 25.8776 34.7009 25.8603 34.6836 25.8368C34.666 25.8129 34.6576 25.7851 34.6585 25.7527C34.6592 25.7201 34.6697 25.6789 34.6897 25.6284ZM34.0171 25.9367L34.017 25.9366L34.0172 25.9365L34.0171 25.9367ZM34.0171 25.9367L33.9675 26.0446L34.3346 26.2087L34.2772 26.3337C34.2645 26.3616 34.2541 26.3812 34.246 26.392C34.2339 26.4067 34.219 26.4203 34.2014 26.4314C34.1834 26.4428 34.1568 26.4531 34.121 26.462C34.0853 26.4703 34.0357 26.4796 33.9715 26.4886L33.75 26.5196L33.688 26.6546L33.9781 26.6142C34.035 26.6059 34.0853 26.5923 34.1291 26.574C34.1493 26.5653 34.173 26.5497 34.1999 26.5271C34.1752 26.6106 34.1739 26.6793 34.197 26.7349C34.2203 26.7904 34.261 26.8311 34.3196 26.8574C34.3649 26.8775 34.4119 26.885 34.4598 26.8794C34.5075 26.8734 34.5475 26.8549 34.5798 26.8235C34.6117 26.7924 34.6445 26.7404 34.6779 26.6675L34.8436 26.3058L34.0171 25.9367ZM34.3231 26.483L34.4291 26.2511L34.7031 26.3734L34.5847 26.6314C34.557 26.6918 34.5245 26.7302 34.4865 26.7469C34.4484 26.7637 34.4099 26.763 34.3708 26.7454C34.344 26.7335 34.3225 26.7153 34.3065 26.6909C34.2902 26.6662 34.2831 26.638 34.2856 26.6055C34.288 26.5731 34.3003 26.5327 34.3231 26.483ZM34.4278 27.1785L33.6201 26.7704L33.5653 26.8763L34.373 27.2846L34.4278 27.1785ZM33.4882 27.9574L33.3961 27.9049L33.2631 28.1329L33.1157 28.049C33.1087 28.016 33.1087 27.9736 33.1157 27.921C33.1232 27.8692 33.1396 27.8204 33.1654 27.7759C33.1952 27.7247 33.2348 27.6831 33.2843 27.6506C33.3335 27.6182 33.3891 27.6033 33.45 27.6066C33.5113 27.6097 33.5772 27.6311 33.6473 27.6711C33.7043 27.7032 33.7511 27.7432 33.7887 27.7907C33.81 27.8183 33.8267 27.8494 33.8379 27.8839C33.8497 27.9185 33.8524 27.9569 33.8473 27.9989C33.8416 28.0419 33.8253 28.0865 33.7979 28.1332C33.7754 28.1725 33.7477 28.2041 33.7154 28.2282C33.6827 28.2528 33.65 28.267 33.6172 28.2713C33.5838 28.2755 33.5442 28.2719 33.4976 28.2608L33.4689 28.3683C33.5297 28.3851 33.5842 28.3898 33.6321 28.3829C33.6799 28.3757 33.7262 28.3545 33.7713 28.3197C33.8159 28.2849 33.8548 28.2392 33.8873 28.1832C33.9326 28.1057 33.9561 28.0283 33.9585 27.9505C33.9609 27.8732 33.9383 27.7998 33.8904 27.7305C33.8421 27.6611 33.7799 27.605 33.7034 27.5615C33.6265 27.5174 33.5471 27.4939 33.466 27.4901C33.3853 27.4863 33.3097 27.5062 33.2405 27.5497C33.1713 27.5932 33.1143 27.6532 33.0699 27.7296C33.037 27.786 33.0152 27.8467 33.0043 27.9123C32.9937 27.9775 32.9943 28.0471 33.0053 28.1209L33.2968 28.2862L33.4882 27.9574ZM33.3935 28.9248L32.8559 28.1254L32.7821 28.2276L32.9493 28.4645L32.728 28.772L32.4429 28.699L32.3636 28.809L33.3172 29.031L33.3935 28.9248ZM32.8291 28.7976L33.0084 28.5486L33.1678 28.7813C33.2023 28.8309 33.2399 28.8775 33.281 28.9214C33.2317 28.9049 33.1678 28.8862 33.0889 28.8654L32.8291 28.7976ZM33.0262 29.4456L32.3126 28.8922L32.2383 28.9855L32.5552 29.2314L32.4695 29.3394C32.4502 29.3635 32.4355 29.3798 32.4249 29.3887C32.4097 29.4001 32.3921 29.4097 32.3722 29.4164C32.3521 29.4233 32.3234 29.427 32.2869 29.427C32.2499 29.427 32.1996 29.4241 32.1348 29.4175L31.9124 29.3954L31.8198 29.5119L32.111 29.5411C32.168 29.5462 32.2203 29.5451 32.2673 29.5377C32.2889 29.5337 32.3157 29.5243 32.3473 29.5089C32.3032 29.5839 32.2853 29.6506 32.2944 29.71C32.3034 29.7691 32.3332 29.8186 32.3838 29.8579C32.4231 29.8882 32.4665 29.9063 32.5146 29.9121C32.5623 29.9177 32.6058 29.9092 32.6445 29.8864C32.6834 29.8637 32.7276 29.8209 32.7777 29.758L33.0262 29.4456ZM32.4776 29.4951L32.6368 29.2948L32.873 29.4781L32.6955 29.7011C32.6544 29.7528 32.6133 29.7825 32.5722 29.7898C32.5315 29.7972 32.4939 29.7874 32.4601 29.7611C32.4372 29.7434 32.421 29.7204 32.4111 29.6928C32.4012 29.6654 32.4016 29.6361 32.4117 29.6053C32.4218 29.5745 32.4436 29.5377 32.4776 29.4951ZM32.4319 30.1886L31.746 29.602L31.7458 29.6022L31.6671 29.6917L31.9717 29.9525L31.8807 30.0563C31.8601 30.0794 31.8445 30.0951 31.8339 30.1033C31.8181 30.1141 31.7999 30.1227 31.7796 30.1285C31.7592 30.1343 31.7308 30.1368 31.6941 30.1348C31.6574 30.1332 31.6069 30.1277 31.5427 30.1183L31.3216 30.0857L31.2234 30.1977L31.513 30.2405C31.5699 30.2486 31.622 30.2499 31.6691 30.2444C31.6911 30.2415 31.7185 30.2334 31.7508 30.2194C31.7031 30.2923 31.6821 30.3582 31.688 30.4179C31.6943 30.4775 31.7216 30.5282 31.7704 30.5699C31.8078 30.6022 31.8508 30.6221 31.8983 30.6303C31.9458 30.6381 31.9895 30.6317 32.0293 30.6107C32.0691 30.5897 32.1154 30.5491 32.1686 30.4889L32.4319 30.1886ZM31.8816 30.212L32.0504 30.0195L32.2777 30.2136L32.0897 30.428C32.0458 30.478 32.0032 30.5056 31.9623 30.5108C31.9207 30.5163 31.8842 30.5047 31.8515 30.477C31.8293 30.4579 31.8141 30.4345 31.806 30.4065C31.7972 30.3784 31.7988 30.349 31.8104 30.3187C31.8223 30.2885 31.8456 30.253 31.8816 30.212ZM31.7838 30.9093L31.1271 30.2908L31.0438 30.3771L31.7007 30.9952L31.7838 30.9093ZM30.6609 31.3936L30.5873 31.3176L30.3948 31.499L30.2774 31.3776C30.2803 31.3437 30.2926 31.303 30.3143 31.2546C30.3363 31.2067 30.366 31.165 30.4036 31.1295C30.4467 31.0888 30.497 31.0599 30.5533 31.0425C30.61 31.0251 30.6675 31.0266 30.7253 31.0465C30.7831 31.0668 30.8399 31.1056 30.8957 31.1638C30.9414 31.2107 30.9748 31.2622 30.997 31.3178C31.0097 31.3503 31.0166 31.3849 31.0176 31.4211C31.0187 31.4575 31.0106 31.4952 30.9932 31.5342C30.9755 31.5735 30.9471 31.6116 30.9078 31.6491C30.8744 31.6803 30.8388 31.7029 30.8009 31.717C30.7627 31.7312 30.7273 31.7357 30.6944 31.7308C30.6614 31.7254 30.6243 31.7111 30.5827 31.6873L30.5247 31.7823C30.5781 31.8154 30.6289 31.8352 30.677 31.8419C30.7247 31.8482 30.7752 31.8414 30.8284 31.8205C30.8814 31.7995 30.9315 31.7667 30.979 31.7221C31.0443 31.6603 31.0895 31.5927 31.1139 31.519C31.1385 31.4452 31.1377 31.3687 31.1117 31.2886C31.0856 31.2087 31.042 31.1373 30.981 31.0741C30.9196 31.0105 30.8506 30.9653 30.7739 30.9392C30.6974 30.913 30.6192 30.9108 30.5405 30.9333C30.4614 30.9556 30.3895 30.9972 30.3251 31.0579C30.2774 31.1027 30.239 31.1551 30.21 31.2149C30.1809 31.2745 30.1612 31.3414 30.151 31.4151L30.3831 31.6552L30.6609 31.3936ZM30.2959 32.2975L30.0091 31.3803L29.9088 31.4584L30.0014 31.7319L29.701 31.9651L29.4484 31.8154L29.341 31.899L30.1921 32.3781L30.2959 32.2975ZM29.7908 32.0177L30.0339 31.829L30.1203 32.0965C30.1394 32.154 30.1621 32.2094 30.1889 32.2627C30.1462 32.2332 30.0904 32.1975 30.0207 32.1552L29.7908 32.0177ZM29.7954 32.6956L29.2693 31.9655L29.1715 32.0345L29.4049 32.3587L29.2915 32.4383C29.2662 32.4561 29.2475 32.4677 29.2346 32.4731C29.2166 32.4802 29.1972 32.4842 29.1763 32.4851C29.1548 32.486 29.1265 32.4816 29.0913 32.4713C29.0561 32.461 29.0086 32.4441 28.9486 32.42L28.7412 32.3366L28.6188 32.4224L28.89 32.5316C28.9434 32.5528 28.9937 32.5661 29.0409 32.572C29.0631 32.5744 29.0913 32.5728 29.1264 32.5668C29.0623 32.6264 29.026 32.6855 29.0177 32.7449C29.0095 32.8044 29.0238 32.8598 29.061 32.9118C29.0899 32.9519 29.1267 32.9814 29.171 33.0003C29.2154 33.0189 29.2596 33.0229 29.3032 33.0119C29.3469 33.001 29.4016 32.9724 29.4675 32.926L29.7954 32.6956ZM29.2552 32.59L29.4651 32.4425L29.6392 32.6842L29.4054 32.8484C29.3506 32.8868 29.3029 32.9037 29.2616 32.8993C29.2201 32.8946 29.1871 32.8749 29.1621 32.8404C29.1454 32.8167 29.1363 32.7906 29.1348 32.7612C29.133 32.7319 29.1418 32.704 29.1603 32.6773C29.1788 32.6503 29.2102 32.6213 29.2552 32.59ZM29.0132 33.244L28.5236 32.4896L28.4223 32.5537L28.6396 32.8886L28.5227 32.9629C28.4965 32.9794 28.477 32.9899 28.4642 32.995C28.4458 33.001 28.4264 33.0041 28.4051 33.0041C28.3838 33.0041 28.3557 32.9981 28.3209 32.9863C28.2864 32.9744 28.2398 32.955 28.1809 32.9281L27.9779 32.8352L27.8515 32.9153L28.1172 33.0371C28.1695 33.0606 28.2188 33.0762 28.266 33.0844C28.2878 33.088 28.3165 33.0876 28.3513 33.0835C28.2845 33.14 28.2454 33.1971 28.2343 33.2562C28.2232 33.3151 28.2348 33.3714 28.2695 33.4249C28.2963 33.4664 28.3315 33.4975 28.3746 33.5184C28.4183 33.5392 28.462 33.5452 28.5062 33.5363C28.5504 33.5276 28.6066 33.5013 28.6746 33.4582L29.0132 33.244ZM28.479 33.1128L28.6959 32.9753L28.8581 33.225L28.6163 33.3779C28.5601 33.4135 28.5113 33.4281 28.4704 33.4218C28.4293 33.4153 28.3972 33.3939 28.3741 33.3584C28.3581 33.3341 28.3504 33.3071 28.3504 33.2779C28.3502 33.2485 28.3601 33.2212 28.3801 33.1951C28.3998 33.1695 28.4326 33.1418 28.479 33.1128ZM28.1856 33.7558L27.7335 32.9791L27.6291 33.0381L28.0812 33.8149L28.1856 33.7558ZM26.9704 33.9076L26.9218 33.814V33.8143L26.6849 33.9341L26.6075 33.7848C26.6198 33.7527 26.6431 33.7172 26.6779 33.6769C26.7126 33.6374 26.7533 33.6055 26.7994 33.5822C26.8528 33.5552 26.9089 33.5416 26.9682 33.5409C27.0276 33.5401 27.0821 33.5575 27.1319 33.5929C27.1812 33.6284 27.2247 33.6817 27.2616 33.7532C27.2915 33.8109 27.3089 33.8694 27.3143 33.9296C27.3168 33.964 27.3135 33.9992 27.3042 34.0341C27.295 34.0693 27.2765 34.103 27.2484 34.1356C27.2201 34.1686 27.1818 34.1971 27.1333 34.2219C27.0926 34.2424 27.0517 34.2541 27.0113 34.2569C26.9704 34.2599 26.9355 34.2545 26.9053 34.2402C26.8752 34.2259 26.8436 34.2016 26.8106 34.1673L26.7275 34.242C26.7693 34.2886 26.8122 34.3219 26.8565 34.3417C26.9005 34.3614 26.951 34.3689 27.0078 34.3636C27.0645 34.3585 27.1223 34.3411 27.1807 34.3116C27.2612 34.271 27.3238 34.2186 27.3684 34.1548C27.4133 34.0912 27.4344 34.0173 27.4326 33.9334C27.4306 33.8493 27.4093 33.7688 27.3691 33.6911C27.3286 33.613 27.2752 33.5503 27.2091 33.5035C27.1434 33.4569 27.0693 33.433 26.9871 33.4323C26.9049 33.4316 26.8243 33.4511 26.7449 33.4914C26.6864 33.5209 26.6344 33.5604 26.5893 33.6095C26.5442 33.6586 26.5064 33.717 26.4752 33.785L26.6286 34.0803L26.9704 33.9076ZM26.399 34.6546L26.3427 33.6963L26.2264 33.7482L26.25 34.0358L25.9021 34.1911L25.693 33.9865L25.5686 34.0419L26.2788 34.7083L26.399 34.6546ZM25.9765 34.2636L26.2581 34.1378L26.2774 34.418C26.2818 34.4783 26.2906 34.5374 26.3036 34.5956C26.2693 34.557 26.2236 34.5088 26.1664 34.4515L25.9765 34.2636ZM25.7651 34.9203L25.4743 34.0715L25.3601 34.1095L25.4895 34.4865L25.3577 34.5307C25.3284 34.5405 25.3069 34.5461 25.2932 34.5479C25.2741 34.5493 25.2543 34.5475 25.2337 34.5426C25.213 34.5372 25.1873 34.5252 25.1565 34.5051C25.1256 34.4854 25.0849 34.4557 25.0344 34.4156L24.8603 34.2768L24.7181 34.3243L24.9462 34.5059C24.991 34.5412 25.0352 34.5684 25.0788 34.5874C25.0992 34.5959 25.1269 34.6026 25.1618 34.6066C25.0834 34.6456 25.0313 34.6918 25.0062 34.7463C24.9809 34.8009 24.9785 34.8583 24.999 34.9187C25.0152 34.9651 25.0418 35.0038 25.0787 35.0345C25.1155 35.0649 25.1568 35.0814 25.2016 35.0832C25.2467 35.0852 25.3076 35.0733 25.3843 35.0477L25.7651 34.9203ZM25.2787 34.6655L25.5227 34.584L25.619 34.8649L25.3471 34.9555C25.284 34.977 25.2332 34.9796 25.1946 34.9634C25.1565 34.9475 25.1306 34.919 25.1168 34.8792C25.1073 34.8514 25.1064 34.8235 25.1135 34.7953C25.1203 34.7668 25.137 34.7423 25.1623 34.722C25.1882 34.7018 25.2267 34.6831 25.2787 34.6655ZM24.8566 35.2277L24.6086 34.3656L24.493 34.3982L24.6031 34.7808L24.4691 34.8183C24.4394 34.8268 24.4176 34.8313 24.404 34.8326C24.3845 34.8331 24.3649 34.8304 24.3449 34.8243C24.3243 34.8181 24.299 34.8045 24.2693 34.7833C24.2398 34.7619 24.2005 34.7302 24.1521 34.6874L23.9851 34.5405L23.8409 34.5811L24.0592 34.7735C24.1023 34.8112 24.1453 34.8402 24.1878 34.8614C24.2078 34.871 24.2352 34.8792 24.2699 34.8848C24.1897 34.9199 24.1352 34.9634 24.1073 35.0165C24.0796 35.07 24.0739 35.1273 24.0915 35.1885C24.1053 35.2358 24.13 35.2757 24.1653 35.3081C24.2007 35.3404 24.2409 35.3585 24.2856 35.3628C24.3306 35.3668 24.3919 35.3581 24.4697 35.3362L24.8566 35.2277ZM24.3836 34.9491L24.6313 34.8799L24.7137 35.1651L24.4377 35.2425C24.3732 35.2606 24.3223 35.2608 24.2849 35.2427C24.2475 35.2248 24.2229 35.1952 24.2113 35.1544C24.2031 35.1267 24.2036 35.0988 24.2122 35.0709C24.2205 35.0428 24.2381 35.0193 24.2647 35.0002C24.2911 34.981 24.3308 34.964 24.3836 34.9491ZM23.9141 35.4863L23.7102 34.6131L23.5926 34.6398L23.7965 35.5129L23.9141 35.4863Z" fill="#00053C"/>
<path fill-rule="evenodd" clip-rule="evenodd" d="M17.8615 19.2857H14.2861C14.3716 18.4696 14.6425 17.7198 15.0987 17.0375C15.6603 16.1972 16.4386 15.5394 17.4338 15.0635C17.5082 15.0278 17.5835 14.9935 17.6592 14.9607L17.659 14.9226L17.6491 12.8572L19.9855 12.8657V14.3839C20.1984 14.3652 20.4148 14.3541 20.6356 14.351L20.6548 12.8657L22.9524 12.866L22.9623 14.6449C23.1235 14.6887 23.2851 14.7369 23.4465 14.7901C24.3359 15.0838 25.0918 15.4837 25.7147 15.9898L23.7468 18.1457C23.3465 17.7916 22.8766 17.508 22.3372 17.2954C21.7983 17.0828 21.2728 16.9766 20.7613 16.9766C20.2051 16.9766 19.7022 17.1029 19.2517 17.3564C18.8015 17.6094 18.4482 17.956 18.1926 18.3962C18.0314 18.6736 17.9209 18.9701 17.8615 19.2857Z" fill="#00053C"/>
<path fill-rule="evenodd" clip-rule="evenodd" d="M22.5471 25.784L22.5287 27.8481H20.3393V26.1375C20.3102 26.1375 20.2814 26.1379 20.2527 26.1379C20.0729 26.1379 19.8965 26.1313 19.7223 26.1183V27.8571L17.5147 27.8481V25.597C17.5147 25.5759 17.5149 25.5549 17.5155 25.5344C17.4083 25.4821 17.3023 25.4262 17.198 25.3674C16.2906 24.8534 15.5785 24.1479 15.0616 23.2506C14.5445 22.3529 14.2861 21.3419 14.2861 20.2173C14.2861 20.1443 14.2871 20.0721 14.2896 20H17.6632C17.6593 20.0715 17.6572 20.1441 17.6572 20.2173C17.6572 20.801 17.7809 21.3311 18.029 21.8069C18.277 22.283 18.6174 22.6557 19.0497 22.9261C19.4824 23.1964 19.9625 23.3317 20.49 23.3317C20.965 23.3317 21.5239 23.1749 22.1676 22.8611V20.0229H25.0004V24.6457C24.3992 25.078 23.6552 25.4348 22.769 25.7161C22.6946 25.7396 22.6205 25.7623 22.5471 25.784Z" fill="#FFFF7D"/>
<defs>
<radialGradient id="paint0_angular_70_1837" cx="0" cy="0" r="1" gradientUnits="userSpaceOnUse" gradientTransform="translate(18.8738 17.0861) rotate(163.546) scale(14.2519 8.96256)">
<stop stop-color="#FFFF7D"/>
<stop offset="0.21177" stop-color="#CECE04"/>
<stop offset="0.36863" stop-color="#FFFF7D"/>
<stop offset="0.54118" stop-color="#D2D20E"/>
<stop offset="0.72941" stop-color="#FFFF7D"/>
<stop offset="1" stop-color="#CCCC00"/>
</radialGradient>
</defs>
</svg>
