<svg width="196" height="81" viewBox="0 0 196 81" fill="none" xmlns="http://www.w3.org/2000/svg">
<path d="M47 68.5C62.464 68.5 75 55.964 75 40.5C75 25.036 62.464 12.5 47 12.5C31.536 12.5 19 25.036 19 40.5C19 55.964 31.536 68.5 47 68.5Z" fill="#00053C"/>
<path d="M47 65.5C60.8071 65.5 72 54.3071 72 40.5C72 26.6929 60.8071 15.5 47 15.5C33.1929 15.5 22 26.6929 22 40.5C22 54.3071 33.1929 65.5 47 65.5Z" fill="url(#paint0_angular_44_1147)"/>
<path fill-rule="evenodd" clip-rule="evenodd" d="M30 40.5L42.5081 28.3063C44.9787 25.8979 49.0213 25.8979 51.4921 28.3063L64 40.5H30Z" fill="#00053C" stroke="#00053C" stroke-linejoin="round"/>
<path fill-rule="evenodd" clip-rule="evenodd" d="M30 40.5L42.1402 28.3063C44.5382 25.8979 48.4619 25.8979 50.86 28.3063L63 40.5H30Z" fill="#FFFF7D"/>
<path fill-rule="evenodd" clip-rule="evenodd" d="M47.9024 54.5C39.2432 54.5 31.1216 47.691 29 40.5C42.6509 40.5 50.8336 40.5 65 40.5C61.7802 49.6532 54.2233 54.5 47.9024 54.5Z" fill="#00053C"/>
<path fill-rule="evenodd" clip-rule="evenodd" d="M29.6821 28.0266L28.6833 27.2512L29.0311 26.8142C29.101 26.7262 29.1632 26.6665 29.2172 26.6348C29.2716 26.6027 29.3324 26.5907 29.3993 26.5988C29.4664 26.6067 29.5276 26.6322 29.5823 26.6745C29.6533 26.7294 29.6949 26.7985 29.7077 26.8816C29.7202 26.9647 29.6952 27.058 29.6334 27.1632C29.6776 27.1415 29.7151 27.1284 29.7455 27.1228C29.8113 27.1121 29.8843 27.1105 29.9644 27.1181L30.3723 27.1585L30.2423 27.322L29.9309 27.291C29.8404 27.282 29.7698 27.2779 29.7181 27.2779C29.6667 27.2779 29.6269 27.2829 29.5989 27.2923C29.5709 27.302 29.5461 27.315 29.5248 27.3313C29.5103 27.3437 29.4894 27.3666 29.4627 27.4004L29.3424 27.5515L29.7859 27.8958L29.6821 28.0266ZM29.2281 27.4628L29.4511 27.1825C29.4986 27.1228 29.5291 27.0714 29.5433 27.0281C29.5575 26.9851 29.5582 26.944 29.544 26.9053C29.5304 26.8666 29.5075 26.8349 29.4754 26.81C29.4282 26.7733 29.3758 26.7596 29.3184 26.7699C29.2614 26.7799 29.2035 26.8213 29.1458 26.894L28.8976 27.2059L29.2281 27.4628ZM30.4738 27.0317L29.5136 26.2101L29.8824 25.7901C29.9567 25.7054 30.0215 25.6486 30.0773 25.6192C30.133 25.5902 30.1945 25.5809 30.2611 25.5919C30.3276 25.6033 30.3874 25.6313 30.4401 25.6763C30.5083 25.7346 30.5464 25.8057 30.555 25.8895C30.5634 25.9729 30.5344 26.0649 30.4672 26.167C30.5124 26.1474 30.5506 26.136 30.5814 26.1321C30.6475 26.1248 30.7209 26.1264 30.8002 26.1377L31.2056 26.1974L31.0682 26.3542L30.7585 26.3088C30.6686 26.2955 30.5984 26.2882 30.5467 26.2854C30.4953 26.2831 30.4554 26.2861 30.4268 26.2945C30.3984 26.3024 30.373 26.3145 30.3512 26.3298C30.336 26.3415 30.314 26.3635 30.2857 26.3958L30.158 26.5409L30.5847 26.9058L30.4743 27.0315L30.4738 27.0317ZM30.0478 26.4469L30.284 26.1777C30.3343 26.12 30.3674 26.0707 30.3836 26.0279C30.4001 25.9855 30.4022 25.9445 30.3903 25.9054C30.3785 25.8661 30.3572 25.833 30.3261 25.8064C30.2809 25.7677 30.2292 25.7517 30.1714 25.759C30.1136 25.7663 30.0542 25.805 29.9927 25.8751L29.7299 26.175L30.0478 26.4469ZM31.3392 26.0659L30.4197 25.2002L30.5362 25.0798L31.4553 25.9451L31.3392 26.0659ZM32.0934 24.6271L31.9904 24.5207L32.3798 24.1545L32.7044 24.4907C32.6898 24.5938 32.6625 24.6875 32.622 24.771C32.5811 24.8548 32.5273 24.9277 32.4605 24.9908C32.3703 25.0758 32.27 25.134 32.1589 25.1652C32.0488 25.1963 31.9393 25.1936 31.8325 25.1569C31.7248 25.1203 31.6282 25.0572 31.5421 24.9681C31.4569 24.8797 31.3962 24.7796 31.3593 24.6678C31.3229 24.5557 31.3219 24.4486 31.3563 24.3452C31.3908 24.2421 31.4535 24.1474 31.545 24.061C31.6115 23.9986 31.6818 23.9526 31.7561 23.9232C31.8305 23.8939 31.9011 23.8842 31.9683 23.8932C32.0354 23.9026 32.1067 23.9302 32.1811 23.9767L32.1 24.1095C32.0419 24.0764 31.9896 24.0564 31.9437 24.0487C31.8974 24.0418 31.8482 24.0477 31.7944 24.0678C31.7413 24.0878 31.6914 24.1195 31.6451 24.1631C31.5898 24.2155 31.5498 24.2688 31.5252 24.3239C31.5009 24.3786 31.4898 24.4313 31.4911 24.4824C31.4928 24.5331 31.5022 24.5815 31.5198 24.6268C31.5512 24.7048 31.5981 24.7769 31.6616 24.8426C31.74 24.9237 31.8193 24.9783 31.9004 25.0067C31.9811 25.0347 32.0615 25.0364 32.1409 25.0123C32.2202 24.9879 32.2902 24.9476 32.3506 24.8905C32.4033 24.8408 32.4452 24.7824 32.476 24.7154C32.5061 24.6477 32.5233 24.5907 32.5273 24.5432L32.3628 24.3731L32.0934 24.6271ZM32.9189 24.5581L32.4555 23.2947L32.5953 23.1753L33.818 23.7891L33.6731 23.9129L33.3099 23.7204L32.9056 24.0663L33.0535 24.4429L32.9189 24.5581ZM32.8537 23.9326L33.1809 23.6527L32.8499 23.4752C32.75 23.4211 32.6692 23.3748 32.6077 23.3361C32.6486 23.4095 32.6844 23.4849 32.7148 23.5639L32.8537 23.9326ZM33.9352 23.7158L33.1988 22.6936L33.6578 22.3713C33.75 22.3063 33.8266 22.2663 33.8878 22.2509C33.9489 22.2356 34.0108 22.2412 34.0729 22.2672C34.1348 22.2935 34.1865 22.3349 34.2267 22.391C34.2787 22.4637 34.299 22.5415 34.2875 22.6248C34.276 22.7079 34.225 22.7906 34.1355 22.874C34.1844 22.8657 34.2239 22.8633 34.255 22.8667C34.3212 22.875 34.3914 22.8937 34.4661 22.9234L34.8457 23.0762L34.6745 23.1963L34.3844 23.0796C34.3002 23.0458 34.2337 23.0222 34.1844 23.0078C34.1351 22.9934 34.0953 22.9871 34.0655 22.9885C34.0362 22.9898 34.0085 22.9955 33.9834 23.0051C33.9659 23.0128 33.9392 23.0292 33.9041 23.0538L33.7453 23.1653L34.0723 23.6193L33.9352 23.7158ZM33.6612 23.0482L33.9551 22.8417C34.0179 22.7977 34.0618 22.757 34.0879 22.7193C34.1138 22.6819 34.126 22.6429 34.1236 22.6018C34.1216 22.5608 34.1087 22.5242 34.0851 22.4911C34.05 22.4427 34.0041 22.4151 33.946 22.4086C33.8882 22.4024 33.8213 22.426 33.7447 22.4797L33.4174 22.7096L33.6612 23.0482ZM34.9782 22.9808L34.2925 21.9246L34.7664 21.6247C34.8619 21.5643 34.9404 21.5276 35.0022 21.5153C35.064 21.5029 35.1255 21.5112 35.1863 21.5406C35.2468 21.5696 35.2961 21.6133 35.3339 21.6714C35.3825 21.7464 35.3988 21.8252 35.3832 21.9075C35.3677 21.9903 35.3126 22.0704 35.2193 22.1494C35.2683 22.1435 35.3082 22.1431 35.3389 22.1481C35.4044 22.1594 35.4741 22.1815 35.5469 22.2144L35.9188 22.3849L35.7419 22.497L35.4578 22.3669C35.3753 22.3293 35.3099 22.3023 35.2616 22.2855C35.213 22.2689 35.1738 22.2606 35.1437 22.2606C35.1144 22.2606 35.0867 22.2649 35.061 22.2732C35.0431 22.2802 35.0158 22.295 34.9792 22.3182L34.8154 22.422L35.12 22.8911L34.9782 22.9808ZM34.7367 22.3009L35.0407 22.1087C35.1056 22.0677 35.1511 22.029 35.1792 21.993C35.2068 21.9567 35.2207 21.9183 35.2204 21.8773C35.2207 21.8362 35.2095 21.7985 35.1876 21.7645C35.1551 21.7148 35.1103 21.6848 35.0524 21.6758C34.995 21.6667 34.927 21.6874 34.848 21.7372L34.51 21.9513L34.7367 22.3009ZM36.0833 22.2939L35.4504 21.2068L35.5966 21.1237L36.2295 22.2112L36.0833 22.2939ZM37.2186 21.1234L37.1507 20.9922L37.6293 20.7503L37.8438 21.1639C37.8002 21.259 37.7472 21.3411 37.684 21.4098C37.6209 21.4782 37.5483 21.5336 37.4662 21.5749C37.3551 21.6312 37.2419 21.6587 37.1272 21.6576C37.0123 21.6566 36.9083 21.6232 36.8164 21.5579C36.7238 21.4925 36.6493 21.4047 36.5924 21.2953C36.5361 21.1866 36.5064 21.0738 36.5036 20.956C36.5009 20.8386 36.5306 20.7352 36.5935 20.6461C36.656 20.5567 36.7434 20.4836 36.8562 20.4266C36.938 20.3852 37.0188 20.3609 37.0981 20.3538C37.1778 20.3465 37.2484 20.3568 37.3102 20.3845C37.3721 20.4122 37.4322 20.4589 37.4906 20.5239L37.3745 20.6286C37.3282 20.5806 37.2839 20.5465 37.2417 20.5265C37.1994 20.5069 37.1505 20.4989 37.0934 20.5031C37.0367 20.5072 36.9796 20.5235 36.9225 20.5525C36.8543 20.5869 36.8009 20.627 36.7614 20.673C36.7222 20.7186 36.6962 20.7657 36.6834 20.8151C36.6702 20.8641 36.6655 20.9132 36.6692 20.9615C36.6766 21.0456 36.7009 21.1276 36.7428 21.2084C36.7945 21.3085 36.855 21.3831 36.9246 21.4329C36.9941 21.4822 37.0704 21.5066 37.1536 21.5056C37.2367 21.5046 37.3153 21.4856 37.3899 21.4479C37.4545 21.4152 37.5116 21.3705 37.5602 21.3151C37.6088 21.2588 37.6416 21.2091 37.6588 21.1643L37.5504 20.9551L37.2187 21.1229L37.2186 21.1234ZM38.0288 21.2865L37.9495 19.9451L38.118 19.8698L39.1124 20.8025L38.9381 20.8802L38.6455 20.5937L38.1581 20.8112L38.1912 21.2138L38.0288 21.2865ZM38.147 20.6683L38.5412 20.4922L38.2754 20.2291C38.195 20.149 38.1311 20.082 38.0835 20.0276C38.1017 20.109 38.1139 20.1916 38.1203 20.2761L38.147 20.6683ZM39.2431 20.7574L38.836 19.5692L39.369 19.391C39.4764 19.3554 39.5616 19.3386 39.6248 19.3413C39.6876 19.344 39.7454 19.3666 39.797 19.4094C39.8487 19.4524 39.8859 19.5064 39.9085 19.5719C39.9372 19.6562 39.9338 19.7366 39.8984 19.8128C39.8632 19.8891 39.7903 19.9542 39.6806 20.0086C39.7295 20.0142 39.7684 20.0235 39.7967 20.0355C39.8579 20.0619 39.9197 20.1002 39.9825 20.1497L40.3017 20.4038L40.1028 20.4702L39.8589 20.2761C39.7883 20.2201 39.7312 20.1784 39.688 20.1504C39.645 20.1227 39.6089 20.1054 39.5799 20.0983C39.5512 20.091 39.5235 20.0886 39.4968 20.091C39.4775 20.0933 39.4475 20.1013 39.4063 20.115L39.2218 20.1765L39.4028 20.7046L39.2431 20.7574ZM39.1752 20.0401L39.517 19.926C39.5901 19.9016 39.6437 19.8753 39.6799 19.8466C39.7153 19.8183 39.7386 19.7842 39.7481 19.7442C39.7582 19.7045 39.7568 19.6654 39.7436 19.6271C39.7244 19.5711 39.688 19.5314 39.6346 19.5087C39.5808 19.4863 39.5095 19.49 39.4211 19.5197L39.0404 19.6471L39.1752 20.0401ZM40.4544 20.3444L40.1072 19.1374L40.649 18.9853C40.7577 18.9549 40.8439 18.9425 40.9067 18.9483C40.9692 18.9542 41.0255 18.9797 41.0752 19.025C41.1245 19.07 41.159 19.1261 41.1782 19.1924C41.2029 19.2781 41.1951 19.3582 41.1563 19.4327C41.1171 19.5071 41.041 19.5684 40.9286 19.6174C40.9773 19.6254 41.0154 19.6364 41.0435 19.6501C41.103 19.6795 41.1631 19.7205 41.2236 19.7733L41.5293 20.0429L41.3273 20.0995L41.0935 19.8937C41.0257 19.834 40.9709 19.7894 40.9293 19.7597C40.8878 19.7296 40.8523 19.7106 40.8236 19.702C40.7956 19.6937 40.768 19.6899 40.7409 19.6906C40.722 19.6923 40.6912 19.6986 40.6497 19.7103L40.4622 19.7631L40.6163 20.2988L40.4544 20.3444ZM40.4226 19.6245L40.7694 19.5271C40.8435 19.5064 40.8988 19.4827 40.9359 19.4557C40.973 19.4294 40.9978 19.3963 41.0092 19.357C41.0214 19.3176 41.0221 19.2789 41.0106 19.2399C40.9944 19.1829 40.9599 19.1411 40.9076 19.1161C40.8552 19.0911 40.7839 19.0913 40.6937 19.1167L40.3073 19.2251L40.4226 19.6245ZM41.7119 19.9958L41.4261 18.7735L41.5906 18.7362L41.8761 19.9585L41.7119 19.9958ZM43.142 19.1949L43.1157 19.0498L43.6451 18.9564L43.7278 19.4141C43.6582 19.4925 43.5828 19.5556 43.5024 19.6029C43.4217 19.6503 43.336 19.682 43.2451 19.6983C43.1221 19.72 43.006 19.7136 42.8962 19.6793C42.7868 19.6452 42.6969 19.5832 42.6287 19.4942C42.5595 19.4051 42.5139 19.2997 42.4923 19.1786C42.4704 19.0585 42.4755 18.9418 42.5075 18.8286C42.5396 18.7151 42.5987 18.6251 42.6851 18.558C42.7712 18.4907 42.877 18.4459 43.0017 18.424C43.0918 18.4084 43.1763 18.408 43.2547 18.4243C43.3327 18.4403 43.3976 18.4703 43.4482 18.5148C43.4989 18.5592 43.5429 18.6211 43.5793 18.7002L43.4371 18.7669C43.407 18.7075 43.3749 18.6625 43.3405 18.6308C43.3064 18.5998 43.2615 18.5781 43.2057 18.5658C43.1504 18.5531 43.0908 18.5524 43.0277 18.5638C42.9524 18.5768 42.8893 18.5998 42.8379 18.6325C42.7869 18.6646 42.7484 18.7026 42.7211 18.746C42.6941 18.789 42.6752 18.8344 42.6647 18.8817C42.6465 18.9641 42.6455 19.0498 42.662 19.1392C42.6819 19.2497 42.7173 19.3387 42.7694 19.4064C42.8211 19.4738 42.8869 19.5192 42.9666 19.5419C43.0463 19.5649 43.1274 19.5695 43.2098 19.5549C43.2814 19.5422 43.3489 19.5162 43.4118 19.4768C43.475 19.4371 43.5212 19.3991 43.5509 19.3615L43.5091 19.1302L43.142 19.1949ZM43.8673 19.5749L44.1904 18.2695L44.3738 18.2464L45.0471 19.4267L44.8573 19.4507L44.6628 19.0914L44.1324 19.1581L44.0443 19.5524L43.8673 19.5749ZM44.1642 19.0185L44.5935 18.9644L44.4178 18.6358C44.3643 18.5357 44.3235 18.4529 44.2937 18.3872C44.287 18.4707 44.2742 18.553 44.2552 18.6354L44.1642 19.0185ZM45.1848 19.4295L45.0882 18.1785L45.6495 18.1364C45.7628 18.1278 45.8491 18.1327 45.9097 18.1508C45.9701 18.1688 46.0202 18.2049 46.0595 18.2589C46.0988 18.3133 46.1211 18.3746 46.1265 18.4433C46.1332 18.5324 46.1098 18.6094 46.0567 18.6745C46.0032 18.7399 45.9164 18.785 45.7962 18.8106C45.8419 18.8283 45.8776 18.8466 45.902 18.8653C45.9544 18.906 46.0053 18.9581 46.0536 19.0214L46.2986 19.3456L46.0893 19.3612L45.902 19.1137C45.8476 19.042 45.8029 18.9877 45.7682 18.9498C45.7333 18.9125 45.7027 18.8871 45.6765 18.8728C45.6505 18.8591 45.6241 18.8498 45.5976 18.8455C45.5786 18.8431 45.5473 18.8435 45.5039 18.8465L45.3097 18.8612L45.3526 19.4167L45.1848 19.4295ZM45.2991 18.7183L45.6582 18.691C45.7353 18.6854 45.7941 18.673 45.836 18.654C45.8779 18.6353 45.9087 18.608 45.9282 18.5715C45.9477 18.5356 45.9562 18.4974 45.9529 18.4572C45.9485 18.3978 45.9236 18.3505 45.8771 18.3157C45.8309 18.2807 45.7612 18.267 45.6675 18.274L45.267 18.304L45.2991 18.7183ZM46.4638 19.3631L46.4315 18.1091L46.9945 18.0951C47.1078 18.092 47.1939 18.101 47.2532 18.1224C47.3128 18.1434 47.3608 18.1818 47.3976 18.2378C47.4341 18.2941 47.4533 18.3565 47.4549 18.4256C47.4572 18.5143 47.4299 18.5903 47.3732 18.6527C47.3164 18.7152 47.2275 18.7559 47.1063 18.7759C47.1512 18.7956 47.1857 18.8159 47.2093 18.8356C47.2594 18.879 47.3074 18.9333 47.3526 18.9991L47.581 19.3354L47.3709 19.3403L47.1962 19.0838C47.1456 19.0091 47.1037 18.953 47.0708 18.9133C47.0379 18.8743 47.0089 18.8473 46.9835 18.8319C46.9581 18.8169 46.9324 18.8062 46.9062 18.8005C46.8872 18.7971 46.8561 18.7961 46.8124 18.7971L46.6179 18.8019L46.6321 19.359L46.4638 19.3631ZM46.6144 18.6586L46.975 18.6493C47.0518 18.6476 47.1114 18.6382 47.1543 18.6212C47.197 18.6046 47.2291 18.5788 47.2501 18.5435C47.2717 18.5086 47.282 18.4708 47.281 18.4304C47.2797 18.371 47.2566 18.3223 47.2124 18.2853C47.1677 18.2483 47.0988 18.2309 47.0051 18.2333L46.6038 18.2433L46.6144 18.6586ZM47.7698 19.3701L47.8014 18.1161L47.9704 18.1205L47.9378 19.3745L47.7698 19.3701ZM49.3797 18.9905L49.3984 18.8444L49.9317 18.9114L49.8726 19.3728C49.7822 19.4269 49.6918 19.4649 49.6001 19.4866C49.5089 19.508 49.4174 19.5129 49.3257 19.5014C49.2022 19.4861 49.093 19.446 48.9985 19.3809C48.9047 19.3163 48.8379 19.2301 48.7994 19.1251C48.7601 19.0197 48.7485 18.9059 48.7642 18.7837C48.7796 18.6626 48.8199 18.5525 48.8847 18.4541C48.9497 18.3554 49.0329 18.287 49.1359 18.2483C49.2386 18.2097 49.3527 18.198 49.4786 18.2136C49.5695 18.225 49.6502 18.2499 49.7198 18.2883C49.7897 18.3266 49.8423 18.3743 49.877 18.4317C49.9124 18.4891 49.9356 18.5612 49.9464 18.6476L49.7904 18.6693C49.7796 18.6036 49.7624 18.5509 49.739 18.5108C49.7159 18.4711 49.6797 18.4371 49.6304 18.409C49.5811 18.3807 49.5248 18.3624 49.4611 18.3544C49.3853 18.3451 49.318 18.3484 49.2592 18.3644C49.2009 18.38 49.1526 18.4044 49.1133 18.4382C49.0745 18.4712 49.0426 18.5089 49.018 18.551C48.9764 18.6244 48.9494 18.7061 48.9376 18.7961C48.9235 18.9072 48.9309 19.0026 48.9599 19.0827C48.9887 19.1621 49.038 19.2251 49.1069 19.2705C49.176 19.3158 49.2523 19.3439 49.3352 19.3543C49.4074 19.3633 49.4799 19.3583 49.5515 19.3393C49.624 19.3203 49.6797 19.2976 49.719 19.2706L49.7491 19.0371L49.3794 18.9908L49.3797 18.9905ZM49.9602 19.5462L50.6633 18.3957L50.8452 18.428L51.1308 19.7528L50.9428 19.7198L50.8657 19.3194L50.3391 19.2266L50.1359 19.5773L49.9602 19.5462ZM50.4118 19.1026L50.8377 19.1779L50.7694 18.8123C50.7488 18.7012 50.7347 18.6101 50.7262 18.5388C50.6944 18.6162 50.6574 18.6913 50.6145 18.7643L50.4118 19.1026ZM51.2659 19.7757L51.5513 18.5531L52.1 18.6782C52.2102 18.7035 52.2914 18.7332 52.3438 18.7686C52.3962 18.8033 52.433 18.8527 52.4543 18.916C52.4756 18.9791 52.4782 19.0448 52.4628 19.1118C52.4425 19.1985 52.3965 19.265 52.3258 19.3116C52.2555 19.3583 52.1591 19.3758 52.0366 19.365C52.0749 19.3954 52.1034 19.4234 52.1214 19.4485C52.1589 19.5026 52.1915 19.5673 52.2185 19.642L52.3549 20.0241L52.1501 19.9774L52.0458 19.6855C52.0155 19.6011 51.9896 19.536 51.9675 19.49C51.9454 19.444 51.9243 19.4106 51.9033 19.3892C51.8827 19.3685 51.8601 19.3519 51.8362 19.3399C51.819 19.3322 51.789 19.3232 51.7466 19.3135L51.5567 19.2705L51.4301 19.8132L51.2659 19.7757ZM51.5896 19.1302L51.9413 19.2103C52.0163 19.2273 52.0759 19.2327 52.1219 19.227C52.1673 19.2217 52.2051 19.2042 52.2344 19.1756C52.2644 19.1469 52.2837 19.1128 52.2927 19.0735C52.3063 19.0158 52.2966 18.963 52.2632 18.916C52.2293 18.869 52.1668 18.8356 52.0756 18.8146L51.6841 18.7255L51.5896 19.1302ZM52.5116 20.0696L52.8589 18.863L53.4004 19.0148C53.5093 19.0455 53.5887 19.0795 53.639 19.117C53.6896 19.1546 53.7238 19.2054 53.742 19.2701C53.76 19.3342 53.7592 19.3996 53.7405 19.4659C53.7156 19.5513 53.6668 19.6157 53.5938 19.6588C53.5208 19.7019 53.424 19.7145 53.302 19.6978C53.3392 19.7302 53.3654 19.7596 53.3824 19.7852C53.4173 19.8412 53.4466 19.9073 53.4697 19.9834L53.5866 20.3713L53.3842 20.3147L53.295 20.0181C53.2691 19.9324 53.2462 19.8663 53.2267 19.8189C53.2069 19.7719 53.1874 19.7375 53.1679 19.7155C53.1484 19.6934 53.1265 19.6761 53.1034 19.6627C53.0865 19.6541 53.0567 19.6437 53.015 19.6317L52.8278 19.5793L52.6737 20.1154L52.5116 20.0696ZM52.8676 19.4411L53.2149 19.5385C53.2889 19.5592 53.3482 19.5675 53.3942 19.5641C53.4402 19.5607 53.4785 19.5454 53.5095 19.5181C53.5409 19.4911 53.562 19.4581 53.573 19.419C53.5892 19.362 53.5825 19.3089 53.5509 19.2602C53.5198 19.2119 53.4592 19.1752 53.369 19.1498L52.9824 19.0414L52.8676 19.4411ZM53.7618 20.4432L54.169 19.255L54.3285 19.3087L53.9216 20.497L53.7618 20.4432ZM55.3981 20.5199L55.4531 20.3832L55.9533 20.5779L55.7804 21.0102C55.6797 21.0409 55.5821 21.0555 55.488 21.0543C55.394 21.0526 55.3044 21.0353 55.2186 21.0019C55.1025 20.9569 55.0066 20.8915 54.9316 20.8051C54.8564 20.7194 54.8132 20.6203 54.8022 20.5089C54.7906 20.3971 54.8078 20.2841 54.8535 20.1696C54.8988 20.0561 54.965 19.9594 55.0524 19.8793C55.14 19.7999 55.2384 19.7536 55.3473 19.7412C55.4567 19.7285 55.5702 19.7453 55.6879 19.7909C55.7732 19.8243 55.8451 19.868 55.9034 19.9224C55.9615 19.9765 56.0003 20.0359 56.02 20.0995C56.0398 20.1636 56.0442 20.2393 56.0331 20.3257L55.8767 20.3084C55.8826 20.2423 55.8795 20.1872 55.8669 20.1429C55.8541 20.0985 55.8274 20.0569 55.7865 20.0172C55.7459 19.9782 55.6961 19.9468 55.6363 19.9234C55.5648 19.8958 55.4991 19.8824 55.4379 19.8837C55.3778 19.8847 55.3244 19.8968 55.2782 19.9197C55.2324 19.9421 55.1921 19.9711 55.1579 20.0061C55.0989 20.0668 55.0526 20.1392 55.0187 20.2239C54.9774 20.328 54.9604 20.422 54.9689 20.5069C54.9768 20.591 55.009 20.664 55.0644 20.7247C55.1202 20.7854 55.1867 20.8311 55.2646 20.8614C55.3321 20.8881 55.4035 20.9005 55.4783 20.8998C55.5528 20.8988 55.6126 20.8904 55.6578 20.8738L55.7449 20.655L55.3981 20.5199ZM55.8161 21.2165L56.8287 20.3194L56.9931 20.4025L56.8747 21.7519L56.7044 21.6659L56.7491 21.2612L56.2731 21.0203L55.9748 21.2969L55.8161 21.2165ZM56.3792 20.9226L56.7642 21.1174L56.8071 20.7481C56.8202 20.636 56.8338 20.5449 56.8469 20.4739C56.7935 20.5389 56.7357 20.6 56.673 20.6574L56.3792 20.9226ZM57.0008 21.8057L57.6343 20.7182L58.1224 20.9954C58.2202 21.051 58.2891 21.1031 58.3289 21.1518C58.3684 21.2002 58.3893 21.2578 58.391 21.3246C58.3928 21.391 58.3761 21.4548 58.3415 21.5145C58.2963 21.5915 58.2331 21.6419 58.1516 21.6663C58.0705 21.6907 57.9728 21.68 57.8591 21.6342C57.8871 21.6743 57.9055 21.7093 57.9156 21.7384C57.9353 21.8011 57.9477 21.8722 57.9515 21.9516L57.9695 22.3563L57.7874 22.2524L57.7735 21.9435C57.7694 21.8538 57.7632 21.7841 57.7563 21.7337C57.7488 21.6836 57.7381 21.6453 57.7242 21.6193C57.7106 21.5933 57.6941 21.5709 57.6746 21.5526C57.6602 21.5402 57.6343 21.5232 57.5968 21.5016L57.428 21.4059L57.1467 21.8889L57.0008 21.8057ZM57.5007 21.2809L57.8136 21.4587C57.8801 21.4967 57.9359 21.5191 57.9813 21.5267C58.0265 21.5344 58.0674 21.5288 58.1044 21.5098C58.1411 21.4911 58.1699 21.4641 58.1904 21.429C58.2202 21.3773 58.2261 21.3243 58.2079 21.2695C58.1897 21.2151 58.1398 21.1649 58.0584 21.1187L57.7101 20.9209L57.5007 21.2809ZM58.11 22.4388L58.7956 21.3826L59.2696 21.6825C59.3649 21.7432 59.4312 21.7982 59.4687 21.8486C59.5057 21.899 59.5236 21.9577 59.5224 22.0244C59.5206 22.0907 59.501 22.1535 59.4633 22.2115C59.4147 22.2865 59.349 22.334 59.2662 22.3543C59.1843 22.3747 59.0875 22.3591 58.976 22.3083C59.0019 22.3497 59.0189 22.3854 59.0273 22.4151C59.044 22.4785 59.0528 22.5501 59.0528 22.6295L59.0512 23.0345L58.8742 22.9224L58.8755 22.6131C58.8758 22.5234 58.8732 22.4533 58.8686 22.4026C58.8635 22.3522 58.8547 22.3135 58.8421 22.2869C58.8301 22.2602 58.8146 22.2372 58.7959 22.2178C58.782 22.2044 58.7571 22.1864 58.7204 22.1632L58.5567 22.0597L58.2521 22.5287L58.11 22.4388ZM58.6351 21.9387L58.9387 22.1309C59.0035 22.1719 59.0582 22.1972 59.1031 22.2069C59.1481 22.2166 59.1892 22.2132 59.2269 22.1959C59.2647 22.1786 59.2942 22.1531 59.3166 22.1188C59.3492 22.0691 59.3579 22.0164 59.342 21.9607C59.3264 21.9057 59.2791 21.853 59.2 21.8033L58.8619 21.5892L58.6351 21.9387ZM59.2007 23.148L59.9367 22.1255L60.0741 22.2219L59.3382 23.2443L59.2007 23.148ZM60.7487 23.6817L60.7489 23.6815L61.0421 23.9085L60.8946 24.0933C60.8468 24.0963 60.7872 24.088 60.715 24.0676C60.6434 24.0473 60.5789 24.015 60.5214 23.9706C60.4559 23.9195 60.4053 23.8569 60.3695 23.7828C60.3341 23.7088 60.3246 23.6301 60.341 23.547C60.358 23.4636 60.4011 23.3782 60.471 23.2901C60.5283 23.2187 60.5933 23.1624 60.6678 23.1206C60.7107 23.0969 60.7574 23.0806 60.8083 23.0719C60.8592 23.0633 60.9134 23.0666 60.9717 23.0826C61.0305 23.099 61.0898 23.1301 61.1497 23.1767C61.2003 23.2161 61.2391 23.2605 61.2666 23.3096C61.2946 23.3589 61.3077 23.4064 61.3069 23.4524C61.3059 23.4988 61.2935 23.5525 61.2686 23.6142L61.4135 23.6746C61.4495 23.5949 61.4669 23.5214 61.4664 23.4544C61.4662 23.3876 61.4459 23.3199 61.4061 23.2515C61.3662 23.1832 61.3102 23.1207 61.2378 23.0647C61.1384 22.9877 61.0346 22.9397 60.9262 22.9207C60.8178 22.9017 60.7102 22.9183 60.6036 22.9697C60.4964 23.0218 60.4053 23.0956 60.3287 23.1916C60.2516 23.2884 60.2023 23.3918 60.181 23.5022C60.1592 23.612 60.1723 23.7194 60.2193 23.8225C60.2665 23.9266 60.3387 24.0164 60.4371 24.0924C60.5095 24.1487 60.5907 24.1908 60.6801 24.2188C60.7698 24.2468 60.8674 24.2602 60.973 24.2595L61.2637 23.8939L60.8409 23.566L60.7489 23.6815L60.7487 23.6814V23.6817ZM60.9524 24.461L62.1816 23.8852L62.3154 24.011L61.8132 25.2716L61.6748 25.1412L61.834 24.7659L61.4472 24.4013L61.0816 24.5828L60.9524 24.461ZM61.5766 24.3372L61.89 24.6321L62.0375 24.2901C62.0824 24.1863 62.1215 24.1026 62.1541 24.0385C62.0845 24.0859 62.0115 24.1279 61.935 24.1653L61.5766 24.3372ZM61.9211 25.3561L62.8402 24.4909L63.2286 24.8932C63.307 24.9743 63.3581 25.0433 63.382 25.101C63.4064 25.1587 63.4097 25.2198 63.3923 25.2842C63.3748 25.3487 63.3406 25.4047 63.2903 25.4524C63.2248 25.5138 63.1498 25.5445 63.0645 25.5451C62.9797 25.5455 62.8895 25.5078 62.793 25.4323C62.8084 25.4787 62.8163 25.517 62.8174 25.5477C62.8186 25.6134 62.8099 25.6851 62.7909 25.7622L62.692 26.1551L62.5471 26.005L62.6224 25.7047C62.6445 25.6177 62.6586 25.5493 62.6661 25.4989C62.6735 25.4485 62.6743 25.4088 62.6686 25.3798C62.6632 25.3511 62.6535 25.3254 62.6401 25.3021C62.6301 25.2861 62.6101 25.2624 62.58 25.2314L62.4457 25.0923L62.0372 25.4769L61.9211 25.3561ZM62.5507 24.9934L62.7996 25.2513C62.8528 25.3063 62.8996 25.3434 62.9412 25.3634C62.982 25.3838 63.0234 25.3897 63.0642 25.3817C63.1048 25.3737 63.1403 25.3561 63.1695 25.3283C63.2132 25.2873 63.2345 25.2379 63.2325 25.1805C63.2304 25.1232 63.197 25.0608 63.1326 24.9941L62.8551 24.7069L62.5507 24.9934ZM62.8045 26.2727L63.7647 25.4511L64.1331 25.8715C64.2076 25.9562 64.2551 26.0276 64.2764 26.0863C64.2978 26.145 64.2983 26.2061 64.2777 26.2698C64.2572 26.3332 64.2204 26.3876 64.1678 26.4327C64.0995 26.491 64.0226 26.5184 63.9379 26.5148C63.8528 26.5114 63.7647 26.4694 63.672 26.3894C63.6854 26.4364 63.691 26.4754 63.6908 26.5061C63.689 26.5718 63.6764 26.6428 63.654 26.7193L63.5364 27.107L63.3989 26.9502L63.4883 26.654C63.5145 26.568 63.532 26.5001 63.5423 26.4502C63.552 26.4005 63.5544 26.3611 63.5502 26.3318C63.5459 26.3028 63.5377 26.2765 63.5256 26.2527C63.5161 26.2361 63.4973 26.2113 63.4688 26.1793L63.3417 26.0339L62.915 26.3985L62.8045 26.2731V26.2727ZM63.4513 25.9395L63.6877 26.2088C63.7378 26.2661 63.783 26.3055 63.8236 26.3275C63.8636 26.3496 63.9042 26.3579 63.9453 26.3516C63.9862 26.3456 64.0224 26.3295 64.0535 26.3029C64.0987 26.2642 64.1223 26.2162 64.1231 26.1585C64.1236 26.1011 64.0933 26.0374 64.0319 25.9677L63.7691 25.6677L63.4513 25.9395ZM63.6497 27.2562L64.6484 26.4809L64.7524 26.6121L63.7539 27.387L63.6497 27.2562ZM64.9836 28.1986L65.1049 28.1132L65.4167 28.5462L65.033 28.8154C64.9317 28.7868 64.8418 28.7467 64.7637 28.695C64.6862 28.6429 64.6201 28.5799 64.567 28.5058C64.4948 28.4054 64.4509 28.299 64.4352 28.1862C64.4195 28.0741 64.438 27.9674 64.4904 27.868C64.5423 27.7682 64.6194 27.6825 64.7211 27.6115C64.8218 27.5407 64.9305 27.4954 65.0479 27.4757C65.165 27.456 65.2729 27.4701 65.3715 27.5185C65.4699 27.5668 65.556 27.6423 65.6292 27.7439C65.6824 27.8177 65.7183 27.8931 65.7373 27.9698C65.7558 28.0464 65.7558 28.1172 65.7368 28.1813C65.7181 28.2457 65.6798 28.3114 65.623 28.3778L65.5015 28.2794C65.5426 28.227 65.5704 28.1789 65.5845 28.135C65.5984 28.0909 65.5991 28.0415 65.5865 27.9865C65.5745 27.9318 65.5498 27.8784 65.5126 27.827C65.4681 27.7653 65.4203 27.7186 65.3687 27.6869C65.3171 27.6552 65.2659 27.6365 65.2146 27.6309C65.1637 27.6253 65.1139 27.6275 65.0661 27.6382C64.9829 27.6576 64.9043 27.6932 64.829 27.746C64.7368 27.811 64.6705 27.8807 64.6307 27.9562C64.5911 28.0308 64.578 28.1093 64.5909 28.1899C64.6037 28.2714 64.6345 28.3454 64.6828 28.4129C64.725 28.4715 64.7776 28.5206 64.8406 28.5599C64.904 28.5993 64.9587 28.6244 65.0057 28.635L65.1997 28.4985L64.9836 28.1986ZM64.9351 29.0156L66.2673 28.7437L66.3672 28.8972L65.5768 30.0044L65.4735 29.8452L65.7183 29.5176L65.4298 29.073L65.0314 29.1637L64.9351 29.0156ZM65.5714 29.0413L65.8049 29.4013L66.0302 29.1033C66.0988 29.0129 66.1568 28.9408 66.2043 28.8865C66.1252 28.9159 66.044 28.9399 65.9606 28.9583L65.5714 29.0413ZM65.6346 30.1287L66.7654 29.557L67.022 30.0517C67.0736 30.1515 67.1026 30.2322 67.1091 30.2943C67.1155 30.3564 67.1014 30.4157 67.0657 30.4727C67.0305 30.5294 66.9817 30.5738 66.9197 30.6049C66.8396 30.6456 66.7584 30.6539 66.6767 30.6305C66.5953 30.6071 66.5195 30.5459 66.4491 30.4464C66.4504 30.4951 66.4471 30.5342 66.4389 30.5639C66.4214 30.6273 66.3924 30.6936 66.3518 30.7623L66.1442 31.1113L66.0481 30.9265L66.2069 30.66C66.2529 30.5826 66.2863 30.5209 66.3084 30.4749C66.3297 30.4285 66.3418 30.3908 66.3448 30.3614C66.3474 30.3324 66.3459 30.3051 66.3397 30.279C66.3348 30.2607 66.3222 30.2323 66.3022 30.194L66.2138 30.0231L65.7116 30.277L65.6346 30.1287ZM66.343 29.9572L66.5075 30.2745C66.5426 30.3422 66.5771 30.3909 66.611 30.4219C66.6449 30.4526 66.6821 30.47 66.7235 30.4737C66.7651 30.4777 66.8039 30.4706 66.8404 30.4519C66.8938 30.425 66.928 30.3839 66.9426 30.3279C66.9575 30.2726 66.9434 30.2035 66.9005 30.1214L66.7173 29.7682L66.343 29.9572ZM66.2215 31.2536L67.3793 30.7365L67.611 31.2432C67.6575 31.3453 67.6827 31.4273 67.6865 31.4894C67.6899 31.5518 67.6724 31.6105 67.6344 31.6655C67.5961 31.7205 67.5452 31.7626 67.4818 31.7909C67.3996 31.8276 67.3182 31.8319 67.2378 31.8046C67.1574 31.7776 67.0852 31.7125 67.0192 31.6098C67.0181 31.6585 67.013 31.6976 67.0037 31.7266C66.9829 31.7893 66.9508 31.854 66.9069 31.9207L66.6821 32.2593L66.5956 32.0701L66.7674 31.8112C66.817 31.7362 66.8535 31.6762 66.8776 31.6311C66.9013 31.5861 66.9149 31.549 66.9195 31.5197C66.9239 31.491 66.9236 31.4633 66.9187 31.4369C66.9143 31.4185 66.9036 31.3895 66.8853 31.3505L66.8052 31.1754L66.2912 31.4053L66.2215 31.2536ZM66.938 31.1165L67.0862 31.441C67.1178 31.5104 67.1499 31.5608 67.182 31.5932C67.2144 31.6256 67.2509 31.6449 67.2922 31.6505C67.3333 31.6562 67.3721 31.6512 67.4096 31.6342C67.4643 31.6102 67.5008 31.5705 67.5183 31.5155C67.5355 31.4608 67.5247 31.3911 67.4862 31.307L67.3207 30.9453L66.938 31.1165ZM66.7507 32.4325L67.9326 31.9724L67.9945 32.1275L66.8126 32.5875L66.7507 32.4325ZM67.7597 33.7125L67.901 33.6651L68.0731 34.1682L67.6272 34.3173C67.5388 34.2609 67.4646 34.1968 67.4047 34.1251C67.3454 34.0533 67.3007 33.9743 67.2709 33.8879C67.2311 33.7712 67.2198 33.657 67.2378 33.5447C67.2557 33.4326 67.3043 33.3359 67.3834 33.2555C67.4625 33.1747 67.5609 33.1146 67.6793 33.0753C67.7962 33.0363 67.9139 33.0236 68.032 33.0379C68.1499 33.0527 68.2491 33.097 68.3293 33.1711C68.4091 33.2456 68.47 33.3419 68.5106 33.4604C68.5399 33.546 68.5525 33.6285 68.5481 33.7072C68.5435 33.7862 68.5227 33.8536 68.4862 33.9097C68.4495 33.9664 68.3937 34.0185 68.32 34.0655L68.2324 33.9367C68.2871 33.8987 68.3277 33.8604 68.3539 33.822C68.3799 33.784 68.395 33.737 68.3991 33.6809C68.4032 33.6249 68.395 33.5667 68.3747 33.5064C68.3501 33.435 68.3177 33.377 68.2776 33.3317C68.2375 33.2867 68.1941 33.2547 68.1464 33.2343C68.0996 33.2143 68.0508 33.2026 68.0017 33.1993C67.9167 33.1944 67.8309 33.206 67.7438 33.235C67.6362 33.271 67.5527 33.3193 67.4926 33.3801C67.4327 33.4404 67.397 33.5115 67.3857 33.5929C67.3747 33.6744 67.3824 33.7537 67.4091 33.8321C67.4325 33.9002 67.469 33.9623 67.5175 34.0179C67.5666 34.0736 67.6118 34.1129 67.6537 34.1367L67.8792 34.0613L67.7597 33.7125ZM67.4805 34.4795L68.8356 34.5999L68.8859 34.7753L67.8052 35.6093L67.7528 35.4275L68.0832 35.184L67.937 34.6759L67.5291 34.6489L67.4805 34.4795ZM68.0819 34.6859L68.2003 35.0973L68.5024 34.8764C68.5946 34.8094 68.6717 34.757 68.7328 34.7183C68.6483 34.7239 68.564 34.7239 68.4785 34.7176L68.0819 34.6859ZM67.8389 35.7418L69.0891 35.5213L69.1877 36.0687C69.2078 36.1788 69.2119 36.2642 69.1996 36.3256C69.1875 36.3866 69.1564 36.4394 69.1058 36.4837C69.0549 36.5278 68.9953 36.5561 68.9268 36.568C68.8379 36.5837 68.758 36.5684 68.6868 36.5224C68.6157 36.4764 68.5615 36.396 68.5235 36.2802C68.5104 36.3275 68.4955 36.3639 68.479 36.3899C68.4433 36.4456 68.396 36.5003 68.337 36.5543L68.0349 36.8282L67.9981 36.624L68.2288 36.4145C68.2956 36.3538 68.3457 36.3044 68.3801 36.2668C68.4143 36.2288 68.4369 36.196 68.4487 36.1687C68.46 36.142 68.4667 36.1149 68.4682 36.0886C68.469 36.0696 68.4651 36.0389 68.4574 35.9969L68.4233 35.8074L67.8679 35.9054L67.8386 35.7416L67.8389 35.7418ZM68.5671 35.7822L68.6303 36.1332C68.6437 36.2078 68.6624 36.2646 68.6853 36.304C68.7087 36.343 68.7395 36.3707 68.778 36.3861C68.8163 36.4017 68.8556 36.4061 68.8957 36.3991C68.9548 36.3884 69.0002 36.3591 69.0305 36.3101C69.0614 36.261 69.068 36.1909 69.0516 36.0999L68.981 35.7095L68.5671 35.7822ZM68.0778 36.9856L69.338 36.8274L69.4089 37.3788C69.423 37.49 69.4228 37.5755 69.4074 37.6358C69.392 37.6962 69.3581 37.7477 69.3054 37.7893C69.2525 37.831 69.1913 37.8561 69.122 37.8647C69.0328 37.8759 68.9537 37.8568 68.8849 37.8071C68.8163 37.7581 68.7665 37.6747 68.7344 37.5572C68.7189 37.6036 68.702 37.6397 68.6843 37.6645C68.6457 37.7183 68.5959 37.7711 68.534 37.8221L68.2185 38.0803L68.1921 37.8746L68.433 37.6769C68.5029 37.6196 68.5556 37.5729 68.5918 37.5366C68.6277 37.5006 68.6521 37.4692 68.665 37.4425C68.6778 37.4161 68.6858 37.3897 68.6891 37.3631C68.6904 37.3443 68.6884 37.3134 68.683 37.271L68.6588 37.08L68.0991 37.1505L68.0778 36.9856ZM68.8029 37.0622L68.8481 37.4156C68.8579 37.4907 68.8733 37.5486 68.8946 37.5889C68.9157 37.629 68.945 37.6584 68.9828 37.6754C69.0203 37.6929 69.0591 37.6993 69.0999 37.6942C69.1595 37.6871 69.206 37.6594 69.2391 37.612C69.2717 37.5646 69.2823 37.495 69.2705 37.4035L69.2199 37.0097L68.8029 37.0622ZM68.245 38.2648L69.5112 38.1694L69.524 38.3356L68.2573 38.431L68.245 38.2648ZM50.8403 61.7443L50.8665 61.8892L50.3373 61.9826L50.2543 61.5249C50.3239 61.4467 50.3989 61.3838 50.4799 61.3361C50.5605 61.2892 50.6463 61.2569 50.737 61.241C50.8601 61.2194 50.9762 61.2257 51.0861 61.26C51.195 61.2937 51.2852 61.3561 51.3535 61.4452C51.4226 61.5342 51.4683 61.6395 51.4899 61.7608C51.5118 61.8808 51.5066 61.9973 51.4748 62.1107C51.4427 62.2238 51.3836 62.3139 51.297 62.3811C51.211 62.4486 51.1051 62.4933 50.9805 62.5151C50.8904 62.5311 50.8058 62.5311 50.7275 62.5151C50.6492 62.4991 50.5847 62.4687 50.5341 62.4248C50.4832 62.3801 50.4393 62.3182 50.4028 62.2388L50.5451 62.1726C50.5752 62.232 50.6073 62.2769 50.6417 62.3083C50.6759 62.3393 50.7208 62.3613 50.7766 62.3735C50.8318 62.386 50.8914 62.387 50.9546 62.3755C51.0298 62.3624 51.093 62.3395 51.1442 62.3068C51.195 62.2746 51.2338 62.2368 51.261 62.1934C51.288 62.1503 51.307 62.1046 51.3176 62.0574C51.3353 61.9749 51.3363 61.8897 51.3201 61.8001C51.3003 61.6898 51.2646 61.6007 51.2127 61.533C51.1611 61.4655 51.0954 61.4201 51.0157 61.3972C50.9358 61.3742 50.8549 61.3698 50.7725 61.3843C50.7008 61.397 50.6332 61.4231 50.5703 61.4622C50.5071 61.502 50.4609 61.5398 50.4313 61.5776L50.4732 61.8093L50.8403 61.7443ZM50.1154 61.3665L49.7919 62.6716L49.6085 62.6945L48.9355 61.5147L49.1253 61.4906L49.3198 61.8496L49.85 61.7831L49.9381 61.3886L50.1154 61.3665ZM49.8184 61.9229L49.3892 61.9767L49.5649 62.3053C49.6183 62.4052 49.6591 62.4882 49.6889 62.5537C49.6956 62.4707 49.7085 62.388 49.7275 62.3055L49.8184 61.9229ZM48.7978 61.5134L48.8939 62.7645L48.3329 62.8066C48.2198 62.8152 48.1333 62.8104 48.0729 62.7921C48.0125 62.7741 47.9624 62.7381 47.9229 62.6841C47.8838 62.6298 47.8615 62.5684 47.8561 62.4996C47.8492 62.4106 47.8725 62.3337 47.926 62.2685C47.9794 62.203 48.0662 62.1581 48.1862 62.1325C48.1402 62.1147 48.105 62.0965 48.0803 62.0777C48.0279 62.0371 47.9773 61.9848 47.929 61.9217L47.6837 61.5974L47.8928 61.5817L48.0806 61.8296C48.1351 61.9011 48.1795 61.9554 48.2144 61.9932C48.2494 62.0305 48.2797 62.0561 48.3059 62.0701C48.3318 62.084 48.3583 62.0932 48.385 62.0975C48.404 62.1003 48.4354 62.0998 48.4785 62.0965L48.673 62.0818L48.6298 61.5264L48.7978 61.5134ZM48.6835 62.2246L48.3239 62.252C48.2473 62.2576 48.1882 62.27 48.1466 62.289C48.1047 62.3078 48.0739 62.335 48.0544 62.3715C48.0349 62.4075 48.0264 62.4456 48.0292 62.4859C48.0341 62.5453 48.059 62.5925 48.1055 62.6272C48.1518 62.6622 48.2214 62.6759 48.3149 62.6691L48.7156 62.6389L48.6835 62.2246ZM47.5191 61.5819L47.5512 62.836L46.9883 62.85C46.8748 62.853 46.7887 62.8439 46.7294 62.8226C46.6698 62.8015 46.622 62.7632 46.585 62.7071C46.5486 62.6508 46.5293 62.5884 46.5278 62.5194C46.5252 62.4306 46.5527 62.3547 46.6097 62.2923C46.6662 62.2299 46.7551 62.1891 46.8766 62.169C46.8314 62.1495 46.7967 62.1292 46.7731 62.1094C46.7232 62.066 46.6752 62.0117 46.6303 61.946L46.4016 61.6096L46.6118 61.6048L46.7864 61.8613C46.837 61.9359 46.8789 61.9919 46.9118 62.0318C46.9444 62.0708 46.974 62.0977 46.9991 62.1132C47.0243 62.1282 47.0503 62.1388 47.0765 62.1444C47.0955 62.148 47.1268 62.149 47.17 62.148L47.3647 62.1432L47.3505 61.586L47.5191 61.5819ZM47.3683 62.2865L47.0076 62.2959C46.9311 62.2974 46.8715 62.3068 46.8286 62.3238C46.7859 62.3405 46.7536 62.3662 46.7325 62.4014C46.7107 62.4364 46.7006 62.4742 46.7017 62.5146C46.7032 62.5739 46.7261 62.6227 46.7705 62.6597C46.8147 62.6967 46.8841 62.7143 46.9776 62.7117L47.3791 62.7018L47.3683 62.2865ZM46.2131 61.5766L46.181 62.831L46.0125 62.8266L46.0446 61.5726L46.2131 61.5766ZM44.6029 61.96L44.5842 62.1059L44.0507 62.0389L44.1097 61.5779C44.1999 61.5233 44.2908 61.4853 44.382 61.464C44.4737 61.4427 44.5652 61.4373 44.6564 61.449C44.7805 61.4645 44.8894 61.5048 44.9839 61.5698C45.0779 61.6345 45.1447 61.7202 45.1832 61.8253C45.222 61.9308 45.2339 62.045 45.2184 62.167C45.2025 62.288 45.1627 62.3979 45.098 62.4966C45.033 62.595 44.9492 62.6638 44.8465 62.7023C44.7437 62.7411 44.6297 62.7528 44.504 62.7368C44.4131 62.7254 44.3325 62.7008 44.2628 62.6625C44.193 62.6237 44.1403 62.576 44.1051 62.5189C44.0699 62.4613 44.0471 62.3895 44.0363 62.303L44.1919 62.2812C44.203 62.3466 44.2197 62.3994 44.2431 62.4395C44.2667 62.4793 44.3029 62.5133 44.3522 62.5417C44.401 62.5699 44.4578 62.5879 44.5213 62.596C44.5973 62.6057 44.6646 62.6024 44.7234 62.5864C44.7817 62.5707 44.83 62.546 44.8691 62.5126C44.9081 62.4796 44.9397 62.4415 44.9644 62.3994C45.006 62.3261 45.033 62.2446 45.0445 62.1543C45.0592 62.0432 45.0517 61.9478 45.0227 61.8681C44.9937 61.7885 44.9446 61.7255 44.8758 61.6804C44.8064 61.6347 44.7304 61.6066 44.6474 61.5962C44.5752 61.5873 44.5028 61.5921 44.4308 61.6111C44.3587 61.6301 44.3029 61.6527 44.2634 61.6801L44.2333 61.9135L44.6029 61.96ZM44.0221 61.4061L43.3192 62.5567L43.1371 62.5247L42.8513 61.1999L43.0394 61.2328L43.1167 61.6329L43.643 61.7258L43.8464 61.3754L44.0221 61.4061ZM43.5708 61.8499L43.1445 61.7748L43.213 62.1401C43.2333 62.2512 43.2475 62.3426 43.256 62.4139C43.2877 62.3362 43.3248 62.2611 43.3681 62.1883L43.5708 61.8499ZM42.7159 61.1785L42.4304 62.4009L41.882 62.2761C41.7715 62.251 41.6901 62.2208 41.6381 62.1858C41.5857 62.1508 41.5489 62.1018 41.5276 62.0384C41.5063 61.9749 41.5036 61.9095 41.5192 61.8425C41.5394 61.7557 41.5853 61.6895 41.6559 61.6428C41.7265 61.5962 41.8228 61.5786 41.9454 61.5893C41.9069 61.5589 41.8786 61.531 41.8605 61.5058C41.8231 61.4515 41.7903 61.3871 41.7633 61.3123L41.6269 60.9304L41.8316 60.9768L41.936 61.2686C41.9665 61.3534 41.9924 61.4183 42.0144 61.4645C42.0364 61.5104 42.0576 61.5439 42.0786 61.5647C42.0992 61.5858 42.1215 61.6025 42.1454 61.6144C42.163 61.622 42.193 61.6312 42.2353 61.6408L42.4251 61.6839L42.5517 61.1413L42.7159 61.1785ZM42.3923 61.8242L42.0407 61.7441C41.9656 61.7271 41.9059 61.7212 41.86 61.7271C41.8144 61.7326 41.7769 61.7499 41.7475 61.7788C41.7174 61.8075 41.6982 61.8415 41.6887 61.8808C41.6755 61.9387 41.6853 61.9914 41.7188 62.0384C41.7526 62.0851 41.815 62.1188 41.9062 62.1399L42.2977 62.2289L42.3923 61.8242ZM41.4695 60.8863L41.1227 62.0929L40.5813 61.9412C40.4722 61.9105 40.3925 61.8765 40.3422 61.839C40.2918 61.8014 40.2573 61.7507 40.2394 61.6862C40.2216 61.6218 40.2219 61.5563 40.2408 61.4904C40.2655 61.4046 40.3145 61.3402 40.3877 61.297C40.4604 61.2542 40.5576 61.2415 40.6792 61.2582C40.6421 61.2257 40.6157 61.1968 40.5988 61.1707C40.564 61.1146 40.5346 61.0486 40.5117 60.9725L40.3945 60.5846L40.5969 60.6412L40.686 60.9378C40.712 61.0235 40.735 61.0898 40.7546 61.1369C40.7742 61.1841 40.7937 61.2184 40.8137 61.2407C40.8329 61.2625 40.8545 61.28 40.8782 61.2932C40.8951 61.3021 40.9245 61.3125 40.9664 61.3242L41.1535 61.3767L41.3075 60.8406L41.4695 60.8863ZM41.1138 61.5152L40.7666 61.4178C40.6926 61.397 40.6329 61.3884 40.587 61.3922C40.5414 61.3955 40.5028 61.4104 40.4717 61.4378C40.4407 61.4652 40.4194 61.498 40.4082 61.5373C40.392 61.5939 40.3991 61.6474 40.4305 61.6956C40.4616 61.7441 40.5224 61.7806 40.6126 61.8062L40.9987 61.9146L41.1138 61.5152ZM40.2191 60.5143L39.812 61.7027L39.6522 61.6492L40.0593 60.4611L40.2191 60.5143ZM38.5819 60.4395L38.5272 60.5765L38.027 60.3816L38.1996 59.9491C38.3006 59.9186 38.3982 59.9042 38.4921 59.9054C38.586 59.9067 38.6759 59.924 38.7616 59.9577C38.8777 60.0026 38.9734 60.0681 39.0486 60.1546C39.1237 60.2398 39.1668 60.3393 39.178 60.4507C39.1895 60.5625 39.1723 60.6757 39.1267 60.7901C39.0815 60.9035 39.0152 61.0002 38.9277 61.0799C38.8399 61.1598 38.7419 61.2057 38.6325 61.2184C38.5234 61.2311 38.4099 61.2143 38.292 61.1684C38.2069 61.1354 38.135 61.0918 38.0768 61.0372C38.0187 60.9827 37.9799 60.9238 37.96 60.8601C37.9404 60.7957 37.936 60.7203 37.9471 60.6341L38.1035 60.6508C38.0974 60.7171 38.1007 60.7724 38.1132 60.8168C38.1261 60.8612 38.1528 60.9028 38.1936 60.9421C38.2342 60.9814 38.2842 61.0129 38.3439 61.0362C38.4152 61.0639 38.481 61.0771 38.5418 61.0758C38.6023 61.0745 38.6554 61.0629 38.7016 61.04C38.7475 61.0174 38.788 60.9885 38.8222 60.9535C38.8813 60.8926 38.9276 60.8201 38.9613 60.7358C39.0029 60.6315 39.0197 60.5372 39.0113 60.4527C39.0032 60.3685 38.9711 60.2956 38.9158 60.235C38.8601 60.1739 38.7935 60.1282 38.7155 60.0977C38.648 60.0716 38.5767 60.0589 38.502 60.0594C38.4269 60.061 38.3675 60.0691 38.3223 60.0858L38.2352 60.3043L38.5819 60.4395ZM38.1624 59.7466L37.1498 60.6437L36.9853 60.5605L37.1039 59.211L37.2741 59.297L37.2294 59.7017L37.7054 59.9427L38.0036 59.6662L38.1624 59.7466ZM37.5994 60.0404L37.2143 59.8456L37.1714 60.215C37.1582 60.3271 37.1447 60.4182 37.1315 60.4892C37.1849 60.424 37.2426 60.3631 37.3055 60.3055L37.5994 60.0404ZM36.9765 59.159L36.3436 60.2464L35.8555 59.9694C35.7573 59.9136 35.6884 59.8615 35.6489 59.8128C35.609 59.7646 35.5884 59.7068 35.5867 59.6401C35.585 59.5736 35.6016 59.5102 35.6363 59.4503C35.6813 59.3731 35.7444 59.3229 35.8262 59.2983C35.9072 59.274 36.0045 59.2851 36.1187 59.3305C36.0907 59.2904 36.0721 59.2554 36.0623 59.2263C36.0421 59.1636 36.0299 59.0926 36.0262 59.0131L36.0084 58.6087L36.1904 58.7122L36.204 59.0213C36.2084 59.1108 36.2145 59.1806 36.2215 59.2311C36.2289 59.2811 36.2394 59.3194 36.2533 59.3455C36.2668 59.3714 36.2837 59.3937 36.3029 59.412C36.3172 59.4244 36.3435 59.4419 36.3809 59.4632L36.5498 59.5589L36.8308 59.0758L36.9765 59.159ZM36.477 59.6837L36.1642 59.5061C36.0974 59.468 36.0416 59.4457 35.9964 59.4378C35.9512 59.4302 35.91 59.4358 35.8734 59.4548C35.8363 59.4736 35.8076 59.5005 35.7873 59.5358C35.7576 59.5875 35.7513 59.6403 35.7698 59.6951C35.788 59.7497 35.838 59.7999 35.9194 59.8461L36.2673 60.0437L36.477 59.6837ZM35.8667 58.5275L35.181 59.5837L34.7071 59.2838C34.6118 59.223 34.5456 59.1682 34.5082 59.1177C34.4711 59.0672 34.4531 59.0086 34.4544 58.9418C34.4562 58.8756 34.4757 58.8127 34.5135 58.7549C34.5621 58.6798 34.6277 58.6323 34.7104 58.612C34.7925 58.5915 34.8894 58.6072 35.0009 58.6579C34.9749 58.6166 34.958 58.5808 34.9495 58.5511C34.9327 58.4877 34.9239 58.4162 34.9239 58.3368L34.9256 57.9318L35.1025 58.044L35.1012 58.3532C35.1009 58.4428 35.1036 58.5131 35.1083 58.5638C35.1133 58.6141 35.1221 58.6529 35.1346 58.6795C35.1467 58.7062 35.1622 58.7292 35.1808 58.7485C35.1947 58.762 35.2196 58.7797 35.2564 58.8031L35.4199 58.9066L35.7246 58.4375L35.8667 58.5275ZM35.3418 59.0276L35.0381 58.8353C34.9732 58.7944 34.9185 58.7691 34.8736 58.7594C34.8286 58.7498 34.7875 58.7531 34.7499 58.7703C34.7121 58.7876 34.6824 58.8132 34.6601 58.8475C34.6276 58.8972 34.6189 58.95 34.6348 59.0055C34.6503 59.0608 34.6977 59.1134 34.7767 59.1631L35.1148 59.3772L35.3418 59.0276ZM34.775 57.8197L34.0386 58.8421L33.9012 58.7457L34.6375 57.7233L34.775 57.8197ZM33.2256 57.2877L33.1337 57.4034L32.7108 57.0753L33.0016 56.7097C33.1071 56.7092 33.205 56.7224 33.2945 56.7506C33.384 56.7785 33.4651 56.8206 33.5377 56.8767C33.6356 56.953 33.7083 57.0426 33.7555 57.1469C33.8025 57.2499 33.8153 57.3574 33.7937 57.467C33.772 57.5776 33.7227 57.6809 33.6458 57.7778C33.5695 57.8737 33.4783 57.9476 33.3708 57.9996C33.2641 58.0511 33.1566 58.0676 33.0482 58.0483C32.9402 58.0298 32.8361 57.9816 32.7364 57.9044C32.6645 57.8484 32.6081 57.7859 32.5683 57.7177C32.5284 57.6492 32.5082 57.5817 32.5078 57.5147C32.5075 57.4478 32.5253 57.3739 32.5612 57.2945L32.7058 57.3549C32.6811 57.4168 32.6683 57.4703 32.6673 57.5168C32.667 57.5629 32.6802 57.6104 32.7079 57.6596C32.7352 57.7086 32.7744 57.7532 32.8247 57.7925C32.8848 57.8392 32.9442 57.8702 33.003 57.8867C33.0614 57.9027 33.1155 57.9059 33.1665 57.8973C33.2172 57.8887 33.2641 57.8722 33.307 57.8486C33.381 57.8067 33.4465 57.7504 33.5032 57.6791C33.5735 57.5911 33.6167 57.5056 33.6336 57.4221C33.6501 57.3392 33.6403 57.2605 33.6049 57.1864C33.5695 57.1124 33.5188 57.0497 33.4529 56.9987C33.3958 56.9543 33.3309 56.9218 33.2593 56.9015C33.1874 56.8812 33.1279 56.8728 33.0796 56.8759L32.9328 57.0606L33.2256 57.2877ZM33.0199 56.5106L31.7907 57.0867L31.6569 56.9606L32.1588 55.7005L32.2973 55.8306L32.1382 56.2061L32.5252 56.5704L32.8904 56.3893L33.0199 56.5106ZM32.3953 56.6344L32.0822 56.3395L31.935 56.6815C31.89 56.7858 31.8508 56.869 31.8178 56.9335C31.8877 56.886 31.9607 56.8437 32.0373 56.8064L32.3953 56.6344ZM32.0497 55.6167L32.0495 55.6169L31.9335 55.4965L31.5252 55.8811L31.391 55.7421C31.361 55.7106 31.341 55.6873 31.3309 55.6713C31.3174 55.6479 31.3079 55.6218 31.3022 55.5936C31.2969 55.5645 31.2975 55.5249 31.3049 55.4744C31.3125 55.4242 31.3266 55.3557 31.3482 55.2686L31.4238 54.9685L31.2789 54.8183L31.1799 55.2108C31.161 55.2882 31.1522 55.36 31.1536 55.4257C31.1543 55.4564 31.1625 55.4947 31.1776 55.5411C31.0814 55.4655 30.9913 55.428 30.9064 55.4282C30.8212 55.429 30.746 55.4597 30.6807 55.5211C30.6301 55.5688 30.5962 55.6246 30.5787 55.689C30.5612 55.7535 30.5645 55.8146 30.5885 55.8722C30.6129 55.9301 30.6639 55.9991 30.7422 56.0803L31.1306 56.4824L32.0495 55.6169L32.0496 55.617L32.0497 55.6167ZM31.4202 55.98L31.1713 55.722C31.1179 55.667 31.0709 55.6299 31.0297 55.6099C30.9885 55.5896 30.9476 55.5837 30.9068 55.5916C30.8659 55.5992 30.8308 55.617 30.8011 55.6451C30.7578 55.686 30.7365 55.7355 30.7386 55.7928C30.7406 55.8501 30.774 55.9123 30.8386 55.9793L31.1158 56.2665L31.4202 55.98ZM31.1648 54.7019L30.2046 55.5234L29.8361 55.103C29.7617 55.0185 29.7141 54.9467 29.6928 54.8883C29.6716 54.8295 29.6712 54.7683 29.6918 54.7049C29.7124 54.6415 29.7489 54.5869 29.8019 54.5418C29.8698 54.4834 29.9465 54.4563 30.0316 54.4596C30.1164 54.4634 30.2046 54.505 30.2971 54.5849C30.2839 54.538 30.2782 54.4989 30.2786 54.4682C30.2806 54.4025 30.2928 54.3314 30.3153 54.2553L30.4328 53.8674L30.5703 54.0242L30.4808 54.3208C30.4548 54.4065 30.4372 54.4743 30.427 54.5243C30.4176 54.5742 30.4149 54.6136 30.4189 54.643C30.4234 54.6717 30.4315 54.698 30.444 54.7216C30.4531 54.7384 30.472 54.7633 30.5004 54.7955L30.628 54.9406L31.0543 54.576L31.1648 54.7019ZM30.5179 55.0347L30.2817 54.7655C30.2314 54.7082 30.1862 54.6689 30.1457 54.6468C30.1055 54.6247 30.0649 54.6169 30.0237 54.6232C29.9829 54.6288 29.9467 54.6448 29.916 54.6714C29.8705 54.7102 29.8468 54.7584 29.8461 54.8158C29.8454 54.8734 29.8758 54.937 29.9373 55.0071L30.2001 55.3067L30.5179 55.0347ZM30.3183 53.7195L29.3195 54.4948L29.2154 54.3637L30.2142 53.5888L30.3183 53.7195ZM28.9828 52.7782L28.8612 52.8635L28.5498 52.4309L28.9335 52.1612C29.0348 52.1899 29.1247 52.2302 29.2023 52.282C29.2803 52.3337 29.3462 52.3969 29.3995 52.471C29.4718 52.5717 29.5157 52.678 29.5313 52.7909C29.5468 52.9031 29.5285 53.0094 29.4762 53.1088C29.4238 53.2085 29.3471 53.2943 29.2455 53.3653C29.1448 53.4361 29.0357 53.4813 28.9186 53.501C28.8014 53.5211 28.6932 53.5066 28.595 53.4582C28.4963 53.41 28.4105 53.3349 28.3373 53.2329C28.2839 53.159 28.2478 53.0837 28.2292 53.0071C28.2107 52.9302 28.2107 52.8599 28.2296 52.7955C28.2481 52.731 28.2863 52.6656 28.3434 52.5989L28.465 52.6973C28.4235 52.7498 28.3958 52.7978 28.3816 52.8417C28.368 52.8858 28.3673 52.9353 28.3795 52.9903C28.3921 53.0449 28.4166 53.0984 28.4539 53.1499C28.4982 53.2113 28.5461 53.258 28.5978 53.2902C28.6492 53.3214 28.7002 53.3402 28.7519 53.3458C28.8029 53.3519 28.8525 53.3491 28.9004 53.3384C28.9836 53.3191 29.0623 53.2836 29.1372 53.2309C29.2297 53.1659 29.2956 53.0961 29.3354 53.021C29.3753 52.9459 29.3885 52.8675 29.3756 52.7869C29.3628 52.7057 29.332 52.6313 29.2837 52.5638C29.2415 52.5055 29.1888 52.4565 29.1257 52.4167C29.0625 52.3774 29.0078 52.3523 28.9608 52.3421L28.7666 52.4781L28.9828 52.7782ZM29.03 51.962L27.6976 52.234L27.598 52.0805L28.3883 50.9733L28.4913 51.1324L28.2464 51.4602L28.5352 51.9045L28.9337 51.8141L29.03 51.962ZM28.3936 51.9364L28.1602 51.5764L27.9349 51.8745C27.8663 51.9648 27.8083 52.0366 27.7606 52.0912C27.8399 52.0615 27.921 52.0374 28.0044 52.0191L28.3936 51.9364ZM28.3271 50.8508L27.1966 51.4227L26.9399 50.9279C26.8886 50.8282 26.8595 50.7475 26.8528 50.6854C26.8465 50.6232 26.8606 50.5639 26.8961 50.507C26.9315 50.4502 26.9802 50.4058 27.0423 50.3743C27.1223 50.3337 27.2034 50.3254 27.2852 50.3487C27.3669 50.3721 27.4422 50.4337 27.5128 50.5332C27.5114 50.4844 27.5152 50.4451 27.5229 50.4154C27.5408 50.352 27.5695 50.286 27.61 50.2173L27.8181 49.8684L27.9136 50.0531L27.7549 50.3195C27.709 50.3969 27.6755 50.4588 27.6539 50.5047C27.6322 50.5507 27.6201 50.589 27.6174 50.6181C27.6143 50.6473 27.6161 50.6745 27.6222 50.7006C27.6272 50.7189 27.6401 50.7473 27.6597 50.7853L27.7485 50.9566L28.2504 50.7026L28.3271 50.8508ZM27.6188 51.0221L27.4543 50.7052C27.4191 50.6374 27.385 50.5887 27.3509 50.5578C27.3174 50.5271 27.2796 50.5093 27.2384 50.5058C27.1971 50.502 27.1583 50.5091 27.1215 50.5273C27.0685 50.5545 27.0337 50.5958 27.0192 50.6514C27.0043 50.7072 27.0188 50.7757 27.0614 50.8582L27.2445 51.2116L27.6188 51.0221ZM27.7383 49.7266L26.5808 50.2434L26.3491 49.737C26.3025 49.6348 26.2771 49.5528 26.2737 49.4909C26.2703 49.4285 26.2876 49.3696 26.3257 49.3143C26.3639 49.2598 26.4146 49.2177 26.4784 49.1893C26.5605 49.1527 26.6416 49.1484 26.7223 49.1756C26.8024 49.2027 26.875 49.2677 26.9405 49.3704C26.9415 49.3217 26.9472 49.2826 26.9563 49.2534C26.9773 49.191 27.0094 49.1263 27.0532 49.0596L27.2779 48.7209L27.3646 48.9102L27.1927 49.169C27.1431 49.2435 27.1066 49.3039 27.0826 49.3491C27.0589 49.394 27.0452 49.4313 27.0407 49.4605C27.0363 49.4891 27.0366 49.517 27.0414 49.5429C27.0458 49.5614 27.0565 49.5904 27.0745 49.6294L27.1549 49.8048L27.669 49.5749L27.7383 49.7266ZM27.0223 49.8639L26.8737 49.5391C26.8422 49.4699 26.8101 49.4194 26.7778 49.3871C26.7457 49.3547 26.7092 49.3354 26.668 49.3296C26.6268 49.3237 26.588 49.3291 26.5502 49.3455C26.4957 49.3702 26.459 49.4097 26.4418 49.4648C26.4246 49.5193 26.4354 49.5889 26.4739 49.6733L26.6394 50.0349L27.0223 49.8639ZM27.2077 48.5484L26.0259 49.0086L25.9641 48.8539L27.1456 48.3934L27.2077 48.5484ZM26.1969 47.2692L26.0556 47.3164L25.8834 46.8135L26.3293 46.6643C26.4181 46.7209 26.4924 46.7849 26.5519 46.8564C26.6113 46.9282 26.6563 47.0074 26.6857 47.0936C26.7258 47.2103 26.7367 47.325 26.7188 47.4371C26.7013 47.549 26.6523 47.6457 26.5732 47.7261C26.4945 47.8068 26.3956 47.8669 26.2776 47.9062C26.1608 47.9453 26.0431 47.958 25.9249 47.9435C25.8068 47.9288 25.7078 47.8849 25.6278 47.8106C25.5474 47.736 25.4869 47.6396 25.4464 47.5211C25.417 47.4356 25.4041 47.3532 25.4086 47.2743C25.4133 47.1954 25.4338 47.1279 25.4704 47.0718C25.5072 47.0152 25.563 46.9635 25.6365 46.916L25.7247 47.0449C25.6695 47.083 25.6291 47.1213 25.6027 47.1596C25.5771 47.1976 25.5618 47.2446 25.5577 47.3012C25.5533 47.3567 25.5615 47.4151 25.5821 47.4752C25.6068 47.5465 25.6388 47.6046 25.6793 47.65C25.7192 47.6949 25.7624 47.7271 25.81 47.7472C25.8573 47.7672 25.9056 47.7789 25.955 47.7822C26.0398 47.7873 26.1259 47.7756 26.213 47.7467C26.3204 47.7106 26.4042 47.6624 26.464 47.6015C26.5241 47.5412 26.5595 47.4701 26.5707 47.3889C26.5818 47.3072 26.5741 47.2278 26.5473 47.1494C26.524 47.0814 26.4879 47.0193 26.4389 46.9637C26.39 46.9079 26.3446 46.8686 26.3028 46.845L26.0775 46.9206L26.1969 47.2692ZM26.4744 46.5025L25.1193 46.3825L25.069 46.2069L26.1496 45.3727L26.202 45.5544L25.8716 45.7979L26.0179 46.3064L26.4258 46.3333L26.4744 46.5025ZM25.8729 46.296L25.7547 45.8849L25.4524 46.1059C25.3602 46.1724 25.2832 46.2252 25.222 46.264C25.3065 46.2579 25.3909 46.2584 25.4764 46.2645L25.8729 46.296ZM26.1381 45.236L24.9005 45.5181L24.7739 44.9764C24.7486 44.8673 24.7404 44.7823 24.7492 44.7202C24.7583 44.6588 24.787 44.6045 24.8353 44.5578C24.8835 44.5114 24.9416 44.4799 25.0096 44.4647C25.0974 44.4446 25.1781 44.4558 25.2514 44.4984C25.3247 44.5408 25.3832 44.6184 25.4271 44.7318C25.4376 44.6844 25.4508 44.6471 25.4656 44.6205C25.4987 44.5629 25.5433 44.506 25.5994 44.449L25.8871 44.1607L25.934 44.3627L25.7145 44.5829C25.6506 44.6471 25.603 44.6989 25.5706 44.7384C25.5385 44.778 25.5175 44.8115 25.5071 44.8394C25.4973 44.8668 25.4921 44.8942 25.4916 44.9206C25.4923 44.9396 25.4973 44.9701 25.5067 45.0117L25.5507 45.1992L26.1002 45.0741L26.1381 45.236ZM25.4089 45.2314L25.3278 44.8841C25.3106 44.81 25.2893 44.7547 25.2639 44.7164C25.2389 44.6783 25.2069 44.6522 25.1677 44.639C25.1286 44.6253 25.0894 44.6227 25.0492 44.6321C24.9908 44.6453 24.9472 44.6768 24.9192 44.7275C24.8912 44.7778 24.8877 44.8483 24.909 44.9384L24.9992 45.325L25.4089 45.2314ZM25.872 43.9979L24.6117 44.1559L24.5408 43.6046C24.5266 43.4935 24.5269 43.4077 24.5422 43.3473C24.5573 43.287 24.5915 43.2355 24.6442 43.1939C24.6969 43.1525 24.758 43.1271 24.8273 43.1185C24.9168 43.1073 24.9958 43.1264 25.0647 43.1761C25.1332 43.2256 25.1829 43.3085 25.2153 43.426C25.2305 43.3798 25.2478 43.3435 25.2653 43.3187C25.3038 43.2649 25.3538 43.2121 25.4153 43.1616L25.7311 42.9031L25.7574 43.1089L25.5163 43.3062C25.4467 43.3636 25.394 43.4105 25.3579 43.4468C25.3215 43.4828 25.2971 43.514 25.2842 43.5409C25.2717 43.5671 25.2636 43.5937 25.2605 43.6203C25.2588 43.6389 25.2609 43.6701 25.2666 43.7124L25.2909 43.9032L25.8506 43.8332L25.872 43.9979ZM25.1468 43.921L25.1012 43.5678C25.0914 43.4925 25.076 43.4346 25.0547 43.3943C25.0337 43.3542 25.0043 43.325 24.9669 43.308C24.9294 43.2903 24.8903 43.2839 24.8497 43.289C24.7903 43.2966 24.7437 43.3238 24.7106 43.3714C24.6778 43.4186 24.6673 43.4882 24.6792 43.58L24.7298 43.9735L25.1468 43.921ZM25.7071 42.7181L24.4469 42.8762L24.4259 42.711L25.6858 42.553L25.7071 42.7181ZM25.1056 41.2022L24.9566 41.2055L24.9431 40.6748L25.4136 40.6631C25.4811 40.7428 25.5331 40.8257 25.5683 40.9117C25.6037 40.9977 25.6228 41.086 25.625 41.1771C25.6281 41.3007 25.6044 41.4131 25.5534 41.5151C25.5027 41.6165 25.4275 41.6949 25.3277 41.7485C25.2281 41.8025 25.1156 41.8312 24.9912 41.834C24.8676 41.837 24.7518 41.8147 24.643 41.7665C24.5347 41.718 24.4532 41.6465 24.3992 41.5524C24.3447 41.458 24.316 41.3481 24.3127 41.223C24.3107 41.1325 24.3232 41.0498 24.3512 40.9762C24.3792 40.9021 24.4191 40.8437 24.4708 40.8006C24.5228 40.7575 24.5917 40.7242 24.6765 40.7007L24.7217 40.8493C24.6575 40.8696 24.6075 40.8942 24.5707 40.9234C24.5347 40.9521 24.5062 40.9929 24.4853 41.0452C24.4647 41.0975 24.4546 41.1553 24.4563 41.2187C24.4584 41.2941 24.4718 41.3593 24.4965 41.4143C24.5212 41.4689 24.5532 41.5123 24.5924 41.5458C24.6316 41.5787 24.6741 41.6039 24.72 41.6214C24.7997 41.6513 24.8852 41.6653 24.9774 41.6627C25.0909 41.6602 25.1851 41.6384 25.2608 41.598C25.3362 41.5577 25.3915 41.5003 25.4267 41.4263C25.4615 41.3517 25.478 41.273 25.4763 41.1908C25.4742 41.1188 25.4581 41.049 25.4287 40.9813C25.3983 40.914 25.3669 40.8628 25.3341 40.828L25.096 40.8341L25.1056 41.2022ZM25.5834 40.5515L24.3259 40.0385L24.3307 39.8563L25.6135 39.377L25.6087 39.5661L25.22 39.7018L25.2065 40.2298L25.5878 40.3751L25.5834 40.5515ZM25.0714 40.1775L25.0822 39.7503L24.7269 39.8723C24.6188 39.9091 24.5296 39.9367 24.4594 39.9555C24.5418 39.9748 24.6226 39.9999 24.7019 40.0309L25.0714 40.1775ZM25.6243 39.2423L24.3577 39.1474L24.4006 38.5926C24.409 38.4812 24.4269 38.3975 24.454 38.3412C24.4814 38.2848 24.525 38.2414 24.5854 38.211C24.6456 38.1811 24.7105 38.1681 24.78 38.1737C24.8699 38.1803 24.9435 38.2151 25.0006 38.277C25.058 38.3391 25.0898 38.4307 25.0975 38.5515C25.1222 38.5091 25.1461 38.4779 25.1684 38.4566C25.217 38.4119 25.2765 38.3703 25.3474 38.3325L25.7092 38.142L25.6933 38.3488L25.417 38.4941C25.3369 38.5368 25.2758 38.572 25.2329 38.6002C25.1899 38.6286 25.1599 38.6547 25.1417 38.6781C25.1241 38.7014 25.1109 38.7258 25.1025 38.7511C25.0971 38.7694 25.0927 38.7999 25.0893 38.8425L25.0744 39.0343L25.6371 39.0764L25.6243 39.2423ZM24.9295 39.0234L24.9569 38.6679C24.9625 38.5923 24.9593 38.533 24.9467 38.4891C24.9342 38.4454 24.9113 38.4112 24.8782 38.3868C24.8447 38.362 24.8079 38.348 24.7671 38.345C24.7073 38.3406 24.6559 38.3582 24.614 38.3977C24.5721 38.4378 24.5479 38.5038 24.5407 38.5961L24.5103 38.9919L24.9295 39.0234ZM25.7385 37.9824L24.4783 37.8243L24.5492 37.2725C24.5638 37.1614 24.5856 37.0789 24.6157 37.0241C24.6458 36.9691 24.6917 36.928 24.7532 36.9006C24.815 36.8736 24.8804 36.8643 24.9497 36.8729C25.0392 36.8839 25.1108 36.9223 25.1646 36.9874C25.219 37.0518 25.246 37.1447 25.2477 37.2662C25.2743 37.2251 25.2997 37.1949 25.323 37.1743C25.3741 37.132 25.4355 37.0937 25.5085 37.0597L25.8794 36.8872L25.8531 37.0929L25.5693 37.2248C25.4872 37.2631 25.4244 37.2956 25.3802 37.3215C25.3363 37.3476 25.3046 37.372 25.2852 37.3946C25.2663 37.4169 25.2518 37.4407 25.2423 37.4656C25.2359 37.4834 25.2301 37.5138 25.2248 37.5564L25.2001 37.747L25.7597 37.8172L25.7385 37.9824ZM25.0559 37.729L25.1011 37.3753C25.1109 37.2999 25.1106 37.2406 25.1001 37.1962C25.0896 37.1518 25.0687 37.1168 25.0369 37.0906C25.0048 37.0642 24.9687 37.0485 24.9282 37.0434C24.8684 37.0363 24.8164 37.0508 24.7724 37.0888C24.7284 37.1266 24.7011 37.1913 24.6893 37.2829L24.6386 37.6764L25.0559 37.729ZM25.9314 36.7068L24.681 36.4863L24.7107 36.3222L25.9611 36.5431L25.9314 36.7068ZM25.7696 35.0979L25.7693 35.0978L25.8531 34.7392L26.0851 34.792C26.1085 34.8337 26.1257 34.8907 26.1379 34.9638C26.1497 35.0365 26.1477 35.1079 26.1315 35.178C26.1126 35.2587 26.0768 35.3303 26.0238 35.3938C25.9711 35.4571 25.9032 35.4991 25.8197 35.5195C25.7366 35.5398 25.6397 35.5375 25.5292 35.5125C25.4394 35.4918 25.3604 35.4574 25.2905 35.4091C25.2503 35.3807 25.2154 35.3457 25.1861 35.3044C25.1564 35.2623 25.1364 35.2123 25.1263 35.1532C25.1162 35.0938 25.1196 35.0278 25.1368 34.954C25.1514 34.8923 25.1752 34.8385 25.2084 34.7932C25.2422 34.7472 25.28 34.7152 25.3223 34.6962C25.3648 34.6774 25.4199 34.6658 25.4868 34.6618L25.4807 34.5067C25.3925 34.5086 25.3176 34.524 25.2564 34.553C25.1953 34.5817 25.1419 34.6285 25.096 34.6931C25.0504 34.7579 25.0173 34.8346 24.9967 34.9227C24.9683 35.0448 24.9683 35.1583 24.9974 35.263C25.0257 35.3677 25.0869 35.4567 25.1795 35.5302C25.2724 35.6039 25.3791 35.6543 25.4993 35.682C25.6206 35.7097 25.7367 35.7097 25.8468 35.682C25.9566 35.6546 26.0494 35.5972 26.1241 35.5115C26.1995 35.4251 26.2508 35.322 26.2788 35.2019C26.2994 35.1132 26.3035 35.0228 26.2914 34.9306C26.2786 34.8389 26.2495 34.7459 26.2039 34.6517L25.7453 34.5474L25.6243 35.0648L25.7693 35.0978L25.7693 35.0979L25.7696 35.0979ZM26.4114 34.5878L25.3643 33.7297L25.4237 33.5569L26.7927 33.4751L26.7312 33.6542L26.3195 33.6699L26.1479 34.17L26.4684 34.4209L26.4114 34.5878ZM26.0345 34.081L26.1733 33.676L25.7969 33.6884C25.6827 33.6918 25.5896 33.6921 25.5166 33.6894C25.5896 33.7322 25.6592 33.7795 25.726 33.8326L26.0345 34.081ZM26.8296 33.3448L25.6481 32.8847L25.8545 32.3673C25.896 32.2631 25.9383 32.1884 25.9807 32.1424C26.0237 32.0968 26.0783 32.068 26.1449 32.0567C26.2114 32.0454 26.2774 32.0524 26.3421 32.0774C26.4263 32.1102 26.4861 32.1648 26.5222 32.241C26.5583 32.3166 26.5617 32.4135 26.5326 32.5316C26.5687 32.4981 26.6009 32.4749 26.6285 32.4612C26.6886 32.4325 26.7579 32.4101 26.8369 32.3948L27.2395 32.3181L27.1625 32.5113L26.8549 32.5697C26.7657 32.5867 26.6968 32.6027 26.6475 32.6174C26.5982 32.6321 26.5614 32.6477 26.5371 32.665C26.513 32.682 26.4935 32.7017 26.4776 32.7234C26.4672 32.739 26.454 32.7672 26.4381 32.8069L26.3665 32.9857L26.8914 33.1901L26.8296 33.3448ZM26.2311 32.933L26.3639 32.6014C26.3919 32.5307 26.4065 32.473 26.4075 32.4273C26.4085 32.382 26.397 32.343 26.3723 32.3096C26.348 32.2765 26.317 32.2525 26.2787 32.2375C26.223 32.2158 26.1686 32.2174 26.1166 32.2434C26.0649 32.2691 26.0219 32.3255 25.9876 32.4116L25.8403 32.7805L26.2311 32.933ZM27.3038 32.1691L26.1463 31.6524L26.3783 31.1456C26.4249 31.0438 26.4709 30.9708 26.5158 30.9274C26.561 30.8837 26.6171 30.8577 26.684 30.8494C26.7512 30.8414 26.8164 30.8514 26.8799 30.8798C26.962 30.9164 27.0194 30.9739 27.0515 31.0516C27.084 31.129 27.0826 31.2257 27.0477 31.3422C27.0852 31.3108 27.1187 31.2891 27.1471 31.2768C27.2085 31.2512 27.2788 31.2322 27.3585 31.2205L27.7642 31.1635L27.6778 31.3527L27.3677 31.3964C27.2779 31.4091 27.2083 31.4217 27.1583 31.4337C27.1083 31.4461 27.0709 31.46 27.0455 31.4765C27.0208 31.4921 27.0003 31.5105 26.9833 31.5314C26.9721 31.5467 26.9574 31.5739 26.9394 31.6129L26.8593 31.7883L27.3731 32.0175L27.3038 32.1691ZM26.7265 31.7287L26.8751 31.4042C26.9069 31.3348 26.9241 31.2777 26.9275 31.2323C26.9309 31.1873 26.9215 31.1473 26.8985 31.1132C26.8758 31.0788 26.8458 31.0532 26.8086 31.0365C26.7539 31.0121 26.6999 31.0112 26.6465 31.0345C26.5934 31.0579 26.5479 31.1119 26.5091 31.1963L26.3435 31.5576L26.7265 31.7287ZM27.8577 31.0011L26.7269 30.4294L26.8039 30.2812L27.9344 30.853L27.8577 31.0011ZM28.1698 29.4115L28.0408 29.338L28.3086 28.878L28.7166 29.1095C28.7324 29.2127 28.7331 29.31 28.7179 29.4015C28.703 29.4932 28.6724 29.5783 28.6264 29.6573C28.5642 29.7644 28.4845 29.8482 28.3873 29.9092C28.2907 29.97 28.1849 29.998 28.0718 29.9923C27.9582 29.9874 27.8471 29.954 27.739 29.8926C27.632 29.8319 27.5448 29.7531 27.4776 29.6557C27.4108 29.559 27.3787 29.4563 27.3823 29.3475C27.3854 29.2391 27.4184 29.1307 27.4819 29.0223C27.5275 28.9439 27.5815 28.8798 27.6444 28.8311C27.7076 28.782 27.7724 28.7527 27.8394 28.7427C27.9062 28.7327 27.9826 28.7396 28.0673 28.763L28.0278 28.9132C27.9623 28.8979 27.9065 28.8932 27.86 28.8988C27.8141 28.9051 27.7681 28.9248 27.7229 28.9588C27.6777 28.9929 27.6387 29.0372 27.6067 29.0923C27.5689 29.1577 27.5459 29.2201 27.5382 29.2798C27.5304 29.3392 27.5348 29.3929 27.5511 29.4413C27.5669 29.4896 27.5899 29.533 27.6199 29.5717C27.6723 29.6381 27.7381 29.6942 27.8178 29.7392C27.9161 29.7952 28.008 29.8252 28.0942 29.8296C28.1796 29.834 28.2573 29.8133 28.3262 29.7679C28.3955 29.7222 28.4509 29.6637 28.4924 29.5921C28.5288 29.53 28.5518 29.462 28.5619 29.3892C28.5717 29.3158 28.5721 29.2564 28.5619 29.2097L28.3556 29.0927L28.1698 29.4115ZM28.9227 29.1012L28.1698 27.982L28.2768 27.8332L29.6116 28.1438L29.5009 28.2979L29.102 28.1958L28.7919 28.6262L29.026 28.9575L28.9227 29.1012ZM28.7095 28.5084L28.9601 28.1602L28.5963 28.0651C28.4859 28.0358 28.3964 28.0095 28.3275 27.9864C28.3849 28.0481 28.4376 28.1135 28.4862 28.1829L28.7095 28.5084ZM68.9886 39.7782L68.8396 39.782L68.8491 40.1499L68.6115 40.1557C68.5784 40.1209 68.5468 40.0699 68.5167 40.0025C68.4872 39.935 68.471 39.8652 68.4692 39.7931C68.4671 39.7107 68.4836 39.6323 68.5188 39.558C68.5537 39.4834 68.6095 39.426 68.6845 39.3857C68.76 39.3454 68.8543 39.3238 68.9678 39.321C69.06 39.3187 69.1453 39.3327 69.2252 39.3623C69.2709 39.3801 69.3138 39.405 69.3529 39.4382C69.3919 39.4714 69.424 39.5148 69.4487 39.5696C69.4733 39.6247 69.4867 39.6896 69.4888 39.765C69.4906 39.8284 69.4805 39.8865 69.4597 39.9385C69.4389 39.991 69.4104 40.0316 69.3744 40.0603C69.3377 40.0895 69.2876 40.1141 69.2237 40.1344L69.2689 40.2833C69.3534 40.2595 69.4222 40.2262 69.4744 40.1831C69.526 40.1405 69.5663 40.0819 69.5943 40.0078C69.6221 39.934 69.6349 39.8518 69.6324 39.7609C69.629 39.6358 69.6005 39.526 69.546 39.4316C69.4918 39.3372 69.4104 39.2662 69.302 39.2177C69.1933 39.169 69.0775 39.1467 68.9542 39.1497C68.8296 39.153 68.7171 39.1815 68.6177 39.2355C68.5183 39.289 68.4425 39.3672 68.3919 39.4687C68.3408 39.5709 68.3171 39.6833 68.3202 39.8066C68.3225 39.8977 68.3415 39.9865 68.377 40.0722C68.4122 40.1582 68.4641 40.2409 68.5316 40.3206L69.0022 40.3089L68.9886 39.7782ZM69.6172 40.9455L68.3598 40.4325L68.3554 40.6086L68.7366 40.7539L68.723 41.2822L68.3346 41.4179L68.3297 41.6067L69.6128 41.1277L69.6172 40.9455ZM68.8609 41.2337L68.8717 40.8062L69.2414 40.9531C69.3208 40.9841 69.4014 41.0092 69.4839 41.0285C69.4135 41.047 69.3243 41.0749 69.2165 41.1114L68.8609 41.2337ZM69.5838 41.8365L68.3171 41.7414L68.3045 41.9071L68.8668 41.9494L68.8522 42.1412C68.8489 42.1841 68.8445 42.2143 68.8391 42.2328C68.8306 42.2582 68.8173 42.2825 68.7995 42.3059C68.7816 42.3292 68.7512 42.3551 68.7086 42.3835C68.6657 42.4117 68.6046 42.4469 68.5244 42.4893L68.2483 42.6349L68.2323 42.8417L68.5938 42.6514C68.6647 42.6136 68.7245 42.572 68.7731 42.5274C68.7954 42.5061 68.8191 42.4743 68.8437 42.432C68.8514 42.5533 68.8835 42.6446 68.9406 42.7067C68.9979 42.7689 69.0713 42.8032 69.1612 42.81C69.2308 42.8153 69.2958 42.8029 69.3562 42.7725C69.4163 42.7423 69.4597 42.6989 69.4872 42.6428C69.5147 42.5862 69.5324 42.5028 69.5409 42.3909L69.5838 41.8365ZM68.9847 42.3158L69.012 41.9606L69.4312 41.992L69.4009 42.3876C69.3937 42.4799 69.3693 42.5461 69.3274 42.5857C69.2856 42.6258 69.2342 42.6433 69.1746 42.6388C69.1335 42.6357 69.0965 42.6218 69.0634 42.5971C69.03 42.5728 69.0074 42.5385 68.9948 42.4946C68.9822 42.451 68.9786 42.3916 68.9847 42.3158ZM69.461 43.1596L68.201 43.0013L68.1799 43.1662L68.7394 43.2365L68.7148 43.4273C68.7094 43.4699 68.7037 43.5001 68.6973 43.5181C68.6875 43.543 68.6732 43.5666 68.6544 43.5889C68.6349 43.6117 68.6033 43.6361 68.5594 43.662C68.5152 43.6881 68.4522 43.7208 68.3698 43.7586L68.0864 43.8906L68.0602 44.0963L68.4309 43.924C68.5036 43.8898 68.5655 43.8515 68.6166 43.8091C68.6398 43.7888 68.6652 43.7584 68.6919 43.7173C68.6937 43.8388 68.7207 43.9319 68.7746 43.9964C68.8288 44.0613 68.9005 44.0996 68.9899 44.1105C69.059 44.1191 69.1245 44.11 69.1861 44.0829C69.2478 44.0555 69.2938 44.0144 69.3238 43.9596C69.3539 43.9048 69.3757 43.8221 69.3901 43.7109L69.461 43.1596ZM68.8383 43.6082L68.8835 43.2545L69.301 43.307L69.2504 43.7005C69.2386 43.7921 69.2108 43.8573 69.1669 43.8946C69.123 43.9327 69.0708 43.9476 69.0115 43.94C68.9709 43.935 68.9344 43.9192 68.9025 43.8931C68.8704 43.8667 68.8496 43.8317 68.8394 43.7873C68.8291 43.7429 68.8286 43.6835 68.8383 43.6082ZM69.2565 44.4969L68.006 44.2764L67.9765 44.4403L69.2272 44.6611L69.2565 44.4969ZM68.1666 45.8851L68.1661 45.885H68.1666L68.1666 45.8851ZM68.3115 45.9179L68.1666 45.8851L68.0828 46.2437L67.8506 46.1909C67.8272 46.1491 67.81 46.0922 67.7977 46.0189C67.7861 45.9464 67.7882 45.8751 67.8044 45.8048C67.8231 45.7244 67.8591 45.6526 67.912 45.5891C67.9647 45.5262 68.0328 45.4836 68.1157 45.4633C68.1992 45.443 68.2961 45.4453 68.4065 45.4704C68.4964 45.491 68.5755 45.5255 68.6454 45.5739C68.6852 45.6021 68.7204 45.6373 68.7497 45.679C68.7795 45.7206 68.7993 45.7705 68.8096 45.8297C68.8196 45.889 68.8162 45.9552 68.799 46.0288C68.7844 46.0905 68.7605 46.1443 68.7274 46.1897C68.6937 46.2356 68.6557 46.2676 68.6136 46.2866C68.5707 46.3054 68.5159 46.317 68.4492 46.3211L68.4551 46.4761C68.5434 46.4743 68.6182 46.4589 68.6793 46.4299C68.7405 46.4015 68.7939 46.3543 68.8399 46.2896C68.8853 46.2249 68.9185 46.1483 68.939 46.0603C68.9675 45.938 68.9675 45.8246 68.9385 45.7198C68.91 45.6153 68.8489 45.5262 68.7564 45.4526C68.6634 45.3788 68.5568 45.3286 68.4366 45.3012C68.3153 45.2735 68.1992 45.2735 68.089 45.3012C67.9793 45.3281 67.8861 45.3857 67.8118 45.4714C67.7363 45.5577 67.6849 45.6609 67.6569 45.7809C67.6361 45.8697 67.6323 45.9601 67.6444 46.0522C67.6569 46.144 67.6865 46.2369 67.7319 46.331L68.1905 46.4355L68.3115 45.9179ZM68.5678 47.2517L67.5208 46.3937L67.4638 46.5608L67.7841 46.8115L67.6125 47.3121L67.201 47.3276L67.1393 47.5067L68.5082 47.4247L68.5678 47.2517ZM67.7587 47.3057L67.8976 46.9008L68.2061 47.1489C68.2729 47.202 68.3426 47.2497 68.4155 47.292C68.3426 47.2898 68.2493 47.2898 68.135 47.2933L67.7587 47.3057ZM68.2822 48.0965L67.1005 47.6363L67.0389 47.7911L67.5634 47.9956L67.4923 48.1742C67.4761 48.214 67.4627 48.2422 67.4525 48.2577C67.4368 48.2795 67.417 48.299 67.3929 48.316C67.3685 48.3335 67.3322 48.3492 67.2829 48.3642C67.2336 48.3784 67.1642 48.3944 67.0754 48.4114L66.7679 48.4698L66.6908 48.6631L67.0931 48.5867C67.1722 48.571 67.2418 48.5487 67.3014 48.52C67.3292 48.5063 67.3613 48.4829 67.3977 48.45C67.3687 48.5677 67.3718 48.6646 67.4078 48.7405C67.4442 48.8163 67.5041 48.8709 67.5878 48.9036C67.6531 48.9287 67.7188 48.9358 67.7851 48.9247C67.8517 48.9132 67.9066 48.8843 67.9493 48.8386C67.9922 48.7927 68.0343 48.7181 68.0759 48.6139L68.2822 48.0965ZM67.5665 48.3797L67.6988 48.0483L68.09 48.2006L67.9428 48.5695C67.9084 48.6557 67.8655 48.712 67.8134 48.7377C67.7615 48.7635 67.7073 48.7653 67.6515 48.7435C67.6133 48.7285 67.5822 48.7044 67.558 48.6715C67.5334 48.638 67.5216 48.5991 67.5228 48.5537C67.5239 48.5081 67.5385 48.4505 67.5665 48.3797ZM66.6249 48.8113L66.6248 48.8112L66.625 48.811L66.6249 48.8113ZM66.6249 48.8113L66.5554 48.9625L67.0695 49.1921L66.989 49.3671C66.9713 49.4062 66.9567 49.4336 66.9454 49.4488C66.9284 49.4694 66.9076 49.4884 66.883 49.5039C66.8578 49.5199 66.8205 49.5343 66.7704 49.5467C66.7203 49.5584 66.651 49.5714 66.5611 49.584L66.251 49.6274L66.1642 49.8164L66.5703 49.7599C66.65 49.7482 66.7203 49.7292 66.7817 49.7035C66.81 49.6914 66.8431 49.6695 66.8809 49.6378C66.8462 49.7548 66.8444 49.8509 66.8768 49.9288C66.9094 50.0065 66.9664 50.0636 67.0484 50.1003C67.1118 50.1285 67.1776 50.1389 67.2446 50.131C67.3114 50.1227 67.3674 50.0968 67.4126 50.0529C67.4573 50.0093 67.5033 49.9364 67.5501 49.8345L67.782 49.3281L66.6249 48.8113ZM67.0533 49.5762L67.2017 49.2514L67.5853 49.4227L67.4196 49.784C67.3808 49.8685 67.3353 49.9222 67.2821 49.9456C67.2287 49.9692 67.1748 49.9682 67.1201 49.9436C67.0826 49.9268 67.0525 49.9014 67.0301 49.8672C67.0073 49.8327 66.9973 49.7931 67.0009 49.7477C67.0042 49.7023 67.0214 49.6457 67.0533 49.5762ZM67.1999 50.5499L66.0692 49.9786L65.9924 50.1267L67.1231 50.6983L67.1999 50.5499ZM65.8845 51.6404L65.7555 51.5668L65.5693 51.8859L65.363 51.7685C65.3532 51.7223 65.3532 51.6629 65.363 51.5894C65.3735 51.5168 65.3964 51.4486 65.4326 51.3861C65.4742 51.3146 65.5297 51.2562 65.5991 51.2108C65.6679 51.1654 65.7457 51.1446 65.831 51.1492C65.9168 51.1535 66.009 51.1834 66.1072 51.2395C66.1871 51.2844 66.2526 51.3405 66.3052 51.4069C66.335 51.4455 66.3584 51.4892 66.3741 51.5374C66.3905 51.5858 66.3944 51.6396 66.3872 51.6985C66.3792 51.7586 66.3563 51.821 66.3181 51.8865C66.2865 51.9415 66.2477 51.9857 66.2025 52.0194C66.1568 52.0539 66.111 52.0737 66.065 52.0798C66.0183 52.0856 65.9628 52.0805 65.8976 52.0651L65.8575 52.2155C65.9425 52.2391 66.0188 52.2457 66.0859 52.2361C66.1529 52.2259 66.2176 52.1962 66.2808 52.1475C66.3433 52.0988 66.3977 52.0349 66.4432 51.9565C66.5066 51.8479 66.5395 51.7396 66.5428 51.6307C66.5462 51.5224 66.5146 51.4196 66.4475 51.3227C66.38 51.2255 66.2929 51.1469 66.1858 51.086C66.0781 51.0244 65.9669 50.9914 65.8534 50.986C65.7403 50.9807 65.6345 51.0086 65.5377 51.0695C65.4408 51.1304 65.3609 51.2144 65.2988 51.3214C65.2528 51.4004 65.2222 51.4853 65.2071 51.5772C65.1922 51.6685 65.1929 51.7659 65.2084 51.8692L65.6165 52.1006L65.8845 51.6404ZM65.7519 52.9947L64.9992 51.8755L64.896 52.0186L65.13 52.3502L64.8202 52.7808L64.421 52.6785L64.31 52.8325L65.645 53.1433L65.7519 52.9947ZM64.9617 52.8166L65.2127 52.468L65.4359 52.7937C65.4842 52.8632 65.5369 52.9284 65.5944 52.9898C65.5253 52.9668 65.4359 52.9406 65.3255 52.9114L64.9617 52.8166ZM65.2376 53.7238L64.2386 52.949L64.1346 53.0797L64.5782 53.4239L64.4583 53.5751C64.4313 53.6089 64.4107 53.6317 64.3958 53.6442C64.3745 53.6601 64.3499 53.6736 64.3221 53.683C64.2939 53.6926 64.2538 53.6977 64.2027 53.6977C64.1508 53.6977 64.0804 53.6936 63.9897 53.6845L63.6784 53.6535L63.5486 53.8167L63.9563 53.8575C64.0362 53.8646 64.1094 53.8631 64.1752 53.8527C64.2055 53.8471 64.243 53.8339 64.2872 53.8124C64.2255 53.9174 64.2003 54.0108 64.2132 54.094C64.2258 54.1767 64.2674 54.246 64.3383 54.301C64.3933 54.3434 64.4541 54.3688 64.5214 54.3769C64.5882 54.3847 64.6491 54.3728 64.7033 54.3408C64.7578 54.3091 64.8197 54.2493 64.8898 54.1612L65.2376 53.7238ZM64.4696 53.7931L64.6925 53.5127L65.0231 53.7692L64.7747 54.0816C64.7172 54.1539 64.6597 54.1955 64.6021 54.2056C64.5451 54.216 64.4924 54.2023 64.4452 54.1655C64.413 54.1407 64.3904 54.1084 64.3766 54.0699C64.3627 54.0316 64.3632 53.9905 64.3773 53.9473C64.3915 53.9042 64.422 53.8527 64.4696 53.7931ZM64.4056 54.764L63.4454 53.9428L63.4451 53.943L63.3349 54.0684L63.7613 54.4334L63.6339 54.5788C63.6052 54.611 63.5833 54.6331 63.5684 54.6445C63.5463 54.6598 63.5209 54.6717 63.4924 54.6798C63.4639 54.6879 63.4241 54.6915 63.3727 54.6887C63.3213 54.6864 63.2507 54.6788 63.1608 54.6656L62.8512 54.6199L62.7138 54.7767L63.1191 54.8366C63.1988 54.848 63.2717 54.8498 63.3377 54.8422C63.3686 54.8381 63.4068 54.8267 63.4521 54.8072C63.3853 54.9092 63.356 55.0015 63.3642 55.085C63.3729 55.1684 63.4112 55.2395 63.4795 55.2978C63.5319 55.343 63.5921 55.3709 63.6586 55.3823C63.7251 55.3932 63.7863 55.3843 63.842 55.3549C63.8977 55.3255 63.9625 55.2687 64.037 55.1844L64.4056 54.764ZM63.6352 54.7968L63.8715 54.5273L64.1898 54.799L63.9265 55.0992C63.8651 55.1692 63.8055 55.2078 63.7482 55.2151C63.6899 55.2227 63.6388 55.2065 63.5931 55.1677C63.562 55.141 63.5407 55.1083 63.5294 55.069C63.517 55.0297 63.5194 54.9886 63.5355 54.9462C63.5522 54.9038 63.5849 54.8541 63.6352 54.7968ZM63.4983 55.773L62.5789 54.9071L62.4623 55.0279L63.3819 55.8933L63.4983 55.773ZM61.9262 56.4509L61.8232 56.3446L61.5537 56.5986L61.3893 56.4286C61.3934 56.3812 61.4106 56.3241 61.4409 56.2563C61.4718 56.1894 61.5134 56.131 61.566 56.0813C61.6264 56.0242 61.6968 55.9839 61.7757 55.9595C61.855 55.9352 61.9354 55.9372 62.0163 55.9651C62.0973 55.9935 62.1769 56.0478 62.255 56.1292C62.319 56.195 62.3657 56.267 62.3968 56.3449C62.4145 56.3903 62.4243 56.4388 62.4256 56.4895C62.4271 56.5405 62.4158 56.5933 62.3914 56.6478C62.3667 56.7029 62.3269 56.7562 62.2719 56.8087C62.2252 56.8523 62.1754 56.884 62.1222 56.9038C62.0688 56.9236 62.0192 56.9299 61.9732 56.9231C61.927 56.9155 61.8751 56.8954 61.8168 56.8622L61.7356 56.9951C61.8103 57.0416 61.8815 57.0692 61.9488 57.0786C62.0156 57.0875 62.0862 57.0779 62.1607 57.0487C62.235 57.0192 62.3051 56.9733 62.3716 56.9109C62.4631 56.8244 62.5263 56.7298 62.5604 56.6265C62.5948 56.5233 62.5938 56.4162 62.5573 56.304C62.5209 56.1922 62.4597 56.0922 62.3744 56.0037C62.2884 55.9146 62.1918 55.8514 62.0844 55.8149C61.9773 55.7781 61.8679 55.7751 61.7577 55.8065C61.647 55.8377 61.5463 55.8961 61.4561 55.9811C61.3893 56.0437 61.3356 56.1171 61.295 56.2008C61.2542 56.2843 61.2267 56.3779 61.2123 56.4811L61.5373 56.8173L61.9262 56.4509ZM61.4152 57.7164L61.0137 56.4324L60.8732 56.5418L61.003 56.9246L60.5824 57.2511L60.2287 57.0416L60.0784 57.1585L61.2699 57.8293L61.4152 57.7164ZM60.7081 57.3247L61.0484 57.0606L61.1694 57.4351C61.1961 57.5155 61.228 57.5931 61.2655 57.6677C61.2056 57.6264 61.1275 57.5764 61.0299 57.5173L60.7081 57.3247ZM60.7145 58.2738L59.978 57.2516L59.8411 57.3483L60.1678 57.8022L60.0091 57.9136C59.9736 57.9384 59.9474 57.9547 59.9295 57.9623C59.9043 57.9722 59.877 57.9778 59.8478 57.979C59.8177 57.9803 59.7781 57.9742 59.7288 57.9598C59.6795 57.9453 59.613 57.9217 59.529 57.888L59.2387 57.7712L59.0674 57.8913L59.447 58.0442C59.5218 58.0739 59.5922 58.0924 59.6582 58.1008C59.6893 58.1041 59.7288 58.1018 59.7779 58.0935C59.6882 58.1769 59.6374 58.2596 59.6258 58.3429C59.6143 58.4261 59.6343 58.5037 59.6864 58.5765C59.7268 58.6326 59.7784 58.6739 59.8403 58.7003C59.9025 58.7265 59.9644 58.732 60.0255 58.7166C60.0867 58.7013 60.1632 58.6613 60.2554 58.5963L60.7145 58.2738ZM59.9582 58.1259L60.2521 57.9194L60.4959 58.2579L60.1686 58.4877C60.0918 58.5415 60.025 58.5651 59.9672 58.559C59.9092 58.5524 59.8629 58.5248 59.828 58.4766C59.8046 58.4433 59.7918 58.4068 59.7897 58.3657C59.7871 58.3246 59.7995 58.2855 59.8254 58.2482C59.8514 58.2104 59.8953 58.1698 59.9582 58.1259ZM59.6194 59.0416L58.934 57.9854L58.7922 58.0752L59.0964 58.544L58.9328 58.6481C58.896 58.6712 58.8688 58.6859 58.8508 58.693C58.8251 58.7013 58.7979 58.7057 58.7681 58.7057C58.7383 58.7057 58.699 58.6973 58.6502 58.6808C58.6019 58.6641 58.5366 58.6369 58.4542 58.5994L58.1701 58.4692L57.9931 58.5813L58.365 58.7518C58.4383 58.7848 58.5074 58.8066 58.5734 58.8181C58.6039 58.8231 58.644 58.8226 58.6928 58.8168C58.5993 58.8959 58.5446 58.9759 58.5289 59.0586C58.5135 59.141 58.5297 59.2199 58.5783 59.2948C58.6158 59.3529 58.6651 59.3965 58.7254 59.4257C58.7866 59.4549 58.8477 59.4632 58.9096 59.4508C58.9715 59.4386 59.0501 59.4018 59.1454 59.3415L59.6194 59.0416ZM58.8716 58.8579L59.1752 58.6653L59.4023 59.0149L59.0638 59.2291C58.9852 59.2788 58.9168 59.2993 58.8595 59.2905C58.802 59.2813 58.757 59.2514 58.7247 59.2017C58.7023 59.1677 58.6915 59.1299 58.6915 59.089C58.6913 59.0479 58.7052 59.0096 58.7332 58.9731C58.7606 58.9373 58.8066 58.8985 58.8716 58.8579ZM58.4609 59.758L57.8279 58.6706L57.6817 58.7534L58.3147 59.8408L58.4609 59.758ZM56.7595 59.9707L56.6915 59.8395V59.84L56.3598 60.0077L56.2514 59.7986C56.2686 59.7537 56.3013 59.704 56.3501 59.6477C56.3986 59.5924 56.4557 59.5477 56.5201 59.515C56.5949 59.4772 56.6735 59.4582 56.7565 59.4571C56.8397 59.4561 56.916 59.4805 56.9856 59.53C57.0547 59.5797 57.1156 59.6543 57.1672 59.7545C57.2091 59.8352 57.2335 59.9171 57.2409 60.0014C57.2445 60.0496 57.2399 60.0988 57.2268 60.1477C57.214 60.197 57.188 60.2442 57.1487 60.2898C57.1092 60.336 57.0555 60.3758 56.9877 60.4106C56.9306 60.4393 56.8733 60.4557 56.8168 60.4595C56.7595 60.4639 56.7107 60.4563 56.6683 60.4362C56.6262 60.4162 56.582 60.3822 56.5358 60.3342L56.4194 60.4387C56.478 60.504 56.5381 60.5506 56.6 60.5783C56.6617 60.6059 56.7323 60.6163 56.8119 60.609C56.8913 60.6019 56.9722 60.5775 57.0539 60.5362C57.1667 60.4793 57.2543 60.406 57.3167 60.3167C57.3797 60.2277 57.4092 60.1241 57.4066 60.0067C57.4038 59.889 57.374 59.7763 57.3177 59.6675C57.261 59.5581 57.1862 59.4703 57.0937 59.4049C57.0018 59.3397 56.898 59.3062 56.7829 59.3052C56.6678 59.3042 56.5551 59.3316 56.4438 59.3879C56.3619 59.4292 56.2892 59.4845 56.226 59.5533C56.1628 59.6221 56.1099 59.7038 56.0662 59.7989L56.281 60.2124L56.7595 59.9707ZM55.9596 61.0164L55.8808 59.6748L55.7179 59.7474L55.751 60.15L55.264 60.3675L54.9711 60.081L54.797 60.1587L55.7914 61.0915L55.9596 61.0164ZM55.368 60.4689L55.7623 60.2929L55.7893 60.6851C55.7955 60.7696 55.8078 60.8523 55.826 60.9337C55.778 60.8797 55.714 60.8122 55.6339 60.732L55.368 60.4689ZM55.0721 61.3884L54.6649 60.2L54.5052 60.2533L54.6863 60.781L54.5018 60.8429C54.4607 60.8566 54.4307 60.8645 54.4114 60.867C54.3847 60.869 54.3569 60.8665 54.3282 60.8597C54.2991 60.852 54.2632 60.8353 54.22 60.8071C54.1769 60.7795 54.1198 60.7379 54.0492 60.6818L53.8054 60.4875L53.6063 60.5539L53.9256 60.8081C53.9883 60.8576 54.0502 60.8957 54.1114 60.9223C54.1399 60.9342 54.1787 60.9436 54.2275 60.9492C54.1178 61.0038 54.0448 61.0685 54.0096 61.1448C53.9742 61.2212 53.9708 61.3016 53.9996 61.3861C54.0222 61.451 54.0595 61.5053 54.1111 61.5482C54.1627 61.5908 54.2205 61.6139 54.2832 61.6165C54.3464 61.6193 54.4317 61.6025 54.5391 61.5667L55.0721 61.3884ZM54.3911 61.0317L54.7328 60.9175L54.8676 61.3107L54.4869 61.4376C54.3986 61.4678 54.3274 61.4713 54.2734 61.4488C54.22 61.4264 54.1838 61.3866 54.1645 61.3308C54.1512 61.292 54.1499 61.2529 54.1599 61.2133C54.1694 61.1735 54.1928 61.1392 54.2282 61.1108C54.2645 61.0824 54.3184 61.0563 54.3911 61.0317ZM53.8003 61.8187L53.453 60.6118L53.2911 60.6574L53.4453 61.193L53.2577 61.2455C53.2161 61.2575 53.1856 61.2638 53.1665 61.2656C53.1393 61.2663 53.1118 61.2625 53.0838 61.2539C53.0551 61.2453 53.0196 61.2263 52.978 61.1966C52.9366 61.1666 52.8817 61.1222 52.8139 61.0624L52.5801 60.8566L52.3782 60.9134L52.6839 61.1829C52.7442 61.2356 52.8043 61.2762 52.8639 61.3059C52.8919 61.3194 52.9302 61.3308 52.9788 61.3387C52.8665 61.3879 52.7902 61.4488 52.7512 61.5231C52.7124 61.5979 52.7044 61.6781 52.7291 61.7639C52.7483 61.8301 52.783 61.8859 52.8323 61.9313C52.8819 61.9765 52.9382 62.0019 53.0009 62.0079C53.0638 62.0135 53.1496 62.0013 53.2585 61.9706L53.8003 61.8187ZM53.138 61.4287L53.4848 61.3318L53.6002 61.7311L53.2138 61.8395C53.1234 61.8648 53.0522 61.8651 52.9998 61.8397C52.9474 61.8146 52.913 61.7733 52.8968 61.7162C52.8853 61.6774 52.886 61.6383 52.8981 61.5992C52.9097 61.5599 52.9343 61.5269 52.9716 61.5003C53.0086 61.4734 53.0641 61.4495 53.138 61.4287ZM52.4807 62.1807L52.1953 60.9583L52.0306 60.9956L52.316 62.218L52.4807 62.1807Z" fill="#00053C"/>
<path fill-rule="evenodd" clip-rule="evenodd" d="M44.0055 39.5H39C39.1197 38.3574 39.499 37.3077 40.1376 36.3524C40.9238 35.1761 42.0135 34.2551 43.4067 33.5889C43.511 33.5389 43.6163 33.4909 43.7223 33.4449L43.722 33.3916L43.7082 30.5L46.979 30.5119V32.6374C47.2772 32.6112 47.5801 32.5956 47.8893 32.5914L47.9161 30.5119L51.1328 30.5123L51.1466 33.0029C51.3723 33.0641 51.5986 33.1317 51.8245 33.2061C53.0697 33.6173 54.1279 34.1771 55 34.8857L52.2449 37.9039C51.6846 37.4082 51.0266 37.0112 50.2715 36.7135C49.517 36.4159 48.7813 36.2672 48.0652 36.2672C47.2866 36.2672 46.5824 36.444 45.9518 36.7989C45.3215 37.1531 44.8269 37.6383 44.469 38.2547C44.2434 38.6429 44.0887 39.0581 44.0055 39.5Z" fill="#00053C"/>
<path fill-rule="evenodd" clip-rule="evenodd" d="M50.5653 48.5975L50.5396 51.4874H47.4744V49.0925C47.4337 49.0925 47.3933 49.093 47.3532 49.093C47.1015 49.093 46.8545 49.0839 46.6107 49.0656V51.5L43.52 51.4874V48.3358C43.52 48.3062 43.5203 48.2769 43.5211 48.2481C43.371 48.175 43.2227 48.0967 43.0766 48.0144C41.8063 47.2948 40.8093 46.3071 40.0856 45.0509C39.3617 43.7941 39 42.3787 39 40.8042C39 40.702 39.0014 40.6009 39.0049 40.5H43.7279C43.7224 40.6001 43.7195 40.7017 43.7195 40.8042C43.7195 41.6214 43.8927 42.3636 44.24 43.0296C44.5872 43.6962 45.0638 44.218 45.669 44.5965C46.2747 44.975 46.9469 45.1644 47.6854 45.1644C48.3505 45.1644 49.1328 44.9449 50.0341 44.5056V40.532H54V47.004C53.1583 47.6093 52.1166 48.1088 50.876 48.5026C50.7718 48.5354 50.6682 48.5672 50.5653 48.5975Z" fill="#FFFF7D"/>
<path d="M108.719 30.6094V39.625C108.365 40.0521 107.818 40.5156 107.078 41.0156C106.339 41.5052 105.385 41.9271 104.219 42.2812C103.052 42.6354 101.641 42.8125 99.9844 42.8125C98.5156 42.8125 97.1771 42.5729 95.9688 42.0938C94.7604 41.6042 93.7188 40.8906 92.8438 39.9531C91.9792 39.0156 91.3125 37.8698 90.8438 36.5156C90.375 35.151 90.1406 33.5938 90.1406 31.8438V30.4219C90.1406 28.6719 90.3646 27.1146 90.8125 25.75C91.2708 24.3854 91.9219 23.2344 92.7656 22.2969C93.6094 21.3594 94.6146 20.6458 95.7812 20.1562C96.9479 19.6667 98.2448 19.4219 99.6719 19.4219C101.651 19.4219 103.276 19.7448 104.547 20.3906C105.818 21.026 106.786 21.9115 107.453 23.0469C108.13 24.1719 108.547 25.4635 108.703 26.9219H104.156C104.042 26.151 103.823 25.4792 103.5 24.9062C103.177 24.3333 102.714 23.8854 102.109 23.5625C101.516 23.2396 100.745 23.0781 99.7969 23.0781C99.0156 23.0781 98.3177 23.2396 97.7031 23.5625C97.099 23.875 96.5885 24.3385 96.1719 24.9531C95.7552 25.5677 95.4375 26.3281 95.2188 27.2344C95 28.1406 94.8906 29.1927 94.8906 30.3906V31.8438C94.8906 33.0312 95.0052 34.0833 95.2344 35C95.4635 35.9062 95.8021 36.6719 96.25 37.2969C96.7083 37.9115 97.2708 38.375 97.9375 38.6875C98.6042 39 99.3802 39.1562 100.266 39.1562C101.005 39.1562 101.62 39.0938 102.109 38.9688C102.609 38.8438 103.01 38.6927 103.312 38.5156C103.625 38.3281 103.865 38.151 104.031 37.9844V33.9531H99.75V30.6094H108.719ZM121.75 23.6406L115.562 42.5H110.578L119.031 19.75H122.203L121.75 23.6406ZM126.891 42.5L120.688 23.6406L120.188 19.75H123.391L131.891 42.5H126.891ZM126.609 34.0312V37.7031H114.594V34.0312H126.609ZM134 19.75H142.484C144.224 19.75 145.719 20.0104 146.969 20.5312C148.229 21.0521 149.198 21.8229 149.875 22.8438C150.552 23.8646 150.891 25.1198 150.891 26.6094C150.891 27.8281 150.682 28.875 150.266 29.75C149.859 30.6146 149.281 31.3385 148.531 31.9219C147.792 32.4948 146.922 32.9531 145.922 33.2969L144.438 34.0781H137.062L137.031 30.4219H142.516C143.339 30.4219 144.021 30.276 144.562 29.9844C145.104 29.6927 145.51 29.2865 145.781 28.7656C146.062 28.2448 146.203 27.6406 146.203 26.9531C146.203 26.224 146.068 25.5938 145.797 25.0625C145.526 24.5312 145.115 24.125 144.562 23.8438C144.01 23.5625 143.318 23.4219 142.484 23.4219H138.688V42.5H134V19.75ZM146.719 42.5L141.531 32.3594L146.484 32.3281L151.734 42.2812V42.5H146.719ZM154.5 19.75H162.984C164.724 19.75 166.219 20.0104 167.469 20.5312C168.729 21.0521 169.698 21.8229 170.375 22.8438C171.052 23.8646 171.391 25.1198 171.391 26.6094C171.391 27.8281 171.182 28.875 170.766 29.75C170.359 30.6146 169.781 31.3385 169.031 31.9219C168.292 32.4948 167.422 32.9531 166.422 33.2969L164.938 34.0781H157.562L157.531 30.4219H163.016C163.839 30.4219 164.521 30.276 165.062 29.9844C165.604 29.6927 166.01 29.2865 166.281 28.7656C166.562 28.2448 166.703 27.6406 166.703 26.9531C166.703 26.224 166.568 25.5938 166.297 25.0625C166.026 24.5312 165.615 24.125 165.062 23.8438C164.51 23.5625 163.818 23.4219 162.984 23.4219H159.188V42.5H154.5V19.75ZM167.219 42.5L162.031 32.3594L166.984 32.3281L172.234 42.2812V42.5H167.219ZM179.984 19.75V42.5H175.312V19.75H179.984ZM85.0508 50.7031H86.6943L90.8867 61.1357L95.0703 50.7031H96.7227L91.5195 63.5H90.2363L85.0508 50.7031ZM84.5146 50.7031H85.9648L86.2021 58.5078V63.5H84.5146V50.7031ZM95.7998 50.7031H97.25V63.5H95.5625V58.5078L95.7998 50.7031ZM105.591 61.874V56.9785C105.591 56.6035 105.515 56.2783 105.362 56.0029C105.216 55.7217 104.993 55.5049 104.694 55.3525C104.396 55.2002 104.026 55.124 103.587 55.124C103.177 55.124 102.816 55.1943 102.506 55.335C102.201 55.4756 101.961 55.6602 101.785 55.8887C101.615 56.1172 101.53 56.3633 101.53 56.627H99.9043C99.9043 56.2871 99.9922 55.9502 100.168 55.6162C100.344 55.2822 100.596 54.9805 100.924 54.7109C101.258 54.4355 101.656 54.2188 102.119 54.0605C102.588 53.8965 103.109 53.8145 103.684 53.8145C104.375 53.8145 104.984 53.9316 105.512 54.166C106.045 54.4004 106.461 54.7549 106.76 55.2295C107.064 55.6982 107.217 56.2871 107.217 56.9961V61.4258C107.217 61.7422 107.243 62.0791 107.296 62.4365C107.354 62.7939 107.439 63.1016 107.551 63.3594V63.5H105.854C105.772 63.3125 105.708 63.0635 105.661 62.7529C105.614 62.4365 105.591 62.1436 105.591 61.874ZM105.872 57.7344L105.89 58.877H104.246C103.783 58.877 103.37 58.915 103.007 58.9912C102.644 59.0615 102.339 59.1699 102.093 59.3164C101.847 59.4629 101.659 59.6475 101.53 59.8701C101.401 60.0869 101.337 60.3418 101.337 60.6348C101.337 60.9336 101.404 61.2061 101.539 61.4521C101.674 61.6982 101.876 61.8945 102.146 62.041C102.421 62.1816 102.758 62.252 103.156 62.252C103.654 62.252 104.094 62.1465 104.475 61.9355C104.855 61.7246 105.157 61.4668 105.38 61.1621C105.608 60.8574 105.731 60.5615 105.749 60.2744L106.443 61.0566C106.402 61.3027 106.291 61.5752 106.109 61.874C105.928 62.1729 105.685 62.46 105.38 62.7354C105.081 63.0049 104.724 63.2305 104.308 63.4121C103.897 63.5879 103.435 63.6758 102.919 63.6758C102.274 63.6758 101.709 63.5498 101.223 63.2979C100.742 63.0459 100.367 62.709 100.098 62.2871C99.834 61.8594 99.7021 61.3818 99.7021 60.8545C99.7021 60.3447 99.8018 59.8965 100.001 59.5098C100.2 59.1172 100.487 58.792 100.862 58.5342C101.237 58.2705 101.688 58.0713 102.216 57.9365C102.743 57.8018 103.332 57.7344 103.982 57.7344H105.872ZM111.4 55.4844V63.5H109.774V53.9902H111.356L111.4 55.4844ZM114.371 53.9375L114.362 55.4492C114.228 55.4199 114.099 55.4023 113.976 55.3965C113.858 55.3848 113.724 55.3789 113.571 55.3789C113.196 55.3789 112.865 55.4375 112.578 55.5547C112.291 55.6719 112.048 55.8359 111.849 56.0469C111.649 56.2578 111.491 56.5098 111.374 56.8027C111.263 57.0898 111.189 57.4062 111.154 57.752L110.697 58.0156C110.697 57.4414 110.753 56.9023 110.864 56.3984C110.981 55.8945 111.16 55.4492 111.4 55.0625C111.641 54.6699 111.945 54.3652 112.314 54.1484C112.689 53.9258 113.135 53.8145 113.65 53.8145C113.768 53.8145 113.902 53.8291 114.055 53.8584C114.207 53.8818 114.312 53.9082 114.371 53.9375ZM117.509 50V63.5H115.874V50H117.509ZM123.318 53.9902L119.17 58.4287L116.85 60.8369L116.718 59.1055L118.379 57.1191L121.332 53.9902H123.318ZM121.833 63.5L118.44 58.9648L119.284 57.5146L123.749 63.5H121.833ZM128.768 63.6758C128.105 63.6758 127.505 63.5645 126.966 63.3418C126.433 63.1133 125.973 62.7939 125.586 62.3838C125.205 61.9736 124.912 61.4873 124.707 60.9248C124.502 60.3623 124.399 59.7471 124.399 59.0791V58.71C124.399 57.9365 124.514 57.248 124.742 56.6445C124.971 56.0352 125.281 55.5195 125.674 55.0977C126.066 54.6758 126.512 54.3564 127.01 54.1396C127.508 53.9229 128.023 53.8145 128.557 53.8145C129.236 53.8145 129.822 53.9316 130.314 54.166C130.812 54.4004 131.22 54.7285 131.536 55.1504C131.853 55.5664 132.087 56.0586 132.239 56.627C132.392 57.1895 132.468 57.8047 132.468 58.4727V59.2021H125.366V57.875H130.842V57.752C130.818 57.3301 130.73 56.9199 130.578 56.5215C130.432 56.123 130.197 55.7949 129.875 55.5371C129.553 55.2793 129.113 55.1504 128.557 55.1504C128.188 55.1504 127.848 55.2295 127.537 55.3877C127.227 55.54 126.96 55.7686 126.737 56.0732C126.515 56.3779 126.342 56.75 126.219 57.1895C126.096 57.6289 126.034 58.1357 126.034 58.71V59.0791C126.034 59.5303 126.096 59.9551 126.219 60.3535C126.348 60.7461 126.532 61.0918 126.772 61.3906C127.019 61.6895 127.314 61.9238 127.66 62.0938C128.012 62.2637 128.41 62.3486 128.855 62.3486C129.43 62.3486 129.916 62.2314 130.314 61.9971C130.713 61.7627 131.062 61.4492 131.36 61.0566L132.345 61.8389C132.14 62.1494 131.879 62.4453 131.562 62.7266C131.246 63.0078 130.856 63.2363 130.394 63.4121C129.937 63.5879 129.395 63.6758 128.768 63.6758ZM138.348 53.9902V55.2383H133.206V53.9902H138.348ZM134.946 51.6787H136.572V61.1445C136.572 61.4668 136.622 61.71 136.722 61.874C136.821 62.0381 136.95 62.1465 137.108 62.1992C137.267 62.252 137.437 62.2783 137.618 62.2783C137.753 62.2783 137.894 62.2666 138.04 62.2432C138.192 62.2139 138.307 62.1904 138.383 62.1729L138.392 63.5C138.263 63.541 138.093 63.5791 137.882 63.6143C137.677 63.6553 137.428 63.6758 137.135 63.6758C136.736 63.6758 136.37 63.5967 136.036 63.4385C135.702 63.2803 135.436 63.0166 135.236 62.6475C135.043 62.2725 134.946 61.7686 134.946 61.1357V51.6787ZM149.686 58.4814H146.267V57.1016H149.686C150.348 57.1016 150.884 56.9961 151.294 56.7852C151.704 56.5742 152.003 56.2812 152.19 55.9062C152.384 55.5312 152.48 55.1035 152.48 54.623C152.48 54.1836 152.384 53.7705 152.19 53.3838C152.003 52.9971 151.704 52.6865 151.294 52.4521C150.884 52.2119 150.348 52.0918 149.686 52.0918H146.662V63.5H144.966V50.7031H149.686C150.652 50.7031 151.47 50.8701 152.138 51.2041C152.806 51.5381 153.312 52.001 153.658 52.5928C154.004 53.1787 154.177 53.8496 154.177 54.6055C154.177 55.4258 154.004 56.126 153.658 56.7061C153.312 57.2861 152.806 57.7285 152.138 58.0332C151.47 58.332 150.652 58.4814 149.686 58.4814ZM157.842 50V63.5H156.207V50H157.842ZM166.06 61.874V56.9785C166.06 56.6035 165.983 56.2783 165.831 56.0029C165.685 55.7217 165.462 55.5049 165.163 55.3525C164.864 55.2002 164.495 55.124 164.056 55.124C163.646 55.124 163.285 55.1943 162.975 55.335C162.67 55.4756 162.43 55.6602 162.254 55.8887C162.084 56.1172 161.999 56.3633 161.999 56.627H160.373C160.373 56.2871 160.461 55.9502 160.637 55.6162C160.812 55.2822 161.064 54.9805 161.393 54.7109C161.727 54.4355 162.125 54.2188 162.588 54.0605C163.057 53.8965 163.578 53.8145 164.152 53.8145C164.844 53.8145 165.453 53.9316 165.98 54.166C166.514 54.4004 166.93 54.7549 167.229 55.2295C167.533 55.6982 167.686 56.2871 167.686 56.9961V61.4258C167.686 61.7422 167.712 62.0791 167.765 62.4365C167.823 62.7939 167.908 63.1016 168.02 63.3594V63.5H166.323C166.241 63.3125 166.177 63.0635 166.13 62.7529C166.083 62.4365 166.06 62.1436 166.06 61.874ZM166.341 57.7344L166.358 58.877H164.715C164.252 58.877 163.839 58.915 163.476 58.9912C163.112 59.0615 162.808 59.1699 162.562 59.3164C162.315 59.4629 162.128 59.6475 161.999 59.8701C161.87 60.0869 161.806 60.3418 161.806 60.6348C161.806 60.9336 161.873 61.2061 162.008 61.4521C162.143 61.6982 162.345 61.8945 162.614 62.041C162.89 62.1816 163.227 62.252 163.625 62.252C164.123 62.252 164.562 62.1465 164.943 61.9355C165.324 61.7246 165.626 61.4668 165.849 61.1621C166.077 60.8574 166.2 60.5615 166.218 60.2744L166.912 61.0566C166.871 61.3027 166.76 61.5752 166.578 61.874C166.396 62.1729 166.153 62.46 165.849 62.7354C165.55 63.0049 165.192 63.2305 164.776 63.4121C164.366 63.5879 163.903 63.6758 163.388 63.6758C162.743 63.6758 162.178 63.5498 161.691 63.2979C161.211 63.0459 160.836 62.709 160.566 62.2871C160.303 61.8594 160.171 61.3818 160.171 60.8545C160.171 60.3447 160.271 59.8965 160.47 59.5098C160.669 59.1172 160.956 58.792 161.331 58.5342C161.706 58.2705 162.157 58.0713 162.685 57.9365C163.212 57.8018 163.801 57.7344 164.451 57.7344H166.341ZM174.049 62.3398C174.436 62.3398 174.793 62.2607 175.121 62.1025C175.449 61.9443 175.719 61.7275 175.93 61.4521C176.141 61.1709 176.261 60.8516 176.29 60.4941H177.837C177.808 61.0566 177.617 61.5811 177.266 62.0674C176.92 62.5479 176.466 62.9375 175.903 63.2363C175.341 63.5293 174.723 63.6758 174.049 63.6758C173.334 63.6758 172.71 63.5498 172.177 63.2979C171.649 63.0459 171.21 62.7002 170.858 62.2607C170.513 61.8213 170.252 61.3174 170.076 60.749C169.906 60.1748 169.821 59.5684 169.821 58.9297V58.5605C169.821 57.9219 169.906 57.3184 170.076 56.75C170.252 56.1758 170.513 55.6689 170.858 55.2295C171.21 54.79 171.649 54.4443 172.177 54.1924C172.71 53.9404 173.334 53.8145 174.049 53.8145C174.793 53.8145 175.443 53.9668 176 54.2715C176.557 54.5703 176.993 54.9805 177.31 55.502C177.632 56.0176 177.808 56.6035 177.837 57.2598H176.29C176.261 56.8672 176.149 56.5127 175.956 56.1963C175.769 55.8799 175.511 55.6279 175.183 55.4404C174.86 55.2471 174.482 55.1504 174.049 55.1504C173.551 55.1504 173.132 55.25 172.792 55.4492C172.458 55.6426 172.191 55.9062 171.992 56.2402C171.799 56.5684 171.658 56.9346 171.57 57.3389C171.488 57.7373 171.447 58.1445 171.447 58.5605V58.9297C171.447 59.3457 171.488 59.7559 171.57 60.1602C171.652 60.5645 171.79 60.9307 171.983 61.2588C172.183 61.5869 172.449 61.8506 172.783 62.0498C173.123 62.2432 173.545 62.3398 174.049 62.3398ZM183.611 63.6758C182.949 63.6758 182.349 63.5645 181.81 63.3418C181.276 63.1133 180.816 62.7939 180.43 62.3838C180.049 61.9736 179.756 61.4873 179.551 60.9248C179.346 60.3623 179.243 59.7471 179.243 59.0791V58.71C179.243 57.9365 179.357 57.248 179.586 56.6445C179.814 56.0352 180.125 55.5195 180.518 55.0977C180.91 54.6758 181.355 54.3564 181.854 54.1396C182.352 53.9229 182.867 53.8145 183.4 53.8145C184.08 53.8145 184.666 53.9316 185.158 54.166C185.656 54.4004 186.063 54.7285 186.38 55.1504C186.696 55.5664 186.931 56.0586 187.083 56.627C187.235 57.1895 187.312 57.8047 187.312 58.4727V59.2021H180.21V57.875H185.686V57.752C185.662 57.3301 185.574 56.9199 185.422 56.5215C185.275 56.123 185.041 55.7949 184.719 55.5371C184.396 55.2793 183.957 55.1504 183.4 55.1504C183.031 55.1504 182.691 55.2295 182.381 55.3877C182.07 55.54 181.804 55.7686 181.581 56.0732C181.358 56.3779 181.186 56.75 181.062 57.1895C180.939 57.6289 180.878 58.1357 180.878 58.71V59.0791C180.878 59.5303 180.939 59.9551 181.062 60.3535C181.191 60.7461 181.376 61.0918 181.616 61.3906C181.862 61.6895 182.158 61.9238 182.504 62.0938C182.855 62.2637 183.254 62.3486 183.699 62.3486C184.273 62.3486 184.76 62.2314 185.158 61.9971C185.557 61.7627 185.905 61.4492 186.204 61.0566L187.188 61.8389C186.983 62.1494 186.723 62.4453 186.406 62.7266C186.09 63.0078 185.7 63.2363 185.237 63.4121C184.78 63.5879 184.238 63.6758 183.611 63.6758Z" fill="#FCFCFC"/>
<defs>
<radialGradient id="paint0_angular_44_1147" cx="0" cy="0" r="1" gradientUnits="userSpaceOnUse" gradientTransform="translate(45.4238 36.4206) rotate(163.546) scale(19.9526 12.5476)">
<stop stop-color="#FFFF7D"/>
<stop offset="0.21177" stop-color="#CECE04"/>
<stop offset="0.36863" stop-color="#FFFF7D"/>
<stop offset="0.54118" stop-color="#D2D20E"/>
<stop offset="0.72941" stop-color="#FFFF7D"/>
<stop offset="1" stop-color="#CCCC00"/>
</radialGradient>
</defs>
</svg>
