<svg width="23" height="29" viewBox="0 0 23 29" fill="none" xmlns="http://www.w3.org/2000/svg">
<path d="M23 23.2824V24.6519H0V23.2824L2.55556 20.5433V12.326C2.55556 8.08036 5.14944 4.34148 8.94444 3.13627V2.7391C8.94444 2.01265 9.21369 1.31595 9.69295 0.802265C10.1722 0.288583 10.8222 0 11.5 0C12.1778 0 12.8278 0.288583 13.3071 0.802265C13.7863 1.31595 14.0556 2.01265 14.0556 2.7391V3.13627C17.8506 4.34148 20.4444 8.08036 20.4444 12.326V20.5433L23 23.2824ZM14.0556 26.0215C14.0556 26.7479 13.7863 27.4446 13.3071 27.9583C12.8278 28.472 12.1778 28.7606 11.5 28.7606C10.8222 28.7606 10.1722 28.472 9.69295 27.9583C9.21369 27.4446 8.94444 26.7479 8.94444 26.0215" fill="#011032"/>
</svg>
