<svg width="63" height="63" viewBox="0 0 63 63" fill="none" xmlns="http://www.w3.org/2000/svg">
<ellipse cx="31.2024" cy="31.5" rx="22.2024" ry="22.5" fill="url(#paint0_linear_2_21)"/>
<path fill-rule="evenodd" clip-rule="evenodd" d="M16.1265 31.445L27.1742 20.2492C29.3563 18.0379 32.927 18.0379 35.1094 20.2492L46.1568 31.445H16.1265Z" fill="#FFFF7D" stroke="#00053C" stroke-width="2.4797"/>
<path fill-rule="evenodd" clip-rule="evenodd" d="M31.9904 44.4092C24.4304 44.4092 17.3398 38.271 15.4875 31.7887C27.4055 31.7887 34.5495 31.7887 46.9174 31.7887C44.1064 40.04 37.5087 44.4092 31.9904 44.4092Z" fill="#00053C"/>
<path d="M34.6173 50.7713L34.6405 50.9024L34.1733 50.9871L34.1002 50.5724C34.1616 50.5017 34.2278 50.4446 34.2991 50.4014C34.3704 50.3588 34.4461 50.3297 34.5263 50.3153C34.6349 50.2956 34.7375 50.3014 34.8344 50.3325C34.9307 50.363 35.0103 50.4195 35.0705 50.5002C35.1317 50.5809 35.172 50.6763 35.191 50.7861C35.2104 50.8949 35.2058 51.0003 35.1776 51.1031C35.1492 51.2056 35.0971 51.2872 35.0208 51.3482C34.9448 51.4093 34.8514 51.4498 34.7413 51.4695C34.6617 51.484 34.5871 51.484 34.5179 51.4695C34.4487 51.455 34.3917 51.4275 34.347 51.3876C34.3022 51.3473 34.2634 51.2912 34.2313 51.2193L34.3568 51.1592C34.3834 51.2129 34.4117 51.2537 34.4421 51.2821C34.4722 51.3102 34.5119 51.3302 34.5611 51.3413C34.61 51.3525 34.6626 51.3534 34.7183 51.3432C34.7848 51.331 34.8405 51.3106 34.8858 51.2809C34.9306 51.2516 34.9649 51.2174 34.989 51.1781C35.0128 51.1391 35.0295 51.0977 35.0388 51.0548C35.0545 50.9802 35.0554 50.9028 35.0412 50.8218C35.0236 50.7218 34.992 50.6411 34.9464 50.5798C34.9007 50.5187 34.8426 50.4776 34.7722 50.4568C34.7019 50.4359 34.6303 50.432 34.5575 50.445C34.4943 50.4565 34.4346 50.4803 34.3791 50.5157C34.3234 50.5516 34.2825 50.5861 34.2563 50.6202L34.2933 50.83L34.6173 50.7713ZM33.9773 50.4289L33.6919 51.6112L33.5299 51.6321L32.9356 50.5631L33.1032 50.5413L33.275 50.8665L33.7432 50.8064L33.821 50.4489L33.9773 50.4289ZM33.7152 50.933L33.3362 50.9817L33.4913 51.2794C33.5385 51.3701 33.5746 51.445 33.6008 51.5045C33.6067 51.4292 33.6181 51.3544 33.6348 51.2797L33.7152 50.933ZM32.814 50.5621L32.899 51.6955L32.4037 51.7336C32.3037 51.7414 32.2274 51.7369 32.174 51.7205C32.1206 51.7042 32.0765 51.6715 32.0416 51.6226C32.007 51.5733 31.9873 51.5178 31.9826 51.4555C31.9764 51.3748 31.9972 51.3051 32.0443 51.2461C32.0915 51.1869 32.1681 51.146 32.274 51.1228C32.2334 51.1068 32.2024 51.0902 32.1807 51.0733C32.1344 51.0364 32.0897 50.9892 32.0471 50.9319L31.8305 50.6381L32.0151 50.624L32.1809 50.8485C32.2289 50.9132 32.2682 50.9624 32.299 50.9967C32.3298 51.0305 32.3566 51.0538 32.3798 51.0665C32.4027 51.0789 32.4261 51.0873 32.4496 51.0912C32.4663 51.0937 32.494 51.0934 32.5322 51.0903L32.7037 51.077L32.6658 50.5738L32.814 50.5621ZM32.7132 51.2064L32.3956 51.2312C32.3279 51.2363 32.276 51.2475 32.2391 51.2647C32.2021 51.2816 32.1749 51.3064 32.1576 51.3394C32.1403 51.372 32.1329 51.4065 32.1355 51.443C32.1397 51.4968 32.1618 51.5397 32.2029 51.5712C32.2437 51.6029 32.3051 51.6153 32.3878 51.609L32.7414 51.5818L32.7132 51.2064ZM31.6849 50.6241L31.7133 51.7602L31.2164 51.7729C31.1162 51.7756 31.0402 51.7675 30.9877 51.7481C30.9352 51.7291 30.8929 51.6943 30.8603 51.6436C30.8282 51.5926 30.8112 51.536 30.8097 51.4735C30.8076 51.3931 30.8318 51.3242 30.8822 51.2677C30.9319 51.2111 31.0104 51.1742 31.1177 51.1561C31.0778 51.1383 31.0473 51.1198 31.0264 51.102C30.9823 51.0627 30.94 51.0135 30.9003 50.9539L30.6984 50.6492L30.8839 50.6448L31.0381 50.8771C31.0828 50.9448 31.1198 50.9956 31.1488 51.0316C31.1777 51.067 31.2037 51.0914 31.226 51.1054C31.2483 51.1189 31.271 51.1286 31.2942 51.1338C31.3109 51.1368 31.3387 51.1378 31.3769 51.1368L31.5487 51.1326L31.5361 50.6278L31.6849 50.6241ZM31.5519 51.2624L31.2334 51.2708C31.1658 51.2723 31.1133 51.2808 31.0754 51.2962C31.0378 51.3113 31.0091 51.3346 30.9904 51.3666C30.9713 51.3983 30.9624 51.4325 30.9633 51.4691C30.9648 51.5229 30.9848 51.567 31.0241 51.6005C31.0632 51.634 31.1243 51.6498 31.2069 51.6477L31.5615 51.6386L31.5519 51.2624ZM30.532 50.6193L30.5036 51.7557L30.3549 51.7517L30.3832 50.6156L30.532 50.6193ZM29.1103 50.9665L29.0937 51.0988L28.6228 51.0381L28.6749 50.6204C28.7546 50.5711 28.8348 50.5367 28.9153 50.5173C28.9961 50.4979 29.077 50.4932 29.1575 50.5038C29.267 50.5176 29.3633 50.5542 29.4467 50.6132C29.5297 50.6718 29.5887 50.7495 29.6227 50.8447C29.6569 50.9401 29.6674 51.0435 29.6537 51.1542C29.6398 51.2639 29.6046 51.3633 29.5473 51.4528C29.49 51.5419 29.4161 51.6042 29.3254 51.6392C29.2347 51.6743 29.134 51.6849 29.023 51.6704C28.9428 51.6601 28.8715 51.6378 28.81 51.603C28.7483 51.5679 28.7018 51.5247 28.6708 51.473C28.6397 51.4207 28.6195 51.3557 28.61 51.2774L28.7475 51.2575C28.7571 51.317 28.7719 51.3648 28.7926 51.401C28.8135 51.437 28.8453 51.4679 28.8889 51.4935C28.9321 51.5192 28.9822 51.5355 29.0383 51.5428C29.1053 51.5516 29.1647 51.5486 29.2166 51.5341C29.2682 51.5199 29.3108 51.4975 29.3454 51.4672C29.3797 51.4373 29.4077 51.4029 29.4295 51.3648C29.4662 51.2982 29.4901 51.2246 29.5002 51.1427C29.5131 51.042 29.5065 50.9556 29.4808 50.8834C29.4552 50.8111 29.412 50.7543 29.3511 50.7132C29.29 50.6719 29.2228 50.6464 29.1496 50.637C29.0857 50.6289 29.0219 50.6333 28.9584 50.6506C28.8946 50.6678 28.8454 50.6884 28.8106 50.7131L28.784 50.9244L29.1103 50.9665ZM28.5974 50.4648L27.9768 51.5072L27.8161 51.4781L27.5637 50.278L27.7298 50.3079L27.7981 50.6703L28.2627 50.7544L28.4423 50.437L28.5974 50.4648ZM28.199 50.8668L27.8226 50.7988L27.8831 51.1297C27.901 51.2304 27.9136 51.3132 27.921 51.3778C27.9491 51.3074 27.9818 51.2393 28.02 51.1735L28.199 50.8668ZM27.4442 50.2587L27.1921 51.3661L26.7079 51.2531C26.6104 51.2302 26.5385 51.203 26.4925 51.1712C26.4463 51.1395 26.4138 51.095 26.395 51.0376C26.3762 50.9802 26.3738 50.921 26.3876 50.8602C26.4055 50.7817 26.446 50.7215 26.5083 50.6792C26.5706 50.6369 26.6556 50.6211 26.7639 50.6308C26.7299 50.6033 26.7049 50.5779 26.689 50.5552C26.6559 50.5059 26.6269 50.4476 26.6031 50.3799L26.4827 50.0338L26.6634 50.076L26.7556 50.3402C26.7825 50.4169 26.8054 50.4759 26.8248 50.5176C26.8442 50.5593 26.863 50.5895 26.8815 50.6086C26.8997 50.6276 26.9194 50.6427 26.9405 50.6536C26.956 50.6606 26.9825 50.6687 27.0198 50.6775L27.1874 50.7165L27.2992 50.2248L27.4442 50.2587ZM27.1585 50.8435L26.848 50.771C26.7818 50.7556 26.729 50.7504 26.6885 50.7556C26.6483 50.7607 26.6151 50.7762 26.5891 50.8025C26.5626 50.8284 26.5456 50.8593 26.5373 50.895C26.5256 50.9472 26.5342 50.995 26.5638 51.0376C26.5937 51.0799 26.6488 51.1105 26.7293 51.1295L27.0749 51.2102L27.1585 50.8435ZM26.3437 49.9939L26.0375 51.087L25.5595 50.9495C25.4632 50.9217 25.3928 50.8909 25.3483 50.857C25.3039 50.8228 25.2734 50.7769 25.2577 50.7185C25.2419 50.6601 25.2422 50.6009 25.2589 50.5411C25.2807 50.4635 25.3239 50.4051 25.3886 50.3661C25.4527 50.3271 25.5386 50.3157 25.6459 50.3307C25.6132 50.3014 25.5898 50.2751 25.5749 50.2516C25.5442 50.2008 25.5182 50.1409 25.498 50.0721L25.3946 49.7206L25.5732 49.7719L25.652 50.0406C25.6749 50.1182 25.6952 50.1781 25.7125 50.221C25.7298 50.2636 25.7471 50.2948 25.7647 50.3151C25.7816 50.3347 25.8007 50.3507 25.8217 50.3625C25.8365 50.3707 25.8625 50.3801 25.8995 50.3907L26.0646 50.4381L26.2007 49.9525L26.3437 49.9939ZM26.0297 50.5637L25.7231 50.4754C25.6578 50.4567 25.605 50.4488 25.5645 50.4522C25.5243 50.4553 25.4902 50.4688 25.4628 50.4936C25.4353 50.5183 25.4165 50.548 25.4067 50.5836C25.3924 50.635 25.3986 50.6834 25.4264 50.7272C25.4538 50.771 25.5075 50.8042 25.5871 50.8272L25.928 50.9254L26.0297 50.5637ZM25.2397 49.657L24.8803 50.7335L24.7392 50.6851L25.0986 49.6086L25.2397 49.657ZM23.7942 49.5891L23.7458 49.7132L23.3042 49.5368L23.4566 49.1448C23.5458 49.1173 23.6319 49.1041 23.7149 49.1052C23.7978 49.1064 23.8771 49.1221 23.9528 49.1527C24.0554 49.1934 24.1398 49.2527 24.2063 49.331C24.2725 49.4083 24.3106 49.4984 24.3205 49.5993C24.3306 49.7006 24.3155 49.803 24.2751 49.9067C24.2352 50.0095 24.1767 50.0971 24.0995 50.1694C24.022 50.2416 23.9354 50.2833 23.8388 50.2948C23.7425 50.3063 23.6423 50.2911 23.5382 50.2494C23.463 50.2195 23.3996 50.18 23.3482 50.1306C23.2969 50.0813 23.2627 50.0279 23.2451 49.9702C23.2278 49.9118 23.2238 49.8435 23.2337 49.7653L23.3717 49.7807C23.3664 49.8405 23.3693 49.8907 23.3804 49.9309C23.3917 49.9711 23.4153 50.0088 23.4514 50.0445C23.4871 50.0801 23.5313 50.1085 23.5841 50.1297C23.647 50.1548 23.7051 50.1666 23.7588 50.1657C23.8122 50.1645 23.859 50.1539 23.8998 50.1331C23.9404 50.1128 23.9761 50.0865 24.0063 50.0548C24.0585 49.9995 24.0994 49.9339 24.1292 49.8575C24.1659 49.7632 24.1807 49.6777 24.1733 49.6012C24.1662 49.5248 24.1378 49.4588 24.0889 49.4038C24.0398 49.3485 23.981 49.3071 23.9121 49.2796C23.8525 49.2558 23.7896 49.2443 23.7236 49.2449C23.6574 49.2461 23.6049 49.2536 23.565 49.2687L23.4881 49.4667L23.7942 49.5891ZM23.4238 48.9614L22.5298 49.7741L22.3845 49.6988L22.4891 48.4763L22.6394 48.5542L22.6 48.9208L23.0203 49.139L23.2836 48.8885L23.4238 48.9614ZM22.9267 49.2276L22.5867 49.0511L22.5488 49.3857C22.5371 49.4873 22.5252 49.5698 22.5136 49.6341C22.5607 49.5752 22.6117 49.5199 22.6672 49.4678L22.9267 49.2276ZM22.3767 48.4291L21.8179 49.4143L21.387 49.1632C21.3002 49.1127 21.2394 49.0656 21.2045 49.0215C21.1693 48.9776 21.1511 48.9254 21.1496 48.8649C21.1481 48.8048 21.1628 48.7473 21.1935 48.6929C21.2332 48.6231 21.2889 48.5775 21.361 48.5554C21.4326 48.5332 21.5185 48.5432 21.6193 48.5844C21.5946 48.5481 21.5782 48.5164 21.5696 48.49C21.5517 48.4332 21.5409 48.3688 21.5377 48.2969L21.5219 47.9306L21.6827 48.0243L21.6946 48.3042C21.6985 48.3855 21.7039 48.4487 21.7101 48.4943C21.7166 48.5397 21.7259 48.5744 21.7382 48.5979C21.7501 48.6215 21.765 48.6417 21.782 48.6584C21.7946 48.6696 21.8178 48.6853 21.8509 48.7046L21.9999 48.7913L22.2481 48.3537L22.3767 48.4291ZM21.9357 48.9045L21.6595 48.7434C21.6005 48.709 21.5513 48.6887 21.5113 48.6818C21.4714 48.6749 21.435 48.68 21.4028 48.6972C21.37 48.7141 21.3447 48.7385 21.3268 48.7703C21.3005 48.8172 21.2949 48.8652 21.3113 48.9148C21.3274 48.9641 21.3715 49.0096 21.4434 49.0514L21.7505 49.2306L21.9357 48.9045ZM21.3968 47.857L20.7914 48.8138L20.373 48.5421C20.2888 48.4871 20.2304 48.4373 20.1974 48.3916C20.1646 48.346 20.1487 48.2928 20.1499 48.2324C20.1514 48.1723 20.1687 48.1154 20.2021 48.0629C20.245 47.9949 20.3029 47.9519 20.3759 47.9335C20.4484 47.915 20.534 47.9292 20.6324 47.9751C20.6095 47.9376 20.5945 47.9053 20.587 47.8785C20.5722 47.821 20.5644 47.7561 20.5644 47.6842L20.5659 47.3173L20.7222 47.4189L20.7209 47.699C20.7206 47.7803 20.7231 47.8438 20.7272 47.8898C20.7316 47.9354 20.7394 47.9704 20.7504 47.9946C20.7612 48.0187 20.7748 48.0396 20.7912 48.0571C20.8035 48.0693 20.8255 48.0856 20.858 48.1067L21.0023 48.2004L21.2714 47.7754L21.3968 47.857ZM20.9334 48.31L20.6652 48.1359C20.6079 48.0987 20.5597 48.0758 20.52 48.067C20.4803 48.0583 20.444 48.0613 20.4108 48.077C20.3774 48.0927 20.3512 48.1157 20.3315 48.1468C20.3028 48.1918 20.2951 48.2396 20.3092 48.29C20.3228 48.3402 20.3646 48.3877 20.4344 48.4327L20.7329 48.6267L20.9334 48.31ZM20.4329 47.2157L19.7828 48.142L19.6614 48.0547L20.3116 47.1284L20.4329 47.2157ZM19.0649 46.7337L18.9838 46.8385L18.6104 46.5415L18.8672 46.2102C18.9603 46.2096 19.0467 46.2217 19.1258 46.2471C19.2048 46.2725 19.2764 46.3106 19.3405 46.3613C19.427 46.4305 19.4911 46.5118 19.5328 46.6061C19.5742 46.6996 19.5856 46.7969 19.5665 46.8963C19.5474 46.9964 19.5039 47.09 19.4359 47.1777C19.3686 47.2647 19.288 47.3315 19.1931 47.3787C19.0989 47.4253 19.004 47.4404 18.9083 47.4228C18.8129 47.4059 18.721 47.3624 18.633 47.2925C18.5695 47.2418 18.5197 47.1852 18.4846 47.1233C18.4494 47.0614 18.4315 47 18.4312 46.9395C18.4309 46.8788 18.4467 46.8119 18.4783 46.74L18.606 46.7947C18.5842 46.8507 18.5729 46.8993 18.572 46.9413C18.5717 46.983 18.5834 47.026 18.6078 47.0707C18.6319 47.1151 18.6665 47.1554 18.711 47.191C18.764 47.2333 18.8165 47.2615 18.8684 47.2763C18.92 47.2908 18.9677 47.2938 19.0128 47.286C19.0575 47.2782 19.0989 47.2634 19.1368 47.2419C19.2022 47.2041 19.26 47.153 19.31 47.0884C19.3721 47.0086 19.4103 46.9312 19.4252 46.8557C19.4397 46.7804 19.4311 46.709 19.3998 46.642C19.3686 46.5749 19.3238 46.5181 19.2656 46.4719C19.2152 46.4316 19.1579 46.4024 19.0947 46.3839C19.0312 46.3655 18.9787 46.358 18.9361 46.3607L18.8064 46.5281L19.0649 46.7337ZM18.8833 46.0298L17.798 46.5517L17.6799 46.4375L18.123 45.2957L18.2453 45.4136L18.1048 45.7539L18.4466 46.0839L18.769 45.9198L18.8833 46.0298ZM18.3318 46.142L18.0554 45.8748L17.9254 46.1847C17.8857 46.279 17.8511 46.3545 17.8219 46.4129C17.8837 46.37 17.9481 46.3316 18.0158 46.2977L18.3318 46.142ZM18.0267 45.2199L17.2152 46.0042L16.8723 45.6398C16.8031 45.5663 16.7581 45.5038 16.7366 45.4515C16.7154 45.3993 16.7124 45.3439 16.7279 45.2856C16.7434 45.2272 16.7733 45.1764 16.818 45.1332C16.8756 45.0776 16.9421 45.0498 17.0173 45.0492C17.0922 45.0489 17.1718 45.083 17.2567 45.1514C17.2434 45.1094 17.2361 45.0747 17.2355 45.0468C17.2343 44.9873 17.2421 44.9223 17.2587 44.8522L17.3461 44.4966L17.4741 44.6326L17.4073 44.9046C17.3882 44.9835 17.3758 45.0454 17.3691 45.0911C17.3626 45.1367 17.362 45.1727 17.3667 45.199C17.3717 45.2246 17.3801 45.2483 17.392 45.2694C17.401 45.2838 17.4186 45.305 17.4451 45.3334L17.5636 45.4595L17.9241 45.111L18.0266 45.2201L18.0267 45.2199ZM17.4709 45.549L17.2511 45.3154C17.2039 45.2656 17.1625 45.232 17.1261 45.2138C17.0897 45.1954 17.0536 45.19 17.0176 45.1972C16.9815 45.2041 16.9505 45.2201 16.9243 45.2456C16.8861 45.2828 16.8673 45.3275 16.8691 45.3795C16.8709 45.4314 16.9003 45.4877 16.9573 45.5484L17.2021 45.8086L17.4709 45.549ZM17.2454 44.3912L16.3976 45.1353L16.0722 44.7544C16.0066 44.678 15.9646 44.613 15.9458 44.5602C15.927 44.5067 15.9267 44.4513 15.9449 44.3939C15.9631 44.3364 15.9952 44.2869 16.0421 44.2461C16.102 44.1932 16.1697 44.1687 16.2448 44.1717C16.3197 44.175 16.3976 44.2127 16.4793 44.2853C16.4676 44.2427 16.4626 44.2073 16.4629 44.1795C16.4647 44.12 16.4755 44.0556 16.4954 43.9867L16.5991 43.6352L16.7205 43.7772L16.6415 44.0459C16.6185 44.1235 16.603 44.1849 16.594 44.2303C16.5857 44.2756 16.5832 44.3113 16.5869 44.3379C16.5908 44.3638 16.5979 44.3877 16.609 44.4092C16.617 44.4242 16.6337 44.4467 16.6587 44.476L16.7714 44.6074L17.1479 44.2771L17.2454 44.3912ZM16.6742 44.6928L16.4657 44.4489C16.4213 44.3969 16.3814 44.3613 16.3456 44.3413C16.3101 44.3213 16.2743 44.3141 16.2379 44.3198C16.2018 44.3249 16.17 44.3395 16.1428 44.3636C16.1026 44.3987 16.0817 44.4425 16.0811 44.4944C16.0805 44.5464 16.1073 44.6042 16.1616 44.6676L16.3936 44.9391L16.6742 44.6928ZM16.498 43.5012L15.6161 44.2036L15.5242 44.0848L16.4061 43.3827L16.498 43.5012ZM15.3188 42.6483L15.2115 42.7257L14.9365 42.3337L15.2753 42.0895C15.3648 42.1155 15.4441 42.1521 15.5127 42.1989C15.5815 42.2458 15.6397 42.3029 15.6868 42.37C15.7506 42.4613 15.7893 42.5577 15.8031 42.6599C15.8168 42.7614 15.8007 42.8578 15.7544 42.9479C15.7082 43.0382 15.6405 43.1159 15.5508 43.1803C15.4619 43.2444 15.3656 43.2854 15.2621 43.3032C15.1587 43.3214 15.0632 43.3083 14.9764 43.2645C14.8893 43.2207 14.8135 43.1527 14.7489 43.0603C14.7017 42.9934 14.6699 42.9252 14.6535 42.8557C14.6371 42.7862 14.6371 42.7224 14.6538 42.664C14.6702 42.6057 14.7039 42.5465 14.7543 42.486L14.8617 42.5752C14.825 42.6227 14.8006 42.6662 14.788 42.706C14.776 42.7459 14.7754 42.7907 14.7862 42.8405C14.7973 42.89 14.819 42.9384 14.8518 42.9853C14.891 43.0409 14.9333 43.0832 14.9789 43.1122C15.0243 43.1406 15.0693 43.1575 15.1149 43.1626C15.16 43.168 15.2038 43.1657 15.2461 43.156C15.3195 43.1385 15.389 43.1062 15.4552 43.0584C15.5369 42.9995 15.595 42.9364 15.6302 42.8683C15.6654 42.8004 15.677 42.7292 15.6657 42.6562C15.6543 42.5827 15.6272 42.5154 15.5845 42.4543C15.5472 42.4014 15.5007 42.357 15.445 42.321C15.3892 42.2853 15.3409 42.2626 15.2994 42.2533L15.1279 42.3766L15.3188 42.6483ZM15.3605 41.9091L14.1841 42.1554L14.0961 42.0164L14.7939 41.0133L14.8849 41.1575L14.6687 41.4543L14.9236 41.8568L15.2755 41.7749L15.3605 41.9091ZM14.7987 41.8859L14.5926 41.5597L14.3936 41.8296C14.3331 41.9115 14.2818 41.9765 14.2397 42.026C14.3098 41.9992 14.3813 41.9773 14.455 41.9607L14.7987 41.8859ZM14.7399 40.9024L13.7417 41.4204L13.5151 40.9722C13.4698 40.8818 13.4442 40.8087 13.4382 40.7524C13.4326 40.6962 13.4451 40.6424 13.4764 40.5907C13.5077 40.5394 13.5507 40.4991 13.6055 40.4707C13.6762 40.4338 13.7478 40.4263 13.82 40.4475C13.8921 40.4687 13.9586 40.5245 14.0209 40.6146C14.0197 40.5705 14.023 40.5348 14.0299 40.5079C14.0457 40.4504 14.071 40.3906 14.1068 40.3284L14.2905 40.0122L14.3748 40.1796L14.2347 40.4211C14.1941 40.4912 14.1646 40.5471 14.1455 40.5888C14.1264 40.6305 14.1156 40.665 14.1133 40.6916C14.1106 40.7179 14.1121 40.7426 14.1175 40.7663C14.122 40.7829 14.1333 40.8086 14.1506 40.843L14.229 40.9981L14.6722 40.7681L14.7399 40.9024ZM14.1145 41.0575L13.9692 40.7704C13.9382 40.709 13.9081 40.6649 13.878 40.6368C13.8484 40.609 13.815 40.593 13.7786 40.5896C13.7422 40.5863 13.708 40.5927 13.6755 40.6093C13.6286 40.6337 13.598 40.6712 13.5851 40.7217C13.5719 40.7721 13.5848 40.8343 13.6224 40.909L13.7841 41.229L14.1145 41.0575ZM14.2201 39.8839L13.1981 40.352L12.9935 39.8933C12.9523 39.8007 12.9299 39.7265 12.9269 39.6702C12.9239 39.6137 12.9392 39.5605 12.9729 39.5104C13.0065 39.4609 13.0513 39.4228 13.1077 39.3971C13.1802 39.3639 13.2517 39.3599 13.323 39.3847C13.3937 39.4091 13.4578 39.4681 13.5156 39.5611C13.5165 39.517 13.5216 39.4817 13.5296 39.4551C13.5481 39.3985 13.5765 39.3399 13.6152 39.2795L13.8135 38.9728L13.8901 39.1441L13.7383 39.3786C13.6945 39.4463 13.6623 39.501 13.6411 39.5419C13.6202 39.5826 13.608 39.6162 13.6041 39.6428C13.6002 39.6688 13.6005 39.6939 13.6047 39.7175C13.6086 39.7341 13.6181 39.7604 13.634 39.7958L13.7049 39.9547L14.1589 39.7464L14.2201 39.8839ZM13.5878 40.0081L13.4566 39.714C13.4289 39.6512 13.4005 39.6055 13.372 39.5762C13.3436 39.5469 13.3115 39.5293 13.2751 39.5242C13.2387 39.5188 13.2044 39.5236 13.171 39.5387C13.123 39.5608 13.0905 39.5968 13.0753 39.6466C13.0601 39.6961 13.0697 39.759 13.1036 39.8355L13.2498 40.1631L13.5878 40.0081ZM13.7516 38.8165L12.7081 39.2333L12.6536 39.0931L13.6967 38.676L13.7516 38.8165ZM12.859 37.6575L12.7344 37.7003L12.5823 37.2446L12.976 37.1095C13.0544 37.1609 13.12 37.2187 13.1725 37.2837C13.225 37.3487 13.2647 37.4203 13.2906 37.4985C13.3261 37.6043 13.3357 37.708 13.3199 37.8098C13.3044 37.911 13.2612 37.9987 13.1913 38.0715C13.1218 38.1447 13.0345 38.1991 12.9303 38.2347C12.8272 38.2701 12.7233 38.2816 12.619 38.2685C12.5146 38.2552 12.4273 38.2154 12.3566 38.1479C12.2856 38.0805 12.2322 37.9932 12.1964 37.8859C12.1705 37.8082 12.1591 37.7336 12.163 37.6622C12.1673 37.5906 12.1854 37.5296 12.2176 37.4788C12.2501 37.4274 12.2994 37.3805 12.3643 37.3377L12.4421 37.4543C12.3935 37.4887 12.3578 37.5235 12.3345 37.5582C12.3118 37.5927 12.2984 37.6352 12.2947 37.6864C12.2908 37.7368 12.2981 37.7898 12.3163 37.8441C12.3381 37.9088 12.3663 37.9614 12.4021 38.0024C12.4373 38.0432 12.4755 38.0725 12.5175 38.0907C12.5593 38.1088 12.6019 38.1194 12.6455 38.1223C12.7204 38.1268 12.7964 38.1163 12.8733 38.09C12.9681 38.0574 13.0421 38.0138 13.0949 37.9586C13.148 37.9039 13.1792 37.8395 13.1891 37.7661C13.199 37.692 13.1921 37.6201 13.1685 37.5491C13.1479 37.4874 13.116 37.4312 13.0728 37.3807C13.0296 37.3303 12.9895 37.2947 12.9526 37.2732L12.7537 37.3417L12.859 37.6575ZM13.1042 36.9629L11.9077 36.8541L11.8633 36.6952L12.8173 35.9393L12.8636 36.1041L12.5719 36.3246L12.701 36.7852L13.0612 36.8097L13.1042 36.9629ZM12.573 36.7759L12.4687 36.4035L12.2018 36.6036C12.1203 36.664 12.0524 36.7118 11.9984 36.7468C12.073 36.7414 12.1475 36.7417 12.223 36.7474L12.573 36.7759ZM12.8072 35.8154L11.7145 36.0712L11.6027 35.5804C11.5803 35.4816 11.5731 35.4045 11.5809 35.3483C11.5889 35.2927 11.6142 35.2435 11.6569 35.2011C11.6995 35.1591 11.7508 35.1307 11.8108 35.1167C11.8883 35.0986 11.9596 35.1089 12.0243 35.1473C12.0891 35.1857 12.1406 35.2561 12.1794 35.3588C12.1887 35.3159 12.2003 35.2821 12.2134 35.2578C12.2427 35.2059 12.282 35.1542 12.3315 35.1025L12.5856 34.8413L12.627 35.0245L12.4332 35.224C12.3768 35.2821 12.3348 35.3288 12.3061 35.3648C12.2778 35.4008 12.2593 35.431 12.25 35.4564C12.2414 35.4812 12.2368 35.5059 12.2363 35.5299C12.2369 35.5471 12.2414 35.5746 12.2497 35.6124L12.2885 35.7822L12.7737 35.6689L12.8072 35.8154ZM12.1633 35.8115L12.0918 35.4968C12.0766 35.4297 12.0578 35.3796 12.0354 35.3448C12.0133 35.3104 11.985 35.2868 11.9504 35.2747C11.9158 35.2623 11.8812 35.26 11.8458 35.2684C11.7942 35.2806 11.7557 35.3089 11.7309 35.3548C11.7062 35.4005 11.7032 35.4642 11.722 35.5459L11.8016 35.8961L12.1633 35.8115ZM12.5722 34.6938L11.4595 34.8371L11.3969 34.3375C11.3843 34.2369 11.3846 34.1592 11.3981 34.1045C11.4114 34.0498 11.4416 34.0033 11.4882 33.9655C11.5347 33.928 11.5887 33.905 11.6498 33.8972C11.7288 33.8872 11.7986 33.9044 11.8594 33.9495C11.92 33.9942 11.9638 34.0695 11.9924 34.1758C12.0058 34.1339 12.0211 34.1012 12.0366 34.0786C12.0706 34.0299 12.1147 33.9822 12.169 33.9362L12.4479 33.702L12.4711 33.8884L12.2582 34.0673C12.1967 34.1193 12.1502 34.1619 12.1183 34.1946C12.0861 34.2272 12.0646 34.2556 12.0533 34.2799C12.0422 34.3037 12.0351 34.3277 12.0323 34.3518C12.0308 34.3687 12.0327 34.3968 12.0377 34.4352L12.0592 34.6081L12.5533 34.5447L12.5722 34.6938ZM11.9319 34.6243L11.8917 34.3043C11.8831 34.2361 11.8694 34.1837 11.8506 34.1471C11.8321 34.1108 11.8062 34.0843 11.7731 34.0689C11.74 34.0529 11.7054 34.0471 11.6696 34.0517C11.6171 34.0586 11.576 34.0831 11.5468 34.1263C11.5178 34.1692 11.5086 34.2321 11.519 34.3152L11.5638 34.6718L11.9319 34.6243ZM12.4266 33.5345L11.3139 33.6778L11.2954 33.5282L12.4078 33.3849L12.4266 33.5345ZM11.8955 32.1612L11.764 32.1643L11.7521 31.6834L12.1675 31.6728C12.2271 31.7451 12.273 31.82 12.3041 31.898C12.3354 31.9759 12.3522 32.056 12.3542 32.1385C12.3569 32.2504 12.336 32.3522 12.2909 32.4447C12.2462 32.5366 12.1797 32.6076 12.0917 32.656C12.0037 32.705 11.9044 32.731 11.7946 32.7336C11.6854 32.7364 11.5832 32.7161 11.4872 32.6723C11.3914 32.6285 11.3196 32.5638 11.2718 32.4783C11.2238 32.3928 11.1984 32.2934 11.1955 32.18C11.1937 32.0981 11.2048 32.0231 11.2295 31.9564C11.2542 31.8892 11.2894 31.8363 11.335 31.7974C11.381 31.7584 11.4418 31.7282 11.5167 31.7067L11.5566 31.8415C11.4999 31.86 11.4558 31.8823 11.4233 31.9087C11.3914 31.9347 11.3663 31.9715 11.3479 32.019C11.3297 32.0662 11.3208 32.1188 11.3223 32.1762C11.3241 32.2445 11.336 32.3035 11.3578 32.3533C11.3796 32.4028 11.4078 32.4421 11.4424 32.4724C11.477 32.5023 11.5146 32.525 11.5551 32.541C11.6255 32.5682 11.701 32.5806 11.7823 32.5784C11.8826 32.576 11.9657 32.5563 12.0326 32.5199C12.0991 32.4833 12.148 32.4313 12.179 32.3642C12.2098 32.2965 12.2244 32.2254 12.2229 32.1508C12.2211 32.0855 12.2068 32.0224 12.1808 31.961C12.154 31.9 12.1263 31.8538 12.0973 31.8223L11.8871 31.8277L11.8955 32.1612ZM12.3175 31.5716L11.2072 31.1069L11.2114 30.9418L12.344 30.5078L12.3398 30.6789L11.9966 30.8018L11.9846 31.2803L12.3213 31.412L12.3175 31.5716ZM11.8654 31.2329L11.8749 30.8457L11.5611 30.9564C11.4657 30.9896 11.387 31.0148 11.325 31.0317C11.3978 31.0492 11.4691 31.0719 11.5391 31.0999L11.8654 31.2329ZM12.3536 30.3857L11.2352 30.2997L11.2731 29.7971C11.2806 29.6961 11.2963 29.6203 11.3203 29.5692C11.3444 29.5181 11.3829 29.4788 11.4363 29.4513C11.4894 29.4241 11.5467 29.4126 11.6081 29.4175C11.6874 29.4235 11.7525 29.4549 11.8028 29.5112C11.8535 29.5674 11.8816 29.6503 11.8884 29.7599C11.9102 29.7215 11.9313 29.693 11.951 29.6738C11.9939 29.6333 12.0464 29.5955 12.1091 29.5614L12.4285 29.3888L12.4145 29.5762L12.1705 29.7079C12.0998 29.7463 12.0458 29.7783 12.0079 29.804C11.97 29.8297 11.9435 29.8533 11.9274 29.8744C11.9119 29.8956 11.9002 29.9176 11.8928 29.9406C11.8881 29.9572 11.8842 29.9847 11.8811 30.0234L11.868 30.1973L12.3648 30.2354L12.3536 30.3857ZM11.7401 30.1872L11.7642 29.8653C11.7693 29.7968 11.7663 29.743 11.7553 29.7033C11.7442 29.6637 11.724 29.6326 11.6948 29.6105C11.6652 29.5881 11.6327 29.5755 11.5966 29.5727C11.5439 29.5688 11.4985 29.5845 11.4615 29.6205C11.4245 29.6568 11.4031 29.7166 11.3968 29.8003L11.3699 30.1587L11.7401 30.1872ZM12.4544 29.2443L11.3417 29.101L11.4043 28.6012C11.4172 28.5005 11.4365 28.4256 11.463 28.376C11.4896 28.3262 11.5301 28.289 11.5844 28.2642C11.639 28.2397 11.6968 28.2312 11.7579 28.2391C11.8369 28.2491 11.9002 28.2838 11.9476 28.3427C11.9957 28.4011 12.0195 28.4853 12.021 28.5954C12.0445 28.5582 12.0669 28.5307 12.0875 28.5122C12.1326 28.4738 12.1869 28.4391 12.2513 28.4083L12.5788 28.252L12.5555 28.4385L12.305 28.5579C12.2325 28.5926 12.177 28.622 12.138 28.6455C12.0992 28.669 12.0713 28.6911 12.0542 28.7117C12.0375 28.732 12.0246 28.7534 12.0163 28.7761C12.0106 28.7921 12.0055 28.8196 12.0008 28.8583L11.979 29.0309L12.4731 29.0947L12.4544 29.2443ZM11.8517 29.0146L11.8916 28.6943C11.9003 28.626 11.8999 28.5722 11.8907 28.532C11.8815 28.4918 11.863 28.4601 11.8349 28.4362C11.8066 28.4124 11.7747 28.3981 11.7389 28.3936C11.6861 28.387 11.6402 28.4003 11.6014 28.4347C11.5626 28.4688 11.5384 28.5275 11.528 28.6106L11.4832 28.9671L11.8517 29.0146ZM12.6247 28.0886L11.5206 27.8888L11.5469 27.7402L12.6509 27.9403L12.6247 28.0886ZM12.4818 26.631L12.3536 26.601L12.4603 26.1323L12.8653 26.2268C12.9055 26.3121 12.9312 26.3964 12.9425 26.4795C12.9532 26.5629 12.9496 26.6448 12.9314 26.7252C12.9067 26.834 12.8614 26.9275 12.7948 27.0057C12.7289 27.0833 12.6469 27.1354 12.55 27.1602C12.4528 27.1852 12.3502 27.1852 12.2432 27.1602C12.137 27.1351 12.0428 27.0895 11.9608 27.0226C11.879 26.9561 11.8251 26.8754 11.8 26.7806C11.7744 26.6857 11.7744 26.5829 11.7994 26.4723C11.8176 26.3925 11.8469 26.323 11.8871 26.2643C11.9276 26.2057 11.9747 26.1634 12.0287 26.1374C12.0827 26.1111 12.1489 26.0971 12.2268 26.0954L12.2321 26.2359C12.1731 26.2396 12.1244 26.2501 12.0868 26.2671C12.0495 26.2843 12.0162 26.3133 11.9863 26.355C11.9571 26.3961 11.9359 26.4448 11.9231 26.5007C11.9079 26.5675 11.9049 26.6273 11.9138 26.6811C11.9228 26.7346 11.9404 26.7799 11.9666 26.818C11.9925 26.8555 12.0233 26.8872 12.0588 26.9129C12.1205 26.9567 12.1903 26.9879 12.2696 27.0066C12.3671 27.0292 12.4527 27.0314 12.5261 27.0129C12.5998 26.9945 12.6597 26.9564 12.7062 26.899C12.7531 26.8416 12.7847 26.7767 12.8013 26.7035C12.8156 26.6401 12.8174 26.5754 12.807 26.5095C12.7962 26.4433 12.781 26.3917 12.7604 26.3539L12.5555 26.3061L12.4815 26.631L12.4818 26.631ZM13.0485 26.1689L12.1239 25.3915L12.1764 25.2349L13.3851 25.1608L13.3309 25.3231L12.9673 25.3373L12.8158 25.7904L13.0988 26.0177L13.0485 26.1689ZM12.7157 25.7098L12.8382 25.3429L12.506 25.3541C12.4051 25.3572 12.3229 25.3575 12.2585 25.355C12.3229 25.3937 12.3843 25.4366 12.4433 25.4847L12.7157 25.7098ZM13.4177 25.0428L12.3746 24.626L12.5567 24.1572C12.5934 24.0629 12.6307 23.9952 12.6682 23.9535C12.7061 23.9122 12.7544 23.8861 12.8132 23.8759C12.8719 23.8656 12.9301 23.8719 12.9873 23.8946C13.0616 23.9243 13.1144 23.9738 13.1463 24.0428C13.1781 24.1113 13.1812 24.1991 13.1555 24.306C13.1874 24.2758 13.2157 24.2547 13.2402 24.2423C13.2933 24.2163 13.3544 24.196 13.4242 24.1822L13.7796 24.1127L13.7117 24.2877L13.44 24.3406C13.3613 24.356 13.3005 24.3705 13.257 24.3838C13.2134 24.3971 13.181 24.4113 13.1594 24.427C13.1382 24.4424 13.1209 24.4602 13.107 24.4799C13.0977 24.494 13.0861 24.5195 13.0721 24.5555L13.0088 24.7174L13.4723 24.9027L13.4177 25.0428ZM12.8893 24.6698L13.0065 24.3693C13.0313 24.3052 13.0441 24.253 13.045 24.2116C13.0459 24.1705 13.0358 24.1352 13.014 24.1049C12.9925 24.075 12.9651 24.0533 12.9313 24.0396C12.8822 24.02 12.8341 24.0215 12.7882 24.045C12.7425 24.0683 12.7046 24.1194 12.6743 24.1973L12.5443 24.5316L12.8893 24.6698ZM13.8364 23.9777L12.8144 23.5095L13.0193 23.0504C13.0604 22.9582 13.101 22.8921 13.1406 22.8528C13.1806 22.8132 13.2301 22.7896 13.2891 22.7821C13.3484 22.7749 13.4061 22.7839 13.4622 22.8096C13.5346 22.8428 13.5853 22.8949 13.6137 22.9653C13.6423 23.0354 13.6411 23.123 13.6103 23.2285C13.6434 23.2001 13.673 23.1805 13.698 23.1693C13.7523 23.1461 13.8143 23.1289 13.8847 23.1183L14.2429 23.0666L14.1666 23.238L13.8928 23.2776C13.8135 23.2892 13.7521 23.3006 13.708 23.3115C13.6638 23.3227 13.6307 23.3353 13.6083 23.3502C13.5865 23.3643 13.5684 23.3811 13.5534 23.4C13.5436 23.4139 13.5305 23.4384 13.5146 23.4738L13.444 23.6327L13.8976 23.8403L13.8364 23.9777ZM13.3267 23.5787L13.4579 23.2847C13.486 23.2218 13.5012 23.1702 13.5042 23.129C13.5072 23.0882 13.4988 23.052 13.4785 23.0211C13.4585 22.9899 13.432 22.9667 13.3992 22.9516C13.3509 22.9295 13.3032 22.9287 13.2561 22.9498C13.2092 22.971 13.169 23.0199 13.1347 23.0964L12.9885 23.4237L13.3267 23.5787ZM14.3254 22.9195L13.327 22.4016L13.395 22.2674L14.3932 22.7854L14.3254 22.9195ZM14.601 21.4794L14.4871 21.4129L14.7236 20.9961L15.0838 21.2059C15.0977 21.2993 15.0984 21.3875 15.085 21.4704C15.0718 21.5535 15.0448 21.6305 15.0042 21.7021C14.9493 21.7991 14.8789 21.875 14.793 21.9304C14.7078 21.9854 14.6144 22.0107 14.5144 22.0057C14.4142 22.0012 14.3161 21.9709 14.2207 21.9153C14.1262 21.8603 14.0492 21.7889 13.9899 21.7007C13.9308 21.6131 13.9025 21.52 13.9057 21.4215C13.9084 21.3232 13.9376 21.225 13.9937 21.1268C14.0339 21.0558 14.0816 20.9977 14.1371 20.9536C14.1929 20.9092 14.2501 20.8826 14.3093 20.8735C14.3683 20.8645 14.4357 20.8708 14.5105 20.892L14.4756 21.028C14.4178 21.0141 14.3686 21.0099 14.3275 21.0149C14.2869 21.0207 14.2463 21.0385 14.2064 21.0694C14.1665 21.1002 14.1321 21.1404 14.1039 21.1903C14.0705 21.2495 14.0502 21.306 14.0433 21.3601C14.0365 21.4139 14.0403 21.4626 14.0547 21.5064C14.0687 21.5502 14.089 21.5896 14.1155 21.6246C14.1618 21.6847 14.2199 21.7356 14.2903 21.7763C14.377 21.827 14.4581 21.8543 14.5343 21.8582C14.6097 21.8622 14.6783 21.8435 14.7391 21.8023C14.8003 21.7609 14.8492 21.708 14.8858 21.6431C14.918 21.5868 14.9383 21.5252 14.9472 21.4593C14.9559 21.3927 14.9562 21.3389 14.9472 21.2967L14.7651 21.1906L14.601 21.4794ZM15.2657 21.1983L14.601 20.1844L14.6955 20.0496L15.8741 20.331L15.7763 20.4706L15.4241 20.3781L15.1503 20.768L15.357 21.0681L15.2657 21.1983ZM15.0775 20.6613L15.2988 20.3458L14.9776 20.2597C14.8801 20.2331 14.8011 20.2093 14.7402 20.1884C14.7909 20.2443 14.8375 20.3035 14.8804 20.3664L15.0775 20.6613Z" fill="#00053C"/>
<path d="M15.936 20.2247L15.0541 19.5224L15.3612 19.1265C15.4229 19.0467 15.4778 18.9926 15.5255 18.9639C15.5735 18.9348 15.6272 18.9239 15.6862 18.9313C15.7456 18.9385 15.7995 18.9615 15.8479 18.9998C15.9105 19.0496 15.9472 19.1122 15.9586 19.1875C15.9696 19.2628 15.9475 19.3473 15.8929 19.4426C15.932 19.4229 15.9651 19.4111 15.992 19.406C16.0501 19.3964 16.1145 19.3948 16.1852 19.4018L16.5454 19.4383L16.4306 19.5865L16.1556 19.5583C16.0757 19.5502 16.0134 19.5465 15.9677 19.5465C15.9224 19.5465 15.8872 19.551 15.8625 19.5596C15.8377 19.5683 15.8159 19.5801 15.7971 19.5949C15.7843 19.6061 15.7659 19.6269 15.7422 19.6575L15.6361 19.7944L16.0277 20.1063L15.936 20.2247ZM15.5351 19.714L15.732 19.4601C15.774 19.406 15.8008 19.3595 15.8134 19.3202C15.826 19.2812 15.8266 19.244 15.814 19.209C15.8021 19.1739 15.7818 19.1452 15.7535 19.1226C15.7118 19.0894 15.6655 19.0769 15.6149 19.0863C15.5645 19.0954 15.5134 19.1329 15.4624 19.1987L15.2433 19.4813L15.5351 19.714ZM16.635 19.3235L15.7872 18.5792L16.1128 18.1986C16.1785 18.1219 16.2357 18.0705 16.2849 18.0439C16.3341 18.0176 16.3884 18.0091 16.4472 18.0191C16.5059 18.0294 16.5587 18.0548 16.6052 18.0955C16.6654 18.1484 16.6991 18.2128 16.7067 18.2887C16.7141 18.3643 16.6885 18.4476 16.6292 18.5401C16.6691 18.5223 16.7028 18.512 16.73 18.5084C16.7884 18.5018 16.8531 18.5034 16.9232 18.5135L17.2811 18.5676L17.1598 18.7097L16.8863 18.6686C16.807 18.6565 16.745 18.6499 16.6993 18.6474C16.654 18.6453 16.6188 18.648 16.5935 18.6556C16.5684 18.6628 16.546 18.6737 16.5267 18.6876C16.5133 18.6982 16.4939 18.7181 16.4689 18.7474L16.3562 18.8788L16.7329 19.2094L16.6354 19.3233L16.635 19.3235ZM16.2589 18.7937L16.4674 18.5498C16.5118 18.4975 16.5411 18.4528 16.5554 18.4141C16.5699 18.3757 16.5717 18.3385 16.5613 18.3032C16.5508 18.2675 16.532 18.2375 16.5046 18.2134C16.4647 18.1783 16.419 18.1639 16.368 18.1705C16.317 18.1771 16.2645 18.2122 16.2102 18.2756L15.9782 18.5474L16.2589 18.7937ZM17.399 18.4485L16.5872 17.6643L16.6901 17.5551L17.5016 18.3391L17.399 18.4485ZM18.065 17.1451L17.974 17.0487L18.3178 16.7169L18.6045 17.0215C18.5916 17.1149 18.5675 17.1998 18.5317 17.2754C18.4956 17.3513 18.4481 17.4174 18.3891 17.4745C18.3095 17.5516 18.2209 17.6042 18.1228 17.6326C18.0256 17.6607 17.929 17.6582 17.8347 17.625C17.7396 17.5918 17.6542 17.5347 17.5782 17.454C17.503 17.3739 17.4494 17.2832 17.4168 17.1819C17.3847 17.0804 17.3838 16.9834 17.4141 16.8896C17.4446 16.7962 17.5 16.7104 17.5808 16.6322C17.6395 16.5756 17.7016 16.534 17.7672 16.5074C17.8329 16.4808 17.8952 16.472 17.9545 16.4802C18.0138 16.4886 18.0767 16.5137 18.1424 16.5558L18.0708 16.6761C18.0195 16.6461 17.9733 16.628 17.9328 16.6211C17.892 16.6148 17.8484 16.6202 17.801 16.6383C17.7541 16.6564 17.71 16.6852 17.6692 16.7247C17.6203 16.7722 17.585 16.8205 17.5633 16.8704C17.5418 16.9199 17.5321 16.9677 17.5332 17.0139C17.5347 17.0599 17.543 17.1037 17.5585 17.1448C17.5862 17.2155 17.6277 17.2808 17.6838 17.3403C17.7529 17.4137 17.823 17.4632 17.8946 17.4889C17.9659 17.5143 18.0368 17.5158 18.1069 17.494C18.177 17.4719 18.2387 17.4354 18.2921 17.3837C18.3386 17.3386 18.3756 17.2858 18.4028 17.225C18.4293 17.1637 18.4445 17.1121 18.4481 17.0691L18.3029 16.9149L18.065 17.1451ZM18.7939 17.0825L18.3847 15.938L18.5081 15.8298L19.5877 16.3858L19.4597 16.498L19.1391 16.3236L18.7821 16.637L18.9127 16.9782L18.7939 17.0825ZM18.7363 16.5158L19.0252 16.2623L18.7329 16.1015C18.6447 16.0525 18.5734 16.0105 18.5191 15.9755C18.5552 16.042 18.5868 16.1102 18.6136 16.1819L18.7363 16.5158ZM19.6911 16.3194L19.041 15.3934L19.4462 15.1014C19.5277 15.0425 19.5953 15.0063 19.6493 14.9923C19.7033 14.9784 19.7579 14.9835 19.8128 15.0071C19.8674 15.0309 19.913 15.0684 19.9485 15.1192C19.9944 15.1852 20.0123 15.2556 20.0022 15.3311C19.992 15.4063 19.947 15.4812 19.868 15.5568C19.9112 15.5493 19.9461 15.5471 19.9735 15.5502C20.0319 15.5577 20.094 15.5747 20.1599 15.6016L20.4951 15.74L20.3439 15.8488L20.0877 15.7431C20.0134 15.7125 19.9547 15.6911 19.9112 15.6781C19.8677 15.665 19.8325 15.6593 19.8062 15.6605C19.7803 15.6618 19.7559 15.6669 19.7338 15.6756C19.7183 15.6825 19.6946 15.6974 19.6637 15.7197L19.5235 15.8207L19.8122 16.232L19.6911 16.3194ZM19.4492 15.7146L19.7087 15.5276C19.7642 15.4876 19.8029 15.4509 19.8259 15.4166C19.8489 15.3828 19.8596 15.3475 19.8575 15.3103C19.8557 15.2731 19.8443 15.2399 19.8235 15.2099C19.7925 15.1661 19.752 15.141 19.7007 15.1352C19.6497 15.1295 19.5906 15.1509 19.5229 15.1996L19.234 15.4079L19.4492 15.7146ZM20.612 15.6536L20.0066 14.6967L20.425 14.425C20.5094 14.3703 20.5786 14.3371 20.6332 14.3259C20.6878 14.3147 20.7421 14.3222 20.7958 14.3488C20.8492 14.3751 20.8927 14.4147 20.9261 14.4673C20.969 14.5353 20.9834 14.6067 20.9696 14.6813C20.956 14.7562 20.9073 14.8288 20.825 14.9004C20.8682 14.895 20.9034 14.8947 20.9305 14.8992C20.9883 14.9095 21.0499 14.9294 21.1142 14.9593L21.4425 15.1137L21.2863 15.2153L21.0355 15.0974C20.9627 15.0633 20.9049 15.0389 20.8623 15.0237C20.8193 15.0086 20.7847 15.0011 20.7582 15.0011C20.7323 15.0011 20.7078 15.005 20.6851 15.0126C20.6693 15.0189 20.6452 15.0322 20.6129 15.0533L20.4683 15.1474L20.7373 15.5723L20.612 15.6536ZM20.3988 15.0376L20.6672 14.8635C20.7245 14.8263 20.7647 14.7913 20.7895 14.7587C20.8139 14.7258 20.8262 14.691 20.8259 14.6538C20.8262 14.6167 20.8163 14.5825 20.7969 14.5517C20.7683 14.5066 20.7286 14.4794 20.6776 14.4713C20.6269 14.4631 20.5669 14.4819 20.4971 14.5269L20.1986 14.7209L20.3988 15.0376ZM21.5878 15.0313L21.0289 14.0464L21.158 13.9711L21.7169 14.9563L21.5878 15.0313ZM22.5901 13.9708L22.5302 13.852L22.9528 13.6329L23.1422 14.0076C23.1037 14.0937 23.0569 14.1681 23.0011 14.2303C22.9453 14.2923 22.8813 14.3425 22.8088 14.3799C22.7107 14.4309 22.6108 14.4558 22.5094 14.4549C22.408 14.454 22.3162 14.4237 22.2351 14.3645C22.1533 14.3053 22.0875 14.2257 22.0373 14.1266C21.9875 14.0281 21.9613 13.9259 21.9589 13.8192C21.9565 13.7129 21.9827 13.6191 22.0382 13.5384C22.0934 13.4574 22.1706 13.3912 22.2702 13.3396C22.3424 13.3021 22.4137 13.2801 22.4838 13.2737C22.5541 13.267 22.6165 13.2764 22.6711 13.3015C22.7257 13.3265 22.7787 13.3689 22.8303 13.4278L22.7278 13.5227C22.687 13.4791 22.6478 13.4483 22.6105 13.4301C22.5733 13.4123 22.53 13.4051 22.4797 13.409C22.4296 13.4126 22.3791 13.4274 22.3287 13.4537C22.2685 13.4849 22.2214 13.5211 22.1865 13.5628C22.1519 13.6042 22.1289 13.6468 22.1176 13.6916C22.106 13.736 22.1018 13.7804 22.1051 13.8242C22.1116 13.9004 22.1331 13.9747 22.1701 14.0479C22.2157 14.1385 22.2691 14.2062 22.3306 14.2512C22.392 14.2959 22.4593 14.318 22.5327 14.3171C22.6061 14.3162 22.6756 14.299 22.7414 14.2649C22.7984 14.2352 22.8488 14.1948 22.8917 14.1445C22.9347 14.0935 22.9636 14.0485 22.9788 14.0079L22.8831 13.8184L22.5902 13.9704L22.5901 13.9708ZM23.3055 14.1187L23.2355 12.9034L23.3843 12.8352L24.2622 13.6802L24.1083 13.7506L23.85 13.491L23.4197 13.688L23.4489 14.0527L23.3055 14.1187ZM23.4099 13.5586L23.7579 13.3991L23.5232 13.1607C23.4522 13.0881 23.3958 13.0274 23.3538 12.9781C23.3699 13.0519 23.3806 13.1267 23.3863 13.2033L23.4099 13.5586ZM24.3776 13.6393L24.0182 12.5628L24.4888 12.4014C24.5836 12.3691 24.6588 12.354 24.7146 12.3564C24.7701 12.3589 24.8211 12.3793 24.8667 12.4181C24.9124 12.4571 24.9452 12.506 24.9652 12.5653C24.9905 12.6417 24.9875 12.7145 24.9562 12.7835C24.9252 12.8527 24.8608 12.9117 24.7639 12.9609C24.8071 12.966 24.8414 12.9744 24.8664 12.9853C24.9204 13.0092 24.975 13.0439 25.0305 13.0887L25.3123 13.319L25.1367 13.3791L24.9213 13.2033C24.859 13.1525 24.8086 13.1147 24.7704 13.0893C24.7325 13.0643 24.7007 13.0486 24.675 13.0422C24.6497 13.0356 24.6253 13.0334 24.6016 13.0356C24.5846 13.0377 24.5581 13.0449 24.5217 13.0574L24.3588 13.113L24.5187 13.5914L24.3776 13.6393ZM24.3177 12.9895L24.6195 12.8861C24.684 12.864 24.7313 12.8401 24.7633 12.8142C24.7946 12.7885 24.8152 12.7576 24.8235 12.7214C24.8325 12.6854 24.8313 12.65 24.8196 12.6153C24.8026 12.5646 24.7704 12.5286 24.7233 12.508C24.6758 12.4877 24.6129 12.4911 24.5348 12.518L24.1987 12.6334L24.3177 12.9895ZM25.4471 13.2651L25.1406 12.1717L25.6189 12.0339C25.715 12.0063 25.7911 11.9951 25.8465 12.0003C25.9016 12.0057 25.9514 12.0288 25.9952 12.0698C26.0388 12.1106 26.0692 12.1614 26.0862 12.2215C26.108 12.2992 26.1011 12.3717 26.0668 12.4391C26.0322 12.5066 25.9651 12.5621 25.8659 12.6065C25.9088 12.6138 25.9425 12.6238 25.9673 12.6362C26.0198 12.6628 26.0729 12.7 26.1262 12.7477L26.3962 12.992L26.2178 13.0433L26.0114 12.8569C25.9515 12.8028 25.9032 12.7623 25.8665 12.7354C25.8298 12.7082 25.7985 12.691 25.7732 12.6831C25.7484 12.6756 25.724 12.6722 25.7001 12.6729C25.6834 12.6744 25.6562 12.6801 25.6195 12.6907L25.4541 12.7385L25.5901 13.2238L25.4471 13.2651ZM25.4191 12.613L25.7253 12.5247C25.7907 12.506 25.8395 12.4845 25.8723 12.46C25.9051 12.4362 25.9269 12.4062 25.937 12.3706C25.9478 12.3349 25.9484 12.2999 25.9382 12.2645C25.924 12.2129 25.8935 12.1751 25.8473 12.1523C25.801 12.1297 25.7381 12.1299 25.6585 12.153L25.3172 12.2512L25.4191 12.613ZM26.5574 12.9494L26.3051 11.842L26.4504 11.8082L26.7024 12.9155L26.5574 12.9494ZM27.8201 12.2238L27.7969 12.0923L28.2642 12.0077L28.3373 12.4223C28.2759 12.4933 28.2093 12.5505 28.1383 12.5934C28.0671 12.6363 27.9914 12.665 27.9111 12.6798C27.8026 12.6994 27.7 12.6936 27.6031 12.6626C27.5065 12.6317 27.4272 12.5756 27.3669 12.4949C27.3058 12.4142 27.2655 12.3187 27.2465 12.209C27.2271 12.1002 27.2316 11.9944 27.2599 11.8919C27.2882 11.7891 27.3404 11.7075 27.4167 11.6468C27.4927 11.5858 27.5861 11.5452 27.6962 11.5254C27.7758 11.5112 27.8504 11.5109 27.9196 11.5257C27.9884 11.5401 28.0457 11.5673 28.0905 11.6076C28.1352 11.6478 28.174 11.704 28.2062 11.7756L28.0806 11.836C28.0541 11.7822 28.0257 11.7415 27.9954 11.7127C27.9652 11.6846 27.9256 11.6649 27.8763 11.6538C27.8275 11.6423 27.7749 11.6417 27.7192 11.652C27.6527 11.6638 27.597 11.6846 27.5516 11.7142C27.5066 11.7433 27.4726 11.7777 27.4485 11.817C27.4246 11.8561 27.408 11.8971 27.3987 11.94C27.3826 12.0147 27.3817 12.0923 27.3963 12.1733C27.4139 12.2734 27.4452 12.3541 27.4911 12.4154C27.5367 12.4764 27.5948 12.5176 27.6652 12.5381C27.7356 12.559 27.8072 12.5631 27.88 12.5499C27.9432 12.5384 28.0028 12.5148 28.0583 12.4792C28.1141 12.4432 28.1549 12.4088 28.1812 12.3746L28.1442 12.1652L27.8201 12.2238ZM28.4604 12.568L28.7459 11.3854L28.9078 11.3645L29.5022 12.4337L29.3346 12.4555L29.1628 12.13L28.6946 12.1904L28.6168 12.5476L28.4604 12.568ZM28.7225 12.0639L29.1016 12.0149L28.9464 11.7172C28.8993 11.6265 28.8632 11.5515 28.837 11.492C28.831 11.5676 28.8197 11.6422 28.803 11.7169L28.7225 12.0639ZM29.6237 12.4363L29.5385 11.303L30.0341 11.2648C30.134 11.257 30.2104 11.2615 30.2637 11.2779C30.3171 11.2942 30.3613 11.3269 30.3961 11.3758C30.4307 11.4251 30.4504 11.4806 30.4552 11.5429C30.4611 11.6236 30.4406 11.6934 30.3934 11.7524C30.3463 11.8115 30.2697 11.8524 30.1635 11.8756C30.204 11.8916 30.2354 11.9082 30.2571 11.9251C30.3034 11.962 30.3481 12.0092 30.3907 12.0666L30.6073 12.3603L30.4224 12.3744L30.2569 12.1502C30.2088 12.0852 30.1695 12.036 30.1388 12.0018C30.108 11.9679 30.081 11.9449 30.0579 11.932C30.035 11.9195 30.0117 11.9111 29.9882 11.9072C29.9715 11.9051 29.9437 11.9054 29.9055 11.9081L29.734 11.9215L29.7719 12.4247L29.6237 12.4363ZM29.7246 11.792L30.0419 11.7672C30.1098 11.7621 30.1617 11.7509 30.1987 11.7337C30.2357 11.7168 30.2628 11.692 30.2801 11.659C30.2974 11.6264 30.3049 11.5919 30.3019 11.5554C30.298 11.5016 30.276 11.4587 30.2349 11.4272C30.1941 11.3956 30.1326 11.3831 30.05 11.3895L29.6963 11.4167L29.7246 11.792ZM30.7531 12.3762L30.7245 11.2401L31.2216 11.2274C31.3216 11.2246 31.3976 11.2328 31.45 11.2521C31.5025 11.2712 31.5451 11.3059 31.5774 11.3566C31.6096 11.4077 31.6266 11.4642 31.6281 11.5268C31.6302 11.6072 31.606 11.676 31.5559 11.7326C31.5058 11.7891 31.4273 11.826 31.3204 11.8442C31.3601 11.862 31.3904 11.8804 31.4113 11.8983C31.4555 11.9376 31.4978 11.9868 31.5378 12.0464L31.7394 12.351L31.5539 12.3555L31.3997 12.1231C31.3549 12.0555 31.3179 12.0046 31.289 11.9687C31.26 11.9333 31.2344 11.9088 31.2118 11.8949C31.1895 11.8813 31.1667 11.8717 31.1435 11.8665C31.1268 11.8634 31.0994 11.8625 31.0609 11.8634L30.8891 11.8677L30.9016 12.3724L30.7531 12.3762ZM30.8858 11.7379L31.2043 11.7294C31.2723 11.7279 31.3248 11.7194 31.3627 11.7041C31.4003 11.689 31.4286 11.6657 31.4473 11.6337C31.4664 11.602 31.4754 11.5677 31.4745 11.5312C31.4733 11.4774 31.453 11.4333 31.4139 11.3997C31.3745 11.3662 31.3137 11.3504 31.2309 11.3526L30.8766 11.3616L30.8858 11.7379ZM31.9061 12.3825L31.9341 11.2464L32.0832 11.2504L32.0546 12.3865L31.9061 12.3825ZM33.3274 12.0385L33.3441 11.9062L33.815 11.9669L33.7628 12.3849C33.6829 12.4339 33.603 12.4684 33.5222 12.488C33.4416 12.5074 33.3608 12.5119 33.28 12.5014C33.1708 12.4875 33.0745 12.4513 32.991 12.3923C32.9081 12.3337 32.8491 12.2557 32.8151 12.1605C32.7805 12.065 32.7704 11.9619 32.784 11.8513C32.7977 11.7416 32.8332 11.6418 32.8905 11.5527C32.9478 11.4632 33.0214 11.4013 33.1124 11.3662C33.2031 11.3312 33.3038 11.3206 33.4148 11.3347C33.495 11.345 33.5663 11.3676 33.6277 11.4024C33.6895 11.4371 33.736 11.4803 33.7667 11.5324C33.7979 11.5844 33.8182 11.6497 33.8278 11.7279L33.6903 11.7476C33.6807 11.6881 33.6655 11.6403 33.6449 11.604C33.6243 11.5681 33.5924 11.5372 33.5489 11.5118C33.5054 11.4861 33.4556 11.4695 33.3995 11.4623C33.3325 11.4538 33.273 11.4569 33.2212 11.4714C33.1696 11.4855 33.127 11.5076 33.0924 11.5382C33.0581 11.5682 33.03 11.6023 33.0082 11.6404C32.9715 11.7069 32.9477 11.7809 32.9373 11.8625C32.9247 11.9631 32.9313 12.0495 32.957 12.1221C32.9823 12.194 33.0258 12.2512 33.0866 12.2922C33.1478 12.3333 33.2149 12.3588 33.2882 12.3681C33.3521 12.3763 33.4159 12.3718 33.4793 12.3546C33.5432 12.3374 33.5923 12.3168 33.6272 12.2923L33.6538 12.0808L33.3272 12.0388L33.3274 12.0385ZM33.84 12.542L34.461 11.4997L34.6214 11.529L34.8737 12.7292L34.7077 12.6992L34.6397 12.3365L34.1747 12.2525L33.9952 12.5702L33.84 12.542ZM34.2388 12.1401L34.6149 12.2084L34.5546 11.8772C34.5365 11.7765 34.5239 11.694 34.5164 11.6294C34.4884 11.6995 34.4556 11.7675 34.4177 11.8337L34.2388 12.1401ZM34.993 12.75L35.245 11.6423L35.7293 11.7556C35.8268 11.7785 35.8984 11.8054 35.9446 11.8375C35.9909 11.869 36.0234 11.9137 36.0422 11.9711C36.061 12.0283 36.0634 12.0877 36.0496 12.1485C36.0317 12.227 35.9912 12.2872 35.9289 12.3295C35.8665 12.3718 35.7816 12.3876 35.6733 12.3779C35.7073 12.4054 35.7323 12.4308 35.7482 12.4535C35.7813 12.5025 35.8102 12.5611 35.8341 12.6288L35.9545 12.9749L35.7737 12.9327L35.6815 12.6682C35.6547 12.5918 35.6318 12.5328 35.6124 12.4911C35.593 12.4494 35.5742 12.4192 35.5557 12.3998C35.5375 12.3811 35.5175 12.366 35.4964 12.3551C35.4812 12.3482 35.4546 12.34 35.4173 12.3312L35.2497 12.2922L35.138 12.7839L34.993 12.75ZM35.2787 12.1652L35.5891 12.2377C35.6554 12.2531 35.7082 12.258 35.7487 12.2528C35.7889 12.248 35.8221 12.2322 35.848 12.2062C35.8746 12.1803 35.8916 12.1494 35.8996 12.1137C35.9116 12.0615 35.9029 12.0137 35.8734 11.9711C35.8435 11.9285 35.7884 11.8982 35.7079 11.8792L35.3622 11.7985L35.2787 12.1652ZM36.0928 13.0162L36.3994 11.9231L36.8774 12.0606C36.9737 12.0885 37.0438 12.1192 37.0882 12.1532C37.133 12.1873 37.1631 12.2332 37.1792 12.2919C37.195 12.35 37.1944 12.4092 37.1777 12.4693C37.1559 12.5466 37.1126 12.605 37.0483 12.644C36.9839 12.683 36.8983 12.6945 36.7906 12.6794C36.8234 12.7087 36.8467 12.7353 36.8616 12.7585C36.8924 12.8093 36.9183 12.8692 36.9388 12.9381L37.042 13.2895L36.8633 13.2382L36.7846 12.9695C36.7617 12.8919 36.7414 12.832 36.7241 12.7891C36.7068 12.7465 36.6895 12.7153 36.6722 12.6954C36.6549 12.6754 36.6358 12.6597 36.6152 12.6476C36.6003 12.6397 36.5741 12.6304 36.5374 12.6195L36.3719 12.572L36.2359 13.0577L36.0928 13.0162ZM36.4072 12.4468L36.7137 12.535C36.7791 12.5538 36.8316 12.5613 36.8721 12.5582C36.9126 12.5552 36.9464 12.5413 36.9738 12.5166C37.0016 12.4921 37.0201 12.4622 37.0299 12.4268C37.0442 12.3752 37.0383 12.3271 37.0105 12.283C36.9831 12.2391 36.9294 12.2059 36.8498 12.1829L36.5085 12.0847L36.4072 12.4468ZM37.1966 13.3546L37.556 12.2782L37.6971 12.3269L37.3376 13.4033L37.1966 13.3546ZM38.6415 13.4241L38.6898 13.3002L39.1315 13.4767L38.9788 13.8683C38.8899 13.8962 38.8037 13.9094 38.7208 13.9083C38.6379 13.9067 38.5585 13.8911 38.4828 13.8608C38.3803 13.82 38.2958 13.7608 38.2294 13.6825C38.1631 13.6049 38.125 13.5151 38.1152 13.4141C38.105 13.3129 38.1202 13.2105 38.1605 13.1068C38.2004 13.004 38.2589 12.9164 38.3362 12.8438C38.4134 12.7719 38.5002 12.7299 38.5965 12.7187C38.6932 12.7072 38.7934 12.7224 38.8971 12.7637C38.9725 12.794 39.0361 12.8335 39.0874 12.8828C39.1387 12.9318 39.173 12.9856 39.1906 13.0433C39.2079 13.1014 39.2118 13.1699 39.202 13.2482L39.0639 13.2325C39.0692 13.1727 39.0663 13.1228 39.0553 13.0826C39.0439 13.0424 39.0204 13.0047 38.9843 12.9687C38.9485 12.9334 38.9044 12.9049 38.8516 12.8837C38.7887 12.8587 38.7305 12.8466 38.6766 12.8478C38.6235 12.8487 38.5763 12.8596 38.5355 12.8804C38.495 12.9007 38.4595 12.9269 38.4293 12.9586C38.3772 13.0136 38.3363 13.0793 38.3065 13.156C38.2698 13.2503 38.2549 13.3355 38.2624 13.4123C38.2695 13.4885 38.2978 13.5546 38.3467 13.6097C38.3959 13.6647 38.4547 13.706 38.5235 13.7335C38.5832 13.7577 38.6461 13.7689 38.712 13.7683C38.778 13.7674 38.8308 13.7598 38.8707 13.7448L38.9476 13.5465L38.6415 13.4241ZM39.0103 14.0552L39.9044 13.2425L40.0497 13.3178L39.945 14.5402L39.7947 14.4623L39.8341 14.0957L39.4139 13.8775L39.1506 14.128L39.0103 14.0552ZM39.5075 13.789L39.8475 13.9654L39.8854 13.6309C39.8971 13.5293 39.9089 13.4467 39.9206 13.3825C39.8734 13.4414 39.8225 13.4967 39.767 13.5487L39.5075 13.789ZM40.0565 14.5889L40.6157 13.6037L41.0466 13.8549C41.133 13.9053 41.1938 13.9525 41.229 13.9966C41.2639 14.0404 41.2824 14.0927 41.2839 14.1532C41.2854 14.2133 41.2708 14.2711 41.2401 14.3252C41.2002 14.395 41.1444 14.4406 41.0725 14.4627C41.0009 14.4848 40.9148 14.4751 40.8142 14.4337C40.839 14.4699 40.8553 14.5016 40.864 14.528C40.8816 14.5849 40.8923 14.6493 40.8959 14.7212L40.9116 15.0878L40.7509 14.9937L40.7386 14.7139C40.735 14.6326 40.7297 14.5694 40.7234 14.5237C40.7169 14.4784 40.7074 14.4437 40.6951 14.4201C40.6831 14.3966 40.6686 14.3763 40.6513 14.3597C40.6387 14.3485 40.6158 14.3331 40.5827 14.3135L40.4336 14.2268L40.1852 14.6643L40.0565 14.5889ZM40.4978 14.1136L40.774 14.2746C40.8327 14.3091 40.882 14.3294 40.9222 14.3363C40.9621 14.3432 40.9982 14.3381 41.0308 14.3209C41.0632 14.304 41.0886 14.2795 41.1068 14.2477C41.133 14.2009 41.1384 14.1529 41.1223 14.1033C41.1062 14.054 41.062 14.0084 40.9902 13.9667L40.6827 13.7874L40.4978 14.1136ZM41.0358 15.1625L41.6412 14.2057L42.0597 14.4774C42.1438 14.5324 42.2022 14.5822 42.2353 14.6279C42.2681 14.6735 42.2839 14.7267 42.2827 14.7871C42.2812 14.8472 42.2639 14.9041 42.2306 14.9566C42.1876 15.0246 42.1297 15.0676 42.0567 15.086C41.9842 15.1045 41.8987 15.0903 41.8003 15.0444C41.8232 15.0819 41.8382 15.1142 41.8456 15.141C41.8605 15.1985 41.8682 15.2634 41.8682 15.3353L41.8667 15.7022L41.7105 15.6006L41.7117 15.3205C41.712 15.2392 41.7096 15.1757 41.7055 15.1297C41.701 15.0841 41.6932 15.049 41.6822 15.0249C41.6715 15.0008 41.6578 14.9799 41.6414 14.9623C41.6292 14.9502 41.6071 14.9339 41.5747 14.9128L41.4303 14.8191L41.1613 15.2441L41.0358 15.1625ZM41.4993 14.7095L41.7674 14.8836C41.8247 14.9208 41.873 14.9437 41.9127 14.9525C41.9524 14.9612 41.9887 14.9582 42.0218 14.9425C42.0552 14.9268 42.0815 14.9038 42.1012 14.8727C42.1298 14.8277 42.1376 14.7799 42.1235 14.7294C42.1098 14.6796 42.068 14.6318 41.9982 14.5868L41.6997 14.3928L41.4993 14.7095ZM41.9988 15.805L42.6487 14.8787L42.77 14.966L42.1202 15.8923L41.9988 15.805ZM43.3656 16.2885L43.447 16.1837L43.8204 16.4808L43.5636 16.812C43.4704 16.8126 43.3841 16.8005 43.3051 16.7751C43.226 16.7498 43.1545 16.7117 43.0903 16.6606C43.0036 16.5917 42.9397 16.5104 42.898 16.4161C42.8566 16.3227 42.8449 16.2254 42.8643 16.1259C42.8831 16.0259 42.9267 15.9323 42.9946 15.8445C43.0623 15.7575 43.1428 15.6907 43.2374 15.6435C43.3316 15.597 43.4265 15.5819 43.5222 15.5991C43.6179 15.6163 43.7095 15.6598 43.7975 15.7296C43.8613 15.7804 43.9108 15.8369 43.946 15.8988C43.9812 15.9608 43.9991 16.0221 43.9994 16.0826C43.9997 16.1434 43.9842 16.2099 43.9525 16.2821L43.8245 16.2274C43.8466 16.1715 43.8576 16.1229 43.8585 16.0808C43.8591 16.0391 43.8474 15.9961 43.8227 15.9514C43.7986 15.907 43.7643 15.8668 43.7196 15.8311C43.6668 15.7888 43.6143 15.7607 43.5624 15.7458C43.5109 15.7314 43.4631 15.7283 43.4181 15.7361C43.3733 15.744 43.3319 15.7588 43.294 15.7803C43.2284 15.8181 43.1709 15.8691 43.1205 15.9338C43.0588 16.0136 43.0206 16.091 43.0057 16.1665C42.9911 16.2418 42.9994 16.3131 43.0307 16.3801C43.0623 16.4473 43.107 16.504 43.1649 16.5503C43.2156 16.5905 43.2726 16.6198 43.3358 16.6382C43.3997 16.6566 43.4521 16.6642 43.4945 16.6614L43.6245 16.494L43.3656 16.2882V16.2885ZM43.5454 16.9946L44.6307 16.4729L44.7488 16.5869L44.3054 17.7289L44.1831 17.6108L44.3239 17.2708L43.9822 16.9405L43.6595 17.1049L43.5454 16.9946ZM44.0966 16.8824L44.3734 17.1495L44.5033 16.8397C44.543 16.7457 44.5776 16.6699 44.6065 16.6118C44.5451 16.6547 44.4806 16.6928 44.413 16.7266L44.0966 16.8824ZM44.4005 17.8057L45.2123 17.0217L45.5552 17.3861C45.6244 17.4596 45.6694 17.5221 45.6907 17.5744C45.7122 17.6267 45.7151 17.682 45.6996 17.7404C45.6841 17.7987 45.654 17.8495 45.6095 17.8927C45.5517 17.9483 45.4855 17.9761 45.4103 17.9767C45.3354 17.977 45.2557 17.9429 45.1705 17.8745C45.1842 17.9165 45.1911 17.9513 45.192 17.9791C45.1932 18.0386 45.1855 18.1036 45.1688 18.1734L45.0814 18.5293L44.9534 18.3933L45.02 18.1213C45.0394 18.0424 45.0519 17.9805 45.0585 17.9349C45.065 17.8892 45.0656 17.8532 45.0606 17.827C45.0559 17.801 45.0472 17.7776 45.0356 17.7566C45.0266 17.7421 45.009 17.7206 44.9825 17.6925L44.8638 17.5664L44.5032 17.9149L44.4007 17.8055L44.4005 17.8057ZM44.9566 17.4769L45.1764 17.7105C45.2233 17.7603 45.2647 17.7939 45.3014 17.8121C45.3375 17.8305 45.3739 17.8359 45.41 17.8287C45.4458 17.8215 45.477 17.8055 45.5031 17.7803C45.5416 17.7431 45.5604 17.6984 45.5585 17.6464C45.5567 17.5945 45.5273 17.5379 45.4703 17.4775L45.2255 17.2173L44.9566 17.4769ZM45.1806 18.6359L46.0284 17.8916L46.3538 18.2724C46.4194 18.3491 46.4614 18.4138 46.4803 18.467C46.4991 18.5202 46.4997 18.5755 46.4815 18.6333C46.4633 18.6907 46.4308 18.7399 46.3842 18.7808C46.324 18.8337 46.2563 18.8584 46.1815 18.8552C46.1063 18.8521 46.0285 18.8141 45.9467 18.7416C45.9584 18.7841 45.9634 18.8195 45.9631 18.8473C45.9616 18.9068 45.9505 18.9712 45.9306 19.0405L45.8269 19.3917L45.7055 19.2496L45.7846 18.9813C45.8075 18.9033 45.8231 18.8419 45.832 18.7967C45.8407 18.7516 45.8428 18.716 45.8391 18.6894C45.8352 18.6631 45.8281 18.6393 45.8173 18.6178C45.809 18.6027 45.7923 18.5803 45.7673 18.5512L45.6549 18.4195L45.2782 18.7498L45.1806 18.6362L45.1806 18.6359ZM45.7518 18.334L45.9605 18.5779C46.0046 18.6299 46.0446 18.6655 46.0803 18.6855C46.1158 18.7055 46.1516 18.713 46.188 18.7073C46.2241 18.7019 46.256 18.6874 46.2834 18.6632C46.3233 18.6282 46.3442 18.5847 46.3448 18.5324C46.3454 18.4804 46.3186 18.4227 46.2643 18.3595L46.0323 18.0878L45.7518 18.334ZM45.9268 19.5269L46.8087 18.8245L46.9006 18.9433L46.019 19.6453L45.9268 19.5269ZM47.1048 20.3806L47.2118 20.3033L47.4871 20.6955L47.1483 20.9395C47.0588 20.9135 46.9795 20.8772 46.9106 20.8303C46.8421 20.7832 46.7839 20.7261 46.7368 20.659C46.673 20.568 46.6343 20.4716 46.6205 20.3694C46.6065 20.2678 46.6229 20.1712 46.6692 20.0811C46.7151 19.9907 46.7831 19.9131 46.8728 19.8487C46.9617 19.7846 47.0577 19.7436 47.1615 19.7257C47.2649 19.7079 47.3601 19.7206 47.4472 19.7644C47.534 19.8083 47.6101 19.8766 47.6747 19.9687C47.7215 20.0356 47.7534 20.1038 47.7701 20.1733C47.7865 20.2428 47.7865 20.3069 47.7698 20.3649C47.7531 20.4233 47.7194 20.4828 47.6693 20.5429L47.5619 20.4538C47.5983 20.4063 47.6227 20.3628 47.6353 20.323C47.6476 20.283 47.6482 20.2383 47.6371 20.1885C47.6263 20.139 47.6046 20.0906 47.5718 20.044C47.5323 19.9881 47.4903 19.9458 47.4447 19.9171C47.399 19.8883 47.354 19.8714 47.3087 19.8663C47.2636 19.8612 47.2198 19.8633 47.1775 19.873C47.1041 19.8905 47.0346 19.9228 46.9681 19.9706C46.8867 20.0294 46.8283 20.0926 46.7931 20.161C46.7582 20.2286 46.7466 20.2997 46.7579 20.3728C46.7693 20.4465 46.7964 20.5136 46.8391 20.5747C46.8764 20.6279 46.9229 20.6723 46.9783 20.708C47.0344 20.7436 47.0827 20.7664 47.1242 20.7759L47.2954 20.6523L47.1048 20.3806ZM47.0618 21.1208L48.238 20.8744L48.3263 21.0135L47.6285 22.0165L47.5372 21.8724L47.7534 21.5756L47.4988 21.1728L47.1469 21.255L47.0618 21.1208ZM47.6237 21.144L47.8298 21.4702L48.0288 21.2003C48.0893 21.1184 48.1406 21.053 48.1824 21.0038C48.1126 21.0304 48.041 21.0522 47.9674 21.0688L47.6237 21.144ZM47.6795 22.1292L48.6777 21.6113L48.9043 22.0594C48.95 22.1498 48.9756 22.223 48.9812 22.2792C48.9869 22.3354 48.9744 22.3892 48.943 22.4409C48.912 22.4922 48.8687 22.5325 48.8143 22.5606C48.7433 22.5975 48.6717 22.605 48.5995 22.5838C48.5276 22.5626 48.4609 22.5071 48.3985 22.417C48.3998 22.4612 48.3967 22.4965 48.3896 22.5234C48.3741 22.5809 48.3485 22.641 48.3127 22.7032L48.1293 23.0194L48.0447 22.852L48.1848 22.6105C48.2253 22.5404 48.2549 22.4845 48.2743 22.4428C48.2931 22.4008 48.3038 22.3666 48.3065 22.34C48.3089 22.3137 48.3074 22.289 48.302 22.2653C48.2976 22.2487 48.2866 22.2231 48.269 22.1883L48.1908 22.0336L47.7474 22.2635L47.6795 22.1292ZM48.305 21.9739L48.4502 22.2613C48.4813 22.3226 48.5117 22.3667 48.5415 22.3948C48.5714 22.4226 48.6044 22.4383 48.6408 22.4417C48.6775 22.4454 48.7118 22.4389 48.744 22.422C48.7911 22.3976 48.8215 22.3604 48.8344 22.3097C48.8475 22.2595 48.835 22.197 48.7971 22.1226L48.6354 21.8026L48.305 21.9739ZM48.1976 23.1482L49.2199 22.6798L49.4245 23.1389C49.4656 23.2314 49.4877 23.3057 49.4911 23.3619C49.4941 23.4184 49.4788 23.4716 49.4451 23.5214C49.4114 23.5713 49.3664 23.6094 49.3103 23.635C49.2378 23.6683 49.1659 23.6722 49.095 23.6475C49.024 23.623 48.9601 23.564 48.902 23.471C48.9011 23.5151 48.8964 23.5505 48.8884 23.5768C48.8699 23.6336 48.8415 23.6922 48.8028 23.7526L48.6044 24.0594L48.5278 23.888L48.6796 23.6535C48.7235 23.5855 48.7556 23.5311 48.7769 23.4903C48.7978 23.4495 48.8099 23.4159 48.8139 23.3893C48.8178 23.3633 48.8175 23.3383 48.8133 23.3143C48.8093 23.2977 48.7999 23.2714 48.7837 23.2361L48.713 23.0774L48.2591 23.2857L48.1976 23.1482ZM48.8301 23.0241L48.961 23.3181C48.9891 23.3809 49.0174 23.4266 49.0457 23.4559C49.0743 23.4853 49.1065 23.5028 49.1429 23.5079C49.1793 23.513 49.2136 23.5085 49.2467 23.4931C49.295 23.4713 49.3272 23.4354 49.3427 23.3855C49.3578 23.336 49.3483 23.2729 49.3143 23.1966L49.1681 22.869L48.8301 23.0241ZM48.665 24.2163L49.7084 23.7995L49.763 23.94L48.7196 24.3568L48.665 24.2163ZM49.5558 25.3759L49.6805 25.333L49.8326 25.7887L49.4389 25.9238C49.3608 25.8728 49.2951 25.8147 49.2423 25.7497C49.1898 25.6847 49.1504 25.6131 49.1242 25.5348C49.089 25.4291 49.0792 25.3257 49.095 25.2239C49.1107 25.1223 49.1537 25.0347 49.2235 24.9618C49.2933 24.8887 49.3804 24.8343 49.4848 24.7986C49.588 24.7633 49.6918 24.7518 49.7962 24.7648C49.9002 24.7782 49.9879 24.8183 50.0586 24.8854C50.1292 24.9529 50.1829 25.0402 50.2187 25.1475C50.2447 25.2251 50.2557 25.2998 50.2518 25.3711C50.2479 25.4427 50.2295 25.5038 50.1972 25.5546C50.1647 25.6059 50.1155 25.6531 50.0505 25.6957L49.973 25.5791C50.0214 25.5446 50.0572 25.5099 50.0804 25.4751C50.1033 25.4407 50.1168 25.3981 50.1203 25.3473C50.1239 25.2965 50.1167 25.2439 50.0988 25.1893C50.077 25.1246 50.0484 25.072 50.0129 25.0309C49.9777 24.9902 49.9392 24.9611 49.8972 24.9427C49.8558 24.9246 49.8129 24.914 49.7695 24.911C49.6943 24.9065 49.6186 24.917 49.5417 24.9433C49.4466 24.9759 49.3729 25.0197 49.3199 25.0747C49.2671 25.1294 49.2355 25.1938 49.2256 25.2676C49.2158 25.3414 49.2226 25.4133 49.2463 25.4843C49.2669 25.5459 49.299 25.6022 49.342 25.6526C49.3852 25.703 49.4252 25.7387 49.4621 25.7602L49.6614 25.6919L49.5558 25.3759ZM49.3092 26.0707L50.5056 26.1798L50.5501 26.3388L49.596 27.0943L49.5498 26.9296L49.8414 26.709L49.7123 26.2487L49.3521 26.2243L49.3092 26.0707ZM49.8403 26.2578L49.9447 26.6305L50.2116 26.4304C50.293 26.3697 50.361 26.3222 50.415 26.2871C50.3404 26.2922 50.2659 26.2922 50.1904 26.2865L49.8403 26.2578ZM49.6256 27.2144L50.7296 27.0146L50.8167 27.5105C50.8343 27.6103 50.8379 27.6876 50.8272 27.7432C50.8164 27.7985 50.789 27.8463 50.7442 27.8865C50.6995 27.9264 50.6467 27.9521 50.5862 27.9629C50.5078 27.977 50.4371 27.9632 50.3744 27.9215C50.3115 27.8798 50.2638 27.807 50.2301 27.7021C50.2184 27.745 50.2053 27.778 50.191 27.8015C50.1594 27.8519 50.1176 27.9015 50.0654 27.9505L49.7988 28.1985L49.7663 28.0136L49.97 27.8238C50.029 27.7688 50.0731 27.7241 50.1036 27.6899C50.1338 27.6555 50.1537 27.6259 50.1641 27.6011C50.174 27.577 50.1799 27.5524 50.1814 27.5286C50.182 27.5113 50.1787 27.4835 50.1719 27.4454L50.1417 27.2738L49.6514 27.3626L49.6255 27.2141L49.6256 27.2144ZM50.2686 27.2509L50.3244 27.5689C50.3363 27.6366 50.3527 27.688 50.373 27.7237C50.3936 27.759 50.4208 27.7841 50.4548 27.798C50.4888 27.8122 50.5233 27.8162 50.5588 27.8099C50.611 27.8002 50.651 27.7736 50.6779 27.7292C50.705 27.6847 50.7109 27.6213 50.6964 27.5387L50.634 27.1851L50.2686 27.2509ZM49.8365 28.3411L50.9492 28.1978L51.0118 28.6973C51.0244 28.798 51.0241 28.8756 51.0106 28.9303C50.997 28.9851 50.9671 29.0316 50.9206 29.0694C50.8737 29.1069 50.8197 29.1298 50.7586 29.1377C50.6799 29.1477 50.6101 29.1304 50.5493 29.0854C50.4888 29.041 50.4446 28.9654 50.4163 28.859C50.4026 28.901 50.3876 28.9337 50.3721 28.9563C50.3382 29.005 50.294 29.0527 50.2394 29.099L49.9608 29.3329L49.9376 29.1464L50.1503 28.9675C50.212 28.9156 50.2585 28.8732 50.2904 28.8403C50.3223 28.8077 50.3438 28.7793 50.3551 28.755C50.3665 28.7312 50.3733 28.7072 50.3764 28.6831C50.3776 28.6662 50.3758 28.638 50.371 28.5996L50.3495 28.4267L49.8554 28.4905L49.8365 28.3411ZM50.4768 28.4105L50.5167 28.7309C50.5254 28.7988 50.539 28.8512 50.5578 28.8878C50.5763 28.924 50.6023 28.9506 50.6356 28.966C50.6687 28.982 50.703 28.9878 50.7391 28.9832C50.7916 28.9766 50.8327 28.9517 50.8619 28.9085C50.8909 28.8657 50.9001 28.8028 50.8897 28.7197L50.845 28.3631L50.4768 28.4105ZM49.9842 29.5001L51.1022 29.4137L51.1136 29.5642L49.9952 29.6506L49.9842 29.5001Z" fill="#00053C"/>
<path d="M58.2999 30.8745L58.4314 30.8712L58.4434 31.3521L58.028 31.3626C57.9684 31.2904 57.9224 31.2154 57.8914 31.1375C57.8601 31.0599 57.8433 30.9795 57.8413 30.8969C57.8386 30.7851 57.8595 30.6833 57.9045 30.5908C57.9493 30.4989 58.016 30.4279 58.1038 30.3795C58.1918 30.3305 58.2911 30.3048 58.4011 30.3019C58.51 30.2991 58.6122 30.3194 58.7082 30.3635C58.8039 30.4073 58.8758 30.4717 58.9236 30.5572C58.9716 30.6426 58.9969 30.7421 58.9999 30.8555C59.002 30.9377 58.9906 31.0124 58.9662 31.0791C58.9414 31.1462 58.906 31.1994 58.8603 31.238C58.8144 31.2771 58.7535 31.3072 58.6789 31.3287L58.639 31.1939C58.6954 31.1755 58.7396 31.1532 58.772 31.1268C58.8039 31.1008 58.829 31.0639 58.8474 31.0164C58.8656 30.9693 58.8746 30.9167 58.8731 30.8592C58.8713 30.791 58.8594 30.732 58.8376 30.6822C58.8158 30.6327 58.7875 30.5933 58.7529 30.5631C58.7187 30.5331 58.6808 30.5105 58.6402 30.4945C58.5699 30.4676 58.4944 30.4549 58.413 30.457C58.3128 30.4595 58.2297 30.4791 58.1628 30.5156C58.0966 30.5522 58.0474 30.6041 58.0166 30.6716C57.9856 30.739 57.971 30.81 57.9728 30.8846C57.9743 30.9499 57.9886 31.0131 58.0148 31.0744C58.0414 31.1354 58.0691 31.1817 58.0984 31.2132L58.3083 31.2078L58.2999 30.8745ZM57.8762 31.4638L58.9865 31.9286L58.9826 32.0937L57.8496 32.5277L57.8541 32.3566L58.197 32.2336L58.209 31.7552L57.8723 31.6235L57.8762 31.4638ZM58.3283 31.8026L58.3187 32.1897L58.6325 32.0791C58.7279 32.0459 58.8066 32.0207 58.8687 32.0038C58.7959 31.9863 58.7246 31.9636 58.6545 31.9355L58.3283 31.8026ZM57.8386 32.6497L58.9569 32.7358L58.919 33.2381C58.9116 33.3394 58.8958 33.4152 58.8716 33.4663C58.8475 33.517 58.8089 33.5564 58.7559 33.5839C58.7028 33.6114 58.6452 33.6226 58.5838 33.6177C58.5044 33.6117 58.4397 33.5805 58.389 33.5243C58.3386 33.468 58.3103 33.3852 58.3035 33.2753C58.2816 33.3137 58.2608 33.3424 58.2411 33.3617C58.1982 33.4021 58.1454 33.4399 58.0828 33.474L57.7637 33.6466L57.7777 33.4593L58.0217 33.3272C58.0923 33.2888 58.1463 33.2568 58.1842 33.2315C58.2218 33.2058 58.2487 33.1822 58.2645 33.1611C58.2802 33.1399 58.2919 33.1179 58.2993 33.0948C58.3041 33.0782 58.308 33.0507 58.311 33.012L58.3239 32.8382L57.8273 32.7998L57.8386 32.6497ZM58.4521 32.8483L58.4279 33.1701C58.4226 33.2387 58.4258 33.2925 58.4369 33.3321C58.4479 33.3718 58.4679 33.4028 58.4974 33.4249C58.5267 33.4474 58.5594 33.46 58.5955 33.4627C58.6483 33.4667 58.6936 33.4509 58.7306 33.4147C58.7676 33.3787 58.789 33.3189 58.7954 33.2351L58.8222 32.8767L58.4521 32.8483ZM57.736 33.7912L58.8485 33.9345L58.7858 34.434C58.7733 34.5346 58.754 34.6095 58.7274 34.6591C58.7009 34.709 58.6604 34.7462 58.6058 34.771C58.5515 34.7955 58.4937 34.8039 58.4325 34.7961C58.3535 34.7861 58.2903 34.7513 58.2425 34.6925C58.1948 34.6341 58.1709 34.5498 58.1694 34.4398C58.1459 34.477 58.1235 34.5045 58.1029 34.5229C58.0579 34.5613 58.0033 34.5961 57.9391 34.6272L57.6117 34.7831L57.6349 34.5967L57.8851 34.4773C57.9579 34.4428 58.0134 34.4132 58.0524 34.3897C58.0912 34.3661 58.1192 34.344 58.1363 34.3234C58.153 34.3032 58.1655 34.2818 58.1742 34.2594C58.1798 34.2431 58.1849 34.2155 58.1897 34.1771L58.2115 34.0042L57.7173 33.9405L57.736 33.7912ZM58.3387 34.0205L58.2988 34.3409C58.2902 34.4091 58.2905 34.4629 58.2997 34.5032C58.3087 34.5434 58.3272 34.5751 58.3555 34.5989C58.3836 34.6228 58.4158 34.637 58.4515 34.6415C58.504 34.6484 58.55 34.6349 58.5888 34.6005C58.6276 34.5666 58.652 34.5076 58.6625 34.4246L58.7072 34.068L58.3387 34.0205ZM57.5639 34.9462L58.668 35.146L58.6421 35.2947L57.5377 35.0949L57.5639 34.9462ZM57.7053 36.4036L57.8336 36.4335L57.7268 36.9023L57.3218 36.8077C57.2816 36.7224 57.2556 36.6382 57.2446 36.5551C57.2339 36.4716 57.2372 36.3897 57.2557 36.3093C57.2804 36.2005 57.3258 36.1071 57.3923 36.0288C57.458 35.9512 57.5402 35.8991 57.6371 35.8747C57.7343 35.8496 57.8369 35.8496 57.944 35.8747C58.0501 35.8994 58.1443 35.9451 58.2263 36.0119C58.3081 36.0785 58.3621 36.1591 58.3871 36.254C58.4127 36.3488 58.4127 36.4516 58.3877 36.5623C58.3695 36.6421 58.3403 36.7115 58.3 36.7702C58.2595 36.8288 58.2124 36.8715 58.1584 36.8972C58.1044 36.9235 58.0382 36.9374 57.9603 36.9392L57.955 36.7987C58.014 36.795 58.0624 36.7845 58.1003 36.7675C58.1376 36.7503 58.171 36.7212 58.2008 36.6796C58.2301 36.6385 58.2512 36.5898 58.2641 36.5339C58.2792 36.4673 58.2823 36.4072 58.2733 36.3534C58.2644 36.2999 58.2468 36.2546 58.2205 36.2168C58.1946 36.1793 58.1635 36.1473 58.1283 36.1217C58.0666 36.0778 57.9968 36.0467 57.9175 36.0279C57.82 36.0053 57.7344 36.0032 57.6607 36.0216C57.5874 36.04 57.5274 36.0785 57.4809 36.1355C57.434 36.193 57.4025 36.2582 57.3858 36.331C57.3715 36.3945 57.3697 36.4592 57.3799 36.525C57.3909 36.5912 57.4061 36.6429 57.4267 36.6807L57.6316 36.7285L57.7056 36.4036L57.7053 36.4036ZM57.1354 36.8645L58.0599 37.6418L58.0074 37.7984L56.7987 37.8728L56.8529 37.7105L57.2165 37.6963L57.368 37.243L57.085 37.016L57.1354 36.8645ZM57.4681 37.3239L57.3456 37.6907L57.6778 37.6795C57.7787 37.6762 57.8609 37.6762 57.9254 37.6783C57.8609 37.6399 57.7995 37.5967 57.7405 37.5486L57.4681 37.3239ZM56.7643 37.9903L57.8077 38.4071L57.6256 38.8758C57.5889 38.9702 57.5516 39.0378 57.5138 39.0795C57.4762 39.1209 57.4276 39.1469 57.3688 39.1574C57.3104 39.1674 57.2522 39.1611 57.1947 39.1384C57.1207 39.1087 57.0679 39.0592 57.0357 38.9905C57.0039 38.9217 57.0011 38.834 57.0268 38.7273C56.9946 38.7572 56.9663 38.7783 56.9418 38.7908C56.889 38.8167 56.8276 38.837 56.7578 38.8512L56.4027 38.9203L56.4706 38.7453L56.7423 38.6924C56.8207 38.6771 56.8818 38.6625 56.9253 38.6495C56.9689 38.636 57.001 38.6217 57.0226 38.606C57.0438 38.5907 57.0614 38.5728 57.075 38.5532C57.0843 38.539 57.0959 38.5135 57.1102 38.4776L57.1732 38.3156L56.71 38.1304L56.7643 37.9903ZM57.2927 38.3635L57.1758 38.6636C57.151 38.7277 57.1382 38.78 57.1373 38.8213C57.1361 38.8624 57.1465 38.8977 57.1683 38.928C57.1895 38.9579 57.217 38.9796 57.251 38.9933C57.3001 39.013 57.3479 39.0114 57.3938 38.9879C57.4398 38.9647 57.4777 38.9138 57.508 38.8356L57.638 38.5013L57.2927 38.3635ZM56.3443 39.0546L57.3661 39.5228L57.1612 39.9815C57.1201 40.0741 57.0795 40.1399 57.0398 40.1795C57.0001 40.2191 56.9507 40.2427 56.8917 40.2502C56.8323 40.2574 56.7744 40.2481 56.7184 40.2224C56.6459 40.1892 56.5956 40.1374 56.5669 40.067C56.5383 39.9966 56.5398 39.9093 56.5705 39.8035C56.5372 39.8322 56.5079 39.8519 56.4829 39.863C56.4286 39.8862 56.3666 39.9034 56.2962 39.914L55.9377 39.9653L56.0143 39.794L56.288 39.7547C56.3674 39.7431 56.4288 39.7314 56.4729 39.7208C56.5171 39.7096 56.5501 39.6967 56.5723 39.6821C56.5941 39.668 56.6125 39.6509 56.6274 39.6323C56.6373 39.6184 56.6504 39.5936 56.666 39.5582L56.7369 39.3996L56.283 39.1917L56.3444 39.0544L56.3443 39.0546ZM56.8538 39.4533L56.7226 39.7476C56.6945 39.8105 56.6793 39.8618 56.6763 39.903C56.6733 39.9441 56.6819 39.98 56.7022 40.0112C56.722 40.0424 56.7485 40.0653 56.7816 40.0804C56.8299 40.1028 56.8776 40.1036 56.9247 40.0822C56.9716 40.061 57.0118 40.0124 57.0461 39.9359L57.1923 39.6086L56.8538 39.4533ZM55.8538 40.1122L56.8522 40.6298L56.7843 40.7643L55.7859 40.2463L55.8538 40.1122ZM55.5768 41.551L55.6907 41.6176L55.4542 42.0347L55.0937 41.8249C55.08 41.7315 55.0794 41.6432 55.0925 41.5604C55.1059 41.4773 55.133 41.4003 55.1736 41.3286C55.2285 41.2316 55.2989 41.1557 55.3844 41.1004C55.47 41.0454 55.5634 41.02 55.6633 41.0248C55.7636 41.0296 55.8617 41.0596 55.9568 41.1155C56.0513 41.1705 56.1283 41.2418 56.1879 41.3298C56.2469 41.4177 56.275 41.5108 56.2721 41.609C56.269 41.7075 56.2399 41.8057 56.1841 41.904C56.1439 41.975 56.0958 42.033 56.0406 42.0772C55.9848 42.1213 55.9276 42.1482 55.8685 42.1572C55.8092 42.166 55.742 42.16 55.6669 42.1388L55.7021 42.0025C55.7599 42.0163 55.8089 42.0209 55.85 42.0158C55.8908 42.0101 55.9311 41.9923 55.9714 41.9611C56.0113 41.9305 56.0457 41.8904 56.0736 41.8405C56.1073 41.7813 56.1276 41.7247 56.1344 41.6703C56.141 41.6169 56.1374 41.5682 56.1231 41.5243C56.1091 41.4805 56.0885 41.4412 56.0622 41.4062C56.0157 41.3461 55.9579 41.2952 55.8872 41.2545C55.8008 41.2037 55.7193 41.1765 55.6435 41.1725C55.5681 41.1686 55.4995 41.1873 55.4386 41.2285C55.3775 41.2695 55.3285 41.3225 55.2916 41.3874C55.2598 41.444 55.2395 41.5056 55.2302 41.5715C55.2216 41.638 55.2216 41.6918 55.2302 41.7338L55.4124 41.8402L55.5768 41.551ZM54.909 41.8306L55.5738 42.8445L55.4792 42.9793L54.3007 42.6976L54.3985 42.5582L54.751 42.6508L55.0244 42.2609L54.818 41.9604L54.909 41.8306ZM55.0975 42.3673L54.8759 42.6831L55.1971 42.7692C55.2947 42.7955 55.3737 42.8194 55.4345 42.8402C55.3838 42.7846 55.3373 42.7254 55.2947 42.6626L55.0975 42.3673ZM54.2374 42.8032L55.1196 43.5052L54.8125 43.9014C54.7505 43.9812 54.6959 44.0353 54.6479 44.0641C54.5999 44.0931 54.5462 44.104 54.4872 44.0967C54.4279 44.0894 54.3742 44.0664 54.3255 44.0281C54.2629 43.9783 54.2262 43.9154 54.2151 43.8404C54.2038 43.7651 54.2259 43.6806 54.2805 43.5853C54.2414 43.605 54.2083 43.6168 54.1814 43.6219C54.1233 43.6313 54.0589 43.6328 53.9882 43.6262L53.6283 43.5893L53.7428 43.4415L54.0178 43.4696C54.0977 43.4777 54.16 43.4814 54.2057 43.4814C54.251 43.4814 54.2862 43.4769 54.3112 43.468C54.3357 43.4596 54.3575 43.4475 54.3763 43.433C54.3894 43.4218 54.4075 43.401 54.4315 43.3704L54.5373 43.2335L54.1458 42.9216L54.2374 42.8032ZM54.6383 43.3139L54.4414 43.5678C54.3994 43.6219 54.3726 43.6684 54.36 43.7077C54.3474 43.7467 54.3471 43.7839 54.3594 43.8186C54.3717 43.8537 54.3916 43.8827 54.4199 43.9053C54.4616 43.9385 54.5082 43.951 54.5586 43.9416C54.6092 43.9325 54.66 43.8947 54.711 43.8292L54.9301 43.5463L54.6383 43.3139ZM53.5372 43.7035L54.385 44.4475L54.0594 44.8284C53.9938 44.9048 53.9365 44.9562 53.8873 44.9828C53.8381 45.0094 53.7841 45.0176 53.7253 45.0076C53.6666 44.9973 53.6135 44.9719 53.5673 44.9312C53.5071 44.8783 53.4731 44.8139 53.4655 44.7383C53.4581 44.6627 53.484 44.5791 53.5431 44.4866C53.5031 44.5044 53.4694 44.5147 53.4422 44.5182C53.3838 44.5252 53.3194 44.5236 53.249 44.5131L52.8911 44.459L53.0124 44.317L53.2859 44.3584C53.3652 44.3702 53.4275 44.3771 53.4729 44.3793C53.5182 44.3817 53.5534 44.3787 53.5787 44.3711C53.6038 44.3639 53.6262 44.353 53.6458 44.3391C53.659 44.3288 53.6783 44.3089 53.7036 44.2796L53.816 44.1479L53.4396 43.8173L53.5368 43.7037L53.5372 43.7035ZM53.9133 44.233L53.7048 44.4772C53.6604 44.5291 53.6314 44.5742 53.6168 44.6126C53.6026 44.651 53.6005 44.6882 53.6112 44.7238C53.6214 44.7595 53.6402 44.7891 53.6676 44.8133C53.7078 44.8483 53.7532 44.8631 53.8045 44.8562C53.8552 44.8496 53.9077 44.8145 53.962 44.751L54.1943 44.4793L53.9133 44.233ZM52.7721 44.5772L53.5839 45.3615L53.481 45.4706L52.6692 44.6867L52.7721 44.5772ZM52.1049 45.8795L52.1959 45.9759L51.8524 46.3077L51.5654 46.0031C51.5783 45.9096 51.6024 45.8248 51.6385 45.7492C51.6743 45.6733 51.7218 45.6069 51.7808 45.55C51.8604 45.473 51.9493 45.4203 52.0471 45.392C52.1443 45.3636 52.2409 45.3663 52.3355 45.3995C52.4303 45.4327 52.5157 45.4899 52.5917 45.5706C52.6669 45.6507 52.7208 45.7413 52.753 45.8426C52.7852 45.9442 52.7861 46.0412 52.7558 46.1349C52.7256 46.2283 52.6699 46.3141 52.5891 46.3924C52.5304 46.4489 52.4683 46.4906 52.403 46.5172C52.337 46.5438 52.2747 46.5525 52.2157 46.5444C52.1564 46.5359 52.0934 46.5109 52.0275 46.4688L52.0991 46.3485C52.1506 46.3784 52.1966 46.3965 52.2374 46.4035C52.2779 46.4098 52.3218 46.4041 52.3689 46.3859C52.4158 46.3681 52.4599 46.3394 52.501 46.2999C52.5497 46.2524 52.5849 46.2041 52.6066 46.1542C52.6281 46.1046 52.6381 46.0569 52.6367 46.0106C52.6355 45.9647 52.6269 45.9208 52.6114 45.8798C52.584 45.8091 52.5425 45.7438 52.4861 45.6843C52.4173 45.6105 52.3469 45.5613 52.2753 45.5356C52.204 45.5103 52.1331 45.5084 52.063 45.5305C51.9932 45.5526 51.9312 45.5891 51.8778 45.6409C51.8313 45.6859 51.7946 45.7388 51.7674 45.7995C51.7406 45.8608 51.7254 45.9125 51.7218 45.9555L51.867 46.1096L52.1049 45.8795ZM51.3901 45.959L51.7447 47.1222L51.6164 47.2244L50.5643 46.6167L50.697 46.511L51.0093 46.7008L51.3806 46.4049L51.266 46.058L51.3901 45.959ZM51.4209 46.5281L51.1203 46.7674L51.4045 46.9418C51.4906 46.9953 51.5596 47.0406 51.6124 47.0781C51.5793 47.0105 51.5513 46.9403 51.5277 46.8674L51.4209 46.5281ZM50.4757 46.7013L51.1259 47.6273L50.7206 47.9193C50.6392 47.9782 50.5716 48.0144 50.5176 48.0284C50.4636 48.0422 50.409 48.0371 50.3541 48.0136C50.2995 47.9898 50.2539 47.9523 50.2184 47.9014C50.1721 47.8355 50.1545 47.7651 50.1647 47.6896C50.1748 47.6143 50.2199 47.5394 50.2989 47.4639C50.2557 47.4714 50.2208 47.4735 50.1933 47.4705C50.1349 47.4629 50.0729 47.446 50.0069 47.4191L49.6718 47.2807L49.823 47.1719L50.0791 47.2776C50.1534 47.3082 50.2121 47.3296 50.2557 47.3426C50.2992 47.3557 50.3341 47.3614 50.3606 47.3601C50.3866 47.3589 50.4107 47.3538 50.4328 47.3451C50.4486 47.3381 50.4719 47.3233 50.5032 47.3009L50.6433 47.2L50.3547 46.7887L50.4757 46.7013ZM50.7176 47.306L50.4582 47.4931C50.4027 47.533 50.3639 47.5698 50.3409 47.604C50.318 47.6379 50.3072 47.6732 50.3094 47.7104C50.3112 47.7476 50.3225 47.7808 50.3433 47.8108C50.3741 47.8546 50.4149 47.8796 50.4662 47.8854C50.5172 47.8912 50.5763 47.8698 50.6439 47.8211L50.9329 47.6128L50.7176 47.306ZM49.5539 47.3658L50.1591 48.3227L49.7406 48.5944C49.6565 48.6492 49.587 48.6824 49.5324 48.6936C49.4778 48.7048 49.4238 48.6972 49.3699 48.6706C49.3165 48.6444 49.2729 48.6047 49.2399 48.5522C49.1969 48.4842 49.1826 48.4128 49.1963 48.3382C49.21 48.2632 49.2584 48.1907 49.341 48.1191C49.2978 48.1245 49.2626 48.1248 49.2354 48.1203C49.1773 48.11 49.1161 48.09 49.0515 48.0602L48.7231 47.9057L48.8794 47.8041L49.1302 47.922C49.203 47.9562 49.2608 47.9806 49.3034 47.9958C49.3463 48.0109 49.3812 48.0184 49.4075 48.0184C49.4337 48.0184 49.4578 48.0144 49.4806 48.0069C49.4963 48.0006 49.5205 47.9872 49.5527 47.9661L49.6974 47.8721L49.4287 47.4472L49.5539 47.3658ZM49.7669 47.9818L49.4987 48.1562C49.4414 48.1931 49.4009 48.2282 49.3765 48.2608C49.3518 48.2937 49.3395 48.3284 49.3398 48.3656C49.3398 48.4028 49.3494 48.4369 49.3691 48.4678C49.3977 48.5128 49.4373 48.54 49.4881 48.5482C49.5388 48.5563 49.599 48.5376 49.6686 48.4926L49.9673 48.2986L49.7669 47.9818ZM48.5773 47.9866L49.1361 48.9718L49.007 49.0468L48.4482 48.0616L48.5773 47.9866ZM47.574 49.0456L47.6339 49.1644L47.2114 49.3835L47.022 49.0088C47.0605 48.9227 47.1072 48.8486 47.163 48.7864C47.2188 48.7241 47.2829 48.674 47.3553 48.6365C47.4535 48.5855 47.5531 48.5606 47.6547 48.5615C47.7562 48.5624 47.848 48.5927 47.9291 48.6519C48.0108 48.7111 48.0767 48.7907 48.1268 48.8898C48.1766 48.9883 48.2029 49.0905 48.2053 49.1972C48.2077 49.3035 48.1814 49.3973 48.1259 49.478C48.0708 49.559 47.9935 49.6252 47.8939 49.6768C47.8217 49.7143 47.7505 49.7363 47.6804 49.7427C47.61 49.7494 47.5477 49.74 47.4931 49.7149C47.4385 49.6899 47.3854 49.6475 47.3338 49.5886L47.4364 49.4937C47.4772 49.5373 47.5163 49.5681 47.5536 49.5863C47.5909 49.6044 47.6341 49.6113 47.6845 49.6075C47.7346 49.6038 47.785 49.589 47.8354 49.563C47.8953 49.5315 47.9428 49.4954 47.9777 49.4536C48.0122 49.4122 48.0353 49.3696 48.0465 49.3248C48.0582 49.2804 48.0623 49.236 48.0591 49.1922C48.0526 49.116 48.031 49.0417 47.994 48.9685C47.9484 48.8779 47.8947 48.8102 47.8336 48.7652C47.7722 48.7205 47.7048 48.6984 47.6314 48.6993C47.558 48.7002 47.4886 48.7174 47.4227 48.7515C47.3657 48.7812 47.3153 48.8216 47.2724 48.8719C47.2295 48.9229 47.2005 48.9679 47.1853 49.0085L47.2811 49.198L47.5739 49.046L47.574 49.0456ZM46.858 48.8963L46.9278 50.1119L46.7793 50.1798L45.9013 49.3348L46.0549 49.2644L46.3135 49.524L46.7436 49.327L46.7143 48.9622L46.858 48.8963ZM46.7537 49.4564L46.4053 49.6159L46.6401 49.8543C46.711 49.9268 46.7674 49.9879 46.8098 50.0369C46.7937 49.9631 46.7829 49.8882 46.7773 49.8117L46.7537 49.4564ZM45.7847 49.3723L46.1441 50.4488L45.6735 50.6105C45.5787 50.6428 45.5035 50.658 45.4477 50.6555C45.3922 50.6531 45.3412 50.6323 45.2956 50.5936C45.25 50.5549 45.2172 50.5056 45.1972 50.4466C45.1718 50.3702 45.1749 50.2974 45.2061 50.2281C45.2372 50.1589 45.3015 50.1003 45.3984 50.051C45.3552 50.0459 45.3209 50.0375 45.2959 50.0266C45.2419 50.0024 45.1873 49.968 45.1318 49.9232L44.85 49.6929L45.0257 49.6325L45.241 49.8087C45.3033 49.8594 45.3537 49.8972 45.3919 49.9223C45.4298 49.9476 45.4617 49.963 45.4873 49.9697C45.5127 49.9761 45.5371 49.9782 45.5607 49.9764C45.5777 49.9742 45.6042 49.967 45.6406 49.9546L45.8035 49.8986L45.6437 49.4205L45.7847 49.3723ZM45.8446 50.0221L45.5428 50.1257C45.4787 50.1478 45.431 50.1717 45.3991 50.1973C45.3678 50.223 45.3472 50.2542 45.3388 50.2902C45.3299 50.3261 45.3311 50.3615 45.3428 50.3965C45.3597 50.4473 45.3919 50.4832 45.4391 50.5035C45.4865 50.5241 45.5495 50.5207 45.6276 50.4935L45.9637 50.3784L45.8446 50.0221ZM44.7146 49.7453L45.0211 50.8387L44.5428 50.9762C44.4468 51.004 44.371 51.0153 44.3153 51.0101C44.2601 51.0047 44.2103 50.9816 44.1665 50.9406C44.123 50.8995 44.0925 50.849 44.0755 50.7889C44.0537 50.7112 44.0606 50.6387 44.0949 50.5709C44.1295 50.5035 44.1967 50.4483 44.2959 50.4039C44.253 50.3966 44.2193 50.3863 44.1944 50.3742C44.142 50.3473 44.0889 50.3104 44.0355 50.2626L43.7656 50.0184L43.9439 49.9671L44.1503 50.1535C44.2102 50.2076 44.2586 50.2479 44.2953 50.275C44.332 50.3019 44.3632 50.3191 44.3886 50.3269C44.4133 50.3348 44.4377 50.3381 44.4617 50.3375C44.4784 50.336 44.5055 50.3303 44.5422 50.3194L44.7077 50.2719L44.5717 49.7866L44.7146 49.7453ZM44.7427 50.3974L44.4364 50.4854C44.3711 50.5041 44.3222 50.5258 44.2895 50.5501C44.2567 50.5742 44.2349 50.6042 44.2247 50.6398C44.214 50.6752 44.2134 50.7105 44.2235 50.7459C44.2378 50.7975 44.2682 50.835 44.3145 50.8577C44.3607 50.8807 44.4237 50.8804 44.5033 50.8574L44.8445 50.7592L44.7427 50.3974ZM43.604 50.0593L43.8561 51.1667L43.7108 51.2005L43.4587 50.0931L43.604 50.0593Z" fill="#00053C"/>
<path fill-rule="evenodd" clip-rule="evenodd" d="M28.7637 30.3819H24.6589C24.7571 29.339 25.0681 28.3809 25.5918 27.5087C26.2365 26.4348 27.1301 25.5941 28.2725 24.986C28.3581 24.9403 28.4444 24.8965 28.5314 24.8545L28.5311 24.8058L28.5198 22.1662L31.202 22.1771V24.1173C31.4465 24.0935 31.6949 24.0792 31.9485 24.0753L31.9703 22.1771L34.6081 22.1774L34.6195 24.451C34.8047 24.5069 34.9902 24.5685 35.1753 24.6365C36.1965 25.0118 37.0643 25.5229 37.7795 26.1697L35.5202 28.9251C35.0606 28.4724 34.5212 28.1101 33.902 27.8383C33.2832 27.5666 32.6799 27.4309 32.0927 27.4309C31.4542 27.4309 30.8768 27.5923 30.3596 27.9163C29.8428 28.2397 29.4372 28.6824 29.1438 29.2451C28.9586 29.5997 28.8319 29.9787 28.7637 30.3819Z" fill="#00053C"/>
<path fill-rule="evenodd" clip-rule="evenodd" d="M34.6198 38.7078L34.5977 41.1769H31.9488V39.1306C31.9136 39.1306 31.8787 39.1312 31.8438 39.1312C31.6264 39.1312 31.4129 39.1234 31.2023 39.1077V41.1879L28.5314 41.177V38.4841C28.5314 38.4588 28.5317 38.4337 28.5323 38.4092C28.4026 38.3466 28.2743 38.2798 28.1482 38.2094C27.0504 37.5946 26.1889 36.7505 25.5634 35.6771C24.9378 34.6033 24.6252 33.3938 24.6252 32.0486C24.6252 31.9613 24.6264 31.8748 24.6295 31.7887H28.711C28.7062 31.8741 28.7038 31.9609 28.7038 32.0486C28.7038 32.747 28.8535 33.3811 29.1535 33.9502C29.4535 34.5196 29.8654 34.9656 30.3885 35.289C30.9119 35.6124 31.4929 35.7741 32.1311 35.7741C32.7057 35.7741 33.3818 35.5867 34.1607 35.2114V31.816H37.588V37.346C36.8606 37.8634 35.9605 38.2902 34.8884 38.6266C34.7983 38.6547 34.7087 38.6818 34.6198 38.7078Z" fill="#FFFF7D"/>
<ellipse cx="31.2024" cy="31.5" rx="22.2024" ry="22.5" stroke="#00053C" stroke-width="17.2241"/>
<defs>
<linearGradient id="paint0_linear_2_21" x1="9.40747" y1="35.8125" x2="50.1975" y2="35.8125" gradientUnits="userSpaceOnUse">
<stop offset="1" stop-color="#CCCC00"/>
<stop offset="0.72941" stop-color="#FFFF7D"/>
<stop offset="0.54118" stop-color="#D2D20E"/>
<stop offset="0.36863" stop-color="#FFFF7D"/>
<stop offset="0.21177" stop-color="#CECE04"/>
<stop stop-color="#FFFF7D"/>
</linearGradient>
</defs>
</svg>
