<svg width="26" height="25" viewBox="0 0 26 25" fill="none" xmlns="http://www.w3.org/2000/svg">
<path d="M15.1576 21.993C20.6701 20.5159 23.9801 14.9939 22.5507 9.65927C21.1212 4.32461 15.4937 1.19741 9.98123 2.67447C4.46875 4.15154 1.15877 9.67354 2.58819 15.0082C4.01761 20.3429 9.64513 23.4701 15.1576 21.993Z" fill="black"/>
<path fill-rule="evenodd" clip-rule="evenodd" d="M9.56822 8.1569L6.15348 14.0638L18.8279 10.6677L12.9173 7.25952C11.7497 6.58638 10.2427 6.99017 9.56822 8.1569ZM9.63602 12.6569L11.3685 12.1926C11.3524 12.0171 11.3636 11.8451 11.4022 11.6767C11.4634 11.4094 11.5852 11.1793 11.7673 10.9863C11.9495 10.793 12.1752 10.6605 12.4447 10.5883C12.6926 10.5219 12.9623 10.5102 13.2538 10.5532C13.5454 10.5962 13.8136 10.686 14.058 10.8223L14.7044 9.42046C14.3305 9.23223 13.9072 9.11776 13.4344 9.07708C13.3486 9.06977 13.2634 9.06511 13.1791 9.06277L12.9208 8.11815L11.8074 8.41634L12.0097 9.20858C11.9031 9.23888 11.7999 9.27289 11.6994 9.31047L11.4831 8.50324L10.3497 8.80206L10.6488 9.89899L10.6543 9.91923C10.6223 9.94651 10.5907 9.97451 10.5597 10.0032C10.1453 10.3854 9.86187 10.8362 9.70945 11.3559C9.58562 11.778 9.56115 12.2118 9.63602 12.6569ZM5.92234 14.279C7.42667 16.7662 11.1035 18.5179 14.2942 17.6629C16.6233 17.0388 18.9208 14.4751 19.1874 10.7246L11.503 12.7837C11.503 12.7836 11.503 12.7835 11.5029 12.7834L9.78016 13.245C9.78017 13.2451 9.78019 13.2452 9.78021 13.2453L5.92234 14.279ZM9.78021 13.2453C9.78853 13.2814 9.79764 13.3174 9.80736 13.3537C9.95733 13.9134 10.2241 14.3812 10.6079 14.7572C10.9915 15.133 11.4492 15.3867 11.9811 15.5184C12.0423 15.5334 12.1038 15.5467 12.1655 15.558C12.168 15.5684 12.1707 15.5788 12.1735 15.5893L12.4737 16.7097L13.6023 16.4121L13.3704 15.5467C13.461 15.5294 13.552 15.5085 13.6438 15.4839L13.688 15.4718L13.9161 16.3232L15.0342 16.0236L14.7683 14.9938C14.8029 14.9729 14.8377 14.9515 14.8726 14.9297C15.2876 14.6684 15.62 14.389 15.8693 14.0916L15.2529 11.7908L13.8062 12.1785L14.1847 13.591C13.8978 13.8353 13.6334 13.9898 13.3908 14.0548C13.1214 14.127 12.8582 14.1253 12.6012 14.05C12.3444 13.9746 12.1208 13.8357 11.9307 13.6326C11.7406 13.4298 11.6067 13.1829 11.5289 12.8924C11.5191 12.856 11.5105 12.8197 11.503 12.7837L9.78021 13.2453Z" fill="white"/>
</svg>
