<svg width="20" height="21" viewBox="0 0 20 21" fill="none" xmlns="http://www.w3.org/2000/svg">
<path fill-rule="evenodd" clip-rule="evenodd" d="M9.69008 19.2679L9.69288 19.2692C9.89 19.3549 10 19.3349 10 19.3349C10 19.3349 10.11 19.3549 10.3079 19.2688L10.3099 19.2679L10.3157 19.2653L10.3338 19.2569C10.3488 19.25 10.3697 19.2402 10.3959 19.2275C10.4484 19.2022 10.5225 19.1655 10.6153 19.1171C10.8008 19.0204 11.0612 18.8768 11.3717 18.6844C11.9912 18.3004 12.8174 17.7175 13.6455 16.9193C15.3022 15.3225 17 12.8274 17 9.33493C17 5.46894 13.866 2.33493 10 2.33493C6.13401 2.33493 3 5.46894 3 9.33493C3 12.8274 4.69783 15.3225 6.35452 16.9193C7.18264 17.7175 8.00877 18.3004 8.62834 18.6844C8.93879 18.8768 9.19922 19.0204 9.38467 19.1171C9.47745 19.1655 9.55163 19.2022 9.60409 19.2275C9.63033 19.2402 9.65116 19.25 9.66619 19.2569L9.68435 19.2653L9.69008 19.2679ZM10 11.5849C11.2426 11.5849 12.25 10.5776 12.25 9.33493C12.25 8.09229 11.2426 7.08493 10 7.08493C8.75736 7.08493 7.75 8.09229 7.75 9.33493C7.75 10.5776 8.75736 11.5849 10 11.5849Z" fill="#151C71"/>
</svg>
