<svg width="36" height="37" viewBox="0 0 36 37" fill="none" xmlns="http://www.w3.org/2000/svg">
<path d="M18 15.3337C21.3137 15.3337 24 12.6474 24 9.33371C24 6.02 21.3137 3.33371 18 3.33371C14.6863 3.33371 12 6.02 12 9.33371C12 12.6474 14.6863 15.3337 18 15.3337Z" fill="#151C71"/>
<path opacity="0.4" d="M26.9944 22.1154C26.2962 21.8526 25.5397 21.7087 24.75 21.7087C21.2292 21.7087 18.375 24.5629 18.375 28.0837C18.375 29.8672 19.109 31.4815 20.2884 32.6373C20.5179 32.8621 20.7643 33.0699 21.0259 33.2583C20.1132 33.3079 19.1077 33.3337 18 33.3337C6 33.3337 6 30.3117 6 26.5837C6 22.8558 11.3726 19.8337 18 19.8337C21.5811 19.8337 24.7957 20.716 26.9944 22.1154Z" fill="#151C71"/>
<mask id="path-3-inside-1_44_970" fill="white">
<path d="M30.5998 27.9337C30.5998 29.0017 30.2831 30.0458 29.6897 30.9338C29.0964 31.8218 28.253 32.514 27.2663 32.9227C26.2796 33.3314 25.1938 33.4383 24.1463 33.23C23.0988 33.0216 22.1366 32.5073 21.3814 31.7521C20.6262 30.9969 20.1119 30.0347 19.9036 28.9872C19.6952 27.9397 19.8021 26.854 20.2109 25.8672C20.6196 24.8805 21.3117 24.0371 22.1997 23.4438C23.0878 22.8504 24.1318 22.5337 25.1998 22.5337V27.9337H30.5998Z"/>
</mask>
<path d="M30.5998 27.9337C30.5998 29.0017 30.2831 30.0458 29.6897 30.9338C29.0964 31.8218 28.253 32.514 27.2663 32.9227C26.2796 33.3314 25.1938 33.4383 24.1463 33.23C23.0988 33.0216 22.1366 32.5073 21.3814 31.7521C20.6262 30.9969 20.1119 30.0347 19.9036 28.9872C19.6952 27.9397 19.8021 26.854 20.2109 25.8672C20.6196 24.8805 21.3117 24.0371 22.1997 23.4438C23.0878 22.8504 24.1318 22.5337 25.1998 22.5337V27.9337H30.5998Z" fill="#1C274C" stroke="#1C274C" stroke-width="2" mask="url(#path-3-inside-1_44_970)"/>
</svg>
