<svg width="36" height="37" viewBox="0 0 36 37" fill="none" xmlns="http://www.w3.org/2000/svg">
<path d="M24 9.33371C24 12.6474 21.3137 15.3337 18 15.3337C14.6863 15.3337 12 12.6474 12 9.33371C12 6.02 14.6863 3.33371 18 3.33371C21.3137 3.33371 24 6.02 24 9.33371Z" fill="#151C71"/>
<path fill-rule="evenodd" clip-rule="evenodd" d="M24.75 33.3337C22.2752 33.3337 21.0376 33.3337 20.2689 32.5648C19.5 31.7961 19.5 30.5586 19.5 28.0837C19.5 25.6089 19.5 24.3714 20.2689 23.6026C21.0376 22.8337 22.2752 22.8337 24.75 22.8337C27.2248 22.8337 28.4623 22.8337 29.2311 23.6026C30 24.3714 30 25.6089 30 28.0837C30 30.5586 30 31.7961 29.2311 32.5648C28.4623 33.3337 27.2248 33.3337 24.75 33.3337ZM27.702 26.9524C28.0437 26.6107 28.0437 26.0568 27.702 25.7151C27.3603 25.3732 26.8064 25.3732 26.4647 25.7151L23.5833 28.5963L23.0354 28.0483C22.6937 27.7066 22.1397 27.7066 21.798 28.0483C21.4563 28.39 21.4563 28.9441 21.798 29.2858L22.9646 30.4524C23.3063 30.7942 23.8604 30.7942 24.2021 30.4524L27.702 26.9524Z" fill="#151C71"/>
<path opacity="0.5" d="M21.7161 33.2149C20.6269 33.2929 19.3944 33.3337 18 33.3337C6 33.3337 6 30.3117 6 26.5837C6 22.8558 11.3726 19.8337 18 19.8337C22.3209 19.8337 26.1084 21.1183 28.2213 23.0455C27.447 22.8337 26.3605 22.8337 24.75 22.8337C22.2751 22.8337 21.0376 22.8337 20.2689 23.6026C19.5 24.3714 19.5 25.6089 19.5 28.0837C19.5 30.5586 19.5 31.7961 20.2689 32.5648C20.6251 32.9212 21.082 33.1123 21.7161 33.2149Z" fill="#151C71"/>
</svg>
