<svg width="65" height="64" viewBox="0 0 65 64" fill="none" xmlns="http://www.w3.org/2000/svg">
<mask id="mask0_44_3030" style="mask-type:alpha" maskUnits="userSpaceOnUse" x="1" y="0" width="64" height="64">
<circle cx="33" cy="32" r="32" fill="white"/>
</mask>
<g mask="url(#mask0_44_3030)">
<path d="M55.2478 11.1911C51.0623 9.23277 46.5869 7.80954 41.9081 6.99915C41.3335 8.03805 40.6621 9.43539 40.1992 10.547C35.2254 9.79898 30.2973 9.79898 25.415 10.547C24.9522 9.43539 24.2656 8.03805 23.6859 6.99915C19.0019 7.80954 14.5214 9.238 10.3358 11.2015C1.89348 23.9589 -0.3951 36.3996 0.74919 48.6635C6.34858 52.845 11.7751 55.3851 17.11 57.0474C18.4272 55.2343 19.602 53.3072 20.614 51.2762C18.6865 50.544 16.8404 49.64 15.0961 48.5908C15.5589 48.248 16.0115 47.8894 16.4488 47.5206C27.0881 52.4969 38.6481 52.4969 49.1604 47.5206C49.6027 47.8894 50.0553 48.248 50.513 48.5908C48.7636 49.6453 46.9125 50.549 44.985 51.2815C45.9969 53.3072 47.1668 55.2396 48.4891 57.0524C53.8291 55.3902 59.2605 52.8503 64.8599 48.6635C66.2027 34.4464 62.5663 22.1201 55.2478 11.1911ZM22.0635 41.1213C18.8697 41.1213 16.2505 38.1396 16.2505 34.5087C16.2505 30.8778 18.8137 27.8911 22.0635 27.8911C25.3133 27.8911 27.9324 30.8726 27.8766 34.5087C27.8817 38.1396 25.3133 41.1213 22.0635 41.1213ZM43.5456 41.1213C40.3517 41.1213 37.7327 38.1396 37.7327 34.5087C37.7327 30.8778 40.2959 27.8911 43.5456 27.8911C46.7955 27.8911 49.4145 30.8726 49.3587 34.5087C49.3587 38.1396 46.7955 41.1213 43.5456 41.1213Z" fill="#00053C"/>
</g>
</svg>
