<svg width="27" height="56" viewBox="0 0 27 56" fill="none" xmlns="http://www.w3.org/2000/svg">
<path d="M16.3609 13.5569C16.3609 14.1234 16.3609 15.9699 16.3609 18.5933H25.3805L24.4026 26.6337H16.3609C16.3609 39.0335 16.3609 55.6497 16.3609 55.6497H5.6869C5.6869 55.6497 5.6869 39.2534 5.6869 26.6337H0.125V18.5933H5.6869C5.6869 15.4047 5.6869 13.1374 5.6869 12.5061C5.6869 9.49823 5.46028 8.07107 6.73833 5.74027C8.01705 3.40958 11.6238 0.328879 17.8621 0.403048C24.1019 0.479919 26.7321 1.08019 26.7321 1.08019L25.3805 9.64927C25.3805 9.64927 21.3961 8.59717 19.4403 8.97213C17.4872 9.34719 16.3609 10.5503 16.3609 13.5569Z" fill="#00053C"/>
</svg>
