<svg width="69" height="69" viewBox="0 0 69 69" fill="none" xmlns="http://www.w3.org/2000/svg">
<mask id="mask0_44_3037" style="mask-type:alpha" maskUnits="userSpaceOnUse" x="1" y="0" width="68" height="68">
<circle cx="35" cy="34" r="34" fill="white"/>
</mask>
<g mask="url(#mask0_44_3037)">
<path d="M23.5453 34.0258C23.5453 27.7183 28.6571 22.6037 34.9646 22.6037C41.2721 22.6037 46.3867 27.7183 46.3867 34.0258C46.3867 40.3333 41.2721 45.4479 34.9646 45.4479C28.6571 45.4479 23.5453 40.3333 23.5453 34.0258ZM17.3708 34.0258C17.3708 43.7429 25.2475 51.6197 34.9646 51.6197C44.6817 51.6197 52.5585 43.7429 52.5585 34.0258C52.5585 24.3087 44.6817 16.4319 34.9646 16.4319C25.2475 16.4319 17.3708 24.3087 17.3708 34.0258ZM49.1434 15.7343C49.1425 18.0051 50.9826 19.8467 53.2534 19.8476C55.5241 19.8485 57.3657 18.0084 57.3666 15.7376C57.3675 13.4668 55.5274 11.6252 53.2567 11.6243L53.255 11.6243C50.9853 11.6254 49.1454 13.4646 49.1434 15.7343ZM21.1222 61.9154C17.7816 61.7633 15.966 61.2068 14.7593 60.7367C13.1596 60.114 12.0183 59.3722 10.8182 58.1738C9.61817 56.9754 8.87533 55.8352 8.2553 54.2355C7.78494 53.0294 7.2285 51.2132 7.07664 47.8726C6.91053 44.261 6.87737 43.176 6.87737 34.0261C6.87737 24.8761 6.91327 23.7942 7.07664 20.1795C7.22877 16.839 7.78932 15.0263 8.2553 13.8166C8.87808 12.217 9.61981 11.0756 10.8182 9.87553C12.0166 8.67549 13.1569 7.93265 14.7593 7.31262C15.9654 6.84226 17.7816 6.28582 21.1222 6.13396C24.7338 5.96785 25.8188 5.93468 34.9646 5.93468C44.1105 5.93468 45.1965 5.97059 48.8112 6.13396C52.1517 6.28609 53.9644 6.84664 55.174 7.31262C56.7737 7.93265 57.9151 8.67713 59.1152 9.87553C60.3152 11.0739 61.0553 12.217 61.6781 13.8166C62.1484 15.0227 62.7049 16.839 62.8567 20.1795C63.0228 23.7942 63.056 24.8761 63.056 34.0261C63.056 43.176 63.0228 44.2579 62.8567 47.8726C62.7046 51.2132 62.1454 53.0289 61.6781 54.2355C61.0553 55.8352 60.3136 56.9765 59.1152 58.1738C57.9168 59.3711 56.7737 60.114 55.174 60.7367C53.968 61.2071 52.1517 61.7636 48.8112 61.9154C45.1995 62.0815 44.1146 62.1147 34.9646 62.1147C25.8146 62.1147 24.7327 62.0815 21.1222 61.9154ZM20.8385 -0.0301714C17.1909 0.135938 14.6985 0.714305 12.5218 1.5613C10.2675 2.43598 8.35919 3.60943 6.45222 5.51338C4.54526 7.41733 3.37482 9.32869 2.50014 11.5829C1.65315 13.761 1.07478 16.2521 0.908671 19.8996C0.739821 23.553 0.701172 24.7209 0.701172 34.0258C0.701172 43.3306 0.739821 44.4986 0.908671 48.1519C1.07478 51.7997 1.65315 54.2906 2.50014 56.4686C3.37482 58.7215 4.54553 60.6351 6.45222 62.5382C8.35892 64.4413 10.2675 65.6131 12.5218 66.4903C14.7026 67.3373 17.1909 67.9156 20.8385 68.0817C24.4937 68.2479 25.6598 68.2892 34.9646 68.2892C44.2695 68.2892 45.4375 68.2506 49.0908 68.0817C52.7386 67.9156 55.2294 67.3373 57.4075 66.4903C59.6604 65.6131 61.5701 64.4421 63.477 62.5382C65.384 60.6342 66.552 58.7215 67.4291 56.4686C68.2761 54.2906 68.8572 51.7995 69.0206 48.1519C69.1867 44.4959 69.2253 43.3306 69.2253 34.0258C69.2253 24.7209 69.1867 23.553 69.0206 19.8996C68.8545 16.2518 68.2761 13.7596 67.4291 11.5829C66.552 9.33006 65.381 7.42035 63.477 5.51338C61.5731 3.60642 59.6604 2.43598 57.4102 1.5613C55.2294 0.714305 52.7383 0.133197 49.0935 -0.0301715C45.4402 -0.196281 44.2722 -0.237671 34.9674 -0.237671C25.6625 -0.237671 24.4937 -0.199022 20.8385 -0.0301714Z" fill="#00053C"/>
</g>
</svg>
