<svg width="66" height="65" viewBox="0 0 66 65" fill="none" xmlns="http://www.w3.org/2000/svg">
<mask id="mask0_44_3022" style="mask-type:alpha" maskUnits="userSpaceOnUse" x="0" y="0" width="66" height="65">
<ellipse cx="33" cy="32.5" rx="33" ry="32.5" fill="white"/>
</mask>
<g mask="url(#mask0_44_3022)">
<path d="M18.3848 16.0873L42.2308 47.9642H47.6306L23.7846 16.0873H18.3848Z" fill="#00053C"/>
<path d="M32.9599 -0.590454C14.9464 -0.590454 0.34375 14.0122 0.34375 32.0257C0.34375 50.0393 14.9464 64.6419 32.9599 64.6419C50.9735 64.6419 65.5761 50.0393 65.5761 32.0257C65.5761 14.0122 50.9735 -0.590454 32.9599 -0.590454ZM40.956 50.5111L30.0999 35.9955L16.6634 50.5111H13.2098L28.5568 33.932L13.3061 13.5403H25.0603L35.0582 26.9086L47.4321 13.5403H50.8858L36.6014 28.9729L52.7101 50.5111H40.956Z" fill="#00053C"/>
</g>
</svg>
