<svg width="32" height="30" viewBox="0 0 32 30" fill="none" xmlns="http://www.w3.org/2000/svg">
<path d="M26.671 5.45411C31.9431 10.7262 31.9431 19.2739 26.671 24.546M22.694 9.43171C25.7693 12.5071 25.7693 17.4933 22.694 20.5686M8.125 9.37513L15.2045 2.29563C15.9132 1.58692 17.125 2.08886 17.125 3.09112V26.9091C17.125 27.9114 15.9132 28.4133 15.2045 27.7046L8.125 20.6251H4.76358C3.44457 20.6251 2.20886 19.8654 1.85856 18.5938C1.54336 17.4496 1.375 16.2445 1.375 15.0001C1.375 13.7557 1.54336 12.5507 1.85856 11.4065C2.20886 10.1348 3.44457 9.37513 4.76358 9.37513H8.125Z" stroke="#040E42" stroke-width="2.5" stroke-linecap="round" stroke-linejoin="round"/>
</svg>
