<svg width="36" height="36" viewBox="0 0 36 36" fill="none" xmlns="http://www.w3.org/2000/svg">
<path d="M30.375 11.25L29.4369 27.1982C29.3319 28.9821 27.8547 30.375 26.0677 30.375H9.93231C8.14532 30.375 6.66806 28.9821 6.56313 27.1982L5.625 11.25M14.625 17.4375L18 20.8125M18 20.8125L21.375 24.1875M18 20.8125L21.375 17.4375M18 20.8125L14.625 24.1875M5.0625 11.25H30.9375C31.8695 11.25 32.625 10.4945 32.625 9.5625V7.3125C32.625 6.38052 31.8695 5.625 30.9375 5.625H5.0625C4.13052 5.625 3.375 6.38052 3.375 7.3125V9.5625C3.375 10.4945 4.13052 11.25 5.0625 11.25Z" stroke="#C03744" stroke-width="1.5" stroke-linecap="round" stroke-linejoin="round"/>
</svg>
