<svg width="38" height="38" viewBox="0 0 38 38" fill="none" xmlns="http://www.w3.org/2000/svg">
<path d="M18.997 31.9559V18.6469M19.6094 32.117L34.2693 36.5588C35.4182 36.9069 35.9927 37.0809 36.3469 36.9559C36.6547 36.8476 36.8881 36.6145 36.9772 36.3268C37.0797 35.9954 36.832 35.4952 36.3366 34.4943L20.6051 2.71865C20.1207 1.74005 19.8785 1.25076 19.5409 1.09915C19.2478 0.967425 18.9035 0.966931 18.6098 1.0978C18.2718 1.24842 18.0279 1.73701 17.5399 2.7142L1.66983 34.4962C1.17048 35.4963 0.9208 35.9962 1.02233 36.3279C1.1105 36.616 1.34322 36.8497 1.6506 36.959C2.00456 37.0848 2.57994 36.9118 3.73071 36.5662L18.5464 32.1156C18.7436 32.0565 18.8422 32.0268 18.9432 32.0151C19.0327 32.0048 19.1232 32.0048 19.2127 32.0154C19.3136 32.0274 19.4121 32.0573 19.6094 32.117Z" stroke="#040E42" stroke-width="2" stroke-linecap="round" stroke-linejoin="round"/>
</svg>
