<svg width="36" height="36" viewBox="0 0 36 36" fill="none" xmlns="http://www.w3.org/2000/svg">
<path d="M17.2211 5.24824C17.5093 4.55527 18.491 4.55527 18.7792 5.24824L21.9682 12.9154C22.0897 13.2076 22.3644 13.4072 22.6798 13.4325L30.9572 14.096C31.7053 14.156 32.0086 15.0896 31.4386 15.5779L25.1322 20.9801C24.8919 21.1859 24.7869 21.5089 24.8603 21.8166L26.7871 29.8939C26.9612 30.624 26.167 31.201 25.5265 30.8098L18.44 26.4813C18.1699 26.3164 17.8304 26.3164 17.5603 26.4813L10.4738 30.8098C9.83327 31.201 9.03909 30.624 9.21323 29.8939L11.14 21.8166C11.2134 21.5089 11.1084 21.1859 10.8681 20.9801L4.56166 15.5779C3.99168 15.0896 4.29503 14.156 5.04314 14.096L13.3205 13.4325C13.6359 13.4072 13.9106 13.2076 14.0321 12.9154L17.2211 5.24824Z" stroke="#040E42" stroke-width="1.5" stroke-linecap="round" stroke-linejoin="round"/>
</svg>
