<svg width="36" height="36" viewBox="0 0 36 36" fill="none" xmlns="http://www.w3.org/2000/svg">
<path d="M9.62803 36C3.51576 36 0 31.9144 0 24.811V11.1892C0 4.08755 3.51576 0 9.62803 0H26.372C32.4842 0 36 4.08755 36 11.1892V24.811C36 31.9144 32.4842 36 26.372 36H9.62803ZM2.51212 11.1892V24.811C2.51212 30.3765 4.83888 33.0807 9.62803 33.0807H26.372C31.1611 33.0807 33.4879 30.3765 33.4879 24.811V11.1892C33.4879 5.62346 31.1611 2.91957 26.372 2.91957H9.62803C4.83888 2.91957 2.51212 5.62346 2.51212 11.1892ZM14.2439 18.1296L9.00264 13.2662C8.46766 12.76 8.3667 11.8441 8.80221 11.2225C9.23772 10.5989 10.0244 10.4835 10.5608 10.9894L15.8021 15.853C17.074 17.0402 19.2335 17.0402 20.5068 15.853L25.7481 10.9894C26.2831 10.4835 27.0863 10.5797 27.5052 11.2225C27.9407 11.8441 27.8578 12.7793 27.3048 13.2662L22.0635 18.1296C20.9921 19.1612 19.5695 19.6674 18.162 19.6674C16.756 19.6674 15.3319 19.1612 14.2439 18.1296Z" fill="#151C71"/>
</svg>
