<svg width="25" height="24" viewBox="0 0 25 24" fill="none" xmlns="http://www.w3.org/2000/svg">
<path fill-rule="evenodd" clip-rule="evenodd" d="M12.5 2.25C7.11522 2.25 2.75 6.61522 2.75 12C2.75 17.3848 7.11522 21.75 12.5 21.75C17.8848 21.75 22.25 17.3848 22.25 12C22.25 6.61522 17.8848 2.25 12.5 2.25ZM10.7803 9.21967C10.4874 8.92678 10.0126 8.92678 9.71967 9.21967C9.42678 9.51256 9.42678 9.98744 9.71967 10.2803L11.4393 12L9.71967 13.7197C9.42678 14.0126 9.42678 14.4874 9.71967 14.7803C10.0126 15.0732 10.4874 15.0732 10.7803 14.7803L12.5 13.0607L14.2197 14.7803C14.5126 15.0732 14.9874 15.0732 15.2803 14.7803C15.5732 14.4874 15.5732 14.0126 15.2803 13.7197L13.5607 12L15.2803 10.2803C15.5732 9.98744 15.5732 9.51256 15.2803 9.21967C14.9874 8.92678 14.5126 8.92678 14.2197 9.21967L12.5 10.9393L10.7803 9.21967Z" fill="#8C1823"/>
</svg>
