<svg width="84" height="80" viewBox="0 0 84 80" fill="none" xmlns="http://www.w3.org/2000/svg">
<path d="M0.462158 8C0.462158 3.58172 4.04388 0 8.46216 0H76C80.4183 0 84 3.58172 84 8V72C84 76.4183 80.4183 80 76 80H8.46216C4.04388 80 0.462158 76.4183 0.462158 72V8Z" fill="#FCFCFC"/>
<path d="M71.4297 27.4664C71.9185 28.0482 72.0931 28.7116 71.9534 29.4564L69.6492 44.7482C69.5561 45.3533 69.2884 45.8421 68.8462 46.2145C68.404 46.5869 67.8803 46.7731 67.2751 46.7731H35.1554C34.8296 46.7265 34.5503 46.8429 34.3175 47.1222C34.0848 47.4015 33.9917 47.7274 34.0382 48.0998L34.7365 51.8703C34.783 52.1031 34.911 52.3126 35.1205 52.4988C35.33 52.685 35.5744 52.7781 35.8537 52.7781H65.1105C65.8088 52.7781 66.4139 53.0224 66.926 53.5112C67.4381 54 67.6941 54.5935 67.6941 55.2918V55.8504C67.6941 56.5486 67.4497 57.1421 66.9609 57.6309C66.4721 58.1197 65.8786 58.3641 65.1804 58.3641H63.9933C65.0174 59.5278 65.5062 60.8894 65.4597 62.4489C65.4131 64.0083 64.8312 65.3234 63.714 66.394C62.5968 67.4647 61.2585 68 59.6991 68C58.1396 68 56.8013 67.4647 55.6841 66.394C54.5669 65.3234 53.9734 64.0083 53.9036 62.4489C53.8337 60.8894 54.3342 59.5278 55.4048 58.3641H42.4173C43.4879 59.5278 44 60.8894 43.9534 62.4489C43.9069 64.0083 43.3134 65.3234 42.1729 66.394C41.0324 67.4647 39.6824 68 38.123 68C36.5636 68 35.2252 67.4647 34.108 66.394C32.9908 65.3234 32.4089 64.0083 32.3624 62.4489C32.3158 60.8894 32.8046 59.5278 33.8287 58.3641H32.6417C32.1762 58.3641 31.7572 58.2477 31.3848 58.015C30.5935 57.596 30.128 56.9443 29.9883 56.0598L22.8661 18.0748C22.8196 17.8886 22.7265 17.7373 22.5868 17.621C22.4472 17.5046 22.2843 17.4464 22.0981 17.4464H14.9759C14.2776 17.4464 13.6841 17.1904 13.1953 16.6783C12.7065 16.1663 12.4622 15.5611 12.4622 14.8628V14.5137C12.4622 13.8155 12.7065 13.2219 13.1953 12.7332C13.6841 12.2444 14.2776 12 14.9759 12H25.1704C25.8221 12 26.3807 12.1978 26.8462 12.5935C27.3117 12.9892 27.591 13.5129 27.6841 14.1646L29.9185 25.616C29.9651 25.8953 30.0931 26.128 30.3026 26.3142C30.512 26.5004 30.7564 26.5935 31.0357 26.5935H69.5095C70.3009 26.5935 70.941 26.8845 71.4297 27.4664Z" fill="#040E42"/>
</svg>
