<svg width="25" height="24" viewBox="0 0 25 24" fill="none" xmlns="http://www.w3.org/2000/svg">
<path d="M24.2701 6.62844C24.4672 6.87782 24.5375 7.1621 24.4812 7.48131L23.5524 14.0349C23.5149 14.2943 23.407 14.5038 23.2287 14.6634C23.0504 14.823 22.8393 14.9028 22.5954 14.9028H9.64777C9.51642 14.8828 9.40383 14.9327 9.31001 15.0524C9.21618 15.1721 9.17865 15.3117 9.19742 15.4713L9.47889 17.0873C9.49765 17.187 9.54926 17.2768 9.6337 17.3566C9.71815 17.4364 9.81666 17.4763 9.92924 17.4763H21.7228C22.0043 17.4763 22.2482 17.581 22.4547 17.7905C22.6611 18 22.7643 18.2544 22.7643 18.5536V18.793C22.7643 19.0923 22.6658 19.3466 22.4687 19.5561C22.2717 19.7656 22.0324 19.8703 21.751 19.8703H21.2725C21.6853 20.3691 21.8823 20.9526 21.8636 21.621C21.8448 22.2893 21.6102 22.8529 21.1599 23.3117C20.7095 23.7706 20.1701 24 19.5414 24C18.9128 24 18.3733 23.7706 17.923 23.3117C17.4726 22.8529 17.2334 22.2893 17.2052 21.621C17.1771 20.9526 17.3788 20.3691 17.8104 19.8703H12.5751C13.0066 20.3691 13.2131 20.9526 13.1943 21.621C13.1755 22.2893 12.9363 22.8529 12.4765 23.3117C12.0168 23.7706 11.4726 24 10.844 24C10.2154 24 9.67591 23.7706 9.22556 23.3117C8.77521 22.8529 8.54065 22.2893 8.52189 21.621C8.50312 20.9526 8.70015 20.3691 9.11298 19.8703H8.63447C8.44683 19.8703 8.27795 19.8204 8.12783 19.7207C7.80883 19.5411 7.62118 19.2618 7.56489 18.8828L4.6939 2.60349C4.67514 2.52369 4.63761 2.45885 4.58131 2.40898C4.52502 2.3591 4.45934 2.33417 4.38428 2.33417H1.51329C1.23182 2.33417 0.992571 2.22444 0.795541 2.00499C0.598512 1.78554 0.5 1.52619 0.5 1.22693V1.07731C0.5 0.778051 0.598512 0.523689 0.795541 0.314212C0.992571 0.104735 1.23182 0 1.51329 0H5.62275C5.88546 0 6.11063 0.0847875 6.29828 0.254363C6.48593 0.423938 6.59851 0.648378 6.63604 0.927679L7.53675 5.83541C7.55551 5.95511 7.60711 6.05486 7.69156 6.13466C7.776 6.21446 7.87451 6.25436 7.9871 6.25436H23.4961C23.8151 6.25436 24.0731 6.37906 24.2701 6.62844Z" fill="#FCFCFC"/>
</svg>
