<svg width="24" height="24" viewBox="0 0 24 24" fill="none" xmlns="http://www.w3.org/2000/svg">
<path fill-rule="evenodd" clip-rule="evenodd" d="M12.0004 21.6004C17.3023 21.6004 21.6004 17.3023 21.6004 12.0004C21.6004 6.69846 17.3023 2.40039 12.0004 2.40039C6.69846 2.40039 2.40039 6.69846 2.40039 12.0004C2.40039 17.3023 6.69846 21.6004 12.0004 21.6004ZM16.6283 9.82975C16.9206 9.42776 16.8317 8.86488 16.4297 8.57253C16.0278 8.28017 15.4649 8.36905 15.1725 8.77104L10.992 14.5192L8.73679 12.264C8.38531 11.9125 7.81547 11.9125 7.46399 12.264C7.11252 12.6155 7.11252 13.1853 7.46399 13.5368L10.464 16.5368C10.6501 16.7229 10.9084 16.8182 11.1708 16.7976C11.4332 16.777 11.6734 16.6426 11.8283 16.4297L16.6283 9.82975Z" fill="#0B7B69"/>
</svg>
