<svg width="25" height="25" viewBox="0 0 25 25" fill="none" xmlns="http://www.w3.org/2000/svg">
<path d="M12.5 15.5C14.1569 15.5 15.5 14.1568 15.5 12.5C15.5 10.8431 14.1569 9.49998 12.5 9.49998C10.8431 9.49998 9.5 10.8431 9.5 12.5C9.5 14.1568 10.8431 15.5 12.5 15.5Z" fill="#151C71"/>
<path fill-rule="evenodd" clip-rule="evenodd" d="M1.29711 13.2084C1.12087 12.7505 1.12102 12.2427 1.29753 11.7849C3.03054 7.28943 7.39195 4.09998 12.4983 4.09998C17.6072 4.09998 21.9704 7.29258 23.7016 11.7915C23.8779 12.2495 23.8777 12.7572 23.7012 13.2151C21.9682 17.7105 17.6068 20.9 12.5004 20.9C7.39157 20.9 3.02837 17.7074 1.29711 13.2084ZM17.3004 12.5C17.3004 15.1509 15.1514 17.3 12.5004 17.3C9.84948 17.3 7.70045 15.1509 7.70045 12.5C7.70045 9.84901 9.84948 7.69998 12.5004 7.69998C15.1514 7.69998 17.3004 9.84901 17.3004 12.5Z" fill="#151C71"/>
</svg>
