<svg width="25" height="25" viewBox="0 0 25 25" fill="none" xmlns="http://www.w3.org/2000/svg">
<g clip-path="url(#clip0_20_157)">
<path fill-rule="evenodd" clip-rule="evenodd" d="M4.6864 3.16363C4.33492 2.81216 3.76508 2.81216 3.4136 3.16363C3.06213 3.5151 3.06213 4.08495 3.4136 4.43642L20.8136 21.8364C21.1651 22.1879 21.7349 22.1879 22.0864 21.8364C22.4379 21.4849 22.4379 20.9151 22.0864 20.5636L19.9922 18.4694C21.7577 17.1313 23.1414 15.3158 23.9512 13.2151C24.1277 12.7573 24.1279 12.2495 23.9516 11.7916C22.2204 7.29263 17.8572 4.10002 12.7483 4.10002C10.6885 4.10002 8.74988 4.61901 7.05612 5.53335L4.6864 3.16363ZM10.0523 8.52955L11.3624 9.83964C11.7774 9.6227 12.2495 9.50002 12.7502 9.50002C14.4071 9.50002 15.7502 10.8432 15.7502 12.5C15.7502 13.0008 15.6275 13.4728 15.4106 13.8878L16.7209 15.1981C17.2444 14.4292 17.5504 13.5004 17.5504 12.5C17.5504 9.84906 15.4014 7.70002 12.7504 7.70002C11.7501 7.70002 10.8212 8.00604 10.0523 8.52955Z" fill="#151C71"/>
<path d="M13.6481 17.2162L16.6753 20.2435C15.4455 20.6689 14.125 20.9 12.7504 20.9C7.64157 20.9 3.27837 17.7074 1.54711 13.2085C1.37087 12.7505 1.37102 12.2428 1.54753 11.7849C2.13724 10.2552 3.0313 8.87671 4.15549 7.72365L8.03423 11.6024C7.97923 11.8932 7.95045 12.1932 7.95045 12.5C7.95045 15.151 10.0995 17.3 12.7504 17.3C13.0572 17.3 13.3573 17.2712 13.6481 17.2162Z" fill="#151C71"/>
</g>
<defs>
<clipPath id="clip0_20_157">
<rect width="24" height="24" fill="white" transform="translate(0.75 0.5)"/>
</clipPath>
</defs>
</svg>
