<svg width="75" height="76" viewBox="0 0 75 76" fill="none" xmlns="http://www.w3.org/2000/svg">
<path d="M0.5 6.5C0.5 3.46243 2.96243 1 6 1H69C72.0376 1 74.5 3.46243 74.5 6.5V69.5C74.5 72.5376 72.0376 75 69 75H6C2.96243 75 0.5 72.5376 0.5 69.5V6.5Z" stroke="#828F9B"/>
<path fill-rule="evenodd" clip-rule="evenodd" d="M30.8498 69.5V40.8H21.0498V29.6H30.8498V21.2C30.8498 11.75 36.7998 6.5 45.1998 6.5C49.0498 6.5 52.5498 6.85001 53.9498 6.85001V17H47.9998C43.4498 17 42.3998 19.45 42.3998 22.6V29.6H53.5998L52.1998 40.8H42.3998V69.5H30.8498Z" fill="#2F36F3"/>
</svg>
