<svg width="76" height="76" viewBox="0 0 76 76" fill="none" xmlns="http://www.w3.org/2000/svg">
<path d="M38 76C58.9868 76 76 58.9868 76 38C76 17.0132 58.9868 0 38 0C17.0132 0 0 17.0132 0 38C0 58.9868 17.0132 76 38 76Z" fill="#00053C"/>
<path d="M38 71.9286C56.7382 71.9286 71.9286 56.7382 71.9286 38C71.9286 19.2618 56.7382 4.07141 38 4.07141C19.2618 4.07141 4.07143 19.2618 4.07143 38C4.07143 56.7382 19.2618 71.9286 38 71.9286Z" fill="url(#paint0_angular_1_204)"/>
<path fill-rule="evenodd" clip-rule="evenodd" d="M14.9286 38L31.9038 21.4515C35.2568 18.1828 40.7432 18.1828 44.0965 21.4515L61.0714 38H14.9286Z" fill="#00053C" stroke="#00053C" stroke-linejoin="round"/>
<path fill-rule="evenodd" clip-rule="evenodd" d="M14.9286 38L31.4045 21.4515C34.6589 18.1828 39.984 18.1828 43.2386 21.4515L59.7143 38H14.9286Z" fill="#FFFF7D"/>
<path fill-rule="evenodd" clip-rule="evenodd" d="M39.2247 57C27.4729 57 16.4507 47.7592 13.5714 38C32.0976 38 43.2027 38 62.4286 38C58.0589 50.4223 47.803 57 39.2247 57Z" fill="#00053C"/>
<path fill-rule="evenodd" clip-rule="evenodd" d="M14.4965 21.0718L13.1409 20.0196L13.613 19.4265C13.7079 19.307 13.7923 19.2259 13.8655 19.1829C13.9394 19.1394 14.0219 19.1231 14.1126 19.134C14.2038 19.1449 14.2868 19.1794 14.3611 19.2368C14.4574 19.3114 14.5138 19.4051 14.5312 19.5179C14.5482 19.6307 14.5142 19.7574 14.4303 19.9001C14.4904 19.8706 14.5413 19.8529 14.5825 19.8453C14.6718 19.8308 14.7709 19.8285 14.8796 19.8389L15.4332 19.8936L15.2568 20.1156L14.8341 20.0735C14.7113 20.0613 14.6154 20.0558 14.5453 20.0558C14.4756 20.0558 14.4215 20.0625 14.3835 20.0753C14.3455 20.0884 14.312 20.1061 14.2831 20.1282C14.2633 20.145 14.235 20.1762 14.1987 20.222L14.0355 20.4271L14.6374 20.8943L14.4965 21.0718ZM13.8804 20.3067L14.1829 19.9263C14.2475 19.8453 14.2888 19.7755 14.3081 19.7168C14.3274 19.6583 14.3283 19.6026 14.309 19.5501C14.2906 19.4976 14.2596 19.4546 14.216 19.4207C14.1519 19.3709 14.0808 19.3523 14.0029 19.3664C13.9255 19.3799 13.847 19.4361 13.7686 19.5347L13.4318 19.9581L13.8804 20.3067ZM15.5709 19.7217L14.2678 18.6066L14.7683 18.0366C14.8692 17.9216 14.9571 17.8445 15.0328 17.8047C15.1084 17.7653 15.1919 17.7527 15.2823 17.7676C15.3725 17.783 15.4536 17.821 15.5252 17.8821C15.6177 17.9613 15.6695 18.0578 15.6811 18.1715C15.6925 18.2847 15.6531 18.4096 15.562 18.5481C15.6233 18.5214 15.6752 18.506 15.7169 18.5007C15.8067 18.4908 15.9063 18.493 16.0139 18.5083L16.5641 18.5893L16.3776 18.8021L15.9573 18.7406C15.8353 18.7224 15.74 18.7125 15.6698 18.7088C15.6001 18.7056 15.546 18.7098 15.5071 18.7211C15.4686 18.7319 15.4341 18.7482 15.4045 18.769C15.3839 18.7849 15.3541 18.8148 15.3156 18.8586L15.1424 19.0555L15.7214 19.5507L15.5715 19.7213L15.5709 19.7217ZM14.9928 18.928L15.3133 18.5626C15.3816 18.4843 15.4266 18.4173 15.4485 18.3594C15.4709 18.3018 15.4737 18.2461 15.4576 18.1931C15.4416 18.1397 15.4127 18.0949 15.3705 18.0587C15.3091 18.0062 15.239 17.9845 15.1605 17.9944C15.0821 18.0043 15.0015 18.0568 14.918 18.1519L14.5614 18.559L14.9928 18.928ZM16.7454 18.4109L15.4975 17.236L15.6556 17.0726L16.903 18.247L16.7454 18.4109ZM17.7689 16.4583L17.6291 16.3139L18.1576 15.8168L18.5982 16.2731C18.5784 16.4131 18.5413 16.5402 18.4863 16.6535C18.4308 16.7672 18.3579 16.8662 18.2672 16.9518C18.1448 17.0672 18.0086 17.1461 17.8578 17.1886C17.7084 17.2307 17.5599 17.227 17.4149 17.1773C17.2687 17.1275 17.1376 17.0419 17.0207 16.921C16.9051 16.8011 16.8228 16.6652 16.7727 16.5135C16.7233 16.3613 16.7219 16.216 16.7685 16.0757C16.8154 15.9357 16.9005 15.8072 17.0247 15.6899C17.115 15.6052 17.2103 15.5428 17.3112 15.503C17.4122 15.4632 17.508 15.45 17.5991 15.4623C17.6903 15.4749 17.787 15.5125 17.888 15.5755L17.7779 15.7557C17.6991 15.7109 17.628 15.6837 17.5658 15.6733C17.503 15.6638 17.4361 15.6719 17.3632 15.6991C17.2912 15.7263 17.2233 15.7693 17.1606 15.8285C17.0855 15.8997 17.0312 15.972 16.9979 16.0468C16.9648 16.121 16.9498 16.1926 16.9515 16.2618C16.9538 16.3307 16.9667 16.3963 16.9904 16.4578C17.0331 16.5637 17.0968 16.6616 17.183 16.7507C17.2893 16.8607 17.397 16.9349 17.507 16.9734C17.6166 17.0114 17.7257 17.0137 17.8334 16.981C17.9411 16.9479 18.036 16.8932 18.1181 16.8157C18.1896 16.7483 18.2465 16.669 18.2882 16.5781C18.329 16.4862 18.3523 16.4088 18.3579 16.3444L18.1346 16.1135L17.7689 16.4583ZM18.8893 16.3646L18.2604 14.65L18.4501 14.4879L20.1095 15.3209L19.9128 15.489L19.42 15.2277L18.8712 15.6971L19.072 16.2083L18.8893 16.3646ZM18.8008 15.5157L19.2449 15.1358L18.7957 14.8949C18.66 14.8215 18.5504 14.7587 18.467 14.7062C18.5225 14.8058 18.571 14.9081 18.6122 15.0154L18.8008 15.5157ZM20.2685 15.2214L19.2691 13.8342L19.8921 13.3968C20.0172 13.3086 20.1212 13.2543 20.2042 13.2333C20.2872 13.2126 20.3711 13.2202 20.4555 13.2555C20.5394 13.2912 20.6095 13.3473 20.6641 13.4235C20.7347 13.5222 20.7622 13.6277 20.7466 13.7408C20.731 13.8536 20.6618 13.9658 20.5403 14.079C20.6068 14.0677 20.6604 14.0645 20.7026 14.0691C20.7924 14.0804 20.8877 14.1057 20.9891 14.146L21.5043 14.3534L21.2719 14.5164L20.8781 14.358C20.7639 14.3122 20.6737 14.2802 20.6067 14.2606C20.5398 14.2411 20.4858 14.2325 20.4454 14.2344C20.4056 14.2362 20.368 14.2439 20.334 14.257C20.3102 14.2674 20.2739 14.2896 20.2263 14.3231L20.0109 14.4743L20.4545 15.0905L20.2685 15.2214ZM19.8967 14.3154L20.2955 14.0352C20.3808 13.9754 20.4403 13.9203 20.4757 13.869C20.5109 13.8183 20.5275 13.7654 20.5243 13.7097C20.5215 13.654 20.504 13.6042 20.472 13.5593C20.4243 13.4937 20.362 13.4562 20.2832 13.4475C20.2048 13.4389 20.114 13.471 20.01 13.5439L19.5659 13.8559L19.8967 14.3154ZM21.684 14.224L20.7534 12.7906L21.3966 12.3835C21.5262 12.3016 21.6327 12.2518 21.7166 12.235C21.8005 12.2182 21.884 12.2295 21.9665 12.2694C22.0486 12.3088 22.1155 12.3681 22.1668 12.4469C22.2327 12.5487 22.2548 12.6557 22.2337 12.7674C22.2126 12.8797 22.1379 12.9884 22.0113 13.0957C22.0777 13.0876 22.1318 13.0871 22.1736 13.0938C22.2624 13.1093 22.357 13.1392 22.4559 13.1839L22.9606 13.4153L22.7205 13.5674L22.3349 13.3909C22.223 13.3397 22.1341 13.3031 22.0686 13.2804C22.0026 13.2578 21.9495 13.2465 21.9087 13.2465C21.8688 13.2465 21.8313 13.2524 21.7964 13.2637C21.7721 13.2732 21.735 13.2932 21.6854 13.3247L21.463 13.4656L21.8765 14.1022L21.684 14.224ZM21.3563 13.3013L21.7688 13.0404C21.8569 12.9847 21.9187 12.9322 21.9568 12.8834C21.9943 12.8341 22.0132 12.782 22.0127 12.7263C22.0132 12.6706 21.998 12.6195 21.9682 12.5732C21.9241 12.5058 21.8633 12.465 21.7847 12.4528C21.7069 12.4406 21.6146 12.4687 21.5074 12.5362L21.0486 12.8268L21.3563 13.3013ZM23.1839 13.2918L22.3248 11.8164L22.5233 11.7036L23.3823 13.1795L23.1839 13.2918ZM24.7246 11.7031L24.6324 11.5252L25.2819 11.1969L25.5731 11.7582C25.5139 11.8872 25.442 11.9986 25.3563 12.0919C25.2705 12.1847 25.1721 12.2599 25.0607 12.3159C24.9098 12.3924 24.7562 12.4296 24.6005 12.4282C24.4445 12.4269 24.3035 12.3816 24.1787 12.2929C24.0531 12.2042 23.9519 12.085 23.8748 11.9365C23.7983 11.7889 23.758 11.6358 23.7543 11.476C23.7505 11.3167 23.7909 11.1763 23.8762 11.0554C23.961 10.9341 24.0797 10.8349 24.2328 10.7575C24.3438 10.7013 24.4534 10.6684 24.561 10.6587C24.6692 10.6488 24.765 10.6628 24.8489 10.7004C24.9329 10.7379 25.0144 10.8014 25.0937 10.8896L24.9361 11.0317C24.8733 10.9666 24.8132 10.9203 24.7559 10.8932C24.6986 10.8665 24.6321 10.8556 24.5547 10.8614C24.4778 10.8669 24.4002 10.8891 24.3228 10.9284C24.2302 10.9751 24.1577 11.0295 24.1041 11.0919C24.0509 11.1538 24.0156 11.2178 23.9983 11.2848C23.9803 11.3513 23.974 11.4179 23.9789 11.4835C23.989 11.5977 24.022 11.709 24.0789 11.8185C24.1491 11.9544 24.2311 12.0557 24.3256 12.1232C24.42 12.1902 24.5235 12.2233 24.6363 12.2219C24.7491 12.2205 24.8559 12.1947 24.9571 12.1436C25.0447 12.0992 25.1222 12.0386 25.1882 11.9634C25.2541 11.8869 25.2986 11.8194 25.322 11.7587L25.1748 11.4748L24.7247 11.7025L24.7246 11.7031ZM25.8242 11.9246L25.7165 10.1041L25.9452 10.0019L27.2947 11.2677L27.0581 11.3732L26.6611 10.9843L25.9996 11.2795L26.0445 11.8259L25.8242 11.9246ZM25.9846 11.0856L26.5196 10.8466L26.1588 10.4895C26.0496 10.3808 25.963 10.2898 25.8984 10.216C25.9231 10.3265 25.9396 10.4387 25.9483 10.5533L25.9846 11.0856ZM27.4721 11.2065L26.9197 9.5939L27.643 9.35212C27.7887 9.30374 27.9043 9.28102 27.9901 9.28467C28.0754 9.28835 28.1538 9.31903 28.2239 9.37702C28.294 9.43548 28.3445 9.50872 28.3752 9.59755C28.4141 9.712 28.4095 9.82115 28.3614 9.92449C28.3137 10.0281 28.2148 10.1165 28.0658 10.1902C28.1323 10.1978 28.185 10.2105 28.2234 10.2268C28.3064 10.2625 28.3903 10.3146 28.4756 10.3817L28.9088 10.7266L28.6388 10.8167L28.3078 10.5533C28.212 10.4773 28.1346 10.4206 28.0759 10.3826C28.0176 10.3451 27.9686 10.3216 27.9292 10.312C27.8903 10.3021 27.8527 10.2989 27.8164 10.3021C27.7903 10.3053 27.7495 10.3161 27.6935 10.3347L27.4432 10.4181L27.6889 11.1348L27.4721 11.2065ZM27.38 10.2331L27.8439 10.0782C27.943 10.045 28.0157 10.0093 28.0649 9.97042C28.1129 9.93196 28.1446 9.88571 28.1575 9.83138C28.1712 9.77749 28.1693 9.72454 28.1514 9.67248C28.1253 9.59649 28.0759 9.5426 28.0034 9.51178C27.9305 9.48141 27.8337 9.48644 27.7137 9.52673L27.197 9.69964L27.38 10.2331ZM29.116 10.6459L28.6448 9.00797L29.3801 8.80149C29.5277 8.76027 29.6446 8.74347 29.7298 8.75125C29.8146 8.75934 29.8911 8.79384 29.9585 8.85534C30.0254 8.91639 30.0722 8.99255 30.0983 9.08262C30.1319 9.1989 30.1212 9.30757 30.0685 9.40862C30.0154 9.50965 29.9121 9.59284 29.7596 9.65936C29.8256 9.6702 29.8774 9.68515 29.9156 9.70378C29.9962 9.74361 30.0778 9.79932 30.1599 9.87091L30.5748 10.2367L30.3007 10.3137L29.9834 10.0344C29.8913 9.95334 29.817 9.89274 29.7606 9.85245C29.7042 9.81169 29.6561 9.7859 29.6171 9.77415C29.5791 9.76286 29.5416 9.7578 29.5048 9.75873C29.4792 9.761 29.4374 9.76958 29.381 9.78545L29.1267 9.85703L29.3358 10.5841L29.116 10.6459ZM29.0729 9.66896L29.5436 9.53681C29.6441 9.50872 29.7191 9.47652 29.7695 9.43989C29.8199 9.40418 29.8534 9.35932 29.869 9.30588C29.8856 9.25248 29.8865 9.19997 29.8709 9.14701C29.8489 9.06964 29.8021 9.013 29.731 8.97898C29.66 8.9451 29.5632 8.94541 29.4408 8.97988L28.9164 9.12701L29.0729 9.66896ZM30.8226 10.1729L30.4348 8.51408L30.6581 8.4634L31.0455 10.1223L30.8226 10.1729ZM32.7635 9.08596L32.7278 8.88908L33.4462 8.76223L33.5585 9.38342C33.464 9.48982 33.3617 9.57541 33.2526 9.63966C33.1431 9.70395 33.0267 9.74699 32.9034 9.76909C32.7365 9.79857 32.5789 9.78986 32.4299 9.7433C32.2814 9.69706 32.1595 9.61298 32.0669 9.49209C31.973 9.3712 31.911 9.2282 31.8818 9.06382C31.852 8.90082 31.8589 8.7424 31.9023 8.58887C31.9459 8.43485 32.0261 8.31262 32.1434 8.22165C32.2602 8.13023 32.4038 8.0695 32.573 8.03975C32.6954 8.0185 32.8101 8.01805 32.9164 8.04019C33.0223 8.06185 33.1103 8.10262 33.1791 8.16291C33.2478 8.22317 33.3075 8.30728 33.357 8.41457L33.1639 8.50506C33.1231 8.42449 33.0796 8.36344 33.0329 8.3204C32.9866 8.27829 32.9256 8.24882 32.8499 8.23219C32.7748 8.21494 32.694 8.21404 32.6084 8.22943C32.5061 8.24713 32.4205 8.27829 32.3508 8.32271C32.2816 8.3662 32.2293 8.41778 32.1923 8.47669C32.1556 8.53515 32.13 8.59665 32.1158 8.6609C32.091 8.77277 32.0896 8.88908 32.1121 9.01042C32.1391 9.1603 32.1872 9.28116 32.2578 9.37306C32.3279 9.46447 32.4173 9.52614 32.5254 9.55682C32.6336 9.58808 32.7436 9.59435 32.8555 9.57452C32.9527 9.55727 33.0443 9.52201 33.1296 9.46857C33.2154 9.41472 33.2781 9.36314 33.3185 9.31201L33.2616 8.9982L32.7635 9.08596ZM33.7478 9.60168L34.1863 7.83002L34.4353 7.79872L35.349 9.40053L35.0914 9.43317L34.8275 8.94555L34.1076 9.03604L33.988 9.57114L33.7478 9.60168ZM34.1508 8.84649L34.7333 8.77308L34.4949 8.32712C34.4224 8.19128 34.3669 8.07896 34.3265 7.98982C34.3174 8.10307 34.3 8.2148 34.2742 8.32667L34.1508 8.84649ZM35.5359 9.40432L35.4048 7.70655L36.1665 7.64946C36.3203 7.63772 36.4374 7.64443 36.5197 7.66902C36.6016 7.69343 36.6696 7.74243 36.7229 7.81566C36.7763 7.88955 36.8066 7.97274 36.8139 8.06598C36.823 8.18687 36.7913 8.29141 36.7191 8.37976C36.6466 8.46846 36.5287 8.52964 36.3656 8.56446C36.4276 8.58842 36.4761 8.61328 36.5092 8.63862C36.5803 8.69389 36.6494 8.76454 36.7149 8.85045L37.0475 9.29049L36.7634 9.3117L36.5092 8.97578C36.4353 8.87841 36.3747 8.80469 36.3276 8.75338C36.2802 8.70273 36.2387 8.66823 36.2031 8.64885C36.1679 8.63022 36.132 8.61755 36.0961 8.61176C36.0703 8.60856 36.0278 8.60901 35.9689 8.61314L35.7053 8.63311L35.7635 9.38693L35.5359 9.40432ZM35.691 8.43916L36.1784 8.40204C36.283 8.39443 36.3628 8.37763 36.4196 8.35184C36.4765 8.3265 36.5183 8.28941 36.5448 8.23997C36.5713 8.19114 36.5828 8.13939 36.5783 8.08475C36.5723 8.00418 36.5385 7.93993 36.4754 7.89276C36.4127 7.84527 36.3182 7.82668 36.1909 7.83612L35.6474 7.87688L35.691 8.43916ZM37.2717 9.31428L37.2277 7.61238L37.9919 7.5933C38.1457 7.5892 38.2625 7.60139 38.343 7.63038C38.4239 7.65893 38.4891 7.71099 38.5389 7.78698C38.5884 7.86345 38.6146 7.94816 38.6167 8.04188C38.6198 8.16229 38.5828 8.26545 38.5058 8.35015C38.4287 8.43489 38.3081 8.49012 38.1436 8.51728C38.2046 8.544 38.2513 8.57162 38.2834 8.59834C38.3514 8.65725 38.4165 8.73097 38.4779 8.82025L38.7878 9.27658L38.5027 9.28329L38.2656 8.93518C38.1969 8.83382 38.1401 8.75769 38.0955 8.7038C38.0508 8.65085 38.0114 8.61421 37.9769 8.59331C37.9424 8.57299 37.9076 8.5585 37.872 8.55072C37.8462 8.54614 37.804 8.54476 37.7447 8.54614L37.4808 8.55254L37.5 9.30863L37.2717 9.31428ZM37.476 8.3581L37.9654 8.34543C38.0697 8.34316 38.1505 8.33049 38.2088 8.30742C38.2666 8.28483 38.3102 8.24989 38.3388 8.20196C38.3681 8.15451 38.382 8.1032 38.3806 8.04842C38.3789 7.96785 38.3475 7.90174 38.2876 7.85154C38.2269 7.80134 38.1335 7.77768 38.0062 7.78089L37.4617 7.79445L37.476 8.3581ZM39.0441 9.32375L39.0869 7.62185L39.3163 7.6278L39.2721 9.32971L39.0441 9.32375ZM41.2289 8.80851L41.2543 8.61025L41.9781 8.70118L41.8979 9.3274C41.7752 9.40081 41.6525 9.45242 41.528 9.48186C41.4043 9.51085 41.2801 9.51757 41.1557 9.50187C40.988 9.4811 40.8398 9.42677 40.7115 9.33838C40.5843 9.25065 40.4936 9.13372 40.4414 8.99117C40.388 8.84817 40.3723 8.69371 40.3936 8.52796C40.4145 8.36358 40.4692 8.21418 40.5571 8.08062C40.6453 7.94664 40.7583 7.85385 40.8981 7.80134C41.0375 7.74883 41.1923 7.73296 41.3631 7.75417C41.4865 7.76959 41.596 7.80347 41.6905 7.8555C41.7853 7.90756 41.8568 7.97226 41.9038 8.05025C41.9519 8.1281 41.9833 8.22592 41.998 8.34316L41.7863 8.3726C41.7717 8.28346 41.7483 8.21191 41.7166 8.15757C41.6852 8.10369 41.6361 8.05744 41.5691 8.01943C41.5022 7.98097 41.4259 7.95611 41.3394 7.94527C41.2366 7.93259 41.1452 7.93717 41.0654 7.95883C40.9863 7.98004 40.9207 8.01317 40.8674 8.05896C40.8147 8.10382 40.7715 8.15496 40.738 8.21204C40.6816 8.31172 40.6449 8.42253 40.6289 8.54476C40.6097 8.69554 40.6198 8.82497 40.6592 8.93364C40.6983 9.04141 40.7652 9.12701 40.8587 9.18854C40.9524 9.25003 41.056 9.28818 41.1686 9.30223C41.2665 9.31445 41.3649 9.30774 41.4621 9.28195C41.5604 9.25612 41.6361 9.22531 41.6894 9.18867L41.7302 8.87183L41.2285 8.80896L41.2289 8.80851ZM42.0168 9.56274L42.971 8.00129L43.2178 8.04522L43.6055 9.84312L43.3503 9.79826L43.2457 9.25492L42.531 9.129L42.2552 9.60489L42.0168 9.56274ZM42.6297 8.96066L43.2077 9.06293L43.1149 8.56673C43.0871 8.41595 43.0679 8.29231 43.0564 8.19555C43.0131 8.30057 42.9629 8.40252 42.9047 8.50158L42.6297 8.96066ZM43.7888 9.87425L44.1762 8.21494L44.9208 8.38465C45.0704 8.41901 45.1805 8.4593 45.2517 8.50737C45.3228 8.55454 45.3726 8.62154 45.4016 8.70745C45.4305 8.79308 45.434 8.88219 45.4131 8.97316C45.3855 9.09085 45.3231 9.18103 45.2273 9.24438C45.1317 9.30774 45.001 9.33139 44.8347 9.31686C44.8867 9.35808 44.9254 9.39609 44.9498 9.43011C45.0007 9.50355 45.0449 9.59129 45.0815 9.69279L45.2667 10.2112L44.9888 10.1479L44.8473 9.75171C44.8061 9.63722 44.7709 9.54887 44.7409 9.48644C44.7109 9.42402 44.6824 9.3787 44.6538 9.34968C44.6259 9.32161 44.5952 9.29903 44.5628 9.28271C44.5394 9.27231 44.4986 9.26012 44.4411 9.24697L44.1835 9.18854L44.0116 9.92507L43.7888 9.87425ZM44.2281 8.9982L44.7054 9.10686C44.8072 9.12993 44.8881 9.13723 44.9505 9.12945C45.0122 9.12229 45.0634 9.09863 45.1031 9.05973C45.1439 9.02078 45.1701 8.97454 45.1823 8.92114C45.2008 8.84284 45.1875 8.77125 45.1422 8.70745C45.0962 8.64365 45.0115 8.59834 44.8877 8.56979L44.3564 8.4489L44.2281 8.9982ZM45.4793 10.2731L45.9507 8.63556L46.6856 8.8416C46.8334 8.88326 46.9411 8.92937 47.0094 8.98019C47.0781 9.03132 47.1245 9.10015 47.1492 9.18805C47.1736 9.27506 47.1726 9.36373 47.1471 9.45376C47.1133 9.56963 47.0471 9.65709 46.9481 9.71552C46.8491 9.77398 46.7176 9.79109 46.552 9.76847C46.6026 9.81244 46.6381 9.85228 46.6612 9.88709C46.7086 9.96308 46.7483 10.0528 46.7797 10.156L46.9383 10.6825L46.6636 10.6056L46.5426 10.2031C46.5074 10.0869 46.4764 9.9971 46.4499 9.93285C46.423 9.86905 46.3965 9.82236 46.37 9.79244C46.3436 9.76255 46.3139 9.73903 46.2825 9.72085C46.2595 9.70911 46.2191 9.69506 46.1626 9.67874L45.9085 9.60764L45.6993 10.3352L45.4793 10.2731ZM45.9625 9.42006L46.4338 9.55224C46.5342 9.5803 46.6148 9.5916 46.6772 9.58702C46.7396 9.58244 46.7915 9.56167 46.8337 9.52459C46.8763 9.48796 46.9048 9.44309 46.9198 9.39013C46.9418 9.31277 46.9327 9.24073 46.8898 9.17462C46.8477 9.109 46.7654 9.05924 46.643 9.02474L46.1183 8.87761L45.9625 9.42006ZM47.1761 10.7801L47.7286 9.16746L47.9451 9.24042L47.3929 10.853L47.1761 10.7801ZM49.3968 10.8842L49.4714 10.6986L50.1502 10.9629L49.9156 11.5496C49.7789 11.5913 49.6464 11.6111 49.5188 11.6094C49.3912 11.6071 49.2696 11.5836 49.1531 11.5383C48.9955 11.4773 48.8655 11.3884 48.7637 11.2712C48.6616 11.1549 48.603 11.0205 48.588 10.8692C48.5723 10.7175 48.5957 10.5641 48.6577 10.4087C48.7191 10.2548 48.809 10.1235 48.9276 10.0148C49.0464 9.90706 49.18 9.84419 49.3278 9.82739C49.4763 9.81017 49.6304 9.8329 49.79 9.89487C49.9058 9.94019 50.0034 9.99941 50.0825 10.0733C50.1613 10.1467 50.214 10.2273 50.2408 10.3137C50.2677 10.4006 50.2736 10.5034 50.2586 10.6206L50.0463 10.5971C50.0543 10.5075 50.0501 10.4327 50.033 10.3726C50.0156 10.3123 49.9794 10.2558 49.9239 10.2019C49.8688 10.149 49.8012 10.1064 49.72 10.0746C49.6231 10.0371 49.5338 10.0189 49.4508 10.0208C49.3693 10.0221 49.2967 10.0385 49.234 10.0696C49.1719 10.1 49.1172 10.1394 49.0708 10.1868C48.9907 10.2693 48.9279 10.3675 48.8819 10.4825C48.8258 10.6238 48.8027 10.7514 48.8143 10.8665C48.8251 10.9806 48.8686 11.0797 48.9439 11.1621C49.0196 11.2445 49.1099 11.3065 49.2155 11.3477C49.3072 11.3838 49.4041 11.4007 49.5056 11.3997C49.6067 11.3983 49.6879 11.3871 49.7493 11.3645L49.8674 11.0675L49.3968 10.8842ZM49.964 11.8295L51.3383 10.612L51.5614 10.7248L51.4007 12.5562L51.1696 12.4394L51.2302 11.8902L50.5842 11.5633L50.1795 11.9387L49.964 11.8295ZM50.7282 11.4307L51.2508 11.695L51.309 11.1938C51.3268 11.0417 51.3453 10.9181 51.363 10.8217C51.2905 10.91 51.2121 10.9928 51.127 11.0708L50.7282 11.4307ZM51.5719 12.6291L52.4316 11.1532L53.094 11.5295C53.2268 11.605 53.3202 11.6757 53.3742 11.7417C53.4279 11.8074 53.4562 11.8857 53.4586 11.9763C53.4611 12.0664 53.4384 12.1529 53.3913 12.234C53.33 12.3385 53.2442 12.4069 53.1337 12.44C53.0235 12.4731 52.8911 12.4586 52.7366 12.3965C52.7746 12.4508 52.7997 12.4983 52.8133 12.5378C52.8402 12.623 52.8569 12.7195 52.8621 12.8272L52.8865 13.3764L52.6394 13.2355L52.6205 12.8162C52.6149 12.6944 52.6066 12.5998 52.5972 12.5314C52.5871 12.4635 52.5724 12.4115 52.5536 12.3762C52.5351 12.341 52.5128 12.3106 52.4863 12.2857C52.4668 12.2689 52.4316 12.2459 52.3807 12.2164L52.1516 12.0865L51.7699 12.7421L51.5719 12.6291ZM52.2503 11.917L52.6749 12.1583C52.7652 12.2098 52.8409 12.2402 52.9026 12.2506C52.9639 12.261 53.0194 12.2534 53.0696 12.2276C53.1194 12.2022 53.1585 12.1656 53.1863 12.118C53.2268 12.0478 53.2348 11.9759 53.2101 11.9015C53.1853 11.8277 53.1177 11.7595 53.0072 11.6969L52.5344 11.4284L52.2503 11.917ZM53.0772 13.4884L54.0077 12.0549L54.6509 12.462C54.7803 12.5444 54.8702 12.619 54.9211 12.6874C54.9713 12.7558 54.9957 12.8355 54.994 12.926C54.9915 13.016 54.965 13.1012 54.9138 13.1799C54.8479 13.2817 54.7586 13.3461 54.6464 13.3737C54.5352 13.4014 54.4037 13.3802 54.2524 13.3113C54.2876 13.3675 54.3106 13.4159 54.3222 13.4562C54.3448 13.5423 54.3567 13.6395 54.3567 13.7472L54.3546 14.2968L54.1144 14.1446L54.1161 13.7249C54.1165 13.6032 54.113 13.5081 54.1067 13.4392C54.0997 13.3709 54.0879 13.3183 54.0708 13.2822C54.0544 13.246 54.0335 13.2147 54.0081 13.1885C53.9892 13.1703 53.9554 13.1459 53.9056 13.1143L53.6835 12.9739L53.27 13.6105L53.0772 13.4884ZM53.7898 12.8096L54.2019 13.0705C54.2897 13.1262 54.364 13.1605 54.425 13.1737C54.486 13.1868 54.5418 13.1822 54.593 13.1587C54.6443 13.1352 54.6844 13.1007 54.7147 13.0541C54.759 12.9867 54.7708 12.9151 54.7492 12.8396C54.728 12.765 54.6638 12.6934 54.5564 12.6259L54.0976 12.3353L53.7898 12.8096ZM54.5575 14.4508L55.5563 13.0632L55.7428 13.194L54.744 14.5816L54.5575 14.4508ZM56.6583 15.1752L56.6585 15.1749L57.0564 15.483L56.8563 15.7338C56.7915 15.7379 56.7106 15.7266 56.6126 15.699C56.5154 15.6714 56.4278 15.6275 56.3498 15.5673C56.2609 15.498 56.1922 15.4129 56.1437 15.3124C56.0956 15.212 56.0827 15.1051 56.105 14.9923C56.128 14.8792 56.1866 14.7632 56.2814 14.6437C56.3592 14.5468 56.4474 14.4704 56.5485 14.4137C56.6067 14.3815 56.6701 14.3594 56.7392 14.3477C56.8082 14.3359 56.8818 14.3405 56.9609 14.3621C57.0407 14.3844 57.1213 14.4265 57.2025 14.4899C57.2712 14.5433 57.3238 14.6036 57.3611 14.6701C57.3991 14.7371 57.4169 14.8015 57.4158 14.864C57.4145 14.927 57.3977 14.9998 57.3639 15.0836L57.5605 15.1656C57.6093 15.0573 57.633 14.9577 57.6323 14.8667C57.632 14.7761 57.6045 14.6842 57.5504 14.5914C57.4964 14.4986 57.4204 14.4139 57.3221 14.3379C57.1871 14.2333 57.0463 14.1682 56.8992 14.1424C56.7521 14.1166 56.606 14.1392 56.4613 14.2089C56.3159 14.2796 56.1922 14.3797 56.0883 14.51C55.9837 14.6414 55.9168 14.7817 55.8878 14.9316C55.8582 15.0805 55.876 15.2263 55.9398 15.3663C56.0039 15.5076 56.1019 15.6294 56.2354 15.7325C56.3337 15.809 56.4439 15.8661 56.5652 15.9041C56.6869 15.9421 56.8194 15.9603 56.9626 15.9593L57.3573 15.4632L56.7834 15.0181L56.6585 15.1749L56.6583 15.1747V15.1752ZM56.9347 16.2328L58.6029 15.4514L58.7845 15.622L58.103 17.3329L57.9151 17.1559L58.1312 16.6466L57.6062 16.1518L57.1101 16.3981L56.9347 16.2328ZM57.7819 16.0648L58.2072 16.465L58.4073 16.0009C58.4683 15.86 58.5213 15.7465 58.5656 15.6594C58.4711 15.7237 58.3721 15.7808 58.2682 15.8314L57.7819 16.0648ZM58.2494 17.4476L59.4968 16.2734L60.0239 16.8194C60.1302 16.9294 60.1996 17.0231 60.232 17.1014C60.2652 17.1797 60.2697 17.2626 60.246 17.3501C60.2223 17.4375 60.1759 17.5135 60.1076 17.5782C60.0187 17.6616 59.9169 17.7032 59.8011 17.7041C59.6861 17.7046 59.5637 17.6535 59.4326 17.551C59.4536 17.6139 59.4644 17.666 59.4658 17.7076C59.4675 17.7968 59.4556 17.8941 59.4298 17.9987L59.2956 18.532L59.099 18.3282L59.2011 17.9207C59.2311 17.8026 59.2503 17.7098 59.2604 17.6414C59.2705 17.573 59.2716 17.5191 59.2639 17.4798C59.2566 17.4409 59.2433 17.4059 59.2252 17.3743C59.2116 17.3526 59.1844 17.3204 59.1436 17.2783L58.9613 17.0895L58.407 17.6115L58.2494 17.4476ZM59.1039 16.9554L59.4417 17.3053C59.5139 17.38 59.5773 17.4303 59.6338 17.4575C59.6892 17.4851 59.7454 17.4932 59.8008 17.4824C59.8559 17.4715 59.904 17.4476 59.9437 17.4099C60.003 17.3542 60.0319 17.2871 60.0291 17.2093C60.0263 17.1315 59.981 17.0468 59.8935 16.9563L59.517 16.5665L59.1039 16.9554ZM59.4483 18.6916L60.7515 17.5765L61.2514 18.1471C61.3525 18.262 61.417 18.3589 61.4459 18.4386C61.4749 18.5182 61.4756 18.6011 61.4477 18.6876C61.4198 18.7737 61.3699 18.8474 61.2985 18.9086C61.2057 18.9878 61.1015 19.0249 60.9865 19.02C60.8711 19.0155 60.7515 18.9585 60.6256 18.8499C60.6438 18.9137 60.6514 18.9666 60.6511 19.0083C60.6486 19.0974 60.6315 19.1939 60.6012 19.2977L60.4416 19.8238L60.255 19.611L60.3764 19.209C60.4119 19.0922 60.4356 19.0002 60.4496 18.9324C60.4628 18.865 60.466 18.8116 60.4604 18.7717C60.4545 18.7324 60.4433 18.6967 60.4269 18.6644C60.414 18.6418 60.3886 18.6083 60.3499 18.5648L60.1773 18.3674L59.5982 18.8622L59.4483 18.6921V18.6916ZM60.3262 18.2394L60.6469 18.6048C60.7149 18.6826 60.7762 18.736 60.8313 18.7659C60.8857 18.7959 60.9408 18.8071 60.9966 18.7986C61.052 18.7905 61.1012 18.7687 61.1433 18.7325C61.2047 18.68 61.2368 18.6148 61.2378 18.5365C61.2385 18.4587 61.1974 18.3722 61.114 18.2775L60.7574 17.8705L60.3262 18.2394ZM60.5953 20.0263L61.9507 18.9741L62.0919 19.1521L60.7368 20.2038L60.5953 20.0263ZM62.4057 21.3053L62.5703 21.1894L62.9935 21.777L62.4726 22.1424C62.3353 22.1035 62.2133 22.0492 62.1073 21.979C62.002 21.9083 61.9124 21.8228 61.8402 21.7222C61.7423 21.5859 61.6827 21.4416 61.6614 21.2885C61.6401 21.1363 61.6652 20.9915 61.7363 20.8566C61.8068 20.7212 61.9114 20.6049 62.0494 20.5084C62.1861 20.4124 62.3335 20.3509 62.4929 20.3242C62.6518 20.2975 62.7982 20.3166 62.9321 20.3822C63.0656 20.4478 63.1824 20.5502 63.2818 20.6882C63.354 20.7883 63.4028 20.8906 63.4286 20.9947C63.4537 21.0988 63.4537 21.1948 63.4279 21.2818C63.4024 21.3692 63.3505 21.4583 63.2734 21.5484L63.1085 21.4149C63.1643 21.3438 63.202 21.2786 63.2211 21.2189C63.24 21.1591 63.241 21.0921 63.2239 21.0174C63.2075 20.9432 63.1741 20.8708 63.1235 20.801C63.0632 20.7172 62.9984 20.6539 62.9283 20.6108C62.8582 20.5678 62.7888 20.5424 62.7191 20.5348C62.6501 20.5272 62.5825 20.5303 62.5176 20.5448C62.4047 20.571 62.298 20.6194 62.1958 20.691C62.0707 20.7792 61.9807 20.8738 61.9267 20.9762C61.873 21.0776 61.8552 21.1841 61.8727 21.2935C61.8901 21.404 61.9319 21.5044 61.9975 21.596C62.0546 21.6757 62.1261 21.7422 62.2115 21.7956C62.2976 21.8491 62.3719 21.8831 62.4357 21.8974L62.6989 21.7123L62.4057 21.3053ZM62.3398 22.4141L64.1478 22.045L64.2834 22.2534L63.2107 23.756L63.0705 23.54L63.4028 23.0954L63.0113 22.4919L62.4705 22.6151L62.3398 22.4141ZM63.2034 22.4489L63.5202 22.9374L63.826 22.5331C63.9191 22.4104 63.9979 22.3126 64.0624 22.2389C63.955 22.2787 63.8448 22.3114 63.7315 22.3363L63.2034 22.4489ZM63.2891 23.9247L64.8238 23.1488L65.172 23.8202C65.2421 23.9556 65.2815 24.0651 65.2902 24.1494C65.2989 24.2337 65.2798 24.3142 65.2313 24.3916C65.1835 24.4685 65.1173 24.5288 65.0333 24.571C64.9245 24.6262 64.8143 24.6375 64.7035 24.6057C64.593 24.574 64.4901 24.4908 64.3946 24.3559C64.3963 24.422 64.3918 24.475 64.3807 24.5152C64.3569 24.6013 64.3176 24.6914 64.2625 24.7846L63.9808 25.2582L63.8504 25.0075L64.0658 24.6457C64.1283 24.5407 64.1736 24.457 64.2036 24.3945C64.2325 24.3316 64.2489 24.2804 64.2531 24.2405C64.2565 24.2012 64.2545 24.164 64.2461 24.1286C64.2395 24.1038 64.2224 24.0653 64.1952 24.0133L64.0753 23.7814L63.3937 24.1259L63.2891 23.9247ZM64.2506 23.692L64.4737 24.1225C64.5215 24.2144 64.5682 24.2805 64.6142 24.3226C64.6602 24.3643 64.7108 24.3878 64.7669 24.3928C64.8234 24.3983 64.876 24.3887 64.9256 24.3634C64.9981 24.3268 65.0444 24.2711 65.0643 24.195C65.0845 24.1199 65.0653 24.0262 65.0071 23.9148L64.7586 23.4354L64.2506 23.692ZM64.0857 25.4513L65.657 24.7495L65.9714 25.4372C66.0345 25.5758 66.0687 25.6871 66.0739 25.7713C66.0784 25.856 66.0547 25.9357 66.0032 26.0104C65.9512 26.085 65.8822 26.1421 65.7961 26.1805C65.6845 26.2303 65.574 26.2362 65.4649 26.1991C65.3558 26.1625 65.2578 26.0741 65.1682 25.9348C65.1668 26.0009 65.1598 26.0538 65.1473 26.0932C65.119 26.1784 65.0755 26.2661 65.0158 26.3566L64.7108 26.8162L64.5933 26.5595L64.8265 26.2081C64.8938 26.1063 64.9433 26.0248 64.9761 25.9636C65.0082 25.9026 65.0267 25.8522 65.0329 25.8124C65.0389 25.7735 65.0385 25.7359 65.0319 25.7001C65.026 25.6752 65.0113 25.6358 64.9866 25.5828L64.8778 25.3452L64.1802 25.6572L64.0857 25.4513ZM65.058 25.2652L65.2592 25.7057C65.3021 25.7999 65.3456 25.8683 65.3892 25.9122C65.4332 25.9562 65.4827 25.9824 65.5388 25.99C65.5946 25.9977 65.6472 25.991 65.6981 25.9679C65.7724 25.9353 65.8219 25.8814 65.8456 25.8068C65.8689 25.7326 65.8543 25.6379 65.802 25.5238L65.5775 25.0329L65.058 25.2652ZM64.8039 27.0512L66.4079 26.4268L66.4919 26.6373L64.8879 27.2617L64.8039 27.0512ZM66.1733 28.7884L66.365 28.7241L66.5986 29.4068L65.9934 29.6092C65.8735 29.5327 65.7727 29.4457 65.6915 29.3484C65.611 29.251 65.5503 29.1437 65.5098 29.0265C65.4558 28.8681 65.4405 28.7131 65.4649 28.5607C65.4893 28.4085 65.5552 28.2773 65.6625 28.1681C65.7699 28.0585 65.9034 27.977 66.0642 27.9236C66.2228 27.8707 66.3825 27.8534 66.5428 27.873C66.7028 27.893 66.8374 27.9531 66.9462 28.0537C67.0546 28.1547 67.1372 28.2855 67.1923 28.4462C67.232 28.5625 67.2491 28.6744 67.2432 28.7812C67.2369 28.8885 67.2087 28.9799 67.1592 29.0561C67.1093 29.133 67.0337 29.2037 66.9336 29.2675L66.8147 29.0927C66.889 29.0411 66.9441 28.9891 66.9796 28.937C67.0149 28.8855 67.0354 28.8217 67.041 28.7455C67.0466 28.6695 67.0354 28.5906 67.0079 28.5088C66.9744 28.4118 66.9305 28.3331 66.8761 28.2716C66.8217 28.2106 66.7628 28.1671 66.698 28.1394C66.6345 28.1123 66.5683 28.0964 66.5017 28.092C66.3863 28.0853 66.2698 28.101 66.1517 28.1403C66.0056 28.1892 65.8923 28.2548 65.8107 28.3372C65.7295 28.4192 65.681 28.5157 65.6657 28.6261C65.6507 28.7366 65.6612 28.8444 65.6974 28.9508C65.7291 29.0431 65.7786 29.1274 65.8445 29.2029C65.9111 29.2785 65.9725 29.3319 66.0293 29.3641L66.3354 29.2618L66.1733 28.7884ZM65.7943 29.8293L67.6333 29.9927L67.7016 30.2308L66.235 31.3627L66.1639 31.1159L66.6122 30.7854L66.4138 30.0959L65.8602 30.0593L65.7943 29.8293ZM66.6105 30.1095L66.7712 30.6678L67.1811 30.368C67.3063 30.2771 67.4109 30.2059 67.4939 30.1534C67.3792 30.1611 67.2648 30.1611 67.1487 30.1525L66.6105 30.1095ZM66.2807 31.5425L67.9774 31.2432L68.1113 31.9861C68.1385 32.1356 68.1441 32.2514 68.1273 32.3347C68.1109 32.4176 68.0687 32.4892 68.0001 32.5493C67.931 32.6091 67.8502 32.6476 67.7571 32.6638C67.6365 32.685 67.528 32.6642 67.4315 32.6018C67.3349 32.5394 67.2613 32.4303 67.2097 32.2731C67.192 32.3373 67.1717 32.3868 67.1494 32.422C67.101 32.4976 67.0368 32.5719 66.9566 32.6452L66.5467 33.0168L66.4968 32.7398L66.8099 32.4555C66.9005 32.373 66.9685 32.306 67.0152 32.2549C67.0616 32.2033 67.0923 32.1589 67.1083 32.1218C67.1236 32.0856 67.1327 32.0489 67.1348 32.0132C67.1358 31.9874 67.1306 31.9457 67.1201 31.8886L67.0738 31.6314L66.32 31.7645L66.2803 31.5422L66.2807 31.5425ZM67.269 31.5973L67.3548 32.0736C67.3729 32.1749 67.3983 32.252 67.4294 32.3054C67.4611 32.3584 67.5029 32.3959 67.5552 32.4168C67.6072 32.438 67.6605 32.444 67.7149 32.4345C67.7951 32.42 67.8568 32.3802 67.8979 32.3137C67.9398 32.2471 67.9488 32.152 67.9265 32.0284L67.8306 31.4987L67.269 31.5973ZM66.6049 33.2305L68.3152 33.0157L68.4114 33.7642C68.4306 33.915 68.4303 34.031 68.4094 34.113C68.3884 34.1949 68.3424 34.2648 68.2709 34.3213C68.1991 34.3777 68.1162 34.4118 68.022 34.4235C67.9011 34.4387 67.7937 34.4129 67.7002 34.3454C67.6072 34.2789 67.5395 34.1656 67.496 34.0062C67.475 34.0692 67.452 34.1181 67.428 34.1519C67.3757 34.2249 67.308 34.2965 67.224 34.3657L66.7959 34.7162L66.76 34.437L67.087 34.1687C67.1818 34.0909 67.2533 34.0276 67.3025 33.9783C67.3513 33.9294 67.3844 33.8867 67.4018 33.8506C67.4193 33.8148 67.4301 33.779 67.4346 33.7428C67.4363 33.7173 67.4336 33.6753 67.4262 33.6178L67.3935 33.3586L66.6338 33.4543L66.6049 33.2305ZM67.589 33.3344L67.6504 33.8141C67.6636 33.916 67.6846 33.9945 67.7135 34.0493C67.7421 34.1037 67.7818 34.1436 67.8331 34.1667C67.884 34.1904 67.9366 34.199 67.9921 34.1921C68.0729 34.1825 68.136 34.145 68.181 34.0806C68.2253 34.0162 68.2396 33.9219 68.2235 33.7976L68.1549 33.2632L67.589 33.3344ZM66.8318 34.9665L68.5502 34.8371L68.5676 35.0626L66.8486 35.1921L66.8318 34.9665ZM43.2111 66.8316L43.2467 67.0282L42.5285 67.1549L42.4159 66.5338C42.5104 66.4277 42.6122 66.3423 42.722 66.2776C42.8315 66.2139 42.9479 66.1701 43.071 66.1485C43.238 66.1192 43.3956 66.1278 43.5448 66.1743C43.6926 66.2201 43.815 66.3048 43.9077 66.4256C44.0015 66.5465 44.0635 66.6894 44.0928 66.854C44.1224 67.0168 44.1155 67.1749 44.0722 67.3288C44.0287 67.4824 43.9485 67.6046 43.831 67.6958C43.7142 67.7874 43.5706 67.848 43.4015 67.8776C43.2791 67.8993 43.1644 67.8993 43.0581 67.8776C42.9518 67.8559 42.8643 67.8146 42.7956 67.7551C42.7265 67.6945 42.6669 67.6104 42.6174 67.5027L42.8106 67.4128C42.8514 67.4934 42.8949 67.5543 42.9417 67.597C42.988 67.639 43.049 67.669 43.1247 67.6855C43.1996 67.7024 43.2805 67.7038 43.3663 67.6883C43.4684 67.6703 43.5542 67.6394 43.6236 67.5949C43.6926 67.5512 43.7452 67.4999 43.7822 67.441C43.8188 67.3825 43.8446 67.3205 43.8589 67.2565C43.8829 67.1446 43.8843 67.0289 43.8624 66.9073C43.8355 66.7576 43.7871 66.6367 43.7166 66.5448C43.6466 66.4532 43.5573 66.3916 43.4492 66.3606C43.3408 66.3292 43.231 66.3234 43.1191 66.343C43.0218 66.3602 42.9301 66.3957 42.8447 66.4487C42.759 66.5028 42.6962 66.5541 42.6561 66.6054L42.7129 66.9197L43.2111 66.8316ZM42.2273 66.3189L41.7884 68.0901L41.5395 68.1211L40.6261 66.52L40.8837 66.4873L41.1476 66.9745L41.8672 66.8843L41.9868 66.3489L42.2273 66.3189ZM41.8243 67.074L41.2418 67.147L41.4802 67.5929C41.5527 67.7285 41.6082 67.8411 41.6486 67.93C41.6577 67.8174 41.6751 67.7051 41.7009 67.5932L41.8243 67.074ZM40.4392 66.5183L40.5696 68.2161L39.8082 68.2733C39.6548 68.285 39.5373 68.2784 39.4554 68.2536C39.3735 68.2292 39.3055 68.1803 39.2518 68.1069C39.1988 68.0333 39.1685 67.9499 39.1612 67.8566C39.1518 67.7358 39.1835 67.6314 39.256 67.543C39.3285 67.4541 39.4463 67.3932 39.6091 67.3584C39.5467 67.3343 39.499 67.3095 39.4655 67.284C39.3944 67.2289 39.3257 67.158 39.2602 67.0723L38.9272 66.6322L39.211 66.6109L39.4659 66.9473C39.5398 67.0444 39.6001 67.1181 39.6475 67.1694C39.6949 67.22 39.7361 67.2548 39.7716 67.2737C39.8068 67.2926 39.8427 67.305 39.879 67.3109C39.9048 67.3147 39.9473 67.314 40.0059 67.3095L40.2698 67.2895L40.2112 66.5358L40.4392 66.5183ZM40.2841 67.4834L39.796 67.5206C39.6921 67.5281 39.6119 67.545 39.5555 67.5708C39.4986 67.5963 39.4568 67.6332 39.4303 67.6828C39.4038 67.7316 39.3923 67.7833 39.3961 67.838C39.4028 67.9186 39.4366 67.9827 39.4997 68.0298C39.5624 68.0773 39.6569 68.0959 39.7838 68.0866L40.3277 68.0457L40.2841 67.4834ZM38.7038 66.6112L38.7474 68.3132L37.9835 68.3321C37.8294 68.3363 37.7126 68.3239 37.6321 68.2949C37.5512 68.2664 37.4864 68.2144 37.4362 68.1383C37.3867 68.0618 37.3605 67.9771 37.3584 67.8835C37.3549 67.763 37.3923 67.66 37.4696 67.5753C37.5463 67.4906 37.667 67.4352 37.8319 67.408C37.7705 67.3815 37.7234 67.3539 37.6914 67.3271C37.6237 67.2682 37.5585 67.1945 37.4975 67.1053L37.1873 66.6488L37.4724 66.6422L37.7095 66.9903C37.7782 67.0916 37.835 67.1676 37.8796 67.2217C37.9239 67.2747 37.964 67.3112 37.9982 67.3322C38.0323 67.3525 38.0675 67.367 38.1031 67.3746C38.1289 67.3794 38.1714 67.3808 38.23 67.3794L38.4943 67.3729L38.4751 66.6167L38.7038 66.6112ZM38.4991 67.5674L38.0097 67.5801C37.9058 67.5822 37.8249 67.5949 37.7667 67.618C37.7088 67.6407 37.6649 67.6755 37.6363 67.7234C37.6067 67.7709 37.5931 67.8222 37.5945 67.8769C37.5965 67.9575 37.6276 68.0236 37.6879 68.0739C37.7479 68.1242 37.842 68.1479 37.9689 68.1445L38.5138 68.1311L38.4991 67.5674ZM36.9314 66.604L36.8878 68.3063L36.6591 68.3005L36.7027 66.5985L36.9314 66.604ZM34.7462 67.1243L34.7207 67.3222L33.9967 67.2313L34.0768 66.6057C34.1992 66.5317 34.3226 66.48 34.4464 66.4511C34.5708 66.4222 34.695 66.415 34.8187 66.4308C34.9871 66.4518 35.1349 66.5066 35.2632 66.5947C35.3908 66.6825 35.4814 66.7989 35.5337 66.9414C35.5864 67.0847 35.6024 67.2396 35.5815 67.4052C35.5599 67.5695 35.5058 67.7186 35.418 67.8525C35.3298 67.9861 35.2161 68.0794 35.0767 68.1317C34.9372 68.1844 34.7825 68.2003 34.612 68.1786C34.4886 68.1631 34.3791 68.1297 34.2846 68.0777C34.1898 68.025 34.1183 67.9603 34.0706 67.8828C34.0228 67.8046 33.9918 67.7072 33.9771 67.5898L34.1884 67.5602C34.2034 67.649 34.2261 67.7206 34.2578 67.775C34.2899 67.8291 34.339 67.8752 34.4059 67.9138C34.4722 67.952 34.5492 67.9765 34.6353 67.9875C34.7385 68.0006 34.8299 67.9961 34.9097 67.9744C34.9888 67.953 35.0544 67.9196 35.1074 67.8742C35.1604 67.8294 35.2032 67.7778 35.2367 67.7206C35.2932 67.6211 35.3298 67.5106 35.3455 67.388C35.3654 67.2372 35.3552 67.1077 35.3159 66.9996C35.2765 66.8915 35.2099 66.8061 35.1164 66.7448C35.0223 66.6828 34.9191 66.6446 34.8065 66.6305C34.7085 66.6185 34.6102 66.625 34.5126 66.6508C34.4147 66.6766 34.339 66.7073 34.2853 66.7445L34.2445 67.0612L34.7462 67.1243ZM33.958 66.3726L33.0039 67.9341L32.7568 67.8907L32.3689 66.0927L32.6242 66.1374L32.7292 66.6804L33.4434 66.8065L33.7195 66.3309L33.958 66.3726ZM33.3454 66.9748L32.7669 66.8729L32.8599 67.3687C32.8874 67.5195 32.9067 67.6435 32.9182 67.7402C32.9612 67.6349 33.0116 67.533 33.0704 67.4342L33.3454 66.9748ZM32.1852 66.0638L31.7978 67.7227L31.0534 67.5533C30.9035 67.5192 30.793 67.4782 30.7224 67.4307C30.6513 67.3832 30.6014 67.3167 30.5725 67.2307C30.5436 67.1446 30.5399 67.0557 30.5611 66.9648C30.5886 66.8471 30.6509 66.7572 30.7467 66.6939C30.8425 66.6305 30.9731 66.6067 31.1395 66.6212C31.0873 66.5799 31.0488 66.542 31.0244 66.5079C30.9735 66.4342 30.929 66.3468 30.8924 66.2452L30.7073 65.727L30.9851 65.79L31.1268 66.186C31.1681 66.301 31.2033 66.3891 31.2332 66.4518C31.263 66.5141 31.2919 66.5596 31.3203 66.5878C31.3483 66.6164 31.3786 66.6391 31.411 66.6553C31.4348 66.6656 31.4756 66.678 31.5329 66.6911L31.7905 66.7496L31.9624 66.0131L32.1852 66.0638ZM31.746 66.9401L31.2688 66.8312C31.167 66.8082 31.0859 66.8003 31.0236 66.8082C30.9618 66.8158 30.9108 66.8392 30.8709 66.8784C30.8301 66.9173 30.804 66.9635 30.7912 67.0168C30.7732 67.0953 30.7865 67.167 30.832 67.2307C30.8779 67.294 30.9625 67.3398 31.0863 67.3684L31.6176 67.4892L31.746 66.9401ZM30.4937 65.6671L30.023 67.3047L29.2882 67.0988C29.1402 67.0571 29.032 67.011 28.9637 66.96C28.8954 66.9091 28.8486 66.8402 28.8243 66.7527C28.8 66.6653 28.8005 66.5764 28.8262 66.4869C28.8597 66.3705 28.9261 66.2831 29.0255 66.2246C29.1241 66.1664 29.2561 66.1491 29.4211 66.1719C29.3707 66.1278 29.3349 66.0885 29.312 66.0531C29.2647 65.977 29.2249 65.8875 29.1938 65.7842L29.0348 65.2577L29.3094 65.3345L29.4304 65.737C29.4656 65.8534 29.4968 65.9432 29.5234 66.0073C29.55 66.0713 29.5766 66.1178 29.6036 66.1481C29.6297 66.1777 29.6591 66.2015 29.6912 66.2194C29.7141 66.2314 29.754 66.2456 29.8108 66.2614L30.0647 66.3327L30.2738 65.6051L30.4937 65.6671ZM30.0109 66.5207L29.5398 66.3885C29.4393 66.3602 29.3582 66.3485 29.296 66.3537C29.2341 66.3582 29.1817 66.3785 29.1396 66.4156C29.0974 66.4528 29.0685 66.4973 29.0533 66.5506C29.0314 66.6274 29.041 66.7001 29.0836 66.7655C29.1258 66.8312 29.2083 66.8808 29.3307 66.9156L29.8547 67.0626L30.0109 66.5207ZM28.7967 65.1623L28.2442 66.7751L28.0274 66.7025L28.5798 65.09L28.7967 65.1623ZM26.5748 65.0608L26.5005 65.2467L25.8216 64.9822L26.0559 64.3952C26.193 64.3539 26.3254 64.3342 26.4529 64.336C26.5804 64.3377 26.7023 64.3611 26.8187 64.4069C26.9763 64.4678 27.1061 64.5567 27.2082 64.6741C27.3101 64.7898 27.3686 64.9247 27.3838 65.0759C27.3994 65.2277 27.376 65.3813 27.3141 65.5366C27.2527 65.6905 27.1628 65.8217 27.0441 65.9298C26.925 66.0383 26.7919 66.1006 26.6434 66.1178C26.4954 66.135 26.3413 66.1123 26.1814 66.05C26.0658 66.0052 25.9683 65.946 25.8893 65.872C25.8105 65.7979 25.7578 65.7181 25.7308 65.6316C25.7042 65.5442 25.6982 65.4419 25.7133 65.3248L25.9255 65.3476C25.9173 65.4374 25.9218 65.5125 25.9387 65.5728C25.9562 65.633 25.9924 65.6895 26.0479 65.7429C26.1029 65.7962 26.1707 65.8389 26.2518 65.8706C26.3486 65.9081 26.4379 65.926 26.5204 65.9243C26.6024 65.9226 26.6745 65.9067 26.7372 65.8758C26.7995 65.8451 26.8545 65.8059 26.9009 65.7583C26.9811 65.6757 27.0439 65.5772 27.0897 65.4629C27.1461 65.3214 27.169 65.1933 27.1575 65.0787C27.1466 64.9643 27.103 64.8655 27.0279 64.7832C26.9523 64.7002 26.8619 64.6383 26.7561 64.597C26.6644 64.5615 26.5677 64.5443 26.4663 64.545C26.3645 64.547 26.2838 64.558 26.2225 64.5808L26.1043 64.8772L26.5748 65.0608ZM26.0055 64.1204L24.6313 65.3379L24.408 65.225L24.5689 63.3936L24.7999 63.5103L24.7393 64.0595L25.3852 64.3866L25.7899 64.0113L26.0055 64.1204ZM25.2414 64.5191L24.7187 64.2547L24.6605 64.756C24.6426 64.9082 24.6243 65.0318 24.6064 65.1282C24.6789 65.0397 24.7572 64.9571 24.8425 64.879L25.2414 64.5191ZM24.3961 63.323L23.537 64.7987L22.8747 64.4227C22.7414 64.347 22.6479 64.2764 22.5943 64.2103C22.5401 64.1449 22.5122 64.0664 22.5099 63.9758C22.5075 63.8856 22.5301 63.7995 22.5772 63.7182C22.6383 63.6136 22.7239 63.5454 22.8348 63.512C22.9449 63.4789 23.0769 63.4941 23.2318 63.5557C23.1938 63.5013 23.1686 63.4538 23.1554 63.4142C23.1279 63.3292 23.1113 63.2328 23.1063 63.125L23.0821 62.5761L23.3292 62.7166L23.3476 63.136C23.3536 63.2575 23.3618 63.3522 23.3714 63.4208C23.3814 63.4886 23.3956 63.5406 23.4145 63.576C23.4329 63.6112 23.4558 63.6415 23.4819 63.6663C23.5012 63.6831 23.5369 63.7069 23.5877 63.7358L23.8169 63.8656L24.1983 63.21L24.3961 63.323ZM23.7181 64.035L23.2937 63.794C23.2029 63.7424 23.1272 63.7121 23.0659 63.7014C23.0045 63.691 22.9486 63.6986 22.899 63.7244C22.8486 63.7499 22.8097 63.7864 22.7822 63.8343C22.7418 63.9045 22.7332 63.9761 22.7583 64.0505C22.7831 64.1245 22.8509 64.1927 22.9614 64.2554L23.4335 64.5236L23.7181 64.035ZM22.8899 62.466L21.9593 63.8994L21.3161 63.4924C21.1868 63.4097 21.097 63.3354 21.0462 63.2668C20.9958 63.1983 20.9714 63.1188 20.9732 63.0282C20.9756 62.9384 21.0021 62.853 21.0534 62.7745C21.1194 62.6726 21.2084 62.6082 21.3206 62.5806C21.432 62.5527 21.5635 62.5741 21.7148 62.6429C21.6796 62.5868 21.6566 62.5383 21.6451 62.498C21.6223 62.4119 21.6104 62.3148 21.6104 62.207L21.6127 61.6575L21.8528 61.8097L21.851 62.2294C21.8505 62.351 21.8542 62.4463 21.8605 62.5152C21.8673 62.5834 21.8794 62.6361 21.8962 62.6722C21.9128 62.7084 21.9338 62.7397 21.959 62.7659C21.9778 62.7841 22.0117 62.8082 22.0616 62.8399L22.2835 62.9804L22.697 62.3437L22.8899 62.466ZM22.1775 63.1446L21.7653 62.8836C21.6773 62.8282 21.6031 62.7938 21.542 62.7807C21.481 62.7676 21.4252 62.7721 21.3742 62.7955C21.3229 62.8189 21.2826 62.8537 21.2523 62.9001C21.2083 62.9676 21.1964 63.0393 21.218 63.1147C21.239 63.1897 21.3033 63.261 21.4105 63.3285L21.8694 63.6191L22.1775 63.1446ZM21.4082 61.5053L20.4089 62.8929L20.2224 62.7621L21.2217 61.3745L21.4082 61.5053ZM19.3055 60.7833L19.1808 60.9403L18.6069 60.4951L19.0015 59.9989C19.1447 59.9982 19.2775 60.0161 19.399 60.0543C19.5205 60.0922 19.6305 60.1494 19.7291 60.2255C19.862 60.3291 19.9606 60.4507 20.0247 60.5922C20.0884 60.732 20.1058 60.878 20.0765 61.0267C20.0471 61.1768 19.9802 61.317 19.8758 61.4485C19.7722 61.5786 19.6484 61.6788 19.5026 61.7494C19.3578 61.8193 19.2119 61.8417 19.0647 61.8155C18.9181 61.7904 18.7769 61.725 18.6417 61.6203C18.544 61.5442 18.4675 61.4595 18.4134 61.3669C18.3593 61.2739 18.3318 61.1823 18.3313 61.0914C18.3309 61.0005 18.3552 60.9003 18.4038 60.7926L18.6001 60.8745C18.5666 60.9585 18.5492 61.0312 18.5478 61.0942C18.5474 61.1569 18.5653 61.2212 18.6029 61.288C18.64 61.3545 18.6931 61.4151 18.7614 61.4685C18.843 61.5318 18.9237 61.5738 19.0034 61.5962C19.0827 61.6179 19.1561 61.6224 19.2253 61.6107C19.2941 61.599 19.3578 61.5766 19.416 61.5446C19.5165 61.4877 19.6053 61.4113 19.6823 61.3145C19.7776 61.1951 19.8363 61.079 19.8592 60.9658C19.8816 60.8532 19.8683 60.7464 19.8203 60.6459C19.7722 60.5453 19.7034 60.4603 19.614 60.3911C19.5365 60.3308 19.4484 60.2868 19.3512 60.2592C19.2536 60.2317 19.1729 60.2203 19.1074 60.2244L18.9081 60.4751L19.3055 60.7833ZM19.0263 59.7286L17.3581 60.5106L17.1766 60.3394L17.8577 58.6292L18.0457 58.8058L17.8298 59.3154L18.355 59.8099L18.8506 59.564L19.0263 59.7286ZM18.1787 59.8966L17.7537 59.4965L17.5539 59.9607C17.4929 60.1022 17.4397 60.2151 17.3949 60.3026C17.4898 60.2382 17.5889 60.1807 17.6928 60.1301L18.1787 59.8966ZM17.7097 58.5156L17.7094 58.5158L17.5519 58.3524L16.9978 58.8744L16.8157 58.6857C16.7749 58.643 16.7479 58.6113 16.7341 58.5896C16.7158 58.5579 16.7029 58.5225 16.6952 58.4842C16.6879 58.4446 16.6888 58.3909 16.6989 58.3224C16.7091 58.2542 16.7283 58.1613 16.7576 58.0432L16.8602 57.6358L16.6635 57.432L16.5292 57.9647C16.5036 58.0697 16.4917 58.1671 16.4935 58.2563C16.4945 58.298 16.5056 58.35 16.5261 58.413C16.3955 58.3104 16.2732 58.2594 16.158 58.2597C16.0425 58.2608 15.9403 58.3024 15.8518 58.3858C15.783 58.4505 15.7371 58.5262 15.7133 58.6137C15.6895 58.7012 15.694 58.7841 15.7266 58.8623C15.7597 58.9408 15.8289 59.0345 15.9352 59.1446L16.4623 59.6904L17.7094 58.5158L17.7095 58.5159L17.7097 58.5156ZM16.8553 59.0086L16.5175 58.6585C16.445 58.5838 16.3813 58.5335 16.3254 58.5063C16.2694 58.4787 16.214 58.4708 16.1585 58.4815C16.103 58.4918 16.0554 58.5159 16.0151 58.5541C15.9564 58.6096 15.9275 58.6767 15.9303 58.7545C15.933 58.8323 15.9783 58.9167 16.066 59.0076L16.4422 59.3974L16.8553 59.0086ZM16.5087 57.274L15.2055 58.3889L14.7055 57.8183C14.6045 57.7037 14.54 57.6062 14.5111 57.527C14.4822 57.4472 14.4817 57.3642 14.5097 57.2781C14.5376 57.192 14.5871 57.118 14.6591 57.0567C14.7512 56.9775 14.8553 56.9407 14.9708 56.9451C15.0859 56.9503 15.2055 57.0068 15.3311 57.1152C15.3132 57.0515 15.3055 56.9985 15.306 56.9568C15.3087 56.8677 15.3253 56.7713 15.3559 56.668L15.5153 56.1415L15.7019 56.3543L15.5804 56.7568C15.5452 56.8732 15.5212 56.9651 15.5075 57.0329C15.4946 57.1008 15.4909 57.1541 15.4965 57.1941C15.5025 57.233 15.5135 57.2688 15.5305 57.3008C15.5428 57.3235 15.5685 57.3573 15.607 57.401L15.7802 57.598L16.3588 57.1032L16.5087 57.274ZM15.6308 57.7257L15.3103 57.3604C15.242 57.2826 15.1806 57.2292 15.1256 57.1992C15.0711 57.1693 15.016 57.1586 14.9601 57.1672C14.9047 57.1748 14.8556 57.1965 14.8139 57.2326C14.7521 57.2853 14.72 57.3507 14.719 57.4286C14.7181 57.5067 14.7594 57.5931 14.8428 57.6882L15.1995 58.0948L15.6308 57.7257ZM15.3599 55.9408L14.0043 56.993L13.8631 56.815L15.2186 55.7634L15.3599 55.9408ZM13.5474 54.6633L13.3824 54.779L12.9597 54.192L13.4805 53.8259C13.618 53.8648 13.7399 53.9196 13.8453 53.9898C13.9512 54.0601 14.0407 54.1458 14.113 54.2464C14.2111 54.383 14.2706 54.5273 14.2918 54.6805C14.3128 54.8327 14.2881 54.977 14.217 55.112C14.1459 55.2473 14.0419 55.3637 13.9039 55.4601C13.7673 55.5561 13.6192 55.6174 13.4602 55.6443C13.3012 55.6715 13.1544 55.6519 13.0211 55.5861C12.8872 55.5207 12.7707 55.4188 12.6714 55.2803C12.5989 55.1801 12.5499 55.0779 12.5247 54.9739C12.4995 54.8696 12.4995 54.7742 12.5252 54.6867C12.5504 54.5993 12.6021 54.5105 12.6797 54.4199L12.8447 54.5535C12.7883 54.6248 12.7508 54.6898 12.7315 54.7494C12.7131 54.8093 12.7122 54.8765 12.7287 54.9512C12.7457 55.0252 12.7791 55.0979 12.8296 55.1678C12.8897 55.2511 12.9548 55.3144 13.0249 55.3582C13.0946 55.4005 13.1638 55.426 13.234 55.4336C13.3033 55.4418 13.3706 55.438 13.4357 55.4236C13.5485 55.3974 13.6553 55.3492 13.757 55.2776C13.8826 55.1894 13.9719 55.0948 14.026 54.9928C14.0801 54.8909 14.098 54.7845 14.0805 54.675C14.0631 54.5649 14.0213 54.464 13.9558 54.3724C13.8985 54.2932 13.827 54.2267 13.7413 54.1727C13.6556 54.1193 13.5814 54.0852 13.5176 54.0714L13.254 54.256L13.5474 54.6633ZM13.6115 53.5556L11.8032 53.9248L11.668 53.7165L12.7406 52.2138L12.8804 52.4297L12.548 52.8746L12.9399 53.4775L13.4808 53.3549L13.6115 53.5556ZM12.7479 53.5209L12.4311 53.0323L12.1253 53.4369C12.0322 53.5594 11.9534 53.6569 11.8887 53.7309C11.9964 53.6906 12.1064 53.6579 12.2197 53.6331L12.7479 53.5209ZM12.6576 52.0475L11.1233 52.8236L10.775 52.1522C10.7053 52.0169 10.6658 51.9074 10.6567 51.823C10.6481 51.7387 10.6672 51.6581 10.7155 51.581C10.7635 51.5038 10.8297 51.4436 10.9139 51.4009C11.0225 51.3458 11.1325 51.3344 11.2435 51.3661C11.3544 51.3978 11.4566 51.4815 11.5524 51.6164C11.5505 51.5503 11.5556 51.497 11.5662 51.4567C11.5904 51.3706 11.6294 51.2811 11.6844 51.1878L11.9667 50.7143L12.0964 50.965L11.8809 51.3265C11.8187 51.4315 11.7732 51.5156 11.7439 51.5779C11.7145 51.6402 11.698 51.6922 11.6944 51.7318C11.6902 51.7714 11.6926 51.8082 11.7009 51.8437C11.7077 51.8685 11.7252 51.907 11.7517 51.9587L11.8723 52.1911L12.5534 51.8464L12.6576 52.0475ZM11.6963 52.2799L11.473 51.8499C11.4252 51.758 11.379 51.6918 11.3327 51.6498C11.2872 51.6082 11.2359 51.5841 11.18 51.5793C11.124 51.5741 11.0713 51.5837 11.0214 51.6085C10.9494 51.6454 10.9023 51.7015 10.8825 51.7769C10.8623 51.8526 10.8821 51.9456 10.9398 52.0575L11.1883 52.5372L11.6963 52.2799ZM11.8585 50.5219L10.2876 51.2232L9.97309 50.536C9.90989 50.3972 9.87544 50.286 9.87081 50.202C9.86617 50.1173 9.88963 50.0374 9.9414 49.9623C9.99317 49.8883 10.062 49.8311 10.1486 49.7926C10.26 49.743 10.3701 49.7371 10.4796 49.774C10.5883 49.8108 10.6869 49.899 10.7757 50.0384C10.7771 49.9723 10.7849 49.9193 10.7972 49.8797C10.8257 49.795 10.8692 49.7072 10.9287 49.6166L11.2336 49.157L11.3513 49.4138L11.118 49.765C11.0507 49.8663 11.0012 49.9482 10.9686 50.0095C10.9364 50.0704 10.9178 50.1211 10.9117 50.1607C10.9057 50.1996 10.9062 50.2374 10.9126 50.2726C10.9187 50.2977 10.9332 50.3369 10.9576 50.39L11.0667 50.6279L11.7644 50.3159L11.8585 50.5219ZM10.8867 50.7081L10.685 50.2674C10.6424 50.1734 10.5988 50.1049 10.5549 50.0611C10.5113 50.0171 10.4619 49.9909 10.4059 49.983C10.35 49.9751 10.2973 49.9823 10.246 50.0047C10.1721 50.0381 10.1222 50.0918 10.0989 50.1665C10.0756 50.2405 10.0902 50.3349 10.1425 50.4495L10.3671 50.9402L10.8867 50.7081ZM11.1384 48.9228L9.53452 49.5474L9.45061 49.3374L11.054 48.7124L11.1384 48.9228ZM9.7665 47.1868L9.57486 47.2508L9.34107 46.5684L9.94621 46.3659C10.0667 46.4427 10.1677 46.5295 10.2483 46.6266C10.329 46.724 10.39 46.8314 10.4299 46.9485C10.4844 47.1069 10.4991 47.2625 10.4749 47.4147C10.4511 47.5666 10.3846 47.6977 10.2772 47.8069C10.1704 47.9164 10.0362 47.998 9.87604 48.0514C9.71752 48.1044 9.55788 48.1216 9.39748 48.102C9.23708 48.082 9.10279 48.0224 8.99416 47.9215C8.88504 47.8203 8.80297 47.6895 8.74796 47.5287C8.70811 47.4126 8.69065 47.3007 8.69668 47.1937C8.70316 47.0866 8.73098 46.995 8.78059 46.9189C8.83048 46.8421 8.9062 46.7719 9.00605 46.7075L9.12566 46.8824C9.05084 46.934 8.99601 46.986 8.96013 47.038C8.92537 47.0897 8.90467 47.1534 8.89909 47.2301C8.89309 47.3056 8.90421 47.3848 8.93217 47.4664C8.96571 47.5631 9.00911 47.642 9.06413 47.7036C9.11823 47.7645 9.17694 47.8083 9.24154 47.8355C9.30569 47.8627 9.37119 47.8785 9.43827 47.883C9.55339 47.8899 9.67021 47.874 9.78843 47.8348C9.93415 47.7859 10.0479 47.7205 10.129 47.6378C10.2106 47.5559 10.2587 47.4595 10.2738 47.3493C10.2889 47.2384 10.2785 47.1306 10.2421 47.0242C10.2105 46.932 10.1615 46.8476 10.095 46.7722C10.0286 46.6965 9.96706 46.6431 9.91034 46.6111L9.60453 46.7137L9.7665 47.1868ZM10.1432 46.1462L8.30416 45.9834L8.23587 45.7451L9.70235 44.613L9.77344 44.8595L9.32514 45.1901L9.52358 45.8801L10.0773 45.9166L10.1432 46.1462ZM9.32685 45.866L9.16645 45.3082L8.75615 45.6081C8.631 45.6983 8.52655 45.7699 8.44354 45.8226C8.5582 45.8143 8.67273 45.815 8.78878 45.8233L9.32685 45.866ZM9.68673 44.4274L8.00717 44.8103L7.8353 44.0752C7.80099 43.9271 7.78987 43.8117 7.80179 43.7274C7.81414 43.6441 7.85308 43.5704 7.91862 43.507C7.98412 43.444 8.06295 43.4013 8.15519 43.3807C8.27432 43.3535 8.38389 43.3686 8.48342 43.4264C8.58292 43.484 8.6622 43.5893 8.72185 43.7432C8.73607 43.6788 8.75399 43.6282 8.77411 43.5921C8.81904 43.5139 8.8795 43.4368 8.95567 43.3593L9.34616 42.9682L9.40982 43.2422L9.11189 43.5411C9.02518 43.6282 8.96062 43.6985 8.91655 43.7522C8.87298 43.8059 8.84456 43.8513 8.83034 43.8892C8.81706 43.9264 8.81008 43.9636 8.80932 43.9994C8.81026 44.0252 8.81706 44.0665 8.82989 44.123L8.88954 44.3775L9.63528 44.2077L9.68673 44.4274ZM8.69713 44.4212L8.5871 43.9498C8.56378 43.8493 8.53488 43.7742 8.5004 43.7222C8.46641 43.6706 8.42301 43.6351 8.36984 43.6172C8.31668 43.5986 8.26351 43.5952 8.20895 43.6079C8.12971 43.6258 8.07051 43.6685 8.03248 43.7374C7.99448 43.8055 7.98984 43.9013 8.01874 44.0235L8.14114 44.5482L8.69713 44.4212ZM9.32559 42.7471L7.61525 42.9616L7.51899 42.2134C7.49968 42.0626 7.50013 41.9462 7.52084 41.8643C7.54141 41.7823 7.58774 41.7124 7.65931 41.656C7.73085 41.5998 7.81382 41.5654 7.90778 41.5537C8.02924 41.5385 8.13651 41.5644 8.22997 41.6319C8.32302 41.699 8.39038 41.8116 8.43444 41.971C8.45498 41.9083 8.47847 41.8591 8.50228 41.8254C8.55451 41.7524 8.62235 41.6807 8.70578 41.6122L9.13444 41.2614L9.17014 41.5406L8.84285 41.8085C8.74845 41.8863 8.67687 41.95 8.62789 41.9992C8.57846 42.0481 8.54537 42.0905 8.52791 42.127C8.51093 42.1625 8.49995 42.1986 8.49576 42.2348C8.49346 42.2599 8.49625 42.3022 8.50396 42.3597L8.53704 42.6187L9.29655 42.5236L9.32559 42.7471ZM8.34139 42.6428L8.27958 42.1635C8.2663 42.0612 8.24528 41.9827 8.21638 41.928C8.18797 41.8736 8.14808 41.834 8.09725 41.8109C8.04639 41.7868 7.99326 41.7782 7.93825 41.7851C7.85757 41.7954 7.79437 41.8322 7.7494 41.897C7.70488 41.961 7.69069 42.0554 7.70676 42.18L7.77551 42.7141L8.34139 42.6428ZM9.10185 41.0104L7.3915 41.2249L7.36305 41.0007L9.07295 40.7862L9.10185 41.0104ZM8.28548 38.953L8.08334 38.9575L8.06494 38.2372L8.70348 38.2214C8.79509 38.3295 8.86572 38.4421 8.91349 38.5588C8.96153 38.6755 8.98736 38.7953 8.99043 38.919C8.99461 39.0866 8.96247 39.2392 8.89323 39.3776C8.82448 39.5153 8.72234 39.6217 8.58696 39.6944C8.45173 39.7677 8.29907 39.8066 8.1303 39.8104C7.96251 39.8145 7.80535 39.7842 7.65774 39.7188C7.51066 39.653 7.40015 39.556 7.32676 39.4282C7.25289 39.3001 7.21394 39.151 7.20945 38.9813C7.20669 38.8584 7.22367 38.7461 7.26171 38.6463C7.29971 38.5457 7.35381 38.4665 7.42396 38.408C7.49459 38.3495 7.58805 38.3043 7.7032 38.2723L7.76453 38.4741C7.67737 38.5016 7.60956 38.535 7.55964 38.5746C7.51066 38.6135 7.47203 38.669 7.44372 38.7399C7.41576 38.8108 7.40203 38.8893 7.40433 38.9754C7.40712 39.0777 7.42535 39.1662 7.45889 39.2409C7.49243 39.3149 7.53583 39.3738 7.58899 39.4193C7.64216 39.464 7.69996 39.4981 7.76223 39.5219C7.8704 39.5625 7.98646 39.5814 8.11148 39.578C8.26553 39.5745 8.39334 39.5449 8.49608 39.4902C8.5984 39.4354 8.67349 39.3576 8.72126 39.2571C8.76853 39.1558 8.79094 39.0491 8.78861 38.9376C8.78582 38.8398 8.76389 38.7451 8.72401 38.6531C8.68277 38.5619 8.64009 38.4923 8.59561 38.4452L8.27247 38.4534L8.28548 38.953ZM8.93402 38.0699L7.2274 37.3737L7.23389 37.1264L8.97481 36.476L8.96832 36.7325L8.44075 36.9167L8.42238 37.6333L8.93991 37.8306L8.93402 38.0699ZM8.23911 37.5623L8.25379 36.9825L7.7715 37.1481C7.62483 37.198 7.50386 37.2356 7.40851 37.2611C7.52039 37.2872 7.62996 37.3213 7.73765 37.3633L8.23911 37.5623ZM8.98952 36.2932L7.27049 36.1644L7.32875 35.4114C7.34018 35.2602 7.36445 35.1466 7.40123 35.0702C7.43832 34.9937 7.49752 34.9348 7.57958 34.8935C7.66116 34.8529 7.74926 34.8353 7.84366 34.8429C7.96558 34.8519 8.06556 34.899 8.14299 34.983C8.22087 35.0674 8.264 35.1917 8.27449 35.3556C8.30803 35.2981 8.34049 35.2557 8.37075 35.2268C8.43674 35.1662 8.51741 35.1097 8.61367 35.0584L9.10464 34.7999L9.08316 35.0805L8.70811 35.2778C8.59948 35.3356 8.51647 35.3835 8.45822 35.4217C8.39996 35.4603 8.35917 35.4957 8.33446 35.5274C8.31065 35.5591 8.29273 35.5921 8.28129 35.6266C8.27404 35.6514 8.26801 35.6927 8.26337 35.7505L8.24312 36.0108L9.00681 36.068L8.98952 36.2932ZM8.04656 35.996L8.08366 35.5136C8.09136 35.411 8.0869 35.3305 8.06989 35.2709C8.05291 35.2117 8.02185 35.1652 7.97687 35.1321C7.93145 35.0984 7.88152 35.0794 7.82606 35.0753C7.7449 35.0695 7.67521 35.0932 7.61835 35.1469C7.56149 35.2013 7.52858 35.2909 7.51885 35.4162L7.47757 35.9533L8.04656 35.996ZM9.14448 34.5833L7.43414 34.3688L7.53043 33.6199C7.55019 33.4691 7.57986 33.3572 7.62068 33.2828C7.66147 33.2081 7.72374 33.1523 7.8072 33.1151C7.89111 33.0785 7.97994 33.0658 8.0739 33.0776C8.19539 33.0925 8.29259 33.1445 8.36552 33.2329C8.43939 33.3203 8.476 33.4463 8.47833 33.6113C8.51449 33.5555 8.54893 33.5145 8.58062 33.4866C8.64986 33.4291 8.73328 33.3771 8.83236 33.331L9.33567 33.097L9.29997 33.3761L8.91488 33.5551C8.80346 33.6071 8.71815 33.6512 8.65819 33.6863C8.59854 33.7218 8.55559 33.7548 8.5293 33.7855C8.50364 33.8158 8.48388 33.8482 8.47105 33.8819C8.4624 33.906 8.45452 33.9473 8.44727 34.0052L8.41373 34.2638L9.17325 34.3591L9.14448 34.5833ZM8.21809 34.2393L8.27944 33.7593C8.29273 33.6571 8.29227 33.5765 8.27805 33.5162C8.26383 33.456 8.23538 33.4085 8.19229 33.373C8.14871 33.3372 8.09973 33.3158 8.04472 33.309C7.96359 33.2993 7.89296 33.3189 7.83331 33.3706C7.77366 33.4219 7.73657 33.5097 7.7205 33.634L7.65175 34.168L8.21809 34.2393ZM9.40627 32.8521L7.70923 32.5528L7.74954 32.3302L9.4466 32.6299L9.40627 32.8521ZM9.1867 30.6685L9.18625 30.6684L9.29997 30.1818L9.61488 30.2534C9.64657 30.31 9.66989 30.3874 9.68645 30.4866C9.70253 30.5852 9.69974 30.6821 9.67777 30.7772C9.65212 30.8868 9.60362 30.984 9.5316 31.0701C9.46006 31.156 9.36795 31.2131 9.25468 31.2407C9.14187 31.2684 9.01037 31.2652 8.86046 31.2313C8.73855 31.2032 8.63131 31.1565 8.53641 31.0909C8.48185 31.0524 8.43458 31.0049 8.3947 30.9488C8.3544 30.8917 8.32734 30.8238 8.31357 30.7436C8.29984 30.6631 8.30447 30.5735 8.3278 30.4733C8.3476 30.3896 8.38002 30.3166 8.42499 30.2551C8.47091 30.1927 8.52219 30.1492 8.57954 30.1234C8.63734 30.0979 8.71212 30.0822 8.80283 30.0767L8.79464 29.8662C8.67489 29.8688 8.57319 29.8897 8.49022 29.9291C8.40725 29.968 8.33477 30.0315 8.27247 30.1193C8.21066 30.2072 8.16569 30.3113 8.13773 30.4308C8.09924 30.5965 8.09924 30.7505 8.13867 30.8926C8.17712 31.0347 8.26013 31.1556 8.38574 31.2552C8.51184 31.3554 8.65665 31.4237 8.81985 31.4613C8.9844 31.4988 9.14204 31.4988 9.29146 31.4613C9.44043 31.4242 9.56635 31.3462 9.66773 31.2299C9.77005 31.1127 9.83975 30.9727 9.87775 30.8097C9.9057 30.6893 9.91128 30.5666 9.89476 30.4416C9.87743 30.3171 9.8379 30.1908 9.77609 30.0631L9.15362 29.9215L8.98952 30.6237L9.18625 30.6684L9.18621 30.6686L9.1867 30.6685ZM10.0576 29.9763L8.63657 28.8117L8.71721 28.5772L10.5751 28.4662L10.4917 28.7093L9.93293 28.7305L9.70005 29.4093L10.135 29.7498L10.0576 29.9763ZM9.54613 29.2885L9.7345 28.7389L9.22376 28.7557C9.06876 28.7603 8.94239 28.7608 8.84331 28.7571C8.94239 28.8151 9.03679 28.8794 9.12751 28.9514L9.54613 29.2885ZM10.6252 28.2893L9.0218 27.6649L9.30182 26.9627C9.35823 26.8214 9.41554 26.7201 9.4732 26.6576C9.53146 26.5957 9.60561 26.5566 9.69601 26.5413C9.78627 26.5259 9.87576 26.5354 9.96368 26.5694C10.0779 26.6138 10.159 26.688 10.208 26.7913C10.257 26.894 10.2616 27.0254 10.2222 27.1857C10.2712 27.1404 10.3148 27.1088 10.3523 27.0902C10.4339 27.0512 10.5279 27.0208 10.6351 27.0001L11.1815 26.896L11.0771 27.1582L10.6595 27.2374C10.5385 27.2605 10.445 27.2823 10.3781 27.3022C10.3112 27.3221 10.2613 27.3433 10.2282 27.3669C10.1956 27.3899 10.1691 27.4166 10.1475 27.4461C10.1334 27.4673 10.1154 27.5054 10.0939 27.5593L9.99673 27.802L10.7091 28.0795L10.6252 28.2893ZM9.813 27.7306L9.99317 27.2805C10.0312 27.1845 10.051 27.1062 10.0524 27.0442C10.0538 26.9827 10.0381 26.9297 10.0046 26.8844C9.97156 26.8396 9.92952 26.807 9.87761 26.7866C9.80202 26.7571 9.72815 26.7594 9.65755 26.7947C9.58738 26.8295 9.52912 26.9061 9.48248 27.0228L9.28264 27.5236L9.813 27.7306ZM11.2688 26.6938L9.69789 25.9925L10.0128 25.3048C10.076 25.1667 10.1384 25.0676 10.1993 25.0087C10.2607 24.9493 10.3368 24.9141 10.4276 24.9028C10.5188 24.8919 10.6073 24.9055 10.6935 24.944C10.8049 24.9937 10.8828 25.0717 10.9264 25.1772C10.9704 25.2822 10.9686 25.4134 10.9213 25.5715C10.9721 25.529 11.0176 25.4995 11.0561 25.4829C11.1395 25.4481 11.2348 25.4223 11.343 25.4064L11.8936 25.329L11.7763 25.5858L11.3555 25.6451C11.2336 25.6624 11.1392 25.6794 11.0713 25.6958C11.0035 25.7126 10.9527 25.7315 10.9182 25.7538C10.8847 25.775 10.8569 25.8 10.8338 25.8284C10.8187 25.8492 10.7986 25.886 10.7742 25.9389L10.6655 26.177L11.3628 26.4881L11.2688 26.6938ZM10.4854 26.0961L10.687 25.6557C10.7301 25.5615 10.7535 25.4841 10.7581 25.4224C10.7628 25.3614 10.7499 25.3071 10.7187 25.2608C10.6879 25.2141 10.6472 25.1793 10.5968 25.1567C10.5225 25.1236 10.4492 25.1224 10.3767 25.154C10.3047 25.1857 10.2429 25.259 10.1902 25.3736L9.96553 25.864L10.4854 26.0961ZM12.0205 25.1086L10.4858 24.3327L10.5903 24.1317L12.1246 24.9077L12.0205 25.1086ZM12.444 22.9513L12.269 22.8517L12.6324 22.2273L13.1861 22.5415C13.2076 22.6815 13.2085 22.8136 13.188 22.9377C13.1677 23.0623 13.1262 23.1777 13.0637 23.2849C12.9793 23.4302 12.8712 23.5439 12.7392 23.6268C12.6082 23.7092 12.4646 23.7473 12.311 23.7396C12.1569 23.7329 12.0061 23.6876 11.8595 23.6042C11.7142 23.5218 11.5958 23.415 11.5047 23.2828C11.414 23.1516 11.3704 23.0121 11.3753 22.8645C11.3795 22.7173 11.4243 22.5702 11.5105 22.4231C11.5723 22.3167 11.6457 22.2297 11.731 22.1636C11.8168 22.0971 11.9047 22.0572 11.9956 22.0437C12.0863 22.0301 12.19 22.0395 12.305 22.0713L12.2513 22.2751C12.1625 22.2543 12.0868 22.2479 12.0236 22.2555C11.9613 22.2641 11.8989 22.2908 11.8375 22.337C11.7762 22.3832 11.7233 22.4434 11.6799 22.5182C11.6286 22.6068 11.5974 22.6915 11.5869 22.7726C11.5763 22.8532 11.5822 22.9261 11.6043 22.9918C11.6258 23.0574 11.657 23.1163 11.6978 23.1688C11.7689 23.2588 11.8582 23.335 11.9664 23.3961C12.0997 23.472 12.2245 23.5128 12.3414 23.5188C12.4573 23.5247 12.5629 23.4966 12.6564 23.435C12.7503 23.373 12.8256 23.2937 12.8818 23.1964C12.9313 23.1122 12.9625 23.0199 12.9762 22.9211C12.9895 22.8214 12.99 22.7409 12.9762 22.6775L12.6962 22.5186L12.444 22.9513ZM13.4658 22.5302L12.444 21.0113L12.5893 20.8094L14.4009 21.2309L14.2505 21.44L13.7092 21.3015L13.2884 21.8856L13.6061 22.3352L13.4658 22.5302ZM13.1765 21.7258L13.5166 21.2531L13.0229 21.1241C12.873 21.0843 12.7516 21.0486 12.6581 21.0173C12.7359 21.1011 12.8075 21.1898 12.8735 21.2839L13.1765 21.7258ZM67.841 37.0204L67.6388 37.0256L67.6517 37.5248L67.3292 37.5328C67.2843 37.4856 67.2414 37.4164 67.2006 37.3248C67.1605 37.2332 67.1385 37.1385 67.1361 37.0407C67.1333 36.9288 67.1556 36.8224 67.2034 36.7215C67.2508 36.6203 67.3264 36.5425 67.4282 36.4877C67.5307 36.433 67.6587 36.4037 67.8128 36.3999C67.9379 36.3968 68.0537 36.4158 68.1621 36.4561C68.2242 36.4802 68.2824 36.5139 68.3354 36.559C68.3884 36.6041 68.4319 36.663 68.4654 36.7374C68.4989 36.8121 68.517 36.9002 68.5198 37.0025C68.5222 37.0886 68.5086 37.1674 68.4804 37.238C68.4522 37.3093 68.4135 37.3644 68.3647 37.4033C68.3148 37.4429 68.2468 37.4763 68.16 37.5038L68.2214 37.7059C68.3361 37.6736 68.4295 37.6285 68.5003 37.5699C68.5703 37.5121 68.6251 37.4326 68.6631 37.332C68.7007 37.2318 68.7182 37.1203 68.7147 36.997C68.7101 36.8272 68.6714 36.6781 68.5975 36.5501C68.524 36.422 68.4135 36.3256 68.2663 36.2598C68.1189 36.1937 67.9616 36.1634 67.7943 36.1675C67.6252 36.172 67.4725 36.2106 67.3376 36.2839C67.2027 36.3566 67.0998 36.4626 67.0312 36.6003C66.9618 36.7391 66.9297 36.8916 66.9339 37.059C66.937 37.1826 66.9628 37.3031 67.0109 37.4195C67.0587 37.5362 67.1291 37.6484 67.2208 37.7566L67.8595 37.7407L67.841 37.0204ZM68.6941 38.6046L66.9876 37.9084L66.9817 38.1474L67.499 38.3447L67.4805 39.0615L66.9534 39.2457L66.9468 39.5019L68.6882 38.8518L68.6941 38.6046ZM67.6677 38.9958L67.6824 38.4156L68.1841 38.6149C68.2918 38.657 68.4013 38.691 68.5132 38.7172C68.4176 38.7423 68.2967 38.7802 68.1502 38.8298L67.6677 38.9958ZM68.6488 39.8139L66.9297 39.6848L66.9126 39.9096L67.6758 39.9671L67.6559 40.2274C67.6514 40.2856 67.6454 40.3266 67.6381 40.3517C67.6266 40.3861 67.6085 40.4192 67.5844 40.4509C67.56 40.4825 67.5189 40.5177 67.461 40.5562C67.4028 40.5944 67.3198 40.6423 67.2111 40.6998L66.8363 40.8974L66.8147 41.1781L67.3052 40.9198C67.4014 40.8685 67.4826 40.8121 67.5485 40.7515C67.5788 40.7225 67.6109 40.6795 67.6444 40.622C67.6548 40.7866 67.6984 40.9105 67.7758 40.9949C67.8536 41.0792 67.9533 41.1257 68.0753 41.135C68.1698 41.1423 68.258 41.1254 68.3399 41.0841C68.4215 41.0431 68.4804 40.9842 68.5177 40.9081C68.555 40.8313 68.5791 40.7181 68.5906 40.5662L68.6488 39.8139ZM67.8358 40.4643L67.8727 39.9822L68.4417 40.0249L68.4006 40.5617C68.3908 40.6871 68.3577 40.7769 68.3008 40.8306C68.244 40.8851 68.1743 40.9088 68.0934 40.9026C68.0376 40.8985 67.9874 40.8795 67.9425 40.8461C67.8971 40.8131 67.8665 40.7666 67.8494 40.707C67.8323 40.6478 67.8274 40.5672 67.8358 40.4643ZM68.4821 41.6095L66.7721 41.3946L66.7435 41.6185L67.5028 41.7138L67.4694 41.9728C67.4621 42.0306 67.4544 42.0716 67.4457 42.096C67.4324 42.1298 67.4129 42.1618 67.3875 42.1921C67.361 42.2231 67.3181 42.2561 67.2585 42.2913C67.1985 42.3267 67.1131 42.3711 67.0012 42.4224L66.6166 42.6015L66.5811 42.8807L67.0842 42.6469C67.1828 42.6004 67.2668 42.5485 67.3362 42.491C67.3676 42.4634 67.4021 42.4221 67.4384 42.3663C67.4408 42.5312 67.4774 42.6576 67.5506 42.7451C67.6242 42.8332 67.7214 42.8852 67.8428 42.9C67.9365 42.9117 68.0254 42.8993 68.1091 42.8625C68.1928 42.8253 68.2552 42.7695 68.296 42.6951C68.3368 42.6208 68.3664 42.5085 68.3859 42.3577L68.4821 41.6095ZM67.6371 42.2183L67.6984 41.7383L68.2649 41.8095L68.1963 42.3436C68.1802 42.4679 68.1426 42.5564 68.083 42.607C68.0233 42.6586 67.9526 42.679 67.872 42.6686C67.817 42.6617 67.7675 42.6404 67.7242 42.6049C67.6806 42.5691 67.6524 42.5216 67.6385 42.4613C67.6245 42.4011 67.6238 42.3205 67.6371 42.2183ZM68.2046 43.4244L66.5075 43.1252L66.4674 43.3476L68.1649 43.6472L68.2046 43.4244ZM66.7254 45.3083L66.7247 45.3082H66.7254L66.7254 45.3083ZM66.922 45.3529L66.7254 45.3083L66.6118 45.795L66.2966 45.7234C66.2649 45.6666 66.2415 45.5895 66.2248 45.49C66.2091 45.3915 66.2119 45.2948 66.2339 45.1994C66.2593 45.0902 66.3081 44.9928 66.3799 44.9067C66.4514 44.8213 66.5438 44.7635 66.6564 44.7359C66.7697 44.7084 66.9011 44.7115 67.051 44.7456C67.173 44.7735 67.2804 44.8203 67.3753 44.886C67.4293 44.9243 67.4771 44.9721 67.5168 45.0286C67.5572 45.0851 67.5841 45.1529 67.598 45.2331C67.6116 45.3137 67.6071 45.4036 67.5837 45.5034C67.5639 45.5871 67.5314 45.6601 67.4865 45.7217C67.4408 45.784 67.3892 45.8274 67.332 45.8532C67.2738 45.8787 67.1995 45.8946 67.1089 45.9001L67.1169 46.1104C67.2368 46.108 67.3383 46.087 67.4213 46.0478C67.5042 46.0092 67.5768 45.9452 67.6392 45.8574C67.7009 45.7696 67.7458 45.6656 67.7737 45.5461C67.8124 45.3801 67.8124 45.2262 67.773 45.084C67.7343 44.9422 67.6514 44.8213 67.5259 44.7215C67.3997 44.6213 67.255 44.5531 67.0918 44.5159C66.9273 44.4784 66.7697 44.4784 66.6201 44.5159C66.4713 44.5524 66.3447 44.6306 66.244 44.7469C66.1415 44.864 66.0718 45.0042 66.0337 45.167C66.0055 45.2875 66.0003 45.4101 66.0167 45.5351C66.0337 45.6597 66.0738 45.7858 66.1355 45.9135L66.7578 46.0554L66.922 45.3529ZM67.27 47.163L65.849 45.9985L65.7716 46.2254L66.2063 46.5656L65.9734 47.245L65.4149 47.266L65.3313 47.5091L67.1891 47.3979L67.27 47.163ZM66.1718 47.2364L66.3604 46.6868L66.7791 47.0236C66.8697 47.0955 66.9642 47.1603 67.0632 47.2178C66.9642 47.2147 66.8377 47.2147 66.6825 47.2195L66.1718 47.2364ZM66.8823 48.3096L65.2786 47.685L65.195 47.8951L65.9068 48.1726L65.8103 48.415C65.7883 48.469 65.7702 48.5073 65.7562 48.5283C65.735 48.5579 65.7081 48.5844 65.6754 48.6075C65.6422 48.6312 65.5931 48.6526 65.5261 48.6729C65.4592 48.6922 65.3651 48.7139 65.2445 48.7369L64.8272 48.8161L64.7226 49.0785L65.2685 48.9748C65.3759 48.9535 65.4704 48.9232 65.5513 48.8843C65.5889 48.8657 65.6325 48.834 65.682 48.7893C65.6426 48.949 65.6468 49.0806 65.6956 49.1835C65.7451 49.2865 65.8263 49.3605 65.94 49.4049C66.0285 49.439 66.1178 49.4486 66.2077 49.4335C66.298 49.418 66.3726 49.3787 66.4305 49.3168C66.4887 49.2544 66.5459 49.1532 66.6024 49.0117L66.8823 48.3096ZM65.911 48.6939L66.0906 48.2442L66.6215 48.4508L66.4218 48.9514C66.375 49.0685 66.3168 49.1449 66.2461 49.1797C66.1756 49.2148 66.1021 49.2172 66.0264 49.1876C65.9745 49.1673 65.9323 49.1346 65.8995 49.0898C65.8661 49.0444 65.85 48.9917 65.8518 48.9301C65.8532 48.8681 65.873 48.7899 65.911 48.6939ZM64.6331 49.2796L64.633 49.2796L64.6333 49.2792L64.6331 49.2796ZM64.6331 49.2796L64.5388 49.4848L65.2364 49.7964L65.1273 50.034C65.1033 50.087 65.0834 50.1242 65.0681 50.1448C65.0451 50.1727 65.0168 50.1986 64.9833 50.2196C64.9492 50.2413 64.8986 50.2609 64.8306 50.2777C64.7627 50.2936 64.6685 50.3112 64.5465 50.3284L64.1257 50.3872L64.0079 50.6438L64.5591 50.567C64.6671 50.5511 64.7627 50.5253 64.846 50.4905C64.8843 50.474 64.9293 50.4444 64.9806 50.4014C64.9335 50.5601 64.931 50.6906 64.975 50.7963C65.0193 50.9017 65.0966 50.9791 65.2079 51.0291C65.294 51.0673 65.3832 51.0814 65.4742 51.0707C65.5648 51.0594 65.6409 51.0242 65.7022 50.9647C65.7629 50.9054 65.8253 50.8066 65.8887 50.6682L66.2035 49.9809L64.6331 49.2796ZM65.2145 50.3177L65.416 49.877L65.9365 50.1094L65.7116 50.5997C65.659 50.7144 65.5973 50.7873 65.5251 50.819C65.4526 50.851 65.3794 50.8497 65.3051 50.8163C65.2542 50.7935 65.2134 50.7591 65.1831 50.7126C65.1521 50.6658 65.1385 50.6121 65.1434 50.5505C65.1479 50.4888 65.1713 50.412 65.2145 50.3177ZM65.4135 51.6392L63.8789 50.8638L63.7747 51.0649L65.3093 51.8406L65.4135 51.6392ZM63.6282 53.1191L63.4532 53.0192L63.2005 53.4524L62.9205 53.293C62.9073 53.2303 62.9073 53.1497 62.9205 53.0499C62.9348 52.9514 62.9659 52.8588 63.015 52.7741C63.0715 52.677 63.1468 52.5978 63.2409 52.5361C63.3344 52.4745 63.44 52.4463 63.5557 52.4525C63.6722 52.4583 63.7973 52.499 63.9305 52.5751C64.0389 52.636 64.1278 52.7121 64.1993 52.8023C64.2397 52.8546 64.2715 52.9139 64.2927 52.9793C64.315 53.0451 64.3203 53.118 64.3105 53.1979C64.2997 53.2795 64.2687 53.3642 64.2167 53.4531C64.1738 53.5278 64.1212 53.5877 64.0598 53.6335C63.9978 53.6803 63.9357 53.7072 63.8733 53.7154C63.8099 53.7234 63.7346 53.7165 63.646 53.6955L63.5916 53.8997C63.707 53.9317 63.8106 53.9406 63.9016 53.9275C63.9926 53.9138 64.0804 53.8735 64.1662 53.8074C64.2509 53.7413 64.3248 53.6545 64.3865 53.5481C64.4726 53.4007 64.5172 53.2537 64.5218 53.106C64.5263 52.959 64.4834 52.8195 64.3924 52.688C64.3007 52.5561 64.1826 52.4494 64.0372 52.3667C63.8911 52.2831 63.7402 52.2383 63.5861 52.2311C63.4327 52.2238 63.289 52.2617 63.1576 52.3444C63.0262 52.427 62.9177 52.541 62.8334 52.6863C62.771 52.7934 62.7295 52.9087 62.7089 53.0333C62.6887 53.1573 62.6898 53.2895 62.7107 53.4297L63.2646 53.7437L63.6282 53.1191ZM63.4484 54.9571L62.4269 53.4383L62.2867 53.6325L62.6043 54.0825L62.1839 54.6668L61.6421 54.528L61.4915 54.737L63.3033 55.1588L63.4484 54.9571ZM62.376 54.7153L62.7166 54.2422L63.0196 54.6844C63.0851 54.7787 63.1566 54.8672 63.2346 54.9505C63.1409 54.9192 63.0195 54.8837 62.8696 54.8441L62.376 54.7153ZM62.7504 55.9466L61.3946 54.8951L61.2534 55.0724L61.8555 55.5397L61.6927 55.7449C61.6561 55.7907 61.6282 55.8216 61.608 55.8385C61.579 55.8602 61.5456 55.8785 61.5079 55.8912C61.4696 55.9043 61.4152 55.9112 61.3458 55.9112C61.2754 55.9112 61.1799 55.9057 61.0568 55.8933L60.6343 55.8513L60.4582 56.0727L61.0115 56.1281C61.1199 56.1377 61.2193 56.1357 61.3085 56.1215C61.3496 56.114 61.4005 56.0961 61.4605 56.0668C61.3768 56.2093 61.3427 56.3361 61.3601 56.449C61.3772 56.5612 61.4337 56.6552 61.5299 56.73C61.6045 56.7875 61.6871 56.8219 61.7784 56.8329C61.8691 56.8436 61.9517 56.8274 62.0253 56.784C62.0992 56.741 62.1832 56.6597 62.2784 56.5402L62.7504 55.9466ZM61.708 56.0406L62.0106 55.6602L62.4593 56.0083L62.1222 56.4321C62.0441 56.5303 61.966 56.5867 61.8879 56.6005C61.8105 56.6146 61.7391 56.596 61.6749 56.5461C61.6313 56.5123 61.6006 56.4686 61.5818 56.4163C61.563 56.3643 61.5637 56.3085 61.5829 56.25C61.602 56.1914 61.6435 56.1216 61.708 56.0406ZM61.6212 57.3583L60.3181 56.2438L60.3177 56.2441L60.1682 56.4142L60.7469 56.9097L60.574 57.107C60.5349 57.1507 60.5053 57.1807 60.4851 57.1962C60.4551 57.2168 60.4206 57.233 60.3819 57.244C60.3432 57.2551 60.2891 57.2599 60.2194 57.2561C60.1497 57.253 60.0538 57.2427 59.9318 57.2248L59.5117 57.1628L59.3252 57.3756L59.8753 57.4568C59.9834 57.4723 60.0824 57.4747 60.172 57.4644C60.2138 57.4589 60.2658 57.4434 60.3271 57.4169C60.2365 57.5553 60.1967 57.6806 60.2079 57.7939C60.2197 57.9072 60.2717 58.0036 60.3644 58.0828C60.4355 58.1441 60.5171 58.182 60.6074 58.1975C60.6977 58.2123 60.7807 58.2002 60.8563 58.1603C60.932 58.1203 61.0198 58.0432 61.1209 57.9289L61.6212 57.3583ZM60.5757 57.4028L60.8964 57.0371L61.3284 57.4059L60.971 57.8132C60.8877 57.9082 60.8068 57.9606 60.7291 57.9705C60.65 57.9809 60.5806 57.9588 60.5185 57.9062C60.4763 57.87 60.4474 57.8256 60.4321 57.7722C60.4153 57.7188 60.4185 57.6631 60.4404 57.6056C60.4631 57.5481 60.5074 57.4806 60.5757 57.4028ZM60.3899 58.7277L59.1422 57.5525L58.9839 57.7164L60.232 58.8909L60.3899 58.7277ZM58.2563 59.6477L58.1165 59.5035L57.7508 59.8481L57.5277 59.6174C57.5333 59.553 57.5566 59.4756 57.5978 59.3836C57.6396 59.2927 57.6961 59.2135 57.7675 59.1461C57.8495 59.0686 57.945 59.0138 58.052 58.9808C58.1597 58.9477 58.2688 58.9505 58.3787 58.9884C58.4885 59.0269 58.5966 59.1006 58.7025 59.2111C58.7893 59.3003 58.8528 59.3981 58.895 59.5038C58.919 59.5654 58.9323 59.6312 58.934 59.7001C58.9361 59.7693 58.9208 59.8409 58.8877 59.9149C58.8542 59.9896 58.8002 60.0619 58.7255 60.1332C58.6621 60.1924 58.5945 60.2355 58.5223 60.2623C58.4498 60.2892 58.3825 60.2978 58.3201 60.2885C58.2573 60.2782 58.1869 60.251 58.1078 60.2059L57.9976 60.3863C58.0991 60.4493 58.1956 60.4868 58.287 60.4996C58.3776 60.5116 58.4735 60.4985 58.5746 60.4589C58.6753 60.419 58.7705 60.3567 58.8608 60.272C58.9849 60.1546 59.0707 60.0261 59.1171 59.886C59.1638 59.7459 59.1624 59.6006 59.1129 59.4484C59.0634 59.2965 58.9804 59.1609 58.8647 59.0407C58.7479 58.9198 58.6168 58.8341 58.4711 58.7845C58.3257 58.7346 58.1772 58.7305 58.0276 58.7732C57.8773 58.8155 57.7407 58.8947 57.6183 59.01C57.5277 59.0951 57.4548 59.1946 57.3997 59.3082C57.3443 59.4215 57.307 59.5486 57.2875 59.6887L57.7285 60.1449L58.2563 59.6477ZM57.5629 61.3652L57.018 59.6226L56.8273 59.771L57.0033 60.2906L56.4326 60.7337L55.9526 60.4493L55.7486 60.608L57.3656 61.5184L57.5629 61.3652ZM56.6031 60.8336L57.0651 60.4751L57.2293 60.9833C57.2655 61.0925 57.3087 61.1979 57.3596 61.2991C57.2784 61.243 57.1724 61.1751 57.04 61.0949L56.6031 60.8336ZM56.6118 62.1217L55.6123 60.7344L55.4265 60.8656L55.87 61.4816L55.6545 61.6327C55.6064 61.6665 55.5709 61.6885 55.5464 61.6988C55.5123 61.7123 55.4753 61.7198 55.4356 61.7216C55.3948 61.7233 55.3411 61.715 55.2742 61.6954C55.2072 61.6758 55.1169 61.6437 55.0029 61.598L54.609 61.4396L54.3765 61.6024L54.8917 61.8101C54.9932 61.8503 55.0887 61.8755 55.1783 61.8868C55.2205 61.8913 55.2742 61.8882 55.3408 61.8769C55.2191 61.9901 55.1501 62.1024 55.1344 62.2153C55.1187 62.3283 55.1459 62.4336 55.2166 62.5324C55.2714 62.6085 55.3415 62.6647 55.4255 62.7005C55.5098 62.7359 55.5939 62.7435 55.6768 62.7225C55.7598 62.7018 55.8637 62.6474 55.9888 62.5593L56.6118 62.1217ZM55.5855 61.9209L55.9843 61.6406L56.3152 62.1L55.871 62.4119C55.7668 62.4849 55.6761 62.5169 55.5977 62.5087C55.5189 62.4997 55.4562 62.4622 55.4087 62.3968C55.377 62.3517 55.3596 62.3021 55.3568 62.2463C55.3533 62.1905 55.37 62.1375 55.4053 62.0869C55.4405 62.0356 55.5001 61.9805 55.5855 61.9209ZM55.1257 63.1636L54.1955 61.7302L54.0031 61.8521L54.4159 62.4884L54.1938 62.6295C54.1439 62.6609 54.107 62.6808 54.0826 62.6905C54.0477 62.7018 54.0108 62.7077 53.9703 62.7077C53.9299 62.7077 53.8765 62.6963 53.8103 62.674C53.7448 62.6512 53.6562 62.6144 53.5443 62.5634L53.1587 62.3868L52.9185 62.539L53.4233 62.7704C53.5227 62.8151 53.6165 62.8447 53.7061 62.8602C53.7475 62.8671 53.8019 62.8664 53.8682 62.8585C53.7413 62.9659 53.667 63.0744 53.6458 63.1866C53.6248 63.2986 53.6468 63.4056 53.7127 63.5072C53.7636 63.5861 53.8305 63.6453 53.9124 63.6849C53.9954 63.7245 54.0784 63.7358 54.1624 63.719C54.2464 63.7024 54.3531 63.6525 54.4824 63.5706L55.1257 63.1636ZM54.1108 62.9143L54.5229 62.653L54.8311 63.1274L54.3716 63.418C54.2649 63.4855 54.1722 63.5134 54.0944 63.5014C54.0163 63.489 53.9553 63.4483 53.9114 63.3808C53.8811 63.3347 53.8664 63.2834 53.8664 63.228C53.8661 63.1722 53.8849 63.1202 53.9229 63.0706C53.9602 63.0221 54.0226 62.9694 54.1108 62.9143ZM53.5534 64.1359L52.6944 62.6602L52.496 62.7724L53.355 64.2482L53.5534 64.1359ZM51.2444 64.4245L51.152 64.2465V64.2472L50.702 64.4747L50.5548 64.191C50.5782 64.1301 50.6225 64.0626 50.6887 63.9862C50.7546 63.9111 50.832 63.8505 50.9195 63.8061C51.021 63.7548 51.1276 63.729 51.2402 63.7276C51.3532 63.7262 51.4567 63.7593 51.5512 63.8264C51.645 63.8939 51.7276 63.9951 51.7977 64.1311C51.8545 64.2406 51.8876 64.3518 51.8978 64.4661C51.9026 64.5316 51.8964 64.5984 51.8786 64.6648C51.8611 64.7316 51.8259 64.7957 51.7726 64.8576C51.7189 64.9203 51.646 64.9744 51.554 65.0215C51.4766 65.0604 51.3989 65.0828 51.3222 65.088C51.2444 65.0938 51.1782 65.0835 51.1207 65.0563C51.0635 65.0291 51.0035 64.983 50.9408 64.9179L50.7829 65.0597C50.8623 65.1482 50.9439 65.2116 51.0279 65.2491C51.1116 65.2867 51.2075 65.3008 51.3155 65.2908C51.4233 65.2811 51.5331 65.2481 51.644 65.192C51.797 65.1148 51.9159 65.0153 52.0006 64.8941C52.086 64.7733 52.1261 64.6328 52.1226 64.4734C52.1188 64.3136 52.0783 64.1607 52.002 64.013C51.9249 63.8646 51.8235 63.7455 51.698 63.6566C51.5732 63.5682 51.4323 63.5227 51.2761 63.5213C51.12 63.5199 50.9669 63.5571 50.816 63.6336C50.7048 63.6897 50.6061 63.7648 50.5203 63.8581C50.4346 63.9514 50.3628 64.0623 50.3035 64.1914L50.5949 64.7526L51.2444 64.4245ZM50.1588 65.8438L50.0518 64.023L49.8308 64.1215L49.8757 64.6679L49.2147 64.963L48.8173 64.5743L48.5809 64.6796L49.9305 65.9457L50.1588 65.8438ZM49.3559 65.1007L49.8911 64.8618L49.9277 65.3941C49.936 65.5087 49.9528 65.621 49.9775 65.7315C49.9123 65.6582 49.8255 65.5666 49.7168 65.4578L49.3559 65.1007ZM48.9543 66.3485L48.4017 64.7357L48.1849 64.808L48.4307 65.5242L48.1804 65.6082C48.1246 65.6268 48.0838 65.6375 48.0577 65.641C48.0214 65.6437 47.9837 65.6403 47.9447 65.631C47.9053 65.6206 47.8565 65.5979 47.7979 65.5597C47.7394 65.5222 47.662 65.4657 47.5661 65.3896L47.2353 65.1259L46.9651 65.2161L47.3984 65.5611C47.4835 65.6282 47.5675 65.6799 47.6505 65.716C47.6892 65.7322 47.7418 65.7449 47.808 65.7525C47.6592 65.8265 47.5602 65.9143 47.5124 66.018C47.4643 66.1216 47.4598 66.2308 47.4988 66.3454C47.5295 66.4336 47.58 66.5073 47.6501 66.5655C47.7202 66.6233 47.7986 66.6546 47.8837 66.6581C47.9695 66.6619 48.0852 66.6391 48.2309 66.5906L48.9543 66.3485ZM48.0301 65.8644L48.4938 65.7095L48.6768 66.2432L48.1602 66.4153C48.0402 66.4563 47.9437 66.4611 47.8704 66.4305C47.7979 66.4002 47.7488 66.3461 47.7226 66.2704C47.7045 66.2177 47.7028 66.1647 47.7164 66.111C47.7293 66.0569 47.761 66.0104 47.8091 65.9718C47.8582 65.9333 47.9315 65.8978 48.0301 65.8644ZM47.2283 66.9325L46.7569 65.2946L46.5373 65.3566L46.7465 66.0834L46.492 66.1547C46.4355 66.1709 46.394 66.1795 46.3682 66.1819C46.3313 66.1829 46.294 66.1778 46.256 66.166C46.2169 66.1543 46.1688 66.1285 46.1123 66.0882C46.0562 66.0476 45.9816 65.9873 45.8896 65.9061L45.5723 65.6268L45.2983 65.704L45.7132 66.0696C45.7951 66.1413 45.8767 66.1963 45.9575 66.2366C45.9955 66.2549 46.0475 66.2704 46.1134 66.281C45.961 66.3478 45.8575 66.4305 45.8045 66.5314C45.7519 66.6329 45.7411 66.7417 45.7745 66.8581C45.8007 66.948 45.8477 67.0237 45.9147 67.0854C45.9819 67.1467 46.0583 67.1811 46.1434 67.1894C46.2288 67.1969 46.3452 67.1804 46.493 67.1387L47.2283 66.9325ZM46.3295 66.4033L46.8002 66.2718L46.9567 66.8137L46.4324 66.9607C46.3097 66.9952 46.2131 66.9955 46.142 66.9611C46.0709 66.927 46.0241 66.8709 46.0022 66.7934C45.9865 66.7407 45.9875 66.6877 46.0039 66.6347C46.0196 66.5813 46.0531 66.5365 46.1036 66.5004C46.1538 66.4639 46.2291 66.4315 46.3295 66.4033ZM45.4374 67.4238L45.0501 65.7649L44.8266 65.8155L45.2139 67.4745L45.4374 67.4238Z" fill="#00053C"/>
<path fill-rule="evenodd" clip-rule="evenodd" d="M33.936 36.6429H27.1429C27.3052 35.0922 27.82 33.6676 28.6867 32.3711C29.7537 30.7747 31.2326 29.5248 33.1233 28.6207C33.2649 28.5528 33.4079 28.4877 33.5516 28.4253L33.5513 28.3529L33.5325 24.4286L37.9716 24.4448V27.3293C38.3762 27.2938 38.7872 27.2727 39.2069 27.2669L39.2433 24.4448L43.6088 24.4453L43.6276 27.8253C43.9339 27.9085 44.2409 28.0001 44.5476 28.1012C46.2375 28.6592 47.6736 29.4189 48.8571 30.3805L45.1181 34.4768C44.3576 33.804 43.4646 33.2652 42.4399 32.8612C41.4159 32.4573 40.4174 32.2556 39.4456 32.2556C38.389 32.2556 37.4333 32.4955 36.5775 32.9771C35.722 33.4579 35.0508 34.1163 34.5651 34.9528C34.2588 35.4797 34.049 36.0432 33.936 36.6429Z" fill="#00053C"/>
<path fill-rule="evenodd" clip-rule="evenodd" d="M42.8386 48.9895L42.8037 52.9114H38.6438V49.6612C38.5886 49.6612 38.5338 49.662 38.4793 49.662C38.1377 49.662 37.8025 49.6496 37.4716 49.6247V52.9286L33.2772 52.9114V48.6343C33.2772 48.5942 33.2776 48.5544 33.2786 48.5153C33.0749 48.416 32.8736 48.3098 32.6754 48.1981C30.9514 47.2215 29.5984 45.881 28.6162 44.1762C27.6337 42.4706 27.1429 40.5496 27.1429 38.4129C27.1429 38.2742 27.1447 38.1369 27.1495 38H33.5593C33.5518 38.1358 33.5479 38.2738 33.5479 38.4129C33.5479 39.522 33.783 40.5292 34.2542 41.4331C34.7254 42.3377 35.3723 43.0459 36.1936 43.5596C37.0157 44.0732 37.9279 44.3302 38.9302 44.3302C39.8328 44.3302 40.8946 44.0323 42.1177 43.4362V38.0434H47.5V46.8269C46.3577 47.6483 44.944 48.3262 43.2603 48.8607C43.1189 48.9052 42.9782 48.9483 42.8386 48.9895Z" fill="#FFFF7D"/>
<defs>
<radialGradient id="paint0_angular_1_204" cx="0" cy="0" r="1" gradientUnits="userSpaceOnUse" gradientTransform="translate(35.8608 32.4637) rotate(163.546) scale(27.0785 17.0289)">
<stop stop-color="#FFFF7D"/>
<stop offset="0.21177" stop-color="#CECE04"/>
<stop offset="0.36863" stop-color="#FFFF7D"/>
<stop offset="0.54118" stop-color="#D2D20E"/>
<stop offset="0.72941" stop-color="#FFFF7D"/>
<stop offset="1" stop-color="#CCCC00"/>
</radialGradient>
</defs>
</svg>
