<svg width="24" height="24" viewBox="0 0 24 24" fill="none" xmlns="http://www.w3.org/2000/svg">
<g clip-path="url(#clip0_2_47)">
<path fill-rule="evenodd" clip-rule="evenodd" d="M5.55694 12.4833C5.55694 11.7212 5.68352 10.9905 5.90944 10.3052L1.95503 7.28546C1.18434 8.85026 0.750122 10.6135 0.750122 12.4833C0.750122 14.3516 1.1838 16.1137 1.95343 17.6775L5.9057 14.6519C5.68192 13.9697 5.55694 13.2417 5.55694 12.4833Z" fill="#FBBC05"/>
<path fill-rule="evenodd" clip-rule="evenodd" d="M12.5001 5.55C14.1558 5.55 15.6512 6.13667 16.8262 7.09667L20.2444 3.68333C18.1615 1.87 15.491 0.75 12.5001 0.75C7.85672 0.75 3.86599 3.40547 1.95502 7.28547L5.90943 10.3052C6.82059 7.53933 9.41787 5.55 12.5001 5.55Z" fill="#EB4335"/>
<path fill-rule="evenodd" clip-rule="evenodd" d="M12.5001 19.4166C9.41787 19.4166 6.82059 17.4273 5.90943 14.6614L1.95502 17.6806C3.86599 21.5612 7.85672 24.2166 12.5001 24.2166C15.366 24.2166 18.1022 23.199 20.1558 21.2924L16.4022 18.3905C15.3431 19.0577 14.0094 19.4166 12.5001 19.4166Z" fill="#34A853"/>
<path fill-rule="evenodd" clip-rule="evenodd" d="M23.716 12.4833C23.716 11.79 23.6092 11.0433 23.449 10.35H12.5001V14.8833H18.8024C18.4873 16.4289 17.6295 17.6172 16.4022 18.3905L20.1558 21.2924C22.313 19.2902 23.716 16.3078 23.716 12.4833Z" fill="#4285F4"/>
</g>
<defs>
<clipPath id="clip0_2_47">
<rect width="24" height="24" fill="white"/>
</clipPath>
</defs>
</svg>
