<svg width="75" height="76" viewBox="0 0 75 76" fill="none" xmlns="http://www.w3.org/2000/svg">
<path d="M0.5 6.5C0.5 3.46243 2.96243 1 6 1H69C72.0376 1 74.5 3.46243 74.5 6.5V69.5C74.5 72.5376 72.0376 75 69 75H6C2.96243 75 0.5 72.5376 0.5 69.5V6.5Z" stroke="#828F9B"/>
<g clip-path="url(#clip0_1_351)">
<path fill-rule="evenodd" clip-rule="evenodd" d="M20.5871 39.2687C20.5871 37.2681 20.9194 35.3501 21.5124 33.5511L11.1321 25.6243C9.10906 29.7319 7.96924 34.3603 7.96924 39.2687C7.96924 44.1729 9.10765 48.7985 11.1279 52.9033L21.5026 44.9611C20.9152 43.1705 20.5871 41.2595 20.5871 39.2687Z" fill="#FBBC05"/>
<path fill-rule="evenodd" clip-rule="evenodd" d="M38.8132 21.0687C43.1594 21.0687 47.0849 22.6087 50.1693 25.1287L59.142 16.1688C53.6743 11.4088 46.6643 8.46875 38.8132 8.46875C26.6243 8.46875 16.1486 15.4393 11.1323 25.6244L21.5126 33.5512C23.9044 26.2908 30.7223 21.0687 38.8132 21.0687Z" fill="#EB4335"/>
<path fill-rule="evenodd" clip-rule="evenodd" d="M38.8132 57.4687C30.7223 57.4687 23.9044 52.2467 21.5126 44.9863L11.1323 52.9117C16.1486 63.0981 26.6243 70.0687 38.8132 70.0687C46.3363 70.0687 53.5186 67.3975 58.9093 62.3925L49.0561 54.7751C46.276 56.5265 42.7752 57.4687 38.8132 57.4687Z" fill="#34A853"/>
<path fill-rule="evenodd" clip-rule="evenodd" d="M68.2547 39.2688C68.2547 37.4488 67.9743 35.4888 67.5538 33.6688H38.813V45.5688H55.3565C54.5293 49.626 52.2777 52.7452 49.0559 54.7752L58.9091 62.3926C64.5717 57.137 68.2547 49.3082 68.2547 39.2688Z" fill="#4285F4"/>
</g>
<defs>
<clipPath id="clip0_1_351">
<rect width="63" height="63" fill="white" transform="translate(6 6.5)"/>
</clipPath>
</defs>
</svg>
