<svg width="24" height="25" viewBox="0 0 24 25" fill="none" xmlns="http://www.w3.org/2000/svg">
<path d="M13.1903 9.18842C13.6393 9.40291 14.0601 9.69611 14.432 10.068C16.1893 11.8254 16.1893 14.6746 14.432 16.432L9.93198 20.932C8.17462 22.6893 5.32538 22.6893 3.56802 20.932C1.81066 19.1746 1.81066 16.3254 3.56802 14.568L5.32499 12.811M18.675 12.189L20.432 10.432C22.1893 8.67462 22.1893 5.82538 20.432 4.06802C18.6746 2.31066 15.8254 2.31066 14.068 4.06802L9.56802 8.56802C7.81066 10.3254 7.81066 13.1746 9.56802 14.932C9.93992 15.3039 10.3607 15.5971 10.8097 15.8116" stroke="#090A0B" stroke-width="1.5" stroke-linecap="round" stroke-linejoin="round"/>
</svg>
