<svg width="24" height="24" viewBox="0 0 24 24" fill="none" xmlns="http://www.w3.org/2000/svg">
<path d="M6.41869 24C2.34384 24 0 21.2762 0 16.5407V7.45947C0 2.72503 2.34384 0 6.41869 0H17.5813C21.6562 0 24 2.72503 24 7.45947V16.5407C24 21.2762 21.6562 24 17.5813 24H6.41869ZM1.67475 7.45947V16.5407C1.67475 20.251 3.22592 22.0538 6.41869 22.0538H17.5813C20.7741 22.0538 22.3253 20.251 22.3253 16.5407V7.45947C22.3253 3.74898 20.7741 1.94638 17.5813 1.94638H6.41869C3.22592 1.94638 1.67475 3.74898 1.67475 7.45947ZM9.49592 12.0864L6.00176 8.84416C5.64511 8.50669 5.5778 7.89606 5.86814 7.48164C6.15848 7.06595 6.68291 6.98899 7.04056 7.32629L10.5347 10.5687C11.3826 11.3602 12.8223 11.3602 13.6712 10.5687L17.1654 7.32629C17.522 6.98899 18.0575 7.05312 18.3368 7.48164C18.6272 7.89606 18.5719 8.51952 18.2032 8.84416L14.709 12.0864C13.9947 12.7741 13.0463 13.1116 12.108 13.1116C11.1707 13.1116 10.2213 12.7741 9.49592 12.0864Z" fill="#FCFCFC"/>
</svg>
