<svg width="21" height="21" viewBox="0 0 21 21" fill="none" xmlns="http://www.w3.org/2000/svg">
<path fill-rule="evenodd" clip-rule="evenodd" d="M1.75 4.55005C1.75 3.16934 2.86929 2.05005 4.25 2.05005H5.39302C6.11 2.05005 6.73498 2.53801 6.90887 3.23359L7.83037 6.91957C7.98284 7.52947 7.75495 8.17134 7.25202 8.54854L6.174 9.35705C6.06206 9.44101 6.03772 9.56395 6.06917 9.64979C7.01542 12.233 9.0671 14.2846 11.6503 15.2309C11.7361 15.2623 11.859 15.238 11.943 15.126L12.7515 14.048C13.1287 13.5451 13.7706 13.3172 14.3805 13.4697L18.0665 14.3912C18.762 14.5651 19.25 15.19 19.25 15.907V17.05C19.25 18.4308 18.1307 19.55 16.75 19.55H14.875C7.62626 19.55 1.75 13.6738 1.75 6.42505L1.75 4.55005Z" fill="#080E52"/>
</svg>
