<svg width="37" height="36" viewBox="0 0 37 36" fill="none" xmlns="http://www.w3.org/2000/svg">
<path fill-rule="evenodd" clip-rule="evenodd" d="M18.4996 32.4C26.4525 32.4 32.8996 25.9529 32.8996 18C32.8996 10.0471 26.4525 3.59998 18.4996 3.59998C10.5467 3.59998 4.09961 10.0471 4.09961 18C4.09961 25.9529 10.5467 32.4 18.4996 32.4ZM19.8496 12.15C19.8496 11.4044 19.2452 10.8 18.4996 10.8C17.754 10.8 17.1496 11.4044 17.1496 12.15V16.65H12.6496C11.904 16.65 11.2996 17.2544 11.2996 18C11.2996 18.7456 11.904 19.35 12.6496 19.35H17.1496V23.85C17.1496 24.5956 17.754 25.2 18.4996 25.2C19.2452 25.2 19.8496 24.5956 19.8496 23.85V19.35H24.3496C25.0952 19.35 25.6996 18.7456 25.6996 18C25.6996 17.2544 25.0952 16.65 24.3496 16.65H19.8496V12.15Z" fill="#0F172A"/>
</svg>
