<svg width="42" height="26" viewBox="0 0 42 26" fill="none" xmlns="http://www.w3.org/2000/svg">
<rect x="0.5" y="0.5" width="40.9978" height="25" rx="3.5" stroke="#151C71"/>
<path d="M20.91 20L16.01 15.1C15.6211 15.4111 15.1739 15.6574 14.6683 15.8389C14.1628 16.0204 13.6248 16.1111 13.0545 16.1111C11.6415 16.1111 10.4458 15.6216 9.46735 14.6427C8.4889 13.6637 7.99942 12.468 7.9989 11.0556C7.99838 9.64311 8.48786 8.44741 9.46735 7.46844C10.4468 6.48948 11.6425 6 13.0545 6C14.4664 6 15.6623 6.48948 16.6423 7.46844C17.6223 8.44741 18.1116 9.64311 18.11 11.0556C18.11 11.6259 18.0193 12.1639 17.8378 12.6694C17.6563 13.175 17.41 13.6222 17.0989 14.0111L21.9989 18.9111L20.91 20ZM13.0545 14.5556C14.0267 14.5556 14.8532 14.2154 15.534 13.5351C16.2148 12.8548 16.555 12.0283 16.5545 11.0556C16.5539 10.0828 16.2138 9.25656 15.534 8.57678C14.8542 7.897 14.0277 7.55659 13.0545 7.55556C12.0812 7.55452 11.2549 7.89493 10.5757 8.57678C9.89642 9.25863 9.55601 10.0849 9.55446 11.0556C9.5529 12.0262 9.89331 12.8527 10.5757 13.5351C11.2581 14.2175 12.0843 14.5576 13.0545 14.5556Z" fill="#151C71"/>
<path d="M26.4987 16.0001H29.4991C29.6903 16.0003 29.8742 16.0735 30.0132 16.2047C30.1522 16.336 30.2359 16.5153 30.2471 16.7062C30.2583 16.8971 30.1962 17.085 30.0735 17.2316C29.9508 17.3782 29.7767 17.4724 29.5869 17.495L29.4991 17.5003H26.4987C26.3075 17.5001 26.1236 17.4269 25.9846 17.2956C25.8456 17.1644 25.7619 16.985 25.7507 16.7941C25.7395 16.6033 25.8016 16.4153 25.9243 16.2687C26.047 16.1221 26.2211 16.0279 26.4109 16.0053L26.4987 16.0001ZM24.9985 12.2495H30.9993C31.1905 12.2498 31.3744 12.323 31.5134 12.4542C31.6524 12.5855 31.7361 12.7648 31.7473 12.9557C31.7585 13.1465 31.6964 13.3345 31.5737 13.4811C31.451 13.6277 31.2769 13.7219 31.0871 13.7445L30.9993 13.7498H24.9985C24.8073 13.7495 24.6234 13.6763 24.4844 13.5451C24.3454 13.4138 24.2617 13.2345 24.2505 13.0436C24.2393 12.8527 24.3014 12.6648 24.4241 12.5182C24.5468 12.3716 24.7209 12.2774 24.9107 12.2548L24.9985 12.2495ZM22.7482 8.49902H33.2496C33.4408 8.49924 33.6247 8.57244 33.7637 8.70369C33.9027 8.83493 33.9864 9.01431 33.9976 9.20517C34.0088 9.39603 33.9467 9.58396 33.824 9.73057C33.7013 9.87718 33.5272 9.9714 33.3374 9.99398L33.2496 9.99923H22.7482C22.557 9.99902 22.3731 9.92581 22.2341 9.79457C22.0951 9.66332 22.0114 9.48395 22.0002 9.29309C21.989 9.10223 22.0511 8.9143 22.1738 8.76769C22.2965 8.62108 22.4706 8.52686 22.6604 8.50427L22.7482 8.49902Z" fill="#151C71"/>
</svg>
