<svg width="88" height="84" viewBox="0 0 88 84" fill="none" xmlns="http://www.w3.org/2000/svg">
<path d="M2 10C2 5.58172 5.58172 2 10 2H77.5378C81.9561 2 85.5378 5.58172 85.5378 10V74C85.5378 78.4183 81.9561 82 77.5378 82H10C5.58172 82 2 78.4183 2 74V10Z" stroke="#FCFCFC" stroke-width="3"/>
<path d="M73.5358 67.2136C73.5358 68.7528 72.1975 70 70.5455 70H16.9903C15.3385 70 14 68.7528 14 67.2136C14 65.6743 15.3385 64.4272 16.9903 64.4272H18.2522V35.4736C19.8024 35.4736 21.2701 35.0022 22.4913 34.2084C23.3126 34.7472 24.2571 35.1447 25.3035 35.339C25.7919 35.4291 26.2805 35.4736 26.7609 35.4736C27.0814 35.4736 27.3951 35.4404 27.7064 35.4025V56.9399C27.7064 58.1691 28.776 59.1656 30.0961 59.1656H38.6992V53.0355L35.6531 57.7726C35.2959 58.3293 34.6628 58.6375 34.0135 58.6375C33.6806 58.6375 33.3417 58.5559 33.0342 58.3842C32.1304 57.8789 31.8363 56.7871 32.3788 55.9441L38.4631 46.4813C38.8457 45.8866 39.5399 45.5936 40.234 45.6381C40.2767 45.6352 47.2802 45.6362 47.326 45.6401C48.0109 45.6041 48.6948 45.8941 49.0715 46.4813L55.1556 55.9441C55.6982 56.7871 55.4041 57.8789 54.5003 58.3842C54.1928 58.5559 53.8539 58.6375 53.5211 58.6375C52.8717 58.6375 52.2387 58.3293 51.8814 57.7726L48.8547 53.0657V59.1656H57.4395C58.7594 59.1656 59.8292 58.169 59.8292 56.94V35.4025C60.1406 35.4404 60.4541 35.4736 60.7747 35.4736C61.2582 35.4736 61.7465 35.4291 62.2271 35.34C63.2742 35.1455 64.2209 34.7472 65.0433 34.2084C66.2645 35.0022 67.7321 35.4736 69.2822 35.4736L69.2833 64.4272H70.5451C72.1971 64.4272 73.5354 65.6743 73.5358 67.2136Z" fill="#FCFCFC"/>
<path d="M47.2117 39.8839C47.2117 42.2244 45.4306 44.124 43.2332 44.124C41.0377 44.124 39.2557 42.2244 39.2557 39.8839C39.2557 37.5415 41.0377 35.6437 43.2332 35.6437C45.4306 35.6437 47.2116 37.5415 47.2117 39.8839Z" fill="#FCFCFC"/>
<path d="M14.1792 29.3361L18.0174 17.3657C18.6575 15.3685 20.6289 14 22.866 14H64.6722C66.9092 14 68.8806 15.3685 69.5207 17.3657L73.359 29.3361C74.0306 31.432 72.7522 33.6397 70.501 34.2667C70.0948 34.3785 69.6856 34.4325 69.2816 34.4325C67.4517 34.4325 65.7601 33.3222 65.2096 31.6037L64.9857 30.9066C64.7864 32.5768 63.4723 34.0106 61.6097 34.3559C61.3299 34.408 61.05 34.4326 60.775 34.4326C58.7874 34.4326 57.0115 33.1287 56.6084 31.2433L56.5046 30.7588C56.3591 32.645 54.7845 34.2194 52.6961 34.4128C52.5526 34.4261 52.4102 34.4317 52.2687 34.4317C50.1109 34.4317 48.2617 32.9068 48.0427 30.8622L48.0113 30.5681C47.9533 32.7105 46.0815 34.4317 43.7692 34.4317C41.4569 34.4317 39.5851 32.7105 39.5271 30.5681L39.4955 30.8622C39.2767 32.9068 37.4274 34.4317 35.2696 34.4317C35.1281 34.4317 34.9857 34.426 34.8421 34.4128C32.7537 34.2194 31.1802 32.645 31.0336 30.7588L30.9298 31.2433C30.5268 33.1279 28.7508 34.4326 26.7631 34.4326C26.4882 34.4326 26.2083 34.408 25.9285 34.3559C24.0659 34.0106 22.753 32.5768 22.5525 30.9066L22.3286 31.6037C21.7782 33.3221 20.0864 34.4325 18.2566 34.4325C17.8525 34.4325 17.4434 34.3786 17.0371 34.2667C14.786 33.6397 13.5076 31.432 14.1792 29.3361Z" fill="#FCFCFC"/>
</svg>
