<svg width="26" height="26" viewBox="0 0 26 26" fill="none" xmlns="http://www.w3.org/2000/svg">
<rect x="0.498047" y="0.5" width="25" height="25" rx="3.5" stroke="#151C71"/>
<path fill-rule="evenodd" clip-rule="evenodd" d="M9.77808 11.72C9.63745 11.5795 9.44683 11.5007 9.24808 11.5007C9.04933 11.5007 8.8587 11.5795 8.71808 11.72L6.21808 14.22C6.14439 14.2887 6.08529 14.3715 6.0443 14.4635C6.00331 14.5555 5.98126 14.6548 5.97949 14.7555C5.97771 14.8562 5.99623 14.9562 6.03396 15.0496C6.07168 15.143 6.12782 15.2278 6.19904 15.299C6.27026 15.3703 6.35509 15.4264 6.44848 15.4641C6.54187 15.5018 6.6419 15.5204 6.7426 15.5186C6.8433 15.5168 6.94262 15.4948 7.03462 15.4538C7.12662 15.4128 7.20942 15.3537 7.27808 15.28L8.49808 14.06V19.25C8.49808 19.4489 8.5771 19.6397 8.71775 19.7803C8.8584 19.921 9.04917 20 9.24808 20C9.44699 20 9.63776 19.921 9.77841 19.7803C9.91906 19.6397 9.99808 19.4489 9.99808 19.25V14.06L11.2181 15.28C11.2867 15.3537 11.3695 15.4128 11.4615 15.4538C11.5535 15.4948 11.6529 15.5168 11.7536 15.5186C11.8543 15.5204 11.9543 15.5018 12.0477 15.4641C12.1411 15.4264 12.2259 15.3703 12.2971 15.299C12.3683 15.2278 12.4245 15.143 12.4622 15.0496C12.4999 14.9562 12.5184 14.8562 12.5167 14.7555C12.5149 14.6548 12.4929 14.5555 12.4519 14.4635C12.4109 14.3715 12.3518 14.2887 12.2781 14.22L9.77808 11.72ZM13.7181 11.78L16.2181 14.28C16.3587 14.4205 16.5493 14.4993 16.7481 14.4993C16.9468 14.4993 17.1375 14.4205 17.2781 14.28L19.7781 11.78C19.8518 11.7113 19.9109 11.6285 19.9519 11.5365C19.9929 11.4445 20.0149 11.3452 20.0167 11.2445C20.0184 11.1438 19.9999 11.0438 19.9622 10.9504C19.9245 10.857 19.8683 10.7722 19.7971 10.701C19.7259 10.6297 19.6411 10.5736 19.5477 10.5359C19.4543 10.4982 19.3543 10.4796 19.2536 10.4814C19.1529 10.4832 19.0535 10.5052 18.9615 10.5462C18.8695 10.5872 18.7867 10.6463 18.7181 10.72L17.4981 11.94V6.75C17.4981 6.55109 17.4191 6.36032 17.2784 6.21967C17.1378 6.07902 16.947 6 16.7481 6C16.5492 6 16.3584 6.07902 16.2177 6.21967C16.0771 6.36032 15.9981 6.55109 15.9981 6.75V11.94L14.7781 10.72C14.7094 10.6463 14.6266 10.5872 14.5346 10.5462C14.4426 10.5052 14.3433 10.4832 14.2426 10.4814C14.1419 10.4796 14.0419 10.4982 13.9485 10.5359C13.8551 10.5736 13.7703 10.6297 13.699 10.701C13.6278 10.7722 13.5717 10.857 13.534 10.9504C13.4962 11.0438 13.4777 11.1438 13.4795 11.2445C13.4813 11.3452 13.5033 11.4445 13.5443 11.5365C13.5853 11.6285 13.6444 11.7113 13.7181 11.78ZM9.24808 7C9.71221 7 10.1573 7.18437 10.4855 7.51256C10.8137 7.84075 10.9981 8.28587 10.9981 8.75C10.9981 9.21413 10.8137 9.65925 10.4855 9.98744C10.1573 10.3156 9.71221 10.5 9.24808 10.5C8.78395 10.5 8.33883 10.3156 8.01064 9.98744C7.68245 9.65925 7.49808 9.21413 7.49808 8.75C7.49808 8.28587 7.68245 7.84075 8.01064 7.51256C8.33883 7.18437 8.78395 7 9.24808 7ZM18.4981 17.25C18.4981 16.7859 18.3137 16.3408 17.9855 16.0126C17.6573 15.6844 17.2122 15.5 16.7481 15.5C16.2839 15.5 15.8388 15.6844 15.5106 16.0126C15.1825 16.3408 14.9981 16.7859 14.9981 17.25C14.9981 17.7141 15.1825 18.1592 15.5106 18.4874C15.8388 18.8156 16.2839 19 16.7481 19C17.2122 19 17.6573 18.8156 17.9855 18.4874C18.3137 18.1592 18.4981 17.7141 18.4981 17.25Z" fill="#151C71"/>
</svg>
