<svg width="24" height="24" viewBox="0 0 24 24" fill="none" xmlns="http://www.w3.org/2000/svg">
<path d="M11.0999 15.9004C11.0999 16.3974 11.5028 16.8004 11.9999 16.8004C12.497 16.8004 12.8999 16.3974 12.8999 15.9004L12.8999 5.56409L16.4456 9.31835C16.7869 9.67972 17.3565 9.69599 17.7179 9.3547C18.0792 9.01341 18.0955 8.4438 17.7542 8.08243L12.6542 2.68243C12.4842 2.50241 12.2475 2.40039 11.9999 2.40039C11.7523 2.40039 11.5156 2.50241 11.3456 2.68243L6.24559 8.08243C5.9043 8.44379 5.92057 9.01341 6.28194 9.3547C6.64331 9.69599 7.21292 9.67972 7.55421 9.31835L11.0999 5.56409L11.0999 15.9004Z" fill="#0F172A"/>
<path d="M4.1999 15.3004C4.1999 14.8033 3.79696 14.4004 3.2999 14.4004C2.80285 14.4004 2.3999 14.8033 2.3999 15.3004V18.3004C2.3999 20.1229 3.87736 21.6004 5.6999 21.6004H18.2999C20.1224 21.6004 21.5999 20.1229 21.5999 18.3004V15.3004C21.5999 14.8033 21.197 14.4004 20.6999 14.4004C20.2028 14.4004 19.7999 14.8033 19.7999 15.3004V18.3004C19.7999 19.1288 19.1283 19.8004 18.2999 19.8004H5.6999C4.87148 19.8004 4.1999 19.1288 4.1999 18.3004V15.3004Z" fill="#0F172A"/>
</svg>
