<svg width="12" height="24" viewBox="0 0 12 24" fill="none" xmlns="http://www.w3.org/2000/svg">
<path d="M7.49535 5.71465C7.49535 5.96075 7.49535 6.7629 7.49535 7.9025H11.4135L10.9887 11.3953H7.49535C7.49535 16.7818 7.49535 24 7.49535 24H2.8585C2.8585 24 2.8585 16.8773 2.8585 11.3953H0.442383V7.9025H2.8585C2.8585 6.51736 2.8585 5.53241 2.8585 5.25818C2.8585 3.95156 2.76005 3.3316 3.31525 2.31909C3.87072 1.30662 5.43754 -0.0316484 8.14748 0.000570873C10.8581 0.0339642 12.0006 0.294724 12.0006 0.294724L11.4135 4.01717C11.4135 4.01717 9.68263 3.56014 8.83306 3.72302C7.9846 3.88595 7.49535 4.40859 7.49535 5.71465Z" fill="#FCFCFC"/>
</svg>
