<svg width="25" height="24" viewBox="0 0 25 24" fill="none" xmlns="http://www.w3.org/2000/svg">
<mask id="mask0_70_1709" style="mask-type:alpha" maskUnits="userSpaceOnUse" x="1" y="0" width="25" height="24">
<circle cx="13.001" cy="12" r="12" fill="white"/>
</mask>
<g mask="url(#mask0_70_1709)">
<path d="M7.65723 5.67969L16.5946 17.627H18.6185L9.68105 5.67969H7.65723Z" fill="#FCFCFC"/>
<path d="M13.1199 -0.570801C6.36852 -0.570801 0.895508 4.90221 0.895508 11.6536C0.895508 18.405 6.36852 23.878 13.1199 23.878C19.8713 23.878 25.3443 18.405 25.3443 11.6536C25.3443 4.90221 19.8713 -0.570801 13.1199 -0.570801ZM16.1168 18.5819L12.048 13.1415L7.01207 18.5819H5.71764L11.4696 12.3681L5.75376 4.72536H10.1592L13.9064 9.73574L18.544 4.72536H19.8385L14.4847 10.5094L20.5222 18.5819H16.1168Z" fill="#FCFCFC"/>
</g>
</svg>
